<svg id="svg6" xmlns="http://www.w3.org/2000/svg" viewBox="496 -368 1024 768"><rect id="bg" x="-7122.6" y="-7472" fill="#2BACB5" stroke="#000" stroke-miterlimit="10" width="15687.9" height="14889"/><g id="contacts"><rect x="-2235.6" y="-31.5" fill="#E84D5B" width="6910.6" height="445.5"/><text transform="translate(557.503 28.72)" fill="#F5ECD9" font-weight="100" font-size="36">To stay connected:</text><g id="rightside"><text transform="translate(908 376.815)" fill="#F5ECD9" font-weight="100" font-size="18">copyright 2017 Albino Tonnina</text><text transform="translate(1191.257 28.72)" fill="#F5ECD9" font-weight="100" font-size="36">This website:</text><g id="githubsite"><path fill="#F5ECD9" d="M1197.2 156.7c-.1.1-.2.1-.3-.1-.1-.1-.2-.2-.1-.3.1-.1.2-.1.3.1.2.1.3.2.1.3zm-.6-.9c.1.1.1.3 0 .3-.1.1-.2 0-.3-.1s-.1-.3 0-.3c.1-.1.2-.1.3.1zm-1-1.1c-.1.1-.1.1-.2 0s-.1-.1-.1-.2.1-.1.2 0 .2.2.1.2zm.5.6c-.1.1-.1.1-.3-.1-.1-.1-.1-.2 0-.3.1-.1.1-.1.3.1.1.2.1.3 0 .3zm2.1 1.8c-.1.1-.1.2-.3.1-.2-.1-.3-.1-.2-.3.1-.1.1-.1.3-.1.1.1.2.1.2.3zm1 .1c0 .1-.1.2-.3.2s-.3-.1-.3-.2.1-.2.3-.2c.2 0 .3 0 .3.2zm.9-.2c0 .1-.1.2-.3.3-.2.1-.3 0-.3-.1s.1-.2.3-.3.3 0 .3.1zm15.4-15.2V157c0 1.3-.4 2.3-1.3 3.2s-1.9 1.3-3.2 1.3h-4c-.1 0-.2-.1-.3-.1-.1-.1-.2-.1-.3-.3-.1-.1-.1-.3-.1-.4V157c0-1-.3-1.8-.8-2.3.6-.1 1.1-.2 1.6-.3.5-.1 1-.3 1.5-.6s.9-.6 1.3-1.1.6-1 .8-1.7.3-1.5.3-2.4c0-1.3-.4-2.4-1.3-3.3.4-.9.4-2.1-.1-3.3-.3-.1-.8-.1-1.3.2-.6.2-1.1.4-1.4.7l-.6.4c-1-.3-2-.4-3-.4-1.1 0-2.1.1-3 .4-.2-.1-.4-.3-.7-.4-.3-.2-.7-.4-1.3-.6-.6-.3-1.1-.3-1.4-.2-.4 1.2-.5 2.3-.1 3.3-.8.9-1.3 2-1.3 3.3 0 .9.1 1.7.3 2.4.2.7.5 1.3.8 1.7.3.4.8.8 1.3 1.1.5.3 1 .5 1.5.6.5.1 1 .3 1.6.3-.4.4-.7.9-.8 1.6-.3.1-.4.2-.7.3-.3.1-.6.1-.9.1-.4 0-.7-.1-1.1-.4-.4-.3-.6-.6-.9-1-.2-.3-.4-.6-.8-.8-.3-.2-.6-.3-.8-.4l-.3-.1c-.3 0-.4 0-.4.1-.1.1-.1.1-.1.2s.1.1.1.3l.2.2.1.1c.3.1.4.3.7.6.3.3.4.6.5.8l.2.4c.1.4.4.8.7 1 .3.3.7.4 1.1.5.4.1.8.1 1.1.1.4 0 .6 0 .9-.1l.4-.1v2.7c0 .3-.1.4-.2.5-.1.1-.3.2-.4.2h-4.1c-1.3 0-2.3-.4-3.2-1.3s-1.3-1.9-1.3-3.2v-15.2c0-1.3.4-2.3 1.3-3.2s1.9-1.3 3.2-1.3h15.2c1.3 0 2.3.4 3.2 1.3 1.1.8 1.6 1.8 1.6 3.1z"/><text transform="translate(1226.07 156.484)" fill="#F5ECD9" font-weight="100" font-size="18">has a public repository on GitHub.</text></g><g fill="#F5ECD9"><path d="M1333.3 60.9c0-.3-.2-.5-.4-.7l-6.7-3.9c-.1-.1-.2-.1-.4-.1h-.1c-.2 0-.2.1-.4.1l-6.7 3.9c-.2.2-.4.4-.4.7v10.5c0 .2.1.3.2.4.2.1.3.1.4 0l4-2.3c.2-.2.4-.4.4-.7v-4.9c0-.3.2-.5.4-.7l1.7-1c.2-.1.2-.1.4-.1s.3 0 .4.1l1.7 1c.2.2.4.4.4.7v4.9c0 .3.2.5.4.7l4 2.3c.2.1.3.1.4 0 .2-.1.2-.2.2-.4l.1-10.5zM1369.4 46.4c-.2-.1-.3-.1-.4 0-.2.1-.2.2-.2.4v10.4c0 .1-.1.2-.2.2-.1.1-.2.1-.3 0l-1.7-1c-.2-.2-.5-.2-.8 0l-6.7 3.9c-.2.2-.4.4-.4.7v7.8c0 .3.2.5.4.7l6.7 3.9c.2.2.5.2.8 0l6.7-3.9c.2-.2.4-.4.4-.7V49.4c0-.3-.2-.5-.4-.7l-3.9-2.3zm-.7 19.9c0 .1-.1.2-.1.2l-2.3 1.3h-.2l-2.3-1.3c-.1 0-.1-.1-.1-.2v-2.7c0-.1.1-.2.1-.2l2.3-1.3c.1-.1.2-.1.2 0l2.3 1.3c.1.1.1.1.1.2v2.7zM1393.6 63.5c.2-.2.4-.4.4-.7v-1.9c0-.3-.2-.5-.4-.7l-6.7-3.9c-.2-.2-.5-.2-.8 0l-6.7 3.9c-.2.2-.4.4-.4.7v7.8c0 .3.2.5.4.7l6.7 3.8c.2.2.5.2.8 0l4.1-2.2c.2-.1.2-.2.2-.4s-.1-.3-.2-.4l-6.8-3.9c-.2-.1-.2-.2-.2-.4v-2.5c0-.2.1-.3.2-.4l2.1-1.2c.2-.1.3-.1.4 0l2.1 1.2c.2.1.2.2.2.4v1.9c0 .2.1.3.2.4.2.1.3.1.4 0l4-2.2zM1345.6 56.3c.2-.2.5-.2.8 0l6.7 3.9c.2.2.4.4.4.7v7.8c0 .3-.2.5-.4.7l-6.7 3.9c-.2.2-.5.2-.8 0l-6.7-3.9c-.2-.2-.4-.4-.4-.7v-7.8c0-.3.2-.5.4-.7l6.7-3.9zM1406.8 73.4c-.2 0-.5-.1-.7-.2L1404 72c-.3-.2-.2-.2-.1-.3.5-.2.5-.2 1-.5h.2l1.6 1h.2l6.4-3.7c.1 0 .1-.1.1-.2v-7.4c0-.1 0-.2-.1-.2l-6.4-3.7h-.2l-6.4 3.7c-.1 0-.1.1-.1.2v7.4c0 .1.1.2.1.2l1.8 1c.9.5 1.5-.1 1.5-.6v-7.3c0-.1.1-.2.2-.2h.8c.1 0 .2.1.2.2V69c0 1.2-.7 2-1.9 2-.4 0-.7 0-1.5-.4l-1.7-1c-.4-.2-.7-.7-.7-1.2V61c0-.5.2-.9.7-1.2l6.4-3.7c.4-.2.9-.2 1.3 0l6.4 3.7c.4.2.7.7.7 1.2v7.4c0 .5-.2.9-.7 1.2l-6.4 3.7c-.2.1-.4.1-.6.1z"/><path d="M1408.7 68.4c-2.8 0-3.4-1.3-3.4-2.4 0-.1.1-.2.2-.2h.8c.1 0 .2.1.2.2.2.8.5 1.2 2.1 1.2 1.4 0 1.9-.3 1.9-1 0-.4-.2-.7-2.2-.9-1.8-.2-2.8-.5-2.8-1.9 0-1.3 1.1-2.1 2.9-2.1 2.1 0 3.1.7 3.2 2.2 0 .1 0 .1-.1.2 0 0-.1.1-.2.1h-.8c-.1 0-.2-.1-.2-.2-.2-.8-.7-1.2-2-1.2-1.5 0-1.6.5-1.6.9 0 .5.2.6 2.1.8 2 .2 2.9.6 2.9 2 .2 1.5-.9 2.3-3 2.3zM1417.5 56.3v.2h-.5v1.4h-.2v-1.4h-.5v-.2h1.2zM1417.7 56.3h.3l.5 1.4.5-1.4h.3v1.6h-.2V57v-.2-.2l-.5 1.3h-.2l-.5-1.3V58h-.2v-1.7zM1386.4 63.2h.2l1.3.8c.1 0 .1.1.1.2v1.5c0 .1 0 .1-.1.2l-1.3.8h-.2l-1.3-.8c-.1 0-.1-.1-.1-.2v-1.5c0-.1 0-.1.1-.2l1.3-.8z"/><text transform="translate(1191.257 71.008)" font-weight="100" font-size="18">is powered by:</text></g><g fill="#F5ECD9"><path d="M1339.7 114.4v-9.3c0-.6-.5-.9-1-.9-1.1 0-2.5.3-3.8.9v9.3h-2.6V97.2h2.6v5.7c1.3-.5 2.7-.9 4.2-.9 2.4 0 3.2 1.4 3.2 3.5v8.9h-2.6zm7.4-5.6c.1 3.1.7 3.7 2.6 3.7 1.5 0 3.2-.5 4.5-1l.4 2c-1.4.6-3.1 1.3-5.1 1.3-4.4 0-5.1-2.4-5.1-6.2 0-2.1.2-4 .6-5.7 1.3-.5 3.1-.8 5.2-.8 3.6 0 4.7 2 4.7 5.5v1.3l-7.8-.1zm3.4-4.6c-.8 0-2.1 0-3 .2-.1.6-.2 1.3-.3 2.5h5.5c-.2-1.7-.5-2.7-2.2-2.7zm9.5.9v9.3h-2.6v-10.5c2.2-1.2 4.5-1.6 6-1.7v2.1c-1.1.2-2.4.3-3.4.8zm10.3 9.6c-3.9 0-5.6-1.9-5.6-6.3 0-4.7 2.3-6.4 5.6-6.4 3.9 0 5.6 1.9 5.6 6.3.1 4.7-2.2 6.4-5.6 6.4zm0-10.5c-2 0-3.1 1.2-3.1 4.2 0 3.3.9 4.1 3.1 4.1 2 0 3.1-1.1 3.1-4.2 0-3.3-.9-4.1-3.1-4.1zm18.3 10.2h-3.1c-.7-1.9-1.7-3.9-3.2-5.5h-1.3v5.5h-2.6V97.2h2.6v9.9h1.2c1.3-1.3 2.4-3.1 3.1-4.7h2.9c-1 2.1-2.3 3.8-3.7 5.2 1.6 2.2 2.9 4.5 4.1 6.8zm4.8.3c-2.4 0-3.2-1.4-3.2-3.5v-8.9h2.6v9.3c0 .6.5.9 1 .9 1.1 0 2.7-.3 4-.9v-9.3h2.6v10.4c-3.1 1.8-5.5 2-7 2zM1323.6 120.8h-18.2c-1.6 0-2.8-1.3-2.8-2.8V94c0-1.6 1.3-2.8 2.8-2.8h18.2c1.6 0 2.8 1.3 2.8 2.8v24c.1 1.5-1.2 2.8-2.8 2.8zm1.9-26.6c0-1.1-.9-2-2-2h-17.9c-1.1 0-2 .9-2 2v23.6c0 1.1.9 2 2 2h17.9c1.1 0 2-.9 2-2V94.2z"/><path d="M1317.6 116.7V105s.8-2.8-9.4 1.2V95.4h3.3v7s9.3-3.6 9.3 2.8v11.7l-3.2-.2zm1.9-17.2h-3.5c1.3-1.6 2.4-4.2 2.4-4.2h3.6c.1 0-.6 1.8-2.5 4.2zm-11.2 17.2V110l3.3 3.3-3.3 3.4z"/><text transform="translate(1191.257 113.52)" font-weight="100" font-size="18">is hosted on:</text></g></g><g id="medium" fill="#F5ECD9"><text transform="translate(593.23 182.753)" font-weight="100" font-size="18">Medium</text><path d="M582.9 169.7l-7-3.5s-.1 0-.1-.1h-.2c-.3 0-.5.1-.7.4l-4 6.5 5 8.1 7-11.3v-.1z"/><polygon points="568.7,171.6 568.7,178.9 575.3,182.2"/><path d="M576.3 182.7l5.4 2.7c.7.4 1.3.1 1.3-.5v-13l-6.7 10.8zM567.6 169.7l-6.8-3.4c-.1-.1-.2-.1-.3-.1-.3 0-.5.2-.5.6v14.6c0 .4.3.9.6 1l6 3c.2.1.3.1.4.1.4 0 .6-.3.6-.8v-15c0 .1 0 .1 0 0z"/></g><g id="email" fill="#F5ECD9"><text transform="translate(595.57 72.234)" font-weight="100" font-size="18">albinotonnina@gmail.com</text><path d="M577.3 73v-7.5c-.2.2-.4.4-.7.6-1.7 1.3-3.1 2.4-4.1 3.3-.3.3-.6.5-.8.6-.2.2-.5.3-.8.5-.4.2-.7.2-1 .2-.3 0-.6-.1-1-.2-.4-.2-.6-.3-.8-.5s-.5-.4-.8-.6c-1-.9-2.4-1.9-4.1-3.3-.2-.2-.5-.4-.7-.6V73c0 .1 0 .2.1.2.1.1.1.1.2.1h14.3c.1 0 .2 0 .2-.1V73zm0-10.2v-.2-.1-.1l-.1-.1c0-.1 0-.1-.1-.1h-14.4c-.1 0-.2 0-.2.1-.1.1-.1.1-.1.2 0 1.1.5 2 1.4 2.8 1.2 1 2.5 2 3.9 3.1l.3.3.4.4c.1.1.3.2.4.3.2.1.3.2.5.3.1.1.3.1.4.1.1 0 .3 0 .4-.1.1-.1.3-.1.5-.3.2-.1.3-.2.4-.3.1-.1.3-.2.4-.4.2-.2.3-.2.3-.3 1.4-1.1 2.6-2.1 3.9-3.1.4-.3.7-.7 1-1.1.5-.6.7-1 .7-1.4zm1.2-.3V73c0 .4-.2.8-.5 1.1-.3.3-.7.5-1.1.5h-14.3c-.4 0-.8-.1-1.1-.5-.3-.3-.5-.7-.5-1.1V62.5c0-.4.2-.8.5-1.1s.7-.5 1.1-.5h14.3c.4 0 .8.2 1.1.5.4.3.5.6.5 1.1z"/></g><g id="linkedin" fill="#F5ECD9"><text transform="translate(594.292 109.172)" font-weight="100" font-size="18">LinkedIn profile</text><path d="M563.9 109.4h2.8V101h-2.8v8.4zm3-11c0-.4-.2-.8-.4-1-.3-.3-.7-.4-1.1-.4s-.9.1-1.1.4c-.3.3-.4.6-.4 1s.1.8.4 1c.3.3.7.4 1.1.4.5 0 .9-.1 1.2-.4.2-.3.3-.6.3-1zm7.1 11h2.8v-4.8c0-1.2-.3-2.2-.9-2.8-.6-.6-1.4-1-2.3-1-1.1 0-1.9.5-2.5 1.4V101h-2.8v8.4h2.8v-4.7c0-.3 0-.5.1-.7.1-.3.3-.5.6-.7.2-.2.5-.3.9-.3.9 0 1.4.6 1.4 1.9l-.1 4.5zm5.7-12.1V109c0 1-.3 1.8-1 2.5s-1.5 1-2.5 1h-11.7c-1 0-1.8-.3-2.5-1s-1-1.5-1-2.5V97.3c0-1 .3-1.8 1-2.5s1.5-1 2.5-1h11.7c1 0 1.8.3 2.5 1s1 1.5 1 2.5z"/></g><g id="instagram" fill="#F5ECD9"><text transform="translate(592.796 222.983)" font-weight="100" font-size="18">Instagram</text><path d="M570.6 208.2c2.6 0 2.9 0 3.9.1.9 0 1.5.2 1.8.3.4.2.8.4 1.1.7.3.3.5.7.7 1.1.1.3.3.8.3 1.8s.1 1.3.1 3.9 0 2.9-.1 3.9c0 .9-.2 1.4-.3 1.8-.2.4-.4.8-.7 1.1-.3.3-.7.5-1.1.7-.3.1-.8.3-1.8.3s-1.3.1-3.9.1-2.9 0-3.9-.1c-.9 0-1.4-.2-1.8-.3-.4-.2-.8-.4-1.1-.7s-.5-.7-.7-1.1c-.1-.3-.3-.8-.3-1.8s-.1-1.3-.1-3.9 0-2.9.1-3.9c0-.9.2-1.4.3-1.8.2-.4.4-.8.7-1.1.3-.3.7-.5 1.1-.7.3-.1.8-.3 1.8-.3s1.3-.1 3.9-.1m0-1.7c-2.6 0-2.9 0-4 .1-1 0-1.7.2-2.3.4-.6.2-1.2.6-1.7 1.1-.5.5-.9 1.1-1.1 1.7-.2.6-.4 1.3-.4 2.3 0 1-.1 1.4-.1 4s0 2.9.1 4c0 1 .2 1.7.4 2.3.2.6.6 1.2 1.1 1.7.5.5 1.1.9 1.7 1.1.6.2 1.3.4 2.3.4 1 0 1.4.1 4 .1s2.9 0 4-.1c1 0 1.7-.2 2.3-.4.6-.2 1.2-.6 1.7-1.1.5-.5.9-1.1 1.1-1.7.2-.6.4-1.3.4-2.3 0-1 .1-1.4.1-4s0-2.9-.1-4c0-1-.2-1.7-.4-2.3-.2-.6-.6-1.2-1.1-1.7-.5-.5-1.1-.9-1.7-1.1-.6-.2-1.3-.4-2.3-.4-1-.1-1.4-.1-4-.1z"/><path d="M570.6 211.2c-2.7 0-4.9 2.2-4.9 4.9s2.2 4.9 4.9 4.9 4.9-2.2 4.9-4.9c.1-2.7-2.2-4.9-4.9-4.9zm0 8.2c-1.8 0-3.2-1.4-3.2-3.2s1.4-3.2 3.2-3.2 3.2 1.4 3.2 3.2-1.4 3.2-3.2 3.2z"/><circle cx="575.8" cy="211" r="1.2"/></g><g id="contactresume"><path fill="#F5ECD9" d="M574.9 141.6v.9c0 .1 0 .2-.1.3s-.2.1-.3.1h-9.6c-.1 0-.2 0-.3-.1s-.1-.2-.1-.3v-.9c0-.1 0-.2.1-.3s.2-.1.3-.1h9.6c.1 0 .2 0 .3.1.1.1.1.2.1.3zm0-3.5v.9c0 .1 0 .2-.1.3s-.2.1-.3.1h-9.6c-.1 0-.2 0-.3-.1s-.1-.2-.1-.3v-.9c0-.1 0-.2.1-.3s.2-.1.3-.1h9.6c.1 0 .2 0 .3.1.1.1.1.2.1.3zm-12.1 8.3h13.9V136H571c-.4 0-.7-.1-.9-.4-.3-.3-.4-.6-.4-.9V129h-7l.1 17.4zm8.7-12.2h5.1c-.1-.3-.2-.4-.3-.6l-4.3-4.3c-.1-.1-.3-.2-.6-.3l.1 5.2zm6.9.4v12.2c0 .4-.1.7-.4.9-.3.3-.6.4-.9.4h-14.8c-.4 0-.7-.1-.9-.4-.3-.3-.4-.6-.4-.9v-18.3c0-.4.1-.7.4-.9.3-.3.6-.4.9-.4h8.7c.4 0 .8.1 1.2.3s.8.4 1 .7l4.2 4.2c.3.3.5.6.7 1 .2.5.3.9.3 1.2z"/><text transform="translate(594.778 146.046)" fill="#F5ECD9" font-weight="100" font-size="18">View resume</text></g></g><g id="skills"><g id="skillnames"><g id="title"><text id="texttitle" transform="translate(908 -261.686)" fill="#F5F7FA" font-weight="100" font-size="48">Front end</text></g><g id="title_1_"><text id="texttitle_1_" transform="translate(1190.358 290.98)" fill="#F5F7FA" font-weight="100" font-size="48">UX</text></g><g id="title_2_"><text id="texttitle_2_" transform="translate(697.357 290.981)" fill="#F5F7FA" font-weight="100" font-size="48">Graphics</text></g></g><polyline id="graph1" fill="none" stroke="#FFF" stroke-width="2" stroke-miterlimit="10" points="1011.3,-241.8 1011.3,44.2 1218,236.8"/><line id="graph2" fill="none" stroke="#FFF" stroke-width="2" stroke-miterlimit="10" x1="1011.3" y1="44.2" x2="804.7" y2="236.8"/><polygon id="skillpath" fill="#FFF" points="1011.3,31.3 1021.3,53.5 998.5,56.1"/></g><text transform="translate(526 -318.686)" fill="#F5F7FA" font-weight="100" font-size="36" id="sc6title">As for the future:</text></svg>