<svg id="svg6" xmlns="http://www.w3.org/2000/svg" xmlns:xlink="http://www.w3.org/1999/xlink" viewBox="496 -368 1024 768"><rect id="bg" x="-7122.6" y="-7472" fill="#2BACB5" stroke="#000" stroke-miterlimit="10" width="15687.9" height="14889"/><g id="skills"><g id="skillnames"><g id="title"><text id="texttitle" transform="translate(1053.266 -208.624)" fill="#F5ECD9" font-weight="300" font-size="48">Front end</text></g><g id="title_1_"><text id="texttitle_1_" transform="translate(1229.876 236.785)" fill="#F5ECD9" font-weight="300" font-size="48">UX</text></g><g id="title_2_"><text id="texttitle_2_" transform="translate(587.999 236.786)" fill="#F5ECD9" font-weight="300" font-size="48">Graphics</text></g></g><polyline id="graph1" fill="none" stroke="#FFF" stroke-width="2" stroke-miterlimit="10" points="1011.3,-241.8 1011.3,44.2 1218,236.8"/><line id="graph2" fill="none" stroke="#FFF" stroke-width="2" stroke-miterlimit="10" x1="1011.3" y1="44.2" x2="804.7" y2="236.8"/><polygon id="skillpath" fill="#FFF" points="1011.3,31.3 1021.3,53.5 998.5,56.1"/></g><text transform="translate(509 -319.38)" fill="#F5ECD9" font-weight="100" font-size="49.216" id="sc6title">As for the future:</text><g id="invincible"><defs><polygon id="clippingimage" points="1011.3,-241.8 1218,236.8 804.7,236.8"/></defs><clipPath id="clippingimage_1_"><use xlink:href="#clippingimage" overflow="visible"/></clipPath><g clip-path="url(#clippingimage_1_)"><image overflow="visible" width="280" height="210" xlink:href="images/157evxw_th.gif" transform="translate(721.265 -241.7) scale(2.2781)"/></g><g clip-path="url(#clippingimage_1_)"><image overflow="visible" width="350" height="406" xlink:href="images/invincible.jpg" transform="translate(848.803 -155.883) scale(.9668)"/></g></g><rect id="bgright" x="1031.3" y="-1872.5" fill="#F5ECD9" width="2340.6" height="3810.5"/><g id="endtitles"><g id="githubsite"><text transform="translate(1098.577 1164.745)" fill="#2BACB5" font-weight="100" font-size="23.865">copyright 2017 Albino Tonnina</text><path fill="#2BACB5" d="M1093.4 202.4c-.1.1-.3.1-.4-.1-.2-.2-.3-.3-.1-.4.1-.1.3-.1.4.1.2.2.2.4.1.4zm-.9-1.2c.2.2.2.3 0 .4-.1.1-.3 0-.3-.2-.1-.2-.1-.3 0-.4.1-.1.2-.1.3.2zm-1.3-1.3c-.1.1-.2.1-.3 0-.2-.1-.2-.2-.2-.3 0-.1.2-.1.3 0 .2.1.3.2.2.3zm.7.7c-.1.1-.2.1-.3-.1-.1-.2-.2-.3 0-.3.1-.1.2-.1.3.1.1.1.1.2 0 .3zm2.7 2.3c-.1.2-.2.3-.4.2-.3-.1-.3-.2-.3-.3.1-.2.2-.2.4-.2.3.1.3.2.3.3zm1.4.2c0 .2-.1.3-.3.3-.3 0-.3-.1-.3-.3 0-.2.1-.3.3-.3.1.1.3.1.3.3zm1.1-.2c0 .2-.1.3-.3.3s-.3 0-.4-.2c0-.2.1-.3.3-.3.3-.1.4 0 .4.2zm20.5-20.2v20.2c0 1.7-.6 3.1-1.8 4.3-1.2 1.2-2.6 1.8-4.3 1.8h-5.3c-.1 0-.3-.1-.4-.1-.2-.1-.3-.2-.3-.3-.1-.2-.1-.3-.1-.6v-5c0-1.3-.3-2.3-1.1-3 .8-.1 1.5-.3 2.2-.3.7-.2 1.3-.4 2-.8s1.3-.8 1.7-1.4c.4-.6.8-1.3 1.1-2.3s.4-2 .4-3.2c0-1.7-.6-3.2-1.7-4.3.5-1.3.5-2.8-.2-4.3-.4-.1-1-.1-1.7.3-.8.3-1.4.6-1.9.9l-.8.5c-1.3-.3-2.7-.6-4-.6-1.4 0-2.8.2-4 .6-.3-.2-.5-.3-.9-.6-.3-.3-.9-.5-1.8-.8-.8-.3-1.4-.4-1.8-.3-.6 1.6-.7 3-.2 4.3-1.1 1.2-1.7 2.7-1.7 4.3 0 1.2.2 2.3.4 3.2.3.9.7 1.7 1.1 2.3s1 1 1.7 1.4c.7.4 1.3.7 2 .8s1.3.3 2.2.3c-.6.5-.9 1.3-1 2.2-.3.2-.6.3-.9.3-.3.1-.8.1-1.2.1-.5 0-.9-.2-1.4-.5-.5-.3-.8-.8-1.2-1.3-.3-.4-.6-.8-1-1.1-.4-.3-.8-.4-1-.5l-.4-.1c-.3 0-.5 0-.6.1-.1.1-.2.2-.1.3 0 .1.1.2.2.3l.3.3.2.1c.3.2.6.4.9.8.3.4.5.8.7 1.1l.3.5c.2.5.5 1 .9 1.3s.9.5 1.4.7c.5.1 1 .2 1.5.2s.8 0 1.2-.1l.5-.1v3.6c0 .3-.1.5-.3.7-.2.2-.3.3-.5.3h-5.5c-1.7 0-3.1-.6-4.3-1.8-1.2-1.2-1.8-2.6-1.8-4.3v-20.2c0-1.7.6-3.1 1.8-4.3 1.2-1.2 2.6-1.8 4.3-1.8h20.2c1.7 0 3.1.6 4.3 1.8 1.1 1 1.7 2.4 1.7 4.1z"/><text transform="translate(1131.617 202.156)" fill="#2BACB5" font-weight="100" font-size="23.865">has a public repository on GitHub.</text></g><g id="node" fill="#2BACB5"><path d="M1273.8 75.4c0-.4-.2-.7-.5-.9l-8.9-5.2c-.1-.1-.3-.1-.5-.1h-.1c-.2 0-.3.1-.5.1l-8.9 5.2c-.3.2-.5.5-.5.9v13.9c0 .2.1.4.3.5s.4.1.5 0l5.3-3.1c.3-.2.5-.5.5-.9v-6.5c0-.4.2-.7.5-.9l2.2-1.3c.2-.1.3-.1.5-.1s.4 0 .5.1l2.2 1.3c.3.2.5.5.5.9v6.5c0 .4.2.7.5.9l5.3 3.1c.2.1.4.1.5 0 .2-.1.3-.3.3-.5l.3-13.9zM1321.7 56.3c-.2-.1-.4-.1-.5 0-.2.1-.3.3-.3.5v13.7c0 .1-.1.3-.2.3-.1.1-.3.1-.4 0l-2.2-1.3c-.3-.2-.7-.2-1.1 0l-8.9 5.2c-.3.2-.5.5-.5.9V86c0 .4.2.7.5.9l8.9 5.2c.3.2.7.2 1.1 0l8.9-5.2c.3-.2.5-.5.5-.9V60.2c0-.4-.2-.7-.5-.9l-5.3-3zm-.9 26.3c0 .1-.1.2-.1.2l-3.1 1.7h-.3l-3.1-1.7c-.1 0-.1-.1-.1-.2V79c0-.1.1-.2.1-.2l3.1-1.7c.1-.1.2-.1.3 0l3.1 1.7c.1.1.1.1.1.2v3.6zM1353.7 78.9c.3-.2.5-.5.5-.9v-2.5c0-.4-.2-.7-.5-.9l-8.9-5.2c-.3-.2-.7-.2-1.1 0l-8.9 5.2c-.3.2-.5.5-.5.9v10.4c0 .4.2.7.5.9l8.9 5.1c.3.2.7.2 1 0l5.4-2.9c.2-.1.3-.3.3-.5s-.1-.4-.3-.5l-9-5.2c-.2-.1-.3-.3-.3-.5V79c0-.2.1-.4.3-.5l2.8-1.6c.2-.1.4-.1.5 0l2.8 1.6c.2.1.3.3.3.5v2.5c0 .2.1.4.3.5s.4.1.5 0l5.4-3.1zM1290.1 69.4c.3-.2.7-.2 1.1 0l8.9 5.2c.3.2.5.5.5.9v10.4c0 .4-.2.7-.5.9l-8.9 5.2c-.3.2-.7.2-1.1 0l-8.9-5.2c-.3-.2-.5-.5-.5-.9V75.5c0-.4.2-.7.5-.9l8.9-5.2zM1371.2 92c-.3 0-.6-.1-.9-.2l-2.8-1.6c-.4-.2-.2-.3-.1-.4.6-.2.7-.2 1.3-.6h.2l2.1 1.3h.3l8.4-4.9c.1 0 .1-.1.1-.2v-9.8c0-.1 0-.2-.1-.2l-8.4-4.9h-.3l-8.4 4.9c-.1 0-.1.1-.1.2v9.8c0 .1.1.2.1.2l2.3 1.3c1.2.6 2-.1 2-.8v-9.7c0-.1.1-.2.2-.2h1.1c.1 0 .2.1.2.2v9.7c0 1.6-.9 2.6-2.5 2.6-.5 0-.9 0-1.9-.5l-2.2-1.3c-.5-.3-.9-.9-.9-1.5v-9.8c0-.6.3-1.2.9-1.5l8.4-4.9c.5-.3 1.2-.3 1.7 0l8.4 4.9c.5.3.9.9.9 1.5v9.8c0 .6-.3 1.2-.9 1.5l-8.4 4.9c-.1.2-.4.2-.7.2z"/><path d="M1373.7 85.3c-3.7 0-4.5-1.7-4.5-3.2 0-.1.1-.2.2-.2h1.1c.1 0 .2.1.2.2.2 1.1.6 1.6 2.8 1.6 1.8 0 2.5-.4 2.5-1.3 0-.5-.2-.9-2.9-1.2-2.3-.2-3.8-.7-3.8-2.5 0-1.7 1.4-2.7 3.9-2.7 2.7 0 4.1.9 4.3 2.9 0 .1 0 .1-.1.2 0 0-.1.1-.2.1h-1.1c-.1 0-.2-.1-.2-.2-.3-1.1-.9-1.5-2.6-1.5-1.9 0-2.1.7-2.1 1.2 0 .6.3.8 2.8 1.1 2.6.3 3.9.8 3.9 2.6.1 1.9-1.4 2.9-4.2 2.9zM1385.4 69.3v.2h-.7v1.8h-.3v-1.8h-.7v-.2h1.7zM1385.6 69.3h.4l.6 1.8.6-1.8h.4v2.1h-.3v-1.2-.2-.3l-.6 1.7h-.3l-.6-1.7v1.7h-.3l.1-2.1zM1344.2 78.5h.2l1.7 1c.1 0 .1.1.1.2v2c0 .1 0 .1-.1.2l-1.7 1h-.2l-1.7-1c-.1 0-.1-.1-.1-.2v-2c0-.1 0-.1.1-.2l1.7-1z"/><text transform="translate(1085.46 88.828)" font-weight="100" font-size="23.865">is powered by:</text></g><g id="heroku" fill="#2BACB5"><path d="M1282.3 146.3V134c0-.8-.6-1.3-1.4-1.3-1.5 0-3.4.4-5 1.2v12.4h-3.5v-22.8h3.5v7.6c1.7-.6 3.6-1.2 5.6-1.2 3.1 0 4.3 1.9 4.3 4.6v11.9l-3.5-.1zm9.8-7.4c.1 4.1.9 4.9 3.5 4.9 2 0 4.2-.6 6-1.4l.5 2.6c-1.9.8-4.1 1.7-6.8 1.7-5.8 0-6.7-3.1-6.7-8.2 0-2.7.2-5.2.8-7.6 1.7-.6 4.1-1 6.9-1 4.7 0 6.2 2.6 6.2 7.2v1.8h-10.4zm4.4-6.1c-1 0-2.7 0-4 .3-.1.7-.3 1.7-.4 3.4h7.2c0-2.3-.4-3.7-2.8-3.7zm12.6 1.2v12.4h-3.5v-14c2.9-1.6 6-2.1 8-2.2v2.8c-1.3.2-3.1.3-4.5 1zm13.8 12.8c-5.1 0-7.5-2.5-7.5-8.3 0-6.2 3-8.5 7.5-8.5 5.1 0 7.5 2.5 7.5 8.3-.1 6.2-3.1 8.5-7.5 8.5zm0-14c-2.6 0-4.1 1.6-4.1 5.6 0 4.4 1.3 5.5 4.1 5.5 2.6 0 4.1-1.5 4.1-5.6 0-4.4-1.3-5.5-4.1-5.5zm24.2 13.5h-4.1c-.9-2.5-2.3-5.1-4.3-7.3h-1.8v7.3h-3.5v-22.8h3.5v13.1h1.6c1.8-1.8 3.1-4.1 4.1-6.3h3.9c-1.4 2.7-3 5-4.9 6.9 2.2 3.1 4 6.1 5.5 9.1zm6.4.5c-3.1 0-4.3-1.9-4.3-4.6v-11.9h3.5v12.3c0 .8.6 1.3 1.4 1.3 1.5 0 3.6-.4 5.2-1.2v-12.4h3.5v13.9c-4.1 2.4-7.3 2.6-9.3 2.6zM1261 154.8h-24.1c-2.1 0-3.8-1.7-3.8-3.8v-31.7c0-2.1 1.7-3.8 3.8-3.8h24.1c2.1 0 3.8 1.7 3.8 3.8V151c0 2.2-1.7 3.8-3.8 3.8zm2.5-35.2c0-1.5-1.2-2.6-2.6-2.6h-23.7c-1.5 0-2.6 1.2-2.6 2.6v31.3c0 1.5 1.2 2.6 2.6 2.6h23.7c1.5 0 2.6-1.2 2.6-2.6v-31.3z"/><path d="M1253 149.4v-15.5s1-3.7-12.5 1.6v-14.4h4.4v9.2s12.3-4.8 12.3 3.7v15.5l-4.2-.1zm2.5-22.8h-4.6c1.7-2.1 3.1-5.6 3.1-5.6h4.8c.1.1-.8 2.4-3.3 5.6zm-14.9 22.8v-8.8l4.4 4.4-4.4 4.4z"/><text transform="translate(1085.46 145.191)" font-weight="100" font-size="23.865">is hosted on:</text></g><text transform="translate(1085.46 42.762)" fill="#2BACB5" font-weight="100" font-size="47.73">This website:</text><g id="medium" fill="#2BACB5"><text transform="translate(1132.828 -114.364)" font-weight="100" font-size="23.865">Medium</text><path d="M1119.1-131.6l-9.2-4.6c-.1 0-.1-.1-.2-.1h-.3c-.4 0-.7.2-.9.5l-5.3 8.6 6.6 10.8 9.2-15c.2-.1.1-.2.1-.2z"/><polygon points="1100.3,-129.2 1100.3,-119.4 1109,-115.1"/><path d="M1110.3-114.4l7.2 3.6c.9.5 1.7.1 1.7-.7v-17.2l-8.9 14.3zM1098.8-131.6l-9-4.5c-.2-.1-.3-.1-.5-.1-.4 0-.7.3-.7.8v19.4c0 .5.4 1.1.8 1.4l7.9 4c.2.1.4.1.6.1.5 0 .8-.4.8-1l.1-20.1c.1 0 .1 0 0 0z"/></g><g id="linkedin" fill="#2BACB5"><text transform="translate(1134.237 -211.922)" font-weight="100" font-size="23.865">LinkedIn profile</text><path d="M1093.9-211.6h3.7v-11.1h-3.7v11.1zm4-14.6c0-.5-.3-1.1-.5-1.3-.4-.4-.9-.5-1.5-.5s-1.2.1-1.5.5c-.4.4-.5.8-.5 1.3s.1 1.1.5 1.3c.4.4.9.5 1.5.5.7 0 1.2-.1 1.6-.5.2-.4.4-.8.4-1.3zm9.4 14.6h3.7v-6.4c0-1.6-.4-2.9-1.2-3.7-.8-.8-1.9-1.3-3-1.3-1.5 0-2.5.7-3.3 1.9v-1.6h-3.7v11.1h3.7v-6.2c0-.4 0-.7.1-.9.1-.4.4-.7.8-.9.3-.3.7-.4 1.2-.4 1.2 0 1.9.8 1.9 2.5l-.2 5.9zm7.6-16.1v15.5c0 1.3-.4 2.4-1.3 3.3s-2 1.3-3.3 1.3h-15.5c-1.3 0-2.4-.4-3.3-1.3s-1.3-2-1.3-3.3v-15.5c0-1.3.4-2.4 1.3-3.3s2-1.3 3.3-1.3h15.5c1.3 0 2.4.4 3.3 1.3s1.3 2 1.3 3.3z"/></g><g id="instagram" fill="#2BACB5"><text transform="translate(1132.252 -61.025)" font-weight="100" font-size="23.865">Instagram</text><path d="M1102.8-80.6c3.4 0 3.8 0 5.2.1 1.2.1 1.9.3 2.4.4.6.2 1 .5 1.5 1 .4.4.7.9 1 1.5.2.5.4 1.1.4 2.4.1 1.3.1 1.8.1 5.2s0 3.8-.1 5.2c-.1 1.2-.3 1.9-.4 2.4-.2.6-.5 1-1 1.5-.4.4-.9.7-1.5 1-.5.2-1.1.4-2.4.4-1.3.1-1.8.1-5.2.1-3.4 0-3.8 0-5.2-.1-1.2-.1-1.9-.3-2.4-.4-.6-.2-1-.5-1.5-1-.4-.4-.7-.9-1-1.5-.2-.5-.4-1.1-.4-2.4-.1-1.3-.1-1.8-.1-5.2s0-3.8.1-5.2c.1-1.2.3-1.9.4-2.4.2-.6.5-1 1-1.5.4-.4.9-.7 1.5-1 .5-.2 1.1-.4 2.4-.4 1.4 0 1.8-.1 5.2-.1m0-2.3c-3.5 0-3.9 0-5.3.1s-2.3.3-3.1.6c-.8.3-1.6.8-2.3 1.5-.7.7-1.1 1.4-1.5 2.3-.3.8-.5 1.7-.6 3.1-.1 1.4-.1 1.8-.1 5.3s0 3.9.1 5.3.3 2.3.6 3.1c.3.8.8 1.6 1.5 2.3.7.7 1.4 1.1 2.3 1.5.8.3 1.7.5 3.1.6 1.4.1 1.8.1 5.3.1s3.9 0 5.3-.1 2.3-.3 3.1-.6c.8-.3 1.6-.8 2.3-1.5.7-.7 1.1-1.4 1.5-2.3.3-.8.5-1.7.6-3.1.1-1.4.1-1.8.1-5.3s0-3.9-.1-5.3-.3-2.3-.6-3.1c-.3-.8-.8-1.6-1.5-2.3-.7-.7-1.4-1.1-2.3-1.5-.8-.3-1.7-.5-3.1-.6-1.4 0-1.8-.1-5.3-.1z"/><path d="M1102.8-76.6c-3.6 0-6.6 2.9-6.6 6.6 0 3.6 2.9 6.6 6.6 6.6 3.6 0 6.6-2.9 6.6-6.6 0-3.7-2.9-6.6-6.6-6.6zm0 10.8c-2.4 0-4.3-1.9-4.3-4.3s1.9-4.3 4.3-4.3 4.3 1.9 4.3 4.3-1.9 4.3-4.3 4.3z"/><circle cx="1109.7" cy="-76.9" r="1.5"/></g><g id="contactresume"><path fill="#2BACB5" d="M1108.5-168.9v1.2c0 .1 0 .3-.1.4-.1.1-.3.1-.4.1h-12.7c-.1 0-.3 0-.4-.1-.1-.1-.1-.3-.1-.4v-1.2c0-.1 0-.3.1-.4.1-.1.3-.1.4-.1h12.7c.1 0 .3 0 .4.1.1.1.1.2.1.4zm0-4.7v1.2c0 .1 0 .3-.1.4-.1.1-.3.1-.4.1h-12.7c-.1 0-.3 0-.4-.1-.1-.1-.1-.3-.1-.4v-1.2c0-.1 0-.3.1-.4.1-.1.3-.1.4-.1h12.7c.1 0 .3 0 .4.1s.1.3.1.4zm-16.1 11h18.4v-13.8h-7.6c-.5 0-.9-.1-1.2-.5-.4-.4-.5-.8-.5-1.2v-7.6h-9.3l.2 23.1zm11.6-16.1h6.8c-.1-.4-.3-.5-.4-.8l-5.7-5.7c-.1-.1-.4-.3-.8-.4l.1 6.9zm9.1.5v16.2c0 .5-.1.9-.5 1.2-.4.4-.8.5-1.2.5h-19.6c-.5 0-.9-.1-1.2-.5-.4-.4-.5-.8-.5-1.2v-24.3c0-.5.1-.9.5-1.2.4-.4.8-.5 1.2-.5h11.5c.5 0 1.1.1 1.6.4.5.3 1.1.5 1.3.9l5.6 5.6c.4.4.7.8.9 1.3.3.7.4 1.2.4 1.6z"/><text transform="translate(1134.881 -163.032)" fill="#2BACB5" font-weight="100" font-size="23.865">View resume</text></g><g id="email" fill="#2BACB5"><text transform="translate(1135.932 -260.895)" font-weight="100" font-size="23.865">albinotonnina@gmail.com</text><path d="M1111.7-259.9v-9.9c-.3.3-.5.5-.9.8-2.3 1.7-4.1 3.2-5.4 4.4-.4.4-.8.7-1.1.8-.3.3-.7.4-1.1.7-.5.3-.9.3-1.3.3s-.8-.1-1.3-.3c-.5-.3-.8-.4-1.1-.7-.3-.3-.7-.5-1.1-.8-1.3-1.2-3.2-2.5-5.4-4.4-.3-.3-.7-.5-.9-.8v9.9c0 .1 0 .3.1.3.1.1.1.1.3.1h19c.1 0 .3 0 .3-.1-.1 0-.1-.1-.1-.3zm0-13.5v-.3-.1-.1l-.1-.1c0-.1 0-.1-.1-.1h-19.1c-.1 0-.3 0-.3.1-.1.1-.1.1-.1.3 0 1.5.7 2.7 1.9 3.7 1.6 1.3 3.3 2.7 5.2 4.1l.4.4.5.5c.1.1.4.3.5.4.3.1.4.3.7.4.1.1.4.1.5.1.1 0 .4 0 .5-.1.1-.1.4-.1.7-.4.3-.1.4-.3.5-.4.1-.1.4-.3.5-.5.3-.3.4-.3.4-.4 1.9-1.5 3.4-2.8 5.2-4.1.5-.4.9-.9 1.3-1.5.6-.8.9-1.4.9-1.9zm1.6-.4v13.9c0 .5-.3 1.1-.7 1.5-.4.4-.9.7-1.5.7h-19c-.5 0-1.1-.1-1.5-.7-.4-.4-.7-.9-.7-1.5v-13.9c0-.5.3-1.1.7-1.5.4-.4.9-.7 1.5-.7h19c.5 0 1.1.3 1.5.7.5.4.7.8.7 1.5z"/></g><text transform="translate(1085.46 -318.587)" fill="#2BACB5" font-weight="100" font-size="47.73">To stay connected:</text><text transform="translate(1085.46 835)" fill="#2BACB5" font-weight="100" font-size="65.252">Bye!</text></g></svg>