<?xml version="1.0" encoding="utf-8"?>
<!-- Generator: Adobe Illustrator 22.0.1, SVG Export Plug-In . SVG Version: 6.00 Build 0)  -->
<svg version="1.1" id="svg6" xmlns="http://www.w3.org/2000/svg" xmlns:xlink="http://www.w3.org/1999/xlink" x="0px" y="0px"
	 viewBox="496 -368 1024 768" enable-background="new 496 -368 1024 768" xml:space="preserve">
<rect id="bg" x="-7122.6" y="-7472" fill="#2BACB5" stroke="#000000" stroke-miterlimit="10" width="15687.9" height="14889"/>
<g id="skills">
	<g id="skillnames">
		<g id="title">
			
				<text id="texttitle" transform="matrix(1 0 0 1 677.7734 -243.826)" fill="#F5ECD9" font-family="'Roboto-Light'" font-size="24.0762px">Front end</text>
		</g>
		<g id="title_1_">
			
				<text id="texttitle_1_" transform="matrix(1 0 0 1 846.2227 16.0004)" fill="#F5ECD9" font-family="'Roboto-Light'" font-size="24.0762px">User Experience</text>
		</g>
		<g id="title_2_">
			
				<text id="texttitle_2_" transform="matrix(1 0 0 1 514.2649 16.0002)" fill="#F5ECD9" font-family="'Roboto-Light'" font-size="24.0762px">Graphics</text>
		</g>
	</g>
	<polyline id="graph1" fill="none" stroke="#FFFFFF" stroke-width="2" stroke-miterlimit="10" points="729.6,-230.5 729.6,-87 
		833.3,9.6 	"/>
	
		<line id="graph2" fill="none" stroke="#FFFFFF" stroke-width="2" stroke-miterlimit="10" x1="729.6" y1="-87" x2="625.9" y2="9.6"/>
	<polygon id="skillpath" fill="none" stroke="#FFFFFF" stroke-miterlimit="10" points="729.6,-147.8 748.5,-69.4 709.5,-69.4 	"/>
	<g id="invincible">
		<defs>
			<polygon id="clippingimage" points="729.6,-232.3 833.3,9.6 625.9,9.6 			"/>
		</defs>
		<clipPath id="clippingimage_1_">
			<use xlink:href="#clippingimage"  overflow="visible"/>
		</clipPath>
		<rect x="586.5" y="-244.5" clip-path="url(#clippingimage_1_)" fill="#E3E815" width="323" height="294"/>
		<g clip-path="url(#clippingimage_1_)">
			<g>
				<g>
					<rect x="723.8" y="-41.8" fill="#4D4C4C" width="4.8" height="39.8"/>
					<path fill="#E8B33F" d="M748.2-18.2c0,1.6-1.3,2.9-2.9,2.9h-38.6c-1.6,0-2.9-1.3-2.9-2.9l0,0c0-1.6,1.3-2.9,2.9-2.9h38.6
						C746.9-21.1,748.2-19.8,748.2-18.2L748.2-18.2z"/>
					<rect x="709" y="-18.4" fill="#4D4C4C" width="34.4" height="4.3"/>
					<path fill="#4D4C4C" d="M741.4-0.6c0,0.8-0.7,1.5-1.5,1.5h-27.4c-0.8,0-1.5-0.7-1.5-1.5l0,0c0-0.8,0.7-1.5,1.5-1.5h27.4
						C740.7-2.1,741.4-1.5,741.4-0.6L741.4-0.6z"/>
					<path fill="#4D4C4C" d="M715.6,3.1c0,1.3-1,2.3-2.3,2.3c-1.3,0-2.3-1-2.3-2.3c0-1.3,1-2.3,2.3-2.3
						C714.6,0.9,715.6,1.9,715.6,3.1z"/>
					<path fill="#4D4C4C" d="M741.4,3.1c0,1.3-1,2.3-2.3,2.3c-1.3,0-2.3-1-2.3-2.3c0-1.3,1-2.3,2.3-2.3
						C740.4,0.9,741.4,1.9,741.4,3.1z"/>
					<path fill="#4D4C4C" d="M728.4,3.1c0,1.3-1,2.3-2.3,2.3c-1.3,0-2.3-1-2.3-2.3c0-1.3,1-2.3,2.3-2.3
						C727.4,0.9,728.4,1.9,728.4,3.1z"/>
					<path fill="#E8B33F" d="M748.4-36.6c0,2-1.7,3.7-3.7,3.7h-36.3c-2,0-3.7-1.7-3.7-3.7v-13.7c0-2,1.7-3.7,3.7-3.7h36.3
						c2,0,3.7,1.7,3.7,3.7V-36.6z"/>
				</g>
				<g>
					<path opacity="0.1" d="M808.2,5.7c0,2-36.1,3.6-80.5,3.6c-44.5,0-80.5-1.6-80.5-3.6c0-2,36.1-3.6,80.5-3.6
						C772.1,2.1,808.2,3.7,808.2,5.7z"/>
				</g>
				<g>
					<rect x="657.9" y="-72.6" fill="#F4F4F4" width="7" height="26"/>
					<path fill="#BFBEBE" d="M663.2-50.1c0,1-0.8,1.8-1.8,1.8c-1,0-1.8-0.8-1.8-1.8c0-1,0.8-1.8,1.8-1.8
						C662.4-51.9,663.2-51.1,663.2-50.1z"/>
				</g>
				<g>
					<rect x="665.8" y="-72.6" fill="#F4F4F4" width="7" height="26"/>
					<path fill="#BFBEBE" d="M671-50.1c0,1-0.8,1.8-1.8,1.8c-1,0-1.8-0.8-1.8-1.8c0-1,0.8-1.8,1.8-1.8C670.2-51.9,671-51.1,671-50.1
						z"/>
				</g>
				<g>
					
						<rect x="676.1" y="-73.1" transform="matrix(0.9755 -0.2198 0.2198 0.9755 29.8222 147.899)" fill="#F4F4F4" width="7" height="26"/>
					<path fill="#BFBEBE" d="M683.4-51.2c0.2,1-0.4,1.9-1.3,2.1c-1,0.2-1.9-0.4-2.1-1.3c-0.2-1,0.4-1.9,1.3-2.1
						C682.2-52.7,683.2-52.1,683.4-51.2z"/>
				</g>
				<polygon fill="#544B43" points="808.2,-46.5 648.1,-46.5 648.1,-42.9 654.5,-42.9 654.5,5.4 661.4,5.4 661.4,-42.9 794.8,-42.9 
					794.8,5.4 801.8,5.4 801.8,-42.9 808.2,-42.9 				"/>
			</g>
			<g>
				<path fill="#ADADAD" d="M801.2-47c0,0.3-0.3,0.6-0.6,0.6H759c-0.3,0-0.6-0.3-0.6-0.6v-2c0-0.3,0.3-0.6,0.6-0.6h41.6
					c0.3,0,0.6,0.3,0.6,0.6V-47z"/>
				<g>
					<path fill="#E8E7E7" d="M798.9-73.3h-19.1v23.8h19.1c1.3,0,2.3-1,2.3-2.3V-71C801.2-72.3,800.2-73.3,798.9-73.3z"/>
					<path fill="#CCCBCB" d="M760.8-73.3c-1.3,0-2.3,1-2.3,2.3v19.2c0,1.3,1,2.3,2.3,2.3h19v-23.8H760.8z"/>
				</g>
				<path fill="#FFFFFF" d="M782.5-61.4c0,1.5-1.2,2.6-2.6,2.6c-1.5,0-2.6-1.2-2.6-2.6c0-1.5,1.2-2.6,2.6-2.6
					C781.3-64.1,782.5-62.9,782.5-61.4z"/>
			</g>
			<g id="me">
				<rect x="705.1" y="-96.3" fill="#FFFFFF" width="41.9" height="41.9"/>
				<polygon fill="#F7D3AE" points="706.1,-129 706.1,-115.8 706.1,-96.3 746.1,-96.3 746.1,-115.4 746.1,-129 				"/>
				<polygon fill="#E8E7E7" points="729.3,-93.2 729.8,-84.4 741.8,-96.3 729.3,-96.3 729.3,-93.2 				"/>
				<polygon fill="#E8E7E7" points="722.7,-96.3 710.1,-96.3 722.2,-84.4 722.7,-93.2 				"/>
				<polygon fill="#CA5580" points="726,-93.2 729.3,-93.2 729.3,-96.3 722.7,-96.3 722.7,-93.2 				"/>
				<polygon fill="#EF6592" points="730.5,-71.6 729.3,-93.2 729.3,-93.2 726,-93.2 722.7,-93.2 721.5,-71.5 726.1,-66.9 				"/>
				<polygon fill="#FFFFFF" points="726,-96.3 717.1,-89.6 711.3,-96.3 				"/>
				<polygon fill="#FFFFFF" points="726,-96.3 735,-89.6 740.7,-96.3 				"/>
				<polygon fill="#1B1C1C" points="747,-51.1 705.2,-51.2 705.2,-61.4 747,-61.4 				"/>
				<polygon fill="#544B43" points="706.1,-116.3 697.7,-132.6 721.5,-143.8 722.7,-139.6 738.7,-149.6 733.4,-139.2 744,-144.1 
					738.7,-137 744,-137.7 740.9,-132.9 750.1,-131 746.1,-116.3 744,-126.2 709.6,-124.5 				"/>
				<path fill="#1B1C1C" d="M728-45.9"/>
				<path fill="#1B1C1C" d="M755.2-63.9c-6.1-4.8-29.1,0-29.1,0s-11.9-2.5-20.8-2.1c-3.5,0.1-6.6,0.7-8.3,2.1
					c-6.1,4.8,2.7,17.3,29.1,15.4C752.5-46.6,761.3-59.1,755.2-63.9z"/>
				<g>
					<path fill="#544B43" d="M711.2-115.5l-0.3,0.7c0.2,0.1,5.3,2.2,10.2-0.7l-0.4-0.6C716.1-113.4,711.2-115.4,711.2-115.5z"/>
				</g>
				<g>
					<path fill="#544B43" d="M741-115.6l0.3,0.7c-0.2,0.1-5.2,2.3-10.2-0.5l0.4-0.6C736.1-113.4,740.9-115.5,741-115.6z"/>
				</g>
				<g>
					<path fill="#FFFFFF" d="M756.8-70.4c-2,0.9-3.1,0.3-3.7-0.2c-2.2-1.7-3.9-6.7-4.8-14c-0.7-6-0.6-11.4-0.6-11.5c0,0,0,0,0,0
						l-4.4-0.1c0,0.2-0.1,5.9,0.7,12.2c1.1,9,3.3,14.9,6.6,17.5c1,0.8,2.5,1.5,4.4,1.5c1,0,2.2-0.2,3.5-0.8L756.8-70.4z"/>
					<path fill="#F7D3AE" d="M756.5-63.6c-2.3-0.4-3.8-2.7-3.4-5.1c0.4-2.4,2.6-4,5-3.5c2.3,0.4,3.8,2.7,3.4,5.1
						C761-64.7,758.8-63.1,756.5-63.6z"/>
				</g>
				<g>
					<path fill="#FFFFFF" d="M695.3-70.4c2,0.9,3.1,0.3,3.7-0.2c2.2-1.7,3.9-6.7,4.8-14c0.7-6,0.6-11.4,0.6-11.5c0,0,0,0,0,0
						l4.4-0.1c0,0.2,0.1,5.9-0.7,12.2c-1.1,9-3.3,14.9-6.6,17.5c-1,0.8-2.5,1.5-4.4,1.5c-1,0-2.2-0.2-3.5-0.8L695.3-70.4z"/>
					<path fill="#F7D3AE" d="M695.6-63.6c2.3-0.4,3.8-2.7,3.4-5.1c-0.4-2.4-2.6-4-5-3.5c-2.3,0.4-3.8,2.7-3.4,5.1
						C691.1-64.7,693.3-63.1,695.6-63.6z"/>
				</g>
			</g>
		</g>
	</g>
</g>
<g id="sc6title">
	<text transform="matrix(1 0 0 1 527.9698 -314.6172)" fill="#F5ECD9" font-family="'Roboto-Thin'" font-size="49.2156px">As for the future:</text>
</g>
<rect id="bgright" x="1031.3" y="-1872.5" fill="#F5ECD9" width="2340.6" height="3810.5"/>
<g id="endtitles">
	<g id="githubsite">
		<g>
			<text transform="matrix(1 0 0 1 1098.5768 1164.7454)" fill="#2BACB5" font-family="'Roboto-Thin'" font-size="23.8652px">copyright 2017 Albino Tonnina</text>
		</g>
		<path fill="#2BACB5" d="M1093.4,202.4c-0.1,0.1-0.3,0.1-0.4-0.1c-0.2-0.2-0.3-0.3-0.1-0.4c0.1-0.1,0.3-0.1,0.4,0.1
			C1093.5,202.2,1093.5,202.4,1093.4,202.4z M1092.5,201.2c0.2,0.2,0.2,0.3,0,0.4c-0.1,0.1-0.3,0-0.3-0.2c-0.1-0.2-0.1-0.3,0-0.4
			C1092.3,200.9,1092.4,200.9,1092.5,201.2z M1091.2,199.9c-0.1,0.1-0.2,0.1-0.3,0c-0.2-0.1-0.2-0.2-0.2-0.3c0-0.1,0.2-0.1,0.3,0
			C1091.2,199.7,1091.3,199.8,1091.2,199.9z M1091.9,200.6c-0.1,0.1-0.2,0.1-0.3-0.1c-0.1-0.2-0.2-0.3,0-0.3
			c0.1-0.1,0.2-0.1,0.3,0.1C1092,200.4,1092,200.5,1091.9,200.6z M1094.6,202.9c-0.1,0.2-0.2,0.3-0.4,0.2c-0.3-0.1-0.3-0.2-0.3-0.3
			c0.1-0.2,0.2-0.2,0.4-0.2C1094.6,202.7,1094.6,202.8,1094.6,202.9z M1096,203.1c0,0.2-0.1,0.3-0.3,0.3c-0.3,0-0.3-0.1-0.3-0.3
			c0-0.2,0.1-0.3,0.3-0.3C1095.8,202.9,1096,202.9,1096,203.1z M1097.1,202.9c0,0.2-0.1,0.3-0.3,0.3s-0.3,0-0.4-0.2
			c0-0.2,0.1-0.3,0.3-0.3C1097,202.6,1097.1,202.7,1097.1,202.9z M1117.6,182.7v20.2c0,1.7-0.6,3.1-1.8,4.3
			c-1.2,1.2-2.6,1.8-4.3,1.8h-4.8c-0.3,0-0.4,0-0.5,0s-0.3-0.1-0.4-0.1c-0.2-0.1-0.3-0.2-0.3-0.3c-0.1-0.2-0.1-0.3-0.1-0.6v-5
			c0-1.3-0.3-2.3-1.1-3c0.8-0.1,1.5-0.3,2.2-0.3c0.7-0.2,1.3-0.4,2-0.8c0.7-0.4,1.3-0.8,1.7-1.4c0.4-0.6,0.8-1.3,1.1-2.3
			s0.4-2,0.4-3.2c0-1.7-0.6-3.2-1.7-4.3c0.5-1.3,0.5-2.8-0.2-4.3c-0.4-0.1-1-0.1-1.7,0.3c-0.8,0.3-1.4,0.6-1.9,0.9l-0.8,0.5
			c-1.3-0.3-2.7-0.6-4-0.6c-1.4,0-2.8,0.2-4,0.6c-0.3-0.2-0.5-0.3-0.9-0.6c-0.3-0.3-0.9-0.5-1.8-0.8c-0.8-0.3-1.4-0.4-1.8-0.3
			c-0.6,1.6-0.7,3-0.2,4.3c-1.1,1.2-1.7,2.7-1.7,4.3c0,1.2,0.2,2.3,0.4,3.2c0.3,0.9,0.7,1.7,1.1,2.3s1,1,1.7,1.4
			c0.7,0.4,1.3,0.7,2,0.8s1.3,0.3,2.2,0.3c-0.6,0.5-0.9,1.3-1,2.2c-0.3,0.2-0.6,0.3-0.9,0.3c-0.3,0.1-0.8,0.1-1.2,0.1
			c-0.5,0-0.9-0.2-1.4-0.5c-0.5-0.3-0.8-0.8-1.2-1.3c-0.3-0.4-0.6-0.8-1-1.1c-0.4-0.3-0.8-0.4-1-0.5l-0.4-0.1c-0.3,0-0.5,0-0.6,0.1
			c-0.1,0.1-0.2,0.2-0.1,0.3c0,0.1,0.1,0.2,0.2,0.3c0.1,0.1,0.2,0.2,0.3,0.3l0.2,0.1c0.3,0.2,0.6,0.4,0.9,0.8
			c0.3,0.4,0.5,0.8,0.7,1.1l0.3,0.5c0.2,0.5,0.5,1,0.9,1.3s0.9,0.5,1.4,0.7c0.5,0.1,1,0.2,1.5,0.2c0.5,0,0.8,0,1.2-0.1l0.5-0.1
			c0,0.5,0,1.3,0,2.2s0,1.4,0,1.4c0,0.3-0.1,0.5-0.3,0.7c-0.2,0.2-0.3,0.3-0.5,0.3s-0.4,0-0.7,0h-4.8c-1.7,0-3.1-0.6-4.3-1.8
			c-1.2-1.2-1.8-2.6-1.8-4.3v-20.2c0-1.7,0.6-3.1,1.8-4.3c1.2-1.2,2.6-1.8,4.3-1.8h20.2c1.7,0,3.1,0.6,4.3,1.8
			C1117,179.6,1117.6,181,1117.6,182.7L1117.6,182.7z"/>
		<g>
			<text transform="matrix(1 0 0 1 1131.6166 202.1562)" fill="#2BACB5" font-family="'Roboto-Thin'" font-size="23.8652px">has a public repository on GitHub.</text>
		</g>
	</g>
	<g id="node">
		<g>
			<path fill="#2BACB5" d="M1273.8,75.4c0-0.4-0.2-0.7-0.5-0.9l-8.9-5.2c-0.1-0.1-0.3-0.1-0.5-0.1h-0.1c-0.2,0-0.3,0.1-0.5,0.1
				l-8.9,5.2c-0.3,0.2-0.5,0.5-0.5,0.9v13.9c0,0.2,0.1,0.4,0.3,0.5s0.4,0.1,0.5,0l5.3-3.1c0.3-0.2,0.5-0.5,0.5-0.9v-6.5
				c0-0.4,0.2-0.7,0.5-0.9l2.2-1.3c0.2-0.1,0.3-0.1,0.5-0.1c0.2,0,0.4,0,0.5,0.1l2.2,1.3c0.3,0.2,0.5,0.5,0.5,0.9v6.5
				c0,0.4,0.2,0.7,0.5,0.9l5.3,3.1c0.2,0.1,0.4,0.1,0.5,0c0.2-0.1,0.3-0.3,0.3-0.5L1273.8,75.4z"/>
			<path fill="#2BACB5" d="M1321.7,56.3c-0.2-0.1-0.4-0.1-0.5,0c-0.2,0.1-0.3,0.3-0.3,0.5v13.7c0,0.1-0.1,0.3-0.2,0.3
				c-0.1,0.1-0.3,0.1-0.4,0l-2.2-1.3c-0.3-0.2-0.7-0.2-1.1,0l-8.9,5.2c-0.3,0.2-0.5,0.5-0.5,0.9v10.4c0,0.4,0.2,0.7,0.5,0.9l8.9,5.2
				c0.3,0.2,0.7,0.2,1.1,0l8.9-5.2c0.3-0.2,0.5-0.5,0.5-0.9V60.2c0-0.4-0.2-0.7-0.5-0.9L1321.7,56.3z M1320.8,82.6
				c0,0.1-0.1,0.2-0.1,0.2l-3.1,1.7c-0.1,0-0.2,0-0.3,0l-3.1-1.7c-0.1,0-0.1-0.1-0.1-0.2V79c0-0.1,0.1-0.2,0.1-0.2l3.1-1.7
				c0.1-0.1,0.2-0.1,0.3,0l3.1,1.7c0.1,0.1,0.1,0.1,0.1,0.2V82.6z"/>
			<path fill="#2BACB5" d="M1353.7,78.9c0.3-0.2,0.5-0.5,0.5-0.9v-2.5c0-0.4-0.2-0.7-0.5-0.9l-8.9-5.2c-0.3-0.2-0.7-0.2-1.1,0
				l-8.9,5.2c-0.3,0.2-0.5,0.5-0.5,0.9v10.4c0,0.4,0.2,0.7,0.5,0.9l8.9,5.1c0.3,0.2,0.7,0.2,1,0l5.4-2.9c0.2-0.1,0.3-0.3,0.3-0.5
				c0-0.2-0.1-0.4-0.3-0.5l-9-5.2c-0.2-0.1-0.3-0.3-0.3-0.5v-3.3c0-0.2,0.1-0.4,0.3-0.5l2.8-1.6c0.2-0.1,0.4-0.1,0.5,0l2.8,1.6
				c0.2,0.1,0.3,0.3,0.3,0.5v2.5c0,0.2,0.1,0.4,0.3,0.5s0.4,0.1,0.5,0L1353.7,78.9z"/>
			<path fill="#2BACB5" d="M1290.1,69.4c0.3-0.2,0.7-0.2,1.1,0l8.9,5.2c0.3,0.2,0.5,0.5,0.5,0.9v10.4c0,0.4-0.2,0.7-0.5,0.9
				l-8.9,5.2c-0.3,0.2-0.7,0.2-1.1,0l-8.9-5.2c-0.3-0.2-0.5-0.5-0.5-0.9V75.5c0-0.4,0.2-0.7,0.5-0.9L1290.1,69.4z"/>
			<path fill="#2BACB5" d="M1371.2,92c-0.3,0-0.6-0.1-0.9-0.2l-2.8-1.6c-0.4-0.2-0.2-0.3-0.1-0.4c0.6-0.2,0.7-0.2,1.3-0.6
				c0.1,0,0.1,0,0.2,0l2.1,1.3c0.1,0,0.2,0,0.3,0l8.4-4.9c0.1,0,0.1-0.1,0.1-0.2v-9.8c0-0.1,0-0.2-0.1-0.2l-8.4-4.9
				c-0.1,0-0.2,0-0.3,0l-8.4,4.9c-0.1,0-0.1,0.1-0.1,0.2v9.8c0,0.1,0.1,0.2,0.1,0.2l2.3,1.3c1.2,0.6,2-0.1,2-0.8v-9.7
				c0-0.1,0.1-0.2,0.2-0.2h1.1c0.1,0,0.2,0.1,0.2,0.2v9.7c0,1.6-0.9,2.6-2.5,2.6c-0.5,0-0.9,0-1.9-0.5l-2.2-1.3
				c-0.5-0.3-0.9-0.9-0.9-1.5v-9.8c0-0.6,0.3-1.2,0.9-1.5l8.4-4.9c0.5-0.3,1.2-0.3,1.7,0l8.4,4.9c0.5,0.3,0.9,0.9,0.9,1.5v9.8
				c0,0.6-0.3,1.2-0.9,1.5l-8.4,4.9C1371.8,92,1371.5,92,1371.2,92z"/>
			<path fill="#2BACB5" d="M1373.7,85.3c-3.7,0-4.5-1.7-4.5-3.2c0-0.1,0.1-0.2,0.2-0.2h1.1c0.1,0,0.2,0.1,0.2,0.2
				c0.2,1.1,0.6,1.6,2.8,1.6c1.8,0,2.5-0.4,2.5-1.3c0-0.5-0.2-0.9-2.9-1.2c-2.3-0.2-3.8-0.7-3.8-2.5c0-1.7,1.4-2.7,3.9-2.7
				c2.7,0,4.1,0.9,4.3,2.9c0,0.1,0,0.1-0.1,0.2c0,0-0.1,0.1-0.2,0.1h-1.1c-0.1,0-0.2-0.1-0.2-0.2c-0.3-1.1-0.9-1.5-2.6-1.5
				c-1.9,0-2.1,0.7-2.1,1.2c0,0.6,0.3,0.8,2.8,1.1c2.6,0.3,3.9,0.8,3.9,2.6C1378,84.3,1376.5,85.3,1373.7,85.3z"/>
			<g>
				<path fill="#2BACB5" d="M1385.4,69.3v0.2h-0.7v1.8h-0.3v-1.8h-0.7v-0.2H1385.4z"/>
				<path fill="#2BACB5" d="M1385.6,69.3h0.4l0.6,1.8l0.6-1.8h0.4v2.1h-0.3v-1.2c0,0,0-0.1,0-0.2s0-0.2,0-0.3l-0.6,1.7h-0.3
					l-0.6-1.7v0.1c0,0.1,0,0.1,0,0.2s0,0.2,0,0.2v1.2h-0.3L1385.6,69.3L1385.6,69.3L1385.6,69.3z"/>
			</g>
			<path fill="#2BACB5" d="M1344.2,78.5c0.1,0,0.1,0,0.2,0l1.7,1c0.1,0,0.1,0.1,0.1,0.2v2c0,0.1,0,0.1-0.1,0.2l-1.7,1
				c-0.1,0-0.1,0-0.2,0l-1.7-1c-0.1,0-0.1-0.1-0.1-0.2v-2c0-0.1,0-0.1,0.1-0.2L1344.2,78.5z"/>
		</g>
		<text transform="matrix(1 0 0 1 1085.4595 88.8281)" fill="#2BACB5" font-family="'Roboto-Thin'" font-size="23.8652px">is powered by:</text>
	</g>
	<g id="heroku">
		<g>
			<path fill="#2BACB5" d="M1282.3,146.3v-12.3c0-0.8-0.6-1.3-1.4-1.3c-1.5,0-3.4,0.4-5,1.2v12.4h-3.5v-22.8h3.5v7.6
				c1.7-0.6,3.6-1.2,5.6-1.2c3.1,0,4.3,1.9,4.3,4.6v11.9L1282.3,146.3L1282.3,146.3z M1292.1,138.9c0.1,4.1,0.9,4.9,3.5,4.9
				c2,0,4.2-0.6,6-1.4l0.5,2.6c-1.9,0.8-4.1,1.7-6.8,1.7c-5.8,0-6.7-3.1-6.7-8.2c0-2.7,0.2-5.2,0.8-7.6c1.7-0.6,4.1-1,6.9-1
				c4.7,0,6.2,2.6,6.2,7.2v1.8L1292.1,138.9L1292.1,138.9z M1296.5,132.8c-1,0-2.7,0-4,0.3c-0.1,0.7-0.3,1.7-0.4,3.4h7.2
				C1299.3,134.2,1298.9,132.8,1296.5,132.8L1296.5,132.8z M1309.1,134v12.4h-3.5v-14c2.9-1.6,6-2.1,8-2.2v2.8
				C1312.3,133.2,1310.5,133.3,1309.1,134L1309.1,134z M1322.9,146.8c-5.1,0-7.5-2.5-7.5-8.3c0-6.2,3-8.5,7.5-8.5
				c5.1,0,7.5,2.5,7.5,8.3C1330.3,144.5,1327.3,146.8,1322.9,146.8L1322.9,146.8z M1322.9,132.8c-2.6,0-4.1,1.6-4.1,5.6
				c0,4.4,1.3,5.5,4.1,5.5c2.6,0,4.1-1.5,4.1-5.6C1327,133.9,1325.7,132.8,1322.9,132.8L1322.9,132.8z M1347.1,146.3h-4.1
				c-0.9-2.5-2.3-5.1-4.3-7.3h-1.8v7.3h-3.5v-22.8h3.5v13.1h1.6c1.8-1.8,3.1-4.1,4.1-6.3h3.9c-1.4,2.7-3,5-4.9,6.9
				C1343.8,140.3,1345.6,143.3,1347.1,146.3L1347.1,146.3z M1353.5,146.8c-3.1,0-4.3-1.9-4.3-4.6v-11.9h3.5v12.3
				c0,0.8,0.6,1.3,1.4,1.3c1.5,0,3.6-0.4,5.2-1.2v-12.4h3.5v13.9C1358.7,146.6,1355.5,146.8,1353.5,146.8L1353.5,146.8z"/>
			<path fill="#2BACB5" d="M1261,154.8h-24.1c-2.1,0-3.8-1.7-3.8-3.8v-31.7c0-2.1,1.7-3.8,3.8-3.8h24.1c2.1,0,3.8,1.7,3.8,3.8v31.7
				C1264.8,153.2,1263.1,154.8,1261,154.8L1261,154.8z M1263.5,119.6c0-1.5-1.2-2.6-2.6-2.6h-23.7c-1.5,0-2.6,1.2-2.6,2.6v31.3
				c0,1.5,1.2,2.6,2.6,2.6h23.7c1.5,0,2.6-1.2,2.6-2.6V119.6L1263.5,119.6z"/>
			<path fill="#2BACB5" d="M1253,149.4v-15.5c0,0,1-3.7-12.5,1.6c0,0.1,0-14.4,0-14.4h4.4v9.2c0,0,12.3-4.8,12.3,3.7s0,15.5,0,15.5
				L1253,149.4L1253,149.4z M1255.5,126.6h-4.6c1.7-2.1,3.1-5.6,3.1-5.6h4.8C1258.9,121.1,1258,123.4,1255.5,126.6L1255.5,126.6z
				 M1240.6,149.4v-8.8l4.4,4.4L1240.6,149.4L1240.6,149.4z"/>
		</g>
		<text transform="matrix(1 0 0 1 1085.4595 145.1913)" fill="#2BACB5" font-family="'Roboto-Thin'" font-size="23.8652px">is hosted on:</text>
	</g>
	<text transform="matrix(1 0 0 1 1085.4603 42.7616)" fill="#2BACB5" font-family="'Roboto-Thin'" font-size="47.7304px">This website:</text>
	<g id="medium">
		<text transform="matrix(1 0 0 1 1132.8278 -84.3644)" fill="#2BACB5" font-family="'Roboto-Thin'" font-size="23.8652px">Medium</text>
		<g>
			<path fill="#2BACB5" d="M1119.1-101.6C1119.1-101.6,1119.1-101.6,1119.1-101.6L1119.1-101.6l-9.2-4.6c-0.1,0-0.1-0.1-0.2-0.1
				c-0.1,0-0.2,0-0.3,0c-0.4,0-0.7,0.2-0.9,0.5l-5.3,8.6l6.6,10.8l9.2-15C1119.2-101.5,1119.1-101.6,1119.1-101.6z"/>
			<polygon fill="#2BACB5" points="1100.3,-99.2 1100.3,-89.4 1109,-85.1 			"/>
			<path fill="#2BACB5" d="M1110.3-84.4l7.2,3.6c0.9,0.5,1.7,0.1,1.7-0.7v-17.2L1110.3-84.4z"/>
			<path fill="#2BACB5" d="M1098.8-101.6l-9-4.5c-0.2-0.1-0.3-0.1-0.5-0.1c-0.4,0-0.7,0.3-0.7,0.8V-86c0,0.5,0.4,1.1,0.8,1.4l7.9,4
				c0.2,0.1,0.4,0.1,0.6,0.1c0.5,0,0.8-0.4,0.8-1L1098.8-101.6C1098.9-101.6,1098.9-101.6,1098.8-101.6z"/>
		</g>
	</g>
	<g id="linkedin">
		<text transform="matrix(1 0 0 1 1134.2368 -181.9218)" fill="#2BACB5" font-family="'Roboto-Thin'" font-size="23.8652px">LinkedIn profile</text>
		<path fill="#2BACB5" d="M1093.9-181.6h3.7v-11.1h-3.7V-181.6z M1097.9-196.2c0-0.5-0.3-1.1-0.5-1.3c-0.4-0.4-0.9-0.5-1.5-0.5
			s-1.2,0.1-1.5,0.5c-0.4,0.4-0.5,0.8-0.5,1.3c0,0.5,0.1,1.1,0.5,1.3c0.4,0.4,0.9,0.5,1.5,0.5l0,0c0.7,0,1.2-0.1,1.6-0.5
			C1097.7-195.3,1097.9-195.7,1097.9-196.2L1097.9-196.2z M1107.3-181.6h3.7v-6.4c0-1.6-0.4-2.9-1.2-3.7c-0.8-0.8-1.9-1.3-3-1.3
			c-1.5,0-2.5,0.7-3.3,1.9l0,0v-1.6h-3.7c0,0.7,0,4.4,0,11.1h3.7v-6.2c0-0.4,0-0.7,0.1-0.9c0.1-0.4,0.4-0.7,0.8-0.9
			c0.3-0.3,0.7-0.4,1.2-0.4c1.2,0,1.9,0.8,1.9,2.5L1107.3-181.6L1107.3-181.6z M1114.9-197.7v15.5c0,1.3-0.4,2.4-1.3,3.3
			s-2,1.3-3.3,1.3h-15.5c-1.3,0-2.4-0.4-3.3-1.3s-1.3-2-1.3-3.3v-15.5c0-1.3,0.4-2.4,1.3-3.3s2-1.3,3.3-1.3h15.5
			c1.3,0,2.4,0.4,3.3,1.3S1114.9-199,1114.9-197.7z"/>
	</g>
	<g id="instagram">
		<text transform="matrix(1 0 0 1 1132.2526 -31.0253)" fill="#2BACB5" font-family="'Roboto-Thin'" font-size="23.8652px">Instagram</text>
		<path fill="#2BACB5" d="M1102.8-50.6c3.4,0,3.8,0,5.2,0.1c1.2,0.1,1.9,0.3,2.4,0.4c0.6,0.2,1,0.5,1.5,1c0.4,0.4,0.7,0.9,1,1.5
			c0.2,0.5,0.4,1.1,0.4,2.4c0.1,1.3,0.1,1.8,0.1,5.2c0,3.4,0,3.8-0.1,5.2c-0.1,1.2-0.3,1.9-0.4,2.4c-0.2,0.6-0.5,1-1,1.5
			c-0.4,0.4-0.9,0.7-1.5,1c-0.5,0.2-1.1,0.4-2.4,0.4c-1.3,0.1-1.8,0.1-5.2,0.1c-3.4,0-3.8,0-5.2-0.1c-1.2-0.1-1.9-0.3-2.4-0.4
			c-0.6-0.2-1-0.5-1.5-1c-0.4-0.4-0.7-0.9-1-1.5c-0.2-0.5-0.4-1.1-0.4-2.4c-0.1-1.3-0.1-1.8-0.1-5.2c0-3.4,0-3.8,0.1-5.2
			c0.1-1.2,0.3-1.9,0.4-2.4c0.2-0.6,0.5-1,1-1.5c0.4-0.4,0.9-0.7,1.5-1c0.5-0.2,1.1-0.4,2.4-0.4C1099-50.5,1099.4-50.6,1102.8-50.6
			 M1102.8-52.9c-3.5,0-3.9,0-5.3,0.1c-1.4,0.1-2.3,0.3-3.1,0.6c-0.8,0.3-1.6,0.8-2.3,1.5c-0.7,0.7-1.1,1.4-1.5,2.3
			c-0.3,0.8-0.5,1.7-0.6,3.1c-0.1,1.4-0.1,1.8-0.1,5.3c0,3.5,0,3.9,0.1,5.3c0.1,1.4,0.3,2.3,0.6,3.1c0.3,0.8,0.8,1.6,1.5,2.3
			c0.7,0.7,1.4,1.1,2.3,1.5c0.8,0.3,1.7,0.5,3.1,0.6c1.4,0.1,1.8,0.1,5.3,0.1c3.5,0,3.9,0,5.3-0.1c1.4-0.1,2.3-0.3,3.1-0.6
			c0.8-0.3,1.6-0.8,2.3-1.5c0.7-0.7,1.1-1.4,1.5-2.3c0.3-0.8,0.5-1.7,0.6-3.1c0.1-1.4,0.1-1.8,0.1-5.3c0-3.5,0-3.9-0.1-5.3
			c-0.1-1.4-0.3-2.3-0.6-3.1c-0.3-0.8-0.8-1.6-1.5-2.3c-0.7-0.7-1.4-1.1-2.3-1.5c-0.8-0.3-1.7-0.5-3.1-0.6
			C1106.7-52.8,1106.3-52.9,1102.8-52.9L1102.8-52.9z"/>
		<path fill="#2BACB5" d="M1102.8-46.6c-3.6,0-6.6,2.9-6.6,6.6s2.9,6.6,6.6,6.6c3.6,0,6.6-2.9,6.6-6.6S1106.5-46.6,1102.8-46.6z
			 M1102.8-35.8c-2.4,0-4.3-1.9-4.3-4.3s1.9-4.3,4.3-4.3c2.4,0,4.3,1.9,4.3,4.3S1105.2-35.8,1102.8-35.8z"/>
		<circle fill="#2BACB5" cx="1109.7" cy="-46.9" r="1.5"/>
	</g>
	<g id="contactresume">
		<path fill="#2BACB5" d="M1108.5-138.9v1.2c0,0.1,0,0.3-0.1,0.4c-0.1,0.1-0.3,0.1-0.4,0.1h-12.7c-0.1,0-0.3,0-0.4-0.1
			c-0.1-0.1-0.1-0.3-0.1-0.4v-1.2c0-0.1,0-0.3,0.1-0.4c0.1-0.1,0.3-0.1,0.4-0.1h12.7c0.1,0,0.3,0,0.4,0.1
			C1108.5-139.2,1108.5-139.1,1108.5-138.9z M1108.5-143.6v1.2c0,0.1,0,0.3-0.1,0.4c-0.1,0.1-0.3,0.1-0.4,0.1h-12.7
			c-0.1,0-0.3,0-0.4-0.1c-0.1-0.1-0.1-0.3-0.1-0.4v-1.2c0-0.1,0-0.3,0.1-0.4c0.1-0.1,0.3-0.1,0.4-0.1h12.7c0.1,0,0.3,0,0.4,0.1
			S1108.5-143.7,1108.5-143.6z M1092.4-132.6h18.4v-13.8h-7.6c-0.5,0-0.9-0.1-1.2-0.5c-0.4-0.4-0.5-0.8-0.5-1.2v-7.6h-9.3
			L1092.4-132.6L1092.4-132.6z M1104-148.7h6.8c-0.1-0.4-0.3-0.5-0.4-0.8l-5.7-5.7c-0.1-0.1-0.4-0.3-0.8-0.4L1104-148.7L1104-148.7z
			 M1113.1-148.2v16.2c0,0.5-0.1,0.9-0.5,1.2c-0.4,0.4-0.8,0.5-1.2,0.5h-19.6c-0.5,0-0.9-0.1-1.2-0.5c-0.4-0.4-0.5-0.8-0.5-1.2
			v-24.3c0-0.5,0.1-0.9,0.5-1.2c0.4-0.4,0.8-0.5,1.2-0.5h11.5c0.5,0,1.1,0.1,1.6,0.4c0.5,0.3,1.1,0.5,1.3,0.9l5.6,5.6
			c0.4,0.4,0.7,0.8,0.9,1.3C1113-149.1,1113.1-148.6,1113.1-148.2L1113.1-148.2z"/>
		<g>
			<text transform="matrix(1 0 0 1 1134.8812 -133.0322)" fill="#2BACB5" font-family="'Roboto-Thin'" font-size="23.8652px">View resume</text>
		</g>
	</g>
	<g id="email">
		<text transform="matrix(1 0 0 1 1135.932 -230.895)" fill="#2BACB5" font-family="'Roboto-Thin'" font-size="23.8652px">albinotonnina@gmail.com</text>
		<path fill="#2BACB5" d="M1111.7-229.9v-9.9c-0.3,0.3-0.5,0.5-0.9,0.8c-2.3,1.7-4.1,3.2-5.4,4.4c-0.4,0.4-0.8,0.7-1.1,0.8
			c-0.3,0.3-0.7,0.4-1.1,0.7c-0.5,0.3-0.9,0.3-1.3,0.3l0,0c-0.4,0-0.8-0.1-1.3-0.3c-0.5-0.3-0.8-0.4-1.1-0.7
			c-0.3-0.3-0.7-0.5-1.1-0.8c-1.3-1.2-3.2-2.5-5.4-4.4c-0.3-0.3-0.7-0.5-0.9-0.8v9.9c0,0.1,0,0.3,0.1,0.3c0.1,0.1,0.1,0.1,0.3,0.1
			h19c0.1,0,0.3,0,0.3-0.1C1111.7-229.6,1111.7-229.7,1111.7-229.9L1111.7-229.9z M1111.7-243.4v-0.3c0,0,0,0,0-0.1s0-0.1,0-0.1
			s0,0-0.1-0.1c0-0.1,0-0.1-0.1-0.1h-0.1h-19c-0.1,0-0.3,0-0.3,0.1c-0.1,0.1-0.1,0.1-0.1,0.3c0,1.5,0.7,2.7,1.9,3.7
			c1.6,1.3,3.3,2.7,5.2,4.1c0,0,0.1,0.1,0.4,0.4c0.3,0.3,0.4,0.4,0.5,0.5c0.1,0.1,0.4,0.3,0.5,0.4c0.3,0.1,0.4,0.3,0.7,0.4
			c0.1,0.1,0.4,0.1,0.5,0.1l0,0c0.1,0,0.4,0,0.5-0.1c0.1-0.1,0.4-0.1,0.7-0.4c0.3-0.1,0.4-0.3,0.5-0.4s0.4-0.3,0.5-0.5
			c0.3-0.3,0.4-0.3,0.4-0.4c1.9-1.5,3.4-2.8,5.2-4.1c0.5-0.4,0.9-0.9,1.3-1.5C1111.4-242.3,1111.7-242.9,1111.7-243.4L1111.7-243.4z
			 M1113.3-243.8v13.9c0,0.5-0.3,1.1-0.7,1.5s-0.9,0.7-1.5,0.7h-19c-0.5,0-1.1-0.1-1.5-0.7c-0.4-0.4-0.7-0.9-0.7-1.5v-13.9
			c0-0.5,0.3-1.1,0.7-1.5c0.4-0.4,0.9-0.7,1.5-0.7h19c0.5,0,1.1,0.3,1.5,0.7C1113.1-244.9,1113.3-244.5,1113.3-243.8z"/>
	</g>
	<text transform="matrix(1 0 0 1 1085.4603 -318.587)" fill="#2BACB5" font-family="'Roboto-Thin'" font-size="47.7304px">To stay connected:</text>
	<text transform="matrix(1 0 0 1 1085.46 835)" fill="#2BACB5" font-family="'Roboto-Thin'" font-size="65.2522px">Bye!</text>
	<g id="twitter">
		<text transform="matrix(1 0 0 1 1135.9325 -272.895)" fill="#2BACB5" font-family="'Roboto-Thin'" font-size="23.8652px">@albinotonnina</text>
		<path fill="#2BACB5" d="M1096.6-268.3c10.7,0,16.6-8.9,16.6-16.6c0-0.3,0-0.5,0-0.8c1.1-0.8,2.1-1.8,2.9-3
			c-1.1,0.5-2.2,0.8-3.3,0.9c1.2-0.7,2.1-1.9,2.6-3.2c-1.1,0.7-2.4,1.2-3.7,1.4c-2.2-2.3-5.9-2.5-8.2-0.3c-1.5,1.4-2.2,3.5-1.7,5.6
			c-4.7-0.2-9-2.4-12-6.1c-1.5,2.7-0.8,6.1,1.8,7.8c-0.9,0-1.8-0.3-2.6-0.7c0,0,0,0,0,0.1c0,2.8,2,5.2,4.7,5.7
			c-0.9,0.2-1.8,0.3-2.6,0.1c0.8,2.4,2.9,4,5.4,4c-2.1,1.6-4.6,2.5-7.2,2.5c-0.5,0-0.9,0-1.4-0.1
			C1090.3-269.2,1093.4-268.3,1096.6-268.3"/>
	</g>
</g>
<rect id="noskillwordshere" x="517.3" y="-368" fill="none" width="366.9" height="410.8"/>
</svg>
