<?xml version="1.0" encoding="utf-8"?>
<!-- Generator: Adobe Illustrator 19.0.0, SVG Export Plug-In . SVG Version: 6.00 Build 0)  -->
<svg version="1.1" id="Layer_1" xmlns="http://www.w3.org/2000/svg" xmlns:xlink="http://www.w3.org/1999/xlink" x="0px" y="0px"
	 viewBox="0 0 342 79" enable-background="new 0 0 342 79" xml:space="preserve">
<g id="XMLID_1_">
	<path id="XMLID_3_" fill="#434444" d="M2.2,22.6c0.2,0,8.2,1.8,8.2,2.5c-0.4,1.6-5.7,0.9-6.9,0.9c0.3,2.5-0.2,6.7,0.9,9
		C5,36,8.9,37,8.9,37.7c-0.3,1.2-3.3,1-4.1,0.9c0.3,3.6,1.7,9,1,12.7c-0.6,3.2-0.5,4.1-2,1.2C1.8,48.9,2.6,22.6,2.2,22.6z"/>
	<path id="XMLID_18_" fill="#434444" d="M15.7,41.6c4.2,0,2.3,6.8-1.2,7.3c1.1,7.1,5.3-0.1,5.8,0.1c2.4,0.9,1.5,4-2,4.9
		C12,55.6,10,43.7,15.7,41.6z M14.4,45.9c-1.5,1,4.4-2.1,1.3-2.1C14.8,43.7,14.4,44.4,14.4,45.9z"/>
	<path id="XMLID_21_" fill="#434444" d="M25.4,23.6c1.6,0.1,0.8,27.5,1.1,29.7c-1.6,3.3-2.4-10.2-2.4-11.1
		C24.1,40.1,22.6,23.5,25.4,23.6C25.7,23.7,24.5,23.6,25.4,23.6z"/>
	<path id="XMLID_23_" fill="#434444" d="M31.2,23.6c1.6,0.1,0.8,27.5,1.1,29.7c-1.6,3.3-2.4-10.2-2.4-11.1
		C29.9,40.1,28.4,23.5,31.2,23.6C31.5,23.7,30.3,23.6,31.2,23.6z"/>
	<path id="XMLID_25_" fill="#434444" d="M39.1,42.1c3.7,1.3,4.8,11.9,0,12.3C33.1,55,35,43.5,39.1,42.1z M37.3,48.5
		c0,1.3,0.1,4,1.9,4c1-1,1.8-7.5-0.2-8.2C37.6,45.4,37.1,46.8,37.3,48.5z"/>
	<path id="XMLID_28_" fill="#434444" d="M44.9,40.5c1.3,0,2.3,6.4,2.9,7.7c0.4-5.9,2.9-4.4,4.8,0c0.1-2.8-0.1-6.1,2-7.8
		c-1.1-0.2,3.5,23.8-4.8,7.4c-0.1,0.9-0.2,7-2.1,7C46.2,54.7,43,41.2,44.9,40.5C45.6,40.5,44.2,40.7,44.9,40.5z"/>
	<path id="XMLID_30_" fill="#434444" d="M71.2,40.4c0.8,0,2.2,5.5,0,5.9c-0.4,0-6.1-7-3.5,2.2c1,3.5,3.7,4.7,6.4,1.5
		c2.9,0.9-1.8,4-3.4,4c-3.2,0-4.7-2.8-5.1-5.7C65.1,44.3,67.3,40.4,71.2,40.4z"/>
	<path id="XMLID_32_" fill="#434444" d="M80.7,42.1c3.7,1.3,4.8,11.9,0,12.3C74.7,55,76.6,43.5,80.7,42.1z M78.8,48.5
		c0,1.3,0.1,4,1.9,4c1-1,1.8-7.5-0.2-8.2C79.2,45.4,78.6,46.8,78.8,48.5z"/>
	<path id="XMLID_35_" fill="#434444" d="M87.4,23.6c1.6,0.1,0.8,27.5,1.1,29.7c-1.6,3.3-2.4-10.2-2.4-11.1
		C86.1,40.1,84.6,23.5,87.4,23.6C87.7,23.7,86.6,23.6,87.4,23.6z"/>
	<path id="XMLID_37_" fill="#434444" d="M93.2,23.6c1.6,0.1,0.8,27.5,1.1,29.7c-1.6,3.3-2.4-10.2-2.4-11.1
		C91.9,40.1,90.5,23.5,93.2,23.6C93.6,23.7,92.4,23.6,93.2,23.6z"/>
	<path id="XMLID_39_" fill="#434444" d="M100.4,41.6c4.2,0,2.3,6.8-1.2,7.3c1.1,7.1,5.3-0.1,5.8,0.1c2.4,0.9,1.5,4-2,4.9
		C96.6,55.6,94.7,43.7,100.4,41.6z M99.1,45.9c-1.5,1,4.4-2.1,1.3-2.1C99.5,43.7,99.1,44.4,99.1,45.9z"/>
	<path id="XMLID_42_" fill="#434444" d="M113.7,42.4c5.1-0.2,4.6,15.5,1.3,7.7C108.8,60.8,103.8,43.3,113.7,42.4z M109.9,50.3
		c0.7,5.8,5-5.8,4.9-5.6C111.6,44.3,109.8,47,109.9,50.3z"/>
	<path id="XMLID_45_" fill="#434444" d="M126.1,41.6c2.3,0,5.2,43-9.3,28.1c-4.4-4.5,4.5,1,6.4,0.3c3.4-1.1,2.4-14.8,2.4-17.5
		C118,56.1,116.5,41.6,126.1,41.6z M122.1,43.9c-2.2,1.9-1.8,8.4,1.8,6.9C126.6,49.7,125.2,44.1,122.1,43.9z"/>
	<path id="XMLID_48_" fill="#434444" d="M136.3,42.4c2.8,0,2.1,15.3,0.1,9.9c-6.3,8.4-9.2-9.9-5.9-9.9c1.5,0,0.6,15.5,4.8,7.2
		C135.9,48.4,134.2,42.4,136.3,42.4z"/>
	<path id="XMLID_50_" fill="#434444" d="M143.4,41.6c4.2,0,2.3,6.8-1.2,7.3c1.1,7.1,5.3-0.1,5.8,0.1c2.4,0.9,1.5,4-2,4.9
		C139.6,55.6,137.6,43.7,143.4,41.6z M142.1,45.9c-1.5,1,4.4-2.1,1.3-2.1C142.4,43.7,142,44.4,142.1,45.9z"/>
	<path id="XMLID_53_" fill="#434444" d="M155.5,40.9c1.1,0,1.8,0.5,2.1,1.5c0,2-5,0.3-3.2,4.8c0.2,0.5,3.5-1.2,4.1,1.3
		c0.9,4-7.6,7.8-7.6,3.8c0.9-2,5.3,1.7,5.1-3.3c0,1.4-4.9-1.1-5-3C150.8,43.3,153.3,41.3,155.5,40.9z"/>
	<path id="XMLID_55_" fill="#434444" d="M170.4,40c1.5,0.7,1.4,1.4-0.1,2.3C168.8,41.5,168.8,40.7,170.4,40z M170.6,44.3
		c0.2,0,2.4,2,0,2C169.3,45.6,169.3,45,170.6,44.3C171.2,44.4,170.1,44.3,170.6,44.3z"/>
	<path id="XMLID_58_" fill="#434444" d="M175.5,28.3c1.5,0,3,16.1,3,17.6c0,1.9,0.6,4.2-0.5,5.9c-0.3,0.5-4,5.1-4,1.7
		c0,0.9,2.6-5.8,2.6-5.6c0.2-1.3-0.2-2.9-0.3-4.2C176.1,41.7,173.4,28.3,175.5,28.3z"/>
</g>
</svg>
