<?xml version="1.0" encoding="utf-8"?>
<!-- Generator: Adobe Illustrator 19.0.0, SVG Export Plug-In . SVG Version: 6.00 Build 0)  -->
<svg version="1.1" id="Layer_1" xmlns="http://www.w3.org/2000/svg" xmlns:xlink="http://www.w3.org/1999/xlink" x="0px" y="0px"
	 viewBox="0 0 342 79" enable-background="new 0 0 342 79" xml:space="preserve">
<g id="XMLID_1_">
	<path id="XMLID_3_" d="M2.3,22.9c-6.3,0,5.6,2.2,2.9,1.3c2.3,0.7,3-0.7,5.4,0.9c3.8,2.3,4.4,8.6,4.7,12.6c0.5,6.2-2,18.3-10.8,15.2
		c-0.4,1,1.1,1-0.9,1.9C1.6,54.7,0.4,23.2,2.3,22.9C2.8,22.9,1.5,23,2.3,22.9z M3.6,37.1c0.1,2.9-0.9,9.9,1,12.3
		c4.9,5.9,8.6-4.6,8.8-8.7c0.2-4-0.5-15-6.4-14.8C2.4,26.2,3.7,33.9,3.6,37.1z"/>
	<path id="XMLID_19_" d="M21.6,41.1c3.7,1.3,4.8,11.9,0,12.3C15.7,54,17.5,42.5,21.6,41.1z M19.8,47.5c0,1.3,0.1,4,1.9,4
		c1-1,1.8-7.5-0.2-8.2C20.2,44.4,19.6,45.8,19.8,47.5z"/>
	<path id="XMLID_22_" d="M33.5,41.4c2.8,0,2.1,15.3,0.1,9.9c-6.3,8.4-9.2-9.9-5.9-9.9c1.5,0,0.6,15.5,4.8,7.2
		C33.1,47.4,31.3,41.4,33.5,41.4z"/>
	<path id="XMLID_24_" d="M44.3,40.6c2.3,0,5.2,43-9.3,28.1c-4.4-4.5,4.5,1,6.4,0.3c3.4-1.1,2.4-14.8,2.4-17.5
		C36.2,55.1,34.7,40.6,44.3,40.6z M40.3,42.9c-2.2,1.9-1.8,8.4,1.8,6.9C44.8,48.7,43.4,43.1,40.3,42.9z"/>
	<path id="XMLID_27_" d="M49.4,22.6c1.6,0.1,0.8,27.5,1.1,29.7c-1.6,3.3-2.4-10.2-2.4-11.1C48.1,39.1,46.6,22.5,49.4,22.6
		C49.7,22.7,48.5,22.6,49.4,22.6z"/>
	<path id="XMLID_29_" d="M58.9,41.4c5.1-0.2,4.6,15.5,1.3,7.7C53.9,59.8,49,42.3,58.9,41.4z M55,49.3c0.7,5.8,5-5.8,4.9-5.6
		C56.7,43.3,54.9,46,55,49.3z"/>
	<path id="XMLID_32_" d="M68.7,39.9c1.1,0,1.8,0.5,2.1,1.5c0,2-5,0.3-3.2,4.8c0.2,0.5,3.5-1.2,4.1,1.3c0.9,4-7.6,7.8-7.6,3.8
		c0.9-2,5.3,1.7,5.1-3.3c0,1.4-4.9-1.1-5-3C63.9,42.3,66.5,40.3,68.7,39.9z"/>
	<path id="XMLID_34_" d="M89.8,23.2c2.5,0,0.7,6.2-0.3,7.3c-2,0-0.2-4.6-2.4-4.6c-4.4,3.7-3.9,16.6-1.6,21.4
		c0.8,1.7,1.4,4.2,3.9,4.1c3.1-0.1,3-5.3,5-5.3c1.9,0-1.6,8.1-6.1,7.1c-5.1-1.2-5.5-8.8-5.8-13C81.8,33.3,82.1,24.6,89.8,23.2
		C90.2,23.2,89,23.4,89.8,23.2z"/>
	<path id="XMLID_36_" d="M97.3,39.1c1.3,0,0.8,1.9,1.5,2.3c0.5,0.2,5.3-3.6,5.3,0c-0.7,2-2.8-0.4-3.9,2c-0.6,1.3-0.1,9.5-1.8,9.5
		C96.7,52.8,96.4,39.1,97.3,39.1z"/>
	<path id="XMLID_38_" d="M109.3,41.1c3.7,1.3,4.8,11.9,0,12.3C103.4,54,105.2,42.5,109.3,41.1z M107.5,47.5c0,1.3,0.1,4,1.9,4
		c1-1,1.8-7.5-0.2-8.2C107.8,44.4,107.3,45.8,107.5,47.5z"/>
	<path id="XMLID_41_" d="M119.6,39.4c0.8,0,2.2,5.5,0,5.9c-0.4,0-6.1-7-3.5,2.2c1,3.5,3.7,4.7,6.4,1.5c2.9,0.9-1.8,4-3.4,4
		c-3.2,0-4.7-2.8-5.1-5.7C113.5,43.3,115.7,39.4,119.6,39.4z"/>
	<path id="XMLID_43_" d="M127.1,17.7c1.6,0.1,0.1,22.9,0.3,24.9c1.4-1.7,2.6-3.1,4.6-3.8c2.4,1.8-4.1,4.4-3.9,6.6
		c0.2,2.9,6.9,4,6.7,6.2c-0.2,2.9-7.2-3.1-7.5-3.4c-0.2,3.2-0.6,8.9-2.2,4.4c-1-2.8,0.2-8,0.2-11C125.3,40,124.7,17.6,127.1,17.7
		C127.6,17.7,126.4,17.7,127.1,17.7z"/>
	<path id="XMLID_45_" d="M142.9,23.4c2,0,3.1,2.9,3.3,4.4c0,2.9-3.9-2.1-3.2-2.4c-2.2,0.9-1.7,4.5-1.9,6.5c-0.2,2.3-0.3,5.2,0.2,7.4
		c0.1,0.7,2.8,3.3,2.8,2.8c0,1.2-1.9,0.8-2.5,0.9c0,1,1.4,11-0.2,11c-1.9,0-1.8-9.3-1.9-10.9c-0.9,0.1-3.2,0.6-3.3-1
		c0-2.3,3.1-0.2,3.2-1.1c0.3-1.6-0.3-3.3-0.2-4.9C139.3,33,137.8,23.4,142.9,23.4z"/>
	<path id="XMLID_47_" d="M149.9,41.1c3.7,1.3,4.8,11.9,0,12.3C143.9,54,145.8,42.5,149.9,41.1z M148.1,47.5c0,1.3,0.1,4,1.9,4
		c1-1,1.8-7.5-0.2-8.2C148.4,44.4,147.8,45.8,148.1,47.5z"/>
	<path id="XMLID_50_" d="M155.2,39.1c1.3,0,0.8,1.9,1.5,2.3c0.5,0.2,5.3-3.6,5.3,0c-0.7,2-2.8-0.4-3.9,2c-0.6,1.3-0.1,9.5-1.8,9.5
		C154.6,52.8,154.3,39.1,155.2,39.1z"/>
	<path id="XMLID_52_" d="M169.6,23.8c1.5,0,1.4,16.6,1.7,19.1c0.2,2.2,2.2,8.4,1.6,10.3c-1.3,3.8-1.6-1.1-2.4-1.2
		c-1.2-0.1-3,2-4.4,0.8c-2.1-1.9-4-5.4-2.6-8.4c1.2-2.5,2.9-4.4,5.7-2.2C169,41,166.8,23.8,169.6,23.8z M165.2,46.7
		c-0.2,2,1.5,6.3,3.8,3.7C171.7,47.3,165.2,39.2,165.2,46.7z"/>
</g>
</svg>
