<?xml version="1.0" encoding="utf-8"?>
<!-- Generator: Adobe Illustrator 16.0.0, SVG Export Plug-In . SVG Version: 6.00 Build 0)  -->
<!DOCTYPE svg PUBLIC "-//W3C//DTD SVG 1.1//EN" "http://www.w3.org/Graphics/SVG/1.1/DTD/svg11.dtd">
<svg version="1.1" id="svg1" xmlns="http://www.w3.org/2000/svg" xmlns:xlink="http://www.w3.org/1999/xlink" x="0px" y="0px"
	 width="1024px" height="768px" viewBox="0 0 1024 768" enable-background="new 0 0 1024 768" xml:space="preserve">
<g id="bg">
	<rect x="-7576.43" y="-6889.818" fill="#3498DB" width="16291.836" height="14783.959"/>
</g>
<path id="wire1" opacity="0.6" fill="none" stroke="#EFEFEF" stroke-miterlimit="10" enable-background="new    " d="M18.115-44.888
	C63.952,14.779,115.713,82.916,198.636,81.016c65.57-1.501,127.096-41.73,193.394-31.265
	c67.338,10.629,116.664,71.303,167.169,111.705c53.213,42.57,112.233,66.442,171.979,97.309
	c45.997,23.766,69.191,58.462,77.456,109.252c5.768,35.415-0.088,84.239,22.37,114.638
	c29.147,39.456,156.977,59.966,101.036,134.773c-53.021,70.909-150.769,81.886-210.565,115.768C705.355,742.33,683,759.5,670,768
	l-1.984,1.312"/>
<g id="introduction" inkscape:version="0.48.4 r9939" sodipodi:docname="drawing.svg" xmlns:dc="http://purl.org/dc/elements/1.1/" xmlns:svg="http://www.w3.org/2000/svg" xmlns:cc="http://creativecommons.org/ns#" xmlns:rdf="http://www.w3.org/1999/02/22-rdf-syntax-ns#" xmlns:sodipodi="http://sodipodi.sourceforge.net/DTD/sodipodi-0.dtd" xmlns:inkscape="http://www.inkscape.org/namespaces/inkscape">
	<g id="intro">
		<g id="intro1">
			<text transform="matrix(1 0 0 1 30.7061 450.1562)" fill="#ECF0F1" font-family="'Roboto-Thin'" font-size="30">I am Albino Tonnina,</text>
			<text transform="matrix(1 0 0 1 30.7061 486.1562)" fill="#ECF0F1" font-family="'Roboto-Thin'" font-size="30">a self-taught 35 years old full-stack web developer.</text>
		</g>
		<g id="intro2">
			<text transform="matrix(1 0 0 1 30.2061 536.6025)" fill="#F5F7FA" font-family="'Roboto-Thin'" font-size="30">Currently I work in Rome for Numidia, </text>
			<text transform="matrix(1 0 0 1 30.2061 572.6025)" fill="#F5F7FA" font-family="'Roboto-Thin'" font-size="30">a fresh and dynamic development company I co-founded in 2011.</text>
		</g>
	</g>
	<g id="macbook">
		<path fill="#586273" d="M938.378,305.397L938.378,305.397C938.351,305.458,938.378,305.397,938.378,305.397z"/>
		<path opacity="0.8" fill="#2980B9" enable-background="new    " d="M969.267,278.006L627.089,122.152c0,0-8.188-3.73-11.922,4.46
			s4.461,11.921,4.461,11.921l24.57,11.192c0,0-8.189-3.73-11.92,4.46c-4.689,10.274-4.656,10.22-77.521,170.179
			c-3.891,8.544,0.791,19.04,9.334,22.932l277.57,126.423c8.545,3.896,18.625,0.121,22.518-8.424c0,0,59.131-129.82,74.197-162.898
			l0,0c0.074-0.166,0.58-1.274,3.312-7.28c3.729-8.19-4.462-11.921-4.462-11.921l24.562,11.191c0,0,8.189,3.73,11.922-4.46
			C977.456,281.737,969.267,278.006,969.267,278.006z"/>
		<g>
			<path fill="#E6E9ED" d="M870.181,463.295c-3.891,8.545-13.973,12.316-22.518,8.424L570.099,345.295
				c-8.543-3.892-13.225-14.388-9.334-22.932c0,0,73.783-161.988,77.521-170.179c3.729-8.191,11.922-4.46,11.922-4.46
				l293.031,133.471c0,0,8.188,3.73,4.459,11.921C943.964,301.307,870.181,463.295,870.181,463.295z"/>
			<path opacity="0.3" fill="#B7BFC7" enable-background="new    " d="M944.378,300.397l-364.201-20.582
				c0,0,54.371-119.439,58.105-127.63c3.729-8.191,11.92-4.46,11.92-4.46l293.035,133.471c0,0,8.188,3.73,4.461,11.921
				C943.964,301.308,944.378,300.397,944.378,300.397z"/>
			
				<rect x="713.895" y="214.062" transform="matrix(0.91 0.4145 -0.4145 0.91 162.1017 -309.8164)" fill="#DCE4E8" width="161.899" height="9"/>
			
				<radialGradient id="mbplight_1_" cx="1112.8887" cy="-5824.2988" r="163.218" gradientTransform="matrix(0.9118 0.4011 0.0955 -0.1842 328.2634 -1302.481)" gradientUnits="userSpaceOnUse">
				<stop  offset="0.103" style="stop-color:#3498DB;stop-opacity:0.4"/>
				<stop  offset="0.7955" style="stop-color:#3498DB;stop-opacity:0.0565"/>
				<stop  offset="0.9095" style="stop-color:#3498DB;stop-opacity:0"/>
			</radialGradient>
			<polygon id="mbplight" display="none" fill="url(#mbplight_1_)" points="960.161,327.208 625.479,176.709 669.61,136.852 
				968.716,273.252 			"/>
			<path fill="#CCD1D9" d="M967.806,292.387L625.628,136.533c0,0-8.19-3.73-4.461-11.921s11.922-4.46,11.922-4.46l342.178,155.854
				c0,0,8.189,3.73,4.459,11.921C975.997,296.118,967.806,292.387,967.806,292.387z"/>
			
				<rect x="677.247" y="350.532" transform="matrix(0.91 0.4145 -0.4145 0.91 219.9352 -266.3932)" display="none" fill="#F5F7FA" stroke="#CCD1D9" stroke-miterlimit="10" width="92.94" height="45.97"/>
			<g>
				
					<rect x="671.387" y="198.321" transform="matrix(0.9101 0.4145 -0.4145 0.9101 145.8848 -263.6325)" fill="#3B3B3B" stroke="#C1C1C1" stroke-miterlimit="10" width="18.004" height="12.004"/>
				
					<rect x="662.485" y="215.373" transform="matrix(0.91 0.4145 -0.4145 0.91 153.1988 -258.1957)" fill="#3B3B3B" stroke="#C1C1C1" stroke-miterlimit="10" width="18.003" height="17.003"/>
				
					<rect x="651.644" y="239.667" transform="matrix(0.91 0.4145 -0.4145 0.91 163.2554 -253.9213)" fill="#3B3B3B" stroke="#C1C1C1" stroke-miterlimit="10" width="29.977" height="18.988"/>
				
					<rect x="641.087" y="265.186" transform="matrix(0.9101 0.4145 -0.4145 0.9101 173.0365 -250.0192)" fill="#3B3B3B" stroke="#C1C1C1" stroke-miterlimit="10" width="43.027" height="17.014"/>
				
					<rect x="684.377" y="225.544" transform="matrix(0.91 0.4145 -0.4145 0.91 159.4334 -266.5695)" fill="#3B3B3B" stroke="#C1C1C1" stroke-miterlimit="10" width="18.988" height="16.986"/>
				
					<rect x="684.873" y="252.325" transform="matrix(0.91 0.4145 -0.4145 0.91 170.9988 -264.2795)" fill="#3B3B3B" stroke="#C1C1C1" stroke-miterlimit="10" width="18.992" height="18.994"/>
				
					<rect x="686.709" y="280.491" transform="matrix(0.9101 0.4145 -0.4145 0.9101 182.3998 -262.573)" fill="#3B3B3B" stroke="#C1C1C1" stroke-miterlimit="10" width="19.002" height="17.001"/>
				
					<rect x="708.737" y="290.291" transform="matrix(0.91 0.4145 -0.4145 0.91 188.4257 -270.6398)" fill="#3B3B3B" stroke="#C1C1C1" stroke-miterlimit="10" width="18.002" height="17.004"/>
				
					<rect x="731.409" y="300.635" transform="matrix(0.9101 0.4145 -0.4145 0.9101 194.7198 -279.0779)" fill="#3B3B3B" stroke="#C1C1C1" stroke-miterlimit="10" width="18" height="16.997"/>
				
					<rect x="753.311" y="310.629" transform="matrix(0.91 0.4145 -0.4145 0.91 200.8596 -287.2817)" fill="#3B3B3B" stroke="#C1C1C1" stroke-miterlimit="10" width="17.998" height="16.997"/>
				
					<rect x="776.026" y="320.917" transform="matrix(0.9101 0.4145 -0.4145 0.9101 207.1361 -295.7419)" fill="#3B3B3B" stroke="#C1C1C1" stroke-miterlimit="10" width="18.007" height="17.009"/>
				
					<rect x="796.901" y="330.662" transform="matrix(0.9101 0.4145 -0.4145 0.9101 213.119 -303.7441)" fill="#3B3B3B" stroke="#C1C1C1" stroke-miterlimit="10" width="19.011" height="17.012"/>
				
					<rect x="818.557" y="346.047" transform="matrix(0.91 0.4145 -0.4145 0.91 222.5311 -316.3174)" fill="#3B3B3B" stroke="#C1C1C1" stroke-miterlimit="10" width="42.974" height="16.99"/>
				
					<rect x="707.678" y="262.473" transform="matrix(0.91 0.4145 -0.4145 0.91 177.2147 -272.6163)" fill="#3B3B3B" stroke="#C1C1C1" stroke-miterlimit="10" width="17.994" height="18.992"/>
				
					<rect x="729.515" y="272.68" transform="matrix(0.91 0.4145 -0.4145 0.91 183.4502 -280.951)" fill="#3B3B3B" stroke="#C1C1C1" stroke-miterlimit="10" width="19" height="18.999"/>
				
					<rect x="752.295" y="282.74" transform="matrix(0.9101 0.4144 -0.4144 0.9101 189.5533 -289.2104)" fill="#3B3B3B" stroke="#C1C1C1" stroke-miterlimit="10" width="18.009" height="19.01"/>
				
					<rect x="774.056" y="292.951" transform="matrix(0.91 0.4145 -0.4145 0.91 195.8571 -297.5892)" fill="#3B3B3B" stroke="#C1C1C1" stroke-miterlimit="10" width="18.988" height="18.987"/>
				
					<rect x="796.878" y="303.069" transform="matrix(0.9101 0.4145 -0.4145 0.9101 202.038 -305.9103)" fill="#3B3B3B" stroke="#C1C1C1" stroke-miterlimit="10" width="18.004" height="19.001"/>
				
					<rect x="818.719" y="313.193" transform="matrix(0.91 0.4145 -0.4145 0.91 208.2656 -314.2818)" fill="#3B3B3B" stroke="#C1C1C1" stroke-miterlimit="10" width="18.988" height="18.987"/>
				
					<rect x="840.923" y="325.862" transform="matrix(0.9101 0.4145 -0.4145 0.9101 215.9869 -324.6031)" fill="#3B3B3B" stroke="#C1C1C1" stroke-miterlimit="10" width="30.019" height="19.013"/>
				
					<rect x="707.069" y="235.964" transform="matrix(0.91 0.4145 -0.4145 0.91 165.7942 -275.0381)" fill="#3B3B3B" stroke="#C1C1C1" stroke-miterlimit="10" width="18.988" height="16.986"/>
				
					<rect x="729.027" y="245.718" transform="matrix(0.9101 0.4145 -0.4145 0.9101 171.7435 -283.0282)" fill="#3B3B3B" stroke="#C1C1C1" stroke-miterlimit="10" width="17.999" height="17.001"/>
				
					<rect x="751.736" y="256.028" transform="matrix(0.9101 0.4145 -0.4145 0.9101 178.0656 -291.5204)" fill="#3B3B3B" stroke="#C1C1C1" stroke-miterlimit="10" width="17.993" height="16.994"/>
				
					<rect x="773.648" y="266.005" transform="matrix(0.9101 0.4145 -0.4145 0.9101 184.157 -299.689)" fill="#3B3B3B" stroke="#C1C1C1" stroke-miterlimit="10" width="18.003" height="17.004"/>
				
					<rect x="796.344" y="276.36" transform="matrix(0.9101 0.4144 -0.4144 0.9101 190.4438 -308.1158)" fill="#3B3B3B" stroke="#C1C1C1" stroke-miterlimit="10" width="18.011" height="17.011"/>
				
					<rect x="817.123" y="286.052" transform="matrix(0.9101 0.4145 -0.4145 0.9101 196.4436 -316.1357)" fill="#3B3B3B" stroke="#C1C1C1" stroke-miterlimit="10" width="19.009" height="17.008"/>
				
					<rect x="838.867" y="301.414" transform="matrix(0.9101 0.4145 -0.4145 0.9101 205.8405 -328.7363)" fill="#3B3B3B" stroke="#C1C1C1" stroke-miterlimit="10" width="43.026" height="17.014"/>
				
					<rect x="632.252" y="280.865" transform="matrix(0.9101 0.4145 -0.4145 0.9101 178.0377 -239.6797)" fill="#3B3B3B" stroke="#C1C1C1" stroke-miterlimit="10" width="18.011" height="19.013"/>
				
					<rect x="654.037" y="291.045" transform="matrix(0.9101 0.4145 -0.4145 0.9101 184.2437 -247.9873)" fill="#3B3B3B" stroke="#C1C1C1" stroke-miterlimit="10" width="18.998" height="18.993"/>
				
					<rect id="spacebar" x="672.483" y="321.498" transform="matrix(0.91 0.4145 -0.4145 0.91 202.912 -273.0078)" fill="#3B3B3B" stroke="#C1C1C1" stroke-miterlimit="10" width="115.927" height="18.986"/>
				
					<rect x="786.898" y="351.456" transform="matrix(0.9101 0.4145 -0.4145 0.9101 221.2437 -297.6307)" fill="#3B3B3B" stroke="#C1C1C1" stroke-miterlimit="10" width="19.005" height="19.003"/>
				
					<rect x="809.668" y="361.79" transform="matrix(0.9101 0.4145 -0.4145 0.9101 227.5583 -306.1243)" fill="#3B3B3B" stroke="#C1C1C1" stroke-miterlimit="10" width="19.015" height="19.012"/>
				
					<rect x="832.434" y="372.092" transform="matrix(0.9101 0.4145 -0.4145 0.9101 233.8562 -314.4481)" fill="#3B3B3B" stroke="#C1C1C1" stroke-miterlimit="10" width="18" height="19.002"/>
				
					<rect x="693.27" y="208.465" transform="matrix(0.9101 0.4145 -0.4145 0.9101 152.1046 -272.0001)" fill="#3B3B3B" stroke="#C1C1C1" stroke-miterlimit="10" width="19.016" height="12.009"/>
				
					<rect x="715.952" y="218.812" transform="matrix(0.9101 0.4145 -0.4145 0.9101 158.432 -280.4689)" fill="#3B3B3B" stroke="#C1C1C1" stroke-miterlimit="10" width="19.004" height="12.004"/>
				
					<rect x="737.883" y="228.612" transform="matrix(0.91 0.4145 -0.4145 0.91 164.4319 -288.4821)" fill="#3B3B3B" stroke="#C1C1C1" stroke-miterlimit="10" width="17.993" height="11.997"/>
				
					<rect x="760.626" y="238.991" transform="matrix(0.91 0.4145 -0.4145 0.91 170.7825 -296.9784)" fill="#3B3B3B" stroke="#C1C1C1" stroke-miterlimit="10" width="17.995" height="11.998"/>
				
					<rect x="782.48" y="248.914" transform="matrix(0.9101 0.4145 -0.4145 0.9101 176.8463 -305.1284)" fill="#3B3B3B" stroke="#C1C1C1" stroke-miterlimit="10" width="18.004" height="12.001"/>
				
					<rect x="805.197" y="259.307" transform="matrix(0.9101 0.4145 -0.4145 0.9101 183.2062 -313.6187)" fill="#3B3B3B" stroke="#C1C1C1" stroke-miterlimit="10" width="18.011" height="12.008"/>
				
					<rect x="826.131" y="268.999" transform="matrix(0.9101 0.4145 -0.4145 0.9101 189.1452 -321.6235)" fill="#3B3B3B" stroke="#C1C1C1" stroke-miterlimit="10" width="19.005" height="12.006"/>
				
					<rect x="848.87" y="279.39" transform="matrix(0.91 0.4145 -0.4145 0.91 195.5322 -330.1528)" fill="#3B3B3B" stroke="#C1C1C1" stroke-miterlimit="10" width="18.99" height="11.993"/>
				
					<rect x="871.644" y="289.688" transform="matrix(0.91 0.4146 -0.4146 0.91 201.8436 -338.5001)" fill="#3B3B3B" stroke="#C1C1C1" stroke-miterlimit="10" width="17.993" height="11.999"/>
			</g>
		</g>
	</g>
	<g id="bevanda">
		<circle opacity="0.8" fill="#2980B9" enable-background="new    " cx="419.417" cy="135.903" r="50.582"/>
		<circle fill="#E6E9ED" cx="424.417" cy="133.903" r="50.582"/>
		<path fill="#E74C3C" d="M424.417,92.203c23.03,0,41.7,18.67,41.7,41.7c0,23.03-18.67,41.7-41.7,41.7
			c-10.37,0-19.856-3.786-27.151-10.052c-8.899-7.647-14.547-18.989-14.547-31.648C382.717,110.873,401.387,92.203,424.417,92.203z"
			/>
		<path id="linecover1" fill="#E6E9ED" d="M424.417,91.203c23.583,0,42.7,19.118,42.7,42.7s-19.117,42.7-42.7,42.7
			c-10.62,0-20.335-3.877-27.805-10.293c-9.118-7.831-14.896-19.444-14.896-32.407C381.717,110.321,400.834,91.203,424.417,91.203z"
			/>
		
			<ellipse transform="matrix(-0.1184 0.993 -0.993 -0.1184 623.8776 -222.1744)" fill="#D8D8DA" cx="410.571" cy="165.877" rx="7.71" ry="11.568"/>
		<polygon fill="#CCD1D9" points="361.239,156.128 402.066,163.068 401.641,166.644 360.327,163.782 		"/>
		
			<ellipse transform="matrix(-0.1184 0.993 -0.993 -0.1184 623.9019 -222.1453)" fill="#AAB2BD" cx="410.562" cy="165.881" rx="6.423" ry="9.639"/>
		<path fill="#FFFFFF" d="M397.135,91.046l9.69,12.484c1.604,2.068,1.229,5.048-0.838,6.654c-2.062,1.607-5.05,1.232-6.65-0.836
			l-9.692-12.484c-1.604-2.068-1.229-5.047,0.84-6.654C392.55,88.603,395.528,88.977,397.135,91.046z"/>
		<circle fill="#FFFFFF" cx="424.417" cy="133.903" r="34.776"/>
		<circle fill="#E6E7E8" cx="424.417" cy="133.903" r="31.298"/>
		<circle fill="#49433C" cx="424.417" cy="133.903" r="29.559"/>
		<path fill="#363532" d="M403.194,150.386c9.088,11.702,26.004,13.828,37.707,4.739c0.688-0.535,0.812-1.528,0.273-2.218
			c-0.537-0.689-1.523-0.814-2.224-0.278c-0.276,0.218-0.563,0.428-0.854,0.632c-0.075,0.056-0.15,0.111-0.23,0.166
			c-0.271,0.188-0.55,0.372-0.83,0.549c-0.09,0.057-0.188,0.11-0.271,0.167c-0.188,0.119-0.396,0.235-0.589,0.347
			c-0.135,0.075-0.268,0.15-0.396,0.222c-0.229,0.125-0.455,0.244-0.688,0.36c-0.187,0.09-0.354,0.176-0.539,0.261
			c-0.142,0.064-0.271,0.127-0.404,0.188c-0.172,0.076-0.34,0.151-0.51,0.223c-0.24,0.103-0.487,0.203-0.734,0.298
			c-0.162,0.062-0.324,0.12-0.486,0.178c-0.151,0.056-0.312,0.111-0.477,0.164c-0.146,0.05-0.301,0.1-0.443,0.147
			c-0.281,0.088-0.562,0.171-0.854,0.249c-0.104,0.029-0.205,0.054-0.312,0.081c-0.25,0.064-0.5,0.124-0.754,0.18
			c-0.08,0.018-0.16,0.036-0.237,0.054c-0.343,0.072-0.687,0.137-1.021,0.194c-0.021,0.002-0.037,0.006-0.062,0.008
			c-0.189,0.033-0.396,0.065-0.598,0.092c-0.146,0.021-0.304,0.037-0.451,0.054c-0.021,0.003-0.051,0.007-0.076,0.009
			c-0.74,0.085-1.486,0.134-2.229,0.147c-0.011,0-0.021,0-0.021,0c-0.732,0.013-1.475-0.009-2.207-0.064
			c-0.043-0.003-0.086-0.007-0.129-0.011c-0.34-0.028-0.68-0.061-1.02-0.103c-0.021-0.002-0.039-0.004-0.062-0.006
			c-0.312-0.042-0.637-0.09-0.949-0.143c-0.135-0.022-0.266-0.046-0.395-0.07c-0.178-0.034-0.354-0.068-0.531-0.105
			c-0.646-0.134-1.281-0.297-1.918-0.484c-0.008-0.002-0.016-0.005-0.021-0.007c-3.418-1.023-6.597-2.808-9.25-5.243
			c-0.021-0.015-0.031-0.03-0.056-0.044c-0.146-0.14-0.303-0.282-0.438-0.425c-0.121-0.118-0.242-0.238-0.361-0.358
			c-0.121-0.124-0.242-0.246-0.354-0.373c-0.199-0.215-0.398-0.435-0.604-0.659c-0.062-0.078-0.135-0.157-0.205-0.237
			c-0.229-0.268-0.451-0.54-0.67-0.819c-0.217-0.28-0.426-0.565-0.627-0.854c-0.062-0.085-0.121-0.171-0.182-0.256
			c-0.168-0.245-0.33-0.492-0.488-0.741c-0.096-0.147-0.187-0.295-0.271-0.442c-0.088-0.147-0.178-0.291-0.264-0.438
			c-0.103-0.179-0.201-0.358-0.301-0.539c-0.012-0.019-0.021-0.04-0.031-0.06c-1.695-3.179-2.646-6.695-2.789-10.259
			c0-0.009-0.002-0.017-0.002-0.025c-0.021-0.66-0.021-1.319,0.008-1.978c0.017-0.181,0.021-0.359,0.027-0.541
			c0.01-0.132,0.021-0.263,0.028-0.394c0.021-0.32,0.058-0.641,0.099-0.96c0.002-0.02,0.008-0.039,0.01-0.058
			c0.041-0.338,0.103-0.675,0.148-1.011c0.008-0.043,0.018-0.086,0.021-0.129c0.131-0.723,0.288-1.441,0.479-2.154
			c0.002-0.007,0.006-0.015,0.008-0.022c0.197-0.717,0.433-1.428,0.695-2.13c0.01-0.024,0.02-0.047,0.021-0.071
			c0.061-0.142,0.104-0.283,0.162-0.424c0.076-0.187,0.156-0.372,0.234-0.556c0.01-0.017,0.02-0.035,0.021-0.052
			c0.146-0.32,0.288-0.636,0.438-0.948c0.034-0.074,0.072-0.146,0.104-0.22c0.116-0.229,0.234-0.458,0.356-0.684
			c0.055-0.095,0.104-0.19,0.155-0.285c0.146-0.258,0.298-0.514,0.448-0.766c0.08-0.133,0.171-0.265,0.256-0.397
			c0.094-0.14,0.188-0.28,0.271-0.418c0.1-0.143,0.19-0.286,0.291-0.428c0.151-0.217,0.312-0.432,0.477-0.644
			c0.107-0.146,0.229-0.291,0.346-0.435c0.097-0.117,0.188-0.233,0.275-0.348c0.135-0.153,0.263-0.307,0.395-0.458
			c0.17-0.194,0.345-0.386,0.521-0.576c0.104-0.11,0.206-0.219,0.312-0.329c0.159-0.163,0.312-0.324,0.479-0.483
			c0.077-0.076,0.148-0.152,0.229-0.225c0.236-0.229,0.48-0.45,0.73-0.669c0.072-0.063,0.146-0.125,0.227-0.188
			c0.271-0.23,0.544-0.458,0.82-0.676c0.688-0.536,0.812-1.528,0.274-2.218c-0.534-0.689-1.524-0.814-2.218-0.279
			C396.231,121.77,394.104,138.685,403.194,150.386z"/>
		<path fill="#363532" d="M413.143,111.208c0.343,0.803,1.271,1.182,2.065,0.842c0.218-0.089,0.431-0.171,0.644-0.253
			c0.031-0.013,0.062-0.025,0.1-0.038c0.002-0.001,0.004-0.002,0.006-0.002c0.199-0.076,0.396-0.148,0.604-0.219
			c0.011-0.001,0.016-0.004,0.021-0.006c0.055-0.018,0.104-0.036,0.154-0.055c0.006,0,0.01-0.002,0.014-0.003
			c0.209-0.073,0.422-0.142,0.635-0.208c0.007-0.002,0.019-0.003,0.021-0.005c0.016-0.003,0.021-0.008,0.041-0.012
			c0.014-0.003,0.021-0.007,0.036-0.011c0.439-0.138,0.896-0.258,1.354-0.369c0.051-0.012,0.104-0.026,0.153-0.039
			c0.438-0.104,0.882-0.193,1.322-0.271c0.104-0.019,0.214-0.037,0.312-0.055c-0.062,0.01-0.123,0.018-0.188,0.029
			c0.062-0.011,0.125-0.019,0.188-0.029c-0.002,0-0.004,0-0.006,0c0.146-0.023,0.287-0.044,0.437-0.065
			c-0.011,0.001-0.017,0.001-0.021,0.001c0.051-0.007,0.104-0.016,0.148-0.023c0.003,0,0.003,0,0.01,0
			c-0.053,0.006-0.103,0.016-0.146,0.021c0.062-0.009,0.125-0.016,0.188-0.025c0.562-0.059,1.091,0.182,1.416,0.601
			c0.165,0.212,0.271,0.47,0.312,0.755c0.112,0.859-0.479,1.651-1.343,1.777c-0.002,0-0.002,0.001-0.004,0.001
			c-0.004,0-0.008,0.002-0.011,0.002c-1.323,0.181-2.622,0.493-3.884,0.924c-0.004,0.002-0.009,0.002-0.015,0.005
			c-0.021,0.006-0.037,0.013-0.062,0.019c-0.009,0.002-0.013,0.004-0.019,0.005c-0.419,0.146-0.83,0.305-1.236,0.476
			c-0.779,0.35-1.146,1.262-0.812,2.056c0.336,0.797,1.252,1.174,2.052,0.849c2.159-0.917,4.479-1.382,6.854-1.365
			c0.062,0,0.125,0,0.188,0c0.161,0.003,0.321,0.01,0.483,0.017c0.104,0.005,0.202,0.009,0.31,0.016
			c0.147,0.009,0.302,0.021,0.453,0.033c0.104,0.011,0.213,0.021,0.316,0.033c0.104,0.012,0.22,0.019,0.323,0.033
			c0.021,0.001,0.023,0.008,0.044,0.009c0.021,0.003,0.04,0.01,0.062,0.014c0.387,0.076,0.721,0.282,0.944,0.575
			c0.247,0.32,0.375,0.734,0.312,1.167c-0.104,0.866-0.896,1.479-1.767,1.371c-2.487-0.312-4.959,0.027-7.217,0.965l-0.104,0.047
			c-0.793,0.345-1.164,1.264-0.825,2.062c0.339,0.802,1.271,1.182,2.067,0.842c4.604-1.942,9.965-0.539,13.032,3.412
			c3.062,3.951,3.104,9.49,0.08,13.472c-0.526,0.695-0.396,1.688,0.304,2.214c0.688,0.525,1.674,0.393,2.203-0.29l0.178-0.227
			c1.403-1.922,2.312-4.181,2.61-6.607c0.104-0.866,0.896-1.48,1.769-1.372c0.438,0.055,0.81,0.28,1.056,0.6
			c0.229,0.292,0.351,0.666,0.317,1.06c-0.002,0.021,0,0.041-0.002,0.062c0,0.015,0.002,0.029,0,0.044
			c-0.017,0.11-0.031,0.217-0.051,0.326c-0.02,0.105-0.027,0.211-0.048,0.316c-0.021,0.15-0.056,0.299-0.077,0.449
			c-0.021,0.101-0.039,0.201-0.062,0.301c-0.032,0.159-0.062,0.317-0.104,0.475c-0.02,0.061-0.029,0.12-0.046,0.181
			c-0.569,2.303-1.601,4.44-3.021,6.307c-0.518,0.695-0.375,1.675,0.312,2.197c0.688,0.521,1.656,0.393,2.188-0.282
			c0.271-0.351,0.521-0.711,0.771-1.08c0.002-0.004,0.006-0.008,0.01-0.013c0.017-0.017,0.021-0.034,0.033-0.053
			c0.002-0.002,0.004-0.007,0.008-0.01c0.729-1.11,1.354-2.291,1.854-3.529c0-0.003,0.003-0.006,0.009-0.008
			c0-0.002,0.002-0.003,0.002-0.004c0.334-0.8,1.248-1.183,2.054-0.856c0.271,0.108,0.487,0.281,0.648,0.493
			c0.324,0.42,0.434,0.993,0.229,1.521c-0.021,0.051-0.038,0.104-0.062,0.153c-0.078,0.194-0.162,0.387-0.25,0.579
			c-0.04,0.093-0.078,0.185-0.122,0.276c-0.093,0.198-0.188,0.393-0.278,0.587c-0.039,0.082-0.078,0.165-0.119,0.247
			c-0.105,0.216-0.229,0.429-0.344,0.641c-0.029,0.059-0.062,0.119-0.098,0.176c-0.146,0.264-0.301,0.525-0.457,0.783
			c-0.012,0.017-0.021,0.033-0.025,0.05c-0.004,0.005-0.006,0.011-0.012,0.017c-0.122,0.2-0.25,0.398-0.381,0.595
			c-0.023,0.042-0.062,0.084-0.085,0.127c-0.003,0.005-0.007,0.01-0.012,0.015c-0.072,0.11-0.146,0.218-0.229,0.327
			c-0.054,0.071-0.102,0.144-0.146,0.214c-0.021,0.023-0.034,0.047-0.055,0.07c-0.14,0.19-0.271,0.38-0.409,0.567
			c-0.523,0.695-0.394,1.688,0.305,2.214c0.69,0.528,1.688,0.392,2.22-0.303c7.339-9.67,7.263-23.124-0.19-32.719
			c-7.448-9.594-20.471-13-31.646-8.282C413.182,109.476,412.805,110.403,413.143,111.208z M446.061,143.572
			c-0.029,0.078-0.064,0.156-0.104,0.233C445.993,143.728,446.026,143.65,446.061,143.572z M445.653,144.439
			c-0.035,0.067-0.064,0.136-0.104,0.203C445.586,144.575,445.618,144.506,445.653,144.439z M445.191,145.324
			c-0.023,0.045-0.053,0.092-0.074,0.138C445.143,145.417,445.167,145.369,445.191,145.324z M446.331,142.944
			c0.021-0.044,0.035-0.09,0.06-0.135c-0.005,0.012-0.011,0.024-0.017,0.037C446.357,142.879,446.344,142.911,446.331,142.944z"/>
		<path fill="#363532" d="M443.292,148.252c0.006-0.009,0.019-0.015,0.021-0.023c0.139-0.176,0.266-0.354,0.395-0.535
			C443.566,147.882,443.43,148.068,443.292,148.252z"/>
	</g>
	<g id="mouse">
		<path opacity="0.8" fill="#2980B9" enable-background="new    " d="M975.604,483.257c-0.004-0.003-0.016-0.009-0.02-0.011
			c-9.787-7.229-23.592-5.188-30.863,4.562c-0.033,0.043-0.068,0.081-0.102,0.119l-0.121,0.162l-24.629,33.294
			c-0.062,0.087-0.172,0.298-0.242,0.372l-1.271,1.764l0.006,0.008c-7.248,9.894-5.045,23.509,4.727,30.729
			c9.816,7.261,23.707,5.104,30.896-4.615l26.223-35.457C987.466,504.382,985.421,490.518,975.604,483.257z"/>
		<g>
			<g>
				<path fill="#CCD1D9" d="M950.519,487.136c-0.025,0.043-0.064,0.081-0.102,0.12l-0.119,0.161l-24.629,33.294
					c-0.062,0.087-0.121,0.182-0.191,0.258l-1.219,1.646l0.004,0.002c-7.318,10.055-5.096,23.624,4.675,30.851l52.45-70.899
					C971.589,475.337,957.792,477.383,950.519,487.136z"/>
				<path fill="#E6E9ED" d="M981.396,482.579c-0.008-0.003-0.02-0.008-0.021-0.011l-52.447,70.901
					c9.814,7.267,23.684,5.163,30.869-4.558l-0.086-0.065c-0.002-0.001-0.002-0.001-0.002-0.001s0,0,0.002,0.001l0.086,0.065
					l26.207-35.429C993.271,503.675,991.212,489.841,981.396,482.579z"/>
			</g>
		</g>
	</g>
	<g id="iphone">
		<path opacity="0.8" fill="#2980B9" enable-background="new    " d="M960.569,182.469l38.502-44.066
			c3.021-3.461,2.666-8.77-0.797-11.794l-88.141-77.004c-3.463-3.025-8.77-2.666-11.793,0.796l-38.5,44.065
			c-3.021,3.462-2.67,8.768,0.793,11.795l88.131,77.003C952.233,186.288,957.544,185.932,960.569,182.469z"/>
		<path fill="#434A54" d="M903.87,49.304l-38.5,44.066c-3.025,3.461-2.67,8.769,0.793,11.794l88.131,77.003
			c3.461,3.025,8.771,2.668,11.795-0.796l38.504-44.065c3.023-3.461,2.666-8.77-0.797-11.795l-88.131-77.002
			C912.202,45.485,906.896,45.843,903.87,49.304z"/>
		<path fill="#586273" d="M991.999,126.306l-38.5,44.067l-81.826-71.492c0-0.007,0-0.015,0-0.021l38.482-44.042
			c0.006-0.003,0.014-0.002,0.021-0.003L991.999,126.306z"/>
		
			<rect x="972.925" y="151.83" transform="matrix(0.658 -0.753 0.753 0.658 218.9628 789.9691)" fill="#434A54" width="12.539" height="4.176"/>
		<path fill="#F7F9F8" d="M871.673,98.859c0,0.007,0,0.015,0,0.021l81.826,71.492l38.5-44.067l-81.822-71.492
			c-0.008,0.001-0.016,0-0.021,0.003L871.673,98.859z"/>
		<path fill="#44C650" d="M935.56,93.342l-5.475-2.599c-0.57-0.273-1.512-0.283-2.088-0.021l-9.244,4.342
			c-0.004,0.002-0.008,0.005-0.012,0.007l-1.287-1.126c-0.395-2.214-1.729-4.557-3.855-6.419l-1.717-1.5
			c-3.028-2.647-7.516-2.466-10.021,0.4l0,0l0,0l0,0c-2.52,2.868-2.08,7.34,0.938,9.987l1.727,1.499
			c2.135,1.862,4.635,2.868,6.881,2.957l1.287,1.126c0,0.002-0.014,0.008-0.02,0.011l-3.061,9.745
			c-0.188,0.604-0.045,1.533,0.303,2.064l3.312,5.075c0.348,0.527,0.971,0.572,1.385,0.096l10.604-12.143l0,0l10.61-12.143
			C936.255,94.225,936.13,93.614,935.56,93.342z"/>
		
			<rect x="918.809" y="112.386" transform="matrix(0.6579 -0.7531 0.7531 0.6579 232.4407 745.444)" fill="#DCE4E8" width="35.868" height="8.969"/>
		
			<rect x="929.051" y="121.359" transform="matrix(0.658 -0.753 0.753 0.658 229.097 756.1226)" fill="#DCE4E8" width="35.861" height="8.969"/>
		
			<rect x="947.932" y="130.236" transform="matrix(0.658 -0.753 0.753 0.658 225.8066 766.626)" fill="#DCE4E8" width="17.933" height="8.964"/>
		<circle fill="#586273" cx="937.946" cy="136.03" r="1.682"/>
		<circle fill="#586273" cx="943.847" cy="129.277" r="1.681"/>
		<circle fill="#586273" cx="940.896" cy="132.653" r="1.681"/>
		<path fill="#586273" d="M947.903,124.634c0.688,0.611,0.768,1.672,0.146,2.373c-0.604,0.699-1.676,0.771-2.373,0.16
			c-0.688-0.611-0.77-1.674-0.148-2.374C946.142,124.097,947.204,124.025,947.903,124.634z"/>
		<circle fill="#586273" cx="927.815" cy="127.179" r="1.681"/>
		<circle fill="#586273" cx="939.618" cy="113.674" r="1.681"/>
		<circle fill="#586273" cx="933.716" cy="120.427" r="1.681"/>
		<circle fill="#586273" cx="930.767" cy="123.804" r="1.681"/>
		<circle fill="#586273" cx="936.667" cy="117.051" r="1.682"/>
		
			<rect x="952.608" y="133.572" transform="matrix(0.6578 -0.7532 0.7532 0.6578 225.937 767.0886)" fill="#E74C3C" width="8.965" height="2.693"/>
		<path fill="none" d="M903.87,49.305l-29.883,34.212l113.553,73.266l17.053-19.475c3.025-3.461,2.666-8.771-0.797-11.795
			L915.665,48.51C912.202,45.485,906.896,45.843,903.87,49.305z"/>
	</g>
	<g id="matita1">
		<polygon opacity="0.8" fill="#2980B9" enable-background="new    " points="1117.845,318.321 1055.812,190.27 1050.479,192.855 
			1045.142,195.44 1107.175,323.49 1112.511,320.906 		"/>
		<polygon fill="#2980B9" points="1121.599,336.266 1117.845,318.321 1107.175,323.49 1118.931,337.561 1122.851,342.246 		"/>
		<g>
			<g>
				<polygon fill="#58585C" points="1116.608,319.809 1057.161,197.096 1054.577,191.76 1049.239,194.346 1111.274,322.395 				"/>
				<polygon fill="#58585C" points="1116.608,319.809 1121.944,317.227 1059.911,189.174 1054.577,191.76 1057.161,197.096 				"/>
			</g>
			<g>
				<polygon fill="#464E5C" points="1126.948,341.152 1125.696,335.17 1123.028,336.465 				"/>
				<polygon fill="#F7D39A" points="1125.696,335.17 1121.944,317.227 1111.274,322.395 1123.028,336.465 				"/>
			</g>
			<g>
				
					<rect x="1056.313" y="205.548" transform="matrix(-0.8998 0.4362 -0.4362 -0.8998 2108.728 -68.6282)" fill="#DA4453" width="11.86" height="4.448"/>
			</g>
		</g>
	</g>
	<g id="foglio2">
		<g>
			<g opacity="0.8">
				<g>
					<polygon fill="#2980B9" points="165.448,6.97 141.341,195.495 292.062,214.769 316.17,26.243 317.776,13.683 167.054,-5.591 
											"/>
				</g>
			</g>
			<g>
				<g>
					
						<rect x="156.336" y="13.103" transform="matrix(0.9919 0.1268 -0.1268 0.9919 15.5858 -28.5841)" fill="#EBF4FF" width="151.932" height="190.041"/>
				</g>
			</g>
			<g>
				<g>
					
						<rect x="169.19" y="1.247" transform="matrix(0.9919 0.1268 -0.1268 0.9919 2.9399 -31.0257)" fill="#44C650" width="151.932" height="12.662"/>
				</g>
			</g>
			<g>
				<g>
					
						<rect x="203.269" y="79.577" transform="matrix(-0.9919 -0.1268 0.1268 -0.9919 406.6167 197.6977)" fill="none" width="12.663" height="12.662"/>
				</g>
			</g>
			<g>
				<g>
					
						<rect x="225.685" y="81.999" transform="matrix(0.9919 0.1268 -0.1268 0.9919 12.6479 -28.3343)" fill="none" width="6.33" height="6.33"/>
				</g>
			</g>
			<g>
				<g>
					
						<rect x="180.371" y="65.454" transform="matrix(0.9919 0.1268 -0.1268 0.9919 10.2117 -26.3364)" fill="#434A54" width="63.173" height="3.166"/>
				</g>
			</g>
			<g>
				<g>
					
						<rect x="249.539" y="72.887" transform="matrix(0.9919 0.1268 -0.1268 0.9919 11.6234 -33.6502)" fill="#3498DB" width="41.149" height="3.166"/>
				</g>
			</g>
			<g>
				<g>
					
						<rect x="173.048" y="74.752" transform="matrix(0.9919 0.1268 -0.1268 0.9919 11.5743 -29.1528)" fill="#3498DB" width="123.445" height="3.166"/>
				</g>
			</g>
			<g>
				<g>
					
						<rect x="178.89" y="76.017" transform="matrix(0.9919 0.1268 -0.1268 0.9919 11.412 -24.0648)" fill="#3498DB" width="31.652" height="3.165"/>
				</g>
			</g>
			<g>
				<g>
					
						<rect x="216.634" y="79.651" transform="matrix(0.9919 0.1269 -0.1269 0.9919 12.1123 -27.6397)" fill="#434A54" width="12.662" height="3.166"/>
				</g>
			</g>
			<g>
				<g>
					
						<rect x="235.322" y="84.644" transform="matrix(0.9919 0.1268 -0.1268 0.9919 13.0511 -32.5565)" fill="#3498DB" width="53.811" height="3.165"/>
				</g>
			</g>
			<g>
				<g>
					
						<rect x="163.049" y="125.051" transform="matrix(0.9919 0.1268 -0.1268 0.9919 17.5013 -21.6596)" fill="#434A54" width="31.653" height="3.165"/>
				</g>
			</g>
			<g>
				<g>
					
						<rect x="161.482" y="136.821" transform="matrix(0.9919 0.1269 -0.1269 0.9919 18.9478 -20.5802)" fill="#434A54" width="18.99" height="3.165"/>
				</g>
			</g>
			<g>
				<g>
					
						<rect x="186.631" y="139.627" transform="matrix(0.9919 0.1269 -0.1269 0.9919 19.4829 -23.3487)" fill="#434A54" width="12.661" height="3.166"/>
				</g>
			</g>
			<g>
				<g>
					
						<rect x="162.271" y="130.927" transform="matrix(0.9919 0.1268 -0.1268 0.9919 18.213 -21.1107)" fill="#434A54" width="25.325" height="3.166"/>
				</g>
			</g>
			<g>
				<g>
					
						<rect x="160.64" y="143.893" transform="matrix(0.9919 0.1268 -0.1268 0.9919 19.8711 -21.2021)" fill="#434A54" width="31.653" height="3.166"/>
				</g>
			</g>
			<g>
				<g>
					
						<rect x="165.821" y="89.243" transform="matrix(0.9919 0.1269 -0.1269 0.9919 14.8278 -22.6038)" fill="#CCD1D9" width="37.984" height="31.654"/>
				</g>
			</g>
			<g>
				<g>
					
						<rect x="208.516" y="144.036" transform="matrix(0.9919 0.1268 -0.1268 0.9919 20.3016 -27.6735)" fill="#434A54" width="37.983" height="3.166"/>
				</g>
			</g>
			<g>
				<g>
					
						<rect x="207.814" y="148.71" transform="matrix(0.9919 0.1268 -0.1268 0.9919 20.7851 -25.9398)" fill="#434A54" width="12.662" height="3.166"/>
				</g>
			</g>
			<g>
				<g>
					
						<rect x="226.671" y="150.721" transform="matrix(0.9919 0.127 -0.127 0.9919 21.2081 -27.9611)" fill="#434A54" width="6.331" height="3.166"/>
				</g>
			</g>
			<g>
				<g>
					
						<rect x="209.401" y="136.543" transform="matrix(0.9919 0.1268 -0.1268 0.9919 19.2838 -26.6444)" fill="#434A54" width="18.994" height="3.165"/>
				</g>
			</g>
			<g>
				<g>
					
						<rect x="234.54" y="139.363" transform="matrix(0.9919 0.1268 -0.1268 0.9919 19.8132 -29.4008)" fill="#434A54" width="12.659" height="3.166"/>
				</g>
			</g>
			<g>
				<g>
					
						<rect x="210.148" y="131.073" transform="matrix(0.9919 0.1268 -0.1268 0.9919 18.6455 -27.5837)" fill="#434A54" width="31.652" height="3.166"/>
				</g>
			</g>
			<g>
				<g>
					
						<rect x="212.933" y="95.249" transform="matrix(0.9919 0.1268 -0.1268 0.9919 15.9567 -28.5122)" fill="#CCD1D9" width="37.983" height="31.652"/>
				</g>
			</g>
			<g>
				<g>
					
						<rect x="257.223" y="137.497" transform="matrix(0.9919 0.1268 -0.1268 0.9919 19.8656 -33.9025)" fill="#434A54" width="37.983" height="3.165"/>
				</g>
			</g>
			<g>
				<g>
					
						<rect x="255.651" y="149.278" transform="matrix(0.9919 0.1269 -0.1269 0.9919 21.3113 -32.8266)" fill="#434A54" width="25.324" height="3.165"/>
				</g>
			</g>
			<g>
				<g>
					
						<rect x="257.521" y="142.171" transform="matrix(0.9919 0.1268 -0.1268 0.9919 20.357 -32.2952)" fill="#434A54" width="12.662" height="3.165"/>
				</g>
			</g>
			<g>
				<g>
					
						<rect x="254.884" y="155.142" transform="matrix(0.9919 0.1268 -0.1268 0.9919 22.0072 -32.2591)" fill="#434A54" width="18.992" height="3.166"/>
				</g>
			</g>
			<g>
				<g>
					
						<rect x="280.027" y="157.953" transform="matrix(0.9919 0.1268 -0.1268 0.9919 22.5418 -35.0241)" fill="#434A54" width="12.661" height="3.166"/>
				</g>
			</g>
			<g>
				<g>
					
						<rect x="275.32" y="145.005" transform="matrix(0.9919 0.1269 -0.1269 0.9919 20.9059 -34.96)" fill="#434A54" width="18.991" height="3.165"/>
				</g>
			</g>
			<g>
				<g>
					
						<rect x="260.033" y="101.274" transform="matrix(0.9919 0.1268 -0.1268 0.9919 17.1017 -34.4372)" fill="#CCD1D9" width="37.982" height="31.652"/>
				</g>
			</g>
			<g>
				<g>
					
						<rect x="173.065" y="45.21" transform="matrix(0.9919 0.1268 -0.1268 0.9919 8.4691 -29.9581)" fill="#CCD1D9" width="132.94" height="12.661"/>
				</g>
			</g>
			<g>
				<g>
					<g>
						
							<rect x="180.113" y="43.213" transform="matrix(0.9919 0.1268 -0.1268 0.9919 7.1882 -23.3215)" fill="#E5E5E5" width="13.296" height="3.166"/>
					</g>
				</g>
			</g>
			<g>
				<g>
					<g>
						
							<rect x="199.844" y="41.844" transform="matrix(0.9919 0.1268 -0.1268 0.9919 7.8286 -26.6365)" fill="#434A54" width="26.595" height="12.661"/>
					</g>
				</g>
				<g>
					<g>
						
							<rect x="206.493" y="46.586" transform="matrix(0.9919 0.1268 -0.1268 0.9919 7.8292 -26.6404)" fill="#E5E5E5" width="13.295" height="3.165"/>
					</g>
				</g>
			</g>
			<g>
				<g>
					<g>
						
							<rect x="232.866" y="49.983" transform="matrix(0.9919 0.1269 -0.1269 0.9919 8.4777 -29.9711)" fill="#E5E5E5" width="13.297" height="3.165"/>
					</g>
				</g>
			</g>
			<g>
				<g>
					<g>
						
							<rect x="259.253" y="53.338" transform="matrix(0.9919 0.1268 -0.1268 0.9919 9.1106 -33.2742)" fill="#E5E5E5" width="13.296" height="3.165"/>
					</g>
				</g>
			</g>
			<g>
				<g>
					<g>
						
							<rect x="285.636" y="56.704" transform="matrix(0.9919 0.1268 -0.1268 0.9919 9.751 -36.5939)" fill="#E5E5E5" width="13.296" height="3.166"/>
					</g>
				</g>
			</g>
			<g>
				<g>
					<g>
						
							<rect x="178.84" y="27.903" transform="matrix(0.9919 0.1268 -0.1268 0.9919 5.4889 -27.2548)" fill="#CCD1D9" width="75.966" height="3.165"/>
					</g>
				</g>
				<g>
					<g>
						
							<rect x="179.869" y="18.01" transform="matrix(0.9919 0.1268 -0.1268 0.9919 4.0119 -23.8491)" fill="#CCD1D9" width="18.992" height="3.166"/>
					</g>
				</g>
			</g>
			<g>
				<g>
					
						<rect x="156.992" y="164.604" transform="matrix(0.9919 0.1268 -0.1268 0.9919 24.2815 -26.9048)" fill="#CCD1D9" width="132.942" height="25.324"/>
				</g>
			</g>
		</g>
	</g>
	<g id="foglio1">
		
			<rect x="-6.742" y="-6.914" transform="matrix(0.9495 -0.3137 0.3137 0.9495 -29.0464 27.9118)" fill="#2980B9" width="157.895" height="222.247"/>
		<g>
			<g>
				<g>
					<g>
						
							<rect x="-36.79" y="25.933" transform="matrix(0.3137 0.9495 -0.9495 0.3137 150.6006 1.3958)" fill="#F7F9F8" width="222.25" height="157.893"/>
					</g>
				</g>
			</g>
			<g>
				
					<rect x="68.79" y="47.842" transform="matrix(0.9495 -0.3137 0.3137 0.9495 -11.0384 33.085)" fill="#B7BFC7" width="56.986" height="5.999"/>
				
					<rect x="71.929" y="57.333" transform="matrix(0.9495 -0.3137 0.3137 0.9495 -13.8578 34.5489)" fill="#DCE4E8" width="56.986" height="6.001"/>
				
					<rect x="75.067" y="66.832" transform="matrix(0.9495 -0.3137 0.3137 0.9495 -16.6788 36.0117)" fill="#DCE4E8" width="56.986" height="6"/>
				
					<rect x="78.2" y="76.326" transform="matrix(0.9495 -0.3137 0.3137 0.9495 -19.4995 37.4749)" fill="#DCE4E8" width="56.984" height="6"/>
			</g>
			
				<rect x="-12.215" y="41.879" transform="matrix(0.9495 -0.3137 0.3137 0.9495 -11.314 19.4455)" fill="#DCE4E8" width="133.96" height="5.999"/>
			
				<rect x="-18.487" y="12.896" transform="matrix(0.9495 -0.3137 0.3137 0.9495 -5.6743 16.5194)" fill="#B7BFC7" width="133.959" height="25.99"/>
			<g>
				
					<rect x="9.116" y="106.445" transform="matrix(0.9495 -0.3137 0.3137 0.9495 -30.4922 29.3965)" fill="#DCE4E8" width="133.96" height="6"/>
				
					<rect x="12.255" y="115.939" transform="matrix(0.9495 -0.3137 0.3137 0.9495 -33.3123 30.8605)" fill="#DCE4E8" width="133.96" height="6.002"/>
				
					<rect x="15.395" y="125.437" transform="matrix(0.9495 -0.3137 0.3137 0.9495 -36.1333 32.3247)" fill="#DCE4E8" width="133.957" height="5.999"/>
			</g>
			<g>
				
					<rect x="33.585" y="180.506" transform="matrix(0.9495 -0.3137 0.3137 0.9495 -52.4908 40.8117)" fill="#DCE4E8" width="133.96" height="6.001"/>
				
					<rect x="37.475" y="194.704" transform="matrix(0.9495 -0.3137 0.3137 0.9495 -57.5047 38.0445)" fill="#DCE4E8" width="103.973" height="6.001"/>
			</g>
			<g>
				
					<rect x="22.475" y="150.534" transform="matrix(0.9495 -0.3137 0.3137 0.9495 -44.7844 28.7568)" fill="#B7BFC7" width="88.973" height="5.999"/>
				
					<rect x="25.614" y="160.031" transform="matrix(0.9495 -0.3137 0.3137 0.9495 -47.605 30.2207)" fill="#DCE4E8" width="88.972" height="5.998"/>
				
					<rect x="28.76" y="169.526" transform="matrix(0.9495 -0.3137 0.3137 0.9495 -50.4252 31.687)" fill="#DCE4E8" width="88.972" height="5.999"/>
				
					<rect x="120.949" y="127.453" transform="matrix(0.9496 -0.3136 0.3136 0.9496 -37.061 50.5014)" fill="#44C650" width="35.015" height="26.01"/>
			</g>
			<g>
				
					<rect x="1.642" y="79.097" transform="matrix(0.9495 -0.3137 0.3137 0.9495 -30.2002 6.5147)" fill="#DCE4E8" width="7.001" height="35.993"/>
				
					<rect x="11.128" y="75.939" transform="matrix(0.9495 -0.3138 0.3138 0.9495 -28.7367 9.3335)" fill="#DCE4E8" width="7" height="36.008"/>
				
					<rect x="20.619" y="72.795" transform="matrix(0.9495 -0.3138 0.3138 0.9495 -27.2763 12.156)" fill="#DCE4E8" width="7" height="36.008"/>
				
					<rect x="30.122" y="69.668" transform="matrix(0.9495 -0.3138 0.3138 0.9495 -25.8079 14.9759)" fill="#DCE4E8" width="7" height="35.996"/>
				
					<rect x="39.596" y="66.548" transform="matrix(0.9495 -0.3137 0.3137 0.9495 -24.3435 17.7846)" fill="#DCE4E8" width="6.999" height="35.987"/>
				
					<rect x="49.089" y="63.401" transform="matrix(0.9496 -0.3134 0.3134 0.9496 -22.8611 20.5821)" fill="#DCE4E8" width="6.999" height="35.996"/>
				
					<rect x="58.616" y="60.253" transform="matrix(0.9495 -0.3138 0.3138 0.9495 -21.4164 23.4429)" fill="#DCE4E8" width="7.001" height="35.995"/>
				
					<rect x="4.792" y="98.587" transform="matrix(0.9496 -0.3135 0.3135 0.9496 -32.9933 7.9714)" fill="#E74C3C" width="7.002" height="15.999"/>
				
					<rect x="13.799" y="92.505" transform="matrix(0.9495 -0.3137 0.3137 0.9495 -31.1227 10.5741)" fill="#E74C3C" width="6.999" height="18.997"/>
				
					<rect x="24.375" y="96.208" transform="matrix(0.9495 -0.3138 0.3138 0.9495 -30.6669 13.9111)" fill="#E74C3C" width="7" height="12.001"/>
				
					<rect x="32.314" y="83.318" transform="matrix(0.9495 -0.3137 0.3137 0.9495 -27.7804 15.9967)" fill="#E74C3C" width="6.999" height="21.997"/>
				
					<rect x="41.174" y="76.283" transform="matrix(0.9495 -0.3137 0.3137 0.9495 -25.7517 18.5195)" fill="#E74C3C" width="7.002" height="26.005"/>
				
					<rect x="53.81" y="92.631" transform="matrix(0.9495 -0.3138 0.3138 0.9495 -27.1155 22.8161)" fill="#E74C3C" width="7" height="5.999"/>
				
					<rect x="61.719" y="79.769" transform="matrix(0.9496 -0.3134 0.3134 0.9496 -24.221 24.8619)" fill="#E74C3C" width="7.002" height="15.999"/>
			</g>
		</g>
	</g>
	<g id="occhiali">
		<g>
			<g>
				<path fill="#586273" d="M134.9,123.489c-1.324-0.233-2.208-1.495-1.975-2.817c1.628-9.25-4.572-18.098-13.821-19.726
					L32.842,85.758c-1.323-0.233-2.207-1.495-1.974-2.818c0.233-1.323,1.495-2.208,2.817-1.975l86.262,15.186
					c11.892,2.094,19.863,13.471,17.77,25.363C137.483,122.837,136.222,123.722,134.9,123.489z"/>
			</g>
		</g>
		<g>
			<g>
				<g>
					<path fill="#586273" d="M134.9,123.489c-1.324-0.233-2.208-1.495-1.975-2.817c1.628-9.25-4.572-18.098-13.821-19.726
						L32.842,85.758c-1.323-0.233-2.207-1.495-1.974-2.818c0.233-1.323,1.495-2.208,2.817-1.975l86.262,15.186
						c11.892,2.094,19.863,13.471,17.77,25.363C137.483,122.837,136.222,123.722,134.9,123.489z"/>
				</g>
			</g>
			<g>
				<g>
					<path fill="#586273" d="M39.051,106.614c-1.323-0.232-2.206-1.495-1.973-2.817c2.094-11.892,13.471-19.863,25.362-17.77
						l86.262,15.187c1.323,0.233,2.208,1.495,1.974,2.818c-0.232,1.323-1.494,2.208-2.817,1.974L61.596,90.82
						c-9.248-1.628-18.098,4.571-19.727,13.82C41.637,105.963,40.375,106.848,39.051,106.614z"/>
				</g>
			</g>
		</g>
		<g opacity="0.3">
			<g>
				<g>
					<path fill="#EFEEEE" d="M77.812,110.969c-0.928,5.271-5.999,8.825-11.271,7.897l-28.755-5.062
						c-5.27-0.928-8.825-6-7.896-11.271l3.374-19.17c0.929-5.272,6.001-8.825,11.271-7.897l28.755,5.062
						c5.272,0.928,8.824,6,7.896,11.272L77.812,110.969z"/>
				</g>
			</g>
		</g>
		<g opacity="0.3">
			<g>
				<g>
					<path fill="#EFEEEE" d="M144.905,122.78c-0.928,5.271-6,8.826-11.271,7.896l-28.756-5.062
						c-5.272-0.928-8.826-6.001-7.897-11.272l3.375-19.169c0.928-5.272,6-8.826,11.272-7.897l28.755,5.062
						c5.271,0.928,8.825,6,7.896,11.272L144.905,122.78z"/>
				</g>
			</g>
		</g>
		<g>
			<g>
				<path fill="#586273" d="M97.403,111.948c-1.323-0.233-2.207-1.495-1.974-2.819c0.698-3.964-1.959-7.756-5.923-8.454
					c-3.963-0.698-7.756,1.959-8.454,5.923c-0.233,1.323-1.493,2.208-2.818,1.975c-1.322-0.232-2.206-1.495-1.974-2.818
					c1.164-6.606,7.484-11.035,14.09-9.872c6.607,1.163,11.035,7.485,9.872,14.09C99.989,111.296,98.727,112.181,97.403,111.948z"/>
			</g>
		</g>
		<g opacity="0.3">
			<path fill="#EFEEEE" d="M44.473,75.82c-5.271-0.928-10.212,2.282-11.14,7.554l-3.375,19.17
				c-0.928,5.271,2.483,10.758,7.753,11.686l14.121,2.486l6.762-38.409L44.473,75.82z"/>
		</g>
		<g opacity="0.3">
			<path fill="#EFEEEE" d="M111.566,87.632c-5.273-0.928-9.351,2.433-10.279,7.706l-3.375,19.168
				c-0.927,5.272,1.619,10.606,6.892,11.535l13.998,2.465l6.762-38.41L111.566,87.632z"/>
		</g>
		<g>
			<g>
				<path fill="none" d="M139.961,94.736l-28.755-5.062c-3.963-0.698-7.756,1.958-8.454,5.922l-3.375,19.169
					c-0.698,3.963,1.959,7.757,5.923,8.455l28.755,5.062c3.963,0.697,7.754-1.961,8.452-5.924l3.375-19.169
					C146.581,99.224,143.925,95.433,139.961,94.736z"/>
			</g>
			<g>
				<path fill="none" d="M72.868,82.924l-28.755-5.062c-3.962-0.698-7.755,1.958-8.454,5.922l-3.375,19.169
					c-0.697,3.963,1.961,7.757,5.923,8.455l28.755,5.062c3.964,0.697,7.756-1.96,8.454-5.924l3.375-19.169
					C79.489,87.414,76.832,83.622,72.868,82.924z"/>
			</g>
			<g>
				<path fill="#586273" d="M73.712,78.13l-28.755-5.062c-6.605-1.163-12.926,3.266-14.089,9.873l-3.375,19.169
					c-1.163,6.606,3.266,12.927,9.871,14.09l28.755,5.062c6.604,1.162,12.925-3.266,14.088-9.872l3.375-19.169
					C84.746,85.613,80.318,79.293,73.712,78.13z M75.417,110.547c-0.698,3.963-4.49,6.621-8.454,5.924l-28.755-5.062
					c-3.962-0.698-6.62-4.492-5.923-8.455l3.375-19.169c0.698-3.964,4.491-6.62,8.454-5.922l28.755,5.062
					c3.964,0.698,6.621,4.49,5.923,8.454L75.417,110.547z"/>
			</g>
			<g>
				<path fill="#586273" d="M140.806,89.942L112.05,84.88c-6.607-1.163-12.926,3.265-14.09,9.873l-3.375,19.168
					c-1.164,6.607,3.264,12.928,9.872,14.09l28.755,5.062c6.605,1.163,12.926-3.265,14.089-9.872l3.375-19.169
					C151.839,97.426,147.411,91.105,140.806,89.942z M142.508,122.358c-0.698,3.963-4.489,6.621-8.452,5.924l-28.755-5.062
					c-3.963-0.697-6.621-4.492-5.923-8.455l3.375-19.169c0.698-3.964,4.491-6.62,8.454-5.922l28.755,5.062
					c3.963,0.697,6.619,4.488,5.921,8.453L142.508,122.358z"/>
			</g>
		</g>
	</g>
	<g id="calcolatrice">
		<path opacity="0.8" fill="#2980B9" enable-background="new    " d="M1185.925,36.422l-33.881-36.096
			c-2.635-2.807-7.088-2.948-9.895-0.313l-53.904,50.597c-2.812,2.635-2.947,7.087-0.312,9.895l33.882,36.096
			c2.642,2.807,7.091,2.947,9.896,0.312l53.906-50.596C1188.419,43.682,1188.561,39.229,1185.925,36.422z"/>
		<g>
			<path fill="#F7F9F8" d="M1092.245,50.61c-2.812,2.635-2.947,7.087-0.312,9.895l33.882,36.096
				c2.642,2.807,7.091,2.947,9.896,0.312l53.906-50.596c2.807-2.635,2.939-7.087,0.311-9.895l-33.881-36.096
				c-2.635-2.807-7.088-2.948-9.896-0.313L1092.245,50.61z"/>
			<g>
				
					<rect x="1128.68" y="22.06" transform="matrix(0.6844 0.7291 -0.7291 0.6844 377.2206 -817.9357)" fill="#E74C3C" width="9.345" height="9.348"/>
				
					<rect x="1138.3" y="32.249" transform="matrix(0.6844 0.7291 -0.7291 0.6844 387.6155 -821.6744)" fill="#E74C3C" width="9.347" height="9.345"/>
				
					<rect x="1147.848" y="42.548" transform="matrix(0.6844 0.7291 -0.7291 0.6844 398.1653 -825.4091)" fill="#E74C3C" width="9.349" height="9.346"/>
				
					<rect x="1157.443" y="52.774" transform="matrix(0.6844 0.7291 -0.7291 0.6844 408.6494 -829.1776)" fill="#E74C3C" width="9.349" height="9.346"/>
				
					<rect x="1118.445" y="31.589" transform="matrix(0.6845 0.729 -0.729 0.6845 380.7748 -807.3238)" fill="#E74C3C" width="9.348" height="9.345"/>
				
					<rect x="1128.085" y="41.863" transform="matrix(0.6844 0.7291 -0.7291 0.6844 391.436 -811.2225)" fill="#E74C3C" width="9.346" height="9.345"/>
				
					<rect x="1137.657" y="52.04" transform="matrix(0.6843 0.7292 -0.7292 0.6843 401.9716 -815.0694)" fill="#E74C3C" width="9.347" height="9.345"/>
				
					<rect x="1147.325" y="62.301" transform="matrix(0.6844 0.7291 -0.7291 0.6844 412.3787 -818.7734)" fill="#E74C3C" width="9.346" height="9.346"/>
				
					<rect x="1108.158" y="41.276" transform="matrix(0.6843 0.7292 -0.7292 0.6843 384.7842 -796.9335)" fill="#E74C3C" width="9.346" height="9.348"/>
				
					<rect x="1117.808" y="51.523" transform="matrix(0.6844 0.7291 -0.7291 0.6844 395.2482 -800.6891)" fill="#E74C3C" width="9.342" height="9.348"/>
				
					<rect x="1127.425" y="61.696" transform="matrix(0.6844 0.7291 -0.7291 0.6844 405.6578 -804.4555)" fill="#E74C3C" width="9.346" height="9.347"/>
				
					<rect x="1137.004" y="71.974" transform="matrix(0.6844 0.7291 -0.7291 0.6844 416.1982 -808.2161)" fill="#E74C3C" width="9.349" height="9.347"/>
				
					<rect x="1098.013" y="50.845" transform="matrix(0.6845 0.729 -0.729 0.6845 388.3745 -786.3586)" fill="#E74C3C" width="9.345" height="9.347"/>
				
					<rect x="1107.611" y="61.079" transform="matrix(0.6846 0.729 -0.729 0.6846 398.7974 -790.073)" fill="#E74C3C" width="9.345" height="9.345"/>
				
					<rect x="1114.908" y="76.458" transform="matrix(0.6844 0.7291 -0.7291 0.6844 414.7136 -795.8067)" fill="#656D78" width="23.366" height="9.346"/>
			</g>
			
				<rect x="1135.673" y="19.932" transform="matrix(0.6844 0.7291 -0.7291 0.6844 387.8682 -837.5189)" fill="#2C3E50" width="51.402" height="18.69"/>
			
				<rect x="1165.421" y="31.442" transform="matrix(0.6843 0.7292 -0.7292 0.6843 395.017 -840.1477)" fill="#ECF0F1" width="4.672" height="9.344"/>
			
				<rect x="1171.786" y="38.165" transform="matrix(0.6848 0.7287 -0.7287 0.6848 401.2654 -842.085)" fill="#ECF0F1" width="4.674" height="9.35"/>
			
				<rect x="1152.652" y="17.804" transform="matrix(0.6842 0.7293 -0.7293 0.6842 381.1486 -835.2387)" fill="#ECF0F1" width="4.676" height="9.346"/>
			
				<rect x="1159.001" y="24.667" transform="matrix(0.6844 0.7291 -0.7291 0.6844 387.865 -837.4382)" fill="#ECF0F1" width="4.671" height="9.348"/>
		</g>
	</g>
	<text id="hello" transform="matrix(1 0 0 1 30.7061 388.209)" fill="#ECF0F1" font-family="'Roboto-Black'" font-size="120">hello</text>
	<g id="subtitle">
		
			<text id="scrolldown" transform="matrix(1 0 0 1 409.5747 388.209)" fill="#F5ECD9" font-family="'Roboto-Regular'" font-size="14">scroll down</text>
		
			<text id="viewresume" transform="matrix(1 0 0 1 484.1748 388.209)" fill="#F5ECD9" font-family="'Roboto-Regular'" font-size="14">or just view my resume.</text>
	</g>
</g>
<g id="scrollthing">
	<rect x="969.689" y="-206.661" fill="#4CAEE5" width="14.722" height="170.528"/>
	<g id="moving">
		<rect id="scrollertop" x="971.3" y="-204.409" fill="#3498DB" width="11.501" height="81.576"/>
		<g id="cursor">
			<g>
				<polygon fill="#4CAEE5" points="949.01,-168.324 949.01,-167.301 944.918,-167.301 944.918,-165.409 944.866,-165.392 
					943.912,-165.392 943.912,-168.324 943.918,-168.324 944.918,-168.324 946.887,-168.324 946.887,-169.15 947.876,-169.15 
					947.876,-168.324 				"/>
				<polygon fill="#4CAEE5" points="947.851,-161.523 947.851,-159.579 946.845,-159.579 946.845,-159.581 946.845,-161.523 
					946.862,-161.523 				"/>
				<rect x="945.889" y="-170.146" fill="#4CAEE5" width="0.988" height="0.988"/>
				<polygon fill="#4CAEE5" points="946.862,-163.465 946.862,-161.523 946.845,-161.523 945.856,-161.523 945.856,-163.465 
					945.872,-163.465 				"/>
				<polygon fill="#4CAEE5" points="946.845,-159.579 946.845,-158.574 944.9,-158.574 944.9,-159.579 944.906,-159.581 
					946.845,-159.581 				"/>
				<rect x="944.892" y="-171.144" fill="#4CAEE5" width="0.988" height="0.988"/>
				<polygon fill="#4CAEE5" points="945.872,-165.409 945.872,-163.465 945.856,-163.465 944.866,-163.465 944.866,-165.392 
					944.918,-165.409 				"/>
				<polygon fill="#4CAEE5" points="944.906,-161.523 944.906,-159.581 944.9,-159.579 943.9,-159.579 943.9,-161.523 				"/>
				<rect x="943.896" y="-172.141" fill="#4CAEE5" width="0.984" height="0.988"/>
				<polygon fill="#4CAEE5" points="943.896,-161.523 943.896,-161.505 942.89,-161.505 942.89,-163.431 942.895,-163.448 
					943.896,-163.448 				"/>
				<rect x="942.898" y="-173.138" fill="#4CAEE5" width="0.985" height="0.988"/>
				<polygon fill="#4CAEE5" points="942.895,-165.375 942.895,-163.448 942.89,-163.431 941.889,-163.431 941.889,-165.357 
					941.889,-165.375 				"/>
				<rect x="941.901" y="-174.135" fill="#4CAEE5" width="0.985" height="0.988"/>
				<rect x="940.904" y="-175.134" fill="#4CAEE5" width="0.985" height="0.99"/>
				<polygon fill="#4CAEE5" points="941.889,-165.375 941.889,-165.357 940.893,-165.357 940.882,-165.4 940.882,-167.301 
					941.889,-167.301 				"/>
				<rect x="939.907" y="-176.13" fill="#4CAEE5" width="0.985" height="0.99"/>
				<polygon fill="#4CAEE5" points="940.893,-165.357 940.893,-164.412 939.903,-164.412 939.903,-165.4 940.882,-165.4 				"/>
				<rect x="938.91" y="-164.403" fill="#4CAEE5" width="0.988" height="0.99"/>
				<rect x="938.91" y="-177.127" fill="#4CAEE5" width="0.988" height="0.988"/>
				<polygon fill="#4CAEE5" points="938.905,-163.406 938.905,-162.416 937.917,-162.416 937.917,-161.607 936.911,-161.607 
					936.911,-179.061 937.917,-179.061 937.917,-178.125 938.901,-178.125 938.901,-177.136 937.917,-177.136 937.917,-163.406 				
					"/>
			</g>
		</g>
	</g>
</g>
</svg>
