<?xml version="1.0" encoding="utf-8"?>
<!-- Generator: Adobe Illustrator 19.0.0, SVG Export Plug-In . SVG Version: 6.00 Build 0)  -->
<svg version="1.1" id="svg1" xmlns="http://www.w3.org/2000/svg" xmlns:xlink="http://www.w3.org/1999/xlink" x="0px" y="0px"
	 viewBox="496 -368 1024 768" style="enable-background:new 496 -368 1024 768;" xml:space="preserve">
<g id="bg">
	<rect x="-7080.4" y="-7257.8" style="fill:#3498DB;" width="16291.8" height="14784"/>
</g>
<path id="wire1" style="opacity:0.6;fill:none;stroke:#EFEFEF;stroke-miterlimit:10;enable-background:new    ;" d="M514.1-412.9
	C560-353.2,611.7-285.1,694.6-287c65.6-1.5,127.1-41.7,193.4-31.3c67.3,10.6,116.7,71.3,167.2,111.7c53.2,42.6,112.2,66.4,172,97.3
	c46,23.8,69.2,58.5,77.5,109.3c5.8,35.4-0.1,84.2,22.4,114.6c29.1,39.5,157,60,101,134.8c-53,70.9-150.8,81.9-210.6,115.8
	c-16.1,9.1-38.5,26.3-51.5,34.8l-2,1.3"/>
<g id="introduction" xmlns:dc="http://purl.org/dc/elements/1.1/" xmlns:inkscape="http://www.inkscape.org/namespaces/inkscape" xmlns:rdf="http://www.w3.org/1999/02/22-rdf-syntax-ns#" xmlns:cc="http://creativecommons.org/ns#" xmlns:svg="http://www.w3.org/2000/svg" xmlns:sodipodi="http://sodipodi.sourceforge.net/DTD/sodipodi-0.dtd" sodipodi:docname="drawing.svg" inkscape:version="0.48.4 r9939">
	<g id="intro">
		<g id="intro1">
			<text transform="matrix(1 0 0 1 526.7058 83.1562)" style="fill:#ECF0F1; font-family:'Roboto-Thin'; font-size:30px;">I’m Albino Tonnina,</text>
			<text transform="matrix(1 0 0 1 526.7058 119.1562)" style="fill:#ECF0F1; font-family:'Roboto-Thin'; font-size:30px;">a self-taught developer.</text>
		</g>
		<g id="intro2">
			<text transform="matrix(1 0 0 1 526.2058 169.6025)" style="fill:#F5F7FA; font-family:'Roboto-Thin'; font-size:30px;">I’m Lead Product Design Engineer* @ Workshare.com, London</text>
			<text transform="matrix(1 0 0 1 518.6658 261.6025)" style="enable-background:new    ;"><tspan x="0" y="0" style="fill:#F5F7FA; font-family:'Roboto-Thin'; font-size:18px;">*a design and technology hybrid </tspan><tspan x="0" y="43.2" style="fill:#F5F7FA; font-family:'Roboto-Thin'; font-size:18px;">An engineer who has the technical knowhow </tspan><tspan x="0" y="64.8" style="fill:#F5F7FA; font-family:'Roboto-Thin'; font-size:18px;">and edge to create production code </tspan><tspan x="0" y="86.4" style="fill:#F5F7FA; font-family:'Roboto-Thin'; font-size:18px;">but who is not constrained by having to bring code into production – </tspan><tspan x="0" y="108" style="fill:#F5F7FA; font-family:'Roboto-Thin'; font-size:18px;">This allows for rapid prototyping and user testing before the full development cycle.</tspan></text>
		</g>
	</g>
	<g id="macbook">
		<path style="fill:#586273;" d="M1434.4-61.6L1434.4-61.6C1434.4-61.5,1434.4-61.6,1434.4-61.6z"/>
		<path style="opacity:0.8;fill:#2980B9;enable-background:new    ;" d="M1465.3-89l-342.2-155.9c0,0-8.2-3.7-11.9,4.5
			c-3.7,8.2,4.5,11.9,4.5,11.9l24.6,11.2c0,0-8.2-3.7-11.9,4.5c-4.7,10.3-4.7,10.2-77.5,170.2c-3.9,8.5,0.8,19,9.3,22.9l277.6,126.4
			c8.5,3.9,18.6,0.1,22.5-8.4c0,0,59.1-129.8,74.2-162.9l0,0c0.1-0.2,0.6-1.3,3.3-7.3c3.7-8.2-4.5-11.9-4.5-11.9l24.6,11.2
			c0,0,8.2,3.7,11.9-4.5C1473.5-85.3,1465.3-89,1465.3-89z"/>
		<g>
			<path style="fill:#E6E9ED;" d="M1366.2,96.3c-3.9,8.5-14,12.3-22.5,8.4L1066.1-21.7c-8.5-3.9-13.2-14.4-9.3-22.9
				c0,0,73.8-162,77.5-170.2c3.7-8.2,11.9-4.5,11.9-4.5l293,133.5c0,0,8.2,3.7,4.5,11.9C1440-65.7,1366.2,96.3,1366.2,96.3z"/>
			<path style="opacity:0.3;fill:#B7BFC7;enable-background:new    ;" d="M1440.4-66.6l-364.2-20.6c0,0,54.4-119.4,58.1-127.6
				c3.7-8.2,11.9-4.5,11.9-4.5l293,133.5c0,0,8.2,3.7,4.5,11.9C1440-65.7,1440.4-66.6,1440.4-66.6z"/>
			
				<rect x="1209.9" y="-152.9" transform="matrix(0.91 0.4145 -0.4145 0.91 54.5921 -548.4332)" style="fill:#DCE4E8;" width="161.9" height="9"/>
			
				<radialGradient id="mbplight_1_" cx="1594.9486" cy="-7680.791" r="163.2177" gradientTransform="matrix(0.9118 0.4011 9.550000e-02 -0.1842 562.0171 -2204.8022)" gradientUnits="userSpaceOnUse">
				<stop  offset="0.103" style="stop-color:#3498DB;stop-opacity:0.4"/>
				<stop  offset="0.7955" style="stop-color:#3498DB;stop-opacity:5.650000e-02"/>
				<stop  offset="0.9095" style="stop-color:#3498DB;stop-opacity:0"/>
			</radialGradient>
			<polygon id="mbplight" style="display:none;fill:url(#mbplight_1_);" points="1456.2,-39.8 1121.5,-190.3 1165.6,-230.1 
				1464.7,-93.7 			"/>
			<path style="fill:#CCD1D9;" d="M1463.8-74.6l-342.2-155.9c0,0-8.2-3.7-4.5-11.9c3.7-8.2,11.9-4.5,11.9-4.5L1471.3-91
				c0,0,8.2,3.7,4.5,11.9C1472-70.9,1463.8-74.6,1463.8-74.6z"/>
			
				<rect x="1173.3" y="-16.5" transform="matrix(0.91 0.4145 -0.4145 0.91 112.4253 -505.0111)" style="display:none;fill:#F5F7FA;stroke:#CCD1D9;stroke-miterlimit:10;" width="92.9" height="46"/>
			<g>
				
					<rect x="1167.4" y="-168.7" transform="matrix(0.9101 0.4145 -0.4145 0.9101 38.372 -502.2334)" style="fill:#3B3B3B;stroke:#C1C1C1;stroke-miterlimit:10;" width="18" height="12"/>
				
					<rect x="1158.5" y="-151.6" transform="matrix(0.91 0.4145 -0.4145 0.91 45.7014 -496.8156)" style="fill:#3B3B3B;stroke:#C1C1C1;stroke-miterlimit:10;" width="18" height="17"/>
				
					<rect x="1147.7" y="-127.3" transform="matrix(0.91 0.4145 -0.4145 0.91 55.7376 -492.5414)" style="fill:#3B3B3B;stroke:#C1C1C1;stroke-miterlimit:10;" width="30" height="19"/>
				
					<rect x="1137.1" y="-101.8" transform="matrix(0.9101 0.4145 -0.4145 0.9101 65.5347 -488.6068)" style="fill:#3B3B3B;stroke:#C1C1C1;stroke-miterlimit:10;" width="43" height="17"/>
				
					<rect x="1180.4" y="-141.5" transform="matrix(0.91 0.4145 -0.4145 0.91 51.9233 -505.1859)" style="fill:#3B3B3B;stroke:#C1C1C1;stroke-miterlimit:10;" width="19" height="17"/>
				
					<rect x="1180.9" y="-114.7" transform="matrix(0.91 0.4145 -0.4145 0.91 63.4897 -502.886)" style="fill:#3B3B3B;stroke:#C1C1C1;stroke-miterlimit:10;" width="19" height="19"/>
				
					<rect x="1182.7" y="-86.5" transform="matrix(0.91 0.4145 -0.4145 0.91 74.9183 -501.2051)" style="fill:#3B3B3B;stroke:#C1C1C1;stroke-miterlimit:10;" width="19" height="17"/>
				
					<rect x="1204.7" y="-76.7" transform="matrix(0.91 0.4145 -0.4145 0.91 80.9131 -509.254)" style="fill:#3B3B3B;stroke:#C1C1C1;stroke-miterlimit:10;" width="18" height="17"/>
				
					<rect x="1227.4" y="-66.4" transform="matrix(0.9101 0.4145 -0.4145 0.9101 87.2212 -517.6711)" style="fill:#3B3B3B;stroke:#C1C1C1;stroke-miterlimit:10;" width="18" height="17"/>
				
					<rect x="1249.3" y="-56.4" transform="matrix(0.91 0.4145 -0.4145 0.91 93.3519 -525.9011)" style="fill:#3B3B3B;stroke:#C1C1C1;stroke-miterlimit:10;" width="18" height="17"/>
				
					<rect x="1272" y="-46.1" transform="matrix(0.9101 0.4145 -0.4145 0.9101 99.6429 -534.3409)" style="fill:#3B3B3B;stroke:#C1C1C1;stroke-miterlimit:10;" width="18" height="17"/>
				
					<rect x="1292.9" y="-36.4" transform="matrix(0.9101 0.4145 -0.4145 0.9101 105.6018 -542.3317)" style="fill:#3B3B3B;stroke:#C1C1C1;stroke-miterlimit:10;" width="19" height="17"/>
				
					<rect x="1314.6" y="-21" transform="matrix(0.91 0.4145 -0.4145 0.91 115.0243 -554.9373)" style="fill:#3B3B3B;stroke:#C1C1C1;stroke-miterlimit:10;" width="43" height="17"/>
				
					<rect x="1203.7" y="-104.5" transform="matrix(0.91 0.4145 -0.4145 0.91 69.6942 -511.2317)" style="fill:#3B3B3B;stroke:#C1C1C1;stroke-miterlimit:10;" width="18" height="19"/>
				
					<rect x="1225.5" y="-94.3" transform="matrix(0.91 0.4145 -0.4145 0.91 75.9449 -519.5616)" style="fill:#3B3B3B;stroke:#C1C1C1;stroke-miterlimit:10;" width="19" height="19"/>
				
					<rect x="1248.3" y="-84.3" transform="matrix(0.9101 0.4144 -0.4144 0.9101 82.0582 -527.7432)" style="fill:#3B3B3B;stroke:#C1C1C1;stroke-miterlimit:10;" width="18" height="19"/>
				
					<rect x="1270.1" y="-74.1" transform="matrix(0.91 0.4145 -0.4145 0.91 88.3465 -536.2065)" style="fill:#3B3B3B;stroke:#C1C1C1;stroke-miterlimit:10;" width="19" height="19"/>
				
					<rect x="1292.9" y="-63.9" transform="matrix(0.91 0.4145 -0.4145 0.91 94.5783 -544.5719)" style="fill:#3B3B3B;stroke:#C1C1C1;stroke-miterlimit:10;" width="18" height="19"/>
				
					<rect x="1314.7" y="-53.8" transform="matrix(0.91 0.4145 -0.4145 0.91 100.7557 -552.8989)" style="fill:#3B3B3B;stroke:#C1C1C1;stroke-miterlimit:10;" width="19" height="19"/>
				
					<rect x="1336.9" y="-41.1" transform="matrix(0.9101 0.4145 -0.4145 0.9101 108.4878 -563.1897)" style="fill:#3B3B3B;stroke:#C1C1C1;stroke-miterlimit:10;" width="30" height="19"/>
				
					<rect x="1203.1" y="-131" transform="matrix(0.91 0.4145 -0.4145 0.91 58.2888 -513.6486)" style="fill:#3B3B3B;stroke:#C1C1C1;stroke-miterlimit:10;" width="19" height="17"/>
				
					<rect x="1225.1" y="-121.2" transform="matrix(0.91 0.4145 -0.4145 0.91 64.2886 -521.6871)" style="fill:#3B3B3B;stroke:#C1C1C1;stroke-miterlimit:10;" width="18" height="17"/>
				
					<rect x="1247.7" y="-111" transform="matrix(0.9101 0.4145 -0.4145 0.9101 70.5592 -530.1077)" style="fill:#3B3B3B;stroke:#C1C1C1;stroke-miterlimit:10;" width="18" height="17"/>
				
					<rect x="1269.6" y="-101" transform="matrix(0.9101 0.4145 -0.4145 0.9101 76.6785 -538.2795)" style="fill:#3B3B3B;stroke:#C1C1C1;stroke-miterlimit:10;" width="18" height="17"/>
				
					<rect x="1292.3" y="-90.6" transform="matrix(0.9101 0.4144 -0.4144 0.9101 82.9654 -546.6534)" style="fill:#3B3B3B;stroke:#C1C1C1;stroke-miterlimit:10;" width="18" height="17"/>
				
					<rect x="1313.1" y="-81" transform="matrix(0.9101 0.4145 -0.4145 0.9101 88.9291 -554.7258)" style="fill:#3B3B3B;stroke:#C1C1C1;stroke-miterlimit:10;" width="19" height="17"/>
				
					<rect x="1334.9" y="-65.6" transform="matrix(0.9101 0.4145 -0.4145 0.9101 98.3398 -567.3235)" style="fill:#3B3B3B;stroke:#C1C1C1;stroke-miterlimit:10;" width="43" height="17"/>
				
					<rect x="1128.3" y="-86.1" transform="matrix(0.9101 0.4145 -0.4145 0.9101 70.5232 -478.2683)" style="fill:#3B3B3B;stroke:#C1C1C1;stroke-miterlimit:10;" width="18" height="19"/>
				
					<rect x="1150.1" y="-75.9" transform="matrix(0.91 0.4145 -0.4145 0.91 76.7849 -486.6447)" style="fill:#3B3B3B;stroke:#C1C1C1;stroke-miterlimit:10;" width="19" height="19"/>
				
					<rect id="spacebar" x="1168.5" y="-45.5" transform="matrix(0.91 0.4145 -0.4145 0.91 95.4031 -511.6253)" style="fill:#3B3B3B;stroke:#C1C1C1;stroke-miterlimit:10;" width="115.9" height="19"/>
				
					<rect x="1282.9" y="-15.5" transform="matrix(0.9101 0.4145 -0.4145 0.9101 113.7368 -536.2181)" style="fill:#3B3B3B;stroke:#C1C1C1;stroke-miterlimit:10;" width="19" height="19"/>
				
					<rect x="1305.7" y="-5.2" transform="matrix(0.9101 0.4145 -0.4145 0.9101 120.0708 -544.7275)" style="fill:#3B3B3B;stroke:#C1C1C1;stroke-miterlimit:10;" width="19" height="19"/>
				
					<rect x="1328.4" y="5.1" transform="matrix(0.9101 0.4145 -0.4145 0.9101 126.336 -553.0356)" style="fill:#3B3B3B;stroke:#C1C1C1;stroke-miterlimit:10;" width="18" height="19"/>
				
					<rect x="1189.3" y="-158.5" transform="matrix(0.91 0.4145 -0.4145 0.91 44.6343 -510.6579)" style="fill:#3B3B3B;stroke:#C1C1C1;stroke-miterlimit:10;" width="19" height="12"/>
				
					<rect x="1212" y="-148.2" transform="matrix(0.9101 0.4145 -0.4145 0.9101 50.9225 -519.0634)" style="fill:#3B3B3B;stroke:#C1C1C1;stroke-miterlimit:10;" width="19" height="12"/>
				
					<rect x="1233.9" y="-138.4" transform="matrix(0.91 0.4145 -0.4145 0.91 56.93 -527.1062)" style="fill:#3B3B3B;stroke:#C1C1C1;stroke-miterlimit:10;" width="18" height="12"/>
				
					<rect x="1256.6" y="-128" transform="matrix(0.91 0.4145 -0.4145 0.91 63.2876 -535.5879)" style="fill:#3B3B3B;stroke:#C1C1C1;stroke-miterlimit:10;" width="18" height="12"/>
				
					<rect x="1278.5" y="-118.1" transform="matrix(0.9101 0.4145 -0.4145 0.9101 69.3415 -543.7171)" style="fill:#3B3B3B;stroke:#C1C1C1;stroke-miterlimit:10;" width="18" height="12"/>
				
					<rect x="1301.2" y="-107.7" transform="matrix(0.9101 0.4145 -0.4145 0.9101 75.6952 -552.1987)" style="fill:#3B3B3B;stroke:#C1C1C1;stroke-miterlimit:10;" width="18" height="12"/>
				
					<rect x="1322.2" y="-98" transform="matrix(0.9101 0.4145 -0.4145 0.9101 81.6292 -560.2241)" style="fill:#3B3B3B;stroke:#C1C1C1;stroke-miterlimit:10;" width="19" height="12"/>
				
					<rect x="1344.9" y="-87.6" transform="matrix(0.91 0.4145 -0.4145 0.91 88.011 -568.7455)" style="fill:#3B3B3B;stroke:#C1C1C1;stroke-miterlimit:10;" width="19" height="12"/>
				
					<rect x="1367.6" y="-77.3" transform="matrix(0.91 0.4146 -0.4146 0.91 94.3266 -577.1755)" style="fill:#3B3B3B;stroke:#C1C1C1;stroke-miterlimit:10;" width="18" height="12"/>
			</g>
		</g>
	</g>
	<g id="bevanda">
		<circle style="opacity:0.8;fill:#2980B9;enable-background:new    ;" cx="915.4" cy="-231.1" r="50.6"/>
		<circle style="fill:#E6E9ED;" cx="920.4" cy="-233.1" r="50.6"/>
		<path style="fill:#E74C3C;" d="M920.4-274.8c23,0,41.7,18.7,41.7,41.7s-18.7,41.7-41.7,41.7c-10.4,0-19.9-3.8-27.2-10.1
			c-8.9-7.6-14.5-19-14.5-31.6C878.7-256.1,897.4-274.8,920.4-274.8z"/>
		<path id="linecover1" style="fill:#E6E9ED;" d="M920.4-275.8c23.6,0,42.7,19.1,42.7,42.7s-19.1,42.7-42.7,42.7
			c-10.6,0-20.3-3.9-27.8-10.3c-9.1-7.8-14.9-19.4-14.9-32.4C877.7-256.7,896.8-275.8,920.4-275.8z"/>
		
			<ellipse transform="matrix(-0.1184 0.993 -0.993 -0.1184 814.1959 -1125.1318)" style="fill:#D8D8DA;" cx="906.6" cy="-201.1" rx="7.7" ry="11.6"/>
		<polygon style="fill:#CCD1D9;" points="857.2,-210.9 898.1,-203.9 897.6,-200.4 856.3,-203.2 		"/>
		
			<ellipse transform="matrix(-0.1184 0.993 -0.993 -0.1184 814.1938 -1125.1169)" style="fill:#AAB2BD;" cx="906.6" cy="-201.1" rx="6.4" ry="9.6"/>
		<path style="fill:#FFFFFF;" d="M893.1-276l9.7,12.5c1.6,2.1,1.2,5-0.8,6.7c-2.1,1.6-5,1.2-6.6-0.8l-9.7-12.5
			c-1.6-2.1-1.2-5,0.8-6.7C888.5-278.4,891.5-278,893.1-276z"/>
		<circle style="fill:#FFFFFF;" cx="920.4" cy="-233.1" r="34.8"/>
		<circle style="fill:#E6E7E8;" cx="920.4" cy="-233.1" r="31.3"/>
		<circle style="fill:#49433C;" cx="920.4" cy="-233.1" r="29.6"/>
		<path style="fill:#363532;" d="M899.2-216.6c9.1,11.7,26,13.8,37.7,4.7c0.7-0.5,0.8-1.5,0.3-2.2c-0.5-0.7-1.5-0.8-2.2-0.3
			c-0.3,0.2-0.6,0.4-0.9,0.6c-0.1,0.1-0.1,0.1-0.2,0.2c-0.3,0.2-0.6,0.4-0.8,0.5c-0.1,0.1-0.2,0.1-0.3,0.2c-0.2,0.1-0.4,0.2-0.6,0.3
			c-0.1,0.1-0.3,0.1-0.4,0.2c-0.2,0.1-0.5,0.2-0.7,0.4c-0.2,0.1-0.4,0.2-0.5,0.3c-0.1,0.1-0.3,0.1-0.4,0.2c-0.2,0.1-0.3,0.2-0.5,0.2
			c-0.2,0.1-0.5,0.2-0.7,0.3c-0.2,0.1-0.3,0.1-0.5,0.2c-0.2,0.1-0.3,0.1-0.5,0.2c-0.1,0.1-0.3,0.1-0.4,0.1c-0.3,0.1-0.6,0.2-0.9,0.2
			c-0.1,0-0.2,0.1-0.3,0.1c-0.2,0.1-0.5,0.1-0.8,0.2c-0.1,0-0.2,0-0.2,0.1c-0.3,0.1-0.7,0.1-1,0.2c0,0,0,0-0.1,0
			c-0.2,0-0.4,0.1-0.6,0.1c-0.1,0-0.3,0-0.4,0.1c0,0-0.1,0-0.1,0c-0.7,0.1-1.5,0.1-2.2,0.1c0,0,0,0,0,0c-0.7,0-1.5,0-2.2-0.1
			c0,0-0.1,0-0.1,0c-0.3,0-0.7-0.1-1-0.1c0,0,0,0-0.1,0c-0.3,0-0.6-0.1-0.9-0.1c-0.1,0-0.3,0-0.4-0.1c-0.2,0-0.4-0.1-0.5-0.1
			c-0.6-0.1-1.3-0.3-1.9-0.5c0,0,0,0,0,0c-3.4-1-6.6-2.8-9.2-5.2c0,0,0,0-0.1,0c-0.1-0.1-0.3-0.3-0.4-0.4c-0.1-0.1-0.2-0.2-0.4-0.4
			c-0.1-0.1-0.2-0.2-0.4-0.4c-0.2-0.2-0.4-0.4-0.6-0.7c-0.1-0.1-0.1-0.2-0.2-0.2c-0.2-0.3-0.5-0.5-0.7-0.8c-0.2-0.3-0.4-0.6-0.6-0.9
			c-0.1-0.1-0.1-0.2-0.2-0.3c-0.2-0.2-0.3-0.5-0.5-0.7c-0.1-0.1-0.2-0.3-0.3-0.4c-0.1-0.1-0.2-0.3-0.3-0.4c-0.1-0.2-0.2-0.4-0.3-0.5
			c0,0,0,0,0-0.1c-1.7-3.2-2.6-6.7-2.8-10.3c0,0,0,0,0,0c0-0.7,0-1.3,0-2c0-0.2,0-0.4,0-0.5c0-0.1,0-0.3,0-0.4c0-0.3,0.1-0.6,0.1-1
			c0,0,0,0,0-0.1c0-0.3,0.1-0.7,0.1-1c0,0,0-0.1,0-0.1c0.1-0.7,0.3-1.4,0.5-2.2c0,0,0,0,0,0c0.2-0.7,0.4-1.4,0.7-2.1c0,0,0,0,0-0.1
			c0.1-0.1,0.1-0.3,0.2-0.4c0.1-0.2,0.2-0.4,0.2-0.6c0,0,0,0,0-0.1c0.1-0.3,0.3-0.6,0.4-0.9c0-0.1,0.1-0.1,0.1-0.2
			c0.1-0.2,0.2-0.5,0.4-0.7c0.1-0.1,0.1-0.2,0.2-0.3c0.1-0.3,0.3-0.5,0.4-0.8c0.1-0.1,0.2-0.3,0.3-0.4c0.1-0.1,0.2-0.3,0.3-0.4
			c0.1-0.1,0.2-0.3,0.3-0.4c0.2-0.2,0.3-0.4,0.5-0.6c0.1-0.1,0.2-0.3,0.3-0.4c0.1-0.1,0.2-0.2,0.3-0.3c0.1-0.2,0.3-0.3,0.4-0.5
			c0.2-0.2,0.3-0.4,0.5-0.6c0.1-0.1,0.2-0.2,0.3-0.3c0.2-0.2,0.3-0.3,0.5-0.5c0.1-0.1,0.1-0.2,0.2-0.2c0.2-0.2,0.5-0.4,0.7-0.7
			c0.1-0.1,0.1-0.1,0.2-0.2c0.3-0.2,0.5-0.5,0.8-0.7c0.7-0.5,0.8-1.5,0.3-2.2c-0.5-0.7-1.5-0.8-2.2-0.3
			C892.2-245.2,890.1-228.3,899.2-216.6z"/>
		<path style="fill:#363532;" d="M909.1-255.8c0.3,0.8,1.3,1.2,2.1,0.8c0.2-0.1,0.4-0.2,0.6-0.3c0,0,0.1,0,0.1,0c0,0,0,0,0,0
			c0.2-0.1,0.4-0.1,0.6-0.2c0,0,0,0,0,0c0.1,0,0.1,0,0.2-0.1c0,0,0,0,0,0c0.2-0.1,0.4-0.1,0.6-0.2c0,0,0,0,0,0c0,0,0,0,0,0
			c0,0,0,0,0,0c0.4-0.1,0.9-0.3,1.4-0.4c0.1,0,0.1,0,0.2,0c0.4-0.1,0.9-0.2,1.3-0.3c0.1,0,0.2,0,0.3-0.1c-0.1,0-0.1,0-0.2,0
			c0.1,0,0.1,0,0.2,0c0,0,0,0,0,0c0.1,0,0.3,0,0.4-0.1c0,0,0,0,0,0c0.1,0,0.1,0,0.1,0c0,0,0,0,0,0c-0.1,0-0.1,0-0.1,0
			c0.1,0,0.1,0,0.2,0c0.6-0.1,1.1,0.2,1.4,0.6c0.2,0.2,0.3,0.5,0.3,0.8c0.1,0.9-0.5,1.7-1.3,1.8c0,0,0,0,0,0c0,0,0,0,0,0
			c-1.3,0.2-2.6,0.5-3.9,0.9c0,0,0,0,0,0c0,0,0,0-0.1,0c0,0,0,0,0,0c-0.4,0.1-0.8,0.3-1.2,0.5c-0.8,0.3-1.1,1.3-0.8,2.1
			c0.3,0.8,1.3,1.2,2.1,0.8c2.2-0.9,4.5-1.4,6.9-1.4c0.1,0,0.1,0,0.2,0c0.2,0,0.3,0,0.5,0c0.1,0,0.2,0,0.3,0c0.1,0,0.3,0,0.5,0
			c0.1,0,0.2,0,0.3,0c0.1,0,0.2,0,0.3,0c0,0,0,0,0,0c0,0,0,0,0.1,0c0.4,0.1,0.7,0.3,0.9,0.6c0.2,0.3,0.4,0.7,0.3,1.2
			c-0.1,0.9-0.9,1.5-1.8,1.4c-2.5-0.3-5,0-7.2,1l-0.1,0c-0.8,0.3-1.2,1.3-0.8,2.1c0.3,0.8,1.3,1.2,2.1,0.8c4.6-1.9,10-0.5,13,3.4
			c3.1,4,3.1,9.5,0.1,13.5c-0.5,0.7-0.4,1.7,0.3,2.2c0.7,0.5,1.7,0.4,2.2-0.3l0.2-0.2c1.4-1.9,2.3-4.2,2.6-6.6
			c0.1-0.9,0.9-1.5,1.8-1.4c0.4,0.1,0.8,0.3,1.1,0.6c0.2,0.3,0.4,0.7,0.3,1.1c0,0,0,0,0,0.1c0,0,0,0,0,0c0,0.1,0,0.2-0.1,0.3
			c0,0.1,0,0.2,0,0.3c0,0.1-0.1,0.3-0.1,0.4c0,0.1,0,0.2-0.1,0.3c0,0.2-0.1,0.3-0.1,0.5c0,0.1,0,0.1,0,0.2c-0.6,2.3-1.6,4.4-3,6.3
			c-0.5,0.7-0.4,1.7,0.3,2.2c0.7,0.5,1.7,0.4,2.2-0.3c0.3-0.4,0.5-0.7,0.8-1.1c0,0,0,0,0,0c0,0,0,0,0-0.1c0,0,0,0,0,0
			c0.7-1.1,1.4-2.3,1.9-3.5c0,0,0,0,0,0c0,0,0,0,0,0c0.3-0.8,1.2-1.2,2.1-0.9c0.3,0.1,0.5,0.3,0.6,0.5c0.3,0.4,0.4,1,0.2,1.5
			c0,0.1,0,0.1-0.1,0.2c-0.1,0.2-0.2,0.4-0.2,0.6c0,0.1-0.1,0.2-0.1,0.3c-0.1,0.2-0.2,0.4-0.3,0.6c0,0.1-0.1,0.2-0.1,0.2
			c-0.1,0.2-0.2,0.4-0.3,0.6c0,0.1-0.1,0.1-0.1,0.2c-0.1,0.3-0.3,0.5-0.5,0.8c0,0,0,0,0,0.1c0,0,0,0,0,0c-0.1,0.2-0.2,0.4-0.4,0.6
			c0,0-0.1,0.1-0.1,0.1c0,0,0,0,0,0c-0.1,0.1-0.1,0.2-0.2,0.3c-0.1,0.1-0.1,0.1-0.1,0.2c0,0,0,0-0.1,0.1c-0.1,0.2-0.3,0.4-0.4,0.6
			c-0.5,0.7-0.4,1.7,0.3,2.2c0.7,0.5,1.7,0.4,2.2-0.3c7.3-9.7,7.3-23.1-0.2-32.7c-7.4-9.6-20.5-13-31.6-8.3
			C909.2-257.5,908.8-256.6,909.1-255.8z M942.1-223.4c0,0.1-0.1,0.2-0.1,0.2C942-223.3,942-223.4,942.1-223.4z M941.7-222.6
			c0,0.1-0.1,0.1-0.1,0.2C941.6-222.4,941.6-222.5,941.7-222.6z M941.2-221.7c0,0-0.1,0.1-0.1,0.1
			C941.1-221.6,941.2-221.6,941.2-221.7z M942.3-224.1c0,0,0-0.1,0.1-0.1C942.4-224.2,942.4-224.2,942.3-224.1
			C942.4-224.1,942.3-224.1,942.3-224.1z"/>
		<path style="fill:#363532;" d="M939.3-218.7C939.3-218.8,939.3-218.8,939.3-218.7c0.2-0.2,0.3-0.4,0.4-0.6
			C939.6-219.1,939.4-218.9,939.3-218.7z"/>
	</g>
	<g id="mouse">
		<path style="opacity:0.8;fill:#2980B9;enable-background:new    ;" d="M1471.6,116.3C1471.6,116.3,1471.6,116.2,1471.6,116.3
			c-9.8-7.2-23.6-5.2-30.9,4.6c0,0-0.1,0.1-0.1,0.1l-0.1,0.2l-24.6,33.3c-0.1,0.1-0.2,0.3-0.2,0.4l-1.3,1.8l0,0
			c-7.2,9.9-5,23.5,4.7,30.7c9.8,7.3,23.7,5.1,30.9-4.6l26.2-35.5C1483.5,137.4,1481.4,123.5,1471.6,116.3z"/>
		<g>
			<g>
				<path style="fill:#CCD1D9;" d="M1446.5,120.1c0,0-0.1,0.1-0.1,0.1l-0.1,0.2l-24.6,33.3c-0.1,0.1-0.1,0.2-0.2,0.3l-1.2,1.6l0,0
					c-7.3,10.1-5.1,23.6,4.7,30.9l52.4-70.9C1467.6,108.3,1453.8,110.4,1446.5,120.1z"/>
				<path style="fill:#E6E9ED;" d="M1477.4,115.6C1477.4,115.6,1477.4,115.6,1477.4,115.6l-52.5,70.9c9.8,7.3,23.7,5.2,30.9-4.6
					l-0.1-0.1c0,0,0,0,0,0s0,0,0,0l0.1,0.1l26.2-35.4C1489.3,136.7,1487.2,122.8,1477.4,115.6z"/>
			</g>
		</g>
	</g>
	<g id="iphone">
		<path style="opacity:0.8;fill:#2980B9;enable-background:new    ;" d="M1456.6-184.5l38.5-44.1c3-3.5,2.7-8.8-0.8-11.8l-88.1-77
			c-3.5-3-8.8-2.7-11.8,0.8l-38.5,44.1c-3,3.5-2.7,8.8,0.8,11.8l88.1,77C1448.2-180.7,1453.5-181.1,1456.6-184.5z"/>
		<path style="fill:#434A54;" d="M1399.9-317.7l-38.5,44.1c-3,3.5-2.7,8.8,0.8,11.8l88.1,77c3.5,3,8.8,2.7,11.8-0.8l38.5-44.1
			c3-3.5,2.7-8.8-0.8-11.8l-88.1-77C1408.2-321.5,1402.9-321.2,1399.9-317.7z"/>
		<path style="fill:#586273;" d="M1488-240.7l-38.5,44.1l-81.8-71.5c0,0,0,0,0,0l38.5-44c0,0,0,0,0,0L1488-240.7z"/>
		
			<rect x="1469" y="-215.1" transform="matrix(0.658 -0.753 0.753 0.658 664.9381 1038.0022)" style="fill:#434A54;" width="12.5" height="4.2"/>
		<path style="fill:#F7F9F8;" d="M1367.7-268.1C1367.7-268.1,1367.7-268.1,1367.7-268.1l81.8,71.5l38.5-44.1l-81.8-71.5c0,0,0,0,0,0
			L1367.7-268.1z"/>
		<path style="fill:#44C650;" d="M1431.6-273.7l-5.5-2.6c-0.6-0.3-1.5-0.3-2.1,0l-9.2,4.3c0,0,0,0,0,0l-1.3-1.1
			c-0.4-2.2-1.7-4.6-3.9-6.4l-1.7-1.5c-3-2.6-7.5-2.5-10,0.4l0,0l0,0l0,0c-2.5,2.9-2.1,7.3,0.9,10l1.7,1.5c2.1,1.9,4.6,2.9,6.9,3
			l1.3,1.1c0,0,0,0,0,0l-3.1,9.7c-0.2,0.6,0,1.5,0.3,2.1l3.3,5.1c0.3,0.5,1,0.6,1.4,0.1l10.6-12.1l0,0l10.6-12.1
			C1432.3-272.8,1432.1-273.4,1431.6-273.7z"/>
		
			<rect x="1414.8" y="-254.6" transform="matrix(0.6579 -0.7531 0.7531 0.6579 678.5095 993.4341)" style="fill:#DCE4E8;" width="35.9" height="9"/>
		
			<rect x="1425.1" y="-245.6" transform="matrix(0.658 -0.753 0.753 0.658 675.0806 1004.1068)" style="fill:#DCE4E8;" width="35.9" height="9"/>
		
			<rect x="1443.9" y="-236.8" transform="matrix(0.658 -0.753 0.753 0.658 671.7894 1014.6087)" style="fill:#DCE4E8;" width="17.9" height="9"/>
		<circle style="fill:#586273;" cx="1433.9" cy="-231" r="1.7"/>
		<circle style="fill:#586273;" cx="1439.8" cy="-237.7" r="1.7"/>
		<circle style="fill:#586273;" cx="1436.9" cy="-234.3" r="1.7"/>
		<path style="fill:#586273;" d="M1443.9-242.4c0.7,0.6,0.8,1.7,0.1,2.4c-0.6,0.7-1.7,0.8-2.4,0.2c-0.7-0.6-0.8-1.7-0.1-2.4
			C1442.1-242.9,1443.2-243,1443.9-242.4z"/>
		<circle style="fill:#586273;" cx="1423.8" cy="-239.8" r="1.7"/>
		<circle style="fill:#586273;" cx="1435.6" cy="-253.3" r="1.7"/>
		<circle style="fill:#586273;" cx="1429.7" cy="-246.6" r="1.7"/>
		<circle style="fill:#586273;" cx="1426.8" cy="-243.2" r="1.7"/>
		<circle style="fill:#586273;" cx="1432.7" cy="-249.9" r="1.7"/>
		
			<rect x="1448.6" y="-233.4" transform="matrix(0.6578 -0.7532 0.7532 0.6578 672.0408 1015.0758)" style="fill:#E74C3C;" width="9" height="2.7"/>
		<path style="fill:none;" d="M1399.9-317.7l-29.9,34.2l113.6,73.3l17.1-19.5c3-3.5,2.7-8.8-0.8-11.8l-88.1-77
			C1408.2-321.5,1402.9-321.2,1399.9-317.7z"/>
	</g>
	<g id="matita1">
		<polygon style="opacity:0.8;fill:#2980B9;enable-background:new    ;" points="1613.8,-48.7 1551.8,-176.7 1546.5,-174.1 
			1541.1,-171.6 1603.2,-43.5 1608.5,-46.1 		"/>
		<polygon style="fill:#2980B9;" points="1617.6,-30.7 1613.8,-48.7 1603.2,-43.5 1614.9,-29.4 1618.9,-24.8 		"/>
		<g>
			<g>
				<polygon style="fill:#58585C;" points="1612.6,-47.2 1553.2,-169.9 1550.6,-175.2 1545.2,-172.7 1607.3,-44.6 				"/>
				<polygon style="fill:#58585C;" points="1612.6,-47.2 1617.9,-49.8 1555.9,-177.8 1550.6,-175.2 1553.2,-169.9 				"/>
			</g>
			<g>
				<polygon style="fill:#464E5C;" points="1622.9,-25.8 1621.7,-31.8 1619,-30.5 				"/>
				<polygon style="fill:#F7D39A;" points="1621.7,-31.8 1617.9,-49.8 1607.3,-44.6 1619,-30.5 				"/>
			</g>
			<g>
				
					<rect x="1552.3" y="-161.4" transform="matrix(-0.8998 0.4362 -0.4362 -0.8998 2890.9885 -982.1757)" style="fill:#DA4453;" width="11.9" height="4.4"/>
			</g>
		</g>
	</g>
	<g id="foglio2">
		<g>
			<g style="opacity:0.8;">
				<g>
					<polygon style="fill:#2980B9;" points="661.4,-360 637.3,-171.5 788.1,-152.2 812.2,-340.8 813.8,-353.3 663.1,-372.6 					"/>
				</g>
			</g>
			<g>
				<g>
					
						<rect x="652.3" y="-353.9" transform="matrix(0.9919 0.1268 -0.1268 0.9919 -26.9476 -94.4412)" style="fill:#EBF4FF;" width="151.9" height="190"/>
				</g>
			</g>
			<g>
				<g>
					
						<rect x="665.2" y="-365.8" transform="matrix(0.9919 0.1268 -0.1268 0.9919 -39.5934 -96.8823)" style="fill:#44C650;" width="151.9" height="12.7"/>
				</g>
			</g>
			<g>
				<g>
					
						<rect x="699.3" y="-287.4" transform="matrix(-0.9919 -0.1268 0.1268 -0.9919 1441.1478 -470.442)" style="fill:none;" width="12.7" height="12.7"/>
				</g>
			</g>
			<g>
				<g>
					
						<rect x="721.7" y="-285" transform="matrix(0.9919 0.1267 -0.1267 0.9919 -29.867 -94.1136)" style="fill:none;" width="6.3" height="6.3"/>
				</g>
			</g>
			<g>
				<g>
					
						<rect x="676.4" y="-301.5" transform="matrix(0.9919 0.1268 -0.1268 0.9919 -32.3215 -92.1927)" style="fill:#434A54;" width="63.2" height="3.2"/>
				</g>
			</g>
			<g>
				<g>
					
						<rect x="745.5" y="-294.1" transform="matrix(0.9919 0.1268 -0.1268 0.9919 -30.9098 -99.5073)" style="fill:#3498DB;" width="41.1" height="3.2"/>
				</g>
			</g>
			<g>
				<g>
					
						<rect x="669.1" y="-292.2" transform="matrix(0.9919 0.1268 -0.1268 0.9919 -30.9583 -95.0107)" style="fill:#3498DB;" width="123.4" height="3.2"/>
				</g>
			</g>
			<g>
				<g>
					
						<rect x="674.9" y="-291" transform="matrix(0.9919 0.1268 -0.1268 0.9919 -31.1217 -89.9215)" style="fill:#3498DB;" width="31.6" height="3.2"/>
				</g>
			</g>
			<g>
				<g>
					
						<rect x="712.6" y="-287.3" transform="matrix(0.9919 0.1269 -0.1269 0.9919 -30.4517 -93.5484)" style="fill:#434A54;" width="12.7" height="3.2"/>
				</g>
			</g>
			<g>
				<g>
					
						<rect x="731.3" y="-282.4" transform="matrix(0.9919 0.1268 -0.1268 0.9919 -29.4829 -98.4125)" style="fill:#3498DB;" width="53.8" height="3.2"/>
				</g>
			</g>
			<g>
				<g>
					
						<rect x="659" y="-241.9" transform="matrix(0.9919 0.1268 -0.1268 0.9919 -25.0315 -87.5166)" style="fill:#434A54;" width="31.6" height="3.2"/>
				</g>
			</g>
			<g>
				<g>
					
						<rect x="657.5" y="-230.2" transform="matrix(0.9919 0.1269 -0.1269 0.9919 -23.6174 -86.4892)" style="fill:#434A54;" width="19" height="3.2"/>
				</g>
			</g>
			<g>
				<g>
					
						<rect x="682.6" y="-227.4" transform="matrix(0.9919 0.1269 -0.1269 0.9919 -23.0838 -89.2566)" style="fill:#434A54;" width="12.7" height="3.2"/>
				</g>
			</g>
			<g>
				<g>
					
						<rect x="658.3" y="-236.1" transform="matrix(0.9919 0.1268 -0.1268 0.9919 -24.3183 -86.9695)" style="fill:#434A54;" width="25.3" height="3.2"/>
				</g>
			</g>
			<g>
				<g>
					
						<rect x="656.6" y="-223.1" transform="matrix(0.9919 0.1268 -0.1268 0.9919 -22.6617 -87.0591)" style="fill:#434A54;" width="31.6" height="3.2"/>
				</g>
			</g>
			<g>
				<g>
					
						<rect x="661.8" y="-277.8" transform="matrix(0.9919 0.1269 -0.1269 0.9919 -27.7348 -88.5139)" style="fill:#CCD1D9;" width="38" height="31.7"/>
				</g>
			</g>
			<g>
				<g>
					
						<rect x="704.5" y="-223" transform="matrix(0.9919 0.1268 -0.1268 0.9919 -22.2315 -93.5302)" style="fill:#434A54;" width="38" height="3.2"/>
				</g>
			</g>
			<g>
				<g>
					
						<rect x="703.8" y="-218.3" transform="matrix(0.9919 0.1268 -0.1268 0.9919 -21.7466 -91.7981)" style="fill:#434A54;" width="12.7" height="3.2"/>
				</g>
			</g>
			<g>
				<g>
					
						<rect x="722.7" y="-216.3" transform="matrix(0.9919 0.127 -0.127 0.9919 -21.3889 -93.9197)" style="fill:#434A54;" width="6.3" height="3.2"/>
				</g>
			</g>
			<g>
				<g>
					
						<rect x="705.4" y="-230.5" transform="matrix(0.9919 0.1268 -0.1268 0.9919 -23.252 -92.4997)" style="fill:#434A54;" width="19" height="3.2"/>
				</g>
			</g>
			<g>
				<g>
					
						<rect x="730.5" y="-227.6" transform="matrix(0.9919 0.1268 -0.1268 0.9919 -22.7162 -95.2622)" style="fill:#434A54;" width="12.7" height="3.2"/>
				</g>
			</g>
			<g>
				<g>
					
						<rect x="706.1" y="-235.9" transform="matrix(0.9919 0.1268 -0.1268 0.9919 -23.8875 -93.4402)" style="fill:#434A54;" width="31.6" height="3.2"/>
				</g>
			</g>
			<g>
				<g>
					
						<rect x="708.9" y="-271.8" transform="matrix(0.9919 0.1268 -0.1268 0.9919 -26.577 -94.3696)" style="fill:#CCD1D9;" width="38" height="31.7"/>
				</g>
			</g>
			<g>
				<g>
					
						<rect x="753.2" y="-229.5" transform="matrix(0.9919 0.1268 -0.1268 0.9919 -22.6674 -99.759)" style="fill:#434A54;" width="38" height="3.2"/>
				</g>
			</g>
			<g>
				<g>
					
						<rect x="751.7" y="-217.7" transform="matrix(0.9919 0.1269 -0.1269 0.9919 -21.2489 -98.74)" style="fill:#434A54;" width="25.3" height="3.2"/>
				</g>
			</g>
			<g>
				<g>
					
						<rect x="753.5" y="-224.8" transform="matrix(0.9919 0.1268 -0.1268 0.9919 -22.1748 -98.154)" style="fill:#434A54;" width="12.7" height="3.2"/>
				</g>
			</g>
			<g>
				<g>
					
						<rect x="750.9" y="-211.9" transform="matrix(0.9919 0.1268 -0.1268 0.9919 -20.5249 -98.1155)" style="fill:#434A54;" width="19" height="3.2"/>
				</g>
			</g>
			<g>
				<g>
					
						<rect x="776" y="-209" transform="matrix(0.9919 0.1268 -0.1268 0.9919 -19.9919 -100.8804)" style="fill:#434A54;" width="12.7" height="3.2"/>
				</g>
			</g>
			<g>
				<g>
					
						<rect x="771.3" y="-222" transform="matrix(0.9919 0.1269 -0.1269 0.9919 -21.6578 -100.8688)" style="fill:#434A54;" width="19" height="3.2"/>
				</g>
			</g>
			<g>
				<g>
					
						<rect x="756" y="-265.7" transform="matrix(0.9919 0.1268 -0.1268 0.9919 -25.4323 -100.2931)" style="fill:#CCD1D9;" width="38" height="31.6"/>
				</g>
			</g>
			<g>
				<g>
					
						<rect x="669.1" y="-321.8" transform="matrix(0.9919 0.1268 -0.1268 0.9919 -34.0641 -95.815)" style="fill:#CCD1D9;" width="132.9" height="12.7"/>
				</g>
			</g>
			<g>
				<g>
					<g>
						
							<rect x="676.1" y="-323.8" transform="matrix(0.9919 0.1268 -0.1268 0.9919 -35.3444 -89.1771)" style="fill:#E5E5E5;" width="13.3" height="3.2"/>
					</g>
				</g>
			</g>
			<g>
				<g>
					<g>
						
							<rect x="695.8" y="-325.2" transform="matrix(0.9919 0.1268 -0.1268 0.9919 -34.7037 -92.4952)" style="fill:#434A54;" width="26.6" height="12.7"/>
					</g>
				</g>
				<g>
					<g>
						
							<rect x="702.5" y="-320.4" transform="matrix(0.9919 0.1268 -0.1268 0.9919 -34.7053 -92.4955)" style="fill:#E5E5E5;" width="13.3" height="3.2"/>
					</g>
				</g>
			</g>
			<g>
				<g>
					<g>
						
							<rect x="728.9" y="-317" transform="matrix(0.9919 0.1269 -0.1269 0.9919 -34.0806 -95.8875)" style="fill:#E5E5E5;" width="13.3" height="3.2"/>
					</g>
				</g>
			</g>
			<g>
				<g>
					<g>
						
							<rect x="755.3" y="-313.7" transform="matrix(0.9919 0.1268 -0.1268 0.9919 -33.4223 -99.1308)" style="fill:#E5E5E5;" width="13.3" height="3.2"/>
					</g>
				</g>
			</g>
			<g>
				<g>
					<g>
						
							<rect x="781.6" y="-310.3" transform="matrix(0.9919 0.1268 -0.1268 0.9919 -32.7823 -102.449)" style="fill:#E5E5E5;" width="13.3" height="3.2"/>
					</g>
				</g>
			</g>
			<g>
				<g>
					<g>
						
							<rect x="674.8" y="-339.1" transform="matrix(0.9919 0.1268 -0.1268 0.9919 -37.0441 -93.113)" style="fill:#CCD1D9;" width="76" height="3.2"/>
					</g>
				</g>
				<g>
					<g>
						
							<rect x="675.9" y="-349" transform="matrix(0.9919 0.1268 -0.1268 0.9919 -38.5195 -89.7108)" style="fill:#CCD1D9;" width="19" height="3.2"/>
					</g>
				</g>
			</g>
			<g>
				<g>
					
						<rect x="653" y="-202.4" transform="matrix(0.9919 0.1268 -0.1268 0.9919 -18.2514 -92.7622)" style="fill:#CCD1D9;" width="132.9" height="25.3"/>
				</g>
			</g>
		</g>
	</g>
	<g id="foglio1">
		
			<rect x="489.3" y="-373.9" transform="matrix(0.9495 -0.3137 0.3137 0.9495 111.1223 164.9841)" style="fill:#2980B9;" width="157.9" height="222.2"/>
		<g>
			<g>
				<g>
					<g>
						
							<rect x="459.2" y="-341.1" transform="matrix(0.3137 0.9495 -0.9495 0.3137 142.5273 -721.4368)" style="fill:#F7F9F8;" width="222.2" height="157.9"/>
					</g>
				</g>
			</g>
			<g>
				
					<rect x="564.8" y="-319.2" transform="matrix(0.9495 -0.3137 0.3137 0.9495 129.1297 170.1571)" style="fill:#B7BFC7;" width="57" height="6"/>
				
					<rect x="567.9" y="-309.7" transform="matrix(0.9495 -0.3137 0.3137 0.9495 126.3107 171.621)" style="fill:#DCE4E8;" width="57" height="6"/>
				
					<rect x="571.1" y="-300.2" transform="matrix(0.9495 -0.3137 0.3137 0.9495 123.4896 173.0846)" style="fill:#DCE4E8;" width="57" height="6"/>
				
					<rect x="574.2" y="-290.7" transform="matrix(0.9495 -0.3137 0.3137 0.9495 120.6694 174.5465)" style="fill:#DCE4E8;" width="57" height="6"/>
			</g>
			
				<rect x="483.8" y="-325.1" transform="matrix(0.9495 -0.3137 0.3137 0.9495 128.8542 156.5176)" style="fill:#DCE4E8;" width="133.9" height="6"/>
			
				<rect x="477.5" y="-354.1" transform="matrix(0.9495 -0.3137 0.3137 0.9495 134.4944 153.5918)" style="fill:#B7BFC7;" width="133.9" height="26"/>
			<g>
				
					<rect x="505.1" y="-260.6" transform="matrix(0.9495 -0.3137 0.3137 0.9495 109.6758 166.469)" style="fill:#DCE4E8;" width="133.9" height="6"/>
				
					<rect x="508.3" y="-251.1" transform="matrix(0.9495 -0.3137 0.3137 0.9495 106.8559 167.933)" style="fill:#DCE4E8;" width="133.9" height="6"/>
				
					<rect x="511.4" y="-241.6" transform="matrix(0.9495 -0.3137 0.3137 0.9495 104.0353 169.3971)" style="fill:#DCE4E8;" width="133.9" height="6"/>
			</g>
			<g>
				
					<rect x="529.6" y="-186.5" transform="matrix(0.9495 -0.3137 0.3137 0.9495 87.6775 177.8835)" style="fill:#DCE4E8;" width="133.9" height="6"/>
				
					<rect x="533.5" y="-172.3" transform="matrix(0.9495 -0.3137 0.3137 0.9495 82.6635 175.1172)" style="fill:#DCE4E8;" width="104" height="6"/>
			</g>
			<g>
				
					<rect x="518.5" y="-216.5" transform="matrix(0.9495 -0.3137 0.3137 0.9495 95.3842 165.829)" style="fill:#B7BFC7;" width="89" height="6"/>
				
					<rect x="521.6" y="-207" transform="matrix(0.9495 -0.3137 0.3137 0.9495 92.5632 167.2924)" style="fill:#DCE4E8;" width="89" height="6"/>
				
					<rect x="524.8" y="-197.5" transform="matrix(0.9495 -0.3137 0.3137 0.9495 89.7434 168.7593)" style="fill:#DCE4E8;" width="89" height="6"/>
				
					<rect x="616.9" y="-239.6" transform="matrix(0.9496 -0.3136 0.3136 0.9496 103.0432 187.5304)" style="fill:#44C650;" width="35" height="26"/>
			</g>
			<g>
				
					<rect x="497.6" y="-287.9" transform="matrix(0.9495 -0.3137 0.3137 0.9495 109.9681 143.5849)" style="fill:#DCE4E8;" width="7" height="36"/>
				
					<rect x="507.1" y="-291.1" transform="matrix(0.9495 -0.3138 0.3138 0.9495 111.4762 146.4414)" style="fill:#DCE4E8;" width="7" height="36"/>
				
					<rect x="516.6" y="-294.2" transform="matrix(0.9495 -0.3138 0.3138 0.9495 112.9434 149.2623)" style="fill:#DCE4E8;" width="7" height="36"/>
				
					<rect x="526.1" y="-297.3" transform="matrix(0.9495 -0.3138 0.3138 0.9495 114.4069 152.0858)" style="fill:#DCE4E8;" width="7" height="36"/>
				
					<rect x="535.6" y="-300.5" transform="matrix(0.9495 -0.3137 0.3137 0.9495 115.824 154.8603)" style="fill:#DCE4E8;" width="7" height="36"/>
				
					<rect x="545.1" y="-303.6" transform="matrix(0.9496 -0.3134 0.3134 0.9496 117.1469 157.5421)" style="fill:#DCE4E8;" width="7" height="36"/>
				
					<rect x="554.6" y="-306.7" transform="matrix(0.9495 -0.3138 0.3138 0.9495 118.7991 160.55)" style="fill:#DCE4E8;" width="7" height="36"/>
				
					<rect x="500.8" y="-268.4" transform="matrix(0.9496 -0.3134 0.3134 0.9496 107.0218 144.9286)" style="fill:#E74C3C;" width="7" height="16"/>
				
					<rect x="509.8" y="-274.5" transform="matrix(0.9495 -0.3137 0.3137 0.9495 109.0437 147.6497)" style="fill:#E74C3C;" width="7" height="19"/>
				
					<rect x="520.4" y="-270.8" transform="matrix(0.9495 -0.3138 0.3138 0.9495 109.5508 151.0151)" style="fill:#E74C3C;" width="7" height="12"/>
				
					<rect x="528.3" y="-283.7" transform="matrix(0.9495 -0.3137 0.3137 0.9495 112.3891 153.0689)" style="fill:#E74C3C;" width="7" height="22"/>
				
					<rect x="537.2" y="-290.7" transform="matrix(0.9495 -0.3137 0.3137 0.9495 114.4155 155.5954)" style="fill:#E74C3C;" width="7" height="26"/>
				
					<rect x="549.8" y="-274.4" transform="matrix(0.9495 -0.3138 0.3138 0.9495 113.1024 159.92)" style="fill:#E74C3C;" width="7" height="6"/>
				
					<rect x="557.7" y="-287.2" transform="matrix(0.9496 -0.3134 0.3134 0.9496 115.7868 161.8219)" style="fill:#E74C3C;" width="7" height="16"/>
			</g>
		</g>
	</g>
	<g id="occhiali">
		<g>
			<g>
				<path style="fill:#586273;" d="M630.9-243.5c-1.3-0.2-2.2-1.5-2-2.8c1.6-9.2-4.6-18.1-13.8-19.7l-86.3-15.2
					c-1.3-0.2-2.2-1.5-2-2.8c0.2-1.3,1.5-2.2,2.8-2l86.3,15.2c11.9,2.1,19.9,13.5,17.8,25.4C633.5-244.2,632.2-243.3,630.9-243.5z"
					/>
			</g>
		</g>
		<g>
			<g>
				<g>
					<path style="fill:#586273;" d="M630.9-243.5c-1.3-0.2-2.2-1.5-2-2.8c1.6-9.2-4.6-18.1-13.8-19.7l-86.3-15.2
						c-1.3-0.2-2.2-1.5-2-2.8c0.2-1.3,1.5-2.2,2.8-2l86.3,15.2c11.9,2.1,19.9,13.5,17.8,25.4C633.5-244.2,632.2-243.3,630.9-243.5z"
						/>
				</g>
			</g>
			<g>
				<g>
					<path style="fill:#586273;" d="M535.1-260.4c-1.3-0.2-2.2-1.5-2-2.8c2.1-11.9,13.5-19.9,25.4-17.8l86.3,15.2
						c1.3,0.2,2.2,1.5,2,2.8c-0.2,1.3-1.5,2.2-2.8,2l-86.3-15.2c-9.2-1.6-18.1,4.6-19.7,13.8C537.6-261,536.4-260.2,535.1-260.4z"/>
				</g>
			</g>
		</g>
		<g style="opacity:0.3;">
			<g>
				<g>
					<path style="fill:#EFEEEE;" d="M573.8-256c-0.9,5.3-6,8.8-11.3,7.9l-28.8-5.1c-5.3-0.9-8.8-6-7.9-11.3l3.4-19.2
						c0.9-5.3,6-8.8,11.3-7.9l28.8,5.1c5.3,0.9,8.8,6,7.9,11.3L573.8-256z"/>
				</g>
			</g>
		</g>
		<g style="opacity:0.3;">
			<g>
				<g>
					<path style="fill:#EFEEEE;" d="M640.9-244.2c-0.9,5.3-6,8.8-11.3,7.9l-28.8-5.1c-5.3-0.9-8.8-6-7.9-11.3l3.4-19.2
						c0.9-5.3,6-8.8,11.3-7.9l28.8,5.1c5.3,0.9,8.8,6,7.9,11.3L640.9-244.2z"/>
				</g>
			</g>
		</g>
		<g>
			<g>
				<path style="fill:#586273;" d="M593.4-255.1c-1.3-0.2-2.2-1.5-2-2.8c0.7-4-2-7.8-5.9-8.5c-4-0.7-7.8,2-8.5,5.9
					c-0.2,1.3-1.5,2.2-2.8,2c-1.3-0.2-2.2-1.5-2-2.8c1.2-6.6,7.5-11,14.1-9.9c6.6,1.2,11,7.5,9.9,14.1
					C596-255.7,594.7-254.8,593.4-255.1z"/>
			</g>
		</g>
		<g style="opacity:0.3;">
			<path style="fill:#EFEEEE;" d="M540.5-291.2c-5.3-0.9-10.2,2.3-11.1,7.6l-3.4,19.2c-0.9,5.3,2.5,10.8,7.8,11.7l14.1,2.5l6.8-38.4
				L540.5-291.2z"/>
		</g>
		<g style="opacity:0.3;">
			<path style="fill:#EFEEEE;" d="M607.6-279.4c-5.3-0.9-9.4,2.4-10.3,7.7l-3.4,19.2c-0.9,5.3,1.6,10.6,6.9,11.5l14,2.5l6.8-38.4
				L607.6-279.4z"/>
		</g>
		<g>
			<g>
				<path style="fill:none;" d="M636-272.3l-28.8-5.1c-4-0.7-7.8,2-8.5,5.9l-3.4,19.2c-0.7,4,2,7.8,5.9,8.5l28.8,5.1
					c4,0.7,7.8-2,8.5-5.9l3.4-19.2C642.6-267.8,639.9-271.6,636-272.3z"/>
			</g>
			<g>
				<path style="fill:none;" d="M568.9-284.1l-28.8-5.1c-4-0.7-7.8,2-8.5,5.9l-3.4,19.2c-0.7,4,2,7.8,5.9,8.5l28.8,5.1
					c4,0.7,7.8-2,8.5-5.9l3.4-19.2C575.5-279.6,572.8-283.4,568.9-284.1z"/>
			</g>
			<g>
				<path style="fill:#586273;" d="M569.7-288.9l-28.8-5.1c-6.6-1.2-12.9,3.3-14.1,9.9l-3.4,19.2c-1.2,6.6,3.3,12.9,9.9,14.1
					l28.8,5.1c6.6,1.2,12.9-3.3,14.1-9.9l3.4-19.2C580.7-281.4,576.3-287.7,569.7-288.9z M571.4-256.5c-0.7,4-4.5,6.6-8.5,5.9
					l-28.8-5.1c-4-0.7-6.6-4.5-5.9-8.5l3.4-19.2c0.7-4,4.5-6.6,8.5-5.9l28.8,5.1c4,0.7,6.6,4.5,5.9,8.5L571.4-256.5z"/>
			</g>
			<g>
				<path style="fill:#586273;" d="M636.8-277.1l-28.8-5.1c-6.6-1.2-12.9,3.3-14.1,9.9l-3.4,19.2c-1.2,6.6,3.3,12.9,9.9,14.1
					l28.8,5.1c6.6,1.2,12.9-3.3,14.1-9.9l3.4-19.2C647.8-269.6,643.4-275.9,636.8-277.1z M638.5-244.6c-0.7,4-4.5,6.6-8.5,5.9
					l-28.8-5.1c-4-0.7-6.6-4.5-5.9-8.5l3.4-19.2c0.7-4,4.5-6.6,8.5-5.9l28.8,5.1c4,0.7,6.6,4.5,5.9,8.5L638.5-244.6z"/>
			</g>
		</g>
	</g>
	<g id="calcolatrice">
		<path style="opacity:0.8;fill:#2980B9;enable-background:new    ;" d="M1681.9-330.6l-33.9-36.1c-2.6-2.8-7.1-2.9-9.9-0.3
			l-53.9,50.6c-2.8,2.6-2.9,7.1-0.3,9.9l33.9,36.1c2.6,2.8,7.1,2.9,9.9,0.3l53.9-50.6C1684.4-323.3,1684.6-327.8,1681.9-330.6z"/>
		<g>
			<path style="fill:#F7F9F8;" d="M1588.2-316.4c-2.8,2.6-2.9,7.1-0.3,9.9l33.9,36.1c2.6,2.8,7.1,2.9,9.9,0.3l53.9-50.6
				c2.8-2.6,2.9-7.1,0.3-9.9l-33.9-36.1c-2.6-2.8-7.1-2.9-9.9-0.3L1588.2-316.4z"/>
			<g>
				
					<rect x="1624.7" y="-345" transform="matrix(0.6844 0.7291 -0.7291 0.6844 266.1188 -1295.3839)" style="fill:#E74C3C;" width="9.3" height="9.3"/>
				
					<rect x="1634.2" y="-334.7" transform="matrix(0.6844 0.7291 -0.7291 0.6844 276.6141 -1299.0872)" style="fill:#E74C3C;" width="9.3" height="9.3"/>
				
					<rect x="1643.8" y="-324.5" transform="matrix(0.6844 0.7291 -0.7291 0.6844 287.1161 -1302.8645)" style="fill:#E74C3C;" width="9.3" height="9.3"/>
				
					<rect x="1653.4" y="-314.2" transform="matrix(0.6844 0.7291 -0.7291 0.6844 297.6004 -1306.6331)" style="fill:#E74C3C;" width="9.3" height="9.3"/>
				
					<rect x="1614.4" y="-335.4" transform="matrix(0.6845 0.729 -0.729 0.6845 269.721 -1284.6642)" style="fill:#E74C3C;" width="9.3" height="9.3"/>
				
					<rect x="1624.1" y="-325.2" transform="matrix(0.6844 0.7291 -0.7291 0.6844 280.3582 -1288.7319)" style="fill:#E74C3C;" width="9.3" height="9.3"/>
				
					<rect x="1633.6" y="-314.9" transform="matrix(0.6843 0.7292 -0.7292 0.6843 290.9776 -1292.5631)" style="fill:#E74C3C;" width="9.3" height="9.3"/>
				
					<rect x="1643.3" y="-304.7" transform="matrix(0.6844 0.7291 -0.7291 0.6844 301.3622 -1296.2161)" style="fill:#E74C3C;" width="9.3" height="9.3"/>
				
					<rect x="1604.1" y="-325.7" transform="matrix(0.6843 0.7292 -0.7292 0.6843 273.8066 -1274.4844)" style="fill:#E74C3C;" width="9.3" height="9.3"/>
				
					<rect x="1613.8" y="-315.5" transform="matrix(0.6844 0.7291 -0.7291 0.6844 284.1878 -1278.0973)" style="fill:#E74C3C;" width="9.3" height="9.3"/>
				
					<rect x="1623.4" y="-305.3" transform="matrix(0.6844 0.7291 -0.7291 0.6844 294.6317 -1281.9301)" style="fill:#E74C3C;" width="9.3" height="9.3"/>
				
					<rect x="1633" y="-295" transform="matrix(0.6844 0.7291 -0.7291 0.6844 305.1481 -1285.6711)" style="fill:#E74C3C;" width="9.3" height="9.3"/>
				
					<rect x="1594" y="-316.2" transform="matrix(0.6845 0.729 -0.729 0.6845 277.3023 -1263.723)" style="fill:#E74C3C;" width="9.3" height="9.3"/>
				
					<rect x="1603.6" y="-305.9" transform="matrix(0.6846 0.729 -0.729 0.6846 287.7198 -1267.3951)" style="fill:#E74C3C;" width="9.3" height="9.3"/>
				
					<rect x="1610.9" y="-290.5" transform="matrix(0.6844 0.7291 -0.7291 0.6844 303.6548 -1273.2557)" style="fill:#656D78;" width="23.4" height="9.3"/>
			</g>
			
				<rect x="1631.7" y="-347.1" transform="matrix(0.6844 0.7291 -0.7291 0.6844 276.831 -1314.9694)" style="fill:#2C3E50;" width="51.4" height="18.7"/>
			
				<rect x="1661.5" y="-335.6" transform="matrix(0.6843 0.7292 -0.7292 0.6843 283.9443 -1317.7347)" style="fill:#ECF0F1;" width="4.7" height="9.3"/>
			
				<rect x="1667.8" y="-328.8" transform="matrix(0.6848 0.7288 -0.7288 0.6848 290.244 -1319.3108)" style="fill:#ECF0F1;" width="4.7" height="9.4"/>
			
				<rect x="1648.7" y="-349.2" transform="matrix(0.6842 0.7293 -0.7293 0.6842 270.1278 -1312.8635)" style="fill:#ECF0F1;" width="4.7" height="9.3"/>
			
				<rect x="1654.9" y="-342.3" transform="matrix(0.6843 0.7292 -0.7292 0.6843 277.0225 -1315.0466)" style="fill:#ECF0F1;" width="4.7" height="9.3"/>
		</g>
	</g>
	
		<text id="hello" transform="matrix(1 0 0 1 526.7058 21.209)" style="fill:#ECF0F1; font-family:'Roboto-Black'; font-size:120px;">hello</text>
	<g id="subtitle">
		
			<text id="scrolldown" transform="matrix(1 0 0 1 905.5745 21.209)" style="fill:#F5ECD9; font-family:'Roboto-Regular'; font-size:14px;">scroll down</text>
		
			<text id="viewresume" transform="matrix(1 0 0 1 980.1746 21.209)" style="fill:#DED6C7; font-family:'Roboto-Regular'; font-size:14px;">or just view my resume.</text>
	</g>
</g>
<g id="scrollthing">
	<rect x="1465.7" y="-574.7" style="fill:#4CAEE5;" width="14.7" height="170.5"/>
	<g id="moving">
		<rect id="scrollertop" x="1467.3" y="-572.4" style="fill:#3498DB;" width="11.5" height="81.6"/>
		<g id="cursor">
			<g>
				<polygon style="fill:#4CAEE5;" points="1445,-536.3 1445,-535.3 1440.9,-535.3 1440.9,-533.4 1440.9,-533.4 1439.9,-533.4 
					1439.9,-536.3 1439.9,-536.3 1440.9,-536.3 1442.9,-536.3 1442.9,-537.2 1443.9,-537.2 1443.9,-536.3 				"/>
				<polygon style="fill:#4CAEE5;" points="1443.9,-529.5 1443.9,-527.6 1442.8,-527.6 1442.8,-527.6 1442.8,-529.5 1442.9,-529.5 
									"/>
				<rect x="1441.9" y="-538.1" style="fill:#4CAEE5;" width="1" height="1"/>
				<polygon style="fill:#4CAEE5;" points="1442.9,-531.5 1442.9,-529.5 1442.8,-529.5 1441.9,-529.5 1441.9,-531.5 1441.9,-531.5 
									"/>
				<polygon style="fill:#4CAEE5;" points="1442.8,-527.6 1442.8,-526.6 1440.9,-526.6 1440.9,-527.6 1440.9,-527.6 1442.8,-527.6 
									"/>
				<rect x="1440.9" y="-539.1" style="fill:#4CAEE5;" width="1" height="1"/>
				<polygon style="fill:#4CAEE5;" points="1441.9,-533.4 1441.9,-531.5 1441.9,-531.5 1440.9,-531.5 1440.9,-533.4 1440.9,-533.4 
									"/>
				<polygon style="fill:#4CAEE5;" points="1440.9,-529.5 1440.9,-527.6 1440.9,-527.6 1439.9,-527.6 1439.9,-529.5 				"/>
				<rect x="1439.9" y="-540.1" style="fill:#4CAEE5;" width="1" height="1"/>
				<polygon style="fill:#4CAEE5;" points="1439.9,-529.5 1439.9,-529.5 1438.9,-529.5 1438.9,-531.4 1438.9,-531.4 1439.9,-531.4 
									"/>
				<rect x="1438.9" y="-541.1" style="fill:#4CAEE5;" width="1" height="1"/>
				<polygon style="fill:#4CAEE5;" points="1438.9,-533.4 1438.9,-531.4 1438.9,-531.4 1437.9,-531.4 1437.9,-533.4 1437.9,-533.4 
									"/>
				<rect x="1437.9" y="-542.1" style="fill:#4CAEE5;" width="1" height="1"/>
				<rect x="1436.9" y="-543.1" style="fill:#4CAEE5;" width="1" height="1"/>
				<polygon style="fill:#4CAEE5;" points="1437.9,-533.4 1437.9,-533.4 1436.9,-533.4 1436.9,-533.4 1436.9,-535.3 1437.9,-535.3 
									"/>
				<rect x="1435.9" y="-544.1" style="fill:#4CAEE5;" width="1" height="1"/>
				<polygon style="fill:#4CAEE5;" points="1436.9,-533.4 1436.9,-532.4 1435.9,-532.4 1435.9,-533.4 1436.9,-533.4 				"/>
				<rect x="1434.9" y="-532.4" style="fill:#4CAEE5;" width="1" height="1"/>
				<rect x="1434.9" y="-545.1" style="fill:#4CAEE5;" width="1" height="1"/>
				<polygon style="fill:#4CAEE5;" points="1434.9,-531.4 1434.9,-530.4 1433.9,-530.4 1433.9,-529.6 1432.9,-529.6 1432.9,-547.1 
					1433.9,-547.1 1433.9,-546.1 1434.9,-546.1 1434.9,-545.1 1433.9,-545.1 1433.9,-531.4 				"/>
			</g>
		</g>
	</g>
</g>
</svg>
