<?xml version="1.0" encoding="utf-8"?>
<!-- Generator: Adobe Illustrator 16.0.0, SVG Export Plug-In . SVG Version: 6.00 Build 0)  -->
<!DOCTYPE svg PUBLIC "-//W3C//DTD SVG 1.1//EN" "http://www.w3.org/Graphics/SVG/1.1/DTD/svg11.dtd">
<svg version="1.1" id="svg1" xmlns="http://www.w3.org/2000/svg" xmlns:xlink="http://www.w3.org/1999/xlink" x="0px" y="0px"
	 width="1024px" height="768px" viewBox="0 0 1024 768" enable-background="new 0 0 1024 768" xml:space="preserve">
<g id="bg">
	<rect x="-7576.43" y="-6889.818" fill="#3498DB" width="16291.836" height="14783.959"/>
</g>
<path id="wire1" opacity="0.6" fill="none" stroke="#EFEFEF" stroke-miterlimit="10" enable-background="new    " d="M18.115-44.888
	C63.952,14.779,115.713,82.916,198.636,81.016c65.57-1.501,127.096-41.73,193.394-31.265
	c67.338,10.629,116.664,71.303,167.169,111.705c53.213,42.57,112.234,66.442,171.979,97.309
	c45.997,23.766,69.191,58.462,77.456,109.252c5.767,35.415-0.088,84.239,22.37,114.638
	c29.147,39.456,156.977,59.966,101.036,134.774c-53.021,70.909-150.769,81.885-210.565,115.767C705.355,742.33,683,759.5,670,768
	l-1.984,1.312"/>
<g id="introduction" xmlns:rdf="http://www.w3.org/1999/02/22-rdf-syntax-ns#" xmlns:sodipodi="http://sodipodi.sourceforge.net/DTD/sodipodi-0.dtd" xmlns:inkscape="http://www.inkscape.org/namespaces/inkscape" xmlns:svg="http://www.w3.org/2000/svg" xmlns:dc="http://purl.org/dc/elements/1.1/" xmlns:cc="http://creativecommons.org/ns#" sodipodi:docname="drawing.svg" inkscape:version="0.48.4 r9939">
	<g id="intro">
		<g id="intro1">
			<text transform="matrix(1 0 0 1 30.7061 450.1562)" fill="#ECF0F1" font-family="'Roboto-Thin'" font-size="30">My name is Albino Tonnina.</text>
			<text transform="matrix(1 0 0 1 30.7061 486.1562)" fill="#ECF0F1" font-family="'Roboto-Thin'" font-size="30">I&apos;m a self-taught 35 years old full-stack web developer.</text>
		</g>
		<g id="intro2">
			<text transform="matrix(1 0 0 1 30.2061 536.6025)" fill="#F5F7FA" font-family="'Roboto-Thin'" font-size="30">Currently I work in Rome for  Numidia, </text>
			<text transform="matrix(1 0 0 1 30.2061 572.6025)" fill="#F5F7FA" font-family="'Roboto-Thin'" font-size="30">a fresh and dynamic development company I co-founded in 2011.</text>
		</g>
	</g>
	<g id="macbook">
		<path fill="#586273" d="M938.378,305.397L938.378,305.397C938.351,305.458,938.378,305.397,938.378,305.397z"/>
		<path opacity="0.8" fill="#2980B9" enable-background="new    " d="M969.267,278.006L627.089,122.152c0,0-8.188-3.73-11.922,4.46
			s4.461,11.921,4.461,11.921l24.57,11.192c0,0-8.189-3.73-11.92,4.46c-4.689,10.274-4.656,10.22-77.521,170.179
			c-3.891,8.544,0.791,19.04,9.334,22.932l277.57,126.423c8.545,3.896,18.625,0.121,22.518-8.424c0,0,59.131-129.82,74.197-162.898
			l0,0c0.074-0.166,0.58-1.274,3.312-7.28c3.729-8.19-4.462-11.921-4.462-11.921l24.562,11.191c0,0,8.189,3.73,11.922-4.46
			C977.456,281.737,969.267,278.006,969.267,278.006z"/>
		<g>
			<path fill="#E6E9ED" d="M870.181,463.295c-3.891,8.545-13.973,12.316-22.518,8.424L570.099,345.295
				c-8.543-3.892-13.225-14.388-9.334-22.932c0,0,73.783-161.988,77.521-170.179c3.729-8.191,11.922-4.46,11.922-4.46
				l293.031,133.471c0,0,8.188,3.73,4.459,11.921C943.964,301.307,870.181,463.295,870.181,463.295z"/>
			<path opacity="0.3" fill="#B7BFC7" enable-background="new    " d="M944.378,300.397l-364.201-20.582
				c0,0,54.371-119.439,58.105-127.63c3.729-8.191,11.92-4.46,11.92-4.46l293.035,133.471c0,0,8.188,3.73,4.461,11.921
				C943.964,301.308,944.378,300.397,944.378,300.397z"/>
			
				<rect x="713.862" y="214.039" transform="matrix(-0.91 -0.4145 0.4145 -0.91 1427.5419 746.8834)" fill="#DCE4E8" width="161.907" height="9"/>
			
				<radialGradient id="mbplight_1_" cx="1081.4951" cy="6025.3486" r="163.2183" gradientTransform="matrix(0.9118 0.4011 -0.0955 0.1842 376.088 -1326.9219)" gradientUnits="userSpaceOnUse">
				<stop  offset="0.103" style="stop-color:#3498DB;stop-opacity:0.4"/>
				<stop  offset="0.7955" style="stop-color:#3498DB;stop-opacity:0.0565"/>
				<stop  offset="0.9095" style="stop-color:#3498DB;stop-opacity:0"/>
			</radialGradient>
			<polygon id="mbplight" display="none" fill="url(#mbplight_1_)" points="960.161,327.208 625.479,176.709 669.61,136.852 
				968.716,273.252 			"/>
			<path fill="#CCD1D9" d="M967.806,292.387L625.628,136.533c0,0-8.19-3.73-4.461-11.921s11.922-4.46,11.922-4.46l342.178,155.854
				c0,0,8.189,3.73,4.459,11.921C975.997,296.118,967.806,292.387,967.806,292.387z"/>
			
				<rect x="677.224" y="350.5" transform="matrix(-0.91 -0.4145 0.4145 -0.91 1227.4697 1013.3617)" display="none" fill="#F5F7FA" stroke="#CCD1D9" stroke-miterlimit="10" width="92.944" height="45.973"/>
			<g>
				
					<rect x="671.412" y="198.344" transform="matrix(-0.9101 -0.4145 0.4145 -0.9101 1214.9321 672.3293)" fill="#3B3B3B" stroke="#C1C1C1" stroke-miterlimit="10" width="18.003" height="12.003"/>
				
					<rect x="662.51" y="215.397" transform="matrix(-0.9101 -0.4145 0.4145 -0.9101 1189.824 705.9859)" fill="#3B3B3B" stroke="#C1C1C1" stroke-miterlimit="10" width="18.003" height="17.002"/>
				
					<rect x="651.626" y="239.638" transform="matrix(-0.91 -0.4145 0.4145 -0.91 1169.9878 752.1837)" fill="#3B3B3B" stroke="#C1C1C1" stroke-miterlimit="10" width="29.979" height="18.989"/>
				
					<rect x="641.111" y="265.211" transform="matrix(-0.9101 -0.4145 0.4145 -0.9101 1152.1982 797.4605)" fill="#3B3B3B" stroke="#C1C1C1" stroke-miterlimit="10" width="43.025" height="17.013"/>
				
					<rect x="684.343" y="225.532" transform="matrix(-0.91 -0.4145 0.4145 -0.91 1228.26 734.5958)" fill="#3B3B3B" stroke="#C1C1C1" stroke-miterlimit="10" width="18.989" height="16.987"/>
				
					<rect x="684.854" y="252.296" transform="matrix(-0.91 -0.4145 0.4145 -0.91 1217.7147 787.8624)" fill="#3B3B3B" stroke="#C1C1C1" stroke-miterlimit="10" width="18.993" height="18.995"/>
				
					<rect x="686.732" y="280.518" transform="matrix(-0.9101 -0.4145 0.4145 -0.9101 1210.0532 840.6155)" fill="#3B3B3B" stroke="#C1C1C1" stroke-miterlimit="10" width="19.001" height="17"/>
				
					<rect x="708.718" y="290.26" transform="matrix(-0.91 -0.4145 0.4145 -0.91 1247.0256 868.1614)" fill="#3B3B3B" stroke="#C1C1C1" stroke-miterlimit="10" width="18.003" height="17.005"/>
				
					<rect x="731.43" y="300.667" transform="matrix(-0.9101 -0.4145 0.4145 -0.9101 1286.1248 897.412)" fill="#3B3B3B" stroke="#C1C1C1" stroke-miterlimit="10" width="17.999" height="16.996"/>
				
					<rect x="753.286" y="310.603" transform="matrix(-0.91 -0.4145 0.4145 -0.91 1323.7224 925.4781)" fill="#3B3B3B" stroke="#C1C1C1" stroke-miterlimit="10" width="17.999" height="16.998"/>
				
					<rect x="776.056" y="320.943" transform="matrix(-0.9101 -0.4145 0.4145 -0.9101 1362.9558 954.6577)" fill="#3B3B3B" stroke="#C1C1C1" stroke-miterlimit="10" width="18.006" height="17.008"/>
				
					<rect x="796.908" y="330.709" transform="matrix(-0.9101 -0.4145 0.4145 -0.9101 1399.718 982.1462)" fill="#3B3B3B" stroke="#C1C1C1" stroke-miterlimit="10" width="19.01" height="17.012"/>
				
					<rect x="818.527" y="346.017" transform="matrix(-0.91 -0.4145 0.4145 -0.91 1457.5127 1025.3335)" fill="#3B3B3B" stroke="#C1C1C1" stroke-miterlimit="10" width="42.976" height="16.99"/>
				
					<rect x="707.662" y="262.439" transform="matrix(-0.91 -0.4145 0.4145 -0.91 1256.1185 816.485)" fill="#3B3B3B" stroke="#C1C1C1" stroke-miterlimit="10" width="17.995" height="18.993"/>
				
					<rect x="729.478" y="272.665" transform="matrix(-0.91 -0.4145 0.4145 -0.91 1294.5278 845.2566)" fill="#3B3B3B" stroke="#C1C1C1" stroke-miterlimit="10" width="19.001" height="19"/>
				
					<rect x="752.301" y="282.739" transform="matrix(-0.9101 -0.4144 0.4144 -0.9101 1333.0579 873.7013)" fill="#3B3B3B" stroke="#C1C1C1" stroke-miterlimit="10" width="18.009" height="19.01"/>
				
					<rect x="774.017" y="292.935" transform="matrix(-0.91 -0.4145 0.4145 -0.91 1371.189 902.4204)" fill="#3B3B3B" stroke="#C1C1C1" stroke-miterlimit="10" width="18.989" height="18.988"/>
				
					<rect x="796.906" y="303.097" transform="matrix(-0.9101 -0.4145 0.4145 -0.9101 1409.7648 931.1123)" fill="#3B3B3B" stroke="#C1C1C1" stroke-miterlimit="10" width="18.003" height="19"/>
				
					<rect x="818.677" y="313.176" transform="matrix(-0.91 -0.4145 0.4145 -0.91 1448.1023 959.5929)" fill="#3B3B3B" stroke="#C1C1C1" stroke-miterlimit="10" width="18.989" height="18.988"/>
				
					<rect x="840.951" y="325.894" transform="matrix(-0.9101 -0.4145 0.4145 -0.9101 1495.9192 995.411)" fill="#3B3B3B" stroke="#C1C1C1" stroke-miterlimit="10" width="30.018" height="19.012"/>
				
					<rect x="707.057" y="235.928" transform="matrix(-0.91 -0.4145 0.4145 -0.91 1267.3123 763.8918)" fill="#3B3B3B" stroke="#C1C1C1" stroke-miterlimit="10" width="18.989" height="16.987"/>
				
					<rect x="729.048" y="245.749" transform="matrix(-0.9101 -0.4145 0.4145 -0.9101 1304.3369 791.5302)" fill="#3B3B3B" stroke="#C1C1C1" stroke-miterlimit="10" width="17.998" height="17"/>
				
					<rect x="751.703" y="256.01" transform="matrix(-0.91 -0.4145 0.4145 -0.91 1343.3315 820.5376)" fill="#3B3B3B" stroke="#C1C1C1" stroke-miterlimit="10" width="17.994" height="16.995"/>
				
					<rect x="773.675" y="266.034" transform="matrix(-0.9101 -0.4145 0.4145 -0.9101 1381.1677 848.7811)" fill="#3B3B3B" stroke="#C1C1C1" stroke-miterlimit="10" width="18.002" height="17.003"/>
				
					<rect x="796.338" y="276.373" transform="matrix(-0.9101 -0.4144 0.4144 -0.9101 1420.2384 877.8679)" fill="#3B3B3B" stroke="#C1C1C1" stroke-miterlimit="10" width="18.01" height="17.011"/>
				
					<rect x="817.144" y="286.089" transform="matrix(-0.9101 -0.4145 0.4145 -0.9101 1456.8508 905.3102)" fill="#3B3B3B" stroke="#C1C1C1" stroke-miterlimit="10" width="19.008" height="17.007"/>
				
					<rect x="838.898" y="301.446" transform="matrix(-0.9101 -0.4145 0.4145 -0.9101 1514.9644 948.6483)" fill="#3B3B3B" stroke="#C1C1C1" stroke-miterlimit="10" width="43.024" height="17.013"/>
				
					<rect x="632.281" y="280.883" transform="matrix(-0.9101 -0.4145 0.4145 -0.9101 1104.5258 820.4673)" fill="#3B3B3B" stroke="#C1C1C1" stroke-miterlimit="10" width="18.01" height="19.012"/>
				
					<rect x="654.067" y="291.065" transform="matrix(-0.9101 -0.4145 0.4145 -0.9101 1142.8638 849.1304)" fill="#3B3B3B" stroke="#C1C1C1" stroke-miterlimit="10" width="18.997" height="18.992"/>
				
					<rect id="spacebar" x="672.457" y="321.47" transform="matrix(-0.91 -0.4145 0.4145 -0.91 1257.9473 934.9282)" fill="#3B3B3B" stroke="#C1C1C1" stroke-miterlimit="10" width="115.932" height="18.987"/>
				
					<rect x="786.928" y="351.483" transform="matrix(-0.9101 -0.4145 0.4145 -0.9101 1371.6039 1019.6097)" fill="#3B3B3B" stroke="#C1C1C1" stroke-miterlimit="10" width="19.005" height="19.002"/>
				
					<rect x="809.68" y="361.837" transform="matrix(-0.9101 -0.4145 0.4145 -0.9101 1410.7959 1048.8081)" fill="#3B3B3B" stroke="#C1C1C1" stroke-miterlimit="10" width="19.014" height="19.011"/>
				
					<rect x="832.424" y="372.044" transform="matrix(-0.91 -0.4145 0.4145 -0.91 1448.9788 1077.5693)" fill="#3B3B3B" stroke="#C1C1C1" stroke-miterlimit="10" width="18" height="19.002"/>
				
					<rect x="693.297" y="208.488" transform="matrix(-0.9101 -0.4145 0.4145 -0.9101 1253.4934 700.992)" fill="#3B3B3B" stroke="#C1C1C1" stroke-miterlimit="10" width="19.015" height="12.009"/>
				
					<rect x="715.968" y="218.847" transform="matrix(-0.9101 -0.4145 0.4145 -0.9101 1292.5044 730.1567)" fill="#3B3B3B" stroke="#C1C1C1" stroke-miterlimit="10" width="19.003" height="12.004"/>
				
					<rect x="737.85" y="228.597" transform="matrix(-0.91 -0.4145 0.4145 -0.91 1329.2698 757.6605)" fill="#3B3B3B" stroke="#C1C1C1" stroke-miterlimit="10" width="17.993" height="11.997"/>
				
					<rect x="760.594" y="238.97" transform="matrix(-0.91 -0.4145 0.4145 -0.91 1368.4121 786.9078)" fill="#3B3B3B" stroke="#C1C1C1" stroke-miterlimit="10" width="17.996" height="11.998"/>
				
					<rect x="782.51" y="248.94" transform="matrix(-0.9101 -0.4145 0.4145 -0.9101 1406.1643 815.0175)" fill="#3B3B3B" stroke="#C1C1C1" stroke-miterlimit="10" width="18.003" height="12.001"/>
				
					<rect x="805.221" y="259.339" transform="matrix(-0.9101 -0.4145 0.4145 -0.9101 1445.2446 844.2957)" fill="#3B3B3B" stroke="#C1C1C1" stroke-miterlimit="10" width="18.01" height="12.008"/>
				
					<rect x="826.149" y="269.039" transform="matrix(-0.9101 -0.4145 0.4145 -0.9101 1482.1545 871.6954)" fill="#3B3B3B" stroke="#C1C1C1" stroke-miterlimit="10" width="19.004" height="12.006"/>
				
					<rect x="848.845" y="279.358" transform="matrix(-0.91 -0.4145 0.4145 -0.91 1521.1758 900.8416)" fill="#3B3B3B" stroke="#C1C1C1" stroke-miterlimit="10" width="18.991" height="11.994"/>
				
					<rect x="871.654" y="289.673" transform="matrix(-0.91 -0.4146 0.4146 -0.91 1559.4478 929.8674)" fill="#3B3B3B" stroke="#C1C1C1" stroke-miterlimit="10" width="17.994" height="11.999"/>
			</g>
		</g>
	</g>
	<g id="bevanda">
		<circle opacity="0.8" fill="#2980B9" enable-background="new    " cx="419.417" cy="135.903" r="50.582"/>
		<circle fill="#E6E9ED" cx="424.417" cy="133.903" r="50.582"/>
		<path fill="#E74C3C" d="M424.417,92.203c23.03,0,41.7,18.67,41.7,41.7c0,23.03-18.67,41.7-41.7,41.7
			c-10.37,0-19.856-3.786-27.151-10.052c-8.9-7.647-14.547-18.989-14.547-31.648C382.717,110.873,401.387,92.203,424.417,92.203z"/>
		<path id="linecover1" fill="#E6E9ED" d="M424.417,91.203c23.583,0,42.7,19.118,42.7,42.7s-19.117,42.7-42.7,42.7
			c-10.62,0-20.335-3.877-27.805-10.293c-9.118-7.831-14.896-19.444-14.896-32.407C381.717,110.321,400.834,91.203,424.417,91.203z"
			/>
		
			<ellipse transform="matrix(-0.993 -0.1184 0.1184 -0.993 798.6412 379.2097)" fill="#D8D8DA" cx="410.585" cy="165.881" rx="11.568" ry="7.71"/>
		<polygon fill="#CCD1D9" points="361.239,156.128 402.066,163.068 401.641,166.644 360.327,163.782 		"/>
		
			<ellipse transform="matrix(-0.993 -0.1184 0.1184 -0.993 798.6221 379.2226)" fill="#AAB2BD" cx="410.575" cy="165.891" rx="9.639" ry="6.423"/>
		<path fill="#FFFFFF" d="M397.135,91.046l9.69,12.484c1.604,2.068,1.229,5.048-0.838,6.654c-2.062,1.607-5.05,1.232-6.65-0.836
			l-9.692-12.484c-1.604-2.068-1.229-5.047,0.839-6.654C392.55,88.603,395.528,88.977,397.135,91.046z"/>
		<circle fill="#FFFFFF" cx="424.417" cy="133.903" r="34.776"/>
		<circle fill="#E6E7E8" cx="424.417" cy="133.903" r="31.298"/>
		<circle fill="#49433C" cx="424.417" cy="133.903" r="29.559"/>
		<path fill="#363532" d="M403.194,150.386c9.088,11.702,26.004,13.828,37.707,4.739c0.688-0.535,0.812-1.528,0.274-2.218
			c-0.537-0.689-1.524-0.814-2.224-0.278c-0.276,0.218-0.563,0.428-0.854,0.632c-0.075,0.056-0.151,0.111-0.231,0.166
			c-0.271,0.188-0.55,0.372-0.83,0.549c-0.09,0.057-0.188,0.11-0.271,0.167c-0.188,0.119-0.396,0.235-0.589,0.347
			c-0.135,0.075-0.268,0.15-0.396,0.222c-0.229,0.125-0.455,0.244-0.688,0.36c-0.187,0.09-0.354,0.176-0.539,0.261
			c-0.142,0.064-0.271,0.127-0.405,0.188c-0.171,0.076-0.339,0.151-0.509,0.223c-0.241,0.103-0.488,0.203-0.735,0.298
			c-0.162,0.062-0.324,0.12-0.486,0.178c-0.151,0.056-0.312,0.111-0.477,0.164c-0.146,0.05-0.3,0.1-0.443,0.147
			c-0.281,0.088-0.563,0.171-0.854,0.249c-0.104,0.029-0.205,0.054-0.312,0.081c-0.25,0.064-0.5,0.124-0.754,0.18
			c-0.08,0.018-0.16,0.036-0.237,0.054c-0.343,0.072-0.687,0.137-1.021,0.194c-0.021,0.002-0.037,0.006-0.062,0.008
			c-0.19,0.033-0.396,0.065-0.598,0.092c-0.146,0.021-0.304,0.037-0.451,0.054c-0.021,0.003-0.051,0.007-0.076,0.009
			c-0.741,0.085-1.487,0.134-2.229,0.147c-0.011,0-0.021,0-0.021,0c-0.733,0.013-1.475-0.009-2.207-0.064
			c-0.043-0.003-0.086-0.007-0.129-0.011c-0.34-0.028-0.68-0.061-1.02-0.103c-0.021-0.002-0.039-0.004-0.062-0.006
			c-0.312-0.042-0.637-0.09-0.949-0.143c-0.135-0.022-0.266-0.046-0.395-0.07c-0.178-0.034-0.354-0.068-0.531-0.105
			c-0.646-0.134-1.281-0.297-1.918-0.484c-0.008-0.002-0.016-0.005-0.021-0.007c-3.418-1.023-6.596-2.808-9.25-5.243
			c-0.021-0.015-0.031-0.03-0.055-0.044c-0.146-0.14-0.303-0.282-0.439-0.425c-0.121-0.118-0.242-0.238-0.361-0.358
			c-0.121-0.124-0.242-0.246-0.354-0.373c-0.199-0.215-0.398-0.435-0.604-0.659c-0.062-0.078-0.135-0.157-0.205-0.237
			c-0.229-0.268-0.451-0.54-0.67-0.819c-0.217-0.28-0.426-0.565-0.627-0.854c-0.062-0.085-0.121-0.171-0.182-0.256
			c-0.168-0.245-0.33-0.492-0.488-0.741c-0.096-0.147-0.187-0.295-0.271-0.442c-0.087-0.147-0.177-0.291-0.263-0.438
			c-0.103-0.179-0.201-0.358-0.301-0.539c-0.012-0.019-0.021-0.04-0.031-0.06c-1.696-3.179-2.646-6.695-2.789-10.259
			c0-0.009-0.002-0.017-0.002-0.025c-0.021-0.66-0.021-1.319,0.008-1.978c0.016-0.181,0.021-0.359,0.027-0.541
			c0.01-0.132,0.021-0.263,0.028-0.394c0.021-0.32,0.058-0.641,0.099-0.96c0.002-0.02,0.008-0.039,0.01-0.058
			c0.041-0.338,0.102-0.675,0.148-1.011c0.008-0.043,0.018-0.086,0.021-0.129c0.13-0.723,0.288-1.441,0.479-2.154
			c0.002-0.007,0.006-0.015,0.008-0.022c0.197-0.717,0.432-1.428,0.695-2.13c0.01-0.024,0.02-0.047,0.021-0.071
			c0.06-0.142,0.104-0.283,0.162-0.424c0.076-0.187,0.156-0.372,0.234-0.556c0.01-0.017,0.02-0.035,0.021-0.052
			c0.146-0.32,0.288-0.636,0.438-0.948c0.034-0.074,0.072-0.146,0.104-0.22c0.116-0.229,0.234-0.458,0.356-0.684
			c0.055-0.095,0.104-0.19,0.155-0.285c0.146-0.258,0.298-0.514,0.449-0.766c0.08-0.133,0.17-0.265,0.255-0.397
			c0.094-0.14,0.188-0.28,0.271-0.418c0.1-0.143,0.19-0.286,0.291-0.428c0.151-0.217,0.312-0.432,0.477-0.644
			c0.107-0.146,0.229-0.291,0.345-0.435c0.097-0.117,0.188-0.233,0.276-0.348c0.134-0.153,0.262-0.307,0.394-0.458
			c0.17-0.194,0.345-0.386,0.521-0.576c0.104-0.11,0.206-0.219,0.312-0.329c0.159-0.163,0.313-0.324,0.479-0.483
			c0.077-0.076,0.148-0.152,0.229-0.225c0.237-0.229,0.481-0.45,0.731-0.669c0.072-0.063,0.146-0.125,0.226-0.188
			c0.271-0.23,0.544-0.458,0.821-0.676c0.688-0.536,0.812-1.528,0.274-2.218c-0.534-0.689-1.524-0.814-2.218-0.279
			C396.231,121.77,394.104,138.685,403.194,150.386z"/>
		<path fill="#363532" d="M413.143,111.208c0.342,0.803,1.271,1.182,2.065,0.842c0.218-0.089,0.431-0.171,0.644-0.253
			c0.031-0.013,0.062-0.025,0.099-0.038c0.002-0.001,0.004-0.002,0.006-0.002c0.199-0.076,0.396-0.148,0.604-0.219
			c0.01-0.001,0.015-0.004,0.021-0.006c0.055-0.018,0.104-0.036,0.154-0.055c0.006,0,0.01-0.002,0.014-0.003
			c0.209-0.073,0.422-0.142,0.635-0.208c0.007-0.002,0.018-0.003,0.021-0.005c0.016-0.003,0.021-0.008,0.041-0.012
			c0.014-0.003,0.021-0.007,0.036-0.011c0.44-0.138,0.896-0.258,1.354-0.369c0.051-0.012,0.104-0.026,0.153-0.039
			c0.438-0.104,0.882-0.193,1.322-0.271c0.104-0.019,0.214-0.037,0.312-0.055c-0.062,0.01-0.123,0.018-0.188,0.029
			c0.062-0.011,0.125-0.019,0.188-0.029c-0.002,0-0.004,0-0.006,0c0.146-0.023,0.287-0.044,0.437-0.065
			c-0.011,0.001-0.017,0.001-0.021,0.001c0.051-0.007,0.104-0.016,0.149-0.023c0.003,0,0.003,0,0.009,0
			c-0.052,0.006-0.102,0.016-0.146,0.021c0.062-0.009,0.125-0.016,0.188-0.025c0.562-0.059,1.091,0.182,1.416,0.601
			c0.165,0.212,0.271,0.47,0.312,0.755c0.112,0.859-0.479,1.651-1.343,1.777c-0.002,0-0.002,0.001-0.004,0.001
			c-0.004,0-0.008,0.002-0.011,0.002c-1.323,0.181-2.622,0.493-3.883,0.924c-0.004,0.002-0.009,0.002-0.015,0.005
			c-0.021,0.006-0.037,0.013-0.062,0.019c-0.008,0.002-0.012,0.004-0.018,0.005c-0.419,0.146-0.83,0.305-1.236,0.476
			c-0.78,0.35-1.146,1.262-0.812,2.056c0.336,0.797,1.252,1.174,2.052,0.849c2.159-0.917,4.479-1.382,6.854-1.365
			c0.062,0,0.125,0,0.188,0c0.161,0.003,0.321,0.01,0.483,0.017c0.104,0.005,0.202,0.009,0.31,0.016
			c0.147,0.009,0.302,0.021,0.453,0.033c0.104,0.011,0.213,0.021,0.316,0.033c0.104,0.012,0.22,0.019,0.324,0.033
			c0.021,0.001,0.023,0.008,0.044,0.009c0.021,0.003,0.04,0.01,0.062,0.014c0.387,0.076,0.721,0.282,0.944,0.575
			c0.247,0.32,0.375,0.734,0.312,1.167c-0.104,0.866-0.896,1.479-1.767,1.371c-2.487-0.312-4.959,0.027-7.217,0.965l-0.103,0.047
			c-0.793,0.345-1.164,1.264-0.825,2.062c0.339,0.802,1.271,1.182,2.067,0.842c4.604-1.942,9.965-0.539,13.032,3.412
			c3.062,3.951,3.104,9.49,0.08,13.472c-0.526,0.695-0.396,1.688,0.304,2.214c0.688,0.525,1.674,0.393,2.203-0.29l0.178-0.227
			c1.403-1.922,2.312-4.181,2.61-6.607c0.104-0.866,0.896-1.48,1.769-1.372c0.438,0.055,0.81,0.28,1.056,0.6
			c0.229,0.292,0.35,0.666,0.317,1.06c-0.002,0.021,0,0.041-0.002,0.062c0,0.015,0.002,0.029,0,0.044
			c-0.017,0.11-0.031,0.217-0.051,0.326c-0.019,0.105-0.027,0.211-0.048,0.316c-0.021,0.15-0.055,0.299-0.077,0.449
			c-0.021,0.101-0.039,0.201-0.062,0.301c-0.032,0.159-0.062,0.317-0.104,0.475c-0.019,0.061-0.029,0.12-0.046,0.181
			c-0.569,2.303-1.6,4.44-3.021,6.307c-0.518,0.695-0.375,1.675,0.312,2.197c0.688,0.521,1.657,0.393,2.188-0.282
			c0.271-0.351,0.521-0.711,0.771-1.08c0.002-0.004,0.006-0.008,0.01-0.013c0.017-0.017,0.021-0.034,0.033-0.053
			c0.002-0.002,0.004-0.007,0.008-0.01c0.729-1.11,1.354-2.291,1.854-3.529c0-0.003,0.003-0.006,0.008-0.008
			c0-0.002,0.002-0.003,0.002-0.004c0.334-0.8,1.248-1.183,2.054-0.856c0.271,0.108,0.487,0.281,0.649,0.493
			c0.324,0.42,0.433,0.993,0.229,1.521c-0.021,0.051-0.038,0.104-0.062,0.153c-0.079,0.194-0.163,0.387-0.25,0.579
			c-0.04,0.093-0.079,0.185-0.122,0.276c-0.093,0.198-0.188,0.393-0.279,0.587c-0.039,0.082-0.078,0.165-0.119,0.247
			c-0.105,0.216-0.229,0.429-0.344,0.641c-0.029,0.059-0.062,0.119-0.097,0.176c-0.146,0.264-0.301,0.525-0.457,0.783
			c-0.012,0.017-0.021,0.033-0.026,0.05c-0.004,0.005-0.006,0.011-0.012,0.017c-0.122,0.2-0.25,0.398-0.38,0.595
			c-0.024,0.042-0.062,0.084-0.085,0.127c-0.003,0.005-0.007,0.01-0.012,0.015c-0.072,0.11-0.146,0.218-0.229,0.327
			c-0.053,0.071-0.101,0.144-0.146,0.214c-0.021,0.023-0.034,0.047-0.055,0.07c-0.139,0.19-0.271,0.38-0.409,0.567
			c-0.523,0.695-0.394,1.688,0.305,2.214c0.69,0.528,1.688,0.392,2.219-0.303c7.339-9.67,7.263-23.124-0.19-32.719
			c-7.448-9.594-20.471-13-31.646-8.282C413.182,109.476,412.805,110.403,413.143,111.208z M446.061,143.572
			c-0.03,0.078-0.065,0.156-0.104,0.233C445.993,143.728,446.026,143.65,446.061,143.572z M445.653,144.439
			c-0.035,0.067-0.064,0.136-0.104,0.203C445.586,144.575,445.618,144.506,445.653,144.439z M445.191,145.324
			c-0.023,0.045-0.052,0.092-0.074,0.138C445.143,145.417,445.167,145.369,445.191,145.324z M446.331,142.944
			c0.021-0.044,0.035-0.09,0.06-0.135c-0.005,0.012-0.011,0.024-0.017,0.037C446.357,142.879,446.344,142.911,446.331,142.944z"/>
		<path fill="#363532" d="M443.292,148.252c0.006-0.009,0.019-0.015,0.021-0.023c0.138-0.176,0.265-0.354,0.394-0.535
			C443.566,147.882,443.43,148.068,443.292,148.252z"/>
	</g>
	<g id="mouse">
		<path opacity="0.8" fill="#2980B9" enable-background="new    " d="M975.604,483.257c-0.004-0.003-0.016-0.009-0.02-0.011
			c-9.787-7.229-23.592-5.188-30.863,4.562c-0.033,0.043-0.069,0.081-0.102,0.119l-0.121,0.162l-24.629,33.294
			c-0.062,0.087-0.172,0.298-0.242,0.372l-1.271,1.764l0.006,0.007c-7.248,9.894-5.045,23.509,4.727,30.729
			c9.816,7.261,23.707,5.104,30.896-4.615l26.223-35.457C987.466,504.382,985.421,490.518,975.604,483.257z"/>
		<g>
			<g>
				<path fill="#CCD1D9" d="M950.519,487.136c-0.026,0.043-0.065,0.081-0.102,0.12l-0.119,0.161l-24.629,33.294
					c-0.062,0.087-0.121,0.182-0.191,0.258l-1.219,1.646l0.004,0.002c-7.319,10.055-5.096,23.624,4.675,30.851l52.45-70.9
					C971.589,475.337,957.792,477.383,950.519,487.136z"/>
				<path fill="#E6E9ED" d="M981.396,482.579c-0.007-0.003-0.019-0.008-0.021-0.011l-52.447,70.902
					c9.814,7.266,23.683,5.163,30.869-4.558l-0.086-0.065c-0.002-0.001-0.002-0.001-0.002-0.001s0,0,0.002,0.001l0.086,0.065
					l26.207-35.429C993.271,503.675,991.212,489.841,981.396,482.579z"/>
			</g>
		</g>
	</g>
	<g id="iphone">
		<path opacity="0.8" fill="#2980B9" enable-background="new    " d="M960.569,182.469l38.502-44.066
			c3.021-3.461,2.666-8.77-0.797-11.794l-88.14-77.004c-3.463-3.025-8.77-2.666-11.793,0.796l-38.5,44.065
			c-3.021,3.462-2.67,8.768,0.793,11.795l88.131,77.003C952.233,186.288,957.544,185.932,960.569,182.469z"/>
		<path fill="#434A54" d="M903.87,49.304l-38.5,44.066c-3.025,3.461-2.67,8.769,0.793,11.794l88.131,77.003
			c3.461,3.025,8.771,2.668,11.795-0.796l38.504-44.065c3.023-3.461,2.666-8.77-0.797-11.795l-88.131-77.002
			C912.202,45.485,906.896,45.843,903.87,49.304z"/>
		<path fill="#586273" d="M991.999,126.306l-38.5,44.067l-81.826-71.492c0-0.007,0-0.015,0-0.021l38.482-44.042
			c0.006-0.003,0.014-0.002,0.021-0.003L991.999,126.306z"/>
		
			<rect x="972.904" y="151.825" transform="matrix(-0.658 0.753 -0.753 -0.658 1739.3875 -482.1246)" fill="#434A54" width="12.539" height="4.176"/>
		<path fill="#F7F9F8" d="M871.673,98.859c0,0.007,0,0.015,0,0.021l81.826,71.492l38.5-44.067l-81.822-71.492
			c-0.008,0.001-0.016,0-0.021,0.003L871.673,98.859z"/>
		<path fill="#44C650" d="M935.56,93.342l-5.475-2.599c-0.57-0.273-1.512-0.283-2.088-0.021l-9.244,4.342
			c-0.004,0.002-0.008,0.005-0.012,0.007l-1.287-1.126c-0.394-2.214-1.728-4.557-3.855-6.419l-1.717-1.5
			c-3.028-2.647-7.516-2.466-10.021,0.4l0,0l0,0l0,0c-2.519,2.868-2.08,7.34,0.938,9.987l1.726,1.499
			c2.135,1.862,4.635,2.868,6.881,2.957l1.287,1.126c0,0.002-0.013,0.008-0.019,0.011l-3.061,9.745
			c-0.188,0.604-0.045,1.533,0.303,2.064l3.312,5.075c0.348,0.527,0.971,0.572,1.385,0.096l10.604-12.143l0,0L935.827,94.7
			C936.255,94.225,936.13,93.614,935.56,93.342z"/>
		
			<rect x="918.805" y="112.386" transform="matrix(-0.6579 0.7531 -0.7531 -0.6579 1641.0388 -511.6985)" fill="#DCE4E8" width="35.868" height="8.969"/>
		
			<rect x="929.04" y="121.365" transform="matrix(-0.658 0.753 -0.753 -0.658 1664.8524 -504.4166)" fill="#DCE4E8" width="35.861" height="8.969"/>
		
			<rect x="947.922" y="130.244" transform="matrix(-0.658 0.753 -0.753 -0.658 1687.9792 -497.1697)" fill="#DCE4E8" width="17.933" height="8.964"/>
		<circle fill="#586273" cx="937.946" cy="136.03" r="1.682"/>
		<circle fill="#586273" cx="943.847" cy="129.277" r="1.681"/>
		<circle fill="#586273" cx="940.896" cy="132.653" r="1.681"/>
		<path fill="#586273" d="M947.903,124.634c0.688,0.611,0.768,1.672,0.147,2.373c-0.604,0.699-1.676,0.771-2.373,0.16
			c-0.688-0.611-0.77-1.674-0.149-2.374C946.142,124.097,947.204,124.025,947.903,124.634z"/>
		<circle fill="#586273" cx="927.815" cy="127.179" r="1.681"/>
		<circle fill="#586273" cx="939.618" cy="113.674" r="1.681"/>
		<circle fill="#586273" cx="933.716" cy="120.427" r="1.681"/>
		<circle fill="#586273" cx="930.767" cy="123.804" r="1.681"/>
		<circle fill="#586273" cx="936.667" cy="117.051" r="1.682"/>
		
			<rect x="952.596" y="133.551" transform="matrix(-0.6578 0.7532 -0.7532 -0.6578 1688.2615 -497.2178)" fill="#E74C3C" width="8.965" height="2.693"/>
		<path fill="none" d="M903.87,49.305l-29.883,34.212l113.553,73.266l17.053-19.475c3.025-3.461,2.666-8.771-0.797-11.795
			L915.665,48.51C912.202,45.485,906.896,45.843,903.87,49.305z"/>
	</g>
	<g id="matita1">
		<polygon opacity="0.8" fill="#2980B9" enable-background="new    " points="1117.845,318.321 1055.812,190.27 1050.479,192.855 
			1045.142,195.44 1107.175,323.49 1112.511,320.906 		"/>
		<polygon fill="#2980B9" points="1121.599,336.266 1117.845,318.321 1107.175,323.49 1118.931,337.561 1122.851,342.246 		"/>
		<g>
			<g>
				<polygon fill="#58585C" points="1116.608,319.809 1057.161,197.096 1054.577,191.76 1049.239,194.346 1111.274,322.395 				"/>
				<polygon fill="#58585C" points="1116.608,319.809 1121.944,317.227 1059.911,189.174 1054.577,191.76 1057.161,197.096 				"/>
			</g>
			<g>
				<polygon fill="#464E5C" points="1126.948,341.152 1125.696,335.17 1123.028,336.465 				"/>
				<polygon fill="#F7D39A" points="1125.696,335.17 1121.944,317.227 1111.274,322.395 1123.028,336.465 				"/>
			</g>
			<g>
				
					<rect x="1056.362" y="205.545" transform="matrix(0.8998 -0.4362 0.4362 0.8998 15.7634 484.1935)" fill="#DA4453" width="11.86" height="4.448"/>
			</g>
		</g>
	</g>
	<g id="foglio2">
		<g>
			<g opacity="0.8">
				<g>
					<polygon fill="#2980B9" points="165.448,6.97 141.341,195.495 292.062,214.769 316.17,26.243 317.776,13.683 167.054,-5.591 
											"/>
				</g>
			</g>
			<g>
				<g>
					
						<rect x="156.327" y="13.097" transform="matrix(-0.9919 -0.1268 0.1268 -0.9919 449.0052 244.8229)" fill="#EBF4FF" width="151.936" height="190.046"/>
				</g>
			</g>
			<g>
				<g>
					
						<rect x="169.181" y="1.246" transform="matrix(-0.9919 -0.1268 0.1268 -0.9919 487.3586 46.1786)" fill="#44C650" width="151.936" height="12.662"/>
				</g>
			</g>
			<g>
				<g>
					
						<rect x="203.276" y="79.577" transform="matrix(0.9919 0.1268 -0.1268 0.9919 12.5835 -25.8822)" fill="none" width="12.663" height="12.662"/>
				</g>
			</g>
			<g>
				<g>
					
						<rect x="225.68" y="81.994" transform="matrix(-0.9919 -0.1268 0.1268 -0.9919 445.0433 198.6513)" fill="none" width="6.33" height="6.331"/>
				</g>
			</g>
			<g>
				<g>
					
						<rect x="180.365" y="65.451" transform="matrix(-0.9919 -0.1268 0.1268 -0.9919 413.6933 160.4033)" fill="#434A54" width="63.175" height="3.166"/>
				</g>
			</g>
			<g>
				<g>
					
						<rect x="249.533" y="72.882" transform="matrix(-0.9919 -0.1268 0.1268 -0.9919 528.5918 182.581)" fill="#3498DB" width="41.15" height="3.166"/>
				</g>
			</g>
			<g>
				<g>
					
						<rect x="173.04" y="74.75" transform="matrix(-0.9919 -0.1268 0.1268 -0.9919 457.9534 181.8181)" fill="#3498DB" width="123.448" height="3.166"/>
				</g>
			</g>
			<g>
				<g>
					
						<rect x="178.883" y="76.016" transform="matrix(-0.9919 -0.1268 0.1268 -0.9919 378.0093 179.2588)" fill="#3498DB" width="31.653" height="3.165"/>
				</g>
			</g>
			<g>
				<g>
					
						<rect x="216.632" y="79.648" transform="matrix(-0.9919 -0.1269 0.1269 -0.9919 433.8134 190.1009)" fill="#434A54" width="12.662" height="3.166"/>
				</g>
			</g>
			<g>
				<g>
					
						<rect x="235.314" y="84.642" transform="matrix(-0.9919 -0.1268 0.1268 -0.9919 511.3906 205.0017)" fill="#3498DB" width="53.813" height="3.165"/>
				</g>
			</g>
			<g>
				<g>
					
						<rect x="163.042" y="125.048" transform="matrix(-0.9919 -0.1268 0.1268 -0.9919 340.2385 274.9185)" fill="#434A54" width="31.654" height="3.165"/>
				</g>
			</g>
			<g>
				<g>
					
						<rect x="161.48" y="136.818" transform="matrix(-0.9919 -0.1269 0.1269 -0.9919 323.0048 297.3793)" fill="#434A54" width="18.991" height="3.165"/>
				</g>
			</g>
			<g>
				<g>
					
						<rect x="186.624" y="139.627" transform="matrix(-0.9919 -0.1269 0.1269 -0.9919 366.4331 305.7621)" fill="#434A54" width="12.661" height="3.166"/>
				</g>
			</g>
			<g>
				<g>
					
						<rect x="162.265" y="130.925" transform="matrix(-0.9919 -0.1268 0.1268 -0.9919 331.6418 286.1255)" fill="#434A54" width="25.325" height="3.166"/>
				</g>
			</g>
			<g>
				<g>
					
						<rect x="160.636" y="143.886" transform="matrix(-0.9919 -0.1268 0.1268 -0.9919 333.0544 312.1417)" fill="#434A54" width="31.654" height="3.166"/>
				</g>
			</g>
			<g>
				<g>
					
						<rect x="165.818" y="89.24" transform="matrix(-0.9919 -0.1269 0.1269 -0.9919 354.7939 232.7387)" fill="#CCD1D9" width="37.985" height="31.655"/>
				</g>
			</g>
			<g>
				<g>
					
						<rect x="208.51" y="144.032" transform="matrix(-0.9919 -0.1268 0.1268 -0.9919 434.7029 318.9012)" fill="#434A54" width="37.984" height="3.166"/>
				</g>
			</g>
			<g>
				<g>
					
						<rect x="207.807" y="148.706" transform="matrix(-0.9919 -0.1268 0.1268 -0.9919 407.4918 326.5176)" fill="#434A54" width="12.662" height="3.166"/>
				</g>
			</g>
			<g>
				<g>
					
						<rect x="226.664" y="150.729" transform="matrix(-0.9919 -0.127 0.127 -0.9919 438.4612 332.5707)" fill="#434A54" width="6.331" height="3.166"/>
				</g>
			</g>
			<g>
				<g>
					
						<rect x="209.394" y="136.541" transform="matrix(-0.9919 -0.1268 0.1268 -0.9919 418.5015 302.8855)" fill="#434A54" width="18.994" height="3.165"/>
				</g>
			</g>
			<g>
				<g>
					
						<rect x="234.535" y="139.357" transform="matrix(-0.9919 -0.1268 0.1268 -0.9919 461.9127 311.2859)" fill="#434A54" width="12.66" height="3.166"/>
				</g>
			</g>
			<g>
				<g>
					
						<rect x="210.141" y="131.068" transform="matrix(-0.9919 -0.1268 0.1268 -0.9919 433.291 292.8852)" fill="#434A54" width="31.653" height="3.166"/>
				</g>
			</g>
			<g>
				<g>
					
						<rect x="212.926" y="95.244" transform="matrix(-0.9919 -0.1268 0.1268 -0.9919 447.8805 250.6526)" fill="#CCD1D9" width="37.984" height="31.653"/>
				</g>
			</g>
			<g>
				<g>
					
						<rect x="257.214" y="137.494" transform="matrix(-0.9919 -0.1268 0.1268 -0.9919 532.548 312.0526)" fill="#434A54" width="37.984" height="3.165"/>
				</g>
			</g>
			<g>
				<g>
					
						<rect x="255.647" y="149.274" transform="matrix(-0.9919 -0.1269 0.1269 -0.9919 515.3058 334.5432)" fill="#434A54" width="25.325" height="3.165"/>
				</g>
			</g>
			<g>
				<g>
					
						<rect x="257.513" y="142.168" transform="matrix(-0.9919 -0.1268 0.1268 -0.9919 507.3309 319.7947)" fill="#434A54" width="12.662" height="3.165"/>
				</g>
			</g>
			<g>
				<g>
					
						<rect x="254.88" y="155.132" transform="matrix(-0.9919 -0.1268 0.1268 -0.9919 506.7428 345.6928)" fill="#434A54" width="18.992" height="3.166"/>
				</g>
			</g>
			<g>
				<g>
					
						<rect x="280.02" y="157.947" transform="matrix(-0.9919 -0.1268 0.1268 -0.9919 550.1602 354.0833)" fill="#434A54" width="12.661" height="3.166"/>
				</g>
			</g>
			<g>
				<g>
					
						<rect x="275.32" y="144.995" transform="matrix(-0.9919 -0.1269 0.1269 -0.9919 548.7238 328.1204)" fill="#434A54" width="18.992" height="3.165"/>
				</g>
			</g>
			<g>
				<g>
					
						<rect x="260.026" y="101.269" transform="matrix(-0.9919 -0.1268 0.1268 -0.9919 540.9342 268.6259)" fill="#CCD1D9" width="37.983" height="31.653"/>
				</g>
			</g>
			<g>
				<g>
					
						<rect x="173.057" y="45.206" transform="matrix(-0.9919 -0.1268 0.1268 -0.9919 470.5884 133.032)" fill="#CCD1D9" width="132.944" height="12.662"/>
				</g>
			</g>
			<g>
				<g>
					<g>
						
							<rect x="180.108" y="43.211" transform="matrix(-0.9919 -0.1268 0.1268 -0.9919 366.3246 112.9074)" fill="#E5E5E5" width="13.296" height="3.166"/>
					</g>
				</g>
			</g>
			<g>
				<g>
					<g>
						
							<rect x="199.839" y="41.84" transform="matrix(-0.9919 -0.1268 0.1268 -0.9919 418.4431 122.9805)" fill="#434A54" width="26.595" height="12.661"/>
					</g>
				</g>
				<g>
					<g>
						
							<rect x="206.487" y="46.583" transform="matrix(-0.9919 -0.1268 0.1268 -0.9919 418.4421 122.9688)" fill="#E5E5E5" width="13.296" height="3.165"/>
					</g>
				</g>
			</g>
			<g>
				<g>
					<g>
						
							<rect x="232.863" y="49.979" transform="matrix(-0.9919 -0.1269 0.1269 -0.9919 470.5427 133.1032)" fill="#E5E5E5" width="13.297" height="3.165"/>
					</g>
				</g>
			</g>
			<g>
				<g>
					<g>
						
							<rect x="259.245" y="53.337" transform="matrix(-0.9919 -0.1268 0.1268 -0.9919 522.6771 143.1105)" fill="#E5E5E5" width="13.297" height="3.165"/>
					</g>
				</g>
			</g>
			<g>
				<g>
					<g>
						
							<rect x="285.628" y="56.701" transform="matrix(-0.9919 -0.1268 0.1268 -0.9919 574.8022 153.1599)" fill="#E5E5E5" width="13.296" height="3.166"/>
					</g>
				</g>
			</g>
			<g>
				<g>
					<g>
						
							<rect x="178.833" y="27.902" transform="matrix(-0.9919 -0.1268 0.1268 -0.9919 428.1455 86.2243)" fill="#CCD1D9" width="75.968" height="3.165"/>
					</g>
				</g>
				<g>
					<g>
						
							<rect x="179.864" y="18.01" transform="matrix(-0.9919 -0.1268 0.1268 -0.9919 374.7063 63.0383)" fill="#CCD1D9" width="18.992" height="3.166"/>
					</g>
				</g>
			</g>
			<g>
				<g>
					
						<rect x="156.984" y="164.599" transform="matrix(-0.9919 -0.1268 0.1268 -0.9919 422.6337 381.4251)" fill="#CCD1D9" width="132.946" height="25.324"/>
				</g>
			</g>
		</g>
	</g>
	<g id="foglio1">
		
			<rect x="-6.746" y="-6.918" transform="matrix(-0.9495 0.3137 -0.3137 -0.9495 173.4517 180.5051)" fill="#2980B9" width="157.898" height="222.252"/>
		<g>
			<g>
				<g>
					<g>
						
							<rect x="-36.791" y="25.928" transform="matrix(-0.3137 -0.9495 0.9495 -0.3137 -1.9261 208.3618)" fill="#F7F9F8" width="222.255" height="157.897"/>
					</g>
				</g>
			</g>
			<g>
				
					<rect x="68.787" y="47.842" transform="matrix(-0.9495 0.3137 -0.3137 -0.9495 205.5999 68.5985)" fill="#B7BFC7" width="56.987" height="5.999"/>
				
					<rect x="71.925" y="57.334" transform="matrix(-0.9495 0.3137 -0.3137 -0.9495 214.6957 86.12)" fill="#DCE4E8" width="56.987" height="6.001"/>
				
					<rect x="75.064" y="66.831" transform="matrix(-0.9495 0.3137 -0.3137 -0.9495 223.7938 103.6504)" fill="#DCE4E8" width="56.987" height="6"/>
				
					<rect x="78.197" y="76.325" transform="matrix(-0.9495 0.3137 -0.3137 -0.9495 232.878 121.1771)" fill="#DCE4E8" width="56.985" height="6"/>
			</g>
			
				<rect x="-12.218" y="41.879" transform="matrix(-0.9495 0.3137 -0.3137 -0.9495 120.8405 70.3113)" fill="#DCE4E8" width="133.962" height="5.999"/>
			
				<rect x="-18.49" y="12.896" transform="matrix(-0.9495 0.3137 -0.3137 -0.9495 102.6574 35.2636)" fill="#B7BFC7" width="133.962" height="25.991"/>
			<g>
				
					<rect x="9.112" y="106.444" transform="matrix(-0.9495 0.3137 -0.3137 -0.9495 182.6797 189.4917)" fill="#DCE4E8" width="133.963" height="6"/>
				
					<rect x="12.251" y="115.937" transform="matrix(-0.9495 0.3137 -0.3137 -0.9495 191.7772 207.0163)" fill="#DCE4E8" width="133.963" height="6.002"/>
				
					<rect x="15.39" y="125.435" transform="matrix(-0.9495 0.3137 -0.3137 -0.9495 200.8736 224.5454)" fill="#DCE4E8" width="133.96" height="5.999"/>
			</g>
			<g>
				
					<rect x="33.581" y="180.503" transform="matrix(-0.9495 0.3137 -0.3137 -0.9495 253.6146 326.1963)" fill="#DCE4E8" width="133.963" height="6.001"/>
				
					<rect x="37.471" y="194.701" transform="matrix(-0.9495 0.3137 -0.3137 -0.9495 236.4215 357.3585)" fill="#DCE4E8" width="103.975" height="6.001"/>
			</g>
			<g>
				
					<rect x="22.472" y="150.531" transform="matrix(-0.9495 0.3137 -0.3137 -0.9495 178.7021 278.3056)" fill="#B7BFC7" width="88.975" height="5.999"/>
				
					<rect x="25.611" y="160.029" transform="matrix(-0.9495 0.3137 -0.3137 -0.9495 187.8002 295.8351)" fill="#DCE4E8" width="88.974" height="5.998"/>
				
					<rect x="28.755" y="169.523" transform="matrix(-0.9495 0.3137 -0.3137 -0.9495 196.9096 313.3599)" fill="#DCE4E8" width="88.974" height="5.999"/>
				
					<rect x="120.959" y="127.455" transform="matrix(-0.9496 0.3136 -0.3136 -0.9496 313.9923 230.4147)" fill="#44C650" width="35.014" height="26.009"/>
			</g>
			<g>
				
					<rect x="1.639" y="79.094" transform="matrix(-0.9495 0.3137 -0.3137 -0.9495 40.4795 187.6692)" fill="#DCE4E8" width="7.001" height="35.994"/>
				
					<rect x="11.127" y="75.941" transform="matrix(-0.9495 0.3138 -0.3138 -0.9495 57.9964 178.5541)" fill="#DCE4E8" width="7" height="36.008"/>
				
					<rect x="20.618" y="72.798" transform="matrix(-0.9495 0.3138 -0.3138 -0.9495 75.5124 169.4478)" fill="#DCE4E8" width="7" height="36.008"/>
				
					<rect x="30.121" y="69.67" transform="matrix(-0.9495 0.3138 -0.3138 -0.9495 93.0552 160.3558)" fill="#DCE4E8" width="7" height="35.996"/>
				
					<rect x="39.598" y="66.544" transform="matrix(-0.9495 0.3137 -0.3137 -0.9495 110.536 151.2908)" fill="#DCE4E8" width="6.999" height="35.988"/>
				
					<rect x="49.089" y="63.397" transform="matrix(-0.9496 0.3134 -0.3134 -0.9496 128.036 142.2107)" fill="#DCE4E8" width="6.999" height="35.997"/>
				
					<rect x="58.618" y="60.254" transform="matrix(-0.9495 0.3138 -0.3138 -0.9495 145.6535 133.0578)" fill="#DCE4E8" width="7.001" height="35.995"/>
				
					<rect x="4.791" y="98.585" transform="matrix(-0.9496 0.3134 -0.3134 -0.9496 49.5701 205.201)" fill="#E74C3C" width="7.002" height="15.999"/>
				
					<rect x="13.795" y="92.505" transform="matrix(-0.9495 0.3137 -0.3137 -0.9495 65.7183 193.4308)" fill="#E74C3C" width="6.999" height="18.998"/>
				
					<rect x="24.38" y="96.206" transform="matrix(-0.9495 0.3138 -0.3138 -0.9495 86.4196 190.505)" fill="#E74C3C" width="7" height="12.001"/>
				
					<rect x="32.31" y="83.319" transform="matrix(-0.9495 0.3137 -0.3137 -0.9495 99.4022 172.6369)" fill="#E74C3C" width="6.999" height="21.997"/>
				
					<rect x="41.175" y="76.278" transform="matrix(-0.9495 0.3137 -0.3137 -0.9495 115.102 160.0424)" fill="#E74C3C" width="7.002" height="26.006"/>
				
					<rect x="53.814" y="92.627" transform="matrix(-0.9495 0.3138 -0.3138 -0.9495 141.7374 168.4424)" fill="#E74C3C" width="7" height="5.999"/>
				
					<rect x="61.718" y="79.764" transform="matrix(-0.9496 0.3134 -0.3134 -0.9496 154.6573 150.6689)" fill="#E74C3C" width="7.002" height="15.999"/>
			</g>
		</g>
	</g>
	<g id="occhiali">
		<g>
			<g>
				<path fill="#586273" d="M134.9,123.489c-1.324-0.233-2.208-1.495-1.975-2.817c1.628-9.25-4.572-18.098-13.821-19.726
					L32.842,85.758c-1.323-0.233-2.207-1.495-1.974-2.818c0.233-1.323,1.495-2.208,2.817-1.975l86.262,15.186
					c11.892,2.094,19.863,13.471,17.77,25.363C137.483,122.837,136.222,123.722,134.9,123.489z"/>
			</g>
		</g>
		<g>
			<g>
				<g>
					<path fill="#586273" d="M134.9,123.489c-1.324-0.233-2.208-1.495-1.975-2.817c1.628-9.25-4.572-18.098-13.821-19.726
						L32.842,85.758c-1.323-0.233-2.207-1.495-1.974-2.818c0.233-1.323,1.495-2.208,2.817-1.975l86.262,15.186
						c11.892,2.094,19.863,13.471,17.77,25.363C137.483,122.837,136.222,123.722,134.9,123.489z"/>
				</g>
			</g>
			<g>
				<g>
					<path fill="#586273" d="M39.051,106.614c-1.323-0.232-2.206-1.495-1.973-2.817c2.094-11.892,13.471-19.863,25.362-17.77
						l86.262,15.187c1.323,0.233,2.208,1.495,1.974,2.818c-0.232,1.323-1.494,2.208-2.817,1.974L61.596,90.82
						c-9.248-1.628-18.098,4.571-19.727,13.82C41.637,105.963,40.375,106.848,39.051,106.614z"/>
				</g>
			</g>
		</g>
		<g opacity="0.3">
			<g>
				<g>
					<path fill="#EFEEEE" d="M77.812,110.969c-0.928,5.271-5.999,8.825-11.271,7.897l-28.755-5.062
						c-5.27-0.928-8.825-6-7.896-11.271l3.374-19.17c0.929-5.272,6.001-8.825,11.271-7.897l28.755,5.062
						c5.272,0.928,8.824,6,7.896,11.272L77.812,110.969z"/>
				</g>
			</g>
		</g>
		<g opacity="0.3">
			<g>
				<g>
					<path fill="#EFEEEE" d="M144.905,122.78c-0.928,5.271-6,8.826-11.271,7.896l-28.756-5.062
						c-5.272-0.928-8.826-6.001-7.897-11.272l3.375-19.169c0.928-5.272,6-8.826,11.272-7.897l28.755,5.062
						c5.271,0.928,8.825,6,7.896,11.272L144.905,122.78z"/>
				</g>
			</g>
		</g>
		<g>
			<g>
				<path fill="#586273" d="M97.403,111.948c-1.323-0.233-2.207-1.495-1.974-2.819c0.698-3.964-1.959-7.756-5.923-8.454
					c-3.963-0.698-7.756,1.959-8.454,5.923c-0.233,1.323-1.493,2.208-2.818,1.975c-1.322-0.232-2.206-1.495-1.974-2.818
					c1.164-6.606,7.484-11.035,14.09-9.872c6.607,1.163,11.035,7.485,9.872,14.09C99.989,111.296,98.727,112.181,97.403,111.948z"/>
			</g>
		</g>
		<g opacity="0.3">
			<path fill="#EFEEEE" d="M44.473,75.82c-5.271-0.928-10.212,2.282-11.14,7.554l-3.375,19.17
				c-0.928,5.271,2.483,10.758,7.753,11.686l14.121,2.486l6.762-38.409L44.473,75.82z"/>
		</g>
		<g opacity="0.3">
			<path fill="#EFEEEE" d="M111.566,87.632c-5.273-0.928-9.351,2.433-10.279,7.706l-3.375,19.168
				c-0.927,5.272,1.619,10.606,6.892,11.535l13.998,2.465l6.762-38.41L111.566,87.632z"/>
		</g>
		<g>
			<g>
				<path fill="none" d="M139.961,94.736l-28.755-5.062c-3.963-0.698-7.756,1.958-8.454,5.922l-3.375,19.169
					c-0.698,3.963,1.959,7.757,5.923,8.455l28.755,5.062c3.963,0.697,7.754-1.961,8.452-5.924l3.375-19.169
					C146.581,99.224,143.925,95.433,139.961,94.736z"/>
			</g>
			<g>
				<path fill="none" d="M72.868,82.924l-28.755-5.062c-3.962-0.698-7.755,1.958-8.454,5.922l-3.375,19.169
					c-0.697,3.963,1.961,7.757,5.923,8.455l28.755,5.062c3.964,0.697,7.756-1.96,8.454-5.924l3.375-19.169
					C79.489,87.414,76.832,83.622,72.868,82.924z"/>
			</g>
			<g>
				<path fill="#586273" d="M73.712,78.13l-28.755-5.062c-6.605-1.163-12.926,3.266-14.089,9.873l-3.375,19.169
					c-1.163,6.606,3.266,12.927,9.871,14.09l28.755,5.062c6.604,1.162,12.925-3.266,14.088-9.872l3.375-19.169
					C84.746,85.613,80.318,79.293,73.712,78.13z M75.417,110.547c-0.698,3.963-4.49,6.621-8.454,5.924l-28.755-5.062
					c-3.962-0.698-6.62-4.492-5.923-8.455l3.375-19.169c0.698-3.964,4.491-6.62,8.454-5.922l28.755,5.062
					c3.964,0.698,6.621,4.49,5.923,8.454L75.417,110.547z"/>
			</g>
			<g>
				<path fill="#586273" d="M140.806,89.942L112.05,84.88c-6.607-1.163-12.926,3.265-14.09,9.873l-3.375,19.168
					c-1.164,6.607,3.264,12.928,9.872,14.09l28.755,5.062c6.605,1.163,12.926-3.265,14.089-9.872l3.375-19.169
					C151.839,97.426,147.411,91.105,140.806,89.942z M142.508,122.358c-0.698,3.963-4.489,6.621-8.452,5.924l-28.755-5.062
					c-3.963-0.697-6.621-4.492-5.923-8.455l3.375-19.169c0.698-3.964,4.491-6.62,8.454-5.922l28.755,5.062
					c3.963,0.697,6.619,4.488,5.921,8.453L142.508,122.358z"/>
			</g>
		</g>
	</g>
	<g id="calcolatrice">
		<path opacity="0.8" fill="#2980B9" enable-background="new    " d="M1185.925,36.422l-33.881-36.096
			c-2.635-2.807-7.088-2.948-9.895-0.313l-53.904,50.597c-2.812,2.635-2.947,7.087-0.312,9.895l33.882,36.096
			c2.641,2.807,7.09,2.947,9.896,0.312l53.906-50.596C1188.419,43.682,1188.561,39.229,1185.925,36.422z"/>
		<g>
			<path fill="#F7F9F8" d="M1092.245,50.61c-2.812,2.635-2.947,7.087-0.312,9.895l33.882,36.096c2.641,2.807,7.09,2.947,9.896,0.312
				l53.906-50.596c2.807-2.635,2.94-7.087,0.311-9.895l-33.881-36.096c-2.635-2.807-7.088-2.948-9.896-0.313L1092.245,50.61z"/>
			<g>
				
					<rect x="1128.658" y="22.072" transform="matrix(-0.6844 -0.7291 0.7291 -0.6844 1889.5039 871.351)" fill="#E74C3C" width="9.346" height="9.349"/>
				
					<rect x="1138.273" y="32.265" transform="matrix(-0.6844 -0.7291 0.7291 -0.6844 1898.2751 895.5229)" fill="#E74C3C" width="9.347" height="9.344"/>
				
					<rect x="1147.849" y="42.54" transform="matrix(-0.6844 -0.7291 0.7291 -0.6844 1906.8861 919.838)" fill="#E74C3C" width="9.349" height="9.346"/>
				
					<rect x="1157.444" y="52.766" transform="matrix(-0.6844 -0.7291 0.7291 -0.6844 1915.5923 944.0587)" fill="#E74C3C" width="9.349" height="9.346"/>
				
					<rect x="1118.472" y="31.551" transform="matrix(-0.6845 -0.729 0.729 -0.6845 1865.5056 879.8305)" fill="#E74C3C" width="9.348" height="9.346"/>
				
					<rect x="1128.064" y="41.874" transform="matrix(-0.6844 -0.7291 0.7291 -0.6844 1874.0665 904.27)" fill="#E74C3C" width="9.346" height="9.345"/>
				
					<rect x="1137.64" y="52.055" transform="matrix(-0.6843 -0.7292 0.7292 -0.6843 1882.6505 928.5066)" fill="#E74C3C" width="9.347" height="9.345"/>
				
					<rect x="1147.302" y="62.313" transform="matrix(-0.6844 -0.7291 0.7291 -0.6844 1891.5701 952.7242)" fill="#E74C3C" width="9.346" height="9.346"/>
				
					<rect x="1108.137" y="41.286" transform="matrix(-0.6844 -0.7291 0.7291 -0.6844 1840.929 888.7543)" fill="#E74C3C" width="9.346" height="9.348"/>
				
					<rect x="1117.86" y="51.471" transform="matrix(-0.6844 -0.7291 0.7291 -0.6844 1849.8047 913.0595)" fill="#E74C3C" width="9.342" height="9.348"/>
				
					<rect x="1127.434" y="61.68" transform="matrix(-0.6844 -0.7291 0.7291 -0.6844 1858.5341 937.2006)" fill="#E74C3C" width="9.346" height="9.347"/>
				
					<rect x="1137.005" y="71.966" transform="matrix(-0.6844 -0.7291 0.7291 -0.6844 1867.1666 961.498)" fill="#E74C3C" width="9.349" height="9.347"/>
				
					<rect x="1098.018" y="50.828" transform="matrix(-0.6845 -0.729 0.729 -0.6845 1817.0164 897.3707)" fill="#E74C3C" width="9.345" height="9.347"/>
				
					<rect x="1107.662" y="61.122" transform="matrix(-0.6846 -0.729 0.729 -0.6846 1825.824 921.6862)" fill="#E74C3C" width="9.345" height="9.345"/>
				
					<rect x="1114.917" y="76.444" transform="matrix(-0.6844 -0.7291 0.7291 -0.6844 1838.4929 958.0514)" fill="#656D78" width="23.366" height="9.346"/>
			</g>
			
				<rect x="1135.666" y="19.931" transform="matrix(-0.6844 -0.7291 0.7291 -0.6844 1934.8682 896.0665)" fill="#2C3E50" width="51.402" height="18.691"/>
			
				<rect x="1165.444" y="31.421" transform="matrix(-0.6843 -0.7292 0.7292 -0.6843 1940.5503 912.3571)" fill="#ECF0F1" width="4.672" height="9.344"/>
			
				<rect x="1171.763" y="38.156" transform="matrix(-0.6847 -0.7288 0.7288 -0.6847 1946.814 927.8494)" fill="#ECF0F1" width="4.674" height="9.349"/>
			
				<rect x="1152.662" y="17.801" transform="matrix(-0.6842 -0.7293 0.7293 -0.6842 1928.8503 880.1953)" fill="#ECF0F1" width="4.676" height="9.346"/>
			
				<rect x="1159.005" y="24.649" transform="matrix(-0.6845 -0.729 0.729 -0.6845 1934.8984 896.0297)" fill="#ECF0F1" width="4.672" height="9.348"/>
		</g>
	</g>
	<text id="hello" transform="matrix(1 0 0 1 30.7061 388.209)" fill="#ECF0F1" font-family="'Roboto-Black'" font-size="120">hello</text>
	<g id="subtitle">
		
			<text id="scrolldown" transform="matrix(1 0 0 1 409.5747 388.209)" fill="#F5ECD9" font-family="'Roboto-Regular'" font-size="14">scroll down</text>
		
			<text id="viewresume" transform="matrix(1 0 0 1 484.1748 388.209)" fill="#F5ECD9" font-family="'Roboto-Regular'" font-size="14">or just view my resume.</text>
	</g>
</g>
<g id="scrollthing">
	<rect x="969.689" y="-206.661" fill="#4CAEE5" width="14.722" height="170.528"/>
	<g id="moving">
		<rect id="scrollertop" x="971.3" y="-204.409" fill="#3498DB" width="11.501" height="81.576"/>
		<g id="cursor">
			<g>
				<polygon fill="#4CAEE5" points="949.01,-168.324 949.01,-167.301 944.918,-167.301 944.918,-165.409 944.866,-165.392 
					943.912,-165.392 943.912,-168.324 943.918,-168.324 944.918,-168.324 946.887,-168.324 946.887,-169.15 947.876,-169.15 
					947.876,-168.324 				"/>
				<polygon fill="#4CAEE5" points="947.851,-161.523 947.851,-159.579 946.845,-159.579 946.845,-159.581 946.845,-161.523 
					946.862,-161.523 				"/>
				<rect x="945.889" y="-170.146" fill="#4CAEE5" width="0.988" height="0.988"/>
				<polygon fill="#4CAEE5" points="946.862,-163.465 946.862,-161.523 946.845,-161.523 945.856,-161.523 945.856,-163.465 
					945.872,-163.465 				"/>
				<polygon fill="#4CAEE5" points="946.845,-159.579 946.845,-158.574 944.9,-158.574 944.9,-159.579 944.906,-159.581 
					946.845,-159.581 				"/>
				<rect x="944.892" y="-171.144" fill="#4CAEE5" width="0.988" height="0.988"/>
				<polygon fill="#4CAEE5" points="945.872,-165.409 945.872,-163.465 945.856,-163.465 944.866,-163.465 944.866,-165.392 
					944.918,-165.409 				"/>
				<polygon fill="#4CAEE5" points="944.906,-161.523 944.906,-159.581 944.9,-159.579 943.9,-159.579 943.9,-161.523 				"/>
				<rect x="943.896" y="-172.141" fill="#4CAEE5" width="0.985" height="0.988"/>
				<polygon fill="#4CAEE5" points="943.896,-161.523 943.896,-161.505 942.89,-161.505 942.89,-163.431 942.895,-163.448 
					943.896,-163.448 				"/>
				<rect x="942.898" y="-173.138" fill="#4CAEE5" width="0.986" height="0.988"/>
				<polygon fill="#4CAEE5" points="942.895,-165.375 942.895,-163.448 942.89,-163.431 941.889,-163.431 941.889,-165.357 
					941.889,-165.375 				"/>
				<rect x="941.901" y="-174.135" fill="#4CAEE5" width="0.986" height="0.988"/>
				<rect x="940.904" y="-175.134" fill="#4CAEE5" width="0.986" height="0.99"/>
				<polygon fill="#4CAEE5" points="941.889,-165.375 941.889,-165.357 940.893,-165.357 940.882,-165.4 940.882,-167.301 
					941.889,-167.301 				"/>
				<rect x="939.907" y="-176.13" fill="#4CAEE5" width="0.986" height="0.99"/>
				<polygon fill="#4CAEE5" points="940.893,-165.357 940.893,-164.412 939.903,-164.412 939.903,-165.4 940.882,-165.4 				"/>
				<rect x="938.91" y="-164.403" fill="#4CAEE5" width="0.988" height="0.99"/>
				<rect x="938.91" y="-177.127" fill="#4CAEE5" width="0.988" height="0.988"/>
				<polygon fill="#4CAEE5" points="938.905,-163.406 938.905,-162.416 937.917,-162.416 937.917,-161.607 936.911,-161.607 
					936.911,-179.061 937.917,-179.061 937.917,-178.125 938.901,-178.125 938.901,-177.136 937.917,-177.136 937.917,-163.406 				
					"/>
			</g>
		</g>
	</g>
</g>
</svg>
