<?xml version="1.0" encoding="utf-8"?>
<!-- Generator: Adobe Illustrator 19.0.0, SVG Export Plug-In . SVG Version: 6.00 Build 0)  -->
<svg version="1.1" id="svg1" xmlns="http://www.w3.org/2000/svg" xmlns:xlink="http://www.w3.org/1999/xlink" x="0px" y="0px"
	 viewBox="496 -368 1024 768" enable-background="new 496 -368 1024 768" xml:space="preserve">
<g id="bg">
	<rect x="-6591.4" y="-7628.7" fill="#3498DB" width="16291.8" height="14784"/>
</g>
<path id="wire1" fill="none" stroke="#DBDBDB" stroke-miterlimit="10" enable-background="new    " d="M514.3-413.1
	c45.9,59.7,97.6,127.8,180.5,125.9c65.6-1.5,127.1-41.7,193.4-31.3c67.3,10.6,116.7,71.3,167.2,111.7c53.2,42.6,112.2,66.4,172,97.3
	c46,23.8,69.2,58.5,77.5,109.3c5.8,35.4-0.1,84.2,22.4,114.6c29.1,39.5,157,60,101,134.8c-53,70.9-150.8,81.9-210.6,115.8
	c-16.1,9.1-52.3,35.4-52.6,35.4"/>
<g id="introduction" xmlns:inkscape="http://www.inkscape.org/namespaces/inkscape" xmlns:sodipodi="http://sodipodi.sourceforge.net/DTD/sodipodi-0.dtd" xmlns:svg="http://www.w3.org/2000/svg" xmlns:cc="http://creativecommons.org/ns#" xmlns:rdf="http://www.w3.org/1999/02/22-rdf-syntax-ns#" xmlns:dc="http://purl.org/dc/elements/1.1/" sodipodi:docname="drawing.svg" inkscape:version="0.48.4 r9939">
	<g id="macbook">
		<path fill="#586273" d="M1434.6-61.8L1434.6-61.8C1434.6-61.7,1434.6-61.8,1434.6-61.8z"/>
		<path opacity="0.8" fill="#2980B9" enable-background="new    " d="M1465.5-89.2l-342.2-155.9c0,0-8.2-3.7-11.9,4.5
			c-3.7,8.2,4.5,11.9,4.5,11.9l24.6,11.2c0,0-8.2-3.7-11.9,4.5c-4.7,10.3-4.7,10.2-77.5,170.2c-3.9,8.5,0.8,19,9.3,22.9L1338,106.5
			c8.5,3.9,18.6,0.1,22.5-8.4c0,0,59.1-129.8,74.2-162.9l0,0c0.1-0.2,0.6-1.3,3.3-7.3c3.7-8.2-4.5-11.9-4.5-11.9l24.6,11.2
			c0,0,8.2,3.7,11.9-4.5S1465.5-89.2,1465.5-89.2z"/>
		<g>
			<path fill="#E6E9ED" d="M1367.4,96.1c-3.9,8.5-14,12.3-22.5,8.4L1067.3-21.9c-8.5-3.9-13.2-14.4-9.3-22.9
				c0,0,73.8-162,77.5-170.2s11.9-4.5,11.9-4.5l293,133.5c0,0,8.2,3.7,4.5,11.9S1367.4,96.1,1367.4,96.1z"/>
			<path opacity="0.3" fill="#B7BFC7" enable-background="new    " d="M1440.6-66.8l-364.2-20.6c0,0,54.4-119.4,58.1-127.6
				s11.9-4.5,11.9-4.5l293,133.5c0,0,8.2,3.7,4.5,11.9S1440.6-66.8,1440.6-66.8z"/>
			
				<rect x="1210" y="-153" transform="matrix(-0.91 -0.4145 0.4145 -0.91 2527.3079 251.5304)" fill="#DCE4E8" width="161.9" height="9"/>
			
				<radialGradient id="mbplight_1_" cx="1913.2986" cy="13499.2021" r="163.2177" gradientTransform="matrix(0.9118 0.4011 -9.550000e-02 0.1842 827.556 -3404.3704)" gradientUnits="userSpaceOnUse">
				<stop  offset="0.103" style="stop-color:#3498DB;stop-opacity:0.4"/>
				<stop  offset="0.7955" style="stop-color:#3498DB;stop-opacity:5.650000e-02"/>
				<stop  offset="0.9095" style="stop-color:#3498DB;stop-opacity:0"/>
			</radialGradient>
			<polygon id="mbplight" fill="url(#mbplight_1_)" points="1456.4,-40 1121.7,-190.5 1165.8,-230.3 1464.9,-93.9 			"/>
			<path fill="#CCD1D9" d="M1464-74.8l-342.2-155.9c0,0-8.2-3.7-4.5-11.9s11.9-4.5,11.9-4.5l342.3,155.9c0,0,8.2,3.7,4.5,11.9
				C1472.2-71.1,1464-74.8,1464-74.8z"/>
			
				<rect x="1173.4" y="-16.6" transform="matrix(-0.91 -0.4145 0.4145 -0.91 2327.3486 517.8984)" fill="#F5F7FA" stroke="#CCD1D9" stroke-miterlimit="10" width="92.9" height="46"/>
			<g>
				
					<rect x="1167.6" y="-168.9" transform="matrix(-0.9101 -0.4145 0.4145 -0.9101 2314.9368 176.6098)" fill="#3B3B3B" stroke="#C1C1C1" stroke-miterlimit="10" width="18" height="12"/>
				
					<rect x="1158.6" y="-151.7" transform="matrix(-0.91 -0.4145 0.4145 -0.91 2289.5425 210.526)" fill="#3B3B3B" stroke="#C1C1C1" stroke-miterlimit="10" width="18" height="17"/>
				
					<rect x="1147.7" y="-127.4" transform="matrix(-0.91 -0.4145 0.4145 -0.91 2269.7239 256.7742)" fill="#3B3B3B" stroke="#C1C1C1" stroke-miterlimit="10" width="30" height="19"/>
				
					<rect x="1137.3" y="-102" transform="matrix(-0.9101 -0.4145 0.4145 -0.9101 2252.1755 301.8054)" fill="#3B3B3B" stroke="#C1C1C1" stroke-miterlimit="10" width="43" height="17"/>
				
					<rect x="1180.5" y="-141.6" transform="matrix(-0.91 -0.4145 0.4145 -0.91 2328.1663 239.0804)" fill="#3B3B3B" stroke="#C1C1C1" stroke-miterlimit="10" width="19" height="17"/>
				
					<rect x="1181" y="-114.9" transform="matrix(-0.91 -0.4145 0.4145 -0.91 2317.6672 292.1736)" fill="#3B3B3B" stroke="#C1C1C1" stroke-miterlimit="10" width="19" height="19"/>
				
					<rect x="1182.8" y="-86.6" transform="matrix(-0.91 -0.4145 0.4145 -0.91 2309.7351 345.0804)" fill="#3B3B3B" stroke="#C1C1C1" stroke-miterlimit="10" width="19" height="17"/>
				
					<rect x="1204.8" y="-76.9" transform="matrix(-0.91 -0.4145 0.4145 -0.91 2346.8284 372.5369)" fill="#3B3B3B" stroke="#C1C1C1" stroke-miterlimit="10" width="18" height="17"/>
				
					<rect x="1227.6" y="-66.6" transform="matrix(-0.9101 -0.4145 0.4145 -0.9101 2386.126 401.6521)" fill="#3B3B3B" stroke="#C1C1C1" stroke-miterlimit="10" width="18" height="17"/>
				
					<rect x="1249.4" y="-56.5" transform="matrix(-0.91 -0.4145 0.4145 -0.91 2423.5107 429.949)" fill="#3B3B3B" stroke="#C1C1C1" stroke-miterlimit="10" width="18" height="17"/>
				
					<rect x="1272.2" y="-46.3" transform="matrix(-0.9101 -0.4145 0.4145 -0.9101 2462.8889 458.9117)" fill="#3B3B3B" stroke="#C1C1C1" stroke-miterlimit="10" width="18" height="17"/>
				
					<rect x="1293.1" y="-36.5" transform="matrix(-0.9101 -0.4145 0.4145 -0.9101 2499.7046 486.3541)" fill="#3B3B3B" stroke="#C1C1C1" stroke-miterlimit="10" width="19" height="17"/>
				
					<rect x="1314.7" y="-21.2" transform="matrix(-0.91 -0.4145 0.4145 -0.91 2557.5308 529.6163)" fill="#3B3B3B" stroke="#C1C1C1" stroke-miterlimit="10" width="43" height="17"/>
				
					<rect x="1203.8" y="-104.6" transform="matrix(-0.91 -0.4145 0.4145 -0.91 2355.9146 321.1366)" fill="#3B3B3B" stroke="#C1C1C1" stroke-miterlimit="10" width="18" height="19"/>
				
					<rect x="1225.6" y="-94.4" transform="matrix(-0.91 -0.4145 0.4145 -0.91 2394.2898 349.8357)" fill="#3B3B3B" stroke="#C1C1C1" stroke-miterlimit="10" width="19" height="19"/>
				
					<rect x="1248.5" y="-84.5" transform="matrix(-0.9101 -0.4144 0.4144 -0.9101 2432.9771 377.8849)" fill="#3B3B3B" stroke="#C1C1C1" stroke-miterlimit="10" width="18" height="19"/>
				
					<rect x="1270.2" y="-74.3" transform="matrix(-0.91 -0.4145 0.4145 -0.91 2471.2117 406.6866)" fill="#3B3B3B" stroke="#C1C1C1" stroke-miterlimit="10" width="19" height="19"/>
				
					<rect x="1293" y="-64" transform="matrix(-0.91 -0.4145 0.4145 -0.91 2509.4597 435.5948)" fill="#3B3B3B" stroke="#C1C1C1" stroke-miterlimit="10" width="18" height="19"/>
				
					<rect x="1314.8" y="-53.9" transform="matrix(-0.91 -0.4145 0.4145 -0.91 2547.8606 464.156)" fill="#3B3B3B" stroke="#C1C1C1" stroke-miterlimit="10" width="19" height="19"/>
				
					<rect x="1337.1" y="-41.3" transform="matrix(-0.9101 -0.4145 0.4145 -0.9101 2595.8118 499.7851)" fill="#3B3B3B" stroke="#C1C1C1" stroke-miterlimit="10" width="30" height="19"/>
				
					<rect x="1203.1" y="-131.1" transform="matrix(-0.91 -0.4145 0.4145 -0.91 2366.988 268.4662)" fill="#3B3B3B" stroke="#C1C1C1" stroke-miterlimit="10" width="19" height="17"/>
				
					<rect x="1225.2" y="-121.3" transform="matrix(-0.91 -0.4145 0.4145 -0.91 2404.1396 296.1997)" fill="#3B3B3B" stroke="#C1C1C1" stroke-miterlimit="10" width="18" height="17"/>
				
					<rect x="1247.9" y="-111.2" transform="matrix(-0.9101 -0.4145 0.4145 -0.9101 2443.3738 324.8653)" fill="#3B3B3B" stroke="#C1C1C1" stroke-miterlimit="10" width="18" height="17"/>
				
					<rect x="1269.9" y="-101.1" transform="matrix(-0.9101 -0.4145 0.4145 -0.9101 2481.2302 353.1615)" fill="#3B3B3B" stroke="#C1C1C1" stroke-miterlimit="10" width="18" height="17"/>
				
					<rect x="1292.4" y="-90.7" transform="matrix(-0.9101 -0.4144 0.4144 -0.9101 2519.7788 382.288)" fill="#3B3B3B" stroke="#C1C1C1" stroke-miterlimit="10" width="18" height="17"/>
				
					<rect x="1313.4" y="-81.1" transform="matrix(-0.9101 -0.4145 0.4145 -0.9101 2556.9802 409.5916)" fill="#3B3B3B" stroke="#C1C1C1" stroke-miterlimit="10" width="19" height="17"/>
				
					<rect x="1335.1" y="-65.7" transform="matrix(-0.9101 -0.4145 0.4145 -0.9101 2614.9094 453.1005)" fill="#3B3B3B" stroke="#C1C1C1" stroke-miterlimit="10" width="43" height="17"/>
				
					<rect x="1128.5" y="-86.2" transform="matrix(-0.9101 -0.4145 0.4145 -0.9101 2204.5598 324.9062)" fill="#3B3B3B" stroke="#C1C1C1" stroke-miterlimit="10" width="18" height="19"/>
				
					<rect x="1150.2" y="-76" transform="matrix(-0.91 -0.4145 0.4145 -0.91 2242.6592 353.7392)" fill="#3B3B3B" stroke="#C1C1C1" stroke-miterlimit="10" width="19" height="19"/>
				
					<rect id="spacebar" x="1168.6" y="-45.6" transform="matrix(-0.91 -0.4145 0.4145 -0.91 2357.7351 439.5003)" fill="#3B3B3B" stroke="#C1C1C1" stroke-miterlimit="10" width="115.9" height="19"/>
				
					<rect x="1283.1" y="-15.6" transform="matrix(-0.9101 -0.4145 0.4145 -0.9101 2471.5447 524.0416)" fill="#3B3B3B" stroke="#C1C1C1" stroke-miterlimit="10" width="19" height="19"/>
				
					<rect x="1305.9" y="-5.3" transform="matrix(-0.9101 -0.4145 0.4145 -0.9101 2510.7424 553.3196)" fill="#3B3B3B" stroke="#C1C1C1" stroke-miterlimit="10" width="19" height="19"/>
				
					<rect x="1328.6" y="4.9" transform="matrix(-0.9101 -0.4145 0.4145 -0.9101 2548.9519 582.0089)" fill="#3B3B3B" stroke="#C1C1C1" stroke-miterlimit="10" width="18" height="19"/>
				
					<rect x="1189.4" y="-158.6" transform="matrix(-0.91 -0.4145 0.4145 -0.91 2353.2036 205.5062)" fill="#3B3B3B" stroke="#C1C1C1" stroke-miterlimit="10" width="19" height="12"/>
				
					<rect x="1212.2" y="-148.3" transform="matrix(-0.9101 -0.4145 0.4145 -0.9101 2392.4934 234.6421)" fill="#3B3B3B" stroke="#C1C1C1" stroke-miterlimit="10" width="19" height="12"/>
				
					<rect x="1234" y="-138.5" transform="matrix(-0.91 -0.4145 0.4145 -0.91 2429.1284 262.2018)" fill="#3B3B3B" stroke="#C1C1C1" stroke-miterlimit="10" width="18" height="12"/>
				
					<rect x="1256.7" y="-128.1" transform="matrix(-0.91 -0.4145 0.4145 -0.91 2468.168 291.4603)" fill="#3B3B3B" stroke="#C1C1C1" stroke-miterlimit="10" width="18" height="12"/>
				
					<rect x="1278.7" y="-118.3" transform="matrix(-0.9101 -0.4145 0.4145 -0.9101 2506.2039 319.326)" fill="#3B3B3B" stroke="#C1C1C1" stroke-miterlimit="10" width="18" height="12"/>
				
					<rect x="1301.4" y="-107.9" transform="matrix(-0.9101 -0.4145 0.4145 -0.9101 2545.2439 348.5917)" fill="#3B3B3B" stroke="#C1C1C1" stroke-miterlimit="10" width="18" height="12"/>
				
					<rect x="1322.4" y="-98.1" transform="matrix(-0.9101 -0.4145 0.4145 -0.9101 2582.1729 376.2285)" fill="#3B3B3B" stroke="#C1C1C1" stroke-miterlimit="10" width="19" height="12"/>
				
					<rect x="1345" y="-87.7" transform="matrix(-0.91 -0.4145 0.4145 -0.91 2621.0364 405.4589)" fill="#3B3B3B" stroke="#C1C1C1" stroke-miterlimit="10" width="19" height="12"/>
				
					<rect x="1367.7" y="-77.5" transform="matrix(-0.91 -0.4146 0.4146 -0.91 2659.1111 434.2366)" fill="#3B3B3B" stroke="#C1C1C1" stroke-miterlimit="10" width="18" height="12"/>
			</g>
		</g>
	</g>
	<g id="bevanda">
		<circle opacity="0.8" fill="#2980B9" enable-background="new    " cx="915.6" cy="-231.3" r="50.6"/>
		<circle fill="#E6E9ED" cx="920.6" cy="-233.3" r="50.6"/>
		<path fill="#E74C3C" d="M920.6-275c23,0,41.7,18.7,41.7,41.7s-18.7,41.7-41.7,41.7c-10.4,0-19.9-3.8-27.2-10.1
			c-8.9-7.6-14.5-19-14.5-31.6C878.9-256.3,897.6-275,920.6-275z"/>
		<path id="linecover1" fill="#E6E9ED" d="M920.6-276c23.6,0,42.7,19.1,42.7,42.7s-19.1,42.7-42.7,42.7c-10.6,0-20.3-3.9-27.8-10.3
			c-9.1-7.8-14.9-19.4-14.9-32.4C877.9-256.9,897-276,920.6-276z"/>
		
			<ellipse transform="matrix(-0.993 -0.1184 0.1184 -0.993 1830.8612 -293.5759)" fill="#D8D8DA" cx="906.7" cy="-201.2" rx="11.6" ry="7.7"/>
		<polygon fill="#CCD1D9" points="857.4,-211.1 898.3,-204.1 897.8,-200.6 856.5,-203.4 		"/>
		
			<ellipse transform="matrix(-0.993 -0.1184 0.1184 -0.993 1830.863 -293.5716)" fill="#AAB2BD" cx="906.7" cy="-201.2" rx="9.6" ry="6.4"/>
		<path fill="#FFFFFF" d="M893.3-276.2l9.7,12.5c1.6,2.1,1.2,5-0.8,6.7c-2.1,1.6-5,1.2-6.6-0.8l-9.7-12.5c-1.6-2.1-1.2-5,0.8-6.7
			C888.7-278.6,891.7-278.2,893.3-276.2z"/>
		<circle fill="#FFFFFF" cx="920.6" cy="-233.3" r="34.8"/>
		<circle fill="#E6E7E8" cx="920.6" cy="-233.3" r="31.3"/>
		<circle fill="#49433C" cx="920.6" cy="-233.3" r="29.6"/>
		<path fill="#363532" d="M899.4-216.8c9.1,11.7,26,13.8,37.7,4.7c0.7-0.5,0.8-1.5,0.3-2.2s-1.5-0.8-2.2-0.3
			c-0.3,0.2-0.6,0.4-0.9,0.6c-0.1,0.1-0.1,0.1-0.2,0.2c-0.3,0.2-0.6,0.4-0.8,0.5c-0.1,0.1-0.2,0.1-0.3,0.2c-0.2,0.1-0.4,0.2-0.6,0.3
			c-0.1,0.1-0.3,0.1-0.4,0.2c-0.2,0.1-0.5,0.2-0.7,0.4c-0.2,0.1-0.4,0.2-0.5,0.3s-0.3,0.1-0.4,0.2c-0.2,0.1-0.3,0.2-0.5,0.2
			c-0.2,0.1-0.5,0.2-0.7,0.3s-0.3,0.1-0.5,0.2c-0.2,0.1-0.3,0.1-0.5,0.2c-0.1,0.1-0.3,0.1-0.4,0.1c-0.3,0.1-0.6,0.2-0.9,0.2
			c-0.1,0-0.2,0.1-0.3,0.1c-0.2,0.1-0.5,0.1-0.8,0.2c-0.1,0-0.2,0-0.2,0.1c-0.3,0.1-0.7,0.1-1,0.2c0,0,0,0-0.1,0
			c-0.2,0-0.4,0.1-0.6,0.1c-0.1,0-0.3,0-0.4,0.1h-0.1c-0.7,0.1-1.5,0.1-2.2,0.1l0,0c-0.7,0-1.5,0-2.2-0.1h-0.1c-0.3,0-0.7-0.1-1-0.1
			c0,0,0,0-0.1,0c-0.3,0-0.6-0.1-0.9-0.1c-0.1,0-0.3,0-0.4-0.1c-0.2,0-0.4-0.1-0.5-0.1c-0.6-0.1-1.3-0.3-1.9-0.5l0,0
			c-3.4-1-6.6-2.8-9.2-5.2c0,0,0,0-0.1,0c-0.1-0.1-0.3-0.3-0.4-0.4c-0.1-0.1-0.2-0.2-0.4-0.4c-0.1-0.1-0.2-0.2-0.4-0.4
			s-0.4-0.4-0.6-0.7c-0.1-0.1-0.1-0.2-0.2-0.2c-0.2-0.3-0.5-0.5-0.7-0.8s-0.4-0.6-0.6-0.9c-0.1-0.1-0.1-0.2-0.2-0.3
			c-0.2-0.2-0.3-0.5-0.5-0.7c-0.1-0.1-0.2-0.3-0.3-0.4c-0.1-0.1-0.2-0.3-0.3-0.4c-0.1-0.2-0.2-0.4-0.3-0.5c0,0,0,0,0-0.1
			c-1.7-3.2-2.6-6.7-2.8-10.3l0,0c0-0.7,0-1.3,0-2c0-0.2,0-0.4,0-0.5s0-0.3,0-0.4c0-0.3,0.1-0.6,0.1-1c0,0,0,0,0-0.1
			c0-0.3,0.1-0.7,0.1-1v-0.1c0.1-0.7,0.3-1.4,0.5-2.2l0,0c0.2-0.7,0.4-1.4,0.7-2.1c0,0,0,0,0-0.1c0.1-0.1,0.1-0.3,0.2-0.4
			c0.1-0.2,0.2-0.4,0.2-0.6c0,0,0,0,0-0.1c0.1-0.3,0.3-0.6,0.4-0.9c0-0.1,0.1-0.1,0.1-0.2c0.1-0.2,0.2-0.5,0.4-0.7
			c0.1-0.1,0.1-0.2,0.2-0.3c0.1-0.3,0.3-0.5,0.4-0.8c0.1-0.1,0.2-0.3,0.3-0.4c0.1-0.1,0.2-0.3,0.3-0.4c0.1-0.1,0.2-0.3,0.3-0.4
			c0.2-0.2,0.3-0.4,0.5-0.6c0.1-0.1,0.2-0.3,0.3-0.4c0.1-0.1,0.2-0.2,0.3-0.3c0.1-0.2,0.3-0.3,0.4-0.5c0.2-0.2,0.3-0.4,0.5-0.6
			c0.1-0.1,0.2-0.2,0.3-0.3c0.2-0.2,0.3-0.3,0.5-0.5c0.1-0.1,0.1-0.2,0.2-0.2c0.2-0.2,0.5-0.4,0.7-0.7c0.1-0.1,0.1-0.1,0.2-0.2
			c0.3-0.2,0.5-0.5,0.8-0.7c0.7-0.5,0.8-1.5,0.3-2.2c-0.5-0.7-1.5-0.8-2.2-0.3C892.4-245.4,890.3-228.5,899.4-216.8z"/>
		<path fill="#363532" d="M909.3-256c0.3,0.8,1.3,1.2,2.1,0.8c0.2-0.1,0.4-0.2,0.6-0.3h0.1l0,0c0.2-0.1,0.4-0.1,0.6-0.2l0,0
			c0.1,0,0.1,0,0.2-0.1l0,0c0.2-0.1,0.4-0.1,0.6-0.2l0,0l0,0l0,0c0.4-0.1,0.9-0.3,1.4-0.4c0.1,0,0.1,0,0.2,0
			c0.4-0.1,0.9-0.2,1.3-0.3c0.1,0,0.2,0,0.3-0.1c-0.1,0-0.1,0-0.2,0c0.1,0,0.1,0,0.2,0l0,0c0.1,0,0.3,0,0.4-0.1l0,0
			c0.1,0,0.1,0,0.1,0l0,0c-0.1,0-0.1,0-0.1,0c0.1,0,0.1,0,0.2,0c0.6-0.1,1.1,0.2,1.4,0.6c0.2,0.2,0.3,0.5,0.3,0.8
			c0.1,0.9-0.5,1.7-1.3,1.8l0,0l0,0c-1.3,0.2-2.6,0.5-3.9,0.9l0,0c0,0,0,0-0.1,0l0,0c-0.4,0.1-0.8,0.3-1.2,0.5
			c-0.8,0.3-1.1,1.3-0.8,2.1s1.3,1.2,2.1,0.8c2.2-0.9,4.5-1.4,6.9-1.4c0.1,0,0.1,0,0.2,0c0.2,0,0.3,0,0.5,0c0.1,0,0.2,0,0.3,0
			s0.3,0,0.5,0c0.1,0,0.2,0,0.3,0s0.2,0,0.3,0l0,0c0,0,0,0,0.1,0c0.4,0.1,0.7,0.3,0.9,0.6s0.4,0.7,0.3,1.2c-0.1,0.9-0.9,1.5-1.8,1.4
			c-2.5-0.3-5,0-7.2,1H915c-0.8,0.3-1.2,1.3-0.8,2.1c0.3,0.8,1.3,1.2,2.1,0.8c4.6-1.9,10-0.5,13,3.4c3.1,4,3.1,9.5,0.1,13.5
			c-0.5,0.7-0.4,1.7,0.3,2.2s1.7,0.4,2.2-0.3l0.2-0.2c1.4-1.9,2.3-4.2,2.6-6.6c0.1-0.9,0.9-1.5,1.8-1.4c0.4,0.1,0.8,0.3,1.1,0.6
			c0.2,0.3,0.4,0.7,0.3,1.1c0,0,0,0,0,0.1l0,0c0,0.1,0,0.2-0.1,0.3c0,0.1,0,0.2,0,0.3s-0.1,0.3-0.1,0.4c0,0.1,0,0.2-0.1,0.3
			c0,0.2-0.1,0.3-0.1,0.5c0,0.1,0,0.1,0,0.2c-0.6,2.3-1.6,4.4-3,6.3c-0.5,0.7-0.4,1.7,0.3,2.2s1.7,0.4,2.2-0.3
			c0.3-0.4,0.5-0.7,0.8-1.1l0,0c0,0,0,0,0-0.1l0,0c0.7-1.1,1.4-2.3,1.9-3.5l0,0l0,0c0.3-0.8,1.2-1.2,2.1-0.9
			c0.3,0.1,0.5,0.3,0.6,0.5c0.3,0.4,0.4,1,0.2,1.5c0,0.1,0,0.1-0.1,0.2c-0.1,0.2-0.2,0.4-0.2,0.6c0,0.1-0.1,0.2-0.1,0.3
			c-0.1,0.2-0.2,0.4-0.3,0.6c0,0.1-0.1,0.2-0.1,0.2c-0.1,0.2-0.2,0.4-0.3,0.6c0,0.1-0.1,0.1-0.1,0.2c-0.1,0.3-0.3,0.5-0.5,0.8
			c0,0,0,0,0,0.1l0,0c-0.1,0.2-0.2,0.4-0.4,0.6l-0.1,0.1l0,0c-0.1,0.1-0.1,0.2-0.2,0.3s-0.1,0.1-0.1,0.2c0,0,0,0-0.1,0.1
			c-0.1,0.2-0.3,0.4-0.4,0.6c-0.5,0.7-0.4,1.7,0.3,2.2s1.7,0.4,2.2-0.3c7.3-9.7,7.3-23.1-0.2-32.7c-7.4-9.6-20.5-13-31.6-8.3
			C909.4-257.7,909-256.8,909.3-256z M942.3-223.6c0,0.1-0.1,0.2-0.1,0.2C942.2-223.5,942.2-223.6,942.3-223.6z M941.9-222.8
			c0,0.1-0.1,0.1-0.1,0.2C941.8-222.6,941.8-222.7,941.9-222.8z M941.4-221.9l-0.1,0.1C941.3-221.8,941.4-221.8,941.4-221.9z
			 M942.5-224.3c0,0,0-0.1,0.1-0.1C942.6-224.4,942.6-224.4,942.5-224.3C942.6-224.3,942.5-224.3,942.5-224.3z"/>
		<path fill="#363532" d="M939.5-218.9C939.5-219,939.5-219,939.5-218.9c0.2-0.2,0.3-0.4,0.4-0.6
			C939.8-219.3,939.6-219.1,939.5-218.9z"/>
	</g>
	<g id="mouse">
		<path opacity="0.8" fill="#2980B9" enable-background="new    " d="M1471.8,116.1C1471.8,116.1,1471.8,116,1471.8,116.1
			c-9.8-7.2-23.6-5.2-30.9,4.6l-0.1,0.1l-0.1,0.2l-24.6,33.3c-0.1,0.1-0.2,0.3-0.2,0.4l-1.3,1.8l0,0c-7.2,9.9-5,23.5,4.7,30.7
			c9.8,7.3,23.7,5.1,30.9-4.6l26.2-35.5C1483.7,137.2,1481.6,123.3,1471.8,116.1z"/>
		<g>
			<g>
				<path fill="#CCD1D9" d="M1446.7,119.9L1446.7,119.9l-0.2,0.3l-24.6,33.3c-0.1,0.1-0.1,0.2-0.2,0.3l-1.2,1.6l0,0
					c-7.3,10.1-5.1,23.6,4.7,30.9l52.4-70.9C1467.8,108.1,1454,110.2,1446.7,119.9z"/>
				<path fill="#E6E9ED" d="M1477.6,115.4L1477.6,115.4l-52.5,70.9c9.8,7.3,23.7,5.2,30.9-4.6l-0.1-0.1l0,0l0,0l0.1,0.1l26.2-35.4
					C1489.5,136.5,1487.4,122.6,1477.6,115.4z"/>
			</g>
		</g>
	</g>
	<g id="iphone">
		<path opacity="0.8" fill="#2980B9" enable-background="new    " d="M1456.8-184.7l38.5-44.1c3-3.5,2.7-8.8-0.8-11.8l-88.1-77
			c-3.5-3-8.8-2.7-11.8,0.8l-38.5,44.1c-3,3.5-2.7,8.8,0.8,11.8l88.1,77C1448.4-180.9,1453.7-181.3,1456.8-184.7z"/>
		<path fill="#434A54" d="M1400.1-317.9l-38.5,44.1c-3,3.5-2.7,8.8,0.8,11.8l88.1,77c3.5,3,8.8,2.7,11.8-0.8l38.5-44.1
			c3-3.5,2.7-8.8-0.8-11.8l-88.1-77C1408.4-321.7,1403.1-321.4,1400.1-317.9z"/>
		<path fill="#586273" d="M1488.2-240.9l-38.5,44.1l-81.8-71.5l0,0l38.5-44l0,0L1488.2-240.9z"/>
		
			<rect x="1469.1" y="-215.2" transform="matrix(-0.658 0.753 -0.753 -0.658 2285.7109 -1464.3358)" fill="#434A54" width="12.5" height="4.2"/>
		<path fill="#F7F9F8" d="M1367.9-268.3L1367.9-268.3l81.8,71.5l38.5-44.1l-81.8-71.5l0,0L1367.9-268.3z"/>
		<path fill="#44C650" d="M1431.8-273.9l-5.5-2.6c-0.6-0.3-1.5-0.3-2.1,0l-9.2,4.3l0,0l-1.3-1.1c-0.4-2.2-1.7-4.6-3.9-6.4l-1.7-1.5
			c-3-2.6-7.5-2.5-10,0.4l0,0l0,0l0,0c-2.5,2.9-2.1,7.3,0.9,10l1.7,1.5c2.1,1.9,4.6,2.9,6.9,3l1.3,1.1l0,0l-3.1,9.7
			c-0.2,0.6,0,1.5,0.3,2.1l3.3,5.1c0.3,0.5,1,0.6,1.4,0.1l10.6-12.1l0,0l10.6-12.1C1432.5-273,1432.3-273.6,1431.8-273.9z"/>
		
			<rect x="1415" y="-254.7" transform="matrix(-0.6579 0.7531 -0.7531 -0.6579 2187.2922 -1493.9065)" fill="#DCE4E8" width="35.9" height="9"/>
		
			<rect x="1425.3" y="-245.8" transform="matrix(-0.658 0.753 -0.753 -0.658 2211.1824 -1486.7847)" fill="#DCE4E8" width="35.9" height="9"/>
		
			<rect x="1444" y="-236.9" transform="matrix(-0.658 0.753 -0.753 -0.658 2234.0796 -1479.3865)" fill="#DCE4E8" width="17.9" height="9"/>
		<circle fill="#586273" cx="1434.1" cy="-231.2" r="1.7"/>
		<circle fill="#586273" cx="1440" cy="-237.9" r="1.7"/>
		<circle fill="#586273" cx="1437.1" cy="-234.5" r="1.7"/>
		<path fill="#586273" d="M1444.1-242.6c0.7,0.6,0.8,1.7,0.1,2.4c-0.6,0.7-1.7,0.8-2.4,0.2c-0.7-0.6-0.8-1.7-0.1-2.4
			C1442.3-243.1,1443.4-243.2,1444.1-242.6z"/>
		<circle fill="#586273" cx="1424" cy="-240" r="1.7"/>
		<circle fill="#586273" cx="1435.8" cy="-253.5" r="1.7"/>
		<circle fill="#586273" cx="1429.9" cy="-246.8" r="1.7"/>
		<circle fill="#586273" cx="1427" cy="-243.4" r="1.7"/>
		<circle fill="#586273" cx="1432.9" cy="-250.1" r="1.7"/>
		
			<rect x="1448.7" y="-233.5" transform="matrix(-0.6578 0.7532 -0.7532 -0.6578 2234.1545 -1479.4175)" fill="#E74C3C" width="9" height="2.7"/>
		<path fill="none" d="M1400.1-317.9l-29.9,34.2l113.6,73.3l17.1-19.5c3-3.5,2.7-8.8-0.8-11.8l-88.1-77
			C1408.4-321.7,1403.1-321.4,1400.1-317.9z"/>
	</g>
	<g id="matita1">
		<polygon opacity="0.8" fill="#2980B9" enable-background="new    " points="1614,-48.9 1552,-176.9 1546.7,-174.3 1541.3,-171.8 
			1603.4,-43.7 1608.7,-46.3 		"/>
		<polygon fill="#2980B9" points="1617.8,-30.9 1614,-48.9 1603.4,-43.7 1615.1,-29.6 1619.1,-25 		"/>
		<g>
			<g>
				<polygon fill="#58585C" points="1612.8,-47.4 1553.4,-170.1 1550.8,-175.4 1545.4,-172.9 1607.5,-44.8 				"/>
				<polygon fill="#58585C" points="1612.8,-47.4 1618.1,-50 1556.1,-178 1550.8,-175.4 1553.4,-170.1 				"/>
			</g>
			<g>
				<polygon fill="#464E5C" points="1623.1,-26 1621.9,-32 1619.2,-30.7 				"/>
				<polygon fill="#F7D39A" points="1621.9,-32 1618.1,-50 1607.5,-44.8 1619.2,-30.7 				"/>
			</g>
			<g>
				
					<rect x="1552.5" y="-161.6" transform="matrix(0.8998 -0.4362 0.4362 0.8998 225.6327 663.8549)" fill="#DA4453" width="11.9" height="4.4"/>
			</g>
		</g>
	</g>
	<g id="foglio2">
		<g>
			<g opacity="0.8">
				<g>
					<polygon fill="#2980B9" points="661.6,-360.2 637.5,-171.7 788.3,-152.4 812.4,-341 814,-353.5 663.3,-372.8 					"/>
				</g>
			</g>
			<g>
				<g>
					
						<rect x="652.3" y="-354" transform="matrix(-0.9919 -0.1268 0.1268 -0.9919 1483.5524 -423.5044)" fill="#EBF4FF" width="151.9" height="190"/>
				</g>
			</g>
			<g>
				<g>
					
						<rect x="665.2" y="-366" transform="matrix(-0.9919 -0.1268 0.1268 -0.9919 1522.0137 -622.353)" fill="#44C650" width="151.9" height="12.7"/>
				</g>
			</g>
			<g>
				<g>
					
						<rect x="699.4" y="-287.6" transform="matrix(0.9919 0.1268 -0.1268 0.9919 -29.9638 -91.7566)" fill="none" width="12.7" height="12.7"/>
				</g>
			</g>
			<g>
				<g>
					
						<rect x="721.8" y="-285.2" transform="matrix(-0.9919 -0.1267 0.1267 -0.9919 1479.871 -469.906)" fill="none" width="6.3" height="6.3"/>
				</g>
			</g>
			<g>
				<g>
					
						<rect x="676.6" y="-301.7" transform="matrix(-0.9919 -0.1268 0.1268 -0.9919 1448.6362 -507.9211)" fill="#434A54" width="63.2" height="3.2"/>
				</g>
			</g>
			<g>
				<g>
					
						<rect x="745.6" y="-294.2" transform="matrix(-0.9919 -0.1268 0.1268 -0.9919 1563.3064 -485.6218)" fill="#3498DB" width="41.1" height="3.2"/>
				</g>
			</g>
			<g>
				<g>
					
						<rect x="669.3" y="-292.4" transform="matrix(-0.9919 -0.1268 0.1268 -0.9919 1492.8707 -486.5058)" fill="#3498DB" width="123.4" height="3.2"/>
				</g>
			</g>
			<g>
				<g>
					
						<rect x="674.9" y="-291.2" transform="matrix(-0.9919 -0.1268 0.1268 -0.9919 1412.6401 -489.218)" fill="#3498DB" width="31.6" height="3.2"/>
				</g>
			</g>
			<g>
				<g>
					
						<rect x="712.7" y="-287.4" transform="matrix(-0.9919 -0.1269 0.1269 -0.9919 1468.4655 -477.9913)" fill="#434A54" width="12.7" height="3.2"/>
				</g>
			</g>
			<g>
				<g>
					
						<rect x="731.3" y="-282.6" transform="matrix(-0.9919 -0.1268 0.1268 -0.9919 1546.0007 -463.5307)" fill="#3498DB" width="53.8" height="3.2"/>
				</g>
			</g>
			<g>
				<g>
					
						<rect x="659.1" y="-242" transform="matrix(-0.9919 -0.1268 0.1268 -0.9919 1374.9282 -393.2146)" fill="#434A54" width="31.6" height="3.2"/>
				</g>
			</g>
			<g>
				<g>
					
						<rect x="657.6" y="-230.4" transform="matrix(-0.9919 -0.1269 0.1269 -0.9919 1357.7578 -371.0533)" fill="#434A54" width="19" height="3.2"/>
				</g>
			</g>
			<g>
				<g>
					
						<rect x="682.7" y="-227.5" transform="matrix(-0.9919 -0.1269 0.1269 -0.9919 1401.1088 -362.4891)" fill="#434A54" width="12.7" height="3.2"/>
				</g>
			</g>
			<g>
				<g>
					
						<rect x="658.4" y="-236.3" transform="matrix(-0.9919 -0.1268 0.1268 -0.9919 1366.3418 -382.3688)" fill="#434A54" width="25.3" height="3.2"/>
				</g>
			</g>
			<g>
				<g>
					
						<rect x="656.7" y="-223.2" transform="matrix(-0.9919 -0.1268 0.1268 -0.9919 1367.7651 -356.0743)" fill="#434A54" width="31.6" height="3.2"/>
				</g>
			</g>
			<g>
				<g>
					
						<rect x="662" y="-278" transform="matrix(-0.9919 -0.1269 0.1269 -0.9919 1389.6722 -435.6954)" fill="#CCD1D9" width="38" height="31.7"/>
				</g>
			</g>
			<g>
				<g>
					
						<rect x="704.5" y="-223.2" transform="matrix(-0.9919 -0.1268 0.1268 -0.9919 1469.3522 -349.613)" fill="#434A54" width="38" height="3.2"/>
				</g>
			</g>
			<g>
				<g>
					
						<rect x="703.8" y="-218.5" transform="matrix(-0.9919 -0.1268 0.1268 -0.9919 1442.1653 -341.9422)" fill="#434A54" width="12.7" height="3.2"/>
				</g>
			</g>
			<g>
				<g>
					
						<rect x="722.9" y="-216.5" transform="matrix(-0.9919 -0.127 0.127 -0.9919 1473.4435 -335.7908)" fill="#434A54" width="6.3" height="3.2"/>
				</g>
			</g>
			<g>
				<g>
					
						<rect x="705.4" y="-230.7" transform="matrix(-0.9919 -0.1268 0.1268 -0.9919 1453.1733 -365.6424)" fill="#434A54" width="19" height="3.2"/>
				</g>
			</g>
			<g>
				<g>
					
						<rect x="730.6" y="-227.7" transform="matrix(-0.9919 -0.1268 0.1268 -0.9919 1496.7142 -356.863)" fill="#434A54" width="12.7" height="3.2"/>
				</g>
			</g>
			<g>
				<g>
					
						<rect x="706.2" y="-236" transform="matrix(-0.9919 -0.1268 0.1268 -0.9919 1467.985 -375.2925)" fill="#434A54" width="31.6" height="3.2"/>
				</g>
			</g>
			<g>
				<g>
					
						<rect x="708.9" y="-272" transform="matrix(-0.9919 -0.1268 0.1268 -0.9919 1482.496 -417.8746)" fill="#CCD1D9" width="38" height="31.7"/>
				</g>
			</g>
			<g>
				<g>
					
						<rect x="753.3" y="-229.7" transform="matrix(-0.9919 -0.1268 0.1268 -0.9919 1567.382 -356.3694)" fill="#434A54" width="38" height="3.2"/>
				</g>
			</g>
			<g>
				<g>
					
						<rect x="751.8" y="-217.9" transform="matrix(-0.9919 -0.1269 0.1269 -0.9919 1550.082 -333.7985)" fill="#434A54" width="25.3" height="3.2"/>
				</g>
			</g>
			<g>
				<g>
					
						<rect x="753.6" y="-225" transform="matrix(-0.9919 -0.1268 0.1268 -0.9919 1542.1865 -348.5718)" fill="#434A54" width="12.7" height="3.2"/>
				</g>
			</g>
			<g>
				<g>
					
						<rect x="750.9" y="-212.1" transform="matrix(-0.9919 -0.1268 0.1268 -0.9919 1541.4469 -322.8246)" fill="#434A54" width="19" height="3.2"/>
				</g>
			</g>
			<g>
				<g>
					
						<rect x="776.1" y="-209.2" transform="matrix(-0.9919 -0.1268 0.1268 -0.9919 1584.9996 -314.2462)" fill="#434A54" width="12.7" height="3.2"/>
				</g>
			</g>
			<g>
				<g>
					
						<rect x="771.4" y="-222.1" transform="matrix(-0.9919 -0.1269 0.1269 -0.9919 1583.3781 -340.0762)" fill="#434A54" width="19" height="3.2"/>
				</g>
			</g>
			<g>
				<g>
					
						<rect x="756.1" y="-265.9" transform="matrix(-0.9919 -0.1268 0.1268 -0.9919 1575.7483 -399.8367)" fill="#CCD1D9" width="38" height="31.6"/>
				</g>
			</g>
			<g>
				<g>
					
						<rect x="669.2" y="-322" transform="matrix(-0.9919 -0.1268 0.1268 -0.9919 1505.2805 -535.4182)" fill="#CCD1D9" width="132.9" height="12.7"/>
				</g>
			</g>
			<g>
				<g>
					<g>
						
							<rect x="676.1" y="-324" transform="matrix(-0.9919 -0.1268 0.1268 -0.9919 1400.9645 -555.5596)" fill="#E5E5E5" width="13.3" height="3.2"/>
					</g>
				</g>
			</g>
			<g>
				<g>
					<g>
						
							<rect x="695.8" y="-325.4" transform="matrix(-0.9919 -0.1268 0.1268 -0.9919 1453.0239 -545.5476)" fill="#434A54" width="26.6" height="12.7"/>
					</g>
				</g>
				<g>
					<g>
						
							<rect x="702.7" y="-320.6" transform="matrix(-0.9919 -0.1268 0.1268 -0.9919 1453.3215 -545.4236)" fill="#E5E5E5" width="13.3" height="3.2"/>
					</g>
				</g>
			</g>
			<g>
				<g>
					<g>
						
							<rect x="729" y="-317.2" transform="matrix(-0.9919 -0.1269 0.1269 -0.9919 1505.3173 -535.2484)" fill="#E5E5E5" width="13.3" height="3.2"/>
					</g>
				</g>
			</g>
			<g>
				<g>
					<g>
						
							<rect x="755.3" y="-313.9" transform="matrix(-0.9919 -0.1268 0.1268 -0.9919 1557.444 -525.3995)" fill="#E5E5E5" width="13.3" height="3.2"/>
					</g>
				</g>
			</g>
			<g>
				<g>
					<g>
						
							<rect x="781.7" y="-310.5" transform="matrix(-0.9919 -0.1268 0.1268 -0.9919 1609.5958 -515.2783)" fill="#E5E5E5" width="13.3" height="3.2"/>
					</g>
				</g>
			</g>
			<g>
				<g>
					<g>
						
							<rect x="675" y="-339.3" transform="matrix(-0.9919 -0.1268 0.1268 -0.9919 1462.9613 -582.2106)" fill="#CCD1D9" width="76" height="3.2"/>
					</g>
				</g>
				<g>
					<g>
						
							<rect x="676" y="-349.2" transform="matrix(-0.9919 -0.1268 0.1268 -0.9919 1409.4409 -605.4177)" fill="#CCD1D9" width="19" height="3.2"/>
					</g>
				</g>
			</g>
			<g>
				<g>
					
						<rect x="653" y="-202.6" transform="matrix(-0.9919 -0.1268 0.1268 -0.9919 1457.2714 -287.0837)" fill="#CCD1D9" width="132.9" height="25.3"/>
				</g>
			</g>
		</g>
	</g>
	<g id="foglio1">
		
			<rect x="489.5" y="-374" transform="matrix(-0.9495 0.3137 -0.3137 -0.9495 1025.662 -690.8043)" fill="#2980B9" width="157.9" height="222.2"/>
		<g>
			<g>
				<g>
					<g>
						
							<rect x="459.3" y="-341.2" transform="matrix(-0.3137 -0.9495 0.9495 -0.3137 998.4096 197.0747)" fill="#F7F9F8" width="222.2" height="157.9"/>
					</g>
				</g>
			</g>
			<g>
				
					<rect x="565" y="-319.4" transform="matrix(-0.9495 0.3137 -0.3137 -0.9495 1057.7255 -802.9304)" fill="#B7BFC7" width="57" height="6"/>
				
					<rect x="567.9" y="-309.9" transform="matrix(-0.9495 0.3137 -0.3137 -0.9495 1066.5258 -785.3304)" fill="#DCE4E8" width="57" height="6"/>
				
					<rect x="571.2" y="-300.3" transform="matrix(-0.9495 0.3137 -0.3137 -0.9495 1075.8053 -767.6155)" fill="#DCE4E8" width="57" height="6"/>
				
					<rect x="574.3" y="-290.9" transform="matrix(-0.9495 0.3137 -0.3137 -0.9495 1084.7795 -750.2712)" fill="#DCE4E8" width="57" height="6"/>
			</g>
			
				<rect x="484" y="-325.3" transform="matrix(-0.9495 0.3137 -0.3137 -0.9495 972.8923 -801.1075)" fill="#DCE4E8" width="133.9" height="6"/>
			
				<rect x="477.6" y="-354.3" transform="matrix(-0.9495 0.3137 -0.3137 -0.9495 954.6384 -836.168)" fill="#B7BFC7" width="133.9" height="26"/>
			<g>
				
					<rect x="505.2" y="-260.7" transform="matrix(-0.9495 0.3137 -0.3137 -0.9495 1034.5391 -681.7959)" fill="#DCE4E8" width="133.9" height="6"/>
				
					<rect x="508.5" y="-251.3" transform="matrix(-0.9495 0.3137 -0.3137 -0.9495 1043.8998 -664.508)" fill="#DCE4E8" width="133.9" height="6"/>
				
					<rect x="511.4" y="-241.8" transform="matrix(-0.9495 0.3137 -0.3137 -0.9495 1052.6991 -646.9097)" fill="#DCE4E8" width="133.9" height="6"/>
			</g>
			<g>
				
					<rect x="529.7" y="-186.7" transform="matrix(-0.9495 0.3137 -0.3137 -0.9495 1105.4739 -545.1959)" fill="#DCE4E8" width="133.9" height="6"/>
				
					<rect x="533.7" y="-172.4" transform="matrix(-0.9495 0.3137 -0.3137 -0.9495 1088.6201 -513.9367)" fill="#DCE4E8" width="104" height="6"/>
			</g>
			<g>
				
					<rect x="518.6" y="-216.6" transform="matrix(-0.9495 0.3137 -0.3137 -0.9495 1030.7095 -592.9636)" fill="#B7BFC7" width="89" height="6"/>
				
					<rect x="521.7" y="-207.2" transform="matrix(-0.9495 0.3137 -0.3137 -0.9495 1039.6815 -575.6193)" fill="#DCE4E8" width="89" height="6"/>
				
					<rect x="524.9" y="-197.6" transform="matrix(-0.9495 0.3137 -0.3137 -0.9495 1048.9579 -557.9011)" fill="#DCE4E8" width="89" height="6"/>
				
					<rect x="617" y="-239.8" transform="matrix(-0.9496 0.3136 -0.3136 -0.9496 1165.8519 -641.0854)" fill="#44C650" width="35" height="26"/>
			</g>
			<g>
				
					<rect x="497.7" y="-288" transform="matrix(-0.9495 0.3137 -0.3137 -0.9495 892.2896 -683.6794)" fill="#DCE4E8" width="7" height="36"/>
				
					<rect x="507.2" y="-291.3" transform="matrix(-0.9495 0.3138 -0.3138 -0.9495 909.7889 -692.9809)" fill="#DCE4E8" width="7" height="36"/>
				
					<rect x="516.7" y="-294.4" transform="matrix(-0.9495 0.3138 -0.3138 -0.9495 927.3488 -701.9917)" fill="#DCE4E8" width="7" height="36"/>
				
					<rect x="526.3" y="-297.5" transform="matrix(-0.9495 0.3138 -0.3138 -0.9495 945.0789 -711.0957)" fill="#DCE4E8" width="7" height="36"/>
				
					<rect x="535.7" y="-300.7" transform="matrix(-0.9495 0.3137 -0.3137 -0.9495 962.4186 -720.1851)" fill="#DCE4E8" width="7" height="36"/>
				
					<rect x="545.2" y="-303.8" transform="matrix(-0.9496 0.3134 -0.3134 -0.9496 980.1196 -729.0641)" fill="#DCE4E8" width="7" height="36"/>
				
					<rect x="554.8" y="-306.8" transform="matrix(-0.9495 0.3138 -0.3138 -0.9495 997.7372 -738.1511)" fill="#DCE4E8" width="7" height="36"/>
				
					<rect x="500.9" y="-268.6" transform="matrix(-0.9496 0.3134 -0.3134 -0.9496 901.653 -666.0458)" fill="#E74C3C" width="7" height="16"/>
				
					<rect x="509.9" y="-274.7" transform="matrix(-0.9495 0.3137 -0.3137 -0.9495 917.6191 -677.9631)" fill="#E74C3C" width="7" height="19"/>
				
					<rect x="520.6" y="-270.9" transform="matrix(-0.9495 0.3138 -0.3138 -0.9495 938.5629 -680.8547)" fill="#E74C3C" width="7" height="12"/>
				
					<rect x="528.4" y="-283.9" transform="matrix(-0.9495 0.3137 -0.3137 -0.9495 951.262 -698.7794)" fill="#E74C3C" width="7" height="22"/>
				
					<rect x="537.3" y="-290.9" transform="matrix(-0.9495 0.3137 -0.3137 -0.9495 967.0631 -711.3167)" fill="#E74C3C" width="7" height="26"/>
				
					<rect x="550" y="-274.5" transform="matrix(-0.9495 0.3138 -0.3138 -0.9495 993.7911 -702.9451)" fill="#E74C3C" width="7" height="6"/>
				
					<rect x="557.9" y="-287.4" transform="matrix(-0.9496 0.3134 -0.3134 -0.9496 1006.8622 -720.6096)" fill="#E74C3C" width="7" height="16"/>
			</g>
		</g>
	</g>
	<g id="occhiali">
		<g>
			<g>
				<path fill="#586273" d="M631.1-243.7c-1.3-0.2-2.2-1.5-2-2.8c1.6-9.2-4.6-18.1-13.8-19.7L529-281.4c-1.3-0.2-2.2-1.5-2-2.8
					s1.5-2.2,2.8-2l86.3,15.2c11.9,2.1,19.9,13.5,17.8,25.4C633.7-244.4,632.4-243.5,631.1-243.7z"/>
			</g>
		</g>
		<g>
			<g>
				<g>
					<path fill="#586273" d="M631.1-243.7c-1.3-0.2-2.2-1.5-2-2.8c1.6-9.2-4.6-18.1-13.8-19.7L529-281.4c-1.3-0.2-2.2-1.5-2-2.8
						s1.5-2.2,2.8-2l86.3,15.2c11.9,2.1,19.9,13.5,17.8,25.4C633.7-244.4,632.4-243.5,631.1-243.7z"/>
				</g>
			</g>
			<g>
				<g>
					<path fill="#586273" d="M535.3-260.6c-1.3-0.2-2.2-1.5-2-2.8c2.1-11.9,13.5-19.9,25.4-17.8L645-266c1.3,0.2,2.2,1.5,2,2.8
						s-1.5,2.2-2.8,2l-86.3-15.2c-9.2-1.6-18.1,4.6-19.7,13.8C537.8-261.2,536.6-260.4,535.3-260.6z"/>
				</g>
			</g>
		</g>
		<g opacity="0.3">
			<g>
				<g>
					<path fill="#EFEEEE" d="M574-256.2c-0.9,5.3-6,8.8-11.3,7.9l-28.8-5.1c-5.3-0.9-8.8-6-7.9-11.3l3.4-19.2
						c0.9-5.3,6-8.8,11.3-7.9l28.8,5.1c5.3,0.9,8.8,6,7.9,11.3L574-256.2z"/>
				</g>
			</g>
		</g>
		<g opacity="0.3">
			<g>
				<g>
					<path fill="#EFEEEE" d="M641.1-244.4c-0.9,5.3-6,8.8-11.3,7.9l-28.8-5.1c-5.3-0.9-8.8-6-7.9-11.3l3.4-19.2
						c0.9-5.3,6-8.8,11.3-7.9l28.8,5.1c5.3,0.9,8.8,6,7.9,11.3L641.1-244.4z"/>
				</g>
			</g>
		</g>
		<g>
			<g>
				<path fill="#586273" d="M593.6-255.3c-1.3-0.2-2.2-1.5-2-2.8c0.7-4-2-7.8-5.9-8.5c-4-0.7-7.8,2-8.5,5.9c-0.2,1.3-1.5,2.2-2.8,2
					s-2.2-1.5-2-2.8c1.2-6.6,7.5-11,14.1-9.9c6.6,1.2,11,7.5,9.9,14.1C596.2-255.9,594.9-255,593.6-255.3z"/>
			</g>
		</g>
		<g opacity="0.3">
			<path fill="#EFEEEE" d="M540.7-291.4c-5.3-0.9-10.2,2.3-11.1,7.6l-3.4,19.2c-0.9,5.3,2.5,10.8,7.8,11.7l14.1,2.5l6.8-38.4
				L540.7-291.4z"/>
		</g>
		<g opacity="0.3">
			<path fill="#EFEEEE" d="M607.8-279.6c-5.3-0.9-9.4,2.4-10.3,7.7l-3.4,19.2c-0.9,5.3,1.6,10.6,6.9,11.5l14,2.5l6.8-38.4
				L607.8-279.6z"/>
		</g>
		<g>
			<g>
				<path fill="none" d="M636.2-272.5l-28.8-5.1c-4-0.7-7.8,2-8.5,5.9l-3.4,19.2c-0.7,4,2,7.8,5.9,8.5l28.8,5.1c4,0.7,7.8-2,8.5-5.9
					l3.4-19.2C642.8-268,640.1-271.8,636.2-272.5z"/>
			</g>
			<g>
				<path fill="none" d="M569.1-284.3l-28.8-5.1c-4-0.7-7.8,2-8.5,5.9l-3.4,19.2c-0.7,4,2,7.8,5.9,8.5l28.8,5.1c4,0.7,7.8-2,8.5-5.9
					l3.4-19.2C575.7-279.8,573-283.6,569.1-284.3z"/>
			</g>
			<g>
				<path fill="#586273" d="M569.9-289.1l-28.8-5.1c-6.6-1.2-12.9,3.3-14.1,9.9l-3.4,19.2c-1.2,6.6,3.3,12.9,9.9,14.1l28.8,5.1
					c6.6,1.2,12.9-3.3,14.1-9.9l3.4-19.2C580.9-281.6,576.5-287.9,569.9-289.1z M571.6-256.7c-0.7,4-4.5,6.6-8.5,5.9l-28.8-5.1
					c-4-0.7-6.6-4.5-5.9-8.5l3.4-19.2c0.7-4,4.5-6.6,8.5-5.9l28.8,5.1c4,0.7,6.6,4.5,5.9,8.5L571.6-256.7z"/>
			</g>
			<g>
				<path fill="#586273" d="M637-277.3l-28.8-5.1c-6.6-1.2-12.9,3.3-14.1,9.9l-3.4,19.2c-1.2,6.6,3.3,12.9,9.9,14.1l28.8,5.1
					c6.6,1.2,12.9-3.3,14.1-9.9l3.4-19.2C648-269.8,643.6-276.1,637-277.3z M638.7-244.8c-0.7,4-4.5,6.6-8.5,5.9l-28.8-5.1
					c-4-0.7-6.6-4.5-5.9-8.5l3.4-19.2c0.7-4,4.5-6.6,8.5-5.9l28.8,5.1c4,0.7,6.6,4.5,5.9,8.5L638.7-244.8z"/>
			</g>
		</g>
	</g>
	<g id="calcolatrice">
		<path opacity="0.8" fill="#2980B9" enable-background="new    " d="M1682.1-330.8l-33.9-36.1c-2.6-2.8-7.1-2.9-9.9-0.3l-53.9,50.6
			c-2.8,2.6-2.9,7.1-0.3,9.9l33.9,36.1c2.6,2.8,7.1,2.9,9.9,0.3l53.9-50.6C1684.6-323.5,1684.8-328,1682.1-330.8z"/>
		<g>
			<path fill="#F7F9F8" d="M1588.4-316.6c-2.8,2.6-2.9,7.1-0.3,9.9l33.9,36.1c2.6,2.8,7.1,2.9,9.9,0.3l53.9-50.6
				c2.8-2.6,2.9-7.1,0.3-9.9l-33.9-36.1c-2.6-2.8-7.1-2.9-9.9-0.3L1588.4-316.6z"/>
			<g>
				
					<rect x="1624.9" y="-345.1" transform="matrix(-0.6844 -0.7291 0.7291 -0.6844 2992.9622 614.626)" fill="#E74C3C" width="9.3" height="9.3"/>
				
					<rect x="1634.4" y="-334.9" transform="matrix(-0.6844 -0.7291 0.7291 -0.6844 3001.5701 638.7821)" fill="#E74C3C" width="9.3" height="9.3"/>
				
					<rect x="1644" y="-324.6" transform="matrix(-0.6844 -0.7291 0.7291 -0.6844 3010.2852 663.1724)" fill="#E74C3C" width="9.3" height="9.3"/>
				
					<rect x="1653.5" y="-314.4" transform="matrix(-0.6844 -0.7291 0.7291 -0.6844 3018.8994 687.2864)" fill="#E74C3C" width="9.3" height="9.3"/>
				
					<rect x="1614.6" y="-335.6" transform="matrix(-0.6845 -0.729 0.729 -0.6845 2968.8669 622.9996)" fill="#E74C3C" width="9.3" height="9.3"/>
				
					<rect x="1624.3" y="-325.4" transform="matrix(-0.6844 -0.7291 0.7291 -0.6844 2977.6382 647.3981)" fill="#E74C3C" width="9.3" height="9.3"/>
				
					<rect x="1633.7" y="-315" transform="matrix(-0.6843 -0.7292 0.7292 -0.6843 2985.7969 672.0587)" fill="#E74C3C" width="9.3" height="9.3"/>
				
					<rect x="1643.5" y="-304.8" transform="matrix(-0.6844 -0.7291 0.7291 -0.6844 2994.8955 696.1037)" fill="#E74C3C" width="9.3" height="9.3"/>
				
					<rect x="1604.3" y="-325.9" transform="matrix(-0.6843 -0.7292 0.7292 -0.6843 2944.1812 632.2205)" fill="#E74C3C" width="9.3" height="9.3"/>
				
					<rect x="1614" y="-315.6" transform="matrix(-0.6844 -0.7291 0.7291 -0.6844 2953.1931 656.4695)" fill="#E74C3C" width="9.3" height="9.3"/>
				
					<rect x="1623.6" y="-305.5" transform="matrix(-0.6844 -0.7291 0.7291 -0.6844 2961.9236 680.4485)" fill="#E74C3C" width="9.3" height="9.3"/>
				
					<rect x="1633.2" y="-295.1" transform="matrix(-0.6844 -0.7291 0.7291 -0.6844 2970.5327 704.8375)" fill="#E74C3C" width="9.3" height="9.3"/>
				
					<rect x="1594.2" y="-316.3" transform="matrix(-0.6845 -0.729 0.729 -0.6845 2920.3965 640.5447)" fill="#E74C3C" width="9.3" height="9.3"/>
				
					<rect x="1603.8" y="-306" transform="matrix(-0.6846 -0.729 0.729 -0.6846 2929.2522 664.8574)" fill="#E74C3C" width="9.3" height="9.3"/>
				
					<rect x="1611.1" y="-290.5" transform="matrix(-0.6844 -0.7291 0.7291 -0.6844 2941.8328 701.5938)" fill="#656D78" width="23.4" height="9.3"/>
			</g>
			
				<rect x="1631.8" y="-347.2" transform="matrix(-0.6844 -0.7291 0.7291 -0.6844 3038.2734 639.4577)" fill="#2C3E50" width="51.4" height="18.7"/>
			
				<rect x="1661.7" y="-335.7" transform="matrix(-0.6843 -0.7292 0.7292 -0.6843 3044.1672 655.7499)" fill="#ECF0F1" width="4.7" height="9.3"/>
			
				<rect x="1668" y="-328.9" transform="matrix(-0.6848 -0.7288 0.7288 -0.6848 3050.3889 671.0242)" fill="#ECF0F1" width="4.7" height="9.4"/>
			
				<rect x="1648.9" y="-349.2" transform="matrix(-0.6842 -0.7293 0.7293 -0.6842 3032.2668 623.8472)" fill="#ECF0F1" width="4.7" height="9.3"/>
			
				<rect x="1655.2" y="-342.4" transform="matrix(-0.6843 -0.7292 0.7292 -0.6843 3038.1096 639.7585)" fill="#ECF0F1" width="4.7" height="9.3"/>
		</g>
	</g>
	<g id="hellocontainer">
		<text id="hello" transform="matrix(1 0 0 1 526.8582 21.0823)" fill="#ECF0F1" font-family="'Roboto-Black'" font-size="120px">hello</text>
	</g>
	<g id="subtitle">
		
			<text id="scrolldown" transform="matrix(1 0 0 1 905.7269 21.0823)" fill="#F5ECD9" font-family="'Roboto-Regular'" font-size="14px">scroll down</text>
		
			<text id="viewresume" transform="matrix(1 0 0 1 980.327 21.0823)" fill="#DED6C7" font-family="'Roboto-Regular'" font-size="14px">or just view my resume.</text>
	</g>
</g>
<g id="intro3">
	<text transform="matrix(1 0 0 1 531.193 283.9221)" fill="#01050A" font-family="'Roboto-Thin'" font-size="18px">a design and technology hybrid .</text>
	<text transform="matrix(1 0 0 1 529.3051 224.3221)" fill="#01050A" font-family="'Roboto-Thin'" font-size="18px">   - Participate in the design process: Discover, Ideate, Design &amp; Def ine </text>
	<text transform="matrix(1 0 0 1 529.3051 245.9221)" fill="#01050A" font-family="'Roboto-Thin'" font-size="18px">   - Leads the UI development efforts across all web applications, ensuring best practices are followed at all times. </text>
	<text transform="matrix(1 0 0 1 529.3051 202.1221)" fill="#01050A" font-family="'Roboto-Thin'" font-size="18px">* An engineer who has the technical knowhow and edge to create production code and:  </text>
</g>
<g id="intro2">
	<text id="h" transform="matrix(1 0 0 1 526.8451 145.9221)" fill="#F5F7FA" font-family="'Roboto-Thin'" font-size="30px">I’m Lead Product Design Engineer* @ Workshare.com, London</text>
</g>
<g id="intro1">
	<text transform="matrix(1 0 0 1 527.3451 60.4757)" fill="#ECF0F1" font-family="'Roboto-Thin'" font-size="30px">I’m Albino Tonnina,</text>
	<text transform="matrix(1 0 0 1 527.3451 96.4757)" fill="#ECF0F1" font-family="'Roboto-Thin'" font-size="30px">a self-taught developer.</text>
</g>
</svg>
