<svg xmlns="http://www.w3.org/2000/svg" width="1024" height="768" viewBox="0 0 1024 768"><rect x="-5882.951" y="-5137.504" fill="#F5ECD9" width="12784.607" height="11218.004" id="bg5"/><rect x="-7653.467" y="-7098.016" fill="#2BACB5" stroke="#000" stroke-miterlimit="10" width="15687.934" height="14889.029" id="sky"/><text id="junetext" transform="translate(30 411.632)" enable-background="new"><tspan x="0" y="0" fill="#E84D5B" font-weight="100" font-size="36">London, June 2014,</tspan><tspan x="0" y="57.6" fill="#E84D5B" font-weight="100" font-size="48">Good news, everyone!</tspan><tspan x="0" y="100.8" fill="#E84D5B" font-weight="100" font-size="36">I’m a senior frontend developer at Workshare,</tspan><tspan x="0" y="144" fill="#E84D5B" font-weight="100" font-size="36">a provider of secure enterprise file sharing</tspan><tspan x="0" y="187.2" fill="#E84D5B" font-weight="100" font-size="36">and collaboration applications. And it’s great!</tspan></text><g id="london"><title>Layer 1</title><g id="svg_2"><g id="layer17"><path id="path4607" fill="#E84D5B" d="M1593.918 997.435l-.451-56.526h-20.519v53.782h-11.217v-66.354h-19.258v49.591h-15.568v-39.114h-16.797v37.021h-15.537v-49.592s-13.078-39.115-23.637 0v49.592h-3.121v-83.119l-20.906 13.56v74.098h-8.938v-73.687h-4.98v-12.577h-15.237v10.479h-7.47v74.038h-8.067v-58.324l-4.351-.35-4.68-36.67-4.979 37.02h-6.209v58.324l-6.539-.698v-77.532l-12.508-24.342-11.428.245-13.619 26.49v77.234h-14.697v-90.804h-22.078v90.452h-5.276v-82.769h-17.431v79.275h-2.487v-69.848l-16.318 4.915v65.282h-18.176v-79.978l-5.73-11.143-5.969 11.581v78.49h-16.918v-82.77h-18.656v81.371h-3.75v-90.098h-30.146v88.354h-12.146v-49.591h-17.098v47.146h-2.49v-88.007h-20.217v88.703h-5.58v-81.37h-24.566v82.77h-11.518v-82h-7.318v-22.225h-12.959v22.227h-9.479v82.48h-12.299v-55.317h-20.906v55.562h-19.557v-75.812s-11.431-15.806-25.947-1.729c.211 7.653 0 78.281 0 78.281h-4.859v-66.422h-14.938l-15.117 63.332h-7.738v-27.278l-3.301-9.14-2.879 9.14h-16.258l-1.891-8.304-2.88 8.272v27.069h-10.948v-41.857h-13.646v40.995h-6.27v-71.123h-19.349v70.138h-13.647v-80.509h-21.535v17.286h-7.92v-19.756h-19.349v82.481h-5.278v-50.376h-12.748v48.895h-8.787v-64.699h-14.521v63.714h-14.518v-78.531h-16.707l.869 110.142 889.943.514z"/><path id="path4611" fill="#E84D5B" d="M307.835 1008.413l.439-56.527h20.526v53.782h11.193v-66.354h19.281v49.592h15.55v-39.116h16.791v37.021h15.55v-49.591s13.063-39.116 23.638 0v49.592h3.109v-83.118l20.919 13.559v74.098h8.938v-73.688h4.979v-12.574h15.238v10.479h7.469v74.036h8.068v-58.324l4.35-.351 4.681-36.67 4.979 37.021h6.209v58.323l6.539-.697v-77.534l12.508-24.341 11.431.246 13.616 26.489v77.234h14.697v-90.803h22.078v90.453h5.277v-82.77h17.397v79.275h2.49v-69.847l16.348 4.914v65.283h18.179v-79.977l5.729-11.144 5.969 11.58v78.49h16.918v-82.768h18.656v81.369h3.75v-90.102h30.146v88.356h12.146v-49.589h17.099v47.146h2.489v-88.006h20.218v88.703h5.58v-81.371h24.565v82.77h11.519v-82.001h7.317v-22.226h12.959v22.226h9.479v82.482h12.299v-55.318h20.906v55.563h19.557v-75.812s11.43-15.805 25.947-1.728c-.211 7.652 0 78.281 0 78.281h4.828v-66.428h14.969l15.117 63.332h7.737v-27.279l3.302-9.139 2.879 9.139h16.258l1.859-8.303 2.909 8.272v27.072h10.947v-41.86h13.647v40.996h6.271v-71.124h19.348v70.137h13.617v-80.509h21.568v17.288h7.918v-19.757h19.348v82.481h5.279v-50.367h12.748v48.896h8.787v-64.699h14.52v63.713h14.519v-78.531h16.707l-.869 110.142-889.928.512z"/><path id="path6551" fill="#00ADEF" d="M-130.707 1014.284l.439-56.527h20.523v53.785h11.197v-66.356h19.28v49.593h15.551v-39.116h16.792v37.021h15.55v-49.592s13.06-39.115 23.633 0v49.592h3.111v-83.119l20.916 13.562v74.099h8.938v-73.69h4.978v-12.57h15.237v10.476h7.463v74.037h8.087v-58.322l4.354-.348 4.664-36.67 4.977 37.018h6.222v58.322l6.528-.696 6.75-87.007 8.578-14.867 8.618.245 9.868 14.699 3.749 89.023h14.684v-90.806h22.079v90.452h5.286v-82.77h17.415v79.278h2.489v-69.851l16.33 4.914v65.283h18.188v-79.977l5.729-11.144 5.954 11.581v78.489h16.926v-82.768h18.661v81.374h3.729v-90.105h30.164v88.356h12.13v-49.593h17.104v47.15h2.487v-88.01h20.214v88.707h5.601v-81.37h24.565v82.771h11.507v-82h7.318v-22.226h12.973v22.226h9.455v82.479h12.316v-55.315h20.88v55.564h19.587v-75.815s11.429-15.806 25.946-1.728c-.21 7.655 0 78.283 0 78.283h4.829v-66.43h14.967l15.088 63.335h7.771v-27.282l3.301-9.135 2.85 9.135h16.287l1.859-8.303 2.879 8.273v27.071h10.979v-41.856h13.648v40.992h6.238v-71.12h19.377v70.133h13.618v-80.505h21.566v17.287h7.889v-19.756h19.377v82.479h5.279v-50.377h12.748v48.898h8.789v-64.703h14.518v63.713h14.519v-78.527h16.71l-.871 110.138-889.935.519z"/><path id="path2709" fill="#F7F7F7" d="M970.639 993.241h5.067v-90.803h22.078v90.452h5.279v-82.77h17.396v79.275h2.49v-69.845l16.349 4.914v65.282h18.178v-79.976l5.729-11.144 5.97 11.581v78.49h16.918v-82.769h18.655v81.37h3.75v-90.102h30.146v88.355h12.15v-49.592h17.098v47.146h2.488v-88.005h20.217v88.708h5.58v-81.375h24.565v82.771h11.519v-82.001h7.317v-22.226h12.959v22.226h9.479v82.481h12.299v-55.317h20.906v55.562h19.557v-75.812s11.428-15.805 25.947-1.729c-.211 7.653 0 78.281 0 78.281h4.828v-66.427h14.969l15.117 63.332h7.74v-27.279l3.299-9.135 2.879 9.135h16.258l1.859-8.303 2.91 8.271v27.073h10.948v-41.861h13.646v40.996h6.27v-71.121h19.349v70.134h13.616v-80.504h21.566v17.283h7.92v-19.757h19.349v82.482h5.276v-50.37h12.748v48.895h8.789v-64.698h14.518v63.713h14.521v-78.531h16.707l-.869 110.141-624.27.36"/></g><g id="layer14"><path id="path4146" fill="#999" d="M-408.512 978.595v-133.582c0-6.252 7.622-21.322 17.2-21.586 10.027-.275 17.88 15.697 18.093 21.586.02.609 0 132.78 0 132.78l-35.293.802z"/><path id="path4153" fill="#E84D5B" d="M-85.83 767.775l10.381 36.312v178.909l-45.344.488v-181.397l9.997-33.278 12.706-23.102 12.26 22.068z"/><path id="path4155" fill="#00ADEF" d="M-59.564 954.884v-158.082h9.442v10.166h22.338v-10.22h8.828v158.079l-40.608.057z"/><path id="path4602" fill="#ECECEC" d="M1456.745 978.443l.271-179.954-36.025 25.379v154.575h35.754z"/><path id="path4604" fill="#F2F2F2" d="M1503.84 855.974l5.879 20.6v101.501l-25.705.278v-102.915l5.668-18.878 7.199-13.106 6.959 12.52z"/></g><path id="tree04" stroke="#000" stroke-width=".159" d="M-397.399 960.048c2.415.273 3.744-1.227 6 .899 1.06 1.003 2.657 3.155 3.206 4.591.639 1.671.753 4.434 2.34 5.494 2.175 1.444 3.272-3.314 6.047-2.367 2.028.697 1.986 3.529 1.95 5.443-.103 6.119-3.72 11.024-3.252 14.981.411 3.49 4.803 4.053 4.574 8.57-.145 2.832-2.45 3.004-5.084 5.949-3 3.366-4.085 6.463-5.699 10.659-.492 1.294-1.109 4.238-1.842 5.037-1.452 1.59-3.503.006-5.357.737-1.405.552-2.084 1.943-3.4 2.833-2.48 1.671-7.925 2.196-9.409 5.376-.471 1.253-.081 6.7 0 8.513-.084 1.392.009 3.958-.699 5.113-.314.519-.726.853-1.299.853-2.159 0-1.901-3.848-1.901-5.431v-7.498c-.103-5.865-3.015-5.312-6.678-7.074l-4.292-2.495c-1.554-.927-3.228-2.595-4.77-3.053-1.921-.579-5.12.34-6.203-1.162-1.3-1.806.559-6.552-.349-9.242-.753-2.259-2.821-3.683-3.862-5.894-.564-1.195-1.894-6.164-1.898-7.498l.443-4.284c-.204-2.067-1.755-3.398-1.746-5.355.016-2.312 1.92-3.068 3.474-6.427 1.335-2.892 2.49-7.223 4.521-9.526 3.084-3.504 5.831-3.277 8.96-4.771 1.479-.703 4.033-3.354 7.631-4.944 1.455-.645 3.209-.63 4.77-.883 5.009-.662 11.212 2.566 13.824 2.856z"/><g id="layer11"><g id="g3909" fill="#E84D5B" stroke="#000"><path id="path3094" stroke-width=".13" d="M1391.237 1041.392l-.149-47.581s3.631-.546 5.579-3.074v-126.068h-38.364v126.064c1.951 2.532 5.551 3.075 5.551 3.075v46.935c6.355 6.173 21.023 4.66 27.383.649z"/><path id="path3096" stroke-width=".13" d="M1369.879 864.752l-.119-66.107h15.268l.029 66.092-15.178.015z"/><path id="path3098" stroke-width=".13" d="M1359.922 853.319v4.668h35.184v-4.732l-35.184.064z"/><path id="path3100" stroke-width=".13" d="M1360.102 840.021v4.664h35.184v-4.729l-35.184.065z"/><path id="path3102" stroke-width=".13" d="M1359.862 826.718v4.668h35.187v-4.731l-35.187.063z"/><path id="path3104" stroke-width=".13" d="M1360.192 813.354v4.665h35.215v-4.729l-35.215.064z"/><path id="path3106" stroke-width=".13" d="M1359.922 799.797v4.668h35.184v-4.731l-35.184.063z"/><path id="path3108" stroke-width=".13" d="M1385.327 798.57s9.568-.386 11.367-1.793l-.059-3.39s-.57-.639-2.281-.956c-.147.063-.09-.832-.09-.832h1.59l.721-.832v-13.557h1.049s.632-.391.841-1.044v-17.614s-.841-1.107-1.949-1.492c.061-.066 0-12.005 0-12.005-1.199-2.229-6.689-3.043-10.351-3.595l.031-.927s3.181-.249 3.75-1.018c.06 0 1.17-1.107 1.229-1.56.03-.092 0-8.254 0-8.254-.449-.832-3.72-2.283-6.72-2.509l-13.946.013c-3 .227-6.271 1.678-6.689 2.51 0 0-.061 8.162 0 8.25.062.455 1.141 1.561 1.201 1.561.568.771 3.748 1.017 3.748 1.017l.029.931c-3.658.55-9.146 1.36-10.349 3.596 0 0-.061 11.938 0 12.005-1.108.384-1.948 1.492-1.948 1.492v17.609c.209.657.869 1.048.869 1.048h1.02v13.557l.721.832h1.619s.031.896-.119.832c-1.709.318-2.279.959-2.279.959l-.061 3.389c1.83 1.405 11.398 1.789 11.398 1.789l15.658-.012z"/><path id="path3110" stroke-width=".13" d="M1361.002 853.225v-.902h-2.101l-.36 1.356-2.398.045-.48-2.532v-2.621l.421-1.72 2.459-.09.6.902v3.844l2.76.091.031 1.492-.932.135z"/><path id="path3112" stroke-width=".13" d="M1360.311 839.791v-.906h-2.1l-.359 1.357-2.398.044-.512-2.529v-2.625l.451-1.718 2.459-.091.6.905v3.845l2.761.088.028 1.492-.93.138z"/><path id="path3114" stroke-width=".13" d="M1360.791 826.685v-.905h-2.07l-.359 1.356-2.43.047-.479-2.532v-2.624l.449-1.72 2.459-.09.601.906v3.843l2.729.092.029 1.492-.929.135z"/><path id="path3116" stroke-width=".13" d="M1364.36 813.268v-.902h-2.098l-.361 1.356-2.43.044-.479-2.532v-2.621l.449-1.719 2.459-.091.6.902v3.844l2.73.092.061 1.492-.931.135z"/><path id="path3118" stroke-width=".13" d="M1392.737 832.923h-2.91s-3.479 2.851-.119 6.784c.091-.136 3.779.182 3.779.182s3.24-4.208-.75-6.966z"/><path id="path3120" stroke-width=".13" d="M1392.948 846.767h-2.91s-3.51 2.852-.121 6.785c.091-.135 3.779.183 3.779.183s3.24-4.209-.748-6.968z"/><path id="path3122" stroke-width=".117" d="M1392.887 820.273h-2.312s-2.817 2.865-.119 6.824c.091-.139 3.062.183 3.062.183s2.578-4.23-.631-7.007z"/><path id="path3124" stroke-width=".11" d="M1389.438 809.073h-2.1s-2.521 2.874-.09 6.845c.059-.139 2.729.182 2.729.182s2.309-4.245-.539-7.027z"/><path id="path3126" stroke-width=".122" d="M1366.43 821.369h-2.549s-3.09 2.859-.121 6.808c.092-.135 3.33.183 3.33.183s2.85-4.222-.66-6.991z"/><path id="path3128" stroke-width=".134" d="M1367.27 834.243h-2.91s-3.479 3.052-.119 7.266c.09-.145 3.779.195 3.779.195s3.209-4.507-.75-7.461z"/><path id="path3130" stroke-width=".126" d="M1366.67 847.212h-2.729s-3.33 2.854-.121 6.791c.062-.135 3.601.182 3.601.182s3.06-4.211-.751-6.973z"/><path id="path3132" stroke-width=".143" d="M1371.979 693.586l11.068.165-.359 4.585h-10.799l.09-4.75z"/><path id="path3134" stroke-width=".187" d="M1382.268 703.112h-9.209v4.599h9.119l.09-4.599z"/><path id="path3136" stroke-width=".201" d="M1373.629 712.949h7.77v5.049h-7.74l-.03-5.049z"/><path id="path3138" stroke-width=".2" d="M1374.77 721.99h5.578v2.792h-5.639l.061-2.792z"/><path id="path3140" stroke-width=".324" d="M1374.407 727.439l-2.639-33.636 11.428.192-2.67 33.477-6.119-.033z"/><path id="path3142" stroke-width=".311" d="M1377.77 693.357v-23.086"/></g></g><path id="path3090" fill="#00ADEF" stroke="#000" stroke-width=".164" d="M1278.873 1039.703c-.511 2.001-2.671 4.816-2.88 4.986-15.088 13.478-55.012 15.751-76.698-1.672-.869-.688-4.709-6.138-4.709-6.281-3.9-37.473-27.388-266.804 37.975-355.58-.48-.525 7.049-.525 7.049-.525 68.898 77.973 42.623 358.635 39.263 359.072z"/><path id="path3293" fill="#00ADEF" d="M838.656 1039.835v-7.781l.781-.866-.031-25.283s-1.108-1.558-.897-1.815c-.062-.304-.062-1.942-.062-1.942h1.109v-23.602l-1.049-.821v-.733l1.049.044-1.049-1.385v-1.298l-1.351-.883v-1.147l1.289-.994v-1.513l.871-.69v-5.534h-.811l-.449-.865v-.818l.479-.531h4.052v4.075h.809v.689h1.65v-.689h2.278v.866h1.32v.821h1.109v.516l.778.239v-3.05l.632-1.293.539-.605h5.43v.689h6.358v-.905h5.97v.861h15.54v-1.038h5.907v1.038h15.718v-1.165h5.789v1.165h15.147v-1.122h6.898v.994h5.52v-.949h-.869v-1.688h-.6v-1.427h1.68v-10.914h-1.108v-3.092h.51v-25.955000000000002l-1.35-1.513v-1.317l1.768-.758v-3.393l-.479-.146v-.868l2.13-1.514 3.149-1.061h3.39v-9.854l-1.289-1.115v-1.836h1.319v-.597h.568l-.09-.45h-.449l-.51-.583v-.678l1.469-.957v-2.173h.66c1.051-10.048 6.358-29.435 22.258-35.743v-1.378h.688v-.855s-1.229.146-1.409-.791c0-.242-.062-1.027.75-1.389l.479-.039v-2.918h.389v-1.576h.48v1.425h1.02v-2.507h-.538v-1.513h1.079v-10.979l-1.198-1.081v-.862h1.289v-3.441l1.229 1.374v1.682h.961v-6.235h-1.26v-1.101h.719v-3.361s1.59-2.84 2.58-2.84v-1.041l-.84-.488v-.489h.93v-2.644h.691s-.601-.465-.66-.906l-.031-1.018s.271-.495.541-.521l.392-.02v-.562c-2.761-1.528-.603-4.442 0-4.144l.059-5.386.48-2.918.448 2.918.091 5.386c.569-.3 2.76 2.614-.029 4.144v.562l.391.02c.299.024.539.521.539.521l-.029 1.018c-.061.441-.659.906-.659.906h.719v2.644h.9v.489l-.841.488v1.041c.99 0 2.58 2.84 2.58 2.84v3.361h.722v1.101h-1.263v6.236h.961v-1.683l1.229-1.373v3.441h1.291v.862l-1.199 1.081v10.979h1.078v1.513h-.539v2.507h1.021v-1.425h.479v1.575h.391v2.918l.479.04c.811.36.75 1.146.75 1.389-.18.937-1.41.791-1.41.791v.855h.691v1.378c15.896 6.31 21.207 25.695 22.285 35.743h.631v2.173l1.5.957v.677l-.539.583h-.42l-.121.451h.569v.597h1.318v1.836l-1.289 1.114v9.854h3.389l3.15 1.061 2.16 1.514v.867l-.51.146v3.392l1.77.759v1.317l-1.32 1.512v25.955h.48v3.093h-1.109v10.914h1.681v1.425h-.603v1.688h-.838v.676h7.648v-1.256h6.897v1.256h15.268v-1.094h5.908v1.224h15.869v-1.193h6.029v1.129h13.979v-1.081h7.588v1.004h30.355v-6.242l-.898-.755-.03-4.03.899-.455v-1.551h-.899v-5.196h2.698v-2.048l1.32.022-.811-1.26-.449-.58-.062-1.286.99.026v-1.642h.42v-13.944l-.75-.476-1.08-.594v-1.986h1.83v-3.028h.511v-2.118h1.348v-2.634h-.57v-.903h.57v-1.128h.84v1.099h.51v.934h-.51v1.516h.688l.812-1.452v-4.574h-.6v-1.496h.93v-1.534h.66v-1.062h-.66v-1.162h.631v-1.095h.449l-.09-.414h.569l-.061-1.978.869-1.302v-2.525l1.561-2.836h.301s.148-1.546.839-1.674l.061-1.134c-.629-.094-.897-1.333-.061-1.739.03 0 0-1.05 0-1.053-.988-.343-.988-2.173.36-2.224 1.351.055 1.351 1.881.359 2.227l-.029 1.05c.869.409.57 1.649-.031 1.739l.062 1.134c.688.131.84 1.678.84 1.678h.301l1.56 2.836v2.525l.84 1.301-.029 1.978h.57l-.09.415h.448v1.094h.601v1.162h-.66v1.062h.69v1.536h.929v1.495h-.601v4.574l.781 1.448h.688v-1.513h-.479v-.937h.479v-1.096h.871v1.129h.539v.902h-.539v2.628h1.318v2.117h.541v3.032h1.828v1.983l-1.109.597-.719.477v13.94h.42v1.646l.959-.027-.061 1.287-.42.579-.841 1.257 1.351-.023v2.052h2.701v5.196h-.9v1.552l.9.453-.031 4.032-.9.751v5.036h3.66v-1.166s-.66-.643-.6-1.128v-1.98s.149-.659.479-.839c-.061-.047 0-4.336 0-4.336l.39-.45s-.209-.88.51-.912c-.029 0 .75-.027.479 1.047 0-.018.722.462.722.462v1.162h-.302v.499h.511l-.029 3.979h-.449v9.947l.898.641v3.396h-.449v1.979h-.48v18.687h1.41v3.075h.959v2.074h-.479v.934h-1.41v3.056h.539v2.188h-.539v1.913h-.48v23.927h.931v.979h.51v.569h.479v8.135l-326.321.03-.027-.001z"/><g id="g3281"><g id="g3293"><path id="path3295" fill="#002F5B" d="M710.456 872.81c0 1.199-1.021 2.173-2.28 2.173-1.261 0-2.279-.974-2.279-2.173 0-1.202 1.02-2.176 2.279-2.176s2.28.972 2.28 2.176z"/><path id="path3297" fill="#002F5B" stroke="#1A1A1A" stroke-width="2.442" d="M707.906 871.206l.15-6.896.211 6.887-.361.009z"/><path id="path3299" fill="#00ADEF" d="M708.926 874.312c-.238 1.172.451 8.37.541 8.397 7.858 2.25 8.908 10.021 8.908 10.021l2.129.02v4.39h-2.248l-.121 33.354-19.887-.043.028-33.066h-2.129v-4.668l2.01-.021s.511-8.249 8.369-9.735c.09-.017 1.049-7.296.779-8.469l1.621-.18z"/></g><g id="g3301" stroke="#000"><path id="path3303" fill="#002F5B" stroke-width=".884" d="M677.909 860.676c0 1.199-1.02 2.173-2.278 2.173-1.26 0-2.279-.974-2.279-2.173 0-1.202 1.02-2.176 2.279-2.176s2.278.974 2.278 2.176z"/><path id="path3305" fill="#002F5B" stroke-width="2.442" d="M675.362 859.072l.15-6.896.209 6.883-.359.013z"/><path id="path3307" fill="#00ADEF" stroke-width=".828" d="M676.381 862.179c-.24 1.172.45 8.37.541 8.397 7.858 2.25 8.907 10.021 8.907 10.021l2.13.021v4.385h-2.248l-.121 33.355-19.888-.04.029-33.065h-2.129v-4.669l2.01-.021s.511-8.25 8.369-9.733c.09-.019 1.049-7.297.779-8.469l1.621-.182z"/></g><path id="path3310" fill="#002F5B" stroke="#000" stroke-width=".884" d="M798.764 860.518c0 1.202-1.021 2.177-2.279 2.177-1.291 0-2.311-.975-2.311-2.177 0-1.198 1.02-2.177 2.311-2.177 1.258 0 2.279.977 2.279 2.177z"/><path id="path3312" fill="#002F5B" stroke="#000" stroke-width=".209" d="M796.184 858.914l.15-6.896.239 6.887-.389.009z"/><g id="g3314"><path id="path3316" fill="#002F5B" d="M770.178 872.048c0 1.105-.99 1.998-2.222 1.998-1.198 0-2.188-.893-2.188-1.998 0-1.102.99-1.997 2.188-1.997 1.232 0 2.222.895 2.222 1.997z"/><path id="path3318" fill="#002F5B" stroke="#1A1A1A" stroke-width="2.322" d="M767.719 870.579l.119-6.336.239 6.322-.358.014z"/><path id="path3321" fill="#00ADEF" d="M768.706 873.429c-.237 1.078.423 7.691.513 7.716 7.559 2.067 8.578 9.205 8.578 9.205l2.039.021v4.028h-2.158l-.121 30.637-19.168-.037.061-30.374h-2.069v-4.288l1.95-.017s.479-7.58 8.068-8.943c.09-.018.988-6.701.75-7.778l1.557-.17z"/></g><path id="path3323" fill="#00ADEF" stroke="#000" stroke-width=".071" d="M797.293 862.38c-.271 1.173.422 8.371.51 8.398 7.858 2.25 8.91 10.023 8.91 10.023l2.129.021v4.386h-2.219l-.15 33.354-19.887-.038.028-33.069h-2.129v-4.669l2.008-.021s.513-8.249 8.369-9.73c.09-.021 1.051-7.3.812-8.474l1.619-.181z"/><path id="path3325" fill="#00ADEF" stroke="#000" stroke-width=".07" d="M826.6 919.636l.029-4.811c-.57-.441-3.72-.707-3.72-.707v5.996l-3.301-.474-.029-5.666c-2.039-.358-2.879-.475-4.799-.552l.029 5.443-3.539-.473v-5.108c-2.641-.088-4.529-.111-4.529-.111l.062 5.09-5.16-.03h-4.59v-5.406h-7.107l.06 5.471-4.498-.022v-5.406l-7.021.022-.029 5.464-4.528-.026v-5.403h-7.142l.031 5.48-4.469-.033v-5.406h-7.141l.092 5.46-4.529-.007v-5.406h-7.141l.09 5.476-4.529-.015v-5.405h-7.106l.028 5.46-4.5-.008v-5.405h-7.108l.03 5.474-4.5-.021v-5.406h-7.108l.061 5.471-4.528-.022v-5.406h-7.109v5.372h-4.529v-5.238h-27.115l.209 89.226c-.237.059 131.804-.471 132.041-.475 0 0 27.086-.428 28.617-4.133.084-1.623.025-78.213.025-78.324z"/><path id="path3056" fill="#002F5B" stroke="#000" stroke-width=".24" d="M657.034 1019.617l-.03-9.647s-1.681-.319-1.591-1.034c.091-.714 1.052-.198 1.351-1.07.899-2.811-.449-4.861-2.879-4.904-2.699.01-3.898 2.115-2.972 4.924.271.873 1.23.357 1.32 1.072.09.714-1.59 1.033-1.59 1.033l-.06 9.129v.535l6.451-.038z"/></g><g id="g12775"><path id="path2236" fill="#fff" d="M217.136 887.749l1.519.04 1.325-8.276.618-2.998-.87-.069-.081-.635 1.089-.039.858-6.011.398-3.301.351 3.375.897 5.938.872.033.091.685-.893-.074 2.493 17.25.171 119.553-33.001-.003v-119.56l2.538-17.547-.789.081.062-.587.798-.07.789-4.691.491-3.938.281 3.965.76 4.456.792.064-.032.475-.657.078.792 3.561 2.441 8.229 1.515-.014 6.927-27.688 7.455 27.718z"/><path id="path7339" fill="#fff" d="M421.265 887.61h2.097l1.329-8.354.618-2.994-.87-.07-.081-.635 1.089-.043.858-6.01.397-3.301.353 3.378.896 5.936.87.034.093.685-.894-.074 2.492 17.25.174 119.557-33.001-.008v-119.56l2.538-17.548-.789.081.062-.587.796-.069.791-4.692.492-3.938.281 3.966.757 4.46.795.061-.032.479-.66.073.792 3.562 2.091 8.6 1.946.015 6.849-28.084 6.871 27.83z"/><path id="path7342" fill="#fff" d="M397.737 913.226l-78.275.023v-1.688s.477-3.398-1.413-3.221c.068-.026-1.706-.307-1.547 2.785l-3.805-.051-.045-2.633s2.594-3.427-.889-4.656c-1.771.805-1.758 2.701-.731 4.398.485.807.188 2.065.188 2.94l-3.873.027s.123-2.767-.957-2.763c0 0-2.387-.681-1.842 3.976h-78.979v13.116h176.035v-12.295l-3.867.042z"/><g id="g13443"><path id="path8345" fill="#262626" stroke="#000" stroke-width="3.3" d="M195.531 926.372c-50.342 56.454-75.534 82.606-139.94 84.854 0 0-50.432 3.24-78.712-20.895v.145"/><path id="path8336" fill="#D21C23" stroke="#262626" stroke-width="3.3" d="M194.754 923.425s-71.724 74.815-139.374 83.429c0 0-35.197 3.35-79.468-21.611"/><path id="path11254" fill="#262626" stroke="#000" d="M176.265 941.053l-5.373 12.684"/><path id="path11256" fill="#262626" stroke="#000" d="M168.16 946.984l10.931-.818"/><path id="path11258" fill="#262626" stroke="#000" d="M169.618 947.392l-4.012 11.05.366-.308"/><path id="path11262" fill="#262626" stroke="#000" d="M149.167 964.016l11.297-.919"/><path id="path11264" fill="#262626" stroke="#000" d="M146.845 965.498l-10.479 18.722"/><path id="path11266" fill="#262626" stroke="#000" d="M134.409 974.653l15.304.924"/><path id="path11268" fill="#262626" stroke="#000" d="M132.405 975.271l-10.2 19.332"/><path id="path11270" fill="#262626" stroke="#000" d="M121.202 981.92l13.39 5.727"/><path id="path11272" fill="#262626" stroke="#000" d="M118.833 983.759l-10.658 17.698"/><path id="path11274" fill="#262626" stroke="#000" d="M107.446 989.489l13.572 6.75"/><path id="path11276" fill="#262626" stroke="#000" d="M106.172 990.614l-11.66 15.443"/><path id="path11278" fill="#262626" stroke="#000" d="M94.056 996.138l12.208 6.033"/><path id="path11280" fill="#262626" stroke="#000" d="M89.865 998.183l-9.018 11.15"/><path id="path11282" fill="#262626" stroke="#000" d="M79.847 1001.558l10.475 5.22"/><path id="path11284" fill="#262626" stroke="#000" d="M76.019 1003.195c-.361 0-8.381 7.367-8.381 7.367"/><path id="path11286" fill="#262626" stroke="#000" d="M67.093 1004.934l8.927 4.811"/><path id="path11288" fill="#262626" stroke="#000" d="M64.453 1006.265l-6.561 5.318"/><path id="path11290" fill="#262626" stroke="#000" stroke-width="2" d="M56.981 1007.288l9.293 4.399"/><path id="path12267" fill="#262626" stroke="#000" stroke-width="2" d="M175.401 948.366v71.811"/><path id="path12269" fill="#262626" stroke="#000" stroke-width="2" d="M161.738 952.866v67.721"/><path id="path12271" fill="#262626" stroke="#000" stroke-width="2" d="M148.075 962.483v58"/><path id="path12273" fill="#262626" stroke="#000" stroke-width="2" d="M134.046 973.121v47.056"/><path id="path12275" fill="#262626" stroke="#000" stroke-width="2" d="M119.834 981.92v38.257"/><path id="path12277" fill="#262626" stroke="#000" stroke-width="2" d="M106.718 988.465v31.506l.354-.226.013.022"/><path id="path12279" fill="#262626" stroke="#000" stroke-width="2" d="M92.871 995.013v25.164"/><path id="path12281" fill="#262626" stroke="#000" stroke-width="2" d="M79.574 1000.332v20.255"/><path id="path12283" fill="#262626" stroke="#000" stroke-width="2" d="M65.728 1004.627v16.162"/><path id="path12376" fill="#262626" stroke="#000" d="M162.511 953.224l10.157-.715"/><path id="path12378" fill="#262626" stroke="#000" d="M158.639 956.09l-8.381 17.081"/><path id="path7591" fill="#262626" stroke="#000" stroke-width="2" d="M39.401 1019.894v-14.014"/><path id="path7593" fill="#262626" stroke="#000" stroke-width="2" d="M24.919 1019.894v-16.062"/><path id="path7595" fill="#262626" stroke="#000" stroke-width="2" d="M11.256 1019.587v-19.336"/><path id="path7597" fill="#262626" stroke="#000" stroke-width="2" d="M-2.5 1019.075v-23.426h.366"/><path id="path7599" fill="#262626" stroke="#000" stroke-width="2" d="M-15.8 1018.462v-28.949"/><path id="path8572" fill="#262626" stroke="#000" d="M39.857 1010.073l10.75-2.763"/><path id="path8574" fill="#262626" stroke="#000" d="M39.95 1005.675l11.476 5.625"/><path id="path8576" fill="#262626" stroke="#000" d="M25.465 1008.845l14.938-2.25"/><path id="path8578" fill="#262626" stroke="#000" d="M25.648 1003.731l14.028 7.772v-.101"/><path id="path8580" fill="#262626" stroke="#000" d="M11.435 1006.595l13.117-2.456"/><path id="path8582" fill="#262626" stroke="#000" d="M11.619 1000.456l12.57 9.207"/><path id="path8584" fill="#262626" stroke="#000" d="M-2.227 1003.013l13.301-2.861"/><path id="path8586" fill="#262626" stroke="#000" d="M-2.134 995.444l13.116 11.254"/><path id="path8588" fill="#262626" stroke="#000" d="M-15.617 996.774l12.754-1.229"/><path id="path8590" fill="#262626" stroke="#000" d="M-15.251 989.407l12.205 12.893"/></g><g id="g12056" fill="#262626" stroke="#000"><g id="g11860"><path id="path11866" d="M446.558 941.386l5.375 12.687"/><path id="path11868" d="M454.654 947.321l-10.918-.818"/><path id="path11870" d="M453.215 947.729l3.988 11.05-.359-.308"/><path id="path11872" d="M473.672 964.354l-11.31-.921"/><path id="path11874" d="M475.981 965.835l10.468 18.723"/><path id="path11876" d="M488.429 974.991l-15.328.922"/><path id="path11878" d="M490.408 975.606l10.198 19.331"/><path id="path11880" d="M501.627 982.253l-13.407 5.73"/><path id="path11882" d="M503.996 984.096l10.648 17.698"/><path id="path11884" d="M515.365 989.825l-13.558 6.751"/><path id="path11886" d="M516.655 990.95l11.668 15.444"/><path id="path11888" d="M528.774 996.476l-12.209 6.033"/><path id="path11890" d="M532.973 998.521l8.998 11.148"/><path id="path11892" d="M542.99 1001.896l-10.498 5.217"/><path id="path11894" d="M546.801 1003.532c.358 0 8.367 7.367 8.367 7.367"/><path id="path11896" d="M555.739 1005.271l-8.938 4.811"/><path id="path11898" d="M558.379 1006.601l6.539 5.319"/><path id="path11900" stroke-width="2" d="M565.848 1007.625l-9.299 4.399"/><path id="path11902" stroke-width="2" d="M447.426 948.702v71.811"/><path id="path11904" stroke-width="2" d="M461.073 953.203v67.721"/><path id="path11906" stroke-width="2" d="M474.751 962.819v58"/><path id="path11908" stroke-width="2" d="M488.788 973.458v47.055"/><path id="path11910" stroke-width="2" d="M502.976 982.253v38.26"/><path id="path11912" stroke-width="2" d="M516.115 988.802v31.506l-.36-.226v.023"/><path id="path11914" stroke-width="2" d="M529.944 995.351v25.162"/><path id="path11916" stroke-width="2" d="M543.26 1000.669v20.255"/><path id="path11918" stroke-width="2" d="M557.088 1004.964v16.162"/><path id="path11920" d="M460.323 953.56l-10.166-.714"/><path id="path11922" d="M464.192 956.427l8.369 17.082"/><path id="path11924" stroke-width="2" d="M583.426 1020.229v-14.013"/><path id="path11926" stroke-width="2" d="M597.911 1020.229v-16.061"/><path id="path11928" stroke-width="2" d="M611.561 1019.923v-19.335"/><path id="path11930" stroke-width="2" d="M625.327 1019.411v-23.424h-.358"/><path id="path11932" stroke-width="2" d="M638.616 1018.798v-28.949"/><path id="path11934" d="M582.975 1010.411l-10.769-2.763"/><path id="path11936" d="M582.885 1006.012l-11.488 5.625"/><path id="path11938" d="M597.372 1009.181l-14.938-2.25"/><path id="path11940" d="M597.161 1004.067l-14.008 7.774v-.104"/><path id="path11942" d="M611.381 1006.931l-13.107-2.455"/><path id="path11944" d="M611.2 1000.794l-12.567 9.206"/><path id="path11946" d="M625.059 1003.351l-13.318-2.862"/><path id="path11948" d="M624.969 995.781l-13.14 11.251"/><path id="path11950" d="M638.438 997.112l-12.748-1.23"/><path id="path11952" d="M638.075 989.745l-12.207 12.891"/></g><path id="path11954" stroke-width="2.138" d="M665.973 985.662l45.981 31.152"/><path id="path11956" stroke-width="2.138" d="M664.084 987.396l43.584 30.232"/></g><path id="path2241" fill="#262626" stroke="#000" d="M57 1021.53l-.033-9.767s-1.707-.325-1.611-1.047c.098-.725 1.065-.199 1.354-1.085.924-2.843-.45-4.922-2.916-4.966-2.725.01-3.937 2.143-3.012 4.982.287.887 1.257.362 1.354 1.088.096.721-1.611 1.048-1.611 1.048l-.081 9.239v.543l6.556-.035z"/><path id="path2249" fill="#262626" stroke="#000" d="M572.116 1021.489l-.03-9.766s-1.709-.327-1.591-1.051c.091-.722 1.052-.199 1.351-1.085.93-2.84-.449-4.918-2.908-4.962-2.73.011-3.961 2.14-3.029 4.981.299.887 1.26.36 1.351 1.086.09.724-1.591 1.051-1.591 1.051l-.09 9.239v.542l6.537-.035z"/><path id="path10593" fill="#262626" stroke="#000" stroke-width=".904" d="M-44.829 1021.604l228.461.037v-1.455c-.021 0-203.232-.481-228.478-.502l.017 1.92z"/><path id="path2253" fill="#262626" stroke="#000" stroke-width=".904" d="M-44.809 1012.771h228.854v4.882h-228.854v-4.882z"/><g id="g2268" fill="#00ADEF" stroke="#000"><path id="path2264" d="M439.584 1013.079h408.252v5.062h-408.666l.414-5.062z"/><path id="path2266" d="M847.237 1020.261c-.061 0-409.209-.182-409.209-.182l.033 1.692h409.146l.03-1.51z"/></g><path id="path2276" fill="#E84D5B" d="M387.734 1012.837h53.47v33.961h-53.742l.272-33.961z"/><path id="path2280" fill="#E84D5B" d="M182.87 1012.837h53.47v33.961h-53.742l.272-33.961z"/><g id="g4241"><path id="path2291" fill="#E84D5B" d="M231.709 1015.636l68.798-38.506 2.043 4.558-68.837 38.495-2.004-4.547z"/><path id="path2296" fill="#262626" stroke="#E84D5B" stroke-width="3" d="M232.114 1038.706c.052.011 41.812-38.818 69.463-54.691l1.934-1.106"/><path id="path3270" fill="#262626" stroke="#E84D5B" stroke-width="2.9" d="M239.427 1031.619l-6.677-12.996 12.538 5.491-4.064-9.396 11.878 3.177-3.978-9.049 11.028 3.122-3.271-7.703 10.379 2.233-2.769-6.245 8.61 1.324-2.472-4.76 7.862.854-2.04-4.112 6.826.465-1.606-3.463 6.221.235-2.298-5.017"/></g><g id="g4247"><path id="path4249" fill="#E84D5B" d="M391.306 1014.928l-68.798-38.505-2.043 4.558 68.837 38.495 2.004-4.548z"/><path id="path4251" fill="#262626" stroke="#E84D5B" stroke-width="3" d="M390.901 1037.999c-.051.01-41.811-38.815-69.464-54.691l-1.932-1.107"/><path id="path4253" fill="#262626" stroke="#E84D5B" stroke-width="2.9" d="M383.589 1030.912l6.677-12.996-12.538 5.491 4.063-9.396-11.878 3.178 3.978-9.05-11.029 3.123 3.276-7.703-10.382 2.232 2.769-6.244-8.607 1.323 2.469-4.76-7.862.854 2.04-4.112-6.827.466 1.607-3.463-6.222.237 2.299-5.019"/></g><path id="path12772" fill="#00ADEF" stroke="#000" stroke-width=".205" d="M-34.211 945.345c.249-.122.445-.452.445-.792 0-.455-.309-.822-.688-.822-.384 0-.693.367-.693.822 0 .354.189.656.483.792l-.069 4.602-1.157.017v.883h.433s.096 1.342-.132 2.328c-3.007 8.799-5.78 9.866-5.78 9.866l-3.387-.037-1.636 3.518-.032 12.053-1.742.021-.024 2.708h1.8v28.229l-1.997 5.804.065 29.03h27.446l-.063-29.41-2.061-5.805v-27.853h1.8l-.024-2.704-1.741-.023-.035-12.053-1.439-3.358-2.99-.118s-2.411-1.661-5.818-9.991c-.087-1.521.009-2.209-.007-2.223l.433.006-.006-.906h-1.176l-.204-4.576v-.007h-.004z"/><path id="path12108" fill="#E84D5B" stroke="#000" stroke-width=".205" d="M656.614 945.345c.271-.122.451-.452.451-.792 0-.455-.301-.822-.689-.822-.391 0-.69.367-.69.822 0 .354.182.656.479.792l-.061 4.602-1.168.017v.883h.449s.09 1.342-.15 2.328c-3 8.799-5.76 9.866-5.76 9.866l-3.389-.037-1.65 3.518-.029 12.053-1.74.021-.028 2.708h1.799v28.229l-1.979 5.804.06 29.03h27.447l-.062-29.41-2.07-5.805v-27.853h1.802l-.031-2.704-1.738-.023-.03-12.052-1.439-3.358-3-.118s-2.398-1.661-5.818-9.991c-.09-1.521.029-2.209 0-2.223l.42.006v-.906h-1.17l-.211-4.576v-.007h-.005z"/></g><g id="layer4" stroke="#000" stroke-width=".072"><path id="path2912" fill="#00ADEF" d="M-188.233 979.151h32.982v-5.304h-3.27v-4.347h-3.753v-9.924l-2.289-1.482v-14.421l2.169-1.697v-1.7l-2.359-1.632v-1.494l.029-1.089s.045-.912-.727-.964c.042-.047.472-1.534-.6-2.063.129 0-.729-99.816-.729-99.816s-.581-.52-.953-.62c.187-.101 1.041-8.27 3.096-10.192l-.01-.351-.407-.034v-.575l.498-.239v-.475s-2.043-.187-2.421-1.105c-.016-.084-.831-4.639-2.874-5.13.098-.011-1.437-.017-1.604-.014s-1.743.017-1.604.021c-1.68.266-2.861 5.046-2.877 5.131-.378.919-2.42 1.104-2.42 1.104v.478l.5.236v.579l-.407.034-.013.351c2.055 1.92 2.913 10.092 3.096 10.193-.367.101-.952.619-.952.619s-.855 99.812-.729 99.812c-1.067.529-.642 2.02-.597 2.068-.771.048-.729.961-.729.961l.03 1.092v1.492l-2.36 1.633v1.698l2.169 1.7v14.418l-2.289 1.484v9.921h-3.753v4.353h-3.269v5.299h32.981"/><path id="path2914" fill="#E84D5B" d="M-174.153 815.144l-2.988-.029s.861-1.302.971-2.089c.16-.784 1.104-.938 1.237-1.51 0 .183.808-5.684 1.158-5.926.349-.238-.324-.33-.324-.33s-.216.634-.566.664c-.32.03-.617-1.752-.617-1.752l-.027-1.998.243-.178.054-.606.861-.212s.352.062.646.363c.026 0 .378-.455.701-.363.294.029.104-1.21.104-1.21l-.915-.057s.595-3.116 1.965-3.325c.027 0-.032-.414.055-.455.249-.114.43-.05.485 0 .039.037.054.634.054.634s.537.425.809.85c-.027-.183.456.846.456.846s.271.037.297.061c.064.062-.003.591-.027.664-.012.04-.672.183-.672.183l-.405.242-.188.12-.051 1.54.645.364.108.242s.591-.071.969 0c.081.014.429.663.32 1.3-.055.634.242 1.602.242 1.602l.379.967.242 1.178.563.152.217.455-.027.391-.647.303-1.425 6.832-.433-.182 1.563-6.803s-.353.03-.515-.15c-.161-.182-.859-1.994-.834-2.389-.054-.062-.27-.092-.27-.092v.819l.188.121-.025 3.836-.402 2.024-.782.091s-.239.668-.077.846c0 .061 1.101.121 1.072 1.422-.215-.063-4.387.604-4.387.544z"/></g><g id="g3766" stroke="#D21C23"><path id="path2898" fill="none" stroke-width=".9" d="M-212.071 891.117c0 61.734-44.564 111.782-99.537 111.782-54.977 0-99.541-50.048-99.541-111.782 0-61.735 44.564-111.785 99.541-111.785 54.973 0 99.537 50.05 99.537 111.785z"/><path id="path2900" fill="none" stroke-width="2.828" d="M-195.903 891.892c0 70.808-51.113 128.203-114.16 128.203-63.048 0-114.16-57.396-114.16-128.203 0-70.803 51.112-128.198 114.16-128.198 63.047-.002 114.16 57.395 114.16 128.198z"/><path id="path2902" fill="none" stroke-width=".305" d="M-347.651 786.78l-10.297-9.895.801 15.034-9.956-9.25.805 14.391-9.27-8.737 1.944 14.519-9.953-6.553 3.317 12.848-12.587-3.725 5.492 11.691-11.785-2.697 5.948 11.95-13.042-2.056 7.78 11.306h-12.357l8.009 7.711-12.014 2.441 8.24 7.579-12.358 4.241 9.038 8.095-10.525 6.04 9.725 5.396-12.355 7.45 9.611 2.06-10.069 9.894 11.213 1.543-10.069 10.793 12.357.645-10.64 10.92 12.355-.256-9.726 10.277 13.615.256-9.038 10.537 12.355-1.539-8.466 13.875 13.501-4.882-7.78 15.934 13.045-6.427-4.809 18.631 12.932-8.479-3.776 18.76 13.387-9.381-2.401 18.503 11.785-10.537-1.028 19.403 11.668-13.104 2.175 18.887 10.756-13.363 3.09 18.889 9.267-15.29 4.69 17.731 6.979-16.705 7.554 17.732 4.806-17.604 7.663 16.448 4.351-18.632 9.838 15.418 2.062-18.375 11.213 14.006.459-18.887 11.898 12.848-.915-20.043 12.469 11.305-2.63-18.371 11.669 10.021-3.203-19.403 13.501 7.455-4.807-18.891 13.844 6.168-7.321-16.961 14.532 5.141-9.842-16.705 15.218 1.543-11.1-13.106 13.615-.771-11.44-11.562 14.416-4.241-12.929-9.894 13.729-3.981-12.586-7.326 12.698-3.981-14.069-5.523 12.469-8.738-15.33-1.415 11.557-9.638h-12.699l12.47-9.766-16.019.516 10.298-12.335-14.875 4.112 10.069-12.724-14.529 1.543 6.635-14.777-13.729 6.041 5.262-16.833-12.014 8.095 3.432-17.217-11.898 10.021.801-18.76-10.123 11.372-1.936-18.904-11.812 10.358-2.427-16.9-9.062 12.902-1.94-15.81-8.417 13.992-4.367-15.989-5.015 13.808-6.312-15.444-4.209 15.444-8.413-13.629-1.134 14.538-10.841-12.174-.647 15.264-10.029-11.086-1.488 14.951z"/><g fill="#00ADEF"><path id="path2836" stroke-miterlimit="10" d="M-312.198 756.156c0 4.262-3.077 7.718-6.875 7.718-3.795 0-6.872-3.456-6.872-7.718 0-4.265 3.077-7.721 6.872-7.721 3.797.003 6.875 3.458 6.875 7.721z"/><path id="path2838" stroke-miterlimit="10" d="M-338.592 761.91c0 4.265-3.077 7.721-6.875 7.721s-6.875-3.456-6.875-7.721c0-4.262 3.077-7.717 6.875-7.717s6.875 3.455 6.875 7.717z"/><path id="path2840" stroke-miterlimit="10" d="M-359.789 771.178c0 4.265-3.078 7.722-6.875 7.722-3.795 0-6.872-3.457-6.872-7.722 0-4.262 3.077-7.718 6.872-7.718 3.797 0 6.875 3.456 6.875 7.718z"/><path id="path2842" stroke-miterlimit="10" d="M-379.533 785.352c0 4.267-3.077 7.722-6.871 7.722-3.798 0-6.875-3.455-6.875-7.722 0-4.264 3.077-7.717 6.875-7.717 3.793 0 6.871 3.453 6.871 7.717z"/><path id="path2844" stroke-miterlimit="10" d="M-395.712 802.979c0 4.262-3.078 7.719-6.875 7.719-3.795 0-6.872-3.457-6.872-7.719 0-4.265 3.077-7.721 6.872-7.721 3.797.001 6.875 3.457 6.875 7.721z"/><path id="path2846" stroke-miterlimit="10" d="M-408.821 823.874c0 4.266-3.077 7.721-6.872 7.721-3.798 0-6.875-3.455-6.875-7.721 0-4.261 3.077-7.717 6.875-7.717 3.795 0 6.872 3.456 6.872 7.717z"/><path id="path2848" stroke-miterlimit="10" d="M-418.528 847.862c0 4.264-3.077 7.721-6.875 7.721-3.794 0-6.871-3.457-6.871-7.721 0-4.263 3.077-7.719 6.871-7.719 3.798.002 6.875 3.458 6.875 7.719z"/><path id="path2850" stroke-miterlimit="10" d="M-423.707 873.302c0 4.265-3.077 7.722-6.872 7.722-3.798 0-6.875-3.457-6.875-7.722 0-4.262 3.077-7.718 6.875-7.718 3.795 0 6.872 3.456 6.872 7.718z"/><path id="path2852" stroke-miterlimit="10" d="M-425.324 899.107c0 4.261-3.077 7.718-6.875 7.718-3.794 0-6.872-3.457-6.872-7.718 0-4.266 3.078-7.722 6.872-7.722 3.797.002 6.875 3.458 6.875 7.722z"/><path id="path2854" stroke-miterlimit="10" d="M-421.44 925.638c0 4.263-3.077 7.719-6.875 7.719-3.794 0-6.872-3.456-6.872-7.719 0-4.264 3.078-7.721 6.872-7.721 3.798 0 6.875 3.457 6.875 7.721z"/><path id="path2856" stroke-miterlimit="10" d="M-413.998 950.35c0 4.266-3.077 7.722-6.871 7.722-3.798 0-6.875-3.456-6.875-7.722 0-4.261 3.077-7.718 6.875-7.718 3.794 0 6.871 3.457 6.871 7.718z"/><path id="path2858" stroke-miterlimit="10" d="M-401.537 974.7c0 4.262-3.078 7.718-6.875 7.718-3.795 0-6.872-3.456-6.872-7.718 0-4.265 3.077-7.722 6.872-7.722 3.797.001 6.875 3.46 6.875 7.722z"/><path id="path2860" stroke-miterlimit="10" d="M-382.928 996.505c0 4.267-3.077 7.721-6.875 7.721s-6.875-3.454-6.875-7.721c0-4.261 3.077-7.717 6.875-7.717s6.875 3.456 6.875 7.717z"/><path id="path2862" stroke-miterlimit="10" d="M-362.057 1013.042c0 4.264-3.074 7.721-6.872 7.721s-6.875-3.457-6.875-7.721c0-4.262 3.077-7.718 6.875-7.718s6.872 3.456 6.872 7.718z"/><path id="path2864" stroke-miterlimit="10" d="M-334.797 1024.855c0 4.261-3.078 7.717-6.875 7.717-3.795 0-6.872-3.456-6.872-7.717 0-4.266 3.077-7.723 6.872-7.723 3.797.002 6.875 3.459 6.875 7.723z"/><path id="path2866" stroke-miterlimit="10" d="M-303.557 1027.749c0 4.261-3.078 7.717-6.875 7.717-3.794 0-6.872-3.456-6.872-7.717 0-4.266 3.078-7.721 6.872-7.721 3.797 0 6.875 3.455 6.875 7.721z"/><path id="path2868" stroke-miterlimit="10" d="M-276.378 1026.034c0 4.265-3.077 7.721-6.871 7.721-3.798 0-6.876-3.456-6.876-7.721 0-4.263 3.078-7.717 6.876-7.717 3.794 0 6.871 3.454 6.871 7.717z"/><path id="path2870" stroke-miterlimit="10" d="M-247.816 1015.403c0 4.264-3.078 7.721-6.875 7.721-3.798 0-6.876-3.457-6.876-7.721 0-4.263 3.078-7.719 6.876-7.719 3.797.002 6.875 3.458 6.875 7.719z"/><path id="path2872" stroke-miterlimit="10" d="M-224.03 997.778c0 4.262-3.077 7.718-6.875 7.718-3.797 0-6.875-3.456-6.875-7.718 0-4.265 3.078-7.722 6.875-7.722 3.798.002 6.875 3.459 6.875 7.722z"/><path id="path2874" stroke-miterlimit="10" d="M-206.231 976.517c0 4.266-3.077 7.722-6.874 7.722-3.798 0-6.876-3.456-6.876-7.722 0-4.262 3.078-7.717 6.876-7.717 3.797 0 6.874 3.455 6.874 7.717z"/><path id="path2876" stroke-miterlimit="10" d="M-193.125 953.075c0 4.264-3.077 7.721-6.875 7.721-3.795 0-6.872-3.457-6.872-7.721 0-4.263 3.077-7.718 6.872-7.718 3.798 0 6.875 3.455 6.875 7.718z"/><path id="path2878" stroke-miterlimit="10" d="M-184.873 927.271c0 4.265-3.077 7.721-6.872 7.721-3.798 0-6.875-3.456-6.875-7.721 0-4.262 3.077-7.718 6.875-7.718 3.795.002 6.872 3.458 6.872 7.718z"/><path id="path2880" stroke-miterlimit="10" d="M-180.826 901.469c0 4.266-3.078 7.722-6.875 7.722-3.795 0-6.872-3.456-6.872-7.722 0-4.265 3.077-7.721 6.872-7.721 3.796 0 6.875 3.456 6.875 7.721z"/><path id="path2882" stroke-miterlimit="10" d="M-181.313 874.757c0 4.265-3.078 7.722-6.875 7.722-3.795 0-6.872-3.457-6.872-7.722 0-4.266 3.077-7.721 6.872-7.721 3.797 0 6.875 3.455 6.875 7.721z"/><path id="path2884" stroke-miterlimit="10" d="M-186.976 847.862c0 4.264-3.078 7.721-6.875 7.721-3.795 0-6.872-3.457-6.872-7.721 0-4.263 3.077-7.719 6.872-7.719 3.797.002 6.875 3.458 6.875 7.719z"/><path id="path2886" stroke-miterlimit="10" d="M-196.037 825.33c0 4.265-3.078 7.721-6.875 7.721-3.795 0-6.872-3.456-6.872-7.721s3.077-7.721 6.872-7.721c3.797 0 6.875 3.456 6.875 7.721z"/><path id="path2888" stroke-miterlimit="10" d="M-210.115 803.162c0 4.261-3.077 7.717-6.875 7.717-3.795 0-6.872-3.456-6.872-7.717 0-4.266 3.077-7.722 6.872-7.722 3.798 0 6.875 3.456 6.875 7.722z"/><path id="path2890" stroke-miterlimit="10" d="M-225.973 785.716c0 4.266-3.077 7.722-6.872 7.722-3.798 0-6.875-3.456-6.875-7.722 0-4.265 3.077-7.721 6.875-7.721 3.794 0 6.872 3.456 6.872 7.721z"/><path id="path2892" stroke-miterlimit="10" d="M-245.713 771.359c0 4.264-3.078 7.721-6.875 7.721-3.795 0-6.872-3.457-6.872-7.721 0-4.263 3.077-7.719 6.872-7.719 3.797.002 6.875 3.458 6.875 7.719z"/><path id="path2894" stroke-miterlimit="10" d="M-267.073 761.547c0 4.264-3.077 7.721-6.872 7.721-3.797 0-6.875-3.457-6.875-7.721 0-4.262 3.078-7.718 6.875-7.718 3.794 0 6.872 3.456 6.872 7.718z"/><path id="path2896" stroke-miterlimit="10" d="M-288.754 756.643c0 4.262-3.077 7.718-6.875 7.718-3.797 0-6.875-3.456-6.875-7.718 0-4.266 3.078-7.721 6.875-7.721 3.798 0 6.875 3.455 6.875 7.721z"/><path id="path2904" stroke-width=".9" d="M-302.571 888.291c0 4.753-3.431 8.606-7.666 8.606-4.232 0-7.664-3.854-7.664-8.606 0-4.757 3.432-8.61 7.664-8.61 4.236 0 7.666 3.853 7.666 8.61z"/></g><path id="path2906" fill="#E84D5B" stroke-width=".349" d="M-313.606 895.655l2.437.033s-3.578 38.586-14.244 148.12l-12.455-.27"/><path id="path2908" fill="#E84D5B" stroke-width=".353" d="M-308.596 895.523l-2.492.033s5.146 46.364 15.857 148.623l11.475-.785"/></g><g id="g3522"><g id="g3172"><g id="g3174"><path id="path3176" fill="#0F0F0F" stroke="#000" stroke-width=".123" d="M-444.755 1004.112v-119.196h2.058v-29.307h-3.956v-4.743h-1.818l-5.381-9.994v-9.119l-5.811-20.632-.039-3.83v3.826l-6.305 20.636v9.119l-5.383 9.994h-1.816v4.743h-3.956v29.307h2.058v119.212l30.354-.016h-.005z"/><path id="path3178" fill="#fff" d="M-451.481 869.612c.004 5.707-4.115 10.335-9.199 10.335-5.081 0-9.199-4.628-9.195-10.335-.004-5.706 4.114-10.334 9.195-10.334 5.084 0 9.203 4.628 9.199 10.334z"/></g><path id="path3180" fill="#0F0F0F" d="M-508.25 950.312l49.679-.161v53.967l-49.78.162.101-53.968z"/></g><g id="g3202" stroke="#000"><path id="path3204" d="M-479.139 1043.847h-33.276v-118.654l4.318-10.976 3.377 10.911.047 11.23h18.213v-12.197l3.585-9.904 3.697 10.096.039 119.494z"/><path id="path3206" d="M-533.644 1043.856h-33.276v-118.652l4.318-10.976 3.377 10.91.045 11.23h18.215v-12.197l3.584-9.904 3.697 10.097.04 119.492z"/><path id="path3208" stroke-width=".234" d="M-528.365 956.581l.103.887c.892.623.99 2.166.967 2.177l-.03 9.381-2.147.014-.029-9.396c-.021-.01.074-1.553.969-2.176l.061-.887h.106z"/><path id="path3210" stroke-width="1.836" d="M-553.355 969.419h61.374l-1.409 74.148-60.436.029.471-74.177z"/><path id="path3212" stroke-width=".234" d="M-516.814 956.581l.103.887c.892.623.986 2.166.966 2.177l-.029 9.381-2.147.014-.029-9.396c-.021-.01.075-1.553.969-2.176l.061-.887h.106z"/></g><g id="g3240" stroke="#000"><path id="path3260" stroke-width=".236" d="M-588.464 966.3l.102.886c.903.62 1.002 2.166.981 2.174l-.03 9.381-2.178.014-.03-9.395c-.021-.008.078-1.554.98-2.177l.061-.883h.114z"/><path id="path3262" stroke-width=".236" d="M-575.629 966.3l.103.886c.902.62.998 2.166.979 2.174l-.03 9.381-2.175.014-.029-9.395c-.021-.008.074-1.554.979-2.177l.061-.883h.112z"/><path id="path3264_1_" stroke-width="1.14" d="M-545.052 978.659v65.181"/></g></g></g></g><g id="mountains"><path fill="#D4E5F6" d="M-792.243 1119.833"/><polygon fill="#14757B" points="-209.3,510.472 -37.804,689.235 -193.184,705.394"/><polygon fill="#ACE8EA" points="-402.598,667.509 -345.107,604.72 -321.267,642.229 -398.216,859.793"/><path fill="#A7C6E8" d="M-927.366 1503.302"/><path fill="#A7C6E8" d="M-1577.241 1702.573"/><path fill="#C1DDF3" d="M-1577.241 1702.573"/><path fill="#5984C3" d="M-832.03 1389.982"/><path fill="#A7C6E8" d="M-588.439 1107.608"/><path fill="#0D72B9" d="M-854.126 1095.198"/><polygon fill="#ACE8EA" points="-854.126,1095.198 -735.19,578.242 -588.439,1107.608"/><polygon fill="#F5ECD9" points="-735.19,578.242 -649.129,529.291 -588.439,1107.608"/><polygon fill="#fff" points="-646.729,553.362 -649.129,529.291 -566.951,373.859 -471.992,709.22"/><polygon fill="#229098" points="-588.439,1107.608 -471.992,709.22 -626.096,552.59 -646.729,553.362"/><polygon fill="#F5ECD9" points="-345.107,1147.357 -588.439,1107.608 -471.992,709.22 -402.598,667.509"/><polygon fill="#C1E8E7" points="-566.951,373.859 -402.598,667.509 -471.992,709.22"/><path fill="#5984C3" d="M-854.126 1095.198"/><polygon fill="#fff" points="-345.107,604.72 -209.3,510.472 -180.034,864.441"/><polygon fill="#14757B" points="-398.216,859.793 -330.423,1226.866 -180.034,864.441 -321.267,642.229"/><polygon fill="#ACE8EA" points="-357.747,1078.915 -330.423,1226.866 -398.216,859.793 -588.439,1107.608"/><polygon fill="#229098" points="-209.3,510.472 -193.184,705.394 -180.034,864.441"/><polygon fill="#14757B" points="-191.831,1193.399 -180.034,864.441 -330.423,1226.866"/><polygon fill="#229098" points="71.511,1204.285 -191.831,1193.399 -180.034,864.441"/><polygon fill="#ACE8EA" points="71.511,1204.285 -37.804,689.235 -180.034,864.441"/><polygon fill="#F5ECD9" points="71.511,1204.285 227.962,1204.132 -37.804,689.235"/><polygon fill="#14757B" points="-37.804,689.235 171.052,897.846 227.962,1204.132"/><polygon fill="#63D3D6" points="227.962,1204.132 426.55,1189.605 171.052,897.846"/><polygon fill="#ACE8EA" points="-37.804,689.235 -116.212,415.166 88.257,723.859"/><polygon fill="#63D3D6" points="171.052,897.846 88.257,723.859 -37.804,689.235"/><polygon fill="#fff" points="-37.804,689.235 -116.212,415.166 -209.3,510.472"/><polygon fill="#229098" points="-402.598,667.509 -345.107,604.72 -566.951,373.859"/><polygon fill="#63D3D6" points="426.55,1189.605 490.658,1138.932 273.831,934.037"/><polygon fill="#ACE8EA" points="490.658,1138.932 701.151,1101.004 454.365,929.785 273.831,934.037"/><polygon fill="#C1E8E7" points="255.411,944.84 148.075,795.87 148.075,691.64 250.054,605.882 454.365,929.785"/><polygon fill="#1C8389" points="701.151,1101.004 250.054,605.882 454.365,929.785"/><polygon fill="#fff" points="168.141,820.025 255.411,944.84 250.054,605.882 88.257,723.859"/><polygon fill="#63D3D6" points="488.188,867.465 599.406,883.821 761.608,1042.641 701.151,1101.004"/><polygon fill="#C1E8E7" points="454.365,929.785 490.658,1138.932 255.411,944.84"/><polygon fill="#C1E8E7" points="599.406,883.821 701.151,1101.004 761.608,1042.641"/></g><g id="clouds"><path fill="#F5ECD9" d="M188.406 612.645c0-10.18-8.252-18.432-18.432-18.432s-18.432 8.252-18.432 18.432h36.864z"/><path fill="#F5ECD9" d="M273.68 612.645c0-10.18-8.252-18.432-18.432-18.432-10.185 0-18.437 8.252-18.437 18.432h36.869z"/><path fill="#F5ECD9" d="M231.043 612.645c0-15.688-12.729-28.424-28.426-28.424s-28.429 12.729-28.429 28.424h56.855z"/><g fill="#F5ECD9"><path d="M253.926 342.688c0-4.557-3.693-8.25-8.25-8.25s-8.25 3.693-8.25 8.25h16.5zM279.373 342.688c0-3.513-2.853-6.361-6.361-6.361s-6.361 2.849-6.361 6.361h12.722zM273.012 342.688c0-7.026-5.697-12.723-12.725-12.723-7.025 0-12.728 5.696-12.728 12.723h25.453z"/></g><g fill="#F5ECD9"><path d="M460.604 534.379c0-6.624 5.369-11.992 11.993-11.992 6.622 0 11.991 5.368 11.991 11.992h-23.984zM376.655 534.379c0-9.936 8.059-17.989 17.979-17.989 9.938 0 17.983 8.062 17.983 17.989h-35.962zM400.641 534.379c0-19.871 16.104-35.979 35.979-35.979s35.979 16.104 35.979 35.979h-71.958z"/></g><g fill="#F5ECD9"><path d="M482.551 554.23c0-5.273 4.271-9.562 9.549-9.562 5.271 0 9.557 4.273 9.557 9.562h-19.106zM497.275 554.23c0-4.064 3.297-7.361 7.354-7.361 4.062 0 7.358 3.297 7.358 7.361h-14.712z"/></g><g fill="#F5ECD9"><path d="M803.939 380.535c0-19.677-15.953-35.632-35.641-35.632-19.681 0-35.627 15.955-35.627 35.632h71.268zM830.491 380.535c0-14.669-11.889-26.558-26.557-26.558-14.678 0-26.562 11.889-26.562 26.558h53.119zM744.854 380.535c0-8.801-7.137-15.936-15.938-15.936-8.802 0-15.938 7.135-15.938 15.936h31.876zM418.438 513.637c0-18.051-14.633-32.684-32.684-32.684-18.056 0-32.688 14.633-32.688 32.684h65.372zM377.432 513.637c0-13.455-10.896-24.354-24.354-24.354-13.448 0-24.354 10.896-24.354 24.354h48.708zM437.926 513.637c0-10.764-8.729-19.479-19.488-19.479-10.764 0-19.479 8.725-19.479 19.479h38.967zM338.45 513.637c0-8.062-6.543-14.617-14.61-14.617-8.072 0-14.617 6.56-14.617 14.617h29.227zM366.605 442.211"/><path d="M346.316 370.211"/><path d="M667.055 556.801c0-8.953-7.258-16.211-16.211-16.211s-16.211 7.258-16.211 16.211h32.422zM717.055 556.801c0-6.896-5.596-12.5-12.5-12.5-6.896 0-12.5 5.604-12.5 12.5h25zM704.555 556.801c0-13.807-11.188-25-25-25s-25 11.193-25 25h50zM304.781 534.908c0-7.674-6.229-13.896-13.896-13.896s-13.895 6.229-13.895 13.896h27.791zM315.139 534.908c0-5.721-4.637-10.357-10.354-10.357s-10.354 4.646-10.354 10.357h20.708zM281.736 534.908c0-3.438-2.778-6.215-6.215-6.215-3.432 0-6.215 2.771-6.215 6.215h12.43zM362.755 376.418c0-8.264-6.697-14.961-14.961-14.961-8.27 0-14.959 6.697-14.959 14.961h29.92zM467.479 376.418c0-12.395-10.047-22.441-22.438-22.441-12.396 0-22.44 10.047-22.44 22.441h44.878zM437.558 376.418c0-24.789-20.094-44.883-44.881-44.883s-44.886 20.094-44.886 44.883h89.767zM511.904 600.949c0-5.273-4.271-9.547-9.547-9.547-5.271 0-9.557 4.271-9.557 9.547h19.104zM497.182 600.949c0-4.064-3.297-7.361-7.354-7.361-4.062 0-7.356 3.297-7.356 7.361h14.71zM618.618 107.473c0-5.273-4.271-9.547-9.549-9.547-5.271 0-9.547 4.273-9.547 9.547h19.096zM603.898 107.473c0-4.064-3.307-7.361-7.361-7.361-4.062 0-7.358 3.297-7.358 7.361h14.719zM856.65 47.383c0-4.557-3.692-8.25-8.25-8.25-4.562 0-8.25 3.693-8.25 8.25h16.5zM882.098 47.383c0-3.513-2.848-6.361-6.354-6.361-3.521 0-6.356 2.849-6.356 6.361h12.71zM875.736 47.383c0-7.026-5.697-12.723-12.729-12.723-7.021 0-12.728 5.696-12.728 12.723h25.457zM66 395.904c0-5.273 4.271-9.547 9.549-9.547 5.271 0 9.547 4.271 9.547 9.547h-19.096zM80.725 395.904c0-4.064 3.297-7.361 7.361-7.361 4.062 0 7.363 3.297 7.363 7.361h-14.724z"/></g><path fill="#F5ECD9" d="M64.212 540.55h-8v-1h8v1zm-16 0h-8v-1h8v1zm-16 0h-8v-1h8v1zm-16 0h-8v-1h8v1zm-16 0h-8v-1h8v1zm-16 0h-8v-1h8v1zm-16 0h-8v-1h8v1zm-16 0h-8v-1h8v1zm-16 0h-8v-1h8v1zm-16 0h-8v-1h8v1zm-16 0h-8v-1h8v1zm-16 0h-5.417v-1h5.417v1z"/><path fill="#F5ECD9" d="M1151.275 93.095h-8v-1h8v1zm-16 0h-8v-1h8v1zm-16 0h-8v-1h8v1zm-16 0h-8v-1h8v1zm-16 0h-8v-1h8v1zm-16 0h-8v-1h8v1zm-16 0h-8v-1h8v1z"/><path fill="#F5ECD9" d="M721.096 317.734h-8v-1h8v1zm-16 0h-8v-1h8v1zm-16 0h-8v-1h8v1zm-16 0h-8v-1h8v1zm-16 0h-8v-1h8v1zm-16 0h-8v-1h8v1zm-16 0h-8v-1h8v1zm-16 0h-8v-1h8v1zm-16 0h-8v-1h8v1zm-16 0h-8v-1h8v1z"/></g><g id="Layer_1_1_"><g id="plane"><path fill="#FFFEF0" d="M1113.342 663.949c2.248.031 5.396.428 5.396.428s-3.147.396-5.396.429c-2.246.031-4.113-.429-4.113-.429s1.867-.46 4.113-.428z"/><path fill="#C8C6BC" d="M1109.227 664.382l21.562 15.711s1.235.325 3.153.729l-22.969-16.438-1.746-.002z"/><path fill="#FFFEF0" d="M1133.947 680.816c3.021.625 7.729 1.432 11.938 1.432 5.482 0 17.938-1.835 17.938-1.835l-45.25-16.03h-7.595l22.969 16.433z"/><path opacity=".4" fill="#BCBAD0" enable-background="new" d="M1109.227 664.377s1.868-.46 4.114-.428c2.248.031 5.396.428 5.396.428l-.137.018 45.217 16.021s-12.438 1.835-17.931 1.835c-4.228 0-8.935-.807-11.944-1.432-1.918-.397-3.154-.729-3.154-.729l-21.562-15.711h.021l-.02-.002z"/><path fill="#C8C6BC" d="M1265.2 676.9l35.201 25.646s2.021.53 5.158 1.183l-37.5-26.817-2.859-.012z"/><path fill="#FFFEF0" d="M1305.564 703.73c4.934 1.021 12.609 2.337 19.502 2.337 8.959 0 29.271-2.995 29.271-2.995l-73.877-26.172h-12.396l37.5 26.83z"/><polygon opacity=".4" fill="#BCBAD0" enable-background="new" points="1318.875,690.482 1277.657,685.979 1283.682,690.482"/><path id="carlinga" fill="#FFFEF0" d="M1142.924 660.316l13.276 18.166 48 12h176s39.5-2.166 51.734 6l4.334 4s12.021 4.545 13.647 9.002c.123.334.19.668.188.998-.062 4.857-12.668 16-69.918 16h-144c-10.688 0-25.562-3.021-41.854-7.229-38.154-9.871-81.896-26.356-81.896-26.356v-8.568l8.646-2.104-5.729-21.896 27.572-.013z"/><polygon fill="#FFFEF0" points="1107.561,630.482 1121.111,630.482 1134.395,648.65 1112.318,648.65"/><polygon fill="#FFFEF0" points="1119.318,660.316 1115.373,660.316 1112.318,648.65 1115.7,648.65"/><polygon fill="#8CC152" points="1134.395,648.65 1142.924,660.316 1119.318,660.316 1115.7,648.65"/><polygon fill="#C8C6BC" points="1150.311,687.645 1136.586,701.598 1123.834,697.091"/><path fill="#C8C6BC" d="M1098.982 702.715l20.271-14.771s1.168-.312 2.971-.688l-21.594 15.448-1.648.011z"/><path fill="#FFFEF0" d="M1122.223 687.266c2.853-.589 7.271-1.346 11.229-1.346 5.158 0 16.857 1.725 16.857 1.725l-38.533 15.07h-11.146l21.593-15.449z"/><rect x="1117.617" y="629.397" transform="matrix(-.955 .298 -.298 -.955 2380.376 946.568)" fill="#8CC152" width=".997" height="50.263"/><path fill="none" stroke="#4E4B80" stroke-width="10" stroke-miterlimit="10" d="M1225.7 716.482"/><path fill="#DA4453" d="M1225.2 708.816h161l5 5h-166c-24.69 0-42.606-.604-55.266-1.331-7.486-2.277-14.781-4.625-21.525-6.87 8.366 1.063 30.902 3.201 76.791 3.201z"/><path fill="#DA4453" d="M1225.2 715.537h133.168l-2.5 2.5h-130.668c-15.123 0-27.688-.229-38.062-.567-3.436-.938-6.885-1.921-10.312-2.928 12.016.568 27.867.995 48.374.995z"/><path fill="#E4E2D6" d="M1449.934 709.484c.123.334.193.668.188.998-.062 4.857-12.668 16-69.918 16h-144c-27 0-87.791-20.867-87.791-20.867s28.406 12.142 114.791 12.142c179.157 0 186.4-8.195 186.73-8.273z"/><path fill="#EDEDE6" d="M1344.282 730.434c-23.959 3.375-34.612-.269-41.157-2v-12c6.545-1.729 17.198-5.375 41.157-2v16z"/><polygon fill="#C8C6BC" points="1346.859,716.434 1346.859,718.434 1346.859,728.434 1344.282,730.434 1344.282,718.434 1344.282,714.434"/><polygon fill="#EDEDE6" points="1303.125,727.517 1300.551,726.881 1300.551,717.985 1303.125,717.351"/><polygon fill="#EDEDE6" points="1300.551,725.611 1292.834,723.704 1292.834,721.163 1300.551,719.257"/><path fill="#C8C6BC" d="M1302.491 716.434c5.715-1.511 14.56-4.476 32.623-2.967l-17.938 17.944c-6.826-.688-11.31-2.084-14.685-2.979v-11.998z"/><path fill="#C8C6BC" d="M1245.986 739.482l35.201-25.648s2.021-.531 5.147-1.18l-37.5 26.829-2.848-.001z"/><path fill="#FFFEF0" d="M1286.346 712.654c4.938-1.021 12.619-2.338 19.5-2.338 8.959 0 29.271 2.981 29.271 2.981l-66.914 26.185h-19.354l37.497-26.828z"/><path fill="#3BAFDA" d="M1431.939 696.482h-11.734s-.848 4 16.068 4l-4.334-4z"/><path fill="#54A2BD" d="M1202.7 700.482c0 .551.451 1 1 1h1c.556 0 1-.449 1-1v-2c0-.562-.444-1-1-1h-1c-.549 0-1 .438-1 1v2z"/><path fill="#54A2BD" d="M1210.7 700.482c0 .551.451 1 1 1h1c.556 0 1-.449 1-1v-2c0-.562-.444-1-1-1h-1c-.549 0-1 .438-1 1v2z"/><path fill="#54A2BD" d="M1218.7 700.482c0 .551.451 1 1 1h1c.556 0 1-.449 1-1v-2c0-.562-.444-1-1-1h-1c-.549 0-1 .438-1 1v2z"/><path fill="#54A2BD" d="M1226.7 700.482c0 .551.451 1 1 1h1c.556 0 1-.449 1-1v-2c0-.562-.444-1-1-1h-1c-.549 0-1 .438-1 1v2z"/><path fill="#54A2BD" d="M1234.7 700.482c0 .551.451 1 1 1h1c.556 0 1-.449 1-1v-2c0-.562-.444-1-1-1h-1c-.549 0-1 .438-1 1v2z"/><path fill="#54A2BD" d="M1242.7 700.482c0 .551.451 1 1 1h1c.556 0 1-.449 1-1v-2c0-.562-.444-1-1-1h-1c-.549 0-1 .438-1 1v2z"/><path fill="#54A2BD" d="M1250.7 700.482c0 .551.451 1 1 1h1c.556 0 1-.449 1-1v-2c0-.562-.444-1-1-1h-1c-.549 0-1 .438-1 1v2z"/><path fill="#54A2BD" d="M1258.7 700.482c0 .551.451 1 1 1h1c.556 0 1-.449 1-1v-2c0-.562-.444-1-1-1h-1c-.549 0-1 .438-1 1v2z"/><path fill="#54A2BD" d="M1266.7 700.482c0 .551.451 1 1 1h1c.556 0 1-.449 1-1v-2c0-.562-.444-1-1-1h-1c-.549 0-1 .438-1 1v2z"/><path fill="#54A2BD" d="M1274.7 700.482c0 .551.451 1 1 1h1c.556 0 1-.449 1-1v-2c0-.562-.444-1-1-1h-1c-.549 0-1 .438-1 1v2z"/><path fill="#54A2BD" d="M1282.7 700.482c0 .551.451 1 1 1h1c.556 0 1-.449 1-1v-2c0-.562-.444-1-1-1h-1c-.549 0-1 .438-1 1v2z"/><path fill="#54A2BD" d="M1290.7 700.482c0 .551.451 1 1 1h1c.556 0 1-.449 1-1v-2c0-.562-.444-1-1-1h-1c-.549 0-1 .438-1 1v2z"/><path fill="#54A2BD" d="M1298.7 700.482c0 .551.451 1 1 1h1c.556 0 1-.449 1-1v-2c0-.562-.444-1-1-1h-1c-.549 0-1 .438-1 1v2z"/><path fill="#54A2BD" d="M1306.7 700.482c0 .551.451 1 1 1h1c.556 0 1-.449 1-1v-2c0-.562-.444-1-1-1h-1c-.549 0-1 .438-1 1v2z"/><path fill="#54A2BD" d="M1314.7 700.482c0 .551.451 1 1 1h1c.556 0 1-.449 1-1v-2c0-.562-.444-1-1-1h-1c-.549 0-1 .438-1 1v2z"/><path fill="#54A2BD" d="M1322.7 700.482c0 .551.451 1 1 1h1c.556 0 1-.449 1-1v-2c0-.562-.444-1-1-1h-1c-.549 0-1 .438-1 1v2z"/><path fill="#54A2BD" d="M1330.7 700.482c0 .551.451 1 1 1h1c.556 0 1-.449 1-1v-2c0-.562-.444-1-1-1h-1c-.549 0-1 .438-1 1v2z"/><path fill="#54A2BD" d="M1338.7 700.482c0 .551.451 1 1 1h1c.556 0 1-.449 1-1v-2c0-.562-.444-1-1-1h-1c-.549 0-1 .438-1 1v2z"/><path fill="#54A2BD" d="M1346.7 700.482c0 .551.451 1 1 1h1c.556 0 1-.449 1-1v-2c0-.562-.444-1-1-1h-1c-.549 0-1 .438-1 1v2z"/><path fill="#54A2BD" d="M1354.7 700.482c0 .551.451 1 1 1h1c.556 0 1-.449 1-1v-2c0-.562-.444-1-1-1h-1c-.549 0-1 .438-1 1v2z"/><path fill="#54A2BD" d="M1362.7 700.482c0 .551.451 1 1 1h1c.556 0 1-.449 1-1v-2c0-.562-.444-1-1-1h-1c-.549 0-1 .438-1 1v2z"/><path fill="#54A2BD" d="M1370.7 700.482c0 .551.451 1 1 1h1c.556 0 1-.449 1-1v-2c0-.562-.444-1-1-1h-1c-.549 0-1 .438-1 1v2z"/><path fill="#54A2BD" d="M1378.7 700.482c0 .551.451 1 1 1h1c.556 0 1-.449 1-1v-2c0-.562-.444-1-1-1h-1c-.549 0-1 .438-1 1v2z"/><path fill="#54A2BD" d="M1386.7 700.482c0 .551.451 1 1 1h1c.556 0 1-.449 1-1v-2c0-.562-.444-1-1-1h-1c-.549 0-1 .438-1 1v2z"/><path fill="#FFFEF0" d="M1255.596 738.482c5.248.062 12.604 1 12.604 1s-7.356.926-12.604.999c-5.248.062-9.604-.999-9.604-.999s4.356-1.073 9.604-1z"/><path fill="#FFFEF0" d="M1104.532 702.126c3.033.044 7.289.578 7.289.578s-4.256.534-7.289.577c-3.028.043-5.555-.577-5.555-.577s2.527-.622 5.555-.578z"/><rect x="1427.391" y="697.93" transform="matrix(.45 .893 -.893 .45 1409.707 -892.928)" fill="#EDE3EB" width="5.309" height="1.002"/><rect x="1423.185" y="697.508" transform="matrix(.144 .99 -.99 .144 1911.12 -812.84)" fill="#EDE3EB" width="4.225" height="1.003"/><circle fill="#E4E2D6" cx="1409.518" cy="704.921" r=".5"/><circle fill="#E4E2D6" cx="1192.611" cy="704.921" r=".5"/></g><g id="torre"><rect x="-589.07" y="481.503" fill="#FFFEF0" width="362.505" height="2900.03"/><rect x="-951.575" y="481.503" fill="#FFFEF0" width="362.504" height="2900.03"/><rect x="-864.493" y="481.503" fill="#E4E2D6" width="543.755" height="2900.03"/><polygon opacity=".4" fill="#C8C6BC" enable-background="new" points="-770.321,662.756 -407.816,662.756 -226.565,617.441 -226.565,640.099 -407.816,685.413 -770.321,685.413 -951.575,640.099 -951.575,617.441"/><polygon opacity=".4" fill="#C8C6BC" enable-background="new" points="-223.021,617.441 -952.573,1346.993 -952.573,566.343 -226.565,566.343"/><rect x="-770.321" y="300.254" fill="#FFFEF0" width="362.505" height="362.502"/><rect x="-600.396" y="-606.009" fill="#DA4453" width="22.655" height="453.127"/><rect x="-770.321" y="-84.91" fill="#E4E2D6" width="362.505" height="45.314"/><polygon fill="#FFFEF0" points="-1132.825,51.028 -770.321,-39.596 -770.321,-84.91 -1132.825,5.714 -1178.138,17.045 -1178.138,62.354"/><polygon fill="#FFFEF0" points="-45.312,51.028 0,62.354 0,17.045 -45.312,5.714 -407.816,-84.91 -407.816,-39.596"/><polygon fill="#E4E2D6" points="-407.816,662.756 -45.312,572.126 -45.312,209.625 -407.816,300.254"/><polygon fill="#E4E2D6" points="-1132.825,572.126 -770.321,662.756 -770.321,300.254 -1132.825,209.625"/><polygon fill="#E4E2D6" points="-407.816,300.254 -45.312,209.625 -45.312,119 -407.816,209.625"/><rect x="-770.321" y="209.625" fill="#FFFEF0" width="362.505" height="90.629"/><polygon fill="#E4E2D6" points="-1132.825,209.625 -770.321,300.254 -770.321,209.625 -1132.825,119"/><polygon fill="#FFFEF0" points="-770.321,-39.596 -1132.825,51.028 -1132.825,96.343 -770.321,5.714"/><rect x="-770.321" y="-39.596" fill="#FFFEF0" width="362.505" height="45.31"/><polygon fill="#FFFEF0" points="-45.312,51.028 -407.816,-39.596 -407.816,5.714 -45.312,96.343"/><polygon fill="#FFFEF0" points="-1132.825,96.343 -1178.138,107.669 -1178.138,62.354 -1132.825,51.028"/><polygon fill="#E4E2D6" points="0,62.354 -1178.138,62.354 -770.321,164.311 -407.816,164.311"/><polygon fill="#FFFEF0" points="-1178.138,62.354 0,62.354 -407.816,-39.596 -770.321,-39.596"/><polygon fill="#E4E2D6" points="-135.939,62.354 -407.816,119 -441.803,-243.504"/><polygon fill="#FFFEF0" points="-441.803,-243.504 -407.816,119 -770.321,119 -736.335,-243.504"/><polygon fill="#E4E2D6" points="-736.335,-243.504 -770.321,119 -1042.198,62.354"/><rect x="-770.321" y="119" fill="#DA4453" width="362.505" height="45.311"/><polygon fill="#BA3548" points="-1132.825,28.376 -770.321,119 -770.321,164.311 -770.321,209.625 -1132.825,119 -1178.138,107.669 -1178.138,62.354 -1178.138,17.045"/><polygon fill="#ED5565" points="-45.312,28.376 0,17.045 0,62.354 0,107.669 -45.312,119 -407.816,209.625 -407.816,164.311 -407.816,119"/><rect x="-770.321" y="164.311" fill="#DA4453" width="362.505" height="45.314"/><polygon opacity=".4" fill="#C8C6BC" enable-background="new" points="-407.816,209.625 -45.312,119 -45.312,164.311 -407.816,254.939 -770.321,254.939 -1132.825,164.311 -1132.825,119 -770.321,209.625"/><path fill="#FFFEF0" d="M-611.726-606.009c0 12.512 10.146 22.655 22.655 22.655 12.514 0 22.657-10.144 22.657-22.655 0-12.514-10.146-22.657-22.657-22.657-12.508 0-22.655 10.144-22.655 22.657z"/></g></g><g id="contacts"><rect x="-2766.482" y="342.5" fill="#E84D5B" width="6910.617" height="445.5"/><g id="email" fill="#F5ECD9"><text transform="translate(66 534.232)" font-weight="100" font-size="18">albinotonnina@gmail.com</text><path d="M47.688 535.041v-7.457c-.204.233-.431.447-.671.643-1.732 1.332-3.115 2.431-4.136 3.282-.33.277-.599.496-.804.647-.207.152-.487.31-.842.471-.354.159-.684.237-.991.237h-.021c-.311 0-.645-.078-.993-.237-.354-.161-.633-.314-.839-.471-.206-.151-.474-.372-.804-.647-1.022-.854-2.4-1.948-4.136-3.282-.24-.192-.461-.405-.674-.643v7.457c0 .084.031.157.096.219.062.063.135.094.22.094h14.297c.084 0 .157-.032.219-.094.063-.062.096-.135.096-.219h-.017zm0-10.205v-.238l-.006-.126-.03-.12-.053-.089c-.02-.061-.048-.086-.088-.07l-.136-.022h-14.296c-.083 0-.157.031-.221.092-.062.062-.092.138-.092.222 0 1.09.479 2.008 1.428 2.757 1.25.981 2.547 2.011 3.892 3.076l.34.283.446.363c.107.085.252.188.435.305.176.119.341.209.488.271.146.059.289.088.419.088h.018c.129 0 .271-.029.418-.088.146-.062.312-.146.488-.271l.438-.305.443-.363.337-.283c1.351-1.068 2.647-2.099 3.896-3.076.35-.278.673-.652.976-1.121.309-.478.46-.904.46-1.285zm1.242-.357v10.562c0 .428-.152.794-.459 1.095-.303.306-.671.459-1.094.459h-14.296c-.43 0-.792-.148-1.097-.459-.303-.304-.459-.672-.459-1.095v-10.562c0-.43.152-.795.459-1.098.306-.303.674-.456 1.097-.456h14.296c.429 0 .793.15 1.094.456.307.303.459.668.459 1.098z"/></g><g id="linkedin" fill="#F5ECD9"><text transform="translate(64.822 571.17)" font-weight="100" font-size="18">LinkedIn profile</text><path d="M34.418 571.388h2.808v-8.438h-2.808v8.438zm2.989-11.037c-.011-.42-.155-.771-.438-1.043-.283-.271-.662-.411-1.131-.411s-.854.142-1.149.411c-.298.272-.439.623-.439 1.043 0 .413.144.763.431 1.039.289.279.667.42 1.124.42h.013c.479 0 .865-.141 1.155-.42.289-.279.433-.626.434-1.039zm7.111 11.037h2.811v-4.836c0-1.248-.3-2.19-.89-2.832-.592-.639-1.376-.962-2.347-.962-1.104 0-1.949.478-2.539 1.423h.021v-1.229h-2.811c.025.536.025 3.348 0 8.438h2.811v-4.721c0-.309.025-.535.085-.681.126-.283.304-.524.552-.726.241-.196.543-.299.895-.299.943 0 1.409.639 1.409 1.913l.003 4.512zm5.689-12.131v11.67c0 .964-.346 1.789-1.027 2.479-.688.687-1.513 1.026-2.477 1.026h-11.671c-.968 0-1.789-.343-2.478-1.026-.688-.688-1.03-1.516-1.03-2.479v-11.67c0-.966.345-1.79 1.03-2.477.688-.688 1.51-1.03 2.478-1.03h11.671c.964 0 1.788.343 2.477 1.03.685.687 1.027 1.511 1.027 2.477z"/></g><g id="l500px" fill="#F5ECD9"><text transform="translate(64.037 681.981)" font-weight="100" font-size="18">Photography</text><path d="M39.423 673.222c.769 0 1.423.271 1.969.813.546.544.815 1.201.815 1.97s-.271 1.424-.815 1.969c-.546.544-1.2.813-1.969.813-.771 0-1.422-.271-1.968-.813-.544-.545-.816-1.2-.816-1.969s.272-1.425.816-1.97c.547-.542 1.203-.813 1.968-.813zm8.546-4.023c.686 0 1.269.242 1.749.729.482.48.728 1.063.728 1.75v8.661c0 .687-.238 1.27-.728 1.75-.48.48-1.063.728-1.749.728h-13.61c-.686 0-1.269-.241-1.75-.728-.479-.481-.727-1.063-.727-1.75v-8.661c0-.687.241-1.27.727-1.75.482-.48 1.064-.729 1.75-.729h2.165l.494-1.312c.119-.313.346-.588.671-.813.325-.229.657-.347 1.001-.347h4.947c.344 0 .678.114 1.001.347.324.229.551.5.673.813l.491 1.312h2.167zm-8.546 11.136c1.188 0 2.212-.423 3.062-1.271.852-.85 1.271-1.867 1.271-3.062 0-1.189-.423-2.212-1.271-3.062-.85-.851-1.864-1.271-3.062-1.271-1.191 0-2.213.424-3.062 1.271-.85.85-1.271 1.864-1.271 3.062 0 1.191.426 2.214 1.271 3.062.85.849 1.871 1.271 3.062 1.271z"/></g><g id="phone"><path fill="#F5ECD9" d="M45.604 476.917h-11.14c-1.612 0-2.938 1.317-2.938 2.934v22.865c0 1.604 1.32 2.937 2.938 2.937h11.14c1.608 0 2.937-1.32 2.937-2.937v-22.865c-.006-1.614-1.325-2.934-2.937-2.934zm-5.57 27.559c-1.141 0-2.056-.654-2.056-1.464 0-.812.919-1.468 2.056-1.468 1.132 0 2.047.655 2.047 1.468.003.806-.913 1.464-2.047 1.464zm6.156-4.398h-12.312v-19.354h12.312v19.354z"/><text transform="translate(64.429 497.295)" fill="#F5ECD9" font-weight="100" font-size="18">+39 393 4318597</text></g><g id="skype"><path fill="#F5ECD9" d="M44.801 603.992c0-.396-.076-.754-.234-1.08-.148-.327-.344-.595-.565-.812-.233-.213-.519-.402-.867-.575-.344-.182-.671-.311-.974-.402-.306-.093-.647-.183-1.033-.271l-1.228-.282-.519-.124c-.11-.028-.248-.073-.413-.139-.166-.064-.284-.126-.354-.188-.065-.069-.136-.152-.192-.248-.062-.104-.089-.22-.089-.354 0-.604.562-.906 1.694-.906.344 0 .646.047.909.141.268.097.482.207.642.337l.446.399c.146.131.299.247.476.343.172.097.358.144.562.141.371 0 .667-.123.895-.373.224-.253.336-.558.336-.907 0-.433-.223-.822-.661-1.175-.44-.349-1-.616-1.675-.797-.678-.179-1.394-.27-2.15-.271-.535 0-1.054.062-1.556.183-.504.124-.979.308-1.411.556-.438.247-.787.592-1.055 1.029-.264.438-.396.942-.396 1.518 0 .48.074.896.224 1.257.152.355.372.653.661.894.291.234.606.428.949.571.339.146.744.271 1.216.383l1.724.427c.709.178 1.146.316 1.319.428.253.153.377.396.377.707 0 .31-.154.562-.473.762s-.73.301-1.239.297c-.398 0-.761-.062-1.08-.188-.315-.124-.574-.275-.768-.455s-.372-.354-.537-.533c-.166-.183-.344-.327-.538-.456-.199-.123-.409-.188-.641-.188-.396 0-.691.12-.895.354-.201.231-.301.531-.301.886 0 .727.482 1.344 1.444 1.857.957.515 2.104.773 3.431.773.575 0 1.125-.072 1.653-.219.524-.149 1.008-.355 1.443-.631.438-.276.785-.646 1.045-1.104.262-.461.392-.977.392-1.556h.006v-.009zm4.285 2.562c0 1.254-.443 2.324-1.329 3.21-.886.889-1.954 1.328-3.205 1.328-1.023 0-1.943-.313-2.768-.942-.605.124-1.196.187-1.771.187-1.126 0-2.202-.216-3.229-.65-1.027-.438-1.915-1.03-2.658-1.773-.744-.744-1.334-1.631-1.771-2.657-.437-1.024-.652-2.104-.652-3.229 0-.574.065-1.17.188-1.776-.63-.812-.946-1.739-.946-2.763 0-1.251.443-2.319 1.328-3.205.889-.886 1.954-1.33 3.206-1.33 1.026 0 1.943.314 2.77.947.604-.125 1.194-.188 1.771-.188 1.125 0 2.202.218 3.229.654 1.029.436 1.915 1.025 2.656 1.771.744.744 1.335 1.63 1.771 2.658.436 1.029.654 2.106.654 3.23 0 .572-.064 1.166-.188 1.771.63.813.944 1.734.944 2.757z"/><text transform="translate(65.215 608.106)" fill="#F5ECD9" font-weight="100" font-size="18">albino.tonnina</text></g><g id="addressnumidia" fill="#F5ECD9" font-weight="100" font-size="18"><text transform="translate(33.271 438.129)">Albino Tonnina c/o Numidia Srl</text><text transform="translate(33.271 459.728)">Via Giovanni Antonelli 3, 00197 Roma</text></g><g id="contactresume"><path fill="#F5ECD9" d="M45.744 640.588v.867c0 .13-.041.229-.123.312-.082.087-.188.124-.313.124h-9.574c-.127 0-.229-.036-.312-.124-.082-.081-.124-.184-.124-.312v-.867c0-.13.042-.229.124-.312.082-.082.186-.123.312-.123h9.574c.128 0 .23.041.313.123.082.081.123.185.123.312zm0-3.483v.868c0 .127-.041.231-.123.312-.082.082-.188.123-.313.123h-9.574c-.127 0-.229-.041-.312-.123-.082-.081-.124-.188-.124-.312v-.868c0-.129.042-.23.124-.312.082-.081.186-.122.312-.122h9.574c.128 0 .23.041.313.122.082.082.123.186.123.312zm-12.183 8.27h13.923v-10.443h-5.655c-.363 0-.675-.126-.926-.381-.254-.251-.381-.56-.381-.925v-5.656h-6.962l.001 17.405zm8.701-12.184h5.112c-.092-.266-.191-.449-.297-.56l-4.259-4.257c-.106-.108-.293-.211-.558-.299l.002 5.116zm6.961.435v12.183c0 .366-.127.676-.379.931-.254.251-.562.378-.926.378h-14.795c-.363 0-.671-.127-.924-.378-.256-.255-.384-.562-.384-.931v-18.271c0-.366.128-.673.384-.925.253-.254.561-.381.924-.381h8.702c.36 0 .761.091 1.193.271.438.183.78.399 1.033.654l4.244 4.241c.251.254.473.599.652 1.031.185.437.275.834.276 1.197z"/><text transform="translate(65.608 645.044)" fill="#F5ECD9" font-weight="100" font-size="18">View resume</text></g><text transform="translate(26.604 402.719)" fill="#F5ECD9" font-weight="100" font-size="36">To stay connected:</text><g id="rightside"><text transform="translate(610.229 682.813)" fill="#F5ECD9" font-weight="100" font-size="18">copyright 2014 Albino Tonnina</text><text transform="translate(606.604 402.719)" fill="#F5ECD9" font-weight="100" font-size="36">This website:</text><g id="githubsite"><path fill="#F5ECD9" d="M622.635 638.003c-.132.144-.3.129-.501-.081-.22-.188-.256-.343-.104-.475.128-.146.298-.129.503.078.203.185.233.344.102.478zm-1.062-1.539c.152.202.152.36 0 .474-.133.101-.281.041-.429-.177-.148-.216-.148-.379 0-.457.15-.111.294-.056.429.16zm-1.542-1.516c-.084.123-.188.131-.323.047-.169-.088-.229-.19-.177-.301.048-.089.156-.103.324-.048.168.083.229.185.176.302zm.787.858c-.104.122-.237.097-.404-.07-.146-.188-.168-.319-.048-.404.104-.1.236-.075.404.079.148.177.163.311.048.395zm3.255 2.828c-.065.211-.227.259-.479.15-.287-.066-.393-.195-.329-.385.067-.191.229-.248.479-.179.273.092.376.227.329.414zm1.583.126c0 .191-.129.276-.396.276-.291.036-.435-.058-.435-.276 0-.188.137-.272.401-.272.298-.038.43.055.43.272zm1.471-.252c.033.168-.083.293-.354.358-.269.062-.422 0-.453-.207-.038-.209.083-.328.354-.386.263-.028.417.051.453.235zm24.464-24.184v24.232c0 2.008-.721 3.714-2.134 5.141-1.424 1.417-3.138 2.133-5.144 2.133h-5.656c-.27 0-.47-.008-.622-.027-.139-.021-.304-.057-.484-.129-.188-.062-.325-.188-.401-.366-.088-.176-.128-.403-.128-.691v-6.038c0-1.627-.439-2.828-1.317-3.585.969-.099 1.826-.254 2.594-.449.765-.212 1.558-.534 2.375-.981.812-.455 1.496-1.014 2.045-1.673.544-.667.986-1.557 1.333-2.653.345-1.095.517-2.366.517-3.802 0-2.03-.668-3.771-1.998-5.195.625-1.533.552-3.251-.203-5.156-.474-.148-1.151-.062-2.046.273-.896.339-1.666.708-2.326 1.111l-.961.606c-1.567-.438-3.183-.65-4.847-.65s-3.287.213-4.844.65c-.277-.188-.633-.409-1.072-.681-.44-.268-1.15-.596-2.106-.975-.963-.386-1.683-.494-2.175-.342-.735 1.91-.801 3.626-.176 5.158-1.329 1.428-1.994 3.155-1.994 5.196 0 1.432.172 2.689.519 3.788.346 1.102.788 1.985 1.324 2.652.535.677 1.213 1.238 2.029 1.688.809.462 1.604.783 2.374.982.764.199 1.629.352 2.589.448-.671.607-1.088 1.474-1.232 2.604-.361.167-.733.303-1.145.39-.399.081-.886.126-1.439.126s-1.104-.185-1.652-.55c-.553-.357-1.019-.889-1.404-1.574-.314-.544-.726-.979-1.227-1.319-.496-.336-.909-.541-1.245-.614l-.504-.076c-.356 0-.604.046-.732.118-.128.076-.177.178-.125.295.045.118.125.234.223.354.104.119.217.22.327.303l.178.124c.378.171.733.494 1.101.966.361.47.625.9.793 1.284l.257.581c.218.641.59 1.155 1.108 1.559.523.388 1.09.646 1.693.758.604.112 1.188.167 1.754.176.557.017 1.031-.024 1.398-.09l.581-.104c0 .645.004 1.508.012 2.607.016 1.082.02 1.663.02 1.715 0 .372-.099.646-.28.85-.185.192-.372.298-.557.318-.188.033-.472.041-.829.041h-5.66c-2.007 0-3.716-.715-5.138-2.133-1.417-1.422-2.135-3.14-2.135-5.141v-24.237c0-2.006.714-3.715 2.135-5.14 1.417-1.424 3.131-2.134 5.138-2.134h24.235c2.005 0 3.715.71 5.136 2.134 1.422 1.415 2.135 3.134 2.135 5.14l.015.004z"/><text transform="translate(666.055 633.482)" fill="#F5ECD9" font-weight="100" font-size="18">has a public repository on GitHub.</text></g><g fill="#F5ECD9"><path d="M631.97 475.007c0-.384-.203-.732-.533-.925l-8.818-5.076c-.147-.088-.313-.134-.483-.14h-.092c-.169.006-.337.052-.486.14l-8.817 5.076c-.33.188-.533.541-.533.925l.021 13.666c0 .19.098.367.266.46.164.102.367.102.529 0l5.24-3c.332-.197.53-.545.53-.926v-6.385c0-.381.201-.732.531-.922l2.231-1.285c.166-.1.348-.146.535-.146.182 0 .364.047.526.146l2.229 1.285c.332.188.532.541.532.922v6.385c0 .381.205.729.533.926l5.238 3c.164.102.369.102.531 0 .164-.093.266-.27.266-.46l.024-13.666zM679.06 456.221c-.166-.093-.367-.09-.529.006-.164.099-.264.271-.264.459v13.534c0 .136-.07.256-.188.323-.112.065-.26.065-.371 0l-2.209-1.273c-.329-.188-.733-.188-1.063.004l-8.822 5.092c-.33.188-.533.542-.533.921v10.188c0 .382.203.731.533.925l8.822 5.097c.328.188.734.188 1.063 0l8.82-5.097c.33-.189.533-.543.533-.925v-25.39c0-.387-.209-.741-.547-.931l-5.245-2.933zm-.82 25.901c0 .096-.051.184-.135.229l-3.027 1.746c-.082.047-.186.047-.266 0l-3.031-1.746c-.082-.048-.133-.136-.133-.229v-3.497c0-.096.051-.184.133-.23l3.029-1.746c.082-.051.186-.051.268 0l3.027 1.746c.084.051.135.14.135.23v3.497zM710.619 478.533c.326-.19.529-.541.529-.92v-2.473c0-.38-.203-.729-.529-.922l-8.768-5.089c-.33-.189-.736-.189-1.066-.001l-8.815 5.091c-.33.19-.533.542-.533.922v10.187c0 .384.205.732.539.926l8.764 4.994c.324.185.723.187 1.045.006l5.306-2.946c.168-.094.27-.271.271-.462.001-.188-.1-.37-.268-.466l-8.875-5.095c-.166-.099-.271-.271-.271-.461v-3.191c0-.188.104-.367.271-.462l2.762-1.592c.164-.095.367-.095.533 0l2.762 1.592c.166.095.271.271.271.462v2.512c0 .189.102.365.268.461.164.1.369.099.533-.002l5.271-3.071zM648.011 469.078c.328-.189.733-.189 1.062 0l8.82 5.091c.33.189.533.541.533.923v10.189c0 .38-.203.729-.533.923l-8.82 5.095c-.328.189-.733.189-1.062 0l-8.82-5.095c-.33-.191-.531-.543-.531-.923v-10.189c0-.382.201-.729.531-.923l8.82-5.091zM727.75 491.443c-.309 0-.606-.078-.872-.232l-2.777-1.644c-.414-.231-.213-.314-.076-.361.555-.192.666-.236 1.256-.571.062-.034.146-.021.207.019l2.135 1.268c.076.043.188.043.261 0l8.313-4.801c.078-.045.127-.134.127-.229v-9.599c0-.094-.049-.183-.129-.229l-8.312-4.797c-.078-.045-.183-.045-.261 0l-8.312 4.801c-.08.047-.131.138-.131.229v9.599c0 .096.051.184.131.228l2.279 1.312c1.231.619 1.989-.105 1.989-.841v-9.479c0-.137.107-.239.24-.239h1.06c.131 0 .237.104.237.239v9.479c0 1.65-.896 2.598-2.463 2.598-.479 0-.856 0-1.916-.521l-2.182-1.256c-.539-.312-.873-.896-.873-1.521v-9.599c0-.624.334-1.206.873-1.518l8.315-4.81c.525-.297 1.229-.297 1.748 0l8.316 4.81c.537.312.873.894.873 1.518v9.599c0 .624-.336 1.204-.873 1.521l-8.316 4.803c-.256.144-.559.224-.867.224zM730.32 484.83c-3.641 0-4.399-1.671-4.399-3.072 0-.133.104-.239.237-.239h1.074c.121 0 .223.089.24.203.162 1.098.645 1.647 2.848 1.647 1.752 0 2.498-.396 2.498-1.326 0-.536-.211-.935-2.936-1.2-2.275-.226-3.687-.729-3.687-2.549 0-1.68 1.414-2.68 3.787-2.68 2.664 0 3.982.926 4.15 2.907.006.066-.021.137-.064.188-.045.048-.104.077-.176.077h-1.08c-.109 0-.211-.08-.232-.188-.26-1.15-.889-1.521-2.598-1.521-1.914 0-2.137.667-2.137 1.166 0 .604.262.78 2.846 1.122 2.56.34 3.771.814 3.771 2.61.004 1.817-1.509 2.855-4.142 2.855zM741.787 468.99v.246h-.698v1.82h-.283v-1.82h-.695v-.246h1.676zM742.037 468.99h.4l.594 1.75.597-1.75h.396v2.066h-.268v-1.221l.002-.21.004-.315-.592 1.746h-.277l-.598-1.746v.062l.004.23.004.229v1.221h-.27v-2.065l.004.003zM701.193 478.057c.062-.033.146-.033.205 0l1.691.979c.062.036.104.104.104.177v1.955c0 .074-.039.142-.104.177l-1.691.979c-.062.036-.143.036-.205 0l-1.688-.979c-.062-.035-.104-.103-.104-.177v-1.955c0-.072.039-.141.104-.177l1.688-.979z"/></g><g fill="#F5ECD9"><path d="M659.974 574.822v-11.71c0-.824-.604-1.185-1.316-1.185-1.432 0-3.217.356-4.84 1.071v11.819h-3.299v-21.742h3.299v7.173c1.568-.575 3.438-1.07 5.308-1.07 2.995 0 4.122 1.841 4.122 4.37v11.271l-3.274.003zm9.428-7.092c.111 3.931.881 4.698 3.299 4.698 1.896 0 4.041-.633 5.691-1.266l.549 2.474c-1.76.798-3.902 1.565-6.459 1.565-5.498 0-6.352-3.021-6.352-7.833 0-2.639.19-5.029.823-7.229 1.646-.632 3.851-.962 6.623-.962 4.513 0 5.888 2.501 5.888 6.871v1.678h-10.062v.004zm4.176-5.799c-.985 0-2.559.026-3.85.272-.135.66-.303 1.568-.354 3.244h6.871c.001-2.281-.41-3.516-2.667-3.516zm12.068 1.071v11.819h-3.299v-13.307c2.774-1.511 5.719-1.979 7.643-2.113v2.749c-1.348.111-3.051.275-4.344.852zm13.055 12.204c-4.922 0-7.146-2.418-7.146-7.941 0-5.854 2.938-8.082 7.146-8.082 4.918 0 7.146 2.419 7.146 7.944.002 5.854-2.941 8.079-7.146 8.079zm0-13.275c-2.526 0-3.932 1.456-3.932 5.333 0 4.231 1.182 5.168 3.932 5.168 2.527 0 3.935-1.43 3.935-5.307 0-4.233-1.187-5.194-3.935-5.194zm23.062 12.891h-3.875c-.906-2.418-2.172-4.896-4.123-7.036h-1.732v7.036h-3.299v-21.742h3.299v12.479h1.539c1.681-1.729 2.97-3.875 3.875-5.988h3.711c-1.262 2.558-2.885 4.812-4.696 6.648 2.168 2.748 3.873 5.662 5.301 8.603zm6.184.384c-2.994 0-4.123-1.84-4.123-4.367v-11.271h3.271v11.683c0 .826.604 1.184 1.317 1.184 1.431 0 3.382-.354 5.004-1.07v-11.795h3.3v13.25c-3.902 2.139-6.9 2.386-8.769 2.386zM639.74 582.872h-22.965c-1.965 0-3.557-1.592-3.557-3.557v-30.18c0-1.965 1.592-3.558 3.557-3.558h22.965c1.965 0 3.56 1.593 3.56 3.558v30.18c-.004 1.965-1.599 3.557-3.56 3.557zm2.334-33.531c0-1.403-1.139-2.54-2.541-2.54h-22.553c-1.402 0-2.541 1.14-2.541 2.54v29.771c0 1.4 1.139 2.54 2.541 2.54h22.557c1.402 0 2.541-1.14 2.541-2.54l-.004-29.771zM632.068 577.741v-14.811s.963-3.543-11.865 1.45c-.021.062-.021-13.692-.021-13.692l4.188-.025v8.814s11.734-4.625 11.734 3.506v14.76l-4.036-.002zm2.387-21.744h-4.444c1.6-1.956 3.049-5.31 3.049-5.31h4.596c0 .001-.789 2.186-3.201 5.31zm-14.198 21.719v-8.435l4.215 4.217-4.215 4.218z"/></g><text transform="translate(611.36 445.006)" fill="#F5ECD9" font-weight="100" font-size="18">is 100% powered by:</text><text transform="translate(613.219 530.518)" fill="#F5ECD9" font-weight="100" font-size="18">is hosted on:</text></g><g id="pegu"><text transform="translate(660.633 489.283)" fill="#F5ECD9" font-weight="100" font-size="36">Have you tried</text><text transform="translate(609.072 630.388)" fill="#F5ECD9" font-weight="100" font-size="124.874">Pegu?</text></g></g><text transform="translate(26.604 122.301)" fill="#2BACB5" font-weight="100" font-size="36" id="ownership">And reliable. And friendly, most of the time.</text><g id="leaving" fill="#F5ECD9" font-weight="100" font-size="36"><text transform="translate(26.604 182.247)">I&apos;m leaving Italy and looking for a development position</text><text transform="translate(26.604 222.194)">within the EU with a forward thinking IT company</text><text transform="translate(26.604 262.142)">where I can continue to grow.</text></g><text id="passionate" transform="translate(26.604 62.353)" fill="#E84D5B" font-weight="100" font-size="36">I’m passionate about my job.</text><text transform="translate(26.604 319.345)" fill="#2BACB5" font-weight="100" font-size="36" id="thankyouforscrolling">Thank you for scrolling this far :)</text><g id="planebig"><path fill="#FFFEF0" d="M-4344.382-390.975c24.917.346 59.812 4.739 59.812 4.739s-34.896 4.397-59.812 4.752c-24.896.346-45.589-4.752-45.589-4.752s20.695-5.094 45.589-4.739z"/><path fill="#C8C6BC" d="M-4389.994-386.178l238.987 174.13s13.701 3.602 34.959 8.083l-254.57-182.193-19.376-.02z"/><path fill="#FFFEF0" d="M-4116.014-204.029c33.488 6.926 85.67 15.868 132.318 15.868 60.776 0 198.811-20.339 198.811-20.339l-501.525-177.668h-84.177l254.573 182.139z"/><path opacity=".4" fill="#BCBAD0" enable-background="new" d="M-4389.994-386.234s20.708-5.095 45.603-4.739c24.914.346 59.81 4.739 59.81 4.739s-.54.067-1.516.198l501.157 177.571s-137.852 20.339-198.735 20.339c-46.843 0-99.013-8.943-132.382-15.869-21.258-4.407-34.973-8.086-34.973-8.086l-238.983-174.13h.237l-.218-.023z"/><path fill="#C8C6BC" d="M-2661.268-247.431l390.151 284.237s22.402 5.879 57.168 13.108l-415.626-297.237-31.693-.108z"/><path fill="#FFFEF0" d="M-2213.916 49.938c54.681 11.31 139.753 25.9 216.149 25.9 99.293 0 324.414-33.195 324.414-33.195l-818.807-290.074h-137.383l415.627 297.369z"/><polygon opacity=".4" fill="#BCBAD0" enable-background="new" points="-2066.379,-96.896 -2523.202,-146.814 -2456.443,-96.896"/><path id="carlinga_1_" fill="#FFFEF0" d="M-4016.511-431.237l147.156 201.338 532.001 133.002h1950.679s437.793-24.009 573.39 66.501l48.035 44.333s133.229 50.372 151.271 99.77c1.364 3.703 2.11 7.403 2.089 11.062-.681 53.85-140.403 177.336-774.924 177.336h-1596.011c-118.462 0-283.308-33.488-463.892-80.129-422.887-109.406-907.676-292.118-907.676-292.118v-94.977l95.842-23.324-63.502-242.678 305.542-.116z"/><polygon fill="#FFFEF0" points="-4408.459,-761.899 -4258.279,-761.899 -4111.046,-560.537 -4355.736,-560.537"/><polygon fill="#FFFEF0" points="-4278.153,-431.237 -4321.869,-431.237 -4355.736,-560.537 -4318.23,-560.537"/><polygon fill="#8CC152" points="-4111.046,-560.537 -4016.511,-431.237 -4278.153,-431.237 -4318.23,-560.537"/><polygon fill="#C8C6BC" points="-3934.641,-128.351 -4086.759,26.298 -4228.092,-23.654"/><path fill="#C8C6BC" d="M-4503.543 38.683l224.676-163.709s12.946-3.464 32.928-7.631l-239.333 171.218-18.271.122z"/><path fill="#FFFEF0" d="M-4245.951-132.549c31.616-6.527 80.578-14.916 124.45-14.916 57.17 0 186.834 19.114 186.834 19.114l-427.077 167.033h-123.53l239.323-171.231z"/><polygon fill="#8CC152" points="-4204.001,-231.197 -4214.562,-227.907 -4380.22,-759.767 -4369.665,-763.058"/><path fill="none" stroke="#4E4B80" stroke-width="10" stroke-miterlimit="10" d="M-3099.06 191.271"/><g id="worksharelogo"><path fill="#00ADEF" d="M-3104.601 106.307l1768.435-37.633 71.408 93.049h-1839.843c-273.666 0-472.232-6.698-612.529-14.751-82.978-25.242-163.827-51.261-238.575-76.145 92.701 11.777 342.481 35.48 851.104 35.48z"/><path fill="#00ADEF" d="M-3104.601 180.793h1475.948l-27.708 27.707h-1448.24c-167.616 0-306.894-2.541-421.853-6.288-38.063-10.392-76.304-21.288-114.296-32.446 133.163 6.298 308.842 11.027 536.149 11.027z"/><g id="workshare" fill="#fff"><path d="M-1630.411 107.365v-12.492c0-5.207 4.02-9.327 9.308-9.222 3.3.064 6.59.528 9.878.87 7.483.781 14.948 1.74 22.444 2.354 5.309.435 8.321 4.5 7.99 8.545-.056.685.008 1.377-.012 2.064-.048 1.555-1.042 2.666-2.424 2.739-1.393.075-2.659-1.01-2.815-2.51-.091-.887-.044-1.788-.055-2.681-.016-1.238-.505-1.848-1.779-1.959-3.191-.279-6.388-.512-9.584-.741-7.155-.511-14.312-1.024-21.47-1.506-2.48-.166-3.292.63-3.285 3.075.02 7.844.044 15.689.07 23.535.006 2.006.95 2.904 2.988 2.749 8.787-.663 17.57-1.351 26.357-2.027 1.458-.113 2.918-.2 4.377-.311 1.908-.144 2.36-.629 2.361-2.494 0-.619-.02-1.237.004-1.858.067-1.649 1.197-2.886 2.65-2.93 1.45-.042 2.606 1.039 2.625 2.752.021 1.704.09 3.502-.394 5.101-.963 3.183-3.33 5.012-6.705 5.396-8.788 1.006-17.58 1.979-26.371 2.958-1.972.221-3.942.525-5.921.613-5.248.245-9.534-3.121-10.128-7.991-.209-1.697-.1-3.436-.107-5.155-.012-2.952-.002-5.913-.002-8.874zM-1563.227 124.841c0 4.099-.094 8.194.02 12.286.183 6.459-5.634 10.104-11.072 9.501-8.688-.964-17.385-1.863-26.078-2.792-1.975-.212-3.953-.384-5.919-.65-3.472-.474-6.357-3.58-6.565-7.044-.066-1.132-.055-2.27-.026-3.405.041-1.52 1.105-2.663 2.465-2.722 1.304-.057 2.595 1.049 2.759 2.477.106.92.051 1.854.065 2.782.019 1.191.608 1.86 1.817 1.952 4.791.358 9.588.695 14.382 1.04 5.384.387 10.771.773 16.156 1.163.452.03.905.083 1.356.07 1.393-.038 2.4-.979 2.399-2.34-.005-8.259-.028-16.52-.073-24.778-.008-1.488-1.159-2.474-2.696-2.355-8.16.625-16.32 1.268-24.482 1.904-2.256.175-4.512.358-6.771.521-1.542.11-2.118.689-2.124 2.186-.001.721.021 1.444-.005 2.167-.06 1.585-1.177 2.821-2.575 2.876-1.508.057-2.591-.947-2.703-2.666-.171-2.625-.192-5.229 1.551-7.499 1.783-2.32 4.273-2.96 7.038-3.255 9.039-.965 18.068-2.024 27.101-3.037 2.488-.28 4.968-.687 7.453.138 4.022 1.332 6.456 4.598 6.456 8.78v12.698l.071.002zM-1539.725 123.284c1.688-6.167 3.299-12.066 4.917-17.963.208-.763.409-1.529.669-2.273.781-2.241 2.255-3.368 4.341-3.36 2.13.007 3.596 1.084 4.311 3.379.797 2.56 1.472 5.156 2.186 7.741 1.125 4.072 2.238 8.147 3.534 12.232.488-2.076.983-4.15 1.462-6.227 1.062-4.621 2.11-9.25 3.184-13.868.283-1.217.631-2.398 1.978-2.968 2.312-.982 4.842.649 4.476 3.094-.396 2.641-1.092 5.241-1.736 7.841-1.479 5.974-3.004 11.934-4.518 17.895-.176.701-.374 1.397-.619 2.075-.771 2.116-1.895 2.975-3.873 3.007-1.924.03-3.303-.828-4.011-2.858-.835-2.398-1.485-4.863-2.168-7.313-1.3-4.67-2.564-9.346-3.848-14.021-.078-.281-.194-.549-.396-1.118-.733 2.619-1.388 4.948-2.035 7.281l-3.654 13.217c-.166.596-.346 1.188-.562 1.769-.785 2.117-2.074 3.066-4.098 3.039-1.999-.022-3.288-.898-3.913-3.083-1.104-3.866-2.052-7.777-3.043-11.677-1.152-4.529-2.289-9.064-3.413-13.601-.19-.766-.33-1.549-.418-2.33-.193-1.696.803-3.056 2.458-3.429 1.63-.371 3.119.346 3.615 2.007.679 2.27 1.174 4.593 1.713 6.902 1.067 4.552 2.108 9.11 3.163 13.665.053.224.142.45.298.945zM-1412.438 112.442c.409-.384.659-.605.894-.842 2.794-2.766 6.147-3.369 9.825-2.29 3.285.96 5.192 3.6 5.32 7.586.143 4.505.104 9.017.025 13.521-.045 2.576-1.564 3.792-3.88 3.37-1.463-.263-2.304-1.272-2.333-3.089-.062-3.784-.037-7.569-.057-11.354-.002-.514-.03-1.033-.099-1.542-.33-2.458-1.33-3.723-3.183-4.064-2.15-.398-4.611.579-5.488 2.526-.589 1.305-.878 2.824-.946 4.263-.146 3.09-.059 6.193-.082 9.289-.004.512-.045 1.034-.144 1.532-.354 1.734-1.358 2.56-3.022 2.54-1.696-.026-2.633-.83-2.964-2.597-.1-.54-.134-1.095-.134-1.639-.01-8.673-.008-17.342-.002-26.014.002-.514.035-1.033.132-1.537.298-1.545 1.336-2.391 2.909-2.415 1.583-.026 2.748.867 3.047 2.408.124.637.172 1.296.176 1.946.018 2.717.006 5.435.006 8.402zM-1458.612 117.775c2.775-2.56 5.558-5.114 8.318-7.691.872-.816 1.775-1.422 3.061-1.21 1.872.308 2.88 2.174 1.802 3.699-.885 1.251-2.065 2.307-3.154 3.412-.678.689-1.428 1.307-2.2 2.009.197.343.366.67.565.978 1.979 3.075 3.97 6.146 5.946 9.224.316.491.627.995.87 1.522.629 1.365.211 2.902-.957 3.662-1.228.796-2.898.615-3.904-.488-.461-.505-.839-1.098-1.204-1.68-1.845-2.954-3.672-5.919-5.597-9.026-1.119 1.026-2.196 1.98-3.221 2.988-.175.173-.161.574-.166.872-.028 1.618.061 3.243-.074 4.848-.212 2.531-2.742 3.74-4.896 2.438-.867-.521-1.187-1.319-1.28-2.241-.058-.583-.064-1.17-.064-1.751.006-8.604.008-17.209.039-25.812.008-2.298.812-3.389 2.626-3.766 1.692-.351 3.09.508 3.436 2.179.148.701.196 1.432.198 2.15.017 4.336.009 8.672.009 13.01v.993l-.153-.319zM-1377.103 130.568c-.861.542-1.742 1.157-2.679 1.675-3.03 1.677-6.231 2.114-9.567 1.089-2.889-.889-4.69-3.18-4.875-6.056-.18-2.786 1.225-5.22 4.107-6.306 2.289-.861 4.745-1.305 7.137-1.894 1.787-.442 3.591-.828 5.359-1.232.438-2.937-1.032-4.71-3.922-4.759-.795-.015-1.603.063-2.387.199-1.727.302-3.123 1.07-3.917 2.734-.551 1.154-1.404 1.958-2.857 1.83-1.559-.136-2.547-1.265-2.361-2.796.173-1.434.934-2.568 1.972-3.538 1.272-1.189 2.796-1.952 4.497-2.279 3.106-.6 6.239-.627 9.333.059 4.014.89 5.904 3.13 6.017 7.179.072 2.677-.03 5.363-.09 8.042-.038 1.742.262 3.394.828 5.053.289.85.391 1.961.085 2.771-.608 1.616-2.924 2.026-4.325.833-.859-.731-1.529-1.672-2.355-2.604zm-.426-8.897c-1.976.442-3.909.859-5.828 1.322-.842.201-1.681.451-2.48.777-1.52.621-2.142 1.495-2.089 2.759.056 1.361 1.05 2.59 2.447 3.034 3.555 1.128 7.543-1.392 7.935-5.051.099-.913.015-1.848.015-2.841zM-1345.17 122.881c.062 2.548.792 4.592 2.904 5.902 2.245 1.395 4.591 1.274 6.842.032.958-.528 1.735-1.364 2.629-2.009.688-.5 1.374-1.141 2.16-1.335 1.806-.452 2.989.937 2.395 2.679-.57 1.673-1.763 2.874-3.234 3.793-3.143 1.962-6.605 2.2-10.17 1.689-7.077-1.014-9.584-6.217-9.908-11.232-.241-3.727.499-7.224 3.14-10.058 2.863-3.074 6.597-3.771 10.613-3.432 5.297.451 8.994 3.783 9.939 8.891.631 3.405-.688 5.025-4.244 5.068-3.936.045-7.875.011-11.814.011l-1.252.001zm11.236-3.637c-.011-3.687-2.397-6.225-5.714-6.138-3.089.084-5.557 2.875-5.398 6.138h11.112zM-1497.05 133.867c-7.938.148-12.79-4.614-12.99-12.21-.172-6.59 3.631-12.326 11.512-12.811 7.522-.463 12.974 4.04 13.489 11.14.56 7.703-3.96 13.677-12.011 13.881zm5.921-12.606c-.432-1.58-.685-3.233-1.335-4.709-.907-2.061-2.687-3.077-4.998-3.1-2.308-.023-4.093.961-5.084 2.986-1.571 3.208-1.581 6.525-.042 9.75 1.038 2.176 2.934 3.123 5.362 3.023 2.32-.091 4.019-1.214 4.872-3.291.588-1.433.808-3.015 1.225-4.659zM-1432.327 133.867c-2.215-.036-5.285-.301-7.856-2.364-1.172-.94-1.97-2.124-2.271-3.602-.267-1.303.28-2.423 1.404-2.907 1.149-.494 2.396-.186 3.179.813.255.325.461.687.687 1.034 1.669 2.575 4.568 3.629 7.547 2.743 1.401-.419 2.273-1.325 2.36-2.455.091-1.184-.512-2.141-1.99-2.707-1.322-.509-2.735-.776-4.085-1.223-1.812-.591-3.697-1.061-5.381-1.912-5.213-2.637-4.045-8.407-.417-10.75 2.492-1.611 5.285-1.81 8.134-1.666 2.259.113 4.45.589 6.279 1.965.831.626 1.573 1.466 2.112 2.354.708 1.165.399 2.47-.495 3.189-.906.731-2.419.824-3.418.083-.659-.49-1.238-1.105-1.774-1.732-1.642-1.928-4.732-2.568-6.908-1.244-.563.34-1.023 1.11-1.191 1.764-.204.808.396 1.484 1.151 1.764 1.625.603 3.292 1.086 4.936 1.627 1.845.605 3.748 1.084 5.508 1.871 2.132.951 3.657 2.546 3.754 5.033.11 2.821-.909 5.118-3.428 6.623-2.124 1.27-4.489 1.607-7.837 1.699zM-1476.553 112.394l.441-.611c2.192-3.267 6.128-3.956 9.351-1.637 1.209.87 1.607 2.134 1.046 3.335-.567 1.215-1.743 1.659-3.253 1.325-1.144-.251-2.312-.572-3.465-.559-1.521.014-2.606 1.017-2.93 2.399-.499 2.125-.858 4.305-1.011 6.48-.175 2.466-.032 4.953-.083 7.427-.046 2.368-1.885 3.781-4.026 3.161-1.339-.387-2.074-1.287-2.191-2.817-.073-.958-.047-1.924-.047-2.888-.004-4.989-.005-9.981.001-14.966.002-.514.016-1.037.112-1.54.348-1.883 1.316-2.696 3.107-2.662 1.684.03 2.6.929 2.857 2.804l.091.749zM-1361.792 112.276l.296-.331c2.278-3.412 5.969-4.14 9.374-1.851 1.275.856 1.707 2.157 1.131 3.395-.557 1.192-1.779 1.683-3.266 1.305-.741-.186-1.476-.413-2.227-.539-1.947-.319-3.44.371-4.086 2.207-.541 1.534-.895 3.188-.996 4.809-.196 3.185-.113 6.391-.232 9.583-.066 1.818-1.373 3.025-3.042 3.021-1.728-.003-3.003-1.138-3.089-2.972-.104-2.162-.054-4.333-.056-6.498-.005-3.852-.005-7.705.004-11.558 0-.515.022-1.036.113-1.54.281-1.584 1.284-2.434 2.856-2.471 1.698-.038 2.641.711 3.004 2.389.069.304.126.606.216 1.051zM-1321.197 111.271c-.017 1.562-1.2 2.72-2.783 2.727-1.612.007-2.87-1.208-2.876-2.782-.005-1.556 1.272-2.795 2.874-2.786 1.603.011 2.804 1.234 2.785 2.841zm-.628-.036c.009-1.217-.934-2.167-2.161-2.178-1.204-.011-2.219.966-2.229 2.144-.009 1.176.987 2.167 2.192 2.176 1.229.01 2.189-.928 2.198-2.142zM-1324.458 111.273l1.583 1.546.271-.216-.563-1.24.26.012c.024-.449.182-1.235.047-1.288-.711-.276-1.494-.365-2.204-.51v3.199l.341.009.265-1.512zM-1324.458 111.273l-.262 1.512-.341-.01v-3.199c.71.143 1.493.233 2.204.509.134.052-.024.838-.047 1.288l-.26-.012.563 1.24-.271.216c-.503-.486-1.002-.974-1.586-1.544z"/></g></g><path fill="#E4E2D6" d="M-613.805 113.708c1.362 3.703 2.143 7.403 2.075 11.062-.681 53.85-140.403 177.335-774.927 177.335h-1596.005c-299.253 0-973.021-231.278-973.021-231.278s314.837 134.567 1272.271 134.567c1985.668.001 2065.946-90.82 2069.607-91.686z"/><path fill="#EDEDE6" d="M-1784.769 345.898c-265.55 37.406-383.633-2.975-456.175-22.168v-132.997c72.542-19.159 190.625-59.577 456.175-22.168v177.333z"/><polygon fill="#C8C6BC" points="-1756.226,190.733 -1756.226,212.898 -1756.226,323.73 -1784.769,345.898 -1784.769,212.898 -1784.769,168.565"/><polygon fill="#EDEDE6" points="-2240.944,313.566 -2269.472,306.521 -2269.472,207.928 -2240.944,200.893"/><polygon fill="#EDEDE6" points="-2269.472,292.449 -2355.002,271.312 -2355.002,243.148 -2269.472,222.02"/><path fill="#C8C6BC" d="M-2247.957 190.733c63.342-16.747 161.36-49.606 361.575-32.885l-198.833 198.884c-75.653-7.631-125.334-23.098-162.742-33.021v-132.978z"/><path fill="#C8C6BC" d="M-2874.245 446.189l390.152-284.273s22.391-5.887 57.048-13.074l-415.625 297.359-31.575-.012z"/><path fill="#FFFEF0" d="M-2426.914 148.842c54.727-11.32 139.861-25.91 216.127-25.91 99.296 0 324.416 33.054 324.416 33.054l-741.634 290.203h-214.522l415.613-297.347z"/><path fill="#00ADEF" d="M-813.253-30.395h-130.057s-9.394 44.333 178.093 44.333l-48.036-44.333z"/><path fill="#00ADEF" d="M-3353.976 13.938c0 6.104 4.997 11.083 11.082 11.083h11.082c6.15 0 11.085-4.978 11.085-11.083v-22.167c0-6.236-4.935-11.085-11.085-11.085h-11.082c-6.085 0-11.082 4.85-11.082 11.085v22.167z"/><path fill="#00ADEF" d="M-3265.311 13.938c0 6.104 5.001 11.083 11.085 11.083h11.083c6.146 0 11.085-4.978 11.085-11.083v-22.167c0-6.236-4.938-11.085-11.085-11.085h-11.083c-6.084 0-11.085 4.85-11.085 11.085v22.167z"/><path fill="#00ADEF" d="M-3176.643 13.938c0 6.104 5 11.083 11.085 11.083h11.082c6.147 0 11.082-4.978 11.082-11.083v-22.167c0-6.236-4.935-11.085-11.082-11.085h-11.082c-6.084 0-11.085 4.85-11.085 11.085v22.167z"/><path fill="#00ADEF" d="M-3087.974 13.938c0 6.104 5 11.083 11.081 11.083h11.085c6.145 0 11.083-4.978 11.083-11.083v-22.167c0-6.236-4.938-11.085-11.083-11.085h-11.085c-6.081 0-11.081 4.85-11.081 11.085v22.167z"/><path fill="#00ADEF" d="M-2999.31 13.938c0 6.104 5 11.083 11.085 11.083h11.082c6.147 0 11.085-4.978 11.085-11.083v-22.167c0-6.236-4.938-11.085-11.085-11.085h-11.082c-6.084 0-11.085 4.85-11.085 11.085v22.167z"/><path fill="#00ADEF" d="M-2910.643 13.938c0 6.104 5.001 11.083 11.083 11.083h11.085c6.146 0 11.086-4.978 11.086-11.083v-22.167c0-6.236-4.938-11.085-11.086-11.085h-11.085c-6.081 0-11.083 4.85-11.083 11.085v22.167z"/><path fill="#00ADEF" d="M-2821.974 13.938c0 6.104 5 11.083 11.082 11.083h11.085c6.147 0 11.082-4.978 11.082-11.083v-22.167c0-6.236-4.935-11.085-11.082-11.085h-11.085c-6.081 0-11.082 4.85-11.082 11.085v22.167z"/><path fill="#00ADEF" d="M-2733.306 13.938c0 6.104 4.998 11.083 11.082 11.083h11.083c6.147 0 11.084-4.978 11.084-11.083v-22.167c0-6.236-4.937-11.085-11.084-11.085h-11.083c-6.084 0-11.082 4.85-11.082 11.085v22.167z"/><path fill="#00ADEF" d="M-2644.642 13.938c0 6.104 5.002 11.083 11.086 11.083h11.082c6.146 0 11.081-4.978 11.081-11.083v-22.167c0-6.236-4.935-11.085-11.081-11.085h-11.082c-6.084 0-11.086 4.85-11.086 11.085v22.167z"/><path fill="#00ADEF" d="M-2555.973 13.938c0 6.104 5 11.083 11.082 11.083h11.085c6.147 0 11.082-4.978 11.082-11.083v-22.167c0-6.236-4.935-11.085-11.082-11.085h-11.085c-6.082 0-11.082 4.85-11.082 11.085v22.167z"/><path fill="#00ADEF" d="M-2467.309 13.938c0 6.104 5.005 11.083 11.086 11.083h11.084c6.146 0 11.083-4.978 11.083-11.083v-22.167c0-6.236-4.938-11.085-11.083-11.085h-11.084c-6.082 0-11.086 4.85-11.086 11.085v22.167z"/><path fill="#00ADEF" d="M-2378.64 13.938c0 6.104 5 11.083 11.084 11.083h11.082c6.146 0 11.085-4.978 11.085-11.083v-22.167c0-6.236-4.938-11.085-11.085-11.085h-11.082c-6.084 0-11.084 4.85-11.084 11.085v22.167z"/><path fill="#00ADEF" d="M-2289.973 13.938c0 6.104 5.001 11.083 11.083 11.083h11.084c6.148 0 11.083-4.978 11.083-11.083v-22.167c0-6.236-4.935-11.085-11.083-11.085h-11.084c-6.081 0-11.083 4.85-11.083 11.085v22.167z"/><path fill="#00ADEF" d="M-2201.304 13.938c0 6.104 4.998 11.083 11.082 11.083h11.081c6.151 0 11.086-4.978 11.086-11.083v-22.167c0-6.236-4.935-11.085-11.086-11.085h-11.081c-6.084 0-11.082 4.85-11.082 11.085v22.167z"/><path fill="#00ADEF" d="M-2112.64 13.938c0 6.104 5.001 11.083 11.085 11.083h11.083c6.147 0 11.086-4.978 11.086-11.083v-22.167c0-6.236-4.938-11.085-11.086-11.085h-11.083c-6.084 0-11.085 4.85-11.085 11.085v22.167z"/><path fill="#00ADEF" d="M-2023.971 13.938c0 6.104 5 11.083 11.084 11.083h11.082c6.146 0 11.082-4.978 11.082-11.083v-22.167c0-6.236-4.936-11.085-11.082-11.085h-11.082c-6.084 0-11.084 4.85-11.084 11.085v22.167z"/><path fill="#00ADEF" d="M-1935.303 13.938c0 6.104 5.001 11.083 11.082 11.083h11.084c6.145 0 11.082-4.978 11.082-11.083v-22.167c0-6.236-4.938-11.085-11.082-11.085h-11.084c-6.081 0-11.082 4.85-11.082 11.085v22.167z"/><path fill="#00ADEF" d="M-1846.639 13.938c0 6.104 5.002 11.083 11.085 11.083h11.082c6.147 0 11.085-4.978 11.085-11.083v-22.167c0-6.236-4.938-11.085-11.085-11.085h-11.082c-6.083 0-11.085 4.85-11.085 11.085v22.167z"/><path fill="#00ADEF" d="M-1757.97 13.938c0 6.104 5.001 11.083 11.081 11.083h11.086c6.147 0 11.086-4.978 11.086-11.083v-22.167c0-6.236-4.938-11.085-11.086-11.085h-11.086c-6.08 0-11.081 4.85-11.081 11.085v22.167z"/><path fill="#00ADEF" d="M-1669.302 13.938c0 6.104 4.999 11.083 11.081 11.083h11.086c6.146 0 11.082-4.978 11.082-11.083v-22.167c0-6.236-4.936-11.085-11.082-11.085h-11.086c-6.082 0-11.081 4.85-11.081 11.085v22.167z"/><path fill="#00ADEF" d="M-1580.635 13.938c0 6.104 4.997 11.083 11.083 11.083h11.082c6.146 0 11.085-4.978 11.085-11.083v-22.167c0-6.236-4.938-11.085-11.085-11.085h-11.082c-6.085 0-11.083 4.85-11.083 11.085v22.167z"/><path fill="#00ADEF" d="M-1491.969 13.938c0 6.104 5.001 11.083 11.084 11.083h11.082c6.147 0 11.083-4.978 11.083-11.083v-22.167c0-6.236-4.936-11.085-11.083-11.085h-11.082c-6.083 0-11.084 4.85-11.084 11.085v22.167z"/><path fill="#00ADEF" d="M-1403.302 13.938c0 6.104 5.002 11.083 11.082 11.083h11.084c6.149 0 11.083-4.978 11.083-11.083v-22.167c0-6.236-4.932-11.085-11.083-11.085h-11.084c-6.08 0-11.082 4.85-11.082 11.085v22.167z"/><path fill="#00ADEF" d="M-1314.638 13.938c0 6.104 5.005 11.083 11.086 11.083h11.086c6.145 0 11.082-4.978 11.082-11.083v-22.167c0-6.236-4.938-11.085-11.082-11.085h-11.086c-6.081 0-11.086 4.85-11.086 11.085v22.167z"/><path fill="#FFFEF0" d="M-2767.726 435.105c58.167.682 139.71 11.086 139.71 11.086s-81.543 10.26-139.71 11.072c-58.166.691-106.451-11.072-106.451-11.072s48.286-11.896 106.451-11.086z"/><path fill="#FFFEF0" d="M-4442.012 32.154c33.618.486 80.789 6.406 80.789 6.406s-47.171 5.92-80.789 6.396c-33.574.476-61.564-6.396-61.564-6.396s27.989-6.895 61.564-6.406z"/><polygon fill="#FFFEF0" points="-842.728,-37.204 -816.231,15.334 -826.155,20.335 -852.652,-32.204"/><polygon fill="#FFFEF0" points="-884.948,-37.626 -878.217,8.7 -889.216,10.299 -895.937,-36.023"/><path fill="#E4E2D6" d="M-1061.754 57.588c3.063 0 5.543 2.478 5.543 5.541 0 3.065-2.479 5.544-5.543 5.544-3.062 0-5.542-2.479-5.542-5.544 0-3.063 2.48-5.541 5.542-5.541z"/><path fill="#E4E2D6" d="M-3465.818 57.588c3.062 0 5.541 2.478 5.541 5.541 0 3.065-2.479 5.544-5.541 5.544-3.062 0-5.541-2.479-5.541-5.544 0-3.063 2.478-5.541 5.541-5.541z"/></g></svg>