<svg xmlns="http://www.w3.org/2000/svg" width="1024" height="768" viewBox="0 0 1024 768"><rect x="-5882.951" y="-5137.504" fill="#F5ECD9" width="12784.607" height="11218.004" id="bg5"/><rect x="-7653.467" y="-7098.016" fill="#2BACB5" stroke="#000" stroke-miterlimit="10" width="15687.934" height="14889.029" id="sky"/><g id="mountains"><path fill="#D4E5F6" d="M-792.243 1119.833"/><polygon fill="#14757B" points="-209.3,510.472 -37.804,689.235 -193.184,705.394"/><polygon fill="#ACE8EA" points="-402.598,667.509 -345.107,604.72 -321.267,642.229 -398.216,859.793"/><path fill="#A7C6E8" d="M-927.366 1503.302"/><path fill="#A7C6E8" d="M-1577.241 1702.573"/><path fill="#C1DDF3" d="M-1577.241 1702.573"/><path fill="#5984C3" d="M-832.03 1389.982"/><path fill="#A7C6E8" d="M-588.439 1107.608"/><path fill="#0D72B9" d="M-854.126 1095.198"/><polygon fill="#ACE8EA" points="-854.126,1095.198 -735.19,578.242 -588.439,1107.608"/><polygon fill="#F5ECD9" points="-735.19,578.242 -649.129,529.291 -588.439,1107.608"/><polygon fill="#fff" points="-646.729,553.362 -649.129,529.291 -566.951,373.859 -471.992,709.22"/><polygon fill="#229098" points="-588.439,1107.608 -471.992,709.22 -626.096,552.59 -646.729,553.362"/><polygon fill="#F5ECD9" points="-345.107,1147.357 -588.439,1107.608 -471.992,709.22 -402.598,667.509"/><polygon fill="#C1E8E7" points="-566.951,373.859 -402.598,667.509 -471.992,709.22"/><path fill="#5984C3" d="M-854.126 1095.198"/><polygon fill="#fff" points="-345.107,604.72 -209.3,510.472 -180.034,864.441"/><polygon fill="#14757B" points="-398.216,859.793 -330.423,1226.866 -180.034,864.441 -321.267,642.229"/><polygon fill="#ACE8EA" points="-357.747,1078.915 -330.423,1226.866 -398.216,859.793 -588.439,1107.608"/><polygon fill="#229098" points="-209.3,510.472 -193.184,705.394 -180.034,864.441"/><polygon fill="#14757B" points="-191.831,1193.399 -180.034,864.441 -330.423,1226.866"/><polygon fill="#229098" points="71.511,1204.285 -191.831,1193.399 -180.034,864.441"/><polygon fill="#ACE8EA" points="71.511,1204.285 -37.804,689.235 -180.034,864.441"/><polygon fill="#F5ECD9" points="71.511,1204.285 227.962,1204.132 -37.804,689.235"/><polygon fill="#14757B" points="-37.804,689.235 171.052,897.846 227.962,1204.132"/><polygon fill="#63D3D6" points="227.962,1204.132 426.55,1189.605 171.052,897.846"/><polygon fill="#ACE8EA" points="-37.804,689.235 -116.212,415.166 88.257,723.859"/><polygon fill="#63D3D6" points="171.052,897.846 88.257,723.859 -37.804,689.235"/><polygon fill="#fff" points="-37.804,689.235 -116.212,415.166 -209.3,510.472"/><polygon fill="#229098" points="-402.598,667.509 -345.107,604.72 -566.951,373.859"/><polygon fill="#63D3D6" points="426.55,1189.605 490.66,1138.932 273.831,934.037"/><polygon fill="#ACE8EA" points="490.66,1138.932 701.151,1101.004 454.367,929.785 273.831,934.037"/><polygon fill="#C1E8E7" points="255.411,944.84 148.075,795.87 148.075,691.64 250.054,605.882 454.367,929.785"/><polygon fill="#1C8389" points="701.151,1101.004 250.054,605.882 454.367,929.785"/><polygon fill="#fff" points="168.141,820.025 255.411,944.84 250.054,605.882 88.257,723.859"/><polygon fill="#63D3D6" points="488.188,867.465 599.408,883.821 761.608,1042.641 701.151,1101.004"/><polygon fill="#C1E8E7" points="454.367,929.785 490.66,1138.932 255.411,944.84"/><polygon fill="#C1E8E7" points="599.408,883.821 701.151,1101.004 761.608,1042.641"/></g><g id="clouds"><path fill="#F5ECD9" d="M188.406 612.645c0-10.18-8.252-18.432-18.432-18.432s-18.432 8.252-18.432 18.432h36.864z"/><path fill="#F5ECD9" d="M273.68 612.645c0-10.18-8.252-18.432-18.432-18.432-10.183 0-18.435 8.252-18.435 18.432h36.867z"/><path fill="#F5ECD9" d="M231.043 612.645c0-15.688-12.729-28.424-28.426-28.424s-28.427 12.729-28.427 28.424h56.853z"/><g fill="#F5ECD9"><path d="M253.926 342.688c0-4.557-3.693-8.25-8.25-8.25s-8.25 3.693-8.25 8.25h16.5zM279.373 342.688c0-3.513-2.851-6.361-6.361-6.361s-6.361 2.849-6.361 6.361h12.722zM273.012 342.688c0-7.026-5.697-12.723-12.725-12.723-7.025 0-12.726 5.696-12.726 12.723h25.451z"/></g><g fill="#F5ECD9"><path d="M460.604 534.379c0-6.624 5.369-11.992 11.993-11.992 6.622 0 11.991 5.368 11.991 11.992h-23.984zM376.655 534.379c0-9.936 8.057-17.989 17.979-17.989 9.938 0 17.985 8.062 17.985 17.989h-35.964zM400.641 534.379c0-19.871 16.104-35.979 35.979-35.979s35.979 16.104 35.979 35.979h-71.958z"/></g><g fill="#F5ECD9"><path d="M482.551 554.23c0-5.273 4.272-9.56 9.549-9.56 5.271 0 9.557 4.273 9.557 9.56h-19.106zM497.275 554.23c0-4.064 3.297-7.361 7.354-7.361 4.063 0 7.36 3.297 7.36 7.361h-14.714z"/></g><g fill="#F5ECD9"><path d="M803.939 380.535c0-19.677-15.953-35.632-35.641-35.632-19.679 0-35.627 15.955-35.627 35.632h71.268zM830.493 380.535c0-14.669-11.889-26.558-26.557-26.558-14.678 0-26.562 11.889-26.562 26.558h53.119zM744.854 380.535c0-8.801-7.137-15.936-15.938-15.936-8.8 0-15.937 7.135-15.937 15.936h31.875zM418.438 513.637c0-18.051-14.633-32.684-32.684-32.684-18.054 0-32.687 14.633-32.687 32.684h65.371zM377.432 513.637c0-13.455-10.896-24.354-24.354-24.354-13.45 0-24.356 10.896-24.356 24.354h48.71zM437.926 513.637c0-10.764-8.729-19.479-19.488-19.479-10.764 0-19.479 8.725-19.479 19.479h38.967zM338.452 513.637c0-8.062-6.543-14.617-14.612-14.617-8.072 0-14.617 6.558-14.617 14.617h29.229zM366.605 442.211"/><path d="M346.316 370.211"/><path d="M667.055 556.801c0-8.953-7.258-16.211-16.211-16.211s-16.211 7.258-16.211 16.211h32.422zM717.055 556.801c0-6.896-5.596-12.5-12.5-12.5-6.896 0-12.5 5.604-12.5 12.5h25zM704.555 556.801c0-13.807-11.188-25-25-25-13.81 0-25 11.193-25 25h50zM304.781 534.908c0-7.674-6.229-13.896-13.896-13.896s-13.895 6.229-13.895 13.896h27.791zM315.139 534.908c0-5.721-4.637-10.357-10.354-10.357s-10.354 4.646-10.354 10.357h20.708zM281.736 534.908c0-3.438-2.78-6.215-6.215-6.215-3.432 0-6.215 2.771-6.215 6.215h12.43zM362.755 376.418c0-8.264-6.697-14.961-14.961-14.961-8.268 0-14.959 6.697-14.959 14.961h29.92zM467.479 376.418c0-12.395-10.047-22.441-22.438-22.441-12.394 0-22.44 10.047-22.44 22.441h44.878zM437.558 376.418c0-24.789-20.094-44.883-44.881-44.883s-44.886 20.094-44.886 44.883h89.767zM511.904 600.949c0-5.273-4.271-9.547-9.547-9.547-5.271 0-9.557 4.271-9.557 9.547h19.104zM497.182 600.949c0-4.064-3.297-7.361-7.354-7.361-4.062 0-7.358 3.297-7.358 7.361h14.712zM618.62 107.473c0-5.273-4.272-9.547-9.549-9.547-5.271 0-9.547 4.273-9.547 9.547h19.096zM603.898 107.473c0-4.064-3.307-7.361-7.361-7.361-4.063 0-7.36 3.297-7.36 7.361h14.721zM856.65 47.383c0-4.557-3.692-8.25-8.25-8.25-4.562 0-8.25 3.693-8.25 8.25h16.5zM882.098 47.383c0-3.513-2.848-6.361-6.354-6.361-3.521 0-6.358 2.849-6.358 6.361h12.712zM875.736 47.383c0-7.026-5.697-12.723-12.729-12.723-7.021 0-12.726 5.696-12.726 12.723h25.455zM66 395.904c0-5.273 4.272-9.547 9.549-9.547 5.271 0 9.547 4.271 9.547 9.547h-19.096zM80.725 395.904c0-4.064 3.297-7.361 7.361-7.361 4.063 0 7.363 3.297 7.363 7.361h-14.724z"/></g><path fill="#F5ECD9" d="M64.212 540.55h-8v-1h8v1zm-16 0h-8v-1h8v1zm-16 0h-8v-1h8v1zm-16 0h-8v-1h8v1zm-16 0h-8v-1h8v1zm-16 0h-8v-1h8v1zm-16 0h-8v-1h8v1zm-16 0h-8v-1h8v1zm-16 0h-8v-1h8v1zm-16 0h-8v-1h8v1zm-16 0h-8v-1h8v1zm-16 0h-5.417v-1h5.417v1z"/><path fill="#F5ECD9" d="M1151.275 93.095h-8v-1h8v1zm-16 0h-8v-1h8v1zm-16 0h-8v-1h8v1zm-16 0h-8v-1h8v1zm-16 0h-8v-1h8v1zm-16 0h-8v-1h8v1zm-16 0h-8v-1h8v1z"/><path fill="#F5ECD9" d="M721.096 317.734h-8v-1h8v1zm-16 0h-8v-1h8v1zm-16 0h-8v-1h8v1zm-16 0h-8v-1h8v1zm-16 0h-8v-1h8v1zm-16 0h-8v-1h8v1zm-16 0h-8v-1h8v1zm-16 0h-8v-1h8v1zm-16 0h-8v-1h8v1zm-16 0h-8v-1h8v1z"/></g><g id="Layer_1_1_"><g id="plane"><path fill="#FFFEF0" d="M1113.342 663.949c2.248.031 5.397.428 5.397.428s-3.149.396-5.397.429c-2.246.031-4.113-.429-4.113-.429s1.867-.46 4.113-.428z"/><path fill="#C8C6BC" d="M1109.227 664.382l21.562 15.711s1.237.325 3.155.729l-22.969-16.438-1.748-.002z"/><path fill="#FFFEF0" d="M1133.947 680.816c3.021.625 7.729 1.432 11.938 1.432 5.484 0 17.938-1.835 17.938-1.835l-45.25-16.03h-7.595l22.969 16.433z"/><path opacity=".4" fill="#BCBAD0" enable-background="new" d="M1109.227 664.377s1.868-.46 4.114-.428c2.248.031 5.397.428 5.397.428l-.137.018 45.217 16.021s-12.438 1.835-17.931 1.835c-4.226 0-8.933-.807-11.944-1.432-1.918-.397-3.156-.729-3.156-.729l-21.562-15.711h.021l-.019-.002z"/><path fill="#C8C6BC" d="M1265.202 676.9l35.201 25.646s2.021.53 5.158 1.183l-37.5-26.819-2.859-.01z"/><path fill="#FFFEF0" d="M1305.564 703.73c4.934 1.021 12.609 2.337 19.502 2.337 8.959 0 29.271-2.995 29.271-2.995l-73.877-26.172h-12.396l37.5 26.83z"/><polygon opacity=".4" fill="#BCBAD0" enable-background="new" points="1318.875,690.482 1277.659,685.979 1283.682,690.482"/><path id="carlinga" fill="#FFFEF0" d="M1142.924 660.316l13.278 18.166 48 12h176s39.5-2.166 51.734 6l4.334 4s12.021 4.545 13.649 9.002c.123.334.19.668.188.998-.062 4.859-12.668 16-69.918 16h-144c-10.688 0-25.562-3.021-41.854-7.229-38.156-9.871-81.896-26.356-81.896-26.356v-8.57l8.647-2.104-5.729-21.896 27.567-.011z"/><polygon fill="#FFFEF0" points="1107.561,630.482 1121.111,630.482 1134.395,648.65 1112.318,648.65"/><polygon fill="#FFFEF0" points="1119.318,660.316 1115.373,660.316 1112.318,648.65 1115.702,648.65"/><polygon fill="#8CC152" points="1134.395,648.65 1142.924,660.316 1119.318,660.316 1115.702,648.65"/><polygon fill="#C8C6BC" points="1150.311,687.645 1136.586,701.598 1123.834,697.091"/><path fill="#C8C6BC" d="M1098.982 702.715l20.271-14.771s1.168-.312 2.971-.688l-21.594 15.448-1.648.011z"/><path fill="#FFFEF0" d="M1122.223 687.266c2.853-.589 7.271-1.346 11.229-1.346 5.158 0 16.857 1.725 16.857 1.725l-38.533 15.07h-11.146l21.593-15.449z"/><rect x="1117.617" y="629.399" transform="matrix(-.955 .297 -.297 -.955 2380.293 946.936)" fill="#8CC152" width=".998" height="50.259"/><path fill="none" stroke="#4E4B80" stroke-width="10" stroke-miterlimit="10" d="M1225.702 716.482"/><path fill="#DA4453" d="M1225.202 708.816h161l5 5h-166c-24.692 0-42.608-.604-55.266-1.331-7.486-2.277-14.781-4.625-21.525-6.87 8.364 1.063 30.9 3.201 76.791 3.201z"/><path fill="#DA4453" d="M1225.202 715.537h133.168l-2.5 2.5h-130.668c-15.123 0-27.69-.229-38.062-.567-3.434-.938-6.885-1.921-10.312-2.928 12.014.568 27.865.995 48.374.995z"/><path fill="#E4E2D6" d="M1449.934 709.484c.123.334.193.668.188.998-.062 4.859-12.668 16-69.918 16h-144c-27 0-87.791-20.867-87.791-20.867s28.406 12.142 114.791 12.142c179.157 0 186.4-8.195 186.73-8.273z"/><path fill="#EDEDE6" d="M1344.284 730.434c-23.959 3.375-34.614-.269-41.159-2v-12c6.545-1.729 17.2-5.375 41.159-2v16z"/><polygon fill="#C8C6BC" points="1346.859,716.434 1346.859,718.434 1346.859,728.434 1344.284,730.434 1344.284,718.434 1344.284,714.434"/><polygon fill="#EDEDE6" points="1303.125,727.517 1300.551,726.881 1300.551,717.985 1303.125,717.351"/><polygon fill="#EDEDE6" points="1300.551,725.611 1292.834,723.704 1292.834,721.163 1300.551,719.257"/><path fill="#C8C6BC" d="M1302.493 716.434c5.714-1.511 14.558-4.476 32.623-2.967l-17.94 17.944c-6.826-.688-11.308-2.084-14.683-2.979v-11.998z"/><path fill="#C8C6BC" d="M1245.986 739.482l35.201-25.648s2.021-.531 5.147-1.18l-37.5 26.829-2.848-.001z"/><path fill="#FFFEF0" d="M1286.346 712.654c4.938-1.021 12.619-2.338 19.5-2.338 8.959 0 29.271 2.983 29.271 2.983l-66.914 26.183h-19.356l37.499-26.828z"/><path fill="#3BAFDA" d="M1431.939 696.482h-11.734s-.848 4 16.068 4l-4.334-4z"/><path fill="#54A2BD" d="M1202.702 700.482c0 .551.451 1 1 1h1c.554 0 1-.449 1-1v-2c0-.562-.446-1-1-1h-1c-.549 0-1 .438-1 1v2z"/><path fill="#54A2BD" d="M1210.702 700.482c0 .551.451 1 1 1h1c.554 0 1-.449 1-1v-2c0-.562-.446-1-1-1h-1c-.549 0-1 .438-1 1v2z"/><path fill="#54A2BD" d="M1218.702 700.482c0 .551.451 1 1 1h1c.554 0 1-.449 1-1v-2c0-.562-.446-1-1-1h-1c-.549 0-1 .438-1 1v2z"/><path fill="#54A2BD" d="M1226.702 700.482c0 .551.451 1 1 1h1c.554 0 1-.449 1-1v-2c0-.562-.446-1-1-1h-1c-.549 0-1 .438-1 1v2z"/><path fill="#54A2BD" d="M1234.702 700.482c0 .551.451 1 1 1h1c.554 0 1-.449 1-1v-2c0-.562-.446-1-1-1h-1c-.549 0-1 .438-1 1v2z"/><path fill="#54A2BD" d="M1242.702 700.482c0 .551.451 1 1 1h1c.554 0 1-.449 1-1v-2c0-.562-.446-1-1-1h-1c-.549 0-1 .438-1 1v2z"/><path fill="#54A2BD" d="M1250.702 700.482c0 .551.451 1 1 1h1c.554 0 1-.449 1-1v-2c0-.562-.446-1-1-1h-1c-.549 0-1 .438-1 1v2z"/><path fill="#54A2BD" d="M1258.702 700.482c0 .551.451 1 1 1h1c.554 0 1-.449 1-1v-2c0-.562-.446-1-1-1h-1c-.549 0-1 .438-1 1v2z"/><path fill="#54A2BD" d="M1266.702 700.482c0 .551.451 1 1 1h1c.554 0 1-.449 1-1v-2c0-.562-.446-1-1-1h-1c-.549 0-1 .438-1 1v2z"/><path fill="#54A2BD" d="M1274.702 700.482c0 .551.451 1 1 1h1c.554 0 1-.449 1-1v-2c0-.562-.446-1-1-1h-1c-.549 0-1 .438-1 1v2z"/><path fill="#54A2BD" d="M1282.702 700.482c0 .551.451 1 1 1h1c.554 0 1-.449 1-1v-2c0-.562-.446-1-1-1h-1c-.549 0-1 .438-1 1v2z"/><path fill="#54A2BD" d="M1290.702 700.482c0 .551.451 1 1 1h1c.554 0 1-.449 1-1v-2c0-.562-.446-1-1-1h-1c-.549 0-1 .438-1 1v2z"/><path fill="#54A2BD" d="M1298.702 700.482c0 .551.451 1 1 1h1c.554 0 1-.449 1-1v-2c0-.562-.446-1-1-1h-1c-.549 0-1 .438-1 1v2z"/><path fill="#54A2BD" d="M1306.702 700.482c0 .551.451 1 1 1h1c.554 0 1-.449 1-1v-2c0-.562-.446-1-1-1h-1c-.549 0-1 .438-1 1v2z"/><path fill="#54A2BD" d="M1314.702 700.482c0 .551.451 1 1 1h1c.554 0 1-.449 1-1v-2c0-.562-.446-1-1-1h-1c-.549 0-1 .438-1 1v2z"/><path fill="#54A2BD" d="M1322.702 700.482c0 .551.451 1 1 1h1c.554 0 1-.449 1-1v-2c0-.562-.446-1-1-1h-1c-.549 0-1 .438-1 1v2z"/><path fill="#54A2BD" d="M1330.702 700.482c0 .551.451 1 1 1h1c.554 0 1-.449 1-1v-2c0-.562-.446-1-1-1h-1c-.549 0-1 .438-1 1v2z"/><path fill="#54A2BD" d="M1338.702 700.482c0 .551.451 1 1 1h1c.554 0 1-.449 1-1v-2c0-.562-.446-1-1-1h-1c-.549 0-1 .438-1 1v2z"/><path fill="#54A2BD" d="M1346.702 700.482c0 .551.451 1 1 1h1c.554 0 1-.449 1-1v-2c0-.562-.446-1-1-1h-1c-.549 0-1 .438-1 1v2z"/><path fill="#54A2BD" d="M1354.702 700.482c0 .551.451 1 1 1h1c.554 0 1-.449 1-1v-2c0-.562-.446-1-1-1h-1c-.549 0-1 .438-1 1v2z"/><path fill="#54A2BD" d="M1362.702 700.482c0 .551.451 1 1 1h1c.554 0 1-.449 1-1v-2c0-.562-.446-1-1-1h-1c-.549 0-1 .438-1 1v2z"/><path fill="#54A2BD" d="M1370.702 700.482c0 .551.451 1 1 1h1c.554 0 1-.449 1-1v-2c0-.562-.446-1-1-1h-1c-.549 0-1 .438-1 1v2z"/><path fill="#54A2BD" d="M1378.702 700.482c0 .551.451 1 1 1h1c.554 0 1-.449 1-1v-2c0-.562-.446-1-1-1h-1c-.549 0-1 .438-1 1v2z"/><path fill="#54A2BD" d="M1386.702 700.482c0 .551.451 1 1 1h1c.554 0 1-.449 1-1v-2c0-.562-.446-1-1-1h-1c-.549 0-1 .438-1 1v2z"/><path fill="#FFFEF0" d="M1255.596 738.482c5.248.062 12.606 1 12.606 1s-7.358.926-12.606.999c-5.248.063-9.604-.999-9.604-.999s4.356-1.073 9.604-1z"/><path fill="#FFFEF0" d="M1104.534 702.126c3.033.044 7.289.578 7.289.578s-4.256.534-7.289.577c-3.03.043-5.555-.577-5.555-.577s2.525-.622 5.555-.578z"/><rect x="1427.391" y="697.93" transform="matrix(.45 .893 -.893 .45 1409.708 -892.927)" fill="#EDE3EB" width="5.309" height="1.003"/><rect x="1423.237" y="697.525" transform="matrix(.144 .99 -.99 .144 1911.079 -812.909)" fill="#EDE3EB" width="4.223" height="1.002"/><circle fill="#E4E2D6" cx="1409.518" cy="704.921" r=".5"/><circle fill="#E4E2D6" cx="1192.611" cy="704.921" r=".5"/></g><g id="torre"><rect x="-589.07" y="481.503" fill="#FFFEF0" width="362.505" height="2900.03"/><rect x="-951.575" y="481.503" fill="#FFFEF0" width="362.504" height="2900.03"/><rect x="-864.493" y="481.503" fill="#E4E2D6" width="543.755" height="2900.03"/><polygon opacity=".4" fill="#C8C6BC" enable-background="new" points="-770.321,662.756 -407.816,662.756 -226.565,617.441 -226.565,640.099 -407.816,685.413 -770.321,685.413 -951.575,640.099 -951.575,617.441"/><polygon opacity=".4" fill="#C8C6BC" enable-background="new" points="-223.021,617.441 -952.573,1346.993 -952.573,566.343 -226.565,566.343"/><rect x="-770.321" y="300.254" fill="#FFFEF0" width="362.505" height="362.502"/><rect x="-600.396" y="-606.009" fill="#DA4453" width="22.655" height="453.127"/><rect x="-770.321" y="-84.91" fill="#E4E2D6" width="362.505" height="45.314"/><polygon fill="#FFFEF0" points="-1132.825,51.028 -770.321,-39.596 -770.321,-84.91 -1132.825,5.714 -1178.138,17.045 -1178.138,62.354"/><polygon fill="#FFFEF0" points="-45.312,51.028 0,62.354 0,17.045 -45.312,5.714 -407.816,-84.91 -407.816,-39.596"/><polygon fill="#E4E2D6" points="-407.816,662.756 -45.312,572.126 -45.312,209.625 -407.816,300.254"/><polygon fill="#E4E2D6" points="-1132.825,572.126 -770.321,662.756 -770.321,300.254 -1132.825,209.625"/><polygon fill="#E4E2D6" points="-407.816,300.254 -45.312,209.625 -45.312,119 -407.816,209.625"/><rect x="-770.321" y="209.625" fill="#FFFEF0" width="362.505" height="90.629"/><polygon fill="#E4E2D6" points="-1132.825,209.625 -770.321,300.254 -770.321,209.625 -1132.825,119"/><polygon fill="#FFFEF0" points="-770.321,-39.596 -1132.825,51.028 -1132.825,96.343 -770.321,5.714"/><rect x="-770.321" y="-39.596" fill="#FFFEF0" width="362.505" height="45.31"/><polygon fill="#FFFEF0" points="-45.312,51.028 -407.816,-39.596 -407.816,5.714 -45.312,96.343"/><polygon fill="#FFFEF0" points="-1132.825,96.343 -1178.138,107.669 -1178.138,62.354 -1132.825,51.028"/><polygon fill="#E4E2D6" points="0,62.354 -1178.138,62.354 -770.321,164.311 -407.816,164.311"/><polygon fill="#FFFEF0" points="-1178.138,62.354 0,62.354 -407.816,-39.596 -770.321,-39.596"/><polygon fill="#E4E2D6" points="-135.939,62.354 -407.816,119 -441.803,-243.504"/><polygon fill="#FFFEF0" points="-441.803,-243.504 -407.816,119 -770.321,119 -736.335,-243.504"/><polygon fill="#E4E2D6" points="-736.335,-243.504 -770.321,119 -1042.198,62.354"/><rect x="-770.321" y="119" fill="#DA4453" width="362.505" height="45.311"/><polygon fill="#BA3548" points="-1132.825,28.376 -770.321,119 -770.321,164.311 -770.321,209.625 -1132.825,119 -1178.138,107.669 -1178.138,62.354 -1178.138,17.045"/><polygon fill="#ED5565" points="-45.312,28.376 0,17.045 0,62.354 0,107.669 -45.312,119 -407.816,209.625 -407.816,164.311 -407.816,119"/><rect x="-770.321" y="164.311" fill="#DA4453" width="362.505" height="45.314"/><polygon opacity=".4" fill="#C8C6BC" enable-background="new" points="-407.816,209.625 -45.312,119 -45.312,164.311 -407.816,254.939 -770.321,254.939 -1132.825,164.311 -1132.825,119 -770.321,209.625"/><path fill="#FFFEF0" d="M-611.726-606.009c0 12.512 10.146 22.655 22.655 22.655 12.514 0 22.657-10.144 22.657-22.655 0-12.514-10.146-22.657-22.657-22.657-12.508 0-22.655 10.144-22.655 22.657z"/></g></g><g id="contacts"><rect x="-2766.482" y="342.5" fill="#E84D5B" width="6910.617" height="445.5"/><g id="email" fill="#F5ECD9"><text transform="translate(66 534.232)" font-weight="100" font-size="18">albinotonnina@gmail.com</text><path d="M47.688 535.041v-7.457c-.204.233-.431.447-.671.643-1.734 1.332-3.115 2.429-4.136 3.282-.33.277-.599.496-.804.647-.207.154-.487.31-.84.471-.354.159-.684.237-.993.237h-.021c-.311 0-.645-.078-.993-.237-.354-.161-.633-.314-.839-.471-.206-.151-.474-.372-.804-.647-1.022-.855-2.4-1.948-4.136-3.282-.24-.194-.461-.407-.672-.643v7.457c0 .084.031.157.094.219.062.063.135.094.22.094h14.297c.084 0 .157-.034.219-.094.063-.062.094-.135.094-.219h-.015zm0-10.205v-.238l-.006-.126-.03-.12-.053-.089c-.02-.061-.048-.086-.088-.072l-.136-.022h-14.296c-.083 0-.157.031-.219.092-.062.062-.092.136-.092.22 0 1.09.477 2.008 1.428 2.757 1.25.983 2.545 2.011 3.89 3.076l.34.285.446.363c.109.085.252.187.435.305.176.119.341.208.488.269.146.059.289.088.419.088h.018c.129 0 .271-.029.418-.088.146-.062.31-.146.488-.269l.436-.305.445-.363.337-.285c1.349-1.068 2.647-2.097 3.894-3.076.35-.278.673-.652.976-1.121.311-.474.462-.9.462-1.281zm1.242-.357v10.562c0 .428-.152.794-.459 1.095-.303.304-.671.459-1.094.459h-14.296c-.428 0-.792-.15-1.095-.459-.303-.304-.459-.672-.459-1.095v-10.562c0-.43.152-.795.459-1.098.304-.303.672-.456 1.095-.456h14.296c.429 0 .793.15 1.094.456.307.303.459.668.459 1.098z"/></g><g id="linkedin" fill="#F5ECD9"><text transform="translate(64.823 571.17)" font-weight="100" font-size="18">LinkedIn profile</text><path d="M34.418 571.388h2.808v-8.438h-2.808v8.438zm2.989-11.037c-.009-.42-.155-.771-.438-1.043-.283-.271-.662-.411-1.131-.411s-.854.14-1.149.411c-.298.272-.441.623-.441 1.043 0 .413.144.761.431 1.039.289.279.667.42 1.124.42h.013c.479 0 .865-.141 1.155-.42.29-.28.435-.626.436-1.039zm7.111 11.037h2.809v-4.836c0-1.248-.298-2.192-.888-2.832-.592-.639-1.376-.962-2.347-.962-1.104 0-1.949.476-2.539 1.423h.021v-1.229h-2.809c.025.536.025 3.348 0 8.438h2.809v-4.721c0-.309.027-.535.085-.681.126-.283.304-.524.552-.724.241-.198.543-.299.895-.299.943 0 1.409.639 1.409 1.913l.003 4.51zm5.689-12.131v11.67c0 .964-.344 1.789-1.027 2.478-.688.687-1.513 1.028-2.477 1.028h-11.671c-.966 0-1.789-.343-2.476-1.028-.688-.688-1.03-1.514-1.03-2.478v-11.67c0-.966.343-1.79 1.03-2.477.687-.688 1.51-1.03 2.476-1.03h11.671c.964 0 1.788.343 2.477 1.03.685.687 1.027 1.511 1.027 2.477z"/></g><g id="l500px" fill="#F5ECD9"><text transform="translate(64.037 681.981)" font-weight="100" font-size="18">Photography</text><path d="M39.423 673.222c.769 0 1.423.271 1.969.813.546.544.815 1.201.815 1.97s-.271 1.424-.815 1.969c-.546.544-1.2.813-1.969.813s-1.422-.271-1.968-.813c-.544-.545-.816-1.2-.816-1.969s.272-1.425.816-1.97c.547-.542 1.203-.813 1.968-.813zm8.546-4.023c.686 0 1.269.242 1.749.729.482.48.728 1.063.728 1.75v8.661c0 .685-.24 1.268-.728 1.75-.48.48-1.063.726-1.749.726h-13.61c-.686 0-1.269-.241-1.75-.726-.481-.483-.727-1.065-.727-1.75v-8.661c0-.687.241-1.27.727-1.75.482-.482 1.064-.729 1.75-.729h2.165l.494-1.312c.119-.315.346-.588.671-.815.325-.229.657-.345 1.001-.345h4.947c.344 0 .678.114 1.001.345.324.229.551.5.673.815l.491 1.312h2.167zm-8.546 11.136c1.19 0 2.212-.423 3.062-1.271s1.271-1.867 1.271-3.062c0-1.19-.423-2.212-1.271-3.062-.85-.849-1.866-1.271-3.062-1.271-1.191 0-2.213.424-3.062 1.271-.85.85-1.271 1.866-1.271 3.062 0 1.191.426 2.214 1.271 3.062.85.849 1.871 1.271 3.062 1.271z"/></g><g id="phone"><path fill="#F5ECD9" d="M45.604 476.917h-11.14c-1.612 0-2.938 1.317-2.938 2.934v22.865c0 1.604 1.32 2.935 2.938 2.935h11.14c1.608 0 2.935-1.32 2.935-2.935v-22.865c-.004-1.614-1.323-2.934-2.935-2.934zm-5.57 27.559c-1.139 0-2.054-.656-2.054-1.464 0-.813.919-1.468 2.054-1.468 1.132 0 2.047.655 2.047 1.468.003.806-.913 1.464-2.047 1.464zm6.156-4.398h-12.312v-19.353h12.312v19.353z"/><text transform="translate(64.43 497.295)" fill="#F5ECD9" font-weight="100" font-size="18">+39 393 4318597</text></g><g id="skype"><path fill="#F5ECD9" d="M44.801 603.992c0-.395-.076-.754-.234-1.08-.15-.327-.344-.595-.567-.81-.233-.213-.517-.404-.867-.577-.344-.18-.671-.309-.974-.402-.304-.093-.647-.183-1.033-.271l-1.226-.283-.519-.124-.413-.137c-.166-.066-.284-.126-.354-.188-.067-.069-.136-.152-.194-.248-.061-.103-.089-.22-.089-.354 0-.604.563-.908 1.696-.908.342 0 .645.047.909.141.266.097.482.207.64.337l.448.399c.144.131.299.247.474.343.172.097.36.144.564.141.371 0 .667-.123.893-.373.224-.253.336-.558.336-.908 0-.432-.221-.823-.661-1.174-.44-.349-1-.617-1.675-.797-.676-.179-1.392-.27-2.15-.271-.535 0-1.054.062-1.556.183-.504.124-.979.307-1.411.555-.438.248-.787.592-1.055 1.03-.262.437-.396.942-.396 1.517 0 .481.074.896.224 1.256.152.357.372.654.661.894.291.234.606.427.949.571.339.146.744.271 1.216.383l1.722.427c.709.177 1.147.316 1.321.427.253.154.377.396.377.707 0 .309-.156.562-.473.761-.317.2-.73.301-1.239.297-.4 0-.761-.062-1.08-.188-.317-.124-.575-.276-.768-.455s-.372-.354-.537-.534c-.166-.181-.344-.327-.538-.456-.199-.123-.409-.188-.641-.188-.396 0-.691.12-.893.354-.201.233-.301.532-.301.886 0 .726.482 1.344 1.444 1.858.957.514 2.105.774 3.431.774.575 0 1.125-.073 1.653-.219.526-.149 1.008-.355 1.445-.631.437-.276.785-.646 1.045-1.104.26-.461.39-.977.39-1.556h.006v-.005zm4.285 2.562c0 1.254-.443 2.324-1.329 3.21-.886.887-1.954 1.328-3.205 1.328-1.023 0-1.943-.315-2.768-.944-.605.124-1.196.187-1.771.187-1.126 0-2.202-.216-3.229-.652-1.027-.437-1.915-1.03-2.658-1.773-.744-.744-1.334-1.631-1.771-2.657-.437-1.026-.654-2.104-.654-3.229 0-.574.067-1.17.189-1.776-.63-.812-.946-1.739-.946-2.763 0-1.251.443-2.319 1.328-3.205.887-.886 1.954-1.33 3.206-1.33 1.026 0 1.943.316 2.768.947.605-.125 1.196-.188 1.771-.188 1.125 0 2.202.218 3.229.654 1.031.436 1.915 1.027 2.658 1.771.744.744 1.335 1.63 1.771 2.658.436 1.029.654 2.106.654 3.23 0 .574-.064 1.166-.188 1.771.631.817.945 1.738.945 2.761z"/><text transform="translate(65.215 608.106)" fill="#F5ECD9" font-weight="100" font-size="18">albino.tonnina</text></g><g id="addressnumidia" fill="#F5ECD9" font-weight="100" font-size="18"><text transform="translate(33.271 438.129)">Albino Tonnina c/o Numidia Srl</text><text transform="translate(33.271 459.728)">Via Giovanni Antonelli 3, 00197 Roma</text></g><g id="contactresume"><path fill="#F5ECD9" d="M45.744 640.588v.867c0 .13-.041.23-.123.312-.082.086-.186.124-.313.124h-9.574c-.127 0-.229-.038-.312-.124-.082-.082-.124-.184-.124-.312v-.867c0-.13.042-.229.124-.314.082-.082.186-.123.312-.123h9.574c.128 0 .23.041.313.123.082.083.123.187.123.314zm0-3.483v.87c0 .127-.041.231-.123.312-.082.082-.186.123-.313.123h-9.574c-.127 0-.229-.041-.312-.123-.082-.081-.124-.187-.124-.312v-.87c0-.127.042-.23.124-.312.082-.081.186-.122.312-.122h9.574c.128 0 .23.041.313.122.082.082.123.186.123.312zm-12.183 8.27h13.923v-10.443h-5.657c-.363 0-.673-.126-.924-.381-.254-.251-.381-.56-.381-.925v-5.656h-6.962l.001 17.405zm8.701-12.184h5.112c-.092-.264-.191-.449-.297-.558l-4.257-4.257c-.108-.108-.293-.211-.558-.299v5.114zm6.961.435v12.183c0 .366-.127.674-.379.929-.254.251-.562.378-.926.378h-14.795c-.363 0-.671-.127-.924-.378-.254-.255-.382-.562-.382-.929v-18.271c0-.366.128-.673.382-.925.253-.254.561-.381.924-.381h8.702c.362 0 .761.091 1.195.271.437.183.78.399 1.033.654l4.244 4.241c.251.254.473.599.652 1.033.183.435.273.832.274 1.195z"/><text transform="translate(65.608 645.044)" fill="#F5ECD9" font-weight="100" font-size="18">View resume</text></g><text transform="translate(26.604 402.719)" fill="#F5ECD9" font-weight="100" font-size="36">To stay connected:</text><g id="rightside"><text transform="translate(610.229 682.813)" fill="#F5ECD9" font-weight="100" font-size="18">copyright 2014 Albino Tonnina</text><text transform="translate(606.604 402.719)" fill="#F5ECD9" font-weight="100" font-size="36">This website:</text><g id="githubsite"><path fill="#F5ECD9" d="M622.635 638.003c-.132.144-.3.129-.501-.081-.22-.188-.256-.343-.104-.475.128-.146.298-.129.503.078.203.185.233.344.102.478zm-1.062-1.539c.152.202.152.36 0 .474-.133.099-.281.041-.429-.177-.148-.216-.148-.379 0-.457.15-.111.294-.056.429.16zm-1.542-1.516c-.084.123-.19.131-.323.047-.169-.088-.229-.19-.177-.301.048-.089.156-.101.324-.048.168.083.229.185.176.302zm.787.858c-.104.122-.237.095-.404-.072-.147-.188-.168-.319-.048-.404.102-.1.236-.075.404.079.148.179.163.313.048.397zm3.255 2.828c-.067.211-.227.259-.479.15-.287-.066-.391-.195-.329-.385.068-.191.229-.248.479-.177.273.09.378.225.329.412zm1.585.126c0 .191-.129.276-.396.276-.291.036-.433-.058-.433-.276 0-.188.135-.274.401-.274.294-.036.428.057.428.274zm1.469-.252c.035.168-.083.293-.354.358-.269.062-.422 0-.453-.207-.038-.209.083-.328.354-.386.263-.028.417.051.453.235zm24.464-24.184v24.234c0 2.006-.719 3.713-2.134 5.139-1.422 1.417-3.136 2.133-5.142 2.133h-5.656c-.27 0-.47-.008-.622-.027-.139-.021-.304-.057-.486-.129-.188-.062-.325-.188-.401-.366-.088-.176-.128-.405-.128-.693v-6.038c0-1.627-.439-2.828-1.317-3.585.967-.097 1.826-.254 2.592-.449.765-.212 1.558-.534 2.375-.981.814-.455 1.497-1.014 2.045-1.673.544-.667.988-1.557 1.333-2.655.345-1.093.517-2.366.517-3.8 0-2.032-.668-3.771-1.998-5.197.625-1.533.552-3.251-.203-5.156-.474-.148-1.153-.061-2.046.275-.896.337-1.666.708-2.326 1.111l-.961.606c-1.569-.438-3.183-.65-4.847-.65s-3.287.213-4.844.65c-.277-.186-.633-.409-1.072-.679-.441-.268-1.15-.596-2.107-.975-.962-.386-1.682-.494-2.174-.342-.736 1.91-.801 3.626-.176 5.158-1.329 1.428-1.994 3.157-1.994 5.198 0 1.43.172 2.689.518 3.788.345 1.1.788 1.985 1.325 2.652.535.677 1.212 1.238 2.029 1.688.808.461 1.605.783 2.374.982.764.199 1.629.352 2.589.448-.671.609-1.088 1.474-1.234 2.604-.361.167-.733.302-1.143.388-.4.082-.886.126-1.44.126-.553 0-1.104-.183-1.653-.548-.553-.359-1.018-.889-1.404-1.576-.316-.544-.726-.979-1.227-1.319-.496-.336-.909-.541-1.245-.614l-.504-.076c-.356 0-.602.045-.732.118-.128.076-.177.177-.125.295.045.118.125.234.222.354.104.119.216.22.327.303l.177.124c.378.171.735.494 1.101.966.361.47.625.9.793 1.284l.257.581c.217.641.589 1.155 1.108 1.559.524.386 1.09.646 1.694.756.604.114 1.188.167 1.753.176.557.017 1.032-.024 1.4-.09l.581-.103c0 .643.004 1.508.011 2.607.015 1.082.019 1.663.019 1.715 0 .372-.098.646-.28.85-.185.192-.372.298-.557.318-.186.033-.471.041-.829.041h-5.66c-2.007 0-3.716-.715-5.138-2.133-1.417-1.422-2.134-3.138-2.134-5.139v-24.238c0-2.006.713-3.715 2.134-5.138 1.417-1.424 3.131-2.134 5.138-2.134h24.235c2.005 0 3.715.71 5.136 2.134 1.422 1.415 2.135 3.132 2.135 5.138l.021.004z"/><text transform="translate(666.055 633.482)" fill="#F5ECD9" font-weight="100" font-size="18">has a public repository on GitHub.</text></g><g fill="#F5ECD9"><path d="M631.97 475.007c0-.384-.203-.734-.533-.925l-8.818-5.076c-.149-.088-.315-.134-.485-.14h-.091c-.168.006-.336.052-.487.14l-8.817 5.076c-.33.188-.533.541-.533.925l.021 13.666c0 .19.098.367.266.46.164.1.367.1.529 0l5.24-3c.332-.197.532-.545.532-.926v-6.385c0-.381.201-.732.531-.922l2.231-1.285c.166-.098.348-.145.535-.145.182 0 .366.047.528.145l2.229 1.285c.332.188.533.541.533.922v6.385c0 .381.205.729.534.926l5.238 3c.164.1.369.1.531 0 .164-.093.266-.27.266-.46l.02-13.666zM679.06 456.221c-.166-.093-.367-.09-.529.006-.164.097-.264.271-.264.459v13.534c0 .134-.07.256-.187.323-.114.065-.26.065-.372 0l-2.209-1.273c-.33-.188-.734-.188-1.064.002l-8.822 5.092c-.33.188-.533.542-.533.921v10.188c0 .38.203.731.533.923l8.822 5.097c.328.188.734.188 1.064 0l8.821-5.097c.33-.189.533-.543.533-.923v-25.39c0-.387-.209-.741-.547-.931l-5.246-2.931zm-.82 25.901c0 .096-.051.184-.135.229l-3.027 1.746c-.082.047-.186.047-.266 0l-3.031-1.746c-.082-.048-.133-.136-.133-.229v-3.497c0-.096.051-.184.133-.23l3.029-1.748c.082-.049.186-.049.268 0l3.027 1.748c.084.049.135.138.135.23v3.497zM710.621 478.533c.326-.19.529-.541.529-.92v-2.471c0-.38-.203-.729-.529-.922l-8.768-5.089c-.33-.191-.736-.191-1.066-.001l-8.817 5.091c-.33.19-.533.542-.533.922v10.185c0 .384.205.734.539.926l8.764 4.994c.324.185.722.187 1.045.006l5.304-2.946c.168-.094.27-.271.271-.462.001-.19-.1-.37-.268-.466l-8.875-5.095c-.166-.097-.269-.271-.269-.461v-3.191c0-.188.103-.367.269-.462l2.762-1.592c.164-.095.367-.095.533 0l2.762 1.592c.166.095.269.271.269.462v2.512c0 .189.102.365.268.461.164.098.369.097.533-.002l5.277-3.071zM648.011 469.078c.328-.189.735-.189 1.063 0l8.82 5.091c.33.189.533.541.533.923v10.189c0 .38-.203.729-.533.923l-8.82 5.095c-.328.189-.735.189-1.063 0l-8.82-5.095c-.33-.191-.531-.543-.531-.923v-10.189c0-.382.201-.731.531-.923l8.82-5.091zM727.75 491.443c-.307 0-.606-.078-.872-.232l-2.777-1.644c-.414-.231-.213-.314-.076-.361.555-.192.666-.236 1.256-.571.062-.034.146-.021.207.017l2.135 1.268c.076.043.187.043.259 0l8.315-4.801c.078-.045.127-.134.127-.228v-9.599c0-.094-.049-.183-.129-.229l-8.312-4.797c-.078-.045-.181-.045-.259 0l-8.312 4.799c-.08.047-.131.138-.131.229v9.599c0 .094.051.182.131.226l2.279 1.313c1.233.619 1.991-.107 1.991-.841v-9.479c0-.135.107-.239.24-.239h1.058c.131 0 .239.104.239.239v9.479c0 1.65-.897 2.596-2.463 2.596-.479 0-.858 0-1.916-.521l-2.182-1.256c-.539-.312-.873-.896-.873-1.52v-9.599c0-.624.334-1.206.873-1.518l8.317-4.808c.525-.297 1.228-.297 1.748 0l8.316 4.808c.537.312.873.894.873 1.518v9.599c0 .624-.336 1.204-.873 1.52l-8.316 4.803c-.262.15-.565.23-.873.23zM730.32 484.83c-3.641 0-4.401-1.671-4.401-3.072 0-.133.106-.239.239-.239h1.074c.121 0 .223.087.24.203.162 1.096.645 1.647 2.848 1.647 1.752 0 2.498-.396 2.498-1.326 0-.536-.211-.935-2.936-1.2-2.275-.226-3.685-.729-3.685-2.549 0-1.68 1.414-2.68 3.787-2.68 2.664 0 3.982.926 4.15 2.907.006.068-.021.137-.064.188-.045.048-.106.077-.176.077h-1.08c-.109 0-.211-.08-.232-.188-.26-1.152-.889-1.521-2.598-1.521-1.914 0-2.137.667-2.137 1.166 0 .604.262.78 2.846 1.122 2.559.34 3.771.816 3.771 2.612.002 1.815-1.509 2.853-4.144 2.853zM741.789 468.99v.246h-.7v1.822h-.283v-1.822h-.695v-.246h1.678zM742.039 468.99h.4l.594 1.75.595-1.75h.397v2.068h-.268v-1.221l.002-.21.004-.315-.592 1.746h-.277l-.598-1.746v.062l.004.231.004.229v1.221h-.268v-2.067l.003.002zM701.193 478.057c.062-.035.144-.035.205 0l1.691.979c.062.036.104.104.104.177v1.955c0 .074-.039.142-.104.177l-1.691.979c-.062.036-.143.036-.205 0l-1.69-.979c-.062-.035-.103-.103-.103-.177v-1.955c0-.072.039-.141.103-.177l1.69-.979z"/></g><g fill="#F5ECD9"><path d="M659.974 574.822v-11.71c0-.824-.604-1.183-1.316-1.183-1.432 0-3.217.356-4.84 1.071v11.819h-3.299v-21.742h3.299v7.173c1.568-.575 3.438-1.07 5.308-1.07 2.995 0 4.122 1.841 4.122 4.37v11.271h-3.274v.001zm9.428-7.092c.111 3.931.881 4.7 3.299 4.7 1.896 0 4.041-.633 5.691-1.266l.549 2.474c-1.76.798-3.902 1.565-6.459 1.565-5.498 0-6.352-3.021-6.352-7.833 0-2.639.192-5.029.825-7.229 1.646-.632 3.849-.962 6.623-.962 4.511 0 5.886 2.501 5.886 6.871v1.678h-10.062v.002zm4.178-5.799c-.987 0-2.559.026-3.85.272-.135.66-.303 1.568-.354 3.244h6.872c0-2.281-.413-3.516-2.668-3.516zm12.066 1.071v11.819h-3.299v-13.305c2.776-1.511 5.719-1.979 7.643-2.115v2.749c-1.348.111-3.051.275-4.344.852zm13.057 12.204c-4.922 0-7.147-2.418-7.147-7.941 0-5.854 2.94-8.082 7.147-8.082 4.918 0 7.146 2.419 7.146 7.944 0 5.854-2.943 8.079-7.146 8.079zm0-13.275c-2.528 0-3.932 1.456-3.932 5.333 0 4.231 1.182 5.168 3.932 5.168 2.527 0 3.933-1.43 3.933-5.307 0-4.233-1.185-5.194-3.933-5.194zm23.06 12.891h-3.875c-.906-2.418-2.172-4.894-4.123-7.036h-1.732v7.036h-3.299v-21.742h3.299v12.479h1.539c1.679-1.729 2.97-3.875 3.875-5.99h3.711c-1.262 2.558-2.885 4.812-4.698 6.65 2.17 2.748 3.875 5.662 5.303 8.603zm6.184.384c-2.994 0-4.123-1.84-4.123-4.367v-11.271h3.271v11.683c0 .826.604 1.184 1.319 1.184 1.429 0 3.38-.355 5.003-1.072v-11.793h3.299v13.25c-3.902 2.139-6.9 2.386-8.769 2.386zM639.74 582.872h-22.965c-1.965 0-3.557-1.592-3.557-3.557v-30.178c0-1.965 1.592-3.558 3.557-3.558h22.965c1.965 0 3.558 1.593 3.558 3.558v30.178c-.002 1.965-1.595 3.557-3.558 3.557zm2.336-33.531c0-1.403-1.139-2.54-2.541-2.54h-22.555c-1.402 0-2.541 1.138-2.541 2.54v29.771c0 1.402 1.139 2.54 2.541 2.54h22.557c1.402 0 2.541-1.138 2.541-2.54l-.002-29.771zM632.068 577.741v-14.811s.963-3.543-11.865 1.45c-.021.062-.021-13.693-.021-13.693l4.19-.026v8.815s11.734-4.624 11.734 3.505v14.76h-4.038zm2.389-21.744h-4.446c1.6-1.956 3.049-5.31 3.049-5.31h4.596c0 .001-.787 2.186-3.199 5.31zm-14.2 21.719v-8.435l4.215 4.217-4.215 4.218z"/></g><text transform="translate(611.36 445.006)" fill="#F5ECD9" font-weight="100" font-size="18">is 100% powered by:</text><text transform="translate(613.219 530.518)" fill="#F5ECD9" font-weight="100" font-size="18">is hosted on:</text></g><g id="pegu"><text transform="translate(660.633 489.283)" fill="#F5ECD9" font-weight="100" font-size="36">Have you tried</text><text transform="translate(609.072 630.388)" fill="#F5ECD9" font-weight="100" font-size="124.874">Pegu?</text></g></g><text transform="translate(26.604 122.301)" fill="#2BACB5" font-weight="100" font-size="36" id="ownership">And reliable. And friendly, most of the time.</text><g id="leaving" fill="#F5ECD9" font-weight="100" font-size="36"><text transform="translate(26.604 182.247)">I&apos;m leaving Italy and looking for a development position</text><text transform="translate(26.604 222.194)">within the EU with a forward thinking IT company</text><text transform="translate(26.604 262.142)">where I can continue to grow.</text><text transform="translate(26.604 320.142)">Thank you for scrolling this far :)</text></g><text id="passionate" transform="translate(26.604 62.353)" fill="#E84D5B" font-weight="100" font-size="36">I’m passionate about my job.</text></svg>