<svg xmlns="http://www.w3.org/2000/svg" width="1024" height="768" viewBox="0 0 1024 768"><rect x="-5882.951" y="-5137.504" fill="#F5ECD9" width="12784.607" height="11218.004" id="bg5"/><rect x="-7653.467" y="-7098.016" fill="#2BACB5" stroke="#000" stroke-miterlimit="10" width="15687.934" height="14889.029" id="sky"/><g id="mountains"><path fill="#D4E5F6" d="M-792.243 1119.833"/><polygon fill="#14757B" points="-209.3,510.472 -37.804,689.235 -193.184,705.394"/><polygon fill="#ACE8EA" points="-402.598,667.509 -345.107,604.72 -321.267,642.229 -398.216,859.793"/><path fill="#A7C6E8" d="M-927.366 1503.302"/><path fill="#A7C6E8" d="M-1577.241 1702.573"/><path fill="#C1DDF3" d="M-1577.241 1702.573"/><path fill="#5984C3" d="M-832.03 1389.982"/><path fill="#A7C6E8" d="M-588.439 1107.608"/><path fill="#0D72B9" d="M-854.126 1095.198"/><polygon fill="#ACE8EA" points="-854.126,1095.198 -735.19,578.242 -588.439,1107.608"/><polygon fill="#F5ECD9" points="-735.19,578.242 -649.129,529.291 -588.439,1107.608"/><polygon fill="#fff" points="-646.729,553.362 -649.129,529.291 -566.951,373.859 -471.992,709.22"/><polygon fill="#229098" points="-588.439,1107.608 -471.992,709.22 -626.096,552.59 -646.729,553.362"/><polygon fill="#F5ECD9" points="-345.107,1147.357 -588.439,1107.608 -471.992,709.22 -402.598,667.509"/><polygon fill="#C1E8E7" points="-566.951,373.859 -402.598,667.509 -471.992,709.22"/><path fill="#5984C3" d="M-854.126 1095.198"/><polygon fill="#fff" points="-345.107,604.72 -209.3,510.472 -180.034,864.441"/><polygon fill="#14757B" points="-398.216,859.793 -330.423,1226.866 -180.034,864.441 -321.267,642.229"/><polygon fill="#ACE8EA" points="-357.747,1078.915 -330.423,1226.866 -398.216,859.793 -588.439,1107.608"/><polygon fill="#229098" points="-209.3,510.472 -193.184,705.394 -180.034,864.441"/><polygon fill="#14757B" points="-191.831,1193.399 -180.034,864.441 -330.423,1226.866"/><polygon fill="#229098" points="71.511,1204.285 -191.831,1193.399 -180.034,864.441"/><polygon fill="#ACE8EA" points="71.511,1204.285 -37.804,689.235 -180.034,864.441"/><polygon fill="#F5ECD9" points="71.511,1204.285 227.962,1204.132 -37.804,689.235"/><polygon fill="#14757B" points="-37.804,689.235 171.052,897.846 227.962,1204.132"/><polygon fill="#63D3D6" points="227.962,1204.132 426.55,1189.605 171.052,897.846"/><polygon fill="#ACE8EA" points="-37.804,689.235 -116.212,415.166 88.257,723.859"/><polygon fill="#63D3D6" points="171.052,897.846 88.257,723.859 -37.804,689.235"/><polygon fill="#fff" points="-37.804,689.235 -116.212,415.166 -209.3,510.472"/><polygon fill="#229098" points="-402.598,667.509 -345.107,604.72 -566.951,373.859"/><polygon fill="#63D3D6" points="426.55,1189.605 490.663,1138.932 273.831,934.037"/><polygon fill="#ACE8EA" points="490.663,1138.932 701.151,1101.004 454.37,929.785 273.831,934.037"/><polygon fill="#C1E8E7" points="255.411,944.84 148.075,795.87 148.075,691.64 250.054,605.882 454.37,929.785"/><polygon fill="#1C8389" points="701.151,1101.004 250.054,605.882 454.37,929.785"/><polygon fill="#fff" points="168.141,820.025 255.411,944.84 250.054,605.882 88.257,723.859"/><polygon fill="#63D3D6" points="488.188,867.465 599.411,883.821 761.608,1042.641 701.151,1101.004"/><polygon fill="#C1E8E7" points="454.37,929.785 490.663,1138.932 255.411,944.84"/><polygon fill="#C1E8E7" points="599.411,883.821 701.151,1101.004 761.608,1042.641"/></g><g id="clouds"><path fill="#F5ECD9" d="M188.406 612.645c0-10.18-8.252-18.432-18.432-18.432-10.18 0-18.432 8.252-18.432 18.432h36.864z"/><path fill="#F5ECD9" d="M273.68 612.645c0-10.18-8.252-18.432-18.432-18.432-10.18 0-18.432 8.252-18.432 18.432h36.864z"/><path fill="#F5ECD9" d="M231.043 612.645c0-15.689-12.727-28.424-28.426-28.424-15.697 0-28.424 12.729-28.424 28.424h56.85z"/><g fill="#F5ECD9"><path d="M253.926 335.688c0-4.557-3.693-8.25-8.25-8.25s-8.25 3.693-8.25 8.25h16.5zM279.373 335.688c0-3.513-2.848-6.361-6.361-6.361s-6.361 2.849-6.361 6.361h12.722zM273.012 335.688c0-7.026-5.697-12.723-12.725-12.723-7.025 0-12.723 5.696-12.723 12.723h25.448z"/></g><g fill="#F5ECD9"><path d="M460.604 534.379c0-6.624 5.369-11.992 11.993-11.992 6.622 0 11.991 5.368 11.991 11.992h-23.984zM376.655 534.379c0-9.936 8.054-17.989 17.979-17.989 9.938 0 17.988 8.062 17.988 17.989h-35.967zM400.641 534.379c0-19.871 16.107-35.979 35.979-35.979s35.979 16.104 35.979 35.979h-71.958z"/></g><g fill="#F5ECD9"><path d="M482.551 554.23c0-5.273 4.275-9.557 9.549-9.557 5.271 0 9.557 4.273 9.557 9.557h-19.106zM497.275 554.23c0-4.064 3.297-7.361 7.354-7.361 4.066 0 7.363 3.297 7.363 7.361h-14.717z"/></g><g fill="#F5ECD9"><path d="M803.939 380.535c0-19.677-15.953-35.632-35.641-35.632-19.676 0-35.627 15.955-35.627 35.632h71.268zM830.496 380.535c0-14.669-11.889-26.558-26.557-26.558-14.678 0-26.562 11.889-26.562 26.558h53.119zM744.854 380.535c0-8.801-7.137-15.936-15.938-15.936-8.797 0-15.934 7.135-15.934 15.936h31.872zM418.438 513.637c0-18.051-14.633-32.684-32.684-32.684s-32.684 14.633-32.684 32.684h65.368zM377.432 513.637c0-13.455-10.896-24.354-24.354-24.354-13.453 0-24.359 10.896-24.359 24.354h48.713zM437.926 513.637c0-10.764-8.727-19.479-19.488-19.479-10.764 0-19.479 8.725-19.479 19.479h38.967zM338.455 513.637c0-8.062-6.543-14.617-14.615-14.617s-14.617 6.555-14.617 14.617h29.232zM366.605 442.211"/><path d="M346.316 370.211"/><path d="M667.055 556.801c0-8.953-7.258-16.211-16.211-16.211s-16.211 7.258-16.211 16.211h32.422zM717.055 556.801c0-6.896-5.596-12.5-12.5-12.5-6.896 0-12.5 5.604-12.5 12.5h25zM704.555 556.801c0-13.807-11.188-25-25-25-13.807 0-25 11.193-25 25h50zM304.781 534.908c0-7.674-6.229-13.896-13.896-13.896s-13.895 6.229-13.895 13.896h27.791zM315.139 534.908c0-5.721-4.637-10.357-10.354-10.357s-10.357 4.646-10.357 10.357h20.711zM281.736 534.908c0-3.438-2.783-6.215-6.215-6.215s-6.215 2.773-6.215 6.215h12.43zM362.755 376.418c0-8.264-6.697-14.961-14.961-14.961-8.265 0-14.959 6.697-14.959 14.961h29.92zM467.479 376.418c0-12.395-10.047-22.441-22.438-22.441s-22.44 10.047-22.44 22.441h44.878zM437.558 376.418c0-24.789-20.094-44.883-44.881-44.883s-44.886 20.094-44.886 44.883h89.767zM511.904 600.949c0-5.273-4.273-9.547-9.547-9.547-5.271 0-9.557 4.271-9.557 9.547h19.104zM497.182 600.949c0-4.064-3.297-7.361-7.354-7.361-4.064 0-7.361 3.297-7.361 7.361h14.715zM618.623 107.473c0-5.273-4.275-9.547-9.549-9.547-5.271 0-9.547 4.273-9.547 9.547h19.096zM603.898 107.473c0-4.064-3.307-7.361-7.361-7.361-4.066 0-7.363 3.297-7.363 7.361h14.724zM856.65 47.383c0-4.557-3.693-8.25-8.25-8.25-4.562 0-8.25 3.693-8.25 8.25h16.5zM882.098 47.383c0-3.513-2.848-6.361-6.354-6.361-3.521 0-6.361 2.849-6.361 6.361h12.715zM875.736 47.383c0-7.026-5.697-12.723-12.729-12.723-7.021 0-12.723 5.696-12.723 12.723h25.452zM66 395.904c0-5.273 4.275-9.547 9.549-9.547 5.271 0 9.547 4.271 9.547 9.547h-19.096zM80.725 395.904c0-4.064 3.297-7.361 7.361-7.361 4.066 0 7.363 3.297 7.363 7.361h-14.724z"/></g><path fill="#F5ECD9" d="M64.212 540.55h-8v-1h8v1zm-16 0h-8v-1h8v1zm-16 0h-8v-1h8v1zm-16 0h-8v-1h8v1zm-16 0h-8v-1h8v1zm-16 0h-8v-1h8v1zm-16 0h-8v-1h8v1zm-16 0h-8v-1h8v1zm-16 0h-8v-1h8v1zm-16 0h-8v-1h8v1zm-16 0h-8v-1h8v1zm-16 0h-5.417v-1h5.417v1z"/><path fill="#F5ECD9" d="M1151.275 93.095h-8v-1h8v1zm-16 0h-8v-1h8v1zm-16 0h-8v-1h8v1zm-16 0h-8v-1h8v1zm-16 0h-8v-1h8v1zm-16 0h-8v-1h8v1zm-16 0h-8v-1h8v1z"/><path fill="#F5ECD9" d="M161.096 317.734h-8v-1h8v1zm-16 0h-8v-1h8v1zm-16 0h-8v-1h8v1zm-16 0h-8v-1h8v1zm-16 0h-8v-1h8v1zm-16 0h-8v-1h8v1zm-16 0h-8v-1h8v1zm-16 0h-8v-1h8v1zm-16 0h-8v-1h8v1zm-16 0h-8v-1h8v1z"/></g><g id="Layer_1_1_"><g id="plane"><path fill="#FFFEF0" d="M1113.342 663.949c2.248.031 5.4.428 5.4.428s-3.152.396-5.4.429c-2.246.031-4.113-.429-4.113-.429s1.867-.46 4.113-.428z"/><path fill="#C8C6BC" d="M1109.227 664.382l21.562 15.711s1.24.325 3.158.729l-22.969-16.438-1.751-.002z"/><path fill="#FFFEF0" d="M1133.947 680.816c3.021.625 7.729 1.432 11.938 1.432 5.487 0 17.938-1.835 17.938-1.835l-45.25-16.03h-7.595l22.969 16.433z"/><path opacity=".4" fill="#BCBAD0" enable-background="new" d="M1109.227 664.377s1.868-.46 4.114-.428c2.248.031 5.4.428 5.4.428l-.137.018 45.217 16.021s-12.441 1.835-17.931 1.835c-4.225 0-8.932-.807-11.944-1.432-1.918-.397-3.158-.729-3.158-.729l-21.562-15.711h.021l-.02-.002z"/><path fill="#C8C6BC" d="M1265.205 676.9l35.201 25.646s2.021.53 5.158 1.183l-37.5-26.822-2.859-.007z"/><path fill="#FFFEF0" d="M1305.564 703.73c4.934 1.021 12.609 2.337 19.502 2.337 8.959 0 29.271-2.995 29.271-2.995l-73.877-26.172h-12.396l37.5 26.83z"/><polygon opacity=".4" fill="#BCBAD0" enable-background="new" points="1318.875,690.482 1277.662,685.979 1283.682,690.482"/><path id="carlinga" fill="#FFFEF0" d="M1142.924 660.316l13.281 18.166 48 12h176s39.5-2.166 51.734 6l4.334 4s12.021 4.545 13.649 9.002c.123.334.193.668.189.998-.062 4.862-12.668 16-69.918 16h-144c-10.688 0-25.562-3.02-41.857-7.229-38.156-9.871-81.893-26.356-81.893-26.356v-8.573l8.647-2.102-5.729-21.898 27.563-.008z"/><polygon fill="#FFFEF0" points="1107.561,630.482 1121.111,630.482 1134.395,648.65 1112.318,648.65"/><polygon fill="#FFFEF0" points="1119.318,660.316 1115.373,660.316 1112.318,648.65 1115.705,648.65"/><polygon fill="#8CC152" points="1134.395,648.65 1142.924,660.316 1119.318,660.316 1115.705,648.65"/><polygon fill="#C8C6BC" points="1150.311,687.645 1136.586,701.598 1123.834,697.091"/><path fill="#C8C6BC" d="M1098.982 702.715l20.27-14.771s1.168-.312 2.971-.688l-21.594 15.448-1.647.011z"/><path fill="#FFFEF0" d="M1122.223 687.266c2.853-.589 7.271-1.346 11.23-1.346 5.158 0 16.857 1.725 16.857 1.725l-38.533 15.07h-11.148l21.594-15.449z"/><rect x="1117.56" y="629.393" transform="matrix(.955 -.297 .297 .955 -144.06 362.104)" fill="#8CC152" width=".998" height="50.253"/><path fill="none" stroke="#4E4B80" stroke-width="10" stroke-miterlimit="10" d="M1225.705 716.482"/><path fill="#DA4453" d="M1225.205 708.816h161l5 5h-166c-24.695 0-42.611-.604-55.266-1.331-7.486-2.277-14.781-4.625-21.525-6.87 8.361 1.063 30.897 3.201 76.791 3.201z"/><path fill="#DA4453" d="M1225.205 715.537h133.168l-2.5 2.5h-130.668c-15.123 0-27.693-.229-38.064-.567-3.434-.938-6.885-1.921-10.312-2.928 12.013.568 27.864.995 48.376.995z"/><path fill="#E4E2D6" d="M1449.934 709.484c.123.334.193.668.189.998-.062 4.862-12.668 16-69.918 16h-144c-27 0-87.791-20.867-87.791-20.867s28.406 12.142 114.791 12.142c179.156 0 186.399-8.195 186.729-8.273z"/><path fill="#EDEDE6" d="M1344.287 730.434c-23.959 3.375-34.617-.269-41.162-2v-12c6.545-1.729 17.203-5.375 41.162-2v16z"/><polygon fill="#C8C6BC" points="1346.859,716.434 1346.859,718.434 1346.859,728.434 1344.287,730.434 1344.287,718.434 1344.287,714.434"/><polygon fill="#EDEDE6" points="1303.125,727.517 1300.551,726.881 1300.551,717.985 1303.125,717.351"/><polygon fill="#EDEDE6" points="1300.551,725.611 1292.834,723.704 1292.834,721.163 1300.551,719.257"/><path fill="#C8C6BC" d="M1302.496 716.434c5.711-1.511 14.555-4.476 32.623-2.967l-17.943 17.944c-6.826-.688-11.305-2.084-14.68-2.979v-11.998z"/><path fill="#C8C6BC" d="M1245.986 739.482l35.201-25.648s2.021-.531 5.147-1.18l-37.5 26.829-2.848-.001z"/><path fill="#FFFEF0" d="M1286.346 712.654c4.938-1.021 12.619-2.338 19.5-2.338 8.959 0 29.273 2.986 29.273 2.986l-66.914 26.18h-19.359l37.5-26.828z"/><path fill="#3BAFDA" d="M1431.939 696.482h-11.734s-.848 4 16.068 4l-4.334-4z"/><path fill="#54A2BD" d="M1202.705 700.482c0 .551.451 1 1 1h1c.551 0 1-.449 1-1v-2c0-.559-.449-1-1-1h-1c-.549 0-1 .441-1 1v2z"/><path fill="#54A2BD" d="M1210.705 700.482c0 .551.451 1 1 1h1c.551 0 1-.449 1-1v-2c0-.559-.449-1-1-1h-1c-.549 0-1 .441-1 1v2z"/><path fill="#54A2BD" d="M1218.705 700.482c0 .551.451 1 1 1h1c.551 0 1-.449 1-1v-2c0-.559-.449-1-1-1h-1c-.549 0-1 .441-1 1v2z"/><path fill="#54A2BD" d="M1226.705 700.482c0 .551.451 1 1 1h1c.551 0 1-.449 1-1v-2c0-.559-.449-1-1-1h-1c-.549 0-1 .441-1 1v2z"/><path fill="#54A2BD" d="M1234.705 700.482c0 .551.451 1 1 1h1c.551 0 1-.449 1-1v-2c0-.559-.449-1-1-1h-1c-.549 0-1 .441-1 1v2z"/><path fill="#54A2BD" d="M1242.705 700.482c0 .551.451 1 1 1h1c.551 0 1-.449 1-1v-2c0-.559-.449-1-1-1h-1c-.549 0-1 .441-1 1v2z"/><path fill="#54A2BD" d="M1250.705 700.482c0 .551.451 1 1 1h1c.551 0 1-.449 1-1v-2c0-.559-.449-1-1-1h-1c-.549 0-1 .441-1 1v2z"/><path fill="#54A2BD" d="M1258.705 700.482c0 .551.451 1 1 1h1c.551 0 1-.449 1-1v-2c0-.559-.449-1-1-1h-1c-.549 0-1 .441-1 1v2z"/><path fill="#54A2BD" d="M1266.705 700.482c0 .551.451 1 1 1h1c.551 0 1-.449 1-1v-2c0-.559-.449-1-1-1h-1c-.549 0-1 .441-1 1v2z"/><path fill="#54A2BD" d="M1274.705 700.482c0 .551.451 1 1 1h1c.551 0 1-.449 1-1v-2c0-.559-.449-1-1-1h-1c-.549 0-1 .441-1 1v2z"/><path fill="#54A2BD" d="M1282.705 700.482c0 .551.451 1 1 1h1c.551 0 1-.449 1-1v-2c0-.559-.449-1-1-1h-1c-.549 0-1 .441-1 1v2z"/><path fill="#54A2BD" d="M1290.705 700.482c0 .551.451 1 1 1h1c.551 0 1-.449 1-1v-2c0-.559-.449-1-1-1h-1c-.549 0-1 .441-1 1v2z"/><path fill="#54A2BD" d="M1298.705 700.482c0 .551.451 1 1 1h1c.551 0 1-.449 1-1v-2c0-.559-.449-1-1-1h-1c-.549 0-1 .441-1 1v2z"/><path fill="#54A2BD" d="M1306.705 700.482c0 .551.451 1 1 1h1c.551 0 1-.449 1-1v-2c0-.559-.449-1-1-1h-1c-.549 0-1 .441-1 1v2z"/><path fill="#54A2BD" d="M1314.705 700.482c0 .551.451 1 1 1h1c.551 0 1-.449 1-1v-2c0-.559-.449-1-1-1h-1c-.549 0-1 .441-1 1v2z"/><path fill="#54A2BD" d="M1322.705 700.482c0 .551.451 1 1 1h1c.551 0 1-.449 1-1v-2c0-.559-.449-1-1-1h-1c-.549 0-1 .441-1 1v2z"/><path fill="#54A2BD" d="M1330.705 700.482c0 .551.451 1 1 1h1c.551 0 1-.449 1-1v-2c0-.559-.449-1-1-1h-1c-.549 0-1 .441-1 1v2z"/><path fill="#54A2BD" d="M1338.705 700.482c0 .551.451 1 1 1h1c.551 0 1-.449 1-1v-2c0-.559-.449-1-1-1h-1c-.549 0-1 .441-1 1v2z"/><path fill="#54A2BD" d="M1346.705 700.482c0 .551.451 1 1 1h1c.551 0 1-.449 1-1v-2c0-.559-.449-1-1-1h-1c-.549 0-1 .441-1 1v2z"/><path fill="#54A2BD" d="M1354.705 700.482c0 .551.451 1 1 1h1c.551 0 1-.449 1-1v-2c0-.559-.449-1-1-1h-1c-.549 0-1 .441-1 1v2z"/><path fill="#54A2BD" d="M1362.705 700.482c0 .551.451 1 1 1h1c.551 0 1-.449 1-1v-2c0-.559-.449-1-1-1h-1c-.549 0-1 .441-1 1v2z"/><path fill="#54A2BD" d="M1370.705 700.482c0 .551.451 1 1 1h1c.551 0 1-.449 1-1v-2c0-.559-.449-1-1-1h-1c-.549 0-1 .441-1 1v2z"/><path fill="#54A2BD" d="M1378.705 700.482c0 .551.451 1 1 1h1c.551 0 1-.449 1-1v-2c0-.559-.449-1-1-1h-1c-.549 0-1 .441-1 1v2z"/><path fill="#54A2BD" d="M1386.705 700.482c0 .551.451 1 1 1h1c.551 0 1-.449 1-1v-2c0-.559-.449-1-1-1h-1c-.549 0-1 .441-1 1v2z"/><path fill="#FFFEF0" d="M1255.596 738.482c5.248.065 12.609 1 12.609 1s-7.361.926-12.609.999c-5.248.066-9.604-.999-9.604-.999s4.356-1.073 9.604-1z"/><path fill="#FFFEF0" d="M1104.537 702.126c3.033.044 7.289.578 7.289.578s-4.256.534-7.289.577l-5.555-.577s2.522-.622 5.555-.578z"/><rect x="1427.372" y="697.964" transform="matrix(-.45 -.893 .893 -.45 1450.327 2289.822)" fill="#EDE3EB" width="5.309" height="1.003"/><rect x="1423.168" y="697.492" transform="matrix(-.144 -.99 .99 -.144 939.571 2208.854)" fill="#EDE3EB" width="4.223" height="1.001"/><circle fill="#E4E2D6" cx="1409.518" cy="704.921" r=".5"/><circle fill="#E4E2D6" cx="1192.611" cy="704.921" r=".5"/></g><g id="torre"><rect x="-589.07" y="481.503" fill="#FFFEF0" width="362.505" height="2900.03"/><rect x="-951.575" y="481.503" fill="#FFFEF0" width="362.504" height="2900.03"/><rect x="-864.493" y="481.503" fill="#E4E2D6" width="543.755" height="2900.03"/><polygon opacity=".4" fill="#C8C6BC" enable-background="new" points="-770.321,662.756 -407.816,662.756 -226.565,617.441 -226.565,640.099 -407.816,685.413 -770.321,685.413 -951.575,640.099 -951.575,617.441"/><polygon opacity=".4" fill="#C8C6BC" enable-background="new" points="-223.021,617.441 -952.573,1346.993 -952.573,566.343 -226.565,566.343"/><rect x="-770.321" y="300.254" fill="#FFFEF0" width="362.505" height="362.502"/><rect x="-600.396" y="-606.009" fill="#DA4453" width="22.655" height="453.127"/><rect x="-770.321" y="-84.91" fill="#E4E2D6" width="362.505" height="45.314"/><polygon fill="#FFFEF0" points="-1132.825,51.028 -770.321,-39.596 -770.321,-84.91 -1132.825,5.714 -1178.138,17.045 -1178.138,62.354"/><polygon fill="#FFFEF0" points="-45.312,51.028 0,62.354 0,17.045 -45.312,5.714 -407.816,-84.91 -407.816,-39.596"/><polygon fill="#E4E2D6" points="-407.816,662.756 -45.312,572.126 -45.312,209.625 -407.816,300.254"/><polygon fill="#E4E2D6" points="-1132.825,572.126 -770.321,662.756 -770.321,300.254 -1132.825,209.625"/><polygon fill="#E4E2D6" points="-407.816,300.254 -45.312,209.625 -45.312,119 -407.816,209.625"/><rect x="-770.321" y="209.625" fill="#FFFEF0" width="362.505" height="90.629"/><polygon fill="#E4E2D6" points="-1132.825,209.625 -770.321,300.254 -770.321,209.625 -1132.825,119"/><polygon fill="#FFFEF0" points="-770.321,-39.596 -1132.825,51.028 -1132.825,96.343 -770.321,5.714"/><rect x="-770.321" y="-39.596" fill="#FFFEF0" width="362.505" height="45.31"/><polygon fill="#FFFEF0" points="-45.312,51.028 -407.816,-39.596 -407.816,5.714 -45.312,96.343"/><polygon fill="#FFFEF0" points="-1132.825,96.343 -1178.138,107.669 -1178.138,62.354 -1132.825,51.028"/><polygon fill="#E4E2D6" points="0,62.354 -1178.138,62.354 -770.321,164.311 -407.816,164.311"/><polygon fill="#FFFEF0" points="-1178.138,62.354 0,62.354 -407.816,-39.596 -770.321,-39.596"/><polygon fill="#E4E2D6" points="-135.939,62.354 -407.816,119 -441.803,-243.504"/><polygon fill="#FFFEF0" points="-441.803,-243.504 -407.816,119 -770.321,119 -736.335,-243.504"/><polygon fill="#E4E2D6" points="-736.335,-243.504 -770.321,119 -1042.198,62.354"/><rect x="-770.321" y="119" fill="#DA4453" width="362.505" height="45.311"/><polygon fill="#BA3548" points="-1132.825,28.376 -770.321,119 -770.321,164.311 -770.321,209.625 -1132.825,119 -1178.138,107.669 -1178.138,62.354 -1178.138,17.045"/><polygon fill="#ED5565" points="-45.312,28.376 0,17.045 0,62.354 0,107.669 -45.312,119 -407.816,209.625 -407.816,164.311 -407.816,119"/><rect x="-770.321" y="164.311" fill="#DA4453" width="362.505" height="45.314"/><polygon opacity=".4" fill="#C8C6BC" enable-background="new" points="-407.816,209.625 -45.312,119 -45.312,164.311 -407.816,254.939 -770.321,254.939 -1132.825,164.311 -1132.825,119 -770.321,209.625"/><path fill="#FFFEF0" d="M-611.726-606.009c0 12.512 10.146 22.655 22.655 22.655 12.514 0 22.657-10.144 22.657-22.655 0-12.514-10.144-22.657-22.657-22.657-12.508 0-22.655 10.144-22.655 22.657z"/></g></g><g id="contacts"><rect x="-2766.482" y="342.5" fill="#E84D5B" width="6910.617" height="445.5"/><path id="office" fill="#F5ECD9" d="M39.378 466.62v1.143c0 .154-.057.289-.17.402s-.248.17-.402.17h-1.143c-.155 0-.289-.057-.402-.17-.114-.113-.17-.248-.17-.402v-1.143c0-.155.057-.289.17-.402.113-.107.247-.17.402-.17h1.143c.154 0 .289.062.402.17.113.113.17.247.17.402zm0-4.572v1.146c0 .148-.057.289-.17.396-.113.113-.248.17-.402.17h-1.143c-.155 0-.289-.057-.402-.17-.114-.107-.17-.248-.17-.396v-1.146c0-.155.057-.289.17-.396.113-.113.247-.176.402-.176h1.143c.154 0 .289.062.402.176.113.107.17.241.17.396zm4.572 0v1.146c0 .148-.057.289-.17.396-.113.113-.247.17-.402.17h-1.143c-.154 0-.289-.057-.402-.17-.113-.107-.17-.248-.17-.396v-1.146c0-.155.057-.289.17-.396.113-.113.248-.176.402-.176h1.143c.155 0 .289.062.402.176.114.107.17.241.17.396zm-4.572-4.571v1.146c0 .154-.057.288-.17.398s-.248.172-.402.172h-1.143c-.155 0-.289-.062-.402-.172-.114-.11-.17-.244-.17-.398v-1.146c0-.149.057-.289.17-.396.113-.113.247-.171.402-.171h1.143c.154 0 .289.058.402.171.113.107.17.239.17.396zm13.713 9.143v1.143c0 .154-.057.289-.17.402-.113.113-.246.17-.401.17h-1.144c-.154 0-.288-.057-.401-.17-.113-.113-.17-.248-.17-.402v-1.143c0-.155.057-.289.17-.402.113-.107.247-.17.401-.17h1.144c.155 0 .288.062.401.17.113.113.17.247.17.402zm-4.57-4.572v1.146c0 .148-.057.289-.17.396-.113.113-.248.17-.402.17h-1.143c-.154 0-.289-.057-.402-.17-.113-.107-.17-.248-.17-.396v-1.146c0-.155.057-.289.17-.396.113-.113.248-.176.402-.176h1.143c.154 0 .289.062.402.176.113.107.17.241.17.396zm-4.571-4.571v1.146c0 .154-.057.288-.17.398-.113.11-.247.172-.402.172h-1.143c-.154 0-.289-.062-.402-.172s-.17-.244-.17-.398v-1.146c0-.149.057-.289.17-.396.113-.113.248-.171.402-.171h1.143c.155 0 .289.058.402.171.114.107.17.239.17.396zm-4.572-4.573v1.144c0 .154-.057.288-.17.401s-.248.171-.402.171h-1.143c-.155 0-.289-.062-.402-.171-.114-.113-.17-.247-.17-.401v-1.144c0-.154.057-.288.17-.401.113-.112.247-.17.402-.17h1.143c.154 0 .289.058.402.17.113.113.17.247.17.401zm13.713 9.144v1.146c0 .148-.057.289-.17.396-.113.113-.246.17-.401.17h-1.144c-.154 0-.288-.057-.401-.17-.113-.107-.17-.248-.17-.396v-1.146c0-.155.057-.289.17-.396.113-.113.247-.176.401-.176h1.144c.155 0 .288.062.401.176.113.107.17.241.17.396zm-4.57-4.571v1.146c0 .154-.057.288-.17.398-.113.11-.248.172-.402.172h-1.143c-.154 0-.289-.062-.402-.172-.113-.11-.17-.244-.17-.398v-1.146c0-.149.057-.289.17-.396.113-.113.248-.171.402-.171h1.143c.154 0 .289.058.402.171.113.107.17.239.17.396zm-4.571-4.573v1.144c0 .154-.057.288-.17.401-.113.113-.247.171-.402.171h-1.143c-.154 0-.289-.062-.402-.171-.113-.113-.17-.247-.17-.401v-1.144c0-.154.057-.288.17-.401.113-.112.248-.17.402-.17h1.143c.155 0 .289.058.402.17.114.113.17.247.17.401zm-4.572-4.571v1.144c0 .154-.057.289-.17.401-.113.113-.248.17-.402.17h-1.143c-.155 0-.289-.057-.402-.17-.114-.112-.17-.247-.17-.401v-1.144c0-.153.057-.288.17-.401.113-.108.247-.17.402-.17h1.143c.154 0 .289.062.402.17.113.113.17.248.17.401zm13.713 9.144v1.146c0 .154-.057.288-.17.398-.113.11-.246.172-.401.172h-1.144c-.154 0-.288-.062-.401-.172-.113-.11-.17-.244-.17-.398v-1.146c0-.149.057-.289.17-.396.113-.113.247-.171.401-.171h1.144c.155 0 .288.058.401.171.113.107.17.239.17.396zm-4.57-4.573v1.144c0 .154-.057.288-.17.401-.113.113-.248.171-.402.171h-1.143c-.154 0-.289-.062-.402-.171-.113-.113-.17-.247-.17-.401v-1.144c0-.154.057-.288.17-.401.113-.112.248-.17.402-.17h1.143c.154 0 .289.058.402.17.113.113.17.247.17.401zm-4.571-4.571v1.144c0 .154-.057.289-.17.401-.113.113-.247.17-.402.17h-1.143c-.154 0-.289-.057-.402-.17-.113-.112-.17-.247-.17-.401v-1.144c0-.153.057-.288.17-.401.113-.108.248-.17.402-.17h1.143c.155 0 .289.062.402.17.114.113.17.248.17.401zm9.141 4.571v1.144c0 .154-.057.288-.17.401-.113.113-.246.171-.401.171h-1.144c-.154 0-.288-.062-.401-.171-.113-.113-.17-.247-.17-.401v-1.144c0-.154.057-.288.17-.401.113-.112.247-.17.401-.17h1.144c.155 0 .288.058.401.17.113.113.17.247.17.401zm-4.57-4.571v1.144c0 .154-.057.289-.17.401-.113.113-.248.17-.402.17h-1.143c-.154 0-.289-.057-.402-.17-.113-.112-.17-.247-.17-.401v-1.144c0-.153.057-.288.17-.401.113-.108.248-.17.402-.17h1.143c.154 0 .289.062.402.17.113.113.17.248.17.401zm4.57 0v1.144c0 .154-.057.289-.17.401-.113.113-.246.17-.401.17h-1.144c-.154 0-.288-.057-.401-.17-.113-.112-.17-.247-.17-.401v-1.144c0-.153.057-.288.17-.401.113-.108.247-.17.401-.17h1.144c.155 0 .288.062.401.17.113.113.17.248.17.401zm-4.57 24.571h6.857v-27.434h-20.571v27.435h6.857v-4c0-.154.057-.288.17-.401s.248-.17.402-.17h5.715c.154 0 .288.057.401.17.113.113.17.247.17.401l-.001 3.999zm9.143-28.571v29.715c0 .312-.113.577-.338.804-.227.229-.494.345-.805.345h-22.857c-.31 0-.578-.113-.804-.345-.226-.226-.339-.488-.339-.804v-29.715c0-.31.113-.577.339-.804.226-.229.494-.34.804-.34h22.857c.31 0 .577.108.805.34.226.226.339.494.338.804z"/><g id="email" fill="#F5ECD9"><text transform="translate(575.145 499.669)" font-weight="300" font-size="18">albinotonnina@gmail.com</text><path d="M560.021 502.468v-11.789c-.321.369-.681.707-1.061 1.015-2.743 2.107-4.922 3.838-6.538 5.188-.521.438-.947.784-1.271 1.024-.327.245-.771.491-1.327.744-.562.251-1.081.375-1.572.375h-.031c-.491 0-1.017-.124-1.57-.375-.56-.253-1-.499-1.326-.744-.326-.24-.75-.588-1.273-1.024-1.616-1.354-3.795-3.079-6.538-5.188-.379-.308-.729-.646-1.059-1.015v11.789c0 .133.048.248.146.345.101.099.213.146.349.146h22.599c.133 0 .248-.054.346-.146.1-.097.146-.212.146-.345h-.02zm0-16.133v-.377l-.009-.199c-.005-.134-.02-.197-.047-.191-.021.006-.054-.04-.084-.139-.03-.097-.076-.136-.138-.116-.062.021-.135.01-.215-.037h-22.6c-.132 0-.248.049-.345.146s-.146.213-.146.346c0 1.72.753 3.171 2.258 4.358 1.975 1.556 4.021 3.178 6.148 4.862l.538.452c.297.251.532.442.705.576.174.132.401.293.688.482.277.188.539.328.771.422.235.093.456.139.662.14h.03c.204 0 .425-.046.66-.14.229-.096.489-.23.771-.422.28-.189.511-.354.688-.482.175-.135.405-.325.705-.576l.533-.452c2.131-1.688 4.185-3.312 6.154-4.862.554-.44 1.066-1.031 1.543-1.773.493-.744.73-1.415.73-2.018zm1.965-.567v16.7c0 .676-.24 1.254-.727 1.729-.479.48-1.059.727-1.729.727h-22.6c-.675 0-1.253-.24-1.729-.727-.481-.479-.727-1.06-.727-1.729v-16.7c0-.677.24-1.254.727-1.734.479-.479 1.059-.721 1.729-.721h22.601c.677 0 1.254.239 1.729.721.486.48.726 1.057.726 1.734z"/></g><g id="linkedin" fill="#F5ECD9"><text transform="translate(575.145 546.566)" font-weight="300" font-size="18">LinkedIn profile</text><path d="M538.717 548.556h4.125v-12.396h-4.125v12.396zm4.392-16.213c-.013-.617-.228-1.133-.644-1.533-.416-.402-.971-.605-1.661-.605-.688 0-1.253.203-1.688.605-.438.4-.651.916-.651 1.533 0 .606.212 1.115.634 1.525.424.411.979.617 1.652.617h.018c.703 0 1.271-.206 1.696-.617.43-.41.643-.919.644-1.525zm10.446 16.213h4.125v-7.106c0-1.833-.434-3.221-1.303-4.16-.869-.938-2.021-1.412-3.447-1.412-1.619 0-2.862.697-3.729 2.09h.03v-1.805h-4.125c.036.787.036 4.918 0 12.396h4.125v-6.935c0-.453.041-.785.125-1 .185-.416.446-.771.81-1.062.354-.292.797-.438 1.315-.438 1.386 0 2.069.938 2.069 2.81l.005 6.622zm8.359-17.821v17.143c0 1.416-.504 2.629-1.51 3.639-1.012 1.007-2.223 1.51-3.639 1.51h-17.144c-1.417 0-2.628-.503-3.635-1.51-1.011-1.01-1.514-2.223-1.514-3.639v-17.143c0-1.418.503-2.63 1.514-3.636 1.007-1.01 2.218-1.514 3.635-1.514h17.144c1.416 0 2.627.504 3.639 1.514 1.006 1.007 1.51 2.218 1.51 3.636z"/></g><g id="l500px" fill="#F5ECD9"><text transform="translate(864.523 539.834)" font-weight="300" font-size="18">Photography</text><path d="M839.908 531.074c.767 0 1.423.271 1.968.815s.816 1.201.816 1.968c0 .768-.271 1.424-.816 1.969-.545.544-1.201.815-1.968.815-.768 0-1.422-.271-1.968-.815-.544-.545-.816-1.201-.816-1.969 0-.767.272-1.423.816-1.968.546-.543 1.202-.815 1.968-.815zm8.546-4.022c.684 0 1.267.242 1.749.727.482.482.726 1.065.726 1.75v8.661c0 .684-.241 1.267-.726 1.75-.482.482-1.065.725-1.749.725h-13.611c-.684 0-1.267-.241-1.75-.725-.482-.484-.725-1.066-.725-1.75v-8.661c0-.685.241-1.268.725-1.75.484-.483 1.066-.727 1.75-.727h2.165l.494-1.313c.121-.316.346-.588.671-.816.326-.229.659-.344 1.001-.344h4.949c.342 0 .676.114 1.001.344.324.229.549.5.672.816l.492 1.313h2.166zm-8.546 11.136c1.191 0 2.212-.423 3.06-1.271.849-.847 1.271-1.867 1.271-3.061 0-1.191-.423-2.212-1.271-3.06-.848-.848-1.867-1.271-3.06-1.271s-2.213.424-3.061 1.271c-.848.848-1.271 1.867-1.271 3.06s.424 2.214 1.271 3.061c.848.849 1.869 1.271 3.061 1.271z"/></g><g id="numidia"><rect x="59.167" y="432.834" fill="#E84D5B" width="124.667" height="53"/><path fill="#F5ECD9" d="M116.91 466.954c-.044.036-.125.057-.24.057h-1.004c-.102 0-.179-.021-.229-.057-.051-.035-.076-.113-.076-.232v-5.9c0-.709-.055-1.327-.166-1.857-.111-.529-.306-.971-.585-1.313-.281-.351-.668-.605-1.162-.783-.494-.183-1.117-.271-1.87-.271l-.929.033c-.443.021-.922.085-1.438.188v9.905c0 .119-.022.197-.066.232-.044.036-.125.057-.243.057h-.996c-.103 0-.18-.021-.231-.057-.052-.035-.078-.113-.078-.232v-9.889c0-.841.397-1.327 1.191-1.461l.651-.089c.258-.028.523-.061.795-.076.272-.021.537-.036.794-.044l.651-.014c.941 0 1.747.104 2.417.312.67.208 1.218.531 1.645.979.426.438.739 1.02.938 1.728.199.708.299 1.562.299 2.565v5.989c-.002.117-.025.195-.068.23z"/><path fill="#F5ECD9" d="M119.055 455.43c.043-.037.125-.058.243-.058h.996c.119 0 .199.021.243.058.044.036.066.113.066.23v6.018c0 .729.045 1.348.133 1.859.089.517.265.938.531 1.271s.638.578 1.118.741c.479.162 1.109.243 1.891.243.177 0 .482-.012.919-.033.434-.021.91-.085 1.426-.188v-9.911c0-.117.022-.194.065-.23.044-.037.125-.058.241-.058h1.004c.1 0 .177.021.229.058.05.036.076.113.076.23v9.911c0 .825-.405 1.312-1.213 1.46l-.695.089c-.257.029-.52.052-.785.062-.263.021-.519.026-.761.033l-.629.011c-.956 0-1.762-.096-2.416-.281-.656-.191-1.186-.501-1.59-.936-.406-.428-.699-.979-.883-1.67-.183-.688-.275-1.53-.275-2.533v-6.146c-.002-.117.02-.194.066-.23z"/><path fill="#F5ECD9" d="M142.121 455.15c.902 0 1.654.131 2.26.39s1.093.623 1.461 1.095c.371.478.632 1.036.787 1.691.156.656.232 1.392.232 2.201v6.218c0 .118-.02.188-.055.221-.038.031-.116.046-.236.046h-1.01c-.12 0-.201-.015-.247-.046-.044-.028-.065-.103-.065-.221v-5.886c0-1.461-.244-2.535-.728-3.229-.485-.688-1.353-1.039-2.601-1.039-.221 0-.471.021-.752.063-.277.047-.561.104-.847.188-.286.081-.565.175-.839.276-.271.104-.518.221-.738.354.205.413.344.881.42 1.405.072.522.109 1.14.109 1.847v6.021c0 .118-.023.188-.066.221-.047.031-.127.046-.248.046h-1.008c-.105 0-.18-.015-.226-.046-.045-.028-.067-.103-.067-.221v-6.062c0-.662-.055-1.248-.168-1.758-.109-.509-.297-.938-.562-1.283-.265-.348-.627-.604-1.084-.781-.456-.182-1.039-.27-1.747-.27-.177 0-.458.012-.84.033-.384.021-.835.085-1.35.188v9.91c0 .119-.022.197-.066.232-.044.036-.125.057-.242.057h-.997c-.103 0-.18-.021-.232-.057-.053-.035-.077-.113-.077-.232v-9.889c0-.84.398-1.327 1.196-1.461l.598-.09c.221-.027.45-.06.687-.075.236-.022.466-.036.686-.044l.576-.019c.901 0 1.65.104 2.25.304.597.194 1.126.521 1.583.965h.021c.562-.385 1.207-.689 1.939-.918.733-.227 1.496-.345 2.293-.345z"/><path fill="#F5ECD9" d="M150.535 466.722c0 .119-.021.197-.065.232-.046.036-.126.057-.244.057h-.996c-.104 0-.181-.021-.231-.057-.052-.035-.078-.113-.078-.232v-11.038c0-.112.026-.19.078-.229.051-.037.127-.062.231-.062h.996c.116 0 .198.021.244.062.044.036.065.114.065.229v11.038z"/><path fill="#F5ECD9" d="M150.535 452.718c0 .119-.021.196-.065.231-.046.037-.126.056-.244.056h-.996c-.104 0-.181-.019-.231-.056-.052-.035-.078-.112-.078-.231v-1.564c0-.116.026-.192.078-.23.051-.036.127-.057.231-.057h.996c.116 0 .198.021.244.057.044.038.065.114.065.23v1.564z"/><path fill="#F5ECD9" d="M152.254 461.368c0-.826.103-1.614.309-2.367.207-.752.527-1.412.963-1.979.436-.567.985-1.021 1.648-1.359.664-.34 1.453-.51 2.367-.51.383 0 .822.021 1.314.078.495.052 1 .153 1.518.314v-4.425c0-.118.021-.195.065-.232.044-.03.123-.056.24-.056h1.024c.103 0 .176.021.219.056.043.037.066.114.066.232v14.999c0 .178-.074.296-.223.354-.75.322-1.52.533-2.307.634-.787.098-1.513.146-2.174.146-.898 0-1.668-.136-2.308-.408-.642-.271-1.163-.664-1.567-1.174-.404-.508-.699-1.125-.883-1.847-.179-.722-.271-1.541-.271-2.456zm1.681 0c0 .84.089 1.549.267 2.124.176.574.424 1.039.741 1.394.315.354.7.606 1.149.753.451.147.947.227 1.492.227.194 0 .412-.017.654-.032.243-.021.49-.054.741-.09.25-.035.497-.084.742-.146.243-.059.461-.125.653-.192v-8.392c-.605-.205-1.125-.335-1.562-.387-.434-.053-.82-.077-1.161-.077-.545 0-1.042.098-1.493.287-.451.19-.841.485-1.171.885-.333.398-.591.9-.776 1.505-.184.6-.276 1.315-.276 2.141z"/><path fill="#F5ECD9" d="M176.642 465.992c0 .265-.104.438-.31.53-.664.273-1.373.474-2.125.569-.752.104-1.476.154-2.168.154-.943 0-1.719-.104-2.324-.312-.604-.207-1.082-.479-1.438-.812-.354-.333-.602-.718-.742-1.154-.139-.436-.209-.891-.209-1.358 0-.552.096-1.062.287-1.543.192-.479.482-.897.875-1.259.391-.354.881-.631 1.471-.825.59-.2 1.291-.306 2.103-.306h2.942v-.59c0-.363-.037-.701-.11-1.014-.073-.312-.214-.577-.421-.796-.207-.224-.494-.395-.863-.52-.367-.123-.848-.186-1.438-.186-.486 0-1.021.048-1.604.145-.582.102-1.08.211-1.491.349l-.244.026c-.06-.006-.104-.062-.134-.164l-.221-.805c-.043-.164.015-.276.177-.337.266-.104.553-.198.863-.28.31-.084.63-.147.962-.213.332-.062.668-.103 1.006-.125.339-.021.656-.033.953-.033 1.429 0 2.487.316 3.174.951.685.636 1.028 1.562 1.028 2.787l.001 7.121zm-1.661-4.867h-2.854c-.265 0-.584.021-.949.065-.37.046-.721.146-1.053.316-.332.171-.612.422-.84.757-.229.333-.344.788-.344 1.366 0 .444.085.815.254 1.11.169.297.398.533.686.712.289.178.617.301.984.366.369.062.754.1 1.15.1l.542-.021.764-.064c.28-.03.563-.077.853-.146.287-.062.556-.146.807-.229v-4.332z"/><path fill="#F5ECD9" d="M165.662 466.722c0 .119-.024.197-.067.232-.044.036-.125.057-.243.057h-.997c-.103 0-.181-.021-.229-.057-.054-.035-.078-.113-.078-.232v-11.038c0-.112.024-.19.078-.229.051-.037.127-.062.229-.062h.997c.118 0 .199.021.243.062.043.036.067.114.067.229v11.038z"/><path fill="#F5ECD9" d="M165.662 452.718c0 .119-.024.196-.067.231-.044.037-.125.056-.243.056h-.997c-.103 0-.181-.019-.229-.056-.054-.035-.078-.112-.078-.231v-1.564c0-.116.024-.192.078-.23.051-.036.127-.057.229-.057h.997c.118 0 .199.021.243.057.043.038.067.114.067.23v1.564z"/><path fill="#F5ECD9" d="M133.691 471.788c-.345-.26-.86-.392-1.53-.392-.313 0-.63.021-.941.075-.312.062-.568.122-.761.197-.058.021-.084.069-.071.136l.035.111.09.062.044-.013c.292-.098.581-.167.858-.209.271-.043.519-.062.736-.062.375 0 .678.036.901.109.223.074.397.187.518.312.122.134.205.294.247.477.044.19.066.399.066.619v.481h-1.876c-.279 0-.555.024-.821.09-.269.062-.515.167-.73.312-.217.146-.395.347-.528.574-.133.234-.2.528-.2.875 0 .2.034.404.103.604.071.209.193.39.375.555.178.162.419.297.718.398.298.104.681.153 1.139.153.331 0 .671-.021 1.012-.07.338-.054.681-.142 1.013-.259.086-.023.13-.087.13-.17v-3.753c-.002-.532-.176-.95-.527-1.212zm.191 4.893c-.139.057-.297.101-.469.132l-.545.102-.491.053-.344.018c-.206 0-.428-.021-.66-.061-.229-.037-.444-.107-.64-.213-.197-.104-.355-.241-.484-.421-.125-.177-.188-.409-.188-.698 0-.351.074-.631.222-.834.148-.205.325-.363.527-.471.203-.104.413-.184.625-.213.215-.033.386-.059.507-.059h1.939l.001 2.665zm8.514-4.439c-.197-.26-.458-.468-.771-.618-.315-.149-.696-.228-1.136-.228l-.491.026c-.189.022-.363.051-.531.086-.18.036-.35.077-.506.123l-.363.119v-2.333c0-.06-.038-.095-.102-.095h-.133c-.062 0-.101.035-.101.095v7.396c0 .103.061.136.095.146.368.135.736.223 1.098.261.357.039.69.062.991.062.438 0 .821-.079 1.14-.235.318-.159.584-.375.789-.646.203-.271.356-.593.455-.953.099-.358.146-.748.146-1.154 0-.405-.047-.787-.141-1.136-.096-.35-.243-.658-.439-.916zm.04 3.254c-.113.333-.268.61-.461.83-.196.221-.419.38-.682.48-.262.106-.543.161-.842.161-.236 0-.533-.02-.884-.058-.338-.037-.665-.112-.972-.229v-4.598c.152-.066.314-.125.482-.172.182-.054.364-.096.541-.128.188-.033.35-.059.493-.068l.359-.021c.659 0 1.187.222 1.563.655.379.438.57 1.094.57 1.938.003.472-.054.875-.167 1.21zm2.161-3.982h-.138c-.062 0-.099.037-.099.102v5.462c0 .059.038.096.099.096h.138c.062 0 .099-.037.099-.096v-5.462c-.001-.065-.038-.102-.099-.102zm4.677 5.377l-.097-.062-.035.005c-.186.041-.357.066-.512.079l-.361.015c-.232 0-.416-.021-.547-.077-.129-.048-.227-.111-.293-.197-.067-.088-.111-.189-.133-.313-.021-.133-.031-.271-.031-.424v-4.084h1.52c.062 0 .1-.035.1-.097v-.114c0-.062-.038-.102-.1-.102h-1.52v-2.096c0-.073-.047-.088-.09-.088h-.147c-.076.021-.102 0-.102.082l.004 2.093-.895-.002c-.063 0-.103.035-.103.095v.132c0 .061.039.097.103.097h.893v4.138c0 .44.094.769.279.966.188.206.539.312 1.071.312l.418-.025c.196-.021.375-.05.544-.092.053-.014.076-.055.063-.104l-.029-.137zm11.155-4.796c-.161-.224-.39-.396-.679-.521-.291-.116-.664-.185-1.112-.185-.369 0-.759.07-1.156.206-.387.138-.737.287-1.043.471-.216-.23-.472-.402-.763-.514-.299-.104-.682-.163-1.141-.163l-.336.019-.416.031-.421.048-.378.06c-.107.023-.181.062-.221.109-.04.053-.061.127-.061.229v5.188c0 .059.039.096.102.096h.134c.062 0 .101-.037.101-.096v-5.204c.321-.066.627-.11.908-.131l.6-.03c.365 0 .68.041.936.124.252.082.462.215.623.396.162.187.283.415.359.698.076.285.115.636.115 1.04v3.106c0 .059.041.096.102.096h.134c.062 0 .101-.038.101-.096v-3.022c0-.447-.028-.808-.086-1.063-.052-.243-.125-.467-.215-.646.182-.109.368-.205.559-.283.205-.086.398-.148.578-.205.177-.053.346-.09.5-.104l.385-.03c.371 0 .681.048.92.146.236.095.427.237.566.438.143.2.244.457.301.764.06.312.089.688.089 1.104v2.917c0 .059.038.096.1.096h.134c.062 0 .101-.037.101-.096v-3.087c0-.397-.03-.759-.091-1.072-.062-.343-.17-.611-.329-.834zm4.028-.698c-.776 0-1.39.252-1.821.741-.429.493-.647 1.234-.647 2.202 0 .937.215 1.661.635 2.171.424.521 1.029.775 1.801.775.777 0 1.395-.255 1.832-.76.438-.497.658-1.245.658-2.227 0-.934-.215-1.652-.641-2.152-.429-.495-1.04-.75-1.817-.75zm2.123 2.95c0 .311-.035.618-.1.934-.066.311-.184.598-.348.853-.163.255-.381.465-.649.621-.267.157-.61.237-1.026.237-.394 0-.729-.068-.996-.207-.268-.143-.487-.327-.653-.567-.168-.242-.292-.527-.367-.852-.077-.322-.117-.681-.117-1.046 0-.344.035-.667.105-.979.069-.312.188-.592.352-.834.162-.24.378-.437.644-.58.264-.145.597-.217.988-.217.416 0 .768.072 1.047.218.278.146.502.339.666.579.162.241.28.524.352.844.067.319.102.655.102.996zm4.116-2.749c-.325-.133-.714-.194-1.155-.194l-.553.021c-.178.014-.373.041-.598.086-.11.023-.184.062-.221.109-.041.05-.061.122-.061.229v5.229c0 .059.039.096.1.096h.135c.062 0 .101-.037.101-.096v-5.271c.263-.053.479-.082.661-.089l.443-.01c.408 0 .761.068 1.049.207.289.14.527.297.703.465l.074.039.074-.036.112-.115c.037-.038.037-.085-.003-.123-.246-.232-.536-.416-.861-.547zm5.858 1.368c-.089-.308-.232-.581-.425-.812-.193-.233-.444-.42-.748-.559-.301-.133-.676-.194-1.109-.194-.752 0-1.354.25-1.79.735-.433.49-.651 1.232-.651 2.208 0 .5.06.941.176 1.312.117.369.285.678.5.917.216.24.48.423.787.536.306.109.651.173 1.028.173.278 0 .548-.022.802-.069.258-.047.498-.132.717-.254l.016-.014.004-.003.01-.016v-.095l-.07-.12-.075-.047-.013.001-.006.002-.053.021c-.191.093-.398.16-.615.209-.218.05-.453.068-.705.068-.314 0-.604-.049-.861-.143-.258-.093-.481-.244-.668-.453-.189-.209-.338-.48-.444-.821-.104-.323-.157-.729-.161-1.198h4.102c.139 0 .24-.027.303-.086.066-.062.098-.16.098-.316-.011-.346-.06-.678-.149-.982zm-4.353 1.082c.049-.744.245-1.326.582-1.729.342-.406.84-.613 1.477-.613.397 0 .736.062 1.004.191s.484.305.646.521c.166.22.281.476.35.761.068.278.103.57.105.867l-4.164.002z"/><circle fill="#F5ECD9" cx="144.531" cy="469.761" r=".284"/><path fill="#F5ECD9" d="M100.001 455.559l.001-.01s-5.998-3.126-12.153-6.332c-.48-.25-.833-.436-8.791-.932.552.002 8.047.003 8.451.004 3.965.011 5.653-7.584 5.653-7.584s-11.835-.032-16.115-.044c-4.281-.02-5.655 7.583-5.655 7.583s5.362 2.846 11.642 6.173c.251.131 1.577.835 9.507 1.099-.258 0-7.949 0-8.208-.002-6.761-.019-13.575-.037-15.553-.044-3.703-.012-5.23 5.669-5.575 7.202l-.08.355.004.002-.004.021h.047l11.779 6.136c.286.148 1.168.608 9.862.905-.389-.002-8.874-.003-9.188-.003-4.28-.013-5.655 7.581-5.655 7.581s12.149.035 16.117.047c3.523.01 5.248-5.979 5.589-7.312l.068-.259-.005-.004.002-.009h-.02c-.278-.146-5.491-2.857-11.616-6.052-.226-.118-1.447-.754-9.607-.988l8.511.001c6.763.021 13.517.038 15.342.044 3.964.017 5.654-7.583 5.654-7.583l-.004.005z"/></g><g id="phone"><path fill="#F5ECD9" d="M548.551 434.562h-11.138c-1.614 0-2.938 1.319-2.938 2.934v22.865c0 1.606 1.32 2.934 2.938 2.934h11.138c1.61 0 2.934-1.32 2.934-2.934v-22.865c-.003-1.613-1.321-2.934-2.934-2.934zm-5.57 27.559c-1.138 0-2.053-.657-2.053-1.464 0-.814.919-1.468 2.053-1.468 1.132 0 2.047.657 2.047 1.468.004.807-.912 1.464-2.047 1.464zm6.156-4.397h-12.312v-19.352h12.312v19.352z"/><text transform="translate(575.145 457.978)" fill="#F5ECD9" font-weight="300" font-size="18">+39 393 4318597</text></g><g id="githubsite" fill="#F5ECD9"><path d="M837.225 498.772c-.064.07-.146.062-.244-.04-.107-.091-.125-.167-.051-.232.065-.071.147-.062.246.038.098.091.114.169.049.234zm-.517-.751c.074.099.074.176 0 .231-.066.048-.137.021-.209-.086-.074-.105-.074-.184 0-.222.072-.054.142-.029.209.077zm-.752-.739c-.041.059-.094.064-.16.023-.082-.043-.111-.093-.086-.146.025-.043.078-.049.16-.024.082.04.111.09.086.147zm.382.418c-.05.059-.115.046-.197-.037-.072-.09-.082-.155-.023-.196.049-.049.115-.037.197.038.072.089.08.154.023.195zm1.589 1.38c-.033.102-.11.126-.233.073-.141-.032-.192-.095-.16-.187.033-.093.111-.121.233-.086.132.044.185.109.16.2zm.775.062c0 .092-.065.134-.196.134-.14.017-.21-.028-.21-.134 0-.092.066-.135.197-.135.141-.017.209.028.209.135zm.715-.123c.017.082-.041.142-.172.174-.131.031-.205 0-.221-.1-.019-.102.041-.16.172-.188.129-.014.203.024.221.114zm11.873-11.774v11.823c0 .978-.348 1.812-1.041 2.506-.694.693-1.529 1.041-2.506 1.041h-2.76l-.303-.013-.238-.062c-.092-.031-.158-.092-.197-.179-.043-.086-.062-.198-.062-.339v-2.945c0-.794-.214-1.38-.641-1.749.469-.047.889-.124 1.262-.219.374-.103.761-.26 1.159-.479.399-.222.731-.494.997-.817.267-.326.484-.758.652-1.294.168-.535.252-1.156.252-1.854 0-.992-.326-1.84-.975-2.536.305-.748.271-1.586-.099-2.516-.23-.072-.562-.029-.998.135s-.812.346-1.133.542l-.469.296c-.766-.213-1.554-.318-2.365-.318-.813 0-1.603.105-2.365.318l-.523-.33c-.216-.131-.56-.291-1.026-.476-.469-.187-.822-.241-1.061-.167-.359.932-.391 1.769-.086 2.517-.648.696-.973 1.541-.973 2.536 0 .697.084 1.313.252 1.848.168.535.384.967.647 1.294.262.33.592.604.99.824.397.223.784.383 1.158.479.374.098.795.172 1.264.219-.328.298-.531.72-.604 1.271-.173.081-.357.146-.554.188-.197.04-.433.062-.703.062-.271 0-.539-.089-.808-.267-.268-.176-.495-.434-.684-.77-.156-.264-.354-.476-.598-.642-.242-.164-.444-.265-.608-.3l-.247-.037c-.172 0-.292.021-.356.058-.065.036-.086.084-.062.142l.11.172.159.147.087.062c.182.083.358.24.536.471.177.229.306.439.388.627l.125.283c.104.312.287.563.541.76.256.188.53.315.826.368.295.055.579.082.854.086.274.006.504-.012.685-.043l.282-.05.007 1.271.007.837c0 .182-.046.317-.137.414-.09.094-.181.146-.271.157-.09.015-.228.019-.406.019h-2.76c-.978 0-1.812-.348-2.506-1.041-.693-.693-1.041-1.53-1.041-2.506v-11.825c0-.978.347-1.812 1.041-2.506.692-.694 1.528-1.041 2.506-1.041h11.824c.977 0 1.812.347 2.506 1.041.692.692 1.041 1.528 1.041 2.506l.008.001z"/><text transform="translate(864.65 500.872)" font-weight="300" font-size="18">Source on gitHub</text></g><g id="skype"><path fill="#F5ECD9" d="M555.43 587.479c0-.596-.114-1.141-.353-1.635-.229-.494-.521-.901-.86-1.223-.351-.322-.78-.613-1.31-.875-.521-.269-1.016-.465-1.474-.607-.458-.142-.979-.278-1.562-.41l-1.854-.43-.785-.188c-.166-.043-.375-.111-.625-.205-.25-.101-.43-.191-.536-.287-.104-.103-.206-.228-.295-.375-.09-.154-.135-.332-.135-.535 0-.916.854-1.375 2.569-1.375.514 0 .972.07 1.375.213.401.146.729.312.965.51.233.197.465.396.68.604.216.197.453.373.715.518.261.146.547.216.855.214.562 0 1.01-.188 1.35-.566.339-.383.509-.844.509-1.375 0-.652-.333-1.246-1-1.775-.666-.528-1.513-.934-2.534-1.205-1.021-.272-2.104-.409-3.252-.412-.81 0-1.595.095-2.354.277-.763.187-1.478.465-2.134.84-.661.375-1.19.894-1.594 1.556-.396.659-.599 1.426-.599 2.295 0 .729.112 1.358.339 1.899.229.543.562.992 1 1.351.439.354.917.646 1.434.864.513.222 1.125.414 1.84.58l2.604.644c1.072.268 1.737.479 2 .646.382.234.571.595.571 1.07 0 .465-.238.848-.715 1.148-.479.305-1.104.455-1.875.452-.606 0-1.151-.094-1.634-.284-.481-.188-.869-.42-1.162-.688-.291-.271-.562-.537-.812-.811-.25-.269-.521-.494-.815-.688-.3-.188-.619-.285-.968-.285-.598 0-1.046.179-1.35.535-.304.354-.455.805-.455 1.34 0 1.097.729 2.033 2.183 2.812 1.45.775 3.187 1.172 5.192 1.172.87 0 1.702-.111 2.5-.33.798-.227 1.525-.539 2.188-.955.66-.418 1.188-.979 1.58-1.67.393-.697.588-1.479.588-2.354l.005.003zm6.484 3.875c0 1.896-.67 3.513-2.01 4.853s-2.955 2.01-4.849 2.01c-1.547 0-2.939-.479-4.185-1.43-.916.188-1.81.281-2.679.281-1.703 0-3.33-.326-4.885-.986-1.554-.66-2.896-1.56-4.021-2.685s-2.019-2.465-2.679-4.018c-.661-1.553-.991-3.182-.991-4.885 0-.869.101-1.769.287-2.685-.953-1.231-1.431-2.631-1.431-4.18 0-1.893.67-3.508 2.009-4.848 1.34-1.341 2.956-2.011 4.85-2.011 1.552 0 2.938.478 4.184 1.431.917-.189 1.811-.285 2.68-.285 1.701 0 3.331.33 4.884.99 1.559.659 2.896 1.555 4.021 2.68s2.02 2.465 2.68 4.021c.659 1.557.99 3.186.99 4.887 0 .869-.096 1.764-.285 2.68.954 1.239 1.43 2.632 1.43 4.18z"/><text transform="translate(575.145 589.211)" fill="#F5ECD9" font-weight="300" font-size="18">albino.tonnina</text></g><text transform="translate(32.521 698.715)" fill="#F5ECD9" font-weight="300" font-size="14">copyright 2014 Albino Tonnina</text><g id="addressnumidia" fill="#F5ECD9" font-weight="300" font-size="18"><text transform="translate(195.74 457.444)">Albino Tonnina c/o Numidia Srl</text><text transform="translate(195.74 479.044)">Via Giovanni Antonelli 3, 00197 Roma</text></g><text transform="translate(26.605 402.719)" fill="#F5ECD9" font-weight="100" font-size="36">To stay connected:</text><g id="contactresume"><path fill="#F5ECD9" d="M847.473 456.898v.943c0 .139-.044.251-.133.34-.089.09-.201.133-.34.133h-10.384c-.138 0-.25-.043-.339-.133-.089-.089-.135-.201-.135-.34v-.943c0-.139.046-.25.135-.34.089-.089.201-.134.339-.134h10.384c.139 0 .251.045.34.134.089.09.133.203.133.34zm0-3.777v.945c0 .138-.044.251-.133.339-.089.089-.201.134-.34.134h-10.384c-.138 0-.25-.045-.339-.134-.089-.088-.135-.201-.135-.339v-.945c0-.137.046-.25.135-.339.089-.088.201-.133.339-.133h10.384c.139 0 .251.045.34.133.089.089.133.202.133.339zm-13.216 8.971h15.104v-11.329h-6.138c-.393 0-.728-.137-1.002-.413-.275-.274-.413-.608-.413-1.003v-6.136h-7.553l.002 18.881zm9.439-13.217h5.546c-.1-.285-.207-.487-.324-.604l-4.617-4.618c-.118-.117-.318-.227-.604-.324l-.001 5.546zm7.553.472v13.216c0 .395-.138.729-.413 1.004-.275.274-.609.412-1.003.412h-16.049c-.395 0-.729-.138-1.003-.412-.276-.275-.413-.609-.413-1.004v-19.823c0-.395.137-.729.413-1.003.274-.275.608-.413 1.003-.413h9.439c.395 0 .826.099 1.298.294.473.197.847.433 1.12.709l4.604 4.601c.272.276.511.649.707 1.122.196.472.296.902.297 1.297z"/><text transform="translate(864.65 459.935)" fill="#F5ECD9" font-weight="300" font-size="18">View resume</text></g></g><text transform="translate(28.271 127.541)" fill="#2BACB5" font-weight="100" font-size="36" id="ownership">And reliable. And friendly, most of the time.</text><g id="leaving" fill="#F5ECD9" font-weight="100" font-size="36"><text transform="translate(26.605 225.741)">I&apos;m leaving Italy and looking for a development position</text><text transform="translate(26.605 268.941)">within the EU with a forward thinking IT company</text><text transform="translate(26.605 312.142)">where I can continue to grow.</text></g><text transform="translate(28.271 62.353)" fill="#E84D5B" font-weight="100" font-size="36">I’m passionate about my job.</text></svg>