<svg id="svg5" xmlns="http://www.w3.org/2000/svg" viewBox="496 -368 1024 768"><rect x="-5911" y="-4990.1" fill="#E74C3C" stroke="#E74C3C" stroke-miterlimit="10" width="14063" height="10085.2"/><g id="scene"><g id="desks"><g id="deskleft"><path fill="#982E21" d="M477.1 316.3c0 30.7-25.1 55.8-55.8 55.8h-863.8c-30.7 0-57.4-26.7-57.4-57.4v-473c0-30.7 25.1-55.8 55.8-55.8h865.3c30.7 0 55.8 25.1 55.8 55.8v474.6z"/><path fill="#BE3D2F" d="M481 312.4c0 30.7-25.1 55.8-55.8 55.8h-865.3c-30.7 0-55.8-25.1-55.8-55.8v-474.5c0-30.7 25.1-55.8 55.8-55.8h865.3c30.7 0 55.8 25.1 55.8 55.8v474.5z"/><path fill="#9E3023" d="M296.1-109.5L-7.1-175.2s-7.3-1.6-8.8 5.7c-1.6 7.3 5.7 8.8 5.7 8.8l21.8 4.7s-7.3-1.6-8.8 5.7C1.2-143-29.9.5-29.9.5c-1.6 7.6 4 15.2 11.5 16.9l245.9 53.3c7.6 1.6 15-3.2 16.7-10.7 0 0 24.9-115 31.3-144.3 0-.1.2-1.1 1.4-6.4 1.6-7.3-5.7-8.8-5.7-8.8l21.8 4.7s7.3 1.6 8.8-5.7c1.5-7.4-5.7-9-5.7-9z"/><path fill="#DCE4E8" d="M250 59.5c-1.6 7.6-9.1 12.4-16.7 10.7L-12.6 16.9C-20.2 15.3-25.8 7.6-24.1 0c0 0 31.1-143.5 32.7-150.8 1.6-7.3 8.8-5.7 8.8-5.7L277-100.1s7.3 1.6 5.7 8.8C281.1-84 250 59.5 250 59.5z"/><path fill="#F7F9F8" d="M298.8-95.4L-4.4-161.1s-7.3-1.6-5.7-8.8c1.6-7.3 8.8-5.7 8.8-5.7l303.1 65.7s7.3 1.6 5.7 8.8c-1.5 7.3-8.7 5.7-8.7 5.7z"/><path opacity=".3" fill="#B7BFC7" d="M281.3-84.8L-15.9-37.6S7-143.4 8.6-150.7c1.6-7.3 8.8-5.7 8.8-5.7L277-100.1s7.3 1.6 5.7 8.8c-1.6 7.3-1.4 6.5-1.4 6.5z"/><rect x="77.9" y="-6.2" transform="scale(-1) rotate(12.222 119.36 -1085.784)" fill="#F7F9F8" width="76.7" height="37.9"/><g id="keyboard2" fill="#F7F9F8"><rect x="46.4" y="-121" transform="rotate(-167.769 53.804 -116.015)" width="14.8" height="9.9"/><rect x="42.6" y="-105.7" transform="scale(-1) rotate(12.222 -921.532 -467.612)" width="14.8" height="14"/><rect x="38.1" y="-85.3" transform="rotate(-167.769 50.513 -77.472)" width="24.7" height="15.7"/><rect x="33.8" y="-64" transform="rotate(-167.769 51.527 -57.033)" width="35.5" height="14"/><rect x="62" y="-101.4" transform="rotate(-167.769 69.795 -94.406)" width="15.7" height="14"/><rect x="67.3" y="-80" transform="rotate(-167.769 75.102 -72.164)" width="15.7" height="15.7"/><rect x="73.5" y="-57.6" transform="rotate(-167.769 81.375 -50.558)" width="15.7" height="14"/><rect x="92.9" y="-53.4" transform="rotate(-167.769 100.33 -46.432)" width="14.8" height="14"/><rect x="113.1" y="-49.1" transform="rotate(-167.769 120.485 -42.07)" width="14.8" height="14"/><rect x="132.5" y="-44.8" transform="scale(-1) rotate(12.222 -353.183 -1306.562)" width="14.8" height="14"/><rect x="152.6" y="-40.5" transform="rotate(-167.769 160 -33.493)" width="14.8" height="14"/><rect x="171.1" y="-36.4" transform="scale(-1) rotate(12.222 -274.526 -1671.47)" width="15.7" height="14"/><rect x="191" y="-29.9" transform="rotate(-167.769 208.76 -22.934)" width="35.5" height="14"/><rect x="87.4" y="-75.7" transform="rotate(-167.769 94.864 -67.864)" width="14.8" height="15.7"/><rect x="106.8" y="-71.4" transform="scale(-1) rotate(12.222 -593.59 -1070.774)" width="15.7" height="15.7"/><rect x="127" y="-67.1" transform="scale(-1) rotate(12.222 -553.613 -1255.254)" width="14.8" height="15.7"/><rect x="146.3" y="-62.9" transform="rotate(-167.769 154.09 -55.044)" width="15.7" height="15.7"/><rect x="166.5" y="-58.6" transform="rotate(-167.769 173.877 -50.728)" width="14.8" height="15.7"/><polygon points="197.5,-37.1 184.3,-40.4 187.6,-55.8 200.8,-52.4"/><polygon points="226.5,-30.8 204.5,-36.1 207.8,-51.4 229.9,-46.2"/><rect x="82.1" y="-97.1" transform="rotate(-167.769 89.945 -90.046)" width="15.7" height="14"/><rect x="101.5" y="-92.9" transform="scale(-1) rotate(12.222 -802.42 -1017.325)" width="14.8" height="14"/><rect x="121.6" y="-88.6" transform="rotate(-167.769 129.059 -81.546)" width="14.8" height="14"/><rect x="141" y="-84.4" transform="scale(-1) rotate(12.222 -722.384 -1386.38)" width="14.8" height="14"/><rect x="161.1" y="-80" transform="rotate(-167.769 168.553 -73.003)" width="14.8" height="14"/><rect x="179.7" y="-75.9" transform="rotate(-167.769 187.5 -68.9)" width="15.7" height="14"/><rect x="199.6" y="-69.4" transform="scale(-1) rotate(12.222 -582.965 -2030.173)" width="35.5" height="14"/><rect x="29.9" y="-47.6" transform="scale(-1) rotate(12.222 -371.8 -348.562)" width="14.8" height="15.7"/><rect x="49.2" y="-43.4" transform="rotate(-167.769 57.028 -35.575)" width="15.7" height="15.7"/><rect x="68.5" y="-30.6" transform="rotate(-167.769 116.29 -22.717)" width="95.7" height="15.7"/><rect x="166.9" y="-17.9" transform="rotate(-167.769 174.744 -10.05)" width="15.7" height="15.7"/><polygon points="200.9,3.6 183.5,0.3 186.8,-15 204.2,-11.7"/><rect x="207.2" y="-9.2" transform="rotate(-167.769 214.648 -1.386)" width="14.8" height="15.7"/><rect x="63.6" y="-116.7" transform="rotate(-167.769 71.454 -111.729)" width="15.7" height="9.9"/><rect x="83.8" y="-112.3" transform="rotate(-167.769 91.596 -107.362)" width="15.7" height="9.9"/><rect x="103.1" y="-108.2" transform="scale(-1) rotate(12.222 -964.344 -1032.726)" width="14.8" height="9.9"/><rect x="123.3" y="-103.9" transform="rotate(-167.769 130.69 -98.93)" width="14.8" height="9.9"/><rect x="142.7" y="-99.6" transform="scale(-1) rotate(12.222 -884.13 -1401.885)" width="14.8" height="9.9"/><rect x="162.8" y="-95.2" transform="scale(-1) rotate(12.222 -843.403 -1590.088)" width="14.8" height="9.9"/><rect x="181.3" y="-91.2" transform="rotate(-167.769 189.15 -86.237)" width="15.7" height="9.9"/><rect x="201.5" y="-86.8" transform="rotate(-167.769 209.309 -81.863)" width="15.7" height="9.9"/><rect x="221.6" y="-82.5" transform="rotate(-167.769 229.07 -77.57)" width="14.8" height="9.9"/></g><rect x="79.6" y="-128.3" transform="rotate(-167.769 146.406 -124.611)" fill="#DCE4E8" width="133.6" height="7.4"/><g id="mouse04-1"><path fill="#9E3023" d="M370.8 56.4c-9.8-2.1-19.5 4.1-21.7 13.9V70.6l-7.2 33.4c0 .1 0 .3-.1.4l-.4 1.8c-2.1 9.9 4.2 19.4 14 21.5 9.8 2.1 19.6-4.2 21.7-13.9l7.7-35.6c2.1-10-4.2-19.7-14-21.8z"/><path fill="#DCE4E8" d="M353.2 67.8V68.1l-7.2 33.4c0 .1 0 .2-.1.3l-.4 1.7c-2.1 10 4.2 19.5 14 21.6L374.9 54c-9.8-2.2-19.5 4-21.7 13.8z"/><path fill="#F7F9F8" d="M374.9 53.9L359.5 125c9.8 2.1 19.6-4.1 21.7-13.9h-.1.1l7.7-35.5c2.1-9.9-4.1-19.6-14-21.7z"/></g></g><g id="deskright"><path fill="#982E21" d="M2520.7 326.3c0 30.7-25.1 55.8-55.8 55.8h-863.8c-30.7 0-57.4-26.7-57.4-57.4v-473c0-30.7 25.1-55.8 55.8-55.8h865.3c30.7 0 55.8 25.1 55.8 55.8l.1 474.6z"/><path fill="#BE3D2F" d="M2524.6 322.4c0 30.7-25.1 55.8-55.8 55.8h-865.3c-30.7 0-55.8-25.1-55.8-55.8v-474.5c0-30.7 25.1-55.8 55.8-55.8h865.3c30.7 0 55.8 25.1 55.8 55.8v474.5z"/><path fill="#586273" d="M1997.8-183.8c.1.1 0 0 0 0z"/><path fill="#9E3023" d="M2040.8-171.8L1782.4-.2s-6.2 4.1-2.1 10.3c4.1 6.2 10.3 2.1 10.3 2.1l18.6-12.3s-6.2 4.1-2.1 10.3c4.1 6.2 85.4 128.5 85.4 128.5 4.3 6.4 13.7 7.8 20.1 3.5L2122.2 2.9c6.5-4.3 8.2-13 3.9-19.4 0 0-65.1-98-81.7-123-.1-.1-.6-1-3.7-5.5-4.1-6.2-10.3-2.1-10.3-2.1l18.6-12.3s6.2-4.1 2.1-10.3c-4.1-6.2-10.3-2.1-10.3-2.1z"/><path fill="#DCE4E8" d="M2129.8-21c4.3 6.5 2.5 15.2-3.9 19.4l-209.6 139.2c-6.4 4.3-15.8 3-20.1-3.5 0 0-81.2-122.3-85.4-128.5s2.1-10.3 2.1-10.3l221.3-147s6.2-4.1 10.3 2.1c4.1 6.3 85.3 128.6 85.3 128.6z"/><path fill="#F7F9F8" d="M2052.7-163.9L1794.4 7.7s-6.2 4.1-10.3-2.1c-4.1-6.2 2.1-10.3 2.1-10.3l258.4-171.6s6.2-4.1 10.3 2.1c4 6.2-2.2 10.3-2.2 10.3z"/><path opacity=".3" fill="#B7BFC7" d="M2048.1-144l-173.3 246s-59.9-90.2-64-96.3c-4.1-6.2 2.1-10.3 2.1-10.3l221.3-147s6.2-4.1 10.3 2.1c4.1 6.2 3.6 5.5 3.6 5.5z"/><rect x="1964.8" y="23.4" transform="rotate(146.408 2003.102 42.401)" fill="#F7F9F8" width="76.7" height="37.9"/><g id="keyboard3" fill="#F7F9F8"><rect x="1858.3" y="-6.1" transform="rotate(146.408 1865.747 -1.171)" width="14.9" height="9.9"/><rect x="1868.2" y="6.7" transform="rotate(146.408 1875.602 13.721)" width="14.9" height="14"/><rect x="1878.8" y="20.3" transform="rotate(146.408 1891.127 28.137)" width="24.7" height="15.7"/><rect x="1888.8" y="34.7" transform="rotate(146.408 1906.572 41.734)" width="35.5" height="14"/><rect x="1884.6" y="-4.6" transform="rotate(146.408 1892.41 2.46)" width="15.7" height="14"/><rect x="1904.2" y="6.3" transform="rotate(146.408 1912.063 14.161)" width="15.7" height="15.7"/><rect x="1924.1" y="17.8" transform="scale(-1) rotate(-33.588 -82.368 6401.465)" width="15.7" height="14"/><rect x="1940.7" y="7" transform="rotate(146.408 1948.124 14.062)" width="14.8" height="14"/><rect x="1957.9" y="-4.3" transform="rotate(146.408 1965.33 2.725)" width="14.8" height="14"/><rect x="1974.4" y="-15.2" transform="rotate(146.408 1981.824 -8.23)" width="14.8" height="14"/><rect x="1991.5" y="-26.9" transform="rotate(146.408 1998.92 -19.856)" width="14.9" height="14"/><rect x="2007.3" y="-37.5" transform="rotate(146.408 2015.12 -30.453)" width="15.7" height="14"/><rect x="2022.8" y="-54.4" transform="rotate(146.408 2040.536 -47.359)" width="35.5" height="14"/><rect x="1921.5" y="-4.7" transform="rotate(146.408 1928.95 3.12)" width="14.8" height="15.7"/><rect x="1938" y="-15.8" transform="rotate(146.408 1945.828 -7.943)" width="15.7" height="15.7"/><rect x="1955.2" y="-27.1" transform="rotate(146.408 1962.633 -19.214)" width="14.9" height="15.7"/><rect x="1971.6" y="-38.4" transform="rotate(146.408 1979.411 -30.545)" width="15.7" height="15.7"/><rect x="1988.8" y="-49.6" transform="rotate(146.408 1996.23 -41.772)" width="14.8" height="15.7"/><rect x="2005.2" y="-60.8" transform="rotate(146.408 2013.06 -52.963)" width="15.7" height="15.7"/><rect x="2021.7" y="-74.6" transform="rotate(146.408 2034.082 -66.736)" width="24.7" height="15.7"/><rect x="1901.8" y="-15.9" transform="rotate(146.408 1909.607 -8.887)" width="15.7" height="14"/><rect x="1918.4" y="-26.4" transform="rotate(146.408 1925.827 -19.424)" width="14.8" height="14"/><rect x="1935.6" y="-37.9" transform="rotate(146.408 1942.978 -30.904)" width="14.9" height="14"/><rect x="1952" y="-49" transform="rotate(146.408 1959.42 -42.001)" width="14.9" height="14"/><rect x="1969.2" y="-60.3" transform="rotate(146.408 1976.638 -53.312)" width="14.8" height="14"/><rect x="1984.9" y="-71.1" transform="rotate(146.408 1992.752 -64.12)" width="15.7" height="14"/><rect x="2000.5" y="-88" transform="rotate(146.408 2018.198 -80.959)" width="35.5" height="14"/><rect x="1901.5" y="56.1" transform="rotate(146.408 1908.929 63.91)" width="14.9" height="15.7"/><rect x="1917.9" y="44.7" transform="rotate(146.408 1925.716 52.571)" width="15.7" height="15.7"/><rect x="1928.4" y="11.3" transform="rotate(146.408 1976.262 19.151)" width="95.7" height="15.7"/><rect x="2018.2" y="-21.8" transform="rotate(146.408 2026.06 -13.995)" width="15.7" height="15.7"/><rect x="2035.5" y="-33.1" transform="rotate(146.408 2043.29 -25.27)" width="15.7" height="15.7"/><rect x="2052.7" y="-44.4" transform="rotate(146.408 2060.084 -36.557)" width="14.8" height="15.7"/><rect x="1874.8" y="-17.1" transform="rotate(146.408 1882.67 -12.104)" width="15.7" height="9.9"/><rect x="1891.9" y="-28.9" transform="rotate(146.408 1899.694 -23.931)" width="15.7" height="9.9"/><rect x="1908.5" y="-39.5" transform="rotate(146.408 1915.895 -34.516)" width="14.9" height="9.9"/><rect x="1925.7" y="-50.7" transform="rotate(146.408 1933.12 -45.795)" width="14.8" height="9.9"/><rect x="1942.3" y="-61.6" transform="rotate(146.408 1949.674 -56.598)" width="14.9" height="9.9"/><rect x="1959.4" y="-73.1" transform="rotate(146.408 1966.793 -68.157)" width="14.8" height="9.9"/><rect x="1975.1" y="-83.8" transform="rotate(146.408 1982.97 -78.82)" width="15.7" height="9.9"/><rect x="1992.3" y="-95.3" transform="rotate(146.408 2000.086 -90.378)" width="15.7" height="9.9"/><rect x="2009.6" y="-106.4" transform="rotate(146.408 2016.984 -101.417)" width="14.8" height="9.9"/></g><rect x="1858.8" y="-78.7" transform="rotate(146.408 1925.632 -74.957)" fill="#DCE4E8" width="133.7" height="7.4"/><g><path fill="#9E3023" d="M1587.8-104.9c-4.3.7-7.2 4.7-6.5 9l23.2 147c.7 4.3 4.7 7.2 9 6.5l50.3-7.9-25.6-162.5-50.4 7.9z"/><path fill="#9E3023" d="M1688.4-120.8l-50.3 7.9 25.6 162.5 50.3-7.9c4.3-.7 7.2-4.7 6.5-9l-23.2-147c-.6-4.2-4.7-7.2-8.9-6.5z"/><path fill="#586273" d="M1590.8-107.9c-4.3.7-7.2 4.7-6.5 9l23.2 147c.7 4.3 4.7 7.2 9 6.5l50.3-7.9-25.6-162.5-50.4 7.9z"/><path fill="#DCE4E8" d="M1590.8-107.9c-4.3.7-7.2 4.7-6.5 9l23.2 147c.7 4.3 4.7 7.2 9 6.5l50.3-7.9-25.6-162.5-50.4 7.9z" opacity=".2"/><path fill="#586273" d="M1691.4-123.8l-50.3 7.9 25.6 162.5 50.3-7.9c4.3-.7 7.2-4.7 6.5-9l-23.2-147c-.6-4.2-4.7-7.2-8.9-6.5z"/><g><polygon fill="#F7F9F8" points="1618.4,42.3 1618.4,42.4 1711.3,27.7 1711.3,27.7 1689.3,-111.6 1689.3,-111.6 1596.5,-96.9 1596.5,-96.9"/></g><g><path fill="#464E5C" d="M1638.8-130.4c-6.4 1-10.8 7-9.8 13.4s7 10.8 13.4 9.8 10.8-7 9.8-13.4-7-10.8-13.4-9.8zm2.7 17.4c-3.2.5-6.2-1.7-6.7-4.9s1.7-6.2 4.9-6.7 6.2 1.7 6.7 4.9-1.7 6.2-4.9 6.7z"/></g><g><rect x="1624.8" y="21.5" transform="rotate(171.041 1663.013 23.435)" fill="#DCE4E8" width="76.4" height="3.9"/><rect x="1623" y="9.9" transform="rotate(171.041 1661.186 11.814)" fill="#DCE4E8" width="76.4" height="3.9"/><rect x="1621.2" y="-1.7" transform="rotate(171.041 1659.353 .221)" fill="#DCE4E8" width="76.4" height="3.9"/><rect x="1619.3" y="-13.4" transform="rotate(171.041 1657.53 -11.398)" fill="#DCE4E8" width="76.4" height="3.9"/><rect x="1617.5" y="-25" transform="rotate(171.041 1655.7 -23.002)" fill="#DCE4E8" width="76.4" height="3.9"/><rect x="1615.7" y="-36.6" transform="rotate(171.041 1653.868 -34.602)" fill="#DCE4E8" width="76.4" height="3.9"/><rect x="1613.8" y="-48.2" transform="rotate(171.041 1652.04 -46.215)" fill="#DCE4E8" width="76.4" height="3.9"/><rect x="1612" y="-59.8" transform="rotate(171.041 1650.218 -57.846)" fill="#DCE4E8" width="76.4" height="3.9"/><rect x="1610.2" y="-71.4" transform="rotate(171.041 1648.385 -69.425)" fill="#DCE4E8" width="76.4" height="3.9"/><rect x="1608.4" y="-83" transform="rotate(171.041 1646.558 -81.03)" fill="#DCE4E8" width="76.4" height="3.9"/><rect x="1606.5" y="-94.6" transform="rotate(171.041 1644.731 -92.653)" fill="#DCE4E8" width="76.4" height="3.9"/></g><g><path fill="#464E5C" d="M1671.2-113.7c.7 4.3-2.3 8.3-6.5 9l-42.6 6.7c-4.3.7-8.3-2.3-9-6.5l-.3-1.9c-.7-4.3 2.3-8.3 6.5-9l42.6-6.7c4.3-.7 8.3 2.3 9 6.5l.3 1.9z"/></g></g><g id="mouse04-2"><path fill="#9E3023" d="M2269.5-111.8c-9.8-2.1-19.5 4.1-21.7 13.9V-97.6l-7.2 33.4c0 .1 0 .3-.1.4l-.4 1.8c-2.1 9.9 4.2 19.4 14 21.5 9.8 2.1 19.6-4.2 21.7-14l7.7-35.6c2.1-9.8-4.1-19.5-14-21.7z"/><path fill="#DCE4E8" d="M2252-100.3V-100l-7.2 33.4c0 .1 0 .2-.1.3l-.4 1.7c-2.1 10 4.2 19.5 14 21.6l15.4-71.1c-9.9-2.3-19.6 4-21.7 13.8z"/><path fill="#F7F9F8" d="M2273.6-114.2l-15.4 71.1c9.8 2.1 19.6-4.2 21.7-13.9h-.1.1l7.7-35.5c2.1-9.9-4.1-19.6-14-21.7z"/></g></g><g id="desk"><g id="mouse04"><path fill="#BE3D2F" d="M1438.6 250.3c-9.8-2.1-19.5 4.1-21.7 13.9V264.5l-7.2 33.4c0 .1 0 .3-.1.4l-.4 1.8c-2.1 9.9 4.2 19.4 14 21.5 9.8 2.1 19.6-4.2 21.7-14l7.7-35.6c2.1-9.8-4.1-19.5-14-21.7z"/><path fill="#DCE4E8" d="M1421.1 261.8V262.1l-7.2 33.4c0 .1 0 .2-.1.3l-.4 1.6c-2.1 10.1 4.2 19.5 14 21.6l15.4-71.1c-9.9-2.2-19.6 4.1-21.7 13.9z"/><path fill="#F7F9F8" d="M1442.8 247.8l-15.4 71.1c9.8 2.1 19.6-4.2 21.7-13.9h-.1.1l7.7-35.5c2-9.8-4.2-19.5-14-21.7z"/></g><path fill="#BE3D2F" d="M1204.4-156.9c1.5-6.5 8-10.5 14.4-8.9l57.1 13.4c6.5 1.5 10.5 8 8.9 14.4l-5.8 55.5c-1.5 6.5-8 10.5-14.4 8.9l-70.8-16.6c-6.5-1.5-10.5-8-8.9-14.4l19.5-52.3z"/><path fill="#656D78" d="M1211.6-160.4c1.5-6.5 8-10.5 14.4-8.9l57.1 13.4c6.5 1.5 10.5 8 8.9 14.4l-5.8 55.5c-1.5 6.5-8 10.5-14.4 8.9L1201-93.7c-6.5-1.5-10.5-8-8.9-14.4l19.5-52.3z"/><path fill="#AAB2BD" d="M1216.8-159.2c1.5-6.5 8-10.5 14.4-8.9l46.1 10.8c6.5 1.5 10.5 8 8.9 14.4l-2.7 11.7c-1.5 6.5-8 10.5-14.4 8.9l-46.1-10.8c-6.5-1.5-10.5-8-8.9-14.4l2.7-11.7z"/><radialGradient id="imaclight_1_" cx="1197.083" cy="-1165.975" r="262.548" gradientTransform="matrix(.9773 .2118 .0543 -.2503 130.034 -642.024)" gradientUnits="userSpaceOnUse"><stop offset=".103" stop-color="#fff" stop-opacity=".4"/><stop offset=".795" stop-color="#fff" stop-opacity=".057"/><stop offset=".909" stop-color="#fff" stop-opacity="0"/></radialGradient><polygon id="imaclight" fill="url(#imaclight_1_)" points="1547.3,34.5 969.1,-96.9 1024.9,-195.3 1542.3,-74.2"/><rect x="978.5" y="-127.1" transform="rotate(13.179 1244.146 -112.444)" fill="#E6E9ED" width="531.5" height="29.3"/><path fill="#656D78" d="M1506.2-66.1s-107-42.9-257.3-78c-150.3-35.2-260-43.1-260-43.1l517.3 121.1z"/><g><rect x="1008.8" y="135.6" transform="rotate(10.486 1144.018 179.671)" fill="#BE3D2F" width="270.6" height="87.9"/><rect x="1012.7" y="133" transform="rotate(-169.514 1147.94 176.911)" fill="#E6E9ED" width="270.6" height="87.9"/><g id="keyboard" fill="#CCD1D9"><rect x="1016" y="177.9" transform="rotate(-169.514 1022.724 184.653)" width="13.5" height="13.5"/><rect x="1019.7" y="157.9" transform="rotate(-169.514 1026.445 164.678)" width="13.5" height="13.5"/><rect x="1023.3" y="138" transform="rotate(-169.514 1030.107 144.768)" width="13.5" height="13.5"/><rect x="1027.1" y="118" transform="rotate(-169.514 1033.83 124.804)" width="13.5" height="13.5"/><rect x="1035.9" y="181.6" transform="rotate(-169.514 1042.659 188.36)" width="13.5" height="13.5"/><rect x="1039.7" y="161.6" transform="rotate(-169.514 1046.43 168.353)" width="13.5" height="13.5"/><rect x="1043.4" y="141.6" transform="rotate(-169.514 1050.183 148.36)" width="13.5" height="13.5"/><rect x="1047" y="121.8" transform="rotate(-169.514 1053.705 128.537)" width="13.5" height="13.5"/><rect x="1056" y="185.2" transform="rotate(-169.514 1062.715 191.978)" width="13.5" height="13.5"/><rect x="1059.6" y="165.3" transform="rotate(-169.514 1066.343 172.062)" width="13.5" height="13.5"/><rect x="1063.3" y="145.3" transform="rotate(-169.514 1070.048 152.098)" width="13.5" height="13.5"/><rect x="1067" y="125.4" transform="rotate(-169.514 1073.73 132.166)" width="13.5" height="13.5"/><rect x="1075.2" y="196.3" transform="rotate(-169.514 1122.504 203.09)" width="94.7" height="13.5"/><rect x="1079.5" y="169" transform="rotate(-169.514 1086.292 175.758)" width="13.5" height="13.5"/><rect x="1083.2" y="149.1" transform="rotate(-169.514 1089.977 155.813)" width="13.5" height="13.5"/><rect x="1087" y="129.1" transform="rotate(-169.514 1093.707 135.827)" width="13.5" height="13.5"/><rect x="1099.4" y="172.7" transform="rotate(-169.514 1106.202 179.493)" width="13.5" height="13.5"/><rect x="1103.2" y="152.8" transform="scale(-1) rotate(10.498 1736.667 -12081.668)" width="13.5" height="13.5"/><rect x="1106.9" y="132.8" transform="rotate(-169.514 1113.633 139.54)" width="13.5" height="13.5"/><rect x="1119.4" y="176.4" transform="rotate(-169.514 1126.166 183.156)" width="13.5" height="13.5"/><rect x="1123.1" y="156.5" transform="rotate(-169.514 1129.843 163.24)" width="13.5" height="13.5"/><rect x="1126.8" y="136.5" transform="rotate(-169.514 1133.549 143.284)" width="13.5" height="13.5"/><rect x="1139.5" y="180" transform="rotate(-169.514 1146.228 186.76)" width="13.5" height="13.5"/><rect x="1143.1" y="160.2" transform="rotate(-169.514 1149.81 166.92)" width="13.5" height="13.5"/><rect x="1146.8" y="140.2" transform="rotate(-169.514 1153.514 146.972)" width="13.5" height="13.5"/><rect x="1159.5" y="183.7" transform="scale(-1) rotate(10.498 2073.033 -12694.402)" width="13.5" height="13.5"/><rect x="1163" y="163.8" transform="rotate(-169.514 1169.76 170.61)" width="13.5" height="13.5"/><rect x="1166.7" y="143.9" transform="rotate(-169.514 1173.492 150.652)" width="13.5" height="13.5"/><rect x="1175.6" y="207.5" transform="scale(-1) rotate(10.498 2331.929 -12869.802)" width="13.5" height="13.5"/><rect x="1179.3" y="187.5" transform="scale(-1) rotate(10.498 2114.15 -12910.445)" width="13.5" height="13.5"/><rect x="1183" y="167.5" transform="rotate(-169.514 1189.756 174.269)" width="13.5" height="13.5"/><rect x="1186.8" y="147.4" transform="rotate(-169.514 1193.565 154.199)" width="13.5" height="13.5"/><rect x="1195.6" y="211.1" transform="rotate(-169.514 1202.321 217.846)" width="13.5" height="13.5"/><rect x="1199.2" y="191.2" transform="rotate(-169.514 1205.918 197.99)" width="13.5" height="13.5"/><rect x="1203" y="171.2" transform="rotate(-169.514 1209.728 177.93)" width="13.5" height="13.5"/><rect x="1206.5" y="151.4" transform="rotate(-169.514 1213.253 158.147)" width="13.5" height="13.5"/><rect x="1215.6" y="214.7" transform="rotate(-169.514 1222.356 221.482)" width="13.5" height="13.5"/><rect x="1219.2" y="194.8" transform="rotate(-169.514 1225.996 201.562)" width="13.5" height="13.5"/><rect x="1222.9" y="174.9" transform="rotate(-169.514 1229.65 181.648)" width="13.5" height="13.5"/><rect x="1226.6" y="155" transform="rotate(-169.514 1233.333 161.717)" width="13.5" height="13.5"/><rect x="1235.4" y="218.5" transform="scale(-1) rotate(10.498 2452.308 -13521.269)" width="13.5" height="13.5"/><rect x="1239.2" y="198.5" transform="rotate(-169.514 1245.904 205.28)" width="13.5" height="13.5"/><rect x="1242.8" y="178.6" transform="rotate(-169.514 1249.59 185.364)" width="13.5" height="13.5"/><rect x="1246.5" y="158.6" transform="rotate(-169.514 1253.295 165.352)" width="13.5" height="13.5"/><rect x="1257.2" y="202.1" transform="rotate(-169.514 1264.017 218.965)" width="13.5" height="33.8"/><rect x="1262.7" y="182.4" transform="rotate(-169.514 1269.449 189.142)" width="13.5" height="13.5"/><rect x="1266.5" y="162.4" transform="scale(-1) rotate(10.498 1841.288 -13859.075)" width="13.5" height="13.5"/></g></g><g id="freelance"><path fill="#586273" d="M716.3-70.6l-36.4 12.8c-2.9 1-4.4 4.2-3.4 7L702 22c1 2.9 4.2 4.4 7 3.4l36.4-12.8c2.9-1 4.4-4.2 3.4-7l-25.5-72.8c-1-2.8-4.2-4.4-7-3.4zm25.5 72.8L705.4 15l-23.7-67.6 36.4-12.8 23.7 67.6z"/><rect x="721.3" y="12.4" transform="scale(-1) rotate(-19.33 -80.823 4259.799)" fill="#464E5C" width="8.3" height="2.8"/><polygon fill="#F7F9F8" points="681.7,-52.6 681.7,-52.6 705.4,15 741.8,2.2 718.1,-65.4 718.1,-65.4"/><path fill="#62C3ED" d="M720.1-35l-2.3-3.3c-.2-.3-.8-.7-1.2-.7l-6.7-.5-.4-1.1c.5-1.4.5-3.2-.1-4.9l-.5-1.4c-.9-2.5-3.5-3.9-5.9-3-2.4.8-3.6 3.5-2.7 6l.5 1.4c.6 1.8 1.7 3.1 3 3.9l.4 1.1-4.9 4.6c-.3.3-.5.9-.5 1.3l.2 4c0 .4.4.6.8.5l10-3.5 10-3.5c.5-.2.6-.6.3-.9z"/><rect x="701.4" y="-24.1" transform="scale(-1) rotate(-19.33 123.937 4187.826)" fill="#DCE4E8" width="23.6" height="5.9"/><rect x="704.3" y="-15.7" transform="scale(-1) rotate(-19.33 74.921 4205.134)" fill="#DCE4E8" width="23.6" height="5.9"/><rect x="713" y="-7.3" transform="scale(-1) rotate(-19.33 25.448 4221.601)" fill="#DCE4E8" width="11.8" height="5.9"/><circle fill="#586273" cx="707.7" cy="-9.8" r="1.1"/><circle fill="#586273" cx="713.2" cy="-11.7" r="1.1"/><circle fill="#586273" cx="710.4" cy="-10.8" r="1.1"/><circle fill="#586273" cx="716" cy="-12.7" r="1.1"/><circle fill="#586273" cx="704.7" cy="-18.1" r="1.1"/><circle fill="#586273" cx="715.9" cy="-22.1" r="1.1"/><circle fill="#586273" cx="710.3" cy="-20.1" r="1.1"/><circle fill="#586273" cx="707.5" cy="-19.1" r="1.1"/><circle fill="#586273" cx="713.1" cy="-21.1" r="1.1"/><g><rect x="716.1" y="-5.2" transform="rotate(160.665 719.013 -4.354)" fill="#EF8555" width="5.9" height="1.8"/></g><g opacity=".2"><path fill="#DCE4E8" d="M698.3-64.3l-18.4 6.5c-2.9 1-4.4 4.2-3.4 7L702 22c1 2.9 4.2 4.4 7 3.4l18.4-6.5-29.1-83.2z"/></g><g><circle fill="#BE3D2F" cx="578" cy="-150.2" r="43.9"/><circle fill="#F7F9F8" cx="591" cy="-158.2" r="43.9"/><path fill="#F7F9F8" d="M632.7-109.7c-2.1 0-4.2-.8-5.8-2.4l-19.2-19.2c-3.2-3.2-3.2-8.4 0-11.6 3.2-3.2 8.4-3.2 11.6 0l19.2 19.2c3.2 3.2 3.2 8.4 0 11.6-1.6 1.6-3.7 2.4-5.8 2.4z"/><path fill="#EF8555" d="M623-165.9c-1.4-5.7-4.3-11.1-8.7-15.5-12.9-12.9-33.7-12.9-46.6 0-4.4 4.4-7.3 9.8-8.7 15.5-2.6 10.8.3 22.6 8.7 31 12.9 12.9 33.7 12.9 46.6 0 8.4-8.4 11.3-20.2 8.7-31z"/><path fill="#382104" d="M562.9-175.3c5-3.1 10.9-4.8 17.1-4.8 18.2 0 32.9 14.7 32.9 32.9 0 6.3-1.8 12.1-4.8 17.1 9.5-5.8 15.8-16.2 15.8-28.1 0-18.2-14.7-32.9-32.9-32.9-11.9 0-22.3 6.3-28.1 15.8z"/><path fill="#5E2905" d="M580-180.1c-6.3 0-12.1 1.8-17.1 4.8-3.1 5-4.8 10.9-4.8 17.1 0 18.2 14.7 32.9 32.9 32.9 6.3 0 12.1-1.8 17.1-4.8 3.1-5 4.8-10.9 4.8-17.1 0-18.2-14.7-32.9-32.9-32.9z"/></g></g><g id="entrepeneur"><g id="ipadscene4"><path fill="#BE3D2F" d="M745.6-115.4l-105.1 29c-4.4 1.2-7 5.8-5.8 10.2l39.7 144.1c1.2 4.4 5.8 7 10.2 5.8l105.1-29c4.4-1.2 7-5.8 5.8-10.2l-39.7-144.1c-1.2-4.4-5.8-7-10.2-5.8zm39.7 144l-105.1 29-35.6-129.1s105-28.9 105.1-28.9l35.6 129z"/><path fill="#F7F9F8" d="M647.7-73.5l35.6 129.1 105.1-29-35.6-129.1-105.1 29z"/><path fill="#434A54" d="M748.6-117.4l-105.1 29c-4.4 1.2-7 5.8-5.8 10.2l39.7 144.1c1.2 4.4 5.8 7 10.2 5.8l105.1-29c4.4-1.2 7-5.8 5.8-10.2l-39.7-144.1c-1.2-4.4-5.8-7-10.2-5.8zm39.7 144l-105.1 29-35.6-129.1s105-28.9 105.1-28.9l35.6 129z"/><rect x="725.6" y="47.1" transform="scale(-1) rotate(-15.408 -363.274 5455.47)" fill="#2A2A2A" width="24.9" height="4.2"/><rect x="685.2" y="23.6" transform="rotate(164.601 690.358 34.719)" fill="#3498DB" width="10.3" height="22.3"/><rect x="699.4" y="5.1" transform="scale(-1) rotate(-15.408 -172.503 5208.043)" fill="#3498DB" width="10.3" height="36.6"/><rect x="717.5" y="9.9" transform="rotate(164.601 722.282 23.458)" fill="#3498DB" width="9.5" height="27"/><rect x="731.2" y="-11.8" transform="rotate(164.601 736.4 10.459)" fill="#3498DB" width="10.3" height="44.5"/><rect x="749" y="-4.6" transform="scale(-1) rotate(-15.415 -86.51 5572.654)" fill="#3498DB" width="10.3" height="32.6"/><rect x="763.1" y="-29.3" transform="scale(-1) rotate(-15.408 19.725 5676.328)" fill="#3498DB" width="9.5" height="53.3"/><g><path fill="#E74C3C" d="M676.4-3.1c-.7.2-1.5 0-2.1-.5-.8-.8-.9-2.2 0-3l26.9-27.5c.8-.8 2.2-.9 3 0 .8.8.9 2.2 0 3L677.3-3.7c-.2.3-.6.5-.9.6zM726-22.7c-.7.2-1.5 0-2-.5-.8-.8-.9-2.2-.1-3L754-57.4c.8-.8 2.2-.9 3-.1.8.8.9 2.2.1 3L727-23.3c-.3.3-.6.5-1 .6z"/><path fill="#E74C3C" d="M726.1-22.7c-.4.1-.8.1-1.3 0l-22.7-8c-1.1-.4-1.7-1.6-1.3-2.7.4-1.1 1.6-1.7 2.7-1.3l22.7 8c1.1.4 1.7 1.6 1.3 2.7-.2.6-.8 1.1-1.4 1.3z"/></g><g><rect x="659.1" y="-72.1" transform="scale(-1) rotate(-15.408 447.454 4948.805)" fill="#B7BFC7" width="20.7" height="23.1"/><rect x="680.5" y="-78.6" transform="scale(-1) rotate(-15.408 560.545 5115.792)" fill="#DCE4E8" width="23.1" height="5.6"/><rect x="683" y="-69.3" transform="scale(-1) rotate(-15.408 491.915 5110.243)" fill="#DCE4E8" width="16.7" height="5.6"/><rect x="733.5" y="-83.4" transform="scale(-1) rotate(-15.408 595.765 5487.01)" fill="#DCE4E8" width="17.5" height="5.6"/><rect x="701.9" y="-76.3" transform="scale(-1) rotate(-15.408 543.53 5297.25)" fill="#DCE4E8" width="29.4" height="5.6"/><rect x="685.5" y="-59.9" transform="scale(-1) rotate(-15.408 422.518 5102.24)" fill="#DCE4E8" width="9.5" height="5.6"/><rect x="697.5" y="-64.7" transform="scale(-1) rotate(-15.408 457.696 5229.402)" fill="#DCE4E8" width="19.9" height="5.6"/><rect x="706.1" y="-83.8" transform="rotate(164.601 710.858 -81.039)" fill="#DCE4E8" width="9.5" height="5.6"/><rect x="717.9" y="-90" transform="scale(-1) rotate(-15.408 644.861 5421.696)" fill="#DCE4E8" width="31" height="5.6"/></g><g opacity=".2"><path fill="#DCE4E8" d="M696.8-103.1l-53.2 14.7c-4.4 1.2-7 5.8-5.8 10.2l39.7 144.1c1.2 4.4 5.8 7 10.2 5.8L740.9 57l-44.1-160.1z"/></g></g><g id="iphone05"><path fill="#BE3D2F" d="M883.2 9.8l.1-8.4.6-83.7.1-8.4c0-3.1-2.5-5.6-5.5-5.6l-44.7-.3c-3.1 0-5.6 2.5-5.6 5.5l-.1 8.4-.5 83.7-.1 8.4c0 3.1 2.5 5.6 5.5 5.6l44.7.3c2.9.1 5.5-2.4 5.5-5.5z"/><path fill="#434A54" d="M887.2 7.9V-92.4c0-3.1-2.5-5.6-5.6-5.6h-44.7c-3.1 0-5.6 2.4-5.6 5.5V7.9c0 3.1 2.5 5.7 5.6 5.6h44.7c3-.1 5.6-2.6 5.6-5.6z"/><circle fill="#2A2A2A" cx="857.8" cy="6.5" r="4.2"/><rect id="iphone5positionpath" x="834" y="-83.6" fill="#FFF" width="50.4" height="82.6"/><path fill="#3498DB" d="M855.3-38l5.3-8.6c.1-.1.1-.1.2-.1s.2.1.2.2l4.8 8.5c.1.1.1.2 0 .3 0 .1-.1.1-.2.1h-10.1c-.1 0-.2 0-.2-.1-.1-.1-.1-.2 0-.3z"/></g></g><g id="employee"><path fill="#586273" d="M652.7-92.5c-4.3.7-7.2 4.7-6.5 9l23.2 147c.7 4.3 4.7 7.2 9 6.5l50.3-7.9L703-100.4l-50.3 7.9z"/><path fill="#AAB2BD" d="M652.7-92.5c-4.3.7-7.2 4.7-6.5 9l23.2 147c.7 4.3 4.7 7.2 9 6.5l50.3-7.9L703-100.4l-50.3 7.9z" opacity=".2"/><path fill="#656D78" d="M753.3-108.4l-50.3 7.9L728.6 62l50.3-7.9c4.3-.7 7.2-4.7 6.5-9l-23.2-147c-.6-4.2-4.7-7.1-8.9-6.5z"/><polygon fill="#F7F9F8" points="680.3,57.8 680.3,57.8 773.2,43.2 773.2,43.2 751.2,-96.1 751.2,-96.1 658.4,-81.5 658.4,-81.5"/><path fill="#464E5C" d="M700.7-114.9c-6.4 1-10.8 7-9.8 13.4s7 10.8 13.4 9.8 10.8-7 9.8-13.4-7-10.8-13.4-9.8zm2.7 17.4c-3.2.5-6.2-1.7-6.7-4.9s1.7-6.2 4.9-6.7 6.2 1.7 6.7 4.9-1.7 6.2-4.9 6.7z"/><g><rect x="686.7" y="36.9" transform="rotate(171.041 724.917 38.862)" fill="#DCE4E8" width="76.4" height="3.9"/><rect x="684.9" y="25.3" transform="rotate(171.041 723.103 27.241)" fill="#DCE4E8" width="76.4" height="3.9"/><rect x="683.1" y="13.7" transform="rotate(171.041 721.26 15.649)" fill="#DCE4E8" width="76.4" height="3.9"/><rect x="681.2" y="2.1" transform="rotate(171.041 719.433 4.04)" fill="#DCE4E8" width="76.4" height="3.9"/><rect x="679.4" y="-9.5" transform="rotate(171.041 717.612 -7.575)" fill="#DCE4E8" width="76.4" height="3.9"/><rect x="677.6" y="-21.1" transform="rotate(171.041 715.78 -19.18)" fill="#DCE4E8" width="76.4" height="3.9"/><rect x="675.8" y="-32.7" transform="rotate(171.041 713.949 -30.786)" fill="#DCE4E8" width="76.4" height="3.9"/><rect x="673.9" y="-44.4" transform="rotate(171.041 712.128 -42.398)" fill="#DCE4E8" width="76.4" height="3.9"/><rect x="672.1" y="-56" transform="rotate(171.041 710.297 -54.004)" fill="#DCE4E8" width="76.4" height="3.9"/><rect x="670.3" y="-67.6" transform="rotate(171.041 708.466 -65.607)" fill="#DCE4E8" width="76.4" height="3.9"/><rect x="668.4" y="-79.2" transform="rotate(171.041 706.638 -77.22)" fill="#DCE4E8" width="76.4" height="3.9"/></g><g><path fill="#464E5C" d="M733.1-98.2c.7 4.3-2.3 8.3-6.5 9L684-82.6c-4.3.7-8.3-2.3-9-6.5l-.3-1.9c-.7-4.3 2.3-8.3 6.5-9l42.6-6.7c4.3-.7 8.3 2.3 9 6.5l.3 2z"/></g></g><g id="clients"><g id="luiss"><path fill="#BE3D2F" d="M659.7 280.2c-.1 2.6 2.1 4.8 4.7 4.9l100.6 2.1c2.6.1 4.8-2.1 4.9-4.7l3-143.6c.1-2.6-2.1-4.8-4.7-4.9l-100.6-2.1c-2.6-.1-4.8 2.1-4.9 4.7l-.1 2.4-4.8-.1-.1 4.8 4.8.1-.1 4.8-4.8-.1-.1 4.8 4.8.1-.1 4.9-4.8-.1-.1 4.8 4.8.1-.1 4.7-4.8-.1-.1 4.8 4.8.1-.1 4.8-4.8-.1v4.7l4.8.1-.1 4.9-4.8-.1-.1 4.8 4.8.1-.1 4.7-4.8-.1-.1 4.8 4.8.1-.1 4.8-4.8-.1-.1 4.8 4.8.1-.1 4.9-4.8-.1-.1 4.8 4.8.1-.1 4.7-4.8-.1-.1 4.8 4.8.1-.1 4.8-4.8-.1-.1 4.8 4.8.1-.1 4.9-4.8-.1-.1 4.8 4.8.1-.1 4.7-4.8-.1-.1 4.8 4.8.1-.1 4.7-4.8-.1-.1 4.8 4.8.1-.1 4.8-4.8-.1-.1 4.8 4.8.1-.1 2.2z"/><path fill="#ECF0F1" d="M772.4 280.2c-.1 2.6-2.3 4.7-4.9 4.7l-100.6-2.1c-2.6-.1-4.7-2.3-4.7-4.9l3-143.6c.1-2.6 2.3-4.7 4.9-4.7l100.6 2.1c2.6.1 4.7 2.3 4.7 4.9l-3 143.6z"/><rect x="657.9" y="251.6" transform="matrix(.9998 .0211 -.0211 .9998 5.507 -13.925)" fill="#E5E5E5" width="9.6" height="4.8"/><rect x="657.7" y="261.1" transform="matrix(.9998 .0212 -.0212 .9998 5.734 -13.984)" fill="#E5E5E5" width="9.6" height="4.8"/><rect x="657.5" y="270.7" transform="matrix(.9998 .021 -.021 .9998 5.88 -13.847)" fill="#E5E5E5" width="9.6" height="4.8"/><rect x="658.1" y="242.2" transform="matrix(.9998 .0211 -.0211 .9998 5.308 -13.931)" fill="#E5E5E5" width="9.6" height="4.8"/><rect x="658.3" y="232.5" transform="matrix(.9998 .0211 -.0211 .9998 5.103 -13.938)" fill="#E5E5E5" width="9.6" height="4.8"/><rect x="658.5" y="222.9" transform="matrix(.9998 .0211 -.0211 .9998 4.9 -13.944)" fill="#E5E5E5" width="9.6" height="4.8"/><rect x="658.7" y="213.4" transform="matrix(.9998 .0211 -.0211 .9998 4.701 -13.95)" fill="#E5E5E5" width="9.6" height="4.8"/><rect x="658.9" y="203.7" transform="matrix(.9998 .0211 -.0211 .9998 4.496 -13.957)" fill="#E5E5E5" width="9.6" height="4.8"/><rect x="659.1" y="194.1" transform="matrix(.9998 .0211 -.0211 .9998 4.294 -13.963)" fill="#E5E5E5" width="9.6" height="4.8"/><rect x="659.3" y="184.7" transform="rotate(1.202 664.068 187.07) scale(1.00002)" fill="#E5E5E5" width="9.6" height="4.8"/><rect x="659.5" y="175" transform="matrix(.9998 .021 -.021 .9998 3.87 -13.91)" fill="#E5E5E5" width="9.6" height="4.8"/><rect x="659.7" y="165.4" transform="matrix(.9998 .021 -.021 .9998 3.67 -13.916)" fill="#E5E5E5" width="9.6" height="4.8"/><rect x="659.9" y="155.9" transform="rotate(1.202 664.671 158.32) scale(1.00002)" fill="#E5E5E5" width="9.6" height="4.8"/><rect x="660.1" y="146.2" transform="matrix(.9998 .0211 -.0211 .9998 3.283 -13.995)" fill="#E5E5E5" width="9.6" height="4.8"/><rect x="660.3" y="136.6" transform="matrix(.9998 .0213 -.0213 .9998 3.112 -14.134)" fill="#E5E5E5" width="9.6" height="4.8"/><g><rect x="679.5" y="209" transform="rotate(1.202 722.143 210.881) scale(1.00002)" fill="#BDC3C7" width="85.3" height="3.8"/><rect x="679.6" y="202.6" transform="rotate(1.202 722.277 204.518) scale(1.00002)" fill="#BDC3C7" width="85.3" height="3.8"/><rect x="679.7" y="196.2" transform="rotate(1.202 722.42 198.145) scale(1.00002)" fill="#BDC3C7" width="85.3" height="3.8"/><rect x="679.9" y="189.9" transform="matrix(.9998 .021 -.021 .9998 4.186 -15.13)" fill="#BDC3C7" width="85.3" height="3.8"/><rect x="741.3" y="144" transform="rotate(1.202 753.75 145.948) scale(1.00002)" fill="#BDC3C7" width="24.8" height="3.8"/><rect x="741.2" y="150.4" transform="rotate(1.202 753.636 152.306) scale(1.00002)" fill="#BDC3C7" width="24.8" height="3.8"/><rect x="741.1" y="156.7" transform="rotate(1.202 753.502 158.67) scale(1.00002)" fill="#BDC3C7" width="24.8" height="3.8"/><rect x="740.9" y="163.1" transform="rotate(1.202 753.369 165.038) scale(1.00002)" fill="#BDC3C7" width="24.8" height="3.8"/><rect x="679.3" y="214.8" transform="rotate(1.202 696.522 216.722) scale(1.00002)" fill="#BDC3C7" width="34.4" height="3.8"/></g><g fill="#434A54"><path d="M700.8 150.8c1.3 0 2.5.1 3.8.1-1.2.5-1.4 1.5-1.3 2.7 0 1.8-.1 3.7-.1 5.5.1 2.3 1.6 3.4 3.7 2.9.9-.2 1.6-.7 1.8-1.6.5-2.7.3-5.4.3-8.1 0-.7-.7-1-1.2-1.4 1.1 0 2.2 0 3.3.1-1.2.5-1.1 1.6-1.1 2.6 0 1.9-.1 3.9-.1 5.8-.1 2.3-1.3 3.4-3.6 3.5-2.7.1-4.3-1.1-4.4-3.4-.1-2 0-4.1.1-6.1-.2-1 .1-2.1-1.2-2.6zM730.7 163.5c-.9 0-1.7-.2-2.5-.5-1.1-.4-.9-1.3-.8-2.1 0-.3.3-.4.5-.4.4 0 .5.3.6.6.4 1.6 1.6 1.7 2.9 1.7 1.1-.1 1.9-.5 2.1-1.7.2-1.2 0-2.2-1.3-2.7-.8-.3-1.7-.6-2.5-.9-1.5-.6-2.2-1.8-2.1-3.3.2-1.5 1.2-2.6 2.7-2.8 1-.2 2.1-.1 3.1.2.3.1.6.2.8.4.6.4.4 1 .4 1.5 0 .3-.2.5-.4.5-.6.1-.6-.5-.8-.9-.7-1.2-1.8-1.3-3-1-1.2.3-1.5 1.2-1.4 2.4.1.7.5 1.2 1.1 1.5.6.3 1.2.5 1.8.7 2.5.9 3.4 2.1 3 4.3-.3 1.5-1.8 2.5-4.2 2.5zM721.5 163.3c-.9 0-1.8-.2-2.6-.5-.6-.2-.9-.6-.8-1.2.1-.4-.2-1 .4-1.2.7-.2.7.4.9.9.6 1.5 1.9 1.5 3.2 1.3 1.2-.1 1.7-.9 1.9-2 .2-1.3-.5-2.2-1.8-2.6-.7-.2-1.3-.4-2-.7-1.7-.7-2.3-1.7-2.1-3.5.2-1.5 1.2-2.5 2.9-2.7 1.1-.1 2.2 0 3.2.4.5.2.9.5.8 1.1-.1.4.2 1-.5 1.1-.5.1-.6-.4-.8-.7-.7-1.3-2.2-1.7-3.5-1-1.4.8-1.4 2.8-.1 3.6.6.4 1.4.6 2.1.8 2.3.8 3.3 2.2 2.9 4-.3 1.9-1.6 2.9-4.1 2.9zM692.3 150.6c1.3 0 2.6.1 3.9.1-1.3.5-1.4 1.6-1.4 2.7 0 2.4-.1 4.8-.2 7.2 0 1 .3 1.3 1.3 1.3 2.3.1 2.3.1 3.6-2 .8 2 .3 2.7-1.7 2.7-1.9 0-3.9-.1-6-.3 1.6-.4 1.4-1.6 1.4-2.6.1-2.3.1-4.5.2-6.8 0-.9 0-1.8-1.1-2.3zM712.7 151c1.2 0 2.5.1 4.2.1-1.8.7-1.7 1.9-1.7 3 0 2.1-.1 4.1-.1 6.1 0 1-.3 2.1 1.3 2.4-1.4.4-2.7.3-4.1 0 1.4-.4 1.3-1.5 1.3-2.5 0-2.2.1-4.4.1-6.6.1-1 .1-1.9-1-2.5zM687 154.3c.3.5-.3 1.1.5 1.2.4.1.7-.1.9-.4.3-.5.1-.9-.3-1.2-.4-.4-.9-.5-1.4-.3-.6.2-.9.7-1 1.4 0 1.9-.1 3.8-.2 5.7 0 .5.1 1-.5 1.8.1-2.9 0-5.4.2-7.9.1-1 1-1.6 2.1-1.5.9.1 1.4.7 1.5 1.6.1.7-.3 1.1-.9 1.4-.5.2-1 .1-1.3-.4-.3-.5-.3-1 .4-1.4zM678.1 161.8c0-2 .1-4 .1-6.1 0-.6 0-1.2-.3-1.7-.4-.6-1-.9-1.8-.6-.5.2-.7.7-.6 1.2.1.4.4.6.8.6.8 0 .4-.7.7-1.1.6.4.5.8.3 1.3-.2.4-.6.5-1 .4-.6-.1-1-.4-1.1-1.1-.2-.9.2-1.6 1.1-1.9 1-.3 1.9 0 2.4 1 .2.5.3 1.1.3 1.6 0 2.1-.1 4.2-.1 6.3-.5.1-.6.1-.8.1zM688.6 150.8l-13.4-.3v-.2l13.3.3c.1.1.1.1.1.2zM688.6 152l-13.2-.3v-.2l13.2.3v.2zM680 154.2c-.1 2.6-.1 5.1-.2 7.7h-.2c.1-2.6.1-5.1.2-7.7 0 .1.1.1.2 0zM680.9 162c.1-2.6.1-5.2.2-7.8h.2c-.1 2.6-.1 5.2-.2 7.8h-.2zM682.8 154.3c-.1 2.5-.1 5.1-.2 7.6h-.2c.1-2.5.1-5.1.2-7.6h.2zM683.7 162.1c.1-2.6.1-5.2.2-7.8h.3c-.1 2.6-.1 5.2-.2 7.8h-.3zM684.6 153.2c-1.8 0-3.5-.1-5.3-.1v-.2c1.8 0 3.5.1 5.3.1v.2z"/></g></g><g id="algida"><rect x="828.5" y="120.9" transform="rotate(178.281 884.071 198.653) scale(.99995)" fill="#BE3D2F" width="111.1" height="155.4"/><rect x="829.5" y="119.9" transform="rotate(178.281 885.037 197.629) scale(.99995)" fill="#FFF" width="111.1" height="155.4"/><g fill="#E13A3E"><path d="M867.5 127.8c6.7-.2 12.5 2.3 15.2 4.2.5.3.7.3 1.1 0 1.7-1.2 6.8-4.9 14-5.2 8.7-.3 17.6 3.9 17.9 13.4.2 5.9-3.6 12.1-10.4 16.5-1.7 1.1-3.7 2.1-5.9 2.9-1.2.5-1.8 0-.5-1 3.1-2.5 11.2-9 10.9-16.9-.2-5.3-5.3-10.5-13.8-10.3-6.5.2-11.2 4-12.1 4.6-.5.3-.8.3-1.2-.1-2.4-2-7.3-4.1-12.8-4-6.8.2-12.8 4.1-12.6 10.8.4 12.1 21.5 16.4 26.6 16.3 1.3 0 12.4-4.3 12.1-13.7-.1-3.3-2.2-5.5-5-5.4-3.6.1-5.5 3.2-6.9 4.9-.3.4-.8.6-1.1 0-1.3-2.2-3.8-4.6-7.1-4.5-2.9.1-4.6 2.3-4.6 4.6.2 5.5 7.9 8.7 11.5 9.8.7.2.7 1-.3.9-5.1-.3-17.9-3.8-18.1-12-.1-3.4 2.7-7.2 8.5-7.4 3.9-.1 7.7 1.9 10 4.5.2.3.6.2.8 0 .2-.2 4.6-4.8 10.1-5 3.9-.1 8.2 2.4 8.4 8 .2 5.8-4.7 11.8-8.9 14.5-4.3 2.9-8.4 4.2-9.5 4.1-16.9-.9-32.1-10.2-32.4-21.7-.1-5.3 4-12.5 16.1-12.8zM862.3 174.3l3.7-7.7 4.3 7.4-1.5.7-.8-1.5-3.6.1-.6 1.5-1.5-.5zm2.8-2.3l2.2-.1-1.2-2.2-1 2.3zM898.9 173.2l3.7-7.7 4.3 7.4-1.5.7-.8-1.5-3.6.1-.6 1.5-1.5-.5zm2.8-2.3l2.2-.1-1.2-2.2-1 2.3zM872 174.4l-.2-7.7h1.7l.2 6.2 2.7-.1v1.5l-4.4.1zM884.7 173c-.5.6-2.1 1.2-3.2 1.2-2.2.1-3.9-1.6-4-3.9-.1-2.3 1.6-4 3.7-4.1 1.3 0 2.5.6 2.9 1.2l-1.1 1.2c-.3-.3-.9-.7-1.8-.7-1.1 0-2 1-2 2.5s1.2 2.3 2.3 2.2c.6 0 1.1-.2 1.5-.5v-1.2h-1.2l-.1-1.4 2.8-.1.2 3.6zM891.2 166.1l2.6-.1c2.1-.1 4 1.6 4.1 3.7.1 2.6-2.1 4-4.1 4l-2.3.1-.3-7.7zm2.7 6.1c1.5 0 2.3-1.2 2.2-2.4 0-1.3-1.1-2.2-2.4-2.2h-.8l.1 4.6h.9z"/><rect x="887.1" y="166.2" transform="matrix(-.9995 .0302 -.0302 -.9995 1780.581 313.287)" width="1.7" height="7.8"/></g><g><rect x="846.1" y="209.3" transform="matrix(.9995 -.03 .03 .9995 -5.934 26.673)" fill="#DCE4E8" width="79.6" height="3.6"/><rect x="845.9" y="203.4" transform="matrix(.9995 -.03 .03 .9995 -5.756 26.665)" fill="#DCE4E8" width="79.6" height="3.6"/><rect x="845.7" y="197.4" transform="rotate(-1.719 885.49 199.18) scale(.99995)" fill="#DCE4E8" width="79.6" height="3.6"/><rect x="845.6" y="191.5" transform="matrix(.9995 -.03 .03 .9995 -5.4 26.649)" fill="#DCE4E8" width="79.6" height="3.6"/><rect x="846.3" y="215.9" transform="matrix(.9995 -.03 .03 .9995 -6.144 25.969)" fill="#DCE4E8" width="32.1" height="3.6"/></g></g><g id="unilever"><rect x="525.4" y="9.1" fill="#BE3D2F" width="111.1" height="155.4"/><rect x="526.4" y="8.1" fill="#DCE4E8" width="111.1" height="155.4"/><path fill="#0081C0" d="M560.1 81.2c-.1-.3-.7-5.3 1.2-3.6 1.4 1.2.8 5.5.5 7-1.2 6.2-9.3 6.4-9.6-.3-.1-1.9-.1-6.1 2.2-6.6.9-.2.1 6.3.1 7.2.4 6.6 7.4 1.9 5.6-3.7-.1-.3.2.6 0 0zm40.7 2.5c2.1 0 0 2.5-1 2.7-.3-.7-.3-2.7 1-2.7zM587 84.9c0-2.2-2.8 0-1.3 1.9.9-.3 1.3-1 1.3-1.9zm-11-7.2c-.1-1.7-2.4-.9-2.3.6.1 1.9 2.4 1 2.3-.6-.1-.6.1.8 0 0zm5.7 2.1c.1-.8-.2-1.2-.8-1.4-1.4.1-1.1 6.4-.4 6.3 1.1-.1 1.3-4.3 1.2-4.9 0-1 .2 2.2 0 0zm23.5 3.7c-.3 1.1-5 6.6-5 3.9 0-.3 2.5-1.3 2.8-1.8 1.6-2.5-2.2-4.3-3.9-2.1-4 5 3.5 8 6.2 2.3.4 1.1 1.1 5.4 2.5 2.4.7-1.5 1.3-3.5 2.5-4.6 1.4-1.3 1.1.5 2.5.5 2 0 .4-3.4-2.1-2.2-1.1.5-2.8 4.7-3.3 4.7-1.2 0-.3-4-1.2-4-.6.1-.9.4-1 .9-.5 1.8 0-.3 0 0zm-28.3 4.2c3.2 0 1.2-7.1 2.1-9.4 2.2-5.8 4.3 1.7 3.6 4.5-.3 1.3-1 2.3-1.5 3.5.3 1.7 2.8 2.4 2.8.3 0-7.4 8.3-3 2.3.8 3.2 3.2 4.3-5.3 5.8-5.3.9 0 1.5 4.6 2.1 5.3 1.6 1.9 1.6-4.8 1.8-5.1 1.9-2.9 1 3.6.6 4.6-2.9 5.6-3.6-.7-5.2-.7-.7 0-1.9 2-2.5 2.3-2.2 1.5-3.5-.1-5.6.6-1.9.7-2.2-1.1-3.6-1.1-1.5 0-2.7 2.4-4.5 1-.7-.6-1.2-2.8-2.2-1.3-1 1.5-2 2.4-3 .3-2.8-5.9-3.3 1.7-6.9 1.4-.8-.1.4-6.4 1.7-6.3.5 0 .2 2.3 1 2.3.9 0 2.5-4.4 3.6-2.8.6 1 .8 4.6 2.4 4.6 2.3 0 .5-4.6 2.7-4.6 2-.1-.8 5.1 2.5 5.1M601.5 32.3c-1.4 0-.6-1-1.3-1.5.7.2 3.7-1 3.7 0-.4 1-1.3 1.5-2.4 1.5zm.4 2.2c1.8 0 5.7-3.8 2.7-4.2 1.3 1.6-6.4 4.2-2.7 4.2zm-.1.7c.2 1.2 2.2 4.2 3.7 4.1.8-.1 1.2-5.8.2-6.1-.7 1.3-2.5 2.2-3.9 2M559.6 47c1 0 .2-3.9 1.5-3.9 1.1 0-.8 3.9.2 3.9s.7-4.3 2-4.3c1.1 0-1.2 4.9-.7 4.9 1.4 0 1.2-3.8 2.3-3.8.9 0-4.1 9.7-2.2 11.3-1 .1-1.7-.3-2.1-1.1-1.7 3.3 3.4 4.1 1.7 7.1-1.4-2.5-4.2-2.9-2.9-6.8.2-.7 4.5-6.3 1.1-6.3-1.1 0 .9 4.1-1.5 4.1-1.6 0-1.4-7.9 0-7.9 1 .1-.5 2.8.6 2.8"/><path fill="#0081C0" d="M564.4 52.5c2.4 0 .9-4.7 2-5.9-.4 2 2.1 5.5-.3 5.5-.3 0 .3 2.7 1.7 1.1 1.5-1.7-1.5-5.6-.6-8 0 2.3 1.2 4.2 2.3 6.1 1.4 2.3.6 1.8-.5 1.8-2.3 0 4.8 4.7 2.4-.5-1.3-2.7-5-5.8-3.1-9.2-2.9 1.9-2.7 7.6-4.8 7.6-.4 0 .1 1.5.9 1.5M592.8 31.4c1.8-1.2 6.1-.7 6.8 1.2 2.1 5.8-9.4.6-6.8-1.2.2-.1-.1.1 0 0zm4.1 2.4c.6.1 1.1-.1 1.4-.6 0-.2-3.7-.5-3.7-.6.4.9 1.2 1.3 2.3 1.2M564.8 59.6c-4 1-.2 6.3 1.8 7 4.3 1.6 6.8-3 4-6.3-2.4-2.9-7-.2-4.5 2.9.8.9 2.6 1.6 3.6.6 1.9-2-2-3.8-2-2.6 0 .8 1.3 1.1 1.8.8.8 1.3-2.1.6-2.3.4-2.2-2 1.9-3.7 3.2-1 2.3 4.8-7.2 4.5-5.6-1.8"/><path fill="#0081C0" d="M586.2 70.6c.1 0 1.4-.3 1.4.2 0 1.2-3 1.1-3.7.6-1.4-1-4 .7-6.3.2-1.9-.4-7.1-2.4-8.3-3.8 1.9.4 3.7-.5 3.5-2.6 1.8.7 1.3 3.1 3.3 3.1 1.5 0 5.4-2.8 5.8-4.6.8.2 6.3 2.2 6 1.4.5 1.7.2.8-.2 2.2-1.5 5-3.1-.4-5.1-.4-.1 0-7 4.1-7 2.5 0 1.7 5.1 0 5.7-.6 1.8-1.5 2.4 1.8 4.9 1.8zm-1.5-3.8c0 1 1.5 1 1.5 0 0-.9-1.5-.9-1.5 0M599.6 57.5c-1.2 0-.2 1.9.7 1.9 1.8 0 .4-1.9-.7-1.9zm-2.1 1.1c-.7 0-2.3 2.1-2.8 2.5-1.8 1.2-2.3-1-1-1.3 2.6-.6 4.4-5.1 7.4-2.3 2.7 2.4-.4 6.4-2.5 7.9-.9.6-2-.8-1-1.2.3-.1 4.1-3.6 2.5-3.6-1.8 0-1.6 4.8-4.7 2.6-1.4-1.2 2.9-4.6 2.1-4.6M560.4 34.1c-2.1 1.2-3.9-1.6-1.7-2.5-.1 1.1.6 2.1 1.7 2.5zm4 3.6c-.9 1-1.5 4 .7 4 2.8 0 .8-3.6-.7-4-.4.5 1 .2 0 0zm-6.2.7c-1.2 2 8.5-.5 5.6-2.6-3-2.1-3.7-.4-5.6 2.6 0 .1.3-.4 0 0zm4.4-2.3c.6.3.7.7 0 1.1-.7 0-1.9-1.9-.7-1.9.5 0 .7.3.7.8.2.2-.2-.3 0 0zm-1.7 2.3c-1 0-1.8-2.3-.8-2.3-.5 0 2.7 2.3.8 2.3zm1.6-4.7c2.1-6.7-7.1 0 0 0 .1-.3-1.3 0 0 0zm-4.9 7.5c0 2.9 2.1 2.1 3.6.8-1.5.3-2.6.6-3.6-.8 0 1.4.6.8 0 0zm.7-1.7c-.4 1.8 1.6 2 2.6.8-.9.1-2 0-2.6-.8 0 .1.4.6 0 0zm4.6-.3c-2.2.6-1 3.7.6 2.5-.7-.8-.9-1.6-.6-2.5-.4.1-.1.2 0 0zm.7-5.1c0 1 1.5 1 1.5 0s-1.5-1-1.5 0zm.9 1.7c0 1 1.5 1 1.5 0s-1.5-1-1.5 0M593.8 45c.5-.9 1-.9 1.4 0-.5 1-.9 1-1.4 0zm-6.6-5.8c0 1 1.5 1 1.5 0s-1.5-1-1.5 0zm-.6 2.6c0 1.4 2.1 1.4 2.1 0 0-1.3-2.1-1.3-2.1 0zm2.3-1.2c0 1.5 2.3 1.5 2.3 0 0-1.4-2.3-1.4-2.3 0zm.1-2.4l.7.7c1-.5 1-1 0-1.4-.2.2-.4.5-.7.7zm3.4-1.8c.5.9 1 .9 1.4 0-.4-.9-.9-.9-1.4 0zm-1.4 2.3c0 1.5 2.4 1.5 2.4 0s-2.4-1.5-2.4 0zm-1.9 4.4c0 1 1.5 1 1.5 0s-1.5-1-1.5 0zm2.4-1.5c0 1 1.5 1 1.5 0s-1.5-1-1.5 0zm-.7 2.6c0 1.7 2.6 1.7 2.6 0s-2.6-1.6-2.6 0zm2.7-1.5c0 1.1 1.8 1.1 1.8 0 0-1.2-1.8-1.2-1.8 0zm0-2.4c0 1 1.6 1 1.6 0s-1.6-1-1.6 0"/><path fill="#0081C0" d="M595.4 64.9c-2.4 1.9-6.8-.5-6.8 3.9 0 6.4 11.5-3.9 6.8-3.9-.5.4.4 0 0 0zm-1-.2c1.7-1.5-2.5-1.9-3.3-1.5-2.1 1.1 1.6 3 3.3 1.5.2-.1-.5.4 0 0zm-.1 1.8c.8 0-1.6 2.4-2.7 2.4.6-1.8.1-2.4 2.7-2.4M587.1 43.6c0-.1 3.8 4.5 2.6 4.5.8 0 .1-1.7.6-2.1.7-.6 2.1.6 2.8.6-.1.3-4.8 3-1.6 3 0 0 3.1-2.2 3.1.9 0 2.5-4.3-1-4.3-.1 0 .4 1.5 3.6-.8 1.9-.8-.6.3-2.4-.2-2.4-1 0-1.9 1.9-3.3 2 .9-.8.6-1.6.6-2.7 0-2.1 1.7.1 2.1.1-.2.3-2.6-3.9-1.6-5.7.2 1.6-.5 1 0 0zm8.9 5.5c-.1.5.1.9.6 1 1.4 0 .2-3.1.7-3.1.7 0 1.1.2 1.9.2-1.3 0 .7 2.2.7 1.7 0 .6-2.5.1-2.5 1.4 0 1.2 2.9-.2 3.3-.2-1.4 0 .6 2.3.6 2.1.3-.9-2.6 1.3-1.6 1.3-.7 0-1-2.2-2.3-2.2-1.8 0 1.9 3.2 1.9 3 0-.6-2.5 1.7-1.2 1.7-.6 0-1.2-.4-2-.4 0 0 1.4-3.9 0-3.9-1.5 0-1.1 3.4-1.5 3.4.4 0-1.7-2-1.7-.6.2-.4.3-.7.5-1.1-.4-.2-.8-.4-1.2-.5 0 0 3-1.3 2.5-.9 2.9-2-1.7-2.7-1.7-3.8 0 .5 2.2-1.5 1.3-1.5.6 0 1.1.2 1.9.2.5.5.5 1.3-.2 2.2"/><path fill="#0081C0" d="M587.7 54.3c3.3.4-1.7 1.6-1.7 1.6 1.4.2-2.4 2.4-2.4 3.6 0 2.6 5.8 4.2 5.8 2.2 0 .1-1-1.3-.6-1.3-.7.3-1.5.5-2.3.5-.4 0-2.7-1.6-1.8-1.6.7 0 .5-1.4 1.2-.8 1.5 1.2 4.8 1.8 6.4.4 0 5-6.9 6.4-9.5 2.4-1.2-1.9-1.2-4.4.1-6.2.5-.7 6-4 6-1.7-.4.4-.8.6-1.2.9.8.1 0-.6 0 0zm5.7 1c.6.9-1.1 3.3 1 3.3 2.5 0 .9-3.2-1-3.3.1.2 1.4.1 0 0zm-6.2 1.2c.6.6-.5 2.3.9 2.3 1.8 0 .5-2.3-.9-2.3.2.2 1.1 0 0 0zm2.5-3.2c2.1.4 4.9 5.1 1.4 5.1-3.2 0-.3-3.8-1.4-5.1 2 .4.3.3 0 0zm1 2.5c.3.7.6.6.9-.1 0-.5-.3-.8-.7-.9-.1.3-.2.7-.2 1M570 36.5c.9 0 1.5-4.3 1.2-4.3-.9 0-1.6 4.3-1.2 4.3zm4.6 1.1c.9 0 1.2-3.4.8-3.4-.8-.1-1.3 3.4-.8 3.4zm-3.1-1.7c1.2 0 1.2-2.3.6-2.3-.5 0-1.2 2.3-.6 2.3zm2.6-.8c0-1.5-1.8 1.3-.5 1.3.4-.3.5-.7.5-1.3zm1.4-2.2c1.8 0 2.3 3.6 1.4 3.6-.5 0 0-1.4-.5-1.4-.9 0-.7 3.2.4 2.2-.3 3.5-3.8.5-4.1-1.4-1.1 1.2-3.1 2.6-4.8 1.5-.4-.3-1.8-3-.5-3 .5 0 .2 2.3 1.4 1.4.9-.7.7-3.6-.7-2.2 1.2-3.5 5.6-2 4.9 1.4.6-1.3 1.4-1.9 2.5-2.1"/><path fill="#0081C0" d="M572 37.9c-1.1 0-.8 2.5-.8 2.9-.8-1.7-4.6-4.3-3.8-.6.5-1.6 2.9.7 3.2 1-2.2-.4-4.8-.3-4.3 2.8.7-1.5 2.5-2.3 4-2.1-1.4 1.2-1.1 8.6 1.4 8.6 1.6 0-.4-3.4-.7-4-1.2-.3.2-3.9.3-4.3 1.2.9 1.5 2 1.2 3.4 2.6-1.3 2.5-3.5-.5-3.9 1-.4 3.9-1 4.2.8 2.3-3.5-3.2-2.3-4.6-1.4.3-.6.8-1.8 1.7-1.6 0-.7-.5-1.3-1.3-1.6M603.6 51.5c3.5 0 .8 5.9-.3 6.9 0-1.9-1.8-1.7-2.8-2.7-1.3-1.3 1-2.9 2.3-1.6-.8-.9-.6-2.6.8-2.6M586.9 33.7c.5.5 3.2.4 1.9 1.6 1.5.6 3-.7 3-2.2 2.3 3-3.2 4.5-4.6 4.4-1.4-.3-.7-3.3-.3-3.8.5.4-.4.4 0 0zm2.8-1.4c-.6-1-2.3-.1-2.5.7-1.8-4.4 8.4-1.9 3.2 1-.2-.3-1.9-1.1-.7-1.7M573.8 28.2c0 .8 2 3.9 2.8 3.9 2.8 0-2.8-5.1-2.8-3.9zm-13.7-1.9c0 .6-1.4 1.6-1.9 1.6-1.7 0 1.9-3.3 1.9-1.6zm17.1 1.1c0-1.8-3-2.4-3.1-4 0-1 2.8-.7 2.8-1.6 0-.9-3.9.3-4.2.4-2.1.9 1.6 2.4 1.6 3.6 0 1.2-3.4-1.7-3.4 0 0 .3 1.1 3.2 1 3.2-.9 0-1.5-1.9-2.5-1.9-.5 0 0 2-.4 2-.4-.5-.8-.9-1.2-1.4-.7 0-.4 2.4-1 2.4s0-2.7-.6-2.7c-.8 0-.9 1.8-1.7 1.8-.8 0 .8-2.6-.2-2.6-.1 0-2.5 1.2-2.5.8 0-1 2-1.4 2-2.5 0-.8-2.8 0-2.8-.9s2-.9 2-1.8-5-1.2-5-.3c0 .7 2.5.4 2.5 1.1 0 .9-2.6 1.1-2.6 2.2 0 .8 3.7-.2 3.7.6 0 1.6-3.2 2.6-3.2 4.3 0 .9 4.1-1.6 4.6-1.6.4.7.5 1.5.1 2.3 0 1.9 1.9-.4 2.3-.4.9 0 0 3.5 1.1 3.5 1.2 0 .7-3.7 1.6-3.7.5.4.9.7 1.3 1.1.7 0 .2-1.9.9-1.9 1.3 0 2 2.2 3.4 2.2 1.1 0-1-3.9-1-4.4-.2-1.1 4.5 1.6 4.5.2zm-2-3.8c0 .8 2.1 1.8 2.1.2.1-1-2.1-.6-2.1-.2zm-4.4-1.9c0 .5-6.7.1-6.7 0 .4.1.7.4.9.8 0 .8-1.9.6-1.9 1.2 0 .7 2.4-.5 2.4.3-.3.6-.7 1.1-1 1.7 0-2.6 3.7 1.3 2.7 1.3.7 0 .2-2.1 1.1-2.1.6.4 1.1.9 1.6 1.4-1.9 0 1.7-4.3 1.7-2.3-.6-.5-1.1-1-1.7-1.5.2-.3.5-.6.9-.8M604 24.8c0 1.9-1.7 3-3.4 3.3 1.1.1 6.8-2.3 3.4-3.3 0 1.6.5.1 0 0zm-3.1 1.9c0-1.5-3.2-1.3-3.2-2 .8-.4 1.7-.7 2.7-.7 0 0-3.4-2.2-3.4-1.9 0-.8 3.9-.5 4.4-.3 1.7.7-.8 3.4 1 3.4 1.1 0 .6-2 .6-2.5 0-1.9 2-1 3-1-1.9 1.1.8 4.9-1.4 6.7-.7.6-8.1 2.3-8.1.9 0 .3 2.3-2.8 1.3-2.8.7 0 3.1 2.4 3.1.2zm3-4.2c.3.6.6.6.9 0-.2-.6-.6-.6-.9 0"/><path fill="#0081C0" d="M602.3 39.8c0-.1-1.4-2-1.4-2-.1.4-.3.7-.5 1-.9 0-.9-1.7-1.5-1.7-.5 0 .2 1.3-.4 1.3-.5-.4-.9-.8-1.4-1.2 1.2 0-1 1.9-1 1.6 0 .7 2.2-.4 2.2.3-.2.3-.4.6-.7.8 0 .7 2.6-1.5 2.6-.5 0 .1-1.1 1.2-.5 1.2.2.2 2.6-1.2 2.6-.8zm.5 9.1c.3-.9.7-1.8 1.3-2.6-1.5-.8-3.7-4.4-.3-4.4.7 0-1 3.8.5 3.8 2.1 0 1-4-.3-4.6-1.3-.6-3 .6-4.4.6-3.1 0-5.1-5.8-4.9-5.8 3.7 0 6.4.6 8.6 3.9 5.1 3.2 1 5.2.1 9.3.7-.6 1.5-1.1 2.2-1.6 1.9 0-.5 3.6-.7 3.8.7-2.7-2-.6-2.5.3-.6-2-1.5-4.5-3.7-5.2-3.7-1.2-.6-2.1-2.3-4.3 1.6.6 5.4 6.3 6 7.9.6-3.2-3.2-4.5-4-7.1 2.6 0 4.4 3.5 4.4 6M592.5 29.1c-1 .1-1.7-.3-2.2-1 0-.8 1.6.4 1.9.4-1.8 0 1.8-3.6 1.8-1.4l-1.2-1.5 1.5-.9c0-.6-1.7.2-1.7-1.4 0-.5-2.1.8-2.1-.1.1-4.1 10.6 5.9 2 5.9zm-3.6-3.6c-.2-.3-.5-.5-.7-.8 0 1.1 1.8-1 1.4-1-.3 0 1.5 2.2 1.5.8-.2.3-.3.5-.5.8.3.2.7.4 1.1.5-.4.1-.7.2-1.1.3.1.3.3.5.4.8 0-.8-1.8.6-1.7.6.6 0-1.2-2.2-1.2-1.1.2-.3.5-.6.8-.9zm-.6 3.1c.6 0 .1 1.4.6 1.4 1.4 0 .3-.9 2.3-.1 2.8 1.1 5.8-1.2 5.8-4.1 0-4.6-5.4-4.4-8.2-4.4-.4 0 0 1.4-.4 1.4-.2 0-2.2-1.1-2.2-.8l1.2 2.1c-.4.3-.7.6-1.1.9.4.3.8.6 1.2 1-.4.5-.8.9-1.3 1.3.4.1.9.3 1.3.5 0 .1-1.1 2.2-.8 2.2.5-.6 1.1-1 1.6-1.4M579.8 61.5c0-.8-6 3.4-6 2.8 0 3 7.7 1.8 6.2-1.7 0 .1 3-.1 1.4-.9.8-.6-1.1-1.6-1.3-1.6-.6.4-.7.8-.3 1.4"/><path fill="#0081C0" d="M569.5 58c3.1.8 1.7 3.7 4.1 4.9 2.2 1 3.2-.9 1.4-2.3-2.2-1.6-1.4-.4-3.2-3.1-1.6-2.3-5.3-.2-2.3.5 1.5.4-1.2-.3 0 0zm5.3 4.2c-.6-.1-1.1-.4-1.4-.9 0-1.5 2.8.9 1.4.9"/><path fill="#0081C0" d="M573 47.6c0-1.9 3.9-1.8 2.6-4.3 3.3 1.8.4 2.8.4 4.9 0 2.1 2.4 1.2.8 3.8-.8 1.3-1.1 3.4 1 3.6-2.1.5-4.8-.9-4.8-3.3 0-2.7 2.8-1.8 2.8-1.9 0-1.1-2.8-1.2-2.8-2.8zm6 9.5c-.3.1-1.8 2-.7 2 .7 0 2.6-2.5 1.4-2.5-.2.2-.4.3-.7.5-.6.3.5-.2 0 0zm0-1.3c0-1.8-3-.9-1.1-3.6.5 2.7 5.7 3.2 2.3 6.9-4.8 5.2-7.4-3.8-7-3.8.4-.1 5.8 3.4 5.8.5M565.7 56.2c.2 2.1-2.9-.4-.8-.6.3.1.5.4.8.6 0 .4-.1-.4 0 0zm-3.5.7c.4 2.8 5.7 1.2 5.5-1.4-.3-2.7-5.8-1.2-5.5 1.4"/><g><rect x="536.4" y="136.2" fill="#3498DB" width="93.5" height="4.2"/><rect x="536.4" y="129.2" fill="#3498DB" width="93.5" height="4.2"/><rect x="536.4" y="122.2" fill="#3498DB" width="93.5" height="4.2"/><rect x="536.4" y="115.3" fill="#3498DB" width="93.5" height="4.2"/><rect x="536.4" y="143.2" fill="#3498DB" width="37.7" height="4.2"/></g></g><g id="alitalia"><rect x="512.1" y="89.6" transform="scale(-1) rotate(6.448 2970.162 -10077.522)" fill="#BE3D2F" width="111.2" height="155.5"/><rect x="513.3" y="88.8" transform="scale(-1) rotate(6.448 2956.608 -10099.199)" fill="#ECF0F1" width="111.2" height="155.5"/><path fill="#ED1C2E" d="M540.6 116.4c1.6.2 2.5-3.3 3.9-7l-8.2 6.5c1.5.2 2.7.3 4.3.5z"/><polygon fill="#008457" points="559.7,102.1 554.3,118.1 550,117.6 555.5,101.6"/><polygon fill="#008457" points="565.4,106.9 561.3,119 557,118.5 561.2,106.4"/><polygon fill="#008457" points="566.8,103 565.8,105.9 561.5,105.4 562.5,102.5"/><polygon fill="#008457" points="598.3,106.6 592.8,122.6 588.6,122.1 594,106.1"/><polygon fill="#008457" points="603.9,111.4 599.8,123.5 595.5,122.9 599.6,110.9"/><polygon fill="#008457" points="605.2,107.4 604.2,110.3 600,109.8 601,106.9"/><path fill="#008457" d="M568.4 104.6l4 .5-.8 2.4c1.5.2 2.9.3 4.4.5-.4 2.5-1.7 3.2-3.4 2.9l-1.9-.2-1.6 4.6s-.4 1.1.9 1.3l3.1.4-1.1 3.2-5.1-.6s-3.6-.2-2.5-3.4l4-11.6zM587.5 109.4s-3-1.2-6.6-.8c0 0-3.7.1-4.6 3.4l4.3.5s.6-1.7 2.7-1.4c0 0 1.9.1 1.6 1.3 0 0 0 .7-1.2 1l-6 .4s-2.7.1-3.7 3c0 0-.8 1.9.2 3 0 0 1.1 1.2 3.9 1.6 0 0 5.2.8 8.1.7l3-8.8c0-.1 1.3-3-1.7-3.9zm-4.8 9.7s-2.7-.1-3.8-.6c0 0-.8-.4-.4-1.5 0 0 .3-.9 1.4-1.1l3.9-.3-1.1 3.5zM615.7 112.7s-3-1.2-6.6-.7c0 0-3.7.1-4.5 3.4l4.3.5s.5-1.7 2.7-1.4c0 0 1.9.1 1.6 1.4 0 0 .1.7-1.3 1l-6 .4s-2.7.1-3.7 3c0 0-.7 1.9.2 3 0 0 1.1 1.2 3.9 1.6 0 0 5.1.8 8.1.7l3-8.8c.1-.2 1.4-3.1-1.7-4.1zm-4.7 9.7s-2.7-.1-3.7-.6c0 0-.8-.4-.4-1.5 0 0 .3-.9 1.4-1.1l3.9-.3-1.2 3.5zM549 102.9l-5 14c.8.1 1.6.2 2.3.3 1.7.2 2.4-1.2 3.3-3.8l4-12-5.9-.7c-1.7-.2-2.6.6-2.6.6l-17 13.8 5.2.6 15.7-12.8z"/><g><rect x="526.9" y="132.5" transform="rotate(7.115 571.99 134.625)" fill="#DCE4E8" width="90.2" height="4"/><rect x="526.1" y="139.2" transform="rotate(7.115 571.148 141.307)" fill="#DCE4E8" width="90.2" height="4"/><rect x="525.2" y="145.9" transform="rotate(7.115 570.33 147.985)" fill="#DCE4E8" width="90.2" height="4"/><g><rect x="520.4" y="184.6" transform="rotate(7.115 565.473 186.731)" fill="#DCE4E8" width="90.2" height="4"/><rect x="519.6" y="190.1" transform="rotate(7.115 554.622 192.157)" fill="#DCE4E8" width="70" height="4"/></g><g><rect x="523.8" y="156.7" transform="rotate(7.115 553.7 158.8)" fill="#B7BFC7" width="59.9" height="4"/><rect x="522.9" y="163.4" transform="rotate(7.115 552.863 165.477)" fill="#DCE4E8" width="59.9" height="4"/><rect x="522.1" y="170.1" transform="rotate(7.115 552.036 172.159)" fill="#DCE4E8" width="59.9" height="4"/><rect x="589.2" y="162.7" transform="rotate(7.115 600.969 171.495)" fill="#62C3ED" width="23.6" height="17.5"/></g></g></g><g id="enel"><path fill="#BE3D2F" d="M666.5 320.2c.2 2.6 2.6 4.6 5.2 4.3l100.2-9.1c2.6-.2 4.6-2.6 4.3-5.2l-13-143.1c-.2-2.6-2.6-4.6-5.2-4.3l-100.2 9.1c-2.6.2-4.6 2.6-4.3 5.2l.2 2.4-4.8.4.4 4.8 4.8-.4.4 4.8-4.8.4.4 4.8 4.8-.4.4 4.9-4.8.4.4 4.8 4.8-.4.4 4.7-4.8.4.4 4.8 4.8-.4.4 4.8-4.8.4.4 4.8 4.8-.4.4 4.9-4.8.4.4 4.8 4.8-.4.4 4.7-4.8.4.4 4.8 4.8-.4.4 4.8-4.8.4.4 4.8 4.8-.4.4 4.9-4.8.4.4 4.8 4.8-.4.4 4.7-4.8.4.4 4.8 4.8-.4.4 4.8-4.8.4.4 4.8 4.8-.4.4 4.9-4.8.4.4 4.8 4.8-.4.4 4.7-4.8.4.4 4.8 4.8-.4.4 4.6-4.8.4.4 4.8 4.8-.4.4 4.8-4.8.4.4 4.8 4.8-.4 1.2 1.7z"/><path fill="#ECF0F1" d="M778.5 307.6c.2 2.6-1.7 5-4.3 5.2L674 321.9c-2.6.2-5-1.7-5.2-4.3l-13-143.1c-.2-2.6 1.7-5 4.3-5.2l100.2-9.1c2.6-.2 5 1.7 5.2 4.3l13 143.1z"/><rect x="661.8" y="291.4" transform="rotate(-5.196 666.565 293.794) scale(1.00001)" fill="#E5E5E5" width="9.6" height="4.8"/><rect x="662.6" y="300.8" transform="rotate(-5.196 667.414 303.207) scale(1.00001)" fill="#E5E5E5" width="9.6" height="4.8"/><rect x="663.5" y="310.4" transform="rotate(-5.203 668.285 312.763) scale(1.00002)" fill="#E5E5E5" width="9.6" height="4.8"/><rect x="660.9" y="282" transform="rotate(-5.196 665.708 284.367) scale(1.00001)" fill="#E5E5E5" width="9.6" height="4.8"/><rect x="660" y="272.3" transform="rotate(-5.196 664.83 274.702) scale(1.00001)" fill="#E5E5E5" width="9.6" height="4.8"/><rect x="659.1" y="262.8" transform="rotate(-5.196 663.957 265.163) scale(1.00001)" fill="#E5E5E5" width="9.6" height="4.8"/><rect x="658.3" y="253.3" transform="rotate(-5.203 663.105 255.731) scale(1.00002)" fill="#E5E5E5" width="9.6" height="4.8"/><rect x="657.4" y="243.7" transform="rotate(-5.192 662.215 246.08)" fill="#E5E5E5" width="9.6" height="4.8"/><rect x="656.5" y="234.1" transform="rotate(-5.192 661.342 236.537)" fill="#E5E5E5" width="9.6" height="4.8"/><rect x="655.7" y="224.7" transform="rotate(-5.196 660.5 227.08) scale(1.00001)" fill="#E5E5E5" width="9.6" height="4.8"/><rect x="654.8" y="215" transform="rotate(-5.196 659.627 217.425) scale(1.00001)" fill="#E5E5E5" width="9.6" height="4.8"/><rect x="653.9" y="205.5" transform="rotate(-5.196 658.755 207.882) scale(1.00001)" fill="#E5E5E5" width="9.6" height="4.8"/><rect x="653.1" y="196.1" transform="rotate(-5.215 657.906 198.466) scale(1.00004)" fill="#E5E5E5" width="9.6" height="4.8"/><rect x="652.2" y="186.4" transform="rotate(-5.203 657.023 188.79) scale(1.00002)" fill="#E5E5E5" width="9.6" height="4.8"/><rect x="651.3" y="176.9" transform="rotate(-5.196 656.149 179.237) scale(1.00001)" fill="#E5E5E5" width="9.6" height="4.8"/><g><path fill="#EE3E28" d="M677.9 204.2c-2.9 1.6-4.8 4.1-8.3 4.5 6 4.9 11.4-4.3 16.8-4.3-2-2.2-6.3-1.5-8.5-.2z"/><path fill="#EE3E28" d="M678.7 198.7c-3.3.3-6.1 1.8-9.4.7 3.5 6.9 12.2.7 17.1 2.9-.9-2.8-5.2-3.8-7.7-3.6z"/><path fill="#EE3E28" d="M681.3 194c-3.1-1.1-6.3-1-8.8-3.3.3 7.7 10.7 5.7 14.3 9.9.4-3-3.1-5.8-5.5-6.6z"/><path fill="#EE3E28" d="M686 190.7c-2.3-2.3-5.3-3.5-6.6-6.8-3 7.1 7.3 9.8 8.7 15 1.7-2.5-.3-6.4-2.1-8.2z"/><path fill="#EE3E28" d="M691.5 189.8c-1.1-3.1-3.3-5.4-3.1-8.9-5.8 5.2 2.5 11.9 1.6 17.3 2.4-1.6 2.3-6 1.5-8.4z"/><path fill="#EE3E28" d="M696.9 191.2c.3-3.3-.7-6.3.9-9.4-7.4 2.2-2.8 11.9-5.9 16.3 3-.3 4.8-4.4 5-6.9z"/><path fill="#EE3E28" d="M701.1 194.9c1.7-2.8 2.1-6 4.9-8-7.7-1.2-7.6 9.4-12.4 12.1 2.8 1 6.2-1.9 7.5-4.1z"/><path fill="#EE3E28" d="M703.3 200.1c2.7-1.8 4.5-4.5 8-5.1-6.4-4.4-11 5.2-16.5 5.5 2.1 2.2 6.3 1.1 8.5-.4z"/><path fill="#EE3E28" d="M703.3 205.7c3.3-.4 6-2.1 9.4-1.1-3.8-6.7-12.2-.1-17.2-2.2.9 2.8 5.3 3.6 7.8 3.3zM694.5 204.1c.6 6.2 1.2 11.6 7 15.1-8.2.9-11.8-9.2-7-15.1z"/><path fill="#EE3E28" d="M687.3 204.8c.6 6.2 1.2 11.6-3.8 16.3 8.3-.8 9.7-11.5 3.8-16.3z"/><path fill="#0054A5" d="M724.6 203l-8.7.9c.4-4.4.8-8.7 1.2-13.1.4-3.9 5.4-2.7 8.9-3 .7 3.2-1.4 2.8-3.7 3.1-2.9.3-2.3.8-2.6 3.7 1.7-.2 3.5-.4 5.2-.5.7 3.2-1.8 2.7-4.1 2.9-2.2.2-1.5 2-1.7 4l5.7-.6c0 .7.1 1.8-.2 2.6zm11.3-1.2c-.8.3-2 .2-2.8.3.1-1.4 1.4-13-2.9-7.8-2.2 2.7.8 9.5-4.3 8.5.3-3.2-1-12.5 3.8-11.6-.1.6-.1 1.2-.2 1.8 2-2.8 7.5-3.6 7.1 1.1-.2 2.6-.4 5.2-.7 7.7zm11.8-5.9c-2.3.2-4.7.5-7 .7-1 .1 0 1.7.4 2 1.5 1.3 4.2.2 5.7-.6.9 4.7-11.5 4.8-8.9-3.5 1.9-6.5 10.9-6.2 9.8 1.4zm-2.8-1.7c.3-3.8-4.1-2.4-4.4.5 1.5-.2 3-.4 4.4-.5zm6.2 6.1c-.8.3-1.9.2-2.8.3.4-3.7-.8-16.4 4.4-15.6-.5 5.1-1.1 10.2-1.6 15.3z"/></g></g><g id="equitalia"><rect x="820.7" y="185" transform="matrix(-.9984 -.0563 .0563 -.9984 1736.427 574.313)" fill="#BE3D2F" width="111.1" height="155.4"/><rect x="821.9" y="184.1" transform="matrix(-.9984 -.0563 .0563 -.9984 1738.7 572.611)" fill="#F5ECD9" width="111.1" height="155.4"/><path fill="#0057A4" d="M889.3 214.3l-1.9-.1.2-3.2c-.5.6-1.2.7-2 .7-1.8-.1-2.7-1.8-2.6-3.5.1-1.9 1.4-3.1 3.3-3 .9.1 1.6.6 1.9 1.1l.1-.8 1.8.1-.8 8.7m-2.8-7.4c-1-.1-1.6.5-1.6 1.5-.1.9.5 1.6 1.4 1.7 1 .1 1.6-.5 1.6-1.5.1-1-.5-1.7-1.4-1.7zM896.6 212.3l-1.9-.1.1-.8c-.3.5-1 .9-1.9.9-2-.1-2.2-1.4-2.1-3.1l.2-3.4 1.9.1-.2 3.1c0 .7-.1 1.6.9 1.7 1 .1 1.2-.7 1.3-1.5l.2-3.1 1.9.1-.4 6.1M899.6 203.1c.6 0 1.1.6 1 1.2 0 .6-.6 1.1-1.2 1-.6 0-1.1-.6-1-1.2 0-.6.6-1 1.2-1m-1.2 3l1.9.1-.4 6.2-1.9-.1.4-6.2zM906.2 208.2l-1.8-.1-.1 2.1c0 .7 0 1.2.8 1.2.2 0 .8 0 .9-.1l-.1 1.6c-.4.1-1 .1-1.5.1-1.3-.1-2.2-.7-2.1-2l.2-3-1.2-.1.1-1.5 1.2.1.1-1.9 1.9.1-.1 1.9 1.8.1-.1 1.5M911 212.5c-.5.6-1.3.9-2.1.8-1.2-.1-2.2-.8-2.1-2.1.1-2.2 2.8-2 4.4-1.9 0-.7-.5-1.2-1.2-1.2-.6 0-1.2.2-1.6.6l-1-1.1c.8-.6 1.8-.9 2.8-.8 2.2.2 2.8 1.3 2.6 3.4l-.2 3.2-1.8-.1.2-.8m-.3-2c-.6 0-1.9-.1-2 .8 0 .5.4.7.9.7.8.1 1.5-.3 1.5-1.1v-.4h-.4z"/><rect x="914.2" y="203.5" transform="rotate(-176.088 915.176 208.497) scale(1.00003)" fill="#0057A4" width="1.9" height="10.1"/><path fill="#0057A4" d="M918.8 204.4c.6 0 1.1.6 1 1.2 0 .6-.6 1.1-1.2 1-.6 0-1.1-.6-1-1.2.1-.6.6-1 1.2-1m-1.2 3l1.9.1-.4 6.2-1.9-.1.4-6.2zM924.5 213.4c-.5.6-1.3.9-2.1.8-1.2-.1-2.2-.8-2.1-2.1.1-2.2 2.8-2 4.4-1.9 0-.7-.5-1.2-1.2-1.2-.6 0-1.2.2-1.6.6l-1-1.1c.8-.6 1.8-.9 2.8-.8 2.2.2 2.8 1.3 2.6 3.4l-.2 3.2-1.8-.1.2-.8m-.3-2c-.6 0-1.9-.1-2 .8 0 .5.4.7.9.7.8.1 1.5-.3 1.5-1.1v-.4h-.4z"/><polyline fill="#0057A4" points="875.5,200.7 882.3,201.2 882.2,203.2 877.6,202.9 877.4,204.8 881.8,205.1 881.6,207.1 877.3,206.8 877.2,208.9 882,209.2 881.9,211.2 874.8,210.8 875.5,200.7"/><path fill="#7F94C8" d="M848.1 209h-.3c-.3 0-.6-.3-.6-.7l.6-9.5-14.5 5.6c-.1.1-.2.2-.2.3 0 .1.1.3.2.4l18.8 10.4c.1 0 .2.1.2.1.4 0 .6-.2.7-.6l.6-8.2-5.5 2.2"/><path fill="#0057A4" d="M868.2 201.2c.1-.1.2-.2.2-.3 0-.1-.1-.3-.2-.3l-18.8-10.4c-.1-.1-.2-.1-.3-.1-.3 0-.7.2-.7.6l-.6 8.2 5.7-2.2c.2-.1.5-.1.6.1.1.1.1.2.1.3l-.1.8c0 .4-.2.7-.4.8l-4.2 1.7-.1 2 3.5-1.3c.2-.1.5-.1.6.1.1.1.1.2.1.3l-.1.8c0 .4-.2.7-.4.8l-3.8 1.5-.1 2.1 3.8-1.5c.2-.1.5-.1.6.1.1.1.1.2.1.3l-.1 1.4 14.6-5.8"/><g><rect x="835.5" y="232" transform="rotate(2.944 880.656 234.025) scale(1.00002)" fill="#DCE4E8" width="90.2" height="4"/><rect x="835.2" y="238.7" transform="rotate(2.944 880.309 240.75) scale(1.00002)" fill="#DCE4E8" width="90.2" height="4"/><rect x="834.9" y="245.4" transform="rotate(2.944 879.975 247.465) scale(1.00002)" fill="#DCE4E8" width="90.2" height="4"/></g></g><g id="infostrada"><rect x="810.3" y="219.5" transform="matrix(-.9999 .0121 -.0121 -.9999 1735.195 583.933)" fill="#BE3D2F" width="111.1" height="155.4"/><rect x="811.1" y="218.3" transform="matrix(-.9999 .0121 -.0121 -.9999 1736.928 581.626)" fill="#FFF" width="111.1" height="155.4"/><path fill="#EA690B" d="M824.6 266.5l-.1-7.5h2l.1 7.5h-2zm3.6-.1h1.9l-.1-5.6 4 5.5h2.5l-.1-7.5h-1.9l.1 5.6-3.9-5.5h-2.5v7.5zm10.3-.1h2V263l3.4-.1v-1.2l-3.4.1V260l3.6-.1v-1.2l-5.6.1v7.5zm6.8-3.9c0-2.3 1.7-3.9 4.9-3.9s5 1.5 5 3.8-1.7 3.9-4.9 4c-3.3 0-5-1.6-5-3.9zm2.1 0c0 1.3.8 2.7 2.9 2.7 2.1 0 2.8-1.4 2.8-2.7 0-1.3-.9-2.6-2.9-2.6-2-.1-2.8 1.3-2.8 2.6zm15-3.8c-.7-.2-1.6-.2-2.4-.2-1.8 0-3.5.7-3.5 2.3 0 2.5 4.5 1.8 4.5 3.2 0 .7-1 1-1.8 1s-1.6-.2-2.3-.4l-.2 1.4c1 .2 1.5.3 2.6.2 2 0 3.8-.7 3.8-2.3 0-2.5-4.5-1.9-4.5-3.2 0-.8.9-1.1 1.6-1.1.7 0 1.4.1 2.1.3l.1-1.2zm3.9 7.2h2l-.1-6.3h2.9v-1.2l-7.8.1v1.2h2.9l.1 6.2zm8.1-6.4v2h.7c1 0 2.1-.1 2.1-1.1 0-.9-1.1-1-2.2-.9h-.6zm-1.9 6.3l-.1-7.5h2.2c2.2 0 4.8-.1 4.8 1.9 0 .9-.8 1.6-2.1 1.8.6 0 .9.4 1.1.8l1.7 2.9h-2.3l-1.3-2.3c-.3-.6-.6-.8-1.4-.8h-.7v3.1l-1.9.1zm14.8-3.1l-1.5-3.1-1.4 3.1h2.9zm-6.5 3l3.8-7.5h2.3l4.1 7.4h-2.2l-.9-1.7-4.1.1-.9 1.7h-2.1zm10.9-.2l-.1-7.5h2.8c3.1 0 5.9.7 5.9 3.6 0 3-2.7 3.8-5.8 3.8l-2.8.1zm2-6.3l.1 5.1h1.1c1.7 0 3.3-1 3.3-2.6s-1.7-2.5-3.4-2.5h-1.1zm13.1 3.2l-1.5-3.1-1.4 3.1h2.9zm-6.5 3l3.8-7.5h2.3l4.1 7.4h-2.3l-.9-1.7-4.1.1-.9 1.7h-2z"/><path fill="#14267B" d="M853.9 250.6s1.6 2 2.1 2.7c.6.6 1.2 1.5 1.9 1.5.8 0 1.7-1.2 2-1.4.5-.4.8-.4 1.1-.4.9-.1 2.8 1 4 1 3.2-.1 5.8-2.6 7.1-3.7 1.2-1.2 2-1.9 2-1.9s.4.1.1.7c-.2.5-3.5 5.9-9.1 6.2-2.5.1-2.9-1.2-4.3-1-.9.1-1.8 1.9-3.5 1.9-1.4 0-3.5-4.2-3.5-4.2s-.7-1.3.1-1.4z"/><path fill="#EA690B" d="M860 252c.7-.2 1.1-.8.9-1.3-.2-.5-.8-.7-1.5-.5-.7.2-1.1.8-.9 1.3.1.4.8.7 1.5.5z"/><g><rect x="829.4" y="338.6" transform="rotate(-.959 867.691 340.538) scale(1.00004)" fill="#F5ECD9" width="76.4" height="3.9"/><rect x="829.2" y="326.9" transform="rotate(-.959 867.48 328.791) scale(1.00004)" fill="#F5ECD9" width="76.4" height="3.9"/><rect x="829" y="315.1" transform="rotate(-.959 867.286 317.044) scale(1.00004)" fill="#F5ECD9" width="76.4" height="3.9"/><rect x="828.8" y="303.4" transform="rotate(-.959 867.086 305.292) scale(1.00004)" fill="#F5ECD9" width="76.4" height="3.9"/><rect x="828.6" y="291.6" transform="rotate(-.959 866.88 293.545) scale(1.00004)" fill="#F5ECD9" width="76.4" height="3.9"/><rect x="828.4" y="279.9" transform="rotate(-.959 866.692 281.793) scale(1.00004)" fill="#3498DB" width="76.4" height="3.9"/></g></g><g id="nintendo"><rect x="511.8" y="127.8" transform="rotate(-175.212 567.379 205.535) scale(.99999)" fill="#BE3D2F" width="111.1" height="155.4"/><rect x="513" y="127" transform="rotate(-175.212 568.548 204.708) scale(.99999)" fill="#F5F7FA" width="111.1" height="155.4"/><path fill="#EC1C2E" d="M536.2 165.2c-4.2-.4-6.8-3.6-6.5-7.3.3-3.6 3.4-6.4 7.7-6.1l40 3.5c4.2.4 6.8 3.7 6.5 7.3-.3 3.6-3.4 6.4-7.7 6l-40-3.4z"/><path fill="#FFF" d="M537.3 153.5c-3.4-.3-5.6 1.8-5.9 4.6-.2 2.8 1.6 5.2 5 5.5l40 3.5c3.4.3 5.6-1.8 5.9-4.6s-1.6-5.2-5-5.5l-40-3.5z"/><polygon fill="#EC1C2E" points="535.4,155.2 537.3,155.4 539.7,160 540,155.7 542,155.8 541.4,162.1 539.5,161.9 537.2,157.3 536.8,161.7 534.8,161.5"/><polygon fill="#EC1C2E" points="552.5,157.4 554.4,157.6 554.3,158.4 555.3,158.5 555.3,159.1 554.2,159 553.9,163.2 552,163 552.3,158.9 551.3,158.8 551.4,158.2 552.4,158.2"/><polygon fill="#EC1C2E" points="542.9,158 544.8,158.2 544.4,162.4 542.5,162.2"/><polygon fill="#EC1C2E" points="543.1,155.9 545,156.1 544.8,157.4 542.9,157.2"/><path fill="#EC1C2E" d="M576.5 163s-.1.6-.1.9c-.1.7-.5.9-.9.9s-.8-.3-.7-1c0-.3.1-.9.1-.9s.1-.6.1-.9c.1-.7.5-.9.9-.9s.7.3.7 1c0 .3 0 .8-.1.9zm-.5-2.4c-1.5-.1-2.9.8-3 2.1-.1 1.3 1 2.5 2.6 2.6 1.5.1 2.9-.8 3-2.1.1-1.3-1.1-2.4-2.6-2.6zM570.9 158.4l1.9.2-.6 6.3-1.9-.2v-.2c-.8.4-1.6.3-2.2 0-.2-.1-1.2-.7-1.1-2.2.1-1.1 1.2-2.2 2.6-2 .4.1.7.3 1 .5.2-1.1.3-2.4.3-2.4zm-.3 4.1s0-.5.1-.7c.1-.6-.4-.8-.7-.9-.3 0-.8.1-.8.7 0 .2-.1.7-.1.7s0 .5-.1.7c-.1.6.4.9.7.9.3 0 .8-.1.8-.7 0-.2.1-.7.1-.7zM549.2 158.4c.7 0 2.1.6 1.9 2.3 0 .3-.2 2.3-.2 2.3l-1.9-.2s.2-2.5.2-2.7c0-.4-.3-.8-.8-.8s-.9.3-1 .7c0 .2-.2 2.7-.2 2.7l-1.9-.2.4-4.2 1.9.2v.4c.4-.3 1-.6 1.6-.5zM564.5 159.7c.7 0 2.1.6 1.9 2.3 0 .3-.2 2.3-.2 2.3l-1.9-.2s.2-2.5.2-2.7c0-.4-.3-.8-.8-.8s-.9.3-1 .7c0 .2-.2 2.7-.2 2.7l-1.9-.2.4-4.2 1.9.2v.4c.5-.3 1-.5 1.6-.5zM556.9 160.7c0-.4.1-.6.2-.8.2-.2.5-.3.7-.3.2 0 .5.2.6.4.1.2.1.5.1.8l-1.6-.1zm1.5 1.4v.3c-.1.8-.6.9-.9.9-.3 0-.8-.2-.7-1 0-.2.1-.9.1-.9l3.6.3c.1-1.3-1-2.5-2.6-2.6-1.5-.1-2.9.8-3 2.1-.1 1.3 1 2.5 2.6 2.6 1.3.1 2.4-.5 2.8-1.5l-1.9-.2zM578.9 160.6h-.2l.1-1.4h.5c.3 0 .5.2.5.5s-.2.4-.4.4l.4.7h-.2l-.3-.7h-.2l-.2.5zm.3-.8c.2 0 .3 0 .4-.2 0-.2-.1-.2-.3-.2h-.3v.4h.2z"/><path fill="#EC1C2E" d="M578 159.8c.1-.7.7-1.2 1.4-1.1.7.1 1.2.6 1.1 1.3-.1.7-.7 1.2-1.4 1.1-.7 0-1.2-.6-1.1-1.3zm1.1 1.1c.6 0 1-.4 1.1-.9.1-.6-.4-1.1-.9-1.1-.6 0-1 .4-1.1.9 0 .6.4 1.1.9 1.1z"/><g><rect x="517.7" y="224.8" transform="rotate(4.963 566.805 227.036) scale(1.00005)" fill="#AAB2BD" width="98.2" height="4.4"/><rect x="518.3" y="217.5" transform="rotate(4.963 567.45 219.738) scale(1.00005)" fill="#AAB2BD" width="98.2" height="4.4"/><rect x="519" y="210.3" transform="rotate(4.963 568.07 212.443) scale(1.00005)" fill="#AAB2BD" width="98.2" height="4.4"/><rect x="519.6" y="203" transform="rotate(4.963 568.71 205.144) scale(1.00005)" fill="#AAB2BD" width="98.2" height="4.4"/><rect x="593.7" y="152.6" transform="rotate(4.963 608 154.83) scale(1.00005)" fill="#AAB2BD" width="28.6" height="4.4"/><rect x="593" y="160" transform="rotate(4.963 607.368 162.182) scale(1.00005)" fill="#AAB2BD" width="28.6" height="4.4"/><rect x="592.4" y="167.3" transform="rotate(4.963 606.714 169.482) scale(1.00005)" fill="#AAB2BD" width="28.6" height="4.4"/><rect x="591.8" y="174.6" transform="rotate(4.963 606.1 176.776) scale(1.00005)" fill="#AAB2BD" width="28.6" height="4.4"/><rect x="517.2" y="229.6" transform="rotate(4.963 537.011 231.8) scale(1.00005)" fill="#AAB2BD" width="39.6" height="4.4"/></g></g><g id="peroni"><path fill="#BE3D2F" d="M683.2 390.8c.7 2.5 3.4 4 5.9 3.3l96.8-27.7c2.5-.7 4-3.4 3.3-5.9l-39.5-138.1c-.7-2.5-3.4-4-5.9-3.3L647 246.8c-2.5.7-4 3.4-3.3 5.9l.7 2.3-4.6 1.3 1.3 4.6 4.6-1.3 1.3 4.6-4.6 1.3 1.3 4.6 4.6-1.3 1.3 4.7-4.6 1.3 1.3 4.6 4.6-1.3 1.3 4.5-4.6 1.3 1.3 4.6 4.6-1.3 1.3 4.6-4.6 1.3 1.3 4.6 4.6-1.3 1.3 4.7-4.6 1.3 1.3 4.6 4.6-1.3 1.3 4.5-4.6 1.3 1.3 4.6 4.6-1.3 1.3 4.6-4.6 1.3 1.3 4.6 4.6-1.3 1.4 4.7-4.6 1.3 1.3 4.6 4.6-1.3 1.3 4.5-4.6 1.3 1.3 4.6 4.6-1.3 1.3 4.6-4.6 1.3 1.3 4.6 4.6-1.3 1.4 4.7-4.6 1.3 1.3 4.6 4.6-1.3 1.3 4.5-4.6 1.3 1.3 4.6 4.6-1.3 1.3 4.5-4.4 1.5 1.3 4.6 4.6-1.3 1.3 4.6-4.6 1.3 1.3 4.6 4.6-1.3.7 2.3z"/><path fill="#FFF" d="M790.8 357.5c.7 2.5-.8 5.2-3.3 5.9l-96.8 27.7c-2.5.7-5.2-.8-5.9-3.3l-39.5-138.1c-.7-2.5.8-5.2 3.3-5.9l96.8-27.7c2.5-.7 5.2.8 5.9 3.3l39.5 138.1z"/><rect x="673.5" y="362.5" transform="rotate(-15.971 678.257 364.985)" fill="#E5E5E5" width="9.6" height="4.8"/><rect x="676.1" y="371.7" transform="rotate(-15.956 680.853 374.046)" fill="#E5E5E5" width="9.6" height="4.8"/><rect x="678.7" y="380.8" transform="rotate(-15.971 683.52 383.19)" fill="#E5E5E5" width="9.6" height="4.8"/><rect x="670.9" y="353.4" transform="rotate(-15.971 675.733 355.775)" fill="#E5E5E5" width="9.6" height="4.8"/><rect x="668.2" y="344.1" transform="rotate(-15.956 672.964 346.456)" fill="#E5E5E5" width="9.6" height="4.8"/><rect x="665.6" y="334.9" transform="rotate(-15.963 670.391 337.312)" fill="#E5E5E5" width="9.6" height="4.8"/><rect x="663" y="325.8" transform="rotate(-15.971 667.76 328.141)" fill="#E5E5E5" width="9.6" height="4.8"/><rect x="660.4" y="316.4" transform="rotate(-15.95 665.202 318.826)" fill="#E5E5E5" width="9.6" height="4.8"/><rect x="657.7" y="307.3" transform="rotate(-15.963 662.541 309.704)" fill="#E5E5E5" width="9.6" height="4.8"/><rect x="655.1" y="298.1" transform="rotate(-15.956 659.832 300.532)" fill="#E5E5E5" width="9.6" height="4.8"/><rect x="652.4" y="288.8" transform="rotate(-15.956 657.165 291.206)" fill="#E5E5E5" width="9.6" height="4.8"/><rect x="649.8" y="279.6" transform="rotate(-15.963 654.573 282.012)" fill="#E5E5E5" width="9.6" height="4.8"/><rect x="647.1" y="270.5" transform="rotate(-15.963 651.952 272.913)" fill="#E5E5E5" width="9.6" height="4.8"/><rect x="644.5" y="261.2" transform="rotate(-15.971 649.342 263.52)" fill="#E5E5E5" width="9.6" height="4.8"/><rect x="641.9" y="252" transform="rotate(-15.945 646.678 254.364)" fill="#E5E5E5" width="9.6" height="4.8"/><g><linearGradient id="SVGID_2_" gradientUnits="userSpaceOnUse" x1="651.144" y1="-403.555" x2="726.575" y2="-423.766" gradientTransform="rotate(-1.621 24253.144 -703.794)"><stop offset=".004" stop-color="#caaa68"/><stop offset=".1" stop-color="#f0e5cd"/><stop offset=".18" stop-color="#caaa68"/><stop offset=".26" stop-color="#7d5c25"/><stop offset=".354" stop-color="#eddebc"/><stop offset=".577" stop-color="#d0ad6c"/><stop offset=".618" stop-color="#7d5c25"/><stop offset=".691" stop-color="#d1ad69"/><stop offset=".78" stop-color="#f5ebd2"/><stop offset=".863" stop-color="#d5b271"/><stop offset=".945" stop-color="#f6eed8"/><stop offset="1" stop-color="#d5b271"/></linearGradient><path id="SVGID_1_" fill="url(#SVGID_2_)" d="M744.8 264.1c-.4.1-1 0-1.6-.4-1.2-.8-3.3-2.3-3.3-2.3-.7.2-58.8 17.4-59 17.5 0 0-1.3 3-1.8 4-.3.6-.7 1-1.1 1.1-.4.1-.9 0-1.3-.4-1.9-1.9-4.8-5.6-7.4-14.3-2.6-8.7-2.1-14.4-1.5-16.8.1-.5.4-.7.6-.8.3-.1.7 0 .9.2.5.3 4.1 2.8 4.1 2.8.7-.2 58.1-17.2 59-17.5 0 0 1.7-3.9 2-4.5.2-.5.5-.8.8-.9.3-.1.6 0 .9.3 1.8 1.7 5.4 6.2 8 15 2.6 8.8 2 13.4 1.6 16.1-.2.4-.5.8-.9.9"/><path fill="#FFF" d="M742 247.5c-.4-1.3-.9-2.5-1.3-3.7-.6-1.6-1.3-3.1-2-4.6-.7-1.4-1.4-2.7-2.4-3.9-.4-.5-.6-.2-.8.3-.1.4-1.2 3-1.2 3-.6.2-61.4 18.2-61.4 18.2s-2.5-1.8-2.8-2c-.3-.2-.6-.1-.6.3 0 3.5.1 6.7.9 10.2.9 3.8 2.1 7.5 3.9 11 .8 1.5 1.8 3 2.8 4.3.3.4.6.1.7-.2.1-.1 1.3-3 1.3-3 .9-.3 60.5-17.9 61.2-18.2 0 0 2.2 1.6 2.6 1.9.4.3.7.1.8-.3.7-4.2-.3-9-1.7-13.3"/><path fill="#B01F24" d="M743.1 260.5c-.3-.2-2.7-1.9-2.7-1.9l-61.8 18.3s-1 2.3-1.3 3c-1-1.2-1.9-2.6-2.6-3.9-1.1-2.1-2-4.5-2.9-7.4-.3-1.1-.6-2.2-.9-3.5-.8-3.2-.9-6.2-.9-9.6.7.5 2.1 1.5 2.4 1.7l.2.2 62-18.4.1-.3s1-2.6 1.1-2.9c.8 1 1.5 2.2 2.1 3.5.8 1.6 1.4 3.1 2 4.6.5 1.3.9 2.5 1.3 3.6.2.5.3 1 .5 1.5 1.5 4.6 1.9 8.4 1.4 11.5"/><g fill="#888A8C"><path d="M679.3 262.9c.2.6.5 1.8.7 2.3.5-.2 1.5-.4 1.5-.4.9-.3.8-.8.7-.9l-.3-.9c-.1-.5-.5-.6-1.2-.4.1-.1-.8.2-1.4.3m2.9 9.6l-3.9 1.2-3.9-13 5.6-1.7c2.1-.6 4.7 0 5.6 2.8l.3 1c.7 2.5-.6 4.6-3.3 5.4 0 0-1 .3-1.5.5.2.7 1.1 3.8 1.1 3.8M698.2 267.8l-9.2 2.7-3.9-13 8.9-2.6 1 3.4s-4.3 1.3-5 1.5c.1.5.3 1.1.5 1.5.7-.2 2.9-.9 2.9-.9l1 3.5c-2.3.7-2.9.9-2.9.9s.2.8.3 1.1c.8-.2 5.3-1.6 5.3-1.6l1.1 3.5M734 257.2l-3.4 1s-3.3-3.1-5-4.6c.1.5 1.7 5.6 1.7 5.6l-3.9 1.1-3.9-13 3.5-1 4.8 4.5c-.1-.5-1.6-5.4-1.6-5.4l3.9-1.1 3.9 12.9"/><polyline points="739.7,255.5 735.8,256.6 731.9,243.6 735.8,242.5 739.7,255.5"/><path d="M713.5 252.4h-.1c-.4.1-.8.3-1.3.5.2.9.4 1.8.7 2.8l.3 1c.3 1.1.6 2 .9 2.8.5-.1 1.3-.3 1.3-.3l.6-.2s.8-.3 1.3-.4c-.2-.8-.4-1.8-.7-2.8l-.3-1c-.4-1.2-.7-2.1-.9-2.8-.4.1-.9.2-1.3.3-.2 0-.4.1-.5.1m3.4 9.9l-.6.2c-4 1.2-4.2 1.1-4.5.9-.5-.4-1.5-2.5-2.4-5.5l-.3-1c-.8-2.8-1-5.1-.9-5.6v-.1l.1-.1c.3-.4 1.7-.9 4.2-1.7l.6-.2c1.7-.5 3.9-1 4.4-.9h.1l.1.1c.4.3 1.5 2.3 2.3 5.2l.3 1c.9 3 1.2 5.4 1 5.9-.3.5-.4.6-4.4 1.8M700.5 256.6c.2.6.5 1.9.7 2.4.6-.2 1.7-.5 1.7-.5.2 0 1-.3.8-1l-.3-.9c-.2-.7-.9-.6-1.2-.5 0 0-1.1.3-1.7.5m9.4 7.7l-4.1 1.2s-2.6-3-3-3.4c-.2.1-.3.1-.6.2.2.7 1.2 3.9 1.2 3.9l-3.9 1.2-3.9-13 5.9-1.8c2-.6 4.7-.3 5.6 2.6l.4 1.3c.4 1.4 0 2.7-1.1 3.8.5.5 3.5 4 3.5 4"/></g><g fill="#231F20"><path d="M674.6 260.2l-.7.2 3.9 13 3.9-1.2s-.9-3.1-1.1-3.8l1.5-.5c2.7-.8 4-2.9 3.3-5.4l-.3-1c-.8-2.8-3.5-3.4-5.6-2.8l-4.9 1.5m5.7 2c.6-.2 1-.1 1.2.4l.3.9c0 .2.2.7-.8.9 0 0-.9.3-1.5.4-.2-.6-.5-1.7-.7-2.3.6 0 1.5-.3 1.5-.3zM693.2 254.6l-8.5 2.5 3.9 13 9.2-2.7-1-3.4s-4.5 1.3-5.2 1.6c-.1-.3-.3-1.1-.3-1.1s.7-.2 2.9-.9l-1-3.5s-2.3.7-2.9.9c-.1-.5-.3-1.1-.5-1.5.8-.2 5-1.5 5-1.5l-1-3.5-.6.1M695.8 253.9l-.7.2 3.9 13 3.9-1.2s-.9-3.2-1.2-3.9c.3-.1.4-.1.6-.2.4.4 3 3.4 3 3.4l4.1-1.2s-3.1-3.5-3.5-4c1.1-1.1 1.4-2.4 1.1-3.8l-.4-1.3c-.9-2.9-3.5-3.2-5.6-2.6l-5.2 1.6m5.9 1.9c.3-.1 1-.2 1.2.5l.3.9c.2.7-.6 1-.8 1 0 0-1.1.3-1.7.5-.2-.6-.6-1.9-.7-2.4.6-.2 1.7-.5 1.7-.5zM729.1 244l-3.4 1s1.5 4.9 1.6 5.4l-4.8-4.5-3.5 1 3.9 13 3.9-1.1s-1.5-5.1-1.7-5.6c1.6 1.5 5 4.6 5 4.6l3.4-1-3.9-13-.5.2"/><polyline points="734.8,242.3 731.4,243.3 735.3,256.3 739.2,255.2 735.3,242.1 734.8,242.3"/><path d="M707.7 250.8l-.1.2c-.2.5.1 2.9.9 5.6l.3 1c.9 2.9 1.9 5.1 2.4 5.5.3.2.5.3 4.5-.9l.6-.2c4-1.2 4.1-1.4 4.3-1.7.2-.6-.1-2.9-1-5.9l-.3-1c-.8-2.8-1.9-4.8-2.3-5.2l-.1-.1h-.1c-.5-.2-2.7.3-4.4.8l-.6.2c-2.4.8-3.9 1.4-4.1 1.7m5.1 1.4l.5-.2c.4-.1.9-.2 1.3-.3.2.6.6 1.6.9 2.8l.3 1c.3 1.1.6 2 .7 2.8-.5.2-1.3.4-1.3.4l-.6.2s-.8.2-1.3.3c-.3-.8-.6-1.7-.9-2.8l-.3-1c-.3-1-.5-2-.7-2.9.5 0 1-.2 1.4-.3z"/></g><g fill="#FFF"><path d="M679.7 259.1l-5.1 1.5 3.6 12.1 2.9-.9s-1-3.5-1.1-3.8c.4-.1 2-.6 2-.6 2.5-.7 3.6-2.6 2.9-4.9l-.3-1c-.7-2.4-3-2.9-4.9-2.4m2.5 4.3c.3 1-.7 1.4-1.1 1.5 0 0-1.6.5-1.9.6-.1-.4-.8-2.9-1-3.2.4-.1 1.9-.6 1.9-.6.3-.1 1.5-.4 1.8.7l.3 1zM693.1 255.1l-7.8 2.3 3.6 12.1 8.2-2.4-.8-2.5-5.3 1.6-.6-2 2.9-.9-.8-2.6-2.9.9s-.6-2.1-.7-2.4c.4-.1 5-1.5 5-1.5l-.8-2.5v-.1M706.5 256.4l-.4-1.3c-.8-2.5-3.1-2.8-5-2.3l-5.4 1.6 3.6 12.1 2.9-.9s-1-3.5-1.2-3.9c.3-.1 1.2-.4 1.4-.4.2.2 3 3.4 3 3.4l3.1-.9s-3.1-3.5-3.3-3.7c1.3-1.2 1.7-2.3 1.3-3.7m-2.8.6c.2.8-.4 1.4-1.1 1.6 0 0-1.8.5-2.2.6-.1-.3-.9-3-1-3.3.4-.1 2.2-.6 2.2-.6.7-.2 1.6-.1 1.9.8l.2.9zM729 244.5l-2.7.8 1.5 5.2.5 1.5-.4-.4-5.5-5.2-2.8.8 3.6 12.1 2.9-.9-1.6-5.4-.5-1.5c.2.2.4.3.4.3h.1l5.7 5.3 2.6-.8-3.6-12.1-.2.3"/><polyline points="734.7,242.8 732,243.6 735.6,255.7 738.6,254.8 735,242.7 734.7,242.8"/><path d="M716.8 248.5c-.3-.1-2.4.3-4.2.8l-.6.2c-1.7.5-3.7 1.2-3.9 1.5-.1.4 0 2.5.9 5.4l.3 1c1 3.3 2 5.1 2.2 5.3.2.1.6.1 4.1-1l.6-.2c3.5-1.1 3.9-1.3 4-1.4.1-.3 0-2.3-1-5.6l-.3-1c-.8-2.9-1.9-4.8-2.1-5m-.4 6.8c.4 1.3.7 2.4.9 3.3-.2.1-1.7.6-1.7.6l-.6.2s-1.4.4-1.8.5c-.3-.9-.7-1.9-1.1-3.2l-.3-1c-.4-1.5-.7-2.6-.8-3.3.5-.2 1.1-.4 1.7-.6l.6-.2c.6-.2 1.2-.3 1.7-.4.3.7.7 1.7 1.1 3.2l.3.9z"/></g></g><g><rect x="677.6" y="288.2" transform="rotate(-16.116 717.718 290.033)" fill="#B7BFC7" width="80.3" height="3.6"/><rect x="679.3" y="293.9" transform="rotate(-16.116 719.394 295.818)" fill="#DCE4E8" width="80.3" height="3.6"/><rect x="680.9" y="299.7" transform="rotate(-16.116 721.059 301.611)" fill="#DCE4E8" width="80.3" height="3.6"/><rect x="682.6" y="305.5" transform="rotate(-16.116 722.728 307.4)" fill="#DCE4E8" width="80.3" height="3.6"/></g></g><g id="sapienza"><rect x="511.3" y="180.5" transform="matrix(-.9986 -.0522 .0522 -.9986 1119.416 545.604)" fill="#BE3D2F" width="111.1" height="155.4"/><rect x="512.4" y="179.6" transform="matrix(-.9986 -.0522 .0522 -.9986 1121.795 543.99)" fill="#FFF" width="111.1" height="155.4"/><path fill="#8B2332" d="M538.9 191.8c-5.7-.3-10.6 5.1-11 11.9-.3 6.9 4 12.7 9.8 12.9 5.7.3 10.6-5.1 11-11.9.3-6.9-4.1-12.6-9.8-12.9M563.2 204.7c-.1 1.8-1.8 2.8-3.7 2.8-.7 0-2.1-.3-2.8-.9l.2-.4c.5.5 2 1 2.6 1 1.4.1 2.8-.7 2.9-2.2 0-.9-.7-1.4-1.5-1.8-.7-.4-1.6-.8-2.3-1.2-1.1-.6-1.5-1.4-1.4-2.5 0-1.4 1-2.8 3.5-2.7.6 0 1.5.2 2.2.4v1.6c0 .2 0 .2-.1.2s-.1 0-.2-.7c-.1-.6-.8-1.1-2-1.1-1.1-.1-2.6.6-2.7 2-.2 2.5 5.5 2 5.3 5.5M568.8 204l-2.8-.1 1.6-3.3 1.2 3.4zm2.3 3.8l-3-8.3c0-.1-.1-.1-.1-.1h-1l.1.3c.1.2.1.4 0 .5l-3.6 7.4.7-.1 1.5-3.2 3.1.1 1.2 3.5 1.1-.1zM577.7 202.1c-.1 1.5-1.2 2.5-2.9 2.4-.4 0-.8-.3-.8-.4 0 0 0-.1.1-.1s.4.2.7.2c1.4.1 2-.8 2-1.8.1-1.3-.5-2.1-2.5-2.2-.4 0-.4 0-.4.4l-.4 7.4-1 .1.4-7.3c0-.6 0-.7-.7-.8-.3 0-.3-.1-.3-.2s.1-.1.2-.1.3 0 .5.1.7.1 1 .1h1.8c1.1-.1 2.4.8 2.3 2.2zM581.4 200.2c0 .1-.1.2-.5.2-.3 0-.3.4-.4.6l-.3 7.2h-1l.4-7.3c0-.3 0-.6-.3-.7-.5-.1-.6-.2-.6-.3 0-.1 0-.1.2-.1.4 0 .9.1 1.2.1h1.1c.2.1.2.2.2.3zM586.9 204.3v.3l-2.6-.1-.1 3c0 .5 0 .6.4.7.3.1.5.1 1 .1h1.4c.2 0 .4 0 .5-.5.1-.6.2-.6.3-.6.1 0 .1 0 .1.2 0 .3 0 .7-.1 1.1 0 .3-.1.3-.4.3-.4 0-1-.1-1.6-.1-.5 0-1.4-.1-1.8-.1h-.8l.4-7.3c0-.6 0-.8-.7-.8-.3 0-.3-.1-.3-.2s.1-.2.2-.2.3 0 .5.1.6.1 1 .1 1.5.1 2 .1h1.2c.3 0 .3 0 .3.3v1.1c0 .1 0 .2-.1.2s-.2 0-.3-.6c-.1-.5-.3-.5-.5-.5-.1 0-.4 0-.5-.1l-1.5-.1c-.2 0-.3 0-.3.2l-.2 3.4h2.5zM597.2 200.9c0 .1 0 .2-.3.2-.7 0-.7.2-.7.7l-.3 7.2-.6.1-4.9-7.5-.3 7.1-.5.1.4-7.3c0-.6 0-.8-.7-.8-.3 0-.3-.1-.3-.2s.1-.2.1-.1c.5.1 1.4.2 1.8.2l.1.1 4.4 6.8.3-5.8c0-.6 0-.7-.7-.8-.3 0-.3-.1-.3-.2s.1-.1.2-.1c.2 0 .9.2 1.1.2.2 0 .8-.1 1-.1.2 0 .2.1.2.2zM597.2 208.9s-.1 0 0 0c-.1-.2-.1-.2 0-.2l5.4-7.2-3.9-.2c-.5 0-.8.3-.8.3s-.1 0-.1-.1l.1-.5c0-.1.1-.1.1-.1s.2.1 1.1.1l4.5.2.1.3-5.3 7c.9 0 3.7.3 4.9.5l3.3-6.7c.1-.2.1-.3 0-.5l-.1-.3h1c.1 0 .1 0 .1.1l3 8.3-1 .1-1.4-3.9-1.2-3.5-1.6 3.3-1.7 3.6c-1.2-.4-5.7-.8-6.5-.6z"/><rect x="605.1" y="205.8" transform="rotate(2.76 606.824 205.992) scale(.99996)" fill="#8B2332" width="3.5" height=".4"/><path fill="#8B2332" d="M589.3 215c-.2 0-.5-.1-.7-.1h-.4l.1-2.9c0-.2 0-.3-.2-.3-.1 0-.1 0-.1-.1s0-.1.1-.1h.2c.1 0 .3 0 .4.1H589.6c1 0 1.7.7 1.7 1.7-.1 1.1-.8 1.7-2 1.7m.1-3.2h-.4c-.1 0-.2 0-.2.2l-.1 2.6c0 .2 0 .2.1.2.2.1.3.1.6.1.9 0 1.3-.6 1.4-1.5 0-.8-.2-1.6-1.4-1.6zM592.9 212c-.1 0-.1.1-.1.2l-.1 2.9h-.4l.1-2.9c0-.1 0-.2-.1-.2-.2 0-.2 0-.2-.1s0-.1.1-.1h.9c.1 0 .1 0 .1.1s-.2 0-.3.1M598 215.4h-.3c-.2 0-.4-.1-.5-.3l-.2-.4-.7-1.3H595.7l-.1 1.8h-.5l.2-3.7c0-.3 0-.3-.3-.4-.1 0-.2 0-.2-.1s.1-.1.1-.1h.3c.1 0 .4.1.5.1h.8c.6 0 1.1.4 1 1 0 .6-.5 1.1-.9 1.2l.7 1.2c.3.5.4.7.7 1m-1.8-4.1h-.3c-.1 0-.2.1-.2.2l-.1 1.8h.2c.9 0 1.1-.6 1.1-1.1.2-.5 0-.9-.7-.9zM600.1 215.5c-1 0-1.7-.8-1.7-1.8.1-1 1-1.7 1.8-1.6.9 0 1.7.7 1.7 1.8 0 1-.8 1.7-1.8 1.6m.2-3.2c-.7 0-1.3.4-1.3 1.5 0 .9.3 1.6 1.2 1.6.9 0 1.3-.6 1.3-1.5 0-1.1-.6-1.6-1.2-1.6zM606.8 212.6c-.3 0-.3.1-.3.4 0 .3.2 2.8.2 2.8h-.5l-.2-2.7-1.2 2.5h-.2l-1.1-2.6-.3 2.7h-.4c.4-3.4.4-2.8.4-2.9 0-.2 0-.3-.2-.3-.1 0-.1-.1-.1-.1 0-.1.1-.1.1-.1.1 0 .5.1.6.1.1 0 .1 0 .2.1l1.2 2.7 1.2-2.6c.1-.1.1-.1.2-.1h.6c.1 0 .1 0 .1.1-.2-.1-.2 0-.3 0M610 216l-.5-1.4-1.2-.1-.6 1.3h-.4l1.4-2.9v-.2l-.1-.2h.4s.1 0 .1.1l1.2 3.3-.3.1m-1-2.9l-.6 1.3 1 .1-.4-1.4zM560.1 209.5c-.1 0-.1.2-.2.3 0 0-.1 1.5-.2 2.2-.1.5-.4 1.5-1.5 1.5-1.2-.1-1.5-1-1.5-1.6V210v-.3c0-.1 0-.3-.1-.3l-.3-.1c0-.1 0-.1.1-.1h1.1c.1 0 .1 0 .1.1 0 0-.1.1-.3.1-.1 0-.2.1-.2.3v2c0 1 .4 1.6 1.1 1.6.8 0 1.2-.6 1.3-1.5.1-.7.1-1.3.1-1.9v-.1c0-.1 0-.3-.1-.3l-.3-.1c0-.1 0-.1.1-.1h.9c.1 0 .1 0 .1.1.1.1.1.1-.2.1M564.1 210.5c-.3 0-.3 0-.3.3l-.1 2.9h-.3l-1.9-2.9-.1 2.7-.2.1.1-2.9c0-.2 0-.3-.2-.3-.1 0-.1 0-.1-.1s0-.1.1-.1c.2 0 .5.1.6.1l1.8 2.8.1-2.3c0-.2 0-.3-.2-.3-.1 0-.1 0-.1-.1s0-.1.1-.1.3.1.4.1h.4c.1 0 .1 0 .1.1h-.2M565.7 210.6c-.1 0-.1.1-.1.2l-.1 2.9h-.4l.1-2.9c0-.1 0-.2-.1-.2-.2 0-.2 0-.2-.1s0-.1.1-.1h.9c.1 0 .1 0 .1.1-.1.1-.2.1-.3.1M569.5 210.8c-.1 0-.2.1-.2.2l-1.3 2.9h-.3l-1-3c0-.1 0-.2-.1-.2l-.1-.1c-.1 0-.1 0-.1-.1s0-.1.1-.1.4 0 .5.1c.1 0 .2.1.2.2l.9 2.7 1.1-2.5c0-.1 0-.2-.1-.2-.2 0-.2-.1-.2-.1s0-.1.1-.1h.7c.1 0 .1 0 .1.1-.1.2-.2.2-.3.2M571.9 214c0 .1-.1.1-.2.1-.4 0-.9-.1-1.3-.1h-.4l.1-2.9c0-.2 0-.3-.2-.3-.1 0-.1 0-.1-.1s0-.1.1-.1H571.8c.1 0 .2 0 .2.1v.4c0 .1 0 .1-.1.1s-.1-.4-.2-.4c-.1-.1-.3-.1-.3-.1h-.7l-.1 1.4h.6c.1 0 .2 0 .3-.1.1-.2.1-.3.1-.3.1 0 .1 0 .1.1v.6c0 .1 0 .1-.1.1s-.1 0-.1-.3c0-.1-.2-.1-.3-.1h-.6l-.1 1.2c0 .2 0 .2.1.2h1.1c.1-.1.1-.4.2-.4 0 0 .1 0 .1.1-.1.5-.1.6-.1.8M575.1 214.3c-.2 0-.4-.1-.5-.3l-.2-.3-.6-1H573.5l-.1 1.4h-.4l.1-2.9c0-.2 0-.3-.2-.3-.1 0-.1 0-.1-.1s0-.1.1-.1h.2c.1 0 .4 0 .5.1h.6c.5 0 .9.3.9.8s-.5.9-.7.9c.7 1.2.5.9.8 1.4 0 .1.1.2.2.2 0 0 .1 0 .1.1-.2.1-.3.1-.4.1m-1.2-3.3h-.2c-.1 0-.2.1-.2.1l-.1 1.4h.2c.7 0 .8-.5.9-.8.1-.4-.1-.6-.6-.7zM576.7 214.4c-.2 0-.6-.1-.8-.3l.1-.2c.2.2.6.3.8.3.4 0 .8-.2.8-.6 0-.2-.2-.4-.4-.5-.3-.2-.6-.3-.8-.6-.2-.2-.3-.4-.3-.8 0-.5.5-.8 1.1-.8.2 0 .4.1.7.1v.5c0 .1 0 .1-.1.1s-.1 0-.1-.3c0-.2-.2-.3-.5-.3-.4 0-.7.1-.7.6 0 .1.1.2.2.3.1.1.4.3.6.4.2.1.4.2.6.4.1.2.2.4.2.7-.3.7-.8 1-1.4 1M579.5 211.3c-.1 0-.1.1-.1.2l-.1 2.9h-.4l.1-2.9c0-.1 0-.2-.1-.2-.2 0-.2 0-.2-.1s0-.1.1-.1h.9c.1 0 .1 0 .1.1-.1.1-.1.1-.3.1M583.1 211.6h-.2l-1-.1-.1 3.1h-.4l.2-3.1h-.8c-.2 0-.3 0-.3.2 0 .1 0 .3-.1.3s-.1 0-.1-.1v-.4c0-.1.1-.1.2-.1h.5c.6.1 1.3.1 1.9.1h.4s.1 0 .1.1c-.2-.2-.3-.2-.3 0M584.9 211.2h.2l-.7-.7c-.1-.1-.1-.1-.2-.1s-.2.1-.2.2 0 .1.2.2l.7.4m-.2.7l-.6 1.3 1 .1-.4-1.4zm.9 2.9l-.5-1.4-1.2-.1-.6 1.3h-.4l1.4-2.9v-.2l-.1-.2h.4s.1 0 .1.1l1.2 3.3-.3.1z"/><path fill="#FFF" d="M538.9 195.8c0 .4-.1 1.4-.1 1.8 0 .2 0 .3.1.4l.1.1h.2c.1 0 .2 0 .4-.2l1-1c.1-.1 0-.1-.1-.1-.4 0-.9.4-1.3.7.1-.4.1-1.4-.3-1.7 0-.1 0-.1 0 0m-.4-.1c-.3.4-.4 1.3-.5 1.7-.3-.3-.8-.7-1.2-.8-.1 0-.1 0-.1.1.2.2.7.8.9 1.1.1.1.2.2.3.2h.2s.1 0 .1-.1c.1-.1.2-.2.2-.4.1-.4.2-1.4.1-1.8.1-.1 0-.1 0 0zm-4.2 8.8c0-.3-.2-.6-.5-.7h-.1c-1.4-.2-2.7-.6-3.9-1.4 0 0-.1 0 0 0l.6.6c.4.3 1.6 1 2.7 1.2.4.2.8.2 1.2.3zm1 1.6v-.4c0-.1-.1-.2-.2-.3-.2-.1-.3-.2-.5-.2-1.4-.1-2.7-.7-3.9-1.6-.1 0-.1 0 0 0 .2.3.4.6.7.8.8.7 1.7 1.1 2.7 1.3.2.1.4.1.6.1h.1v.1c0 .2 0 .4-.1.6 0 1 .1 2 .6 2.9.1.3.4.6.6.8 0 .1.1 0 .1 0-.8-1.3-1-2.7-.7-4.1zm1.1 1.2v-.1c0-.3-.2-.6-.5-.6-.1.4-.1.8-.1 1.2 0 1.1.3 2.4.5 2.9.2.4.3.6.4.7h.1c-.5-1.5-.6-2.8-.4-4.1zm1.3.3v-.2c.1-.5 0-1-.3-1.4-.5-.6-1.3-.7-1.7-1.1-.3-.4-.1-1.3-.6-1.9-.3-.4-.8-.6-1.3-.6h-.1c-1.5-.1-2.8-.4-4.2-1.1 0 0-.1 0-.1.1.1.2.4.4.8.7 1.5.7 3.5 1 3.5 1 .9.1 1.2.9 1.4 1.5.1.2.1.4.3.6.1.1.3.3.5.4.6.3 1.4.9 1.2 1.7 0 0-.4 2-.1 3.5.1.5.3.8.4 1 0 .1.1 0 .1 0-.2-1.4-.1-2.8.2-4.2zm-3.8-6.1c-.2 0-.6.1-.9.2 0 0-.1.1 0 .1.3.1 1 .3 1.3.2.4-.1.3-.7.1-.9-.7-1.2-1.1-2.5-1.1-4 0-.1 0-.1-.1 0-.1.3-.2.6-.2 1 0 1.2.3 2.4.9 3.4zm.3-2.1c.2.4.4.7.6 1.1.3-.2.4-.5.3-.8 0 0 0-.1-.1-.1-.7-1.2-1.1-2.5-1.3-3.8h-.1c-.1.1-.1.4-.1.8.1.4.3 1.8.7 2.8zm1.4-.2c.5.7.1 1.5-.4 2-.5.7 0 1.6 0 1.1 0-.8 1-1.1 1.1-2 .1-.5 0-.9-.3-1.4l-.1-.1c-.8-1.2-1.4-2.4-1.7-3.9 0 0-.1-.1-.1 0-.1.2-.1.6 0 1.1.4 1.5 1.5 3.2 1.5 3.2zm6.9 2.2c-.2.2-.3.8 0 1 .2.1 1 .1 1.3-.1.1 0 .1-.1 0-.1-.3-.1-.7-.3-.9-.3.7-.9 1.2-2.1 1.2-3.3 0-.3-.1-.7-.1-1 0-.1 0-.1-.1 0 0 1.4-.5 2.7-1.4 3.8zm-.5-1.4c-.2.3-.1.6.2.8.3-.3.5-.7.7-1 .5-.9.9-2.3.9-2.7 0-.4.1-.7 0-.8h-.1c-.3 1.4-.9 2.6-1.7 3.7zm-.4 2.6c-.1.5.6-.3.1-1.1-.4-.6-.7-1.4-.2-2 0 0 1.2-1.6 1.7-3.1.2-.5.1-.9.1-1.1 0-.1-.1 0-.1 0-.5 1.4-1.2 2.6-2.1 3.7l-.1.1c-.3.4-.5.9-.4 1.3.1.9 1.1 1.4 1 2.2zm-3.9 13.2c-5.3-.3-9.4-5.7-9.1-12.1.3-6.4 4.9-11.4 10.2-11.2 5.3.3 9.4 5.7 9.1 12.1-.3 6.5-4.9 11.5-10.2 11.2zm1.2-23.6c-5.5-.3-10.2 4.9-10.6 11.5-.3 6.6 3.9 12.2 9.4 12.5 5.5.3 10.2-4.9 10.6-11.5.3-6.6-3.9-12.2-9.4-12.5zm-2.5 11.8c-.3 0-.5-.2-.5-.3-.2.6.2.9.6 1-.1-.2-.1-.4-.1-.7zm0-.4v-.6c-.4-.1-.7-.4-.7-.5-.2.4 0 1 .7 1.1zm3.9.7c0 .2-.1.4-.2.6.5-.1.8-.3.7-.9-.1 0-.3.2-.5.3zm.7-1.5c-.1.1-.3.4-.8.4v.6c.8-.1 1.1-.6.8-1zm-2.1-1.2c1.4.9 1.9.2 1.9.2s.5.6-.4.8c-.9.2-1.5-.4-1.7-.5-.2-.2-.2-.8.2-.5zm.8-.7c.5.4.7.4.7.4s0 .6-.8.2c-.3-.1-1.1-.6-1-.8.3-.3.7 0 1.1.2zm-1.8.7c-1.4.7-1.9 0-1.9 0s-.6.6.3.9c.9.3 1.6-.2 1.7-.3.4-.3.5-.9-.1-.6zm-.7-.8c-.5.3-.7.3-.7.3s0 .6.8.3c.3-.1 1.2-.5 1-.7-.2-.4-.6-.1-1.1.1zm2.7 3.2v-.9c-.7 0-1.3-.6-1.5-.9-.2.3-.9.8-1.6.7 0 .2-.1.7-.1.9-.1.4.1.9.3 1.2.1.2.3.3.5.5h.2c.1 0 .1.1.1.1.1.1.4.1.4.1s.2 0 .4-.1c.1 0 .1-.1.1-.1h.2c.2-.1.4-.2.6-.4.3-.2.5-.7.4-1.1zm-.8-.2c-.4 0-.4-.1-.4-.1s.1-.3.5-.3.5.3.5.3c-.1 0-.1.1-.6.1zm-.8 1.4c-.3 0-.6-.3-.6-.4 0-.1 1.1 0 1.1.1.1 0-.2.3-.5.3zm-.7-1.5c-.5 0-.5-.1-.5-.2 0 0 .1-.3.5-.2.4 0 .4.3.4.3s-.1.1-.4.1zm.7.5c.2 0 .3.1.3.1s-.1.1-.3.1c-.2 0-.3-.1-.3-.1s.2-.1.3-.1zm5.3.6c1.1-.2 2.4-.7 2.8-1 .4-.2.6-.4.7-.5 0 0 0-.1 0 0-1.3.6-2.6.9-4 1h-.1c-.3 0-.6.3-.5.7.2-.1.6-.2 1.1-.2zm-3.3 5.6c-.1.1 0 .1 0 0 .3-.2.5-.5.7-.7.5-.9.8-1.9.9-2.8v-.6-.1h.1c.2 0 .4 0 .6-.1 1-.1 2-.5 2.8-1.1.3-.2.5-.5.7-.7 0-.1 0-.1 0 0-1.3.8-2.6 1.2-4 1.2-.2 0-.4.1-.5.2-.1.1-.2.2-.2.3-.1.1-.1.3-.1.4 0 1.4-.3 2.7-1 4zm-1 1c-.1 0 0 .1 0 0 .2-.1.3-.3.5-.7.2-.4.7-1.7.8-2.8v-1.2c-.3 0-.6.3-.6.6v.1c0 1.4-.2 2.7-.7 4zm-.9.5s0 .1 0 0c.2-.1.4-.4.6-.9.4-1.5.3-3.5.3-3.5-.1-.8.7-1.3 1.4-1.6.2-.1.4-.2.5-.4.1-.1.2-.3.3-.6.2-.7.6-1.4 1.5-1.4 0 0 2 0 3.6-.6.5-.2.8-.4.9-.6 0-.1 0-.1-.1-.1-1.4.5-2.8.7-4.3.7h-.1c-.5 0-1 .2-1.3.5-.5.5-.5 1.5-.8 1.8-.4.4-1.2.4-1.8.9-.3.3-.5.8-.5 1.3v.2c.2 1.5.2 2.9-.2 4.3zm6-.5s-.1 0 0 0h-.2c-.2 0-.5-.1-.7-.1.1-.1.1-.4-.1-.6-.2-.2-.5-.1-.6.1-.1.1-.1.2-.2.2l-.2.2s-.1 0-.1.1v.1h.1c.1-.1.1-.1.2 0l1.1 1.1.2-.2-.5-.5s0-.1.1-.1l.6.1c.2 0 .3.1.5-.1-.3-.2-.2-.3-.2-.3zm-1.3-.5c.1.1.3.3 0 .6l-.1.1-.5-.5v-.1l.1-.1c.3-.2.4-.1.5 0zm-13.1-3.3c0-.1-.1-.3 0-.5h.2c-.1.2-.1.4 0 .5.1.2.2.3.4.3.1 0 .1-.1.2-.2 0-.2.1-.4.1-.5.1-.1.1-.2.3-.3.3-.1.5.1.6.4 0 .1 0 .2.1.4-.1 0-.2.1-.3.1h-.1s0-.1.1-.1c0 0 .1-.1 0-.3-.1-.2-.2-.3-.4-.3-.1 0-.2.3-.2.4 0 .1 0 .3-.1.4-.1.1-.2.2-.3.2-.2 0-.5-.2-.6-.5zm2.4 1.6l-.1-.1-.2-.5-1.4.6-.1-.3 1.4-.6c-.1-.1-.2-.4-.2-.4-.1-.1-.1-.1-.2-.1h-.1v-.1c.1 0 .1-.1.2-.1s.1 0 .1.1.1.1.1.2c.1.3.3.6.4.9 0 .1.1.1.1.2.1.1.1.1 0 .2.1 0 .1 0 0 0zm1 1.6h-.1l-1.6.4-.1-.1c.4-.6.6-1 .9-1.4v-.1-.1h.1c0 .1.1.2.1.2v.2l-.8 1.2 1.3-.3c.1 0-.1-.2 0-.2h.1c0 .1.1.1.1.2l.1.1v.1c0-.1 0-.1-.1-.2zm1 1.9c.3-.4.2-.9-.2-1.3-.1-.1-.2-.1-.2-.2l-.1-.1-.1-.1s0-.1-.1-.1h-.1v.1c.1.1.1.1 0 .2l-1 1.2.3.3c0 .1.1.1.1.1.5.4 1 .4 1.4-.1zm-.3-.1c-.3.3-.6.5-1 .2-.1-.1-.2-.1-.2-.2v-.1l.9-1h.1l.2.1c.4.3.3.7 0 1zm1.3-.1c-.1 0-.1 0 0 0l-.8 1.4-.3-.1.7-1.3v-.1s-.1 0-.1-.1h.1c.1 0 .2.1.2.1s.1.1.2.1c0 0 .1.1 0 .1.1-.1.1-.1 0-.1zm1.9.6s-.1 0-.1.1l-1 1.3h-.2c-.1-.7-.1-1.1-.2-1.7v-.1c-.1 0-.1-.1-.1-.1s0-.1.1 0c.1 0 .2.1.2.1.1 0 .1.1.1.2l.1 1.4.8-1.1c.1-.1-.2-.1-.1-.2h.1c.1 0 .3.1.4.1.1 0 .1 0 .1.1-.1-.1-.1-.1-.2-.1zm2.3-.2c-.1 0-.1.1-.1.2 0 .2.3 1.4.3 1.4l-.3.1-.3-1.3-.4 1.3h-.1l-.7-1.2v1.3l-.3.1v-1.5c0-.1 0-.2-.1-.2s-.1 0-.1-.1 0-.1.1-.1h.3c.1 0 .1 0 .1.1l.7 1.2.4-1.4c0-.1.1-.1.1-.1.1 0 .2-.1.3-.1.1.1.2.1.1.3.1-.1.1 0 0 0zm2.5-1.4v.2l.3 1.6-.2.1c-.5-.4-.9-.6-1.3-1h-.2v-.1c.1 0 .2-.1.2-.1h.2l1.1.8-.2-1.3c0-.1-.2.1-.2 0v-.1l.3-.3h.1c0 .1 0 .2-.1.2zm2.9-1.8c-.2-.2-.4-.1-.6.1 0-.2 0-.3-.2-.4-.2-.1-.4 0-.6.2-.1.1-.1.2-.2.2 0 .1-.1.1-.1.2l-.1.1v.1l.1-.1c.1-.1.1-.1.1 0h.1l1.2.8.1-.2.2-.2c.2-.2.2-.6 0-.8zm-1 0c.1.1.2.2.1.4l-.1.1-.5-.3v-.1c.2-.2.4-.3.5-.1zm.8.3c.2.1.2.3.1.5 0 .1-.1.1-.2.2l-.6-.4v-.1c.3-.3.5-.3.7-.2zm-.5-1.5c0 .1 0 .1 0 0l1.4.8-.1.3-1.3-.7h-.1s0 .1-.1.1v-.1c0-.1.1-.2.1-.2 0-.1.1-.1.1-.2s.1-.1.1 0c-.1-.1-.1-.1-.1 0zm1.8-.2c0 .1-.1.3-.3.4l-.1-.1c.1-.1.3-.2.3-.3.1-.2 0-.4-.1-.5-.1 0-.2 0-.3.1-.1.1-.2.3-.4.3-.1.1-.3.1-.4 0-.2-.1-.3-.4-.2-.7 0-.1.1-.2.2-.4.1 0 .2.1.3.1 0 0 .1 0 .1.1 0 0 0 .1-.2 0-.1 0-.1 0-.2.2s0 .4.1.4.3-.2.4-.2c.1-.1.2-.2.3-.2.1-.1.2-.1.4 0 .2.2.2.5.1.8z"/><g><rect x="531.7" y="235.6" transform="rotate(2.219 571.895 237.424) scale(1.00005)" fill="#B7BFC7" width="80.3" height="3.6"/><rect x="531.5" y="241.6" transform="rotate(2.219 571.667 243.38) scale(1.00005)" fill="#DCE4E8" width="80.3" height="3.6"/><rect x="531.2" y="247.7" transform="rotate(2.219 571.431 249.465) scale(1.00005)" fill="#DCE4E8" width="80.3" height="3.6"/><rect x="531" y="253.7" transform="rotate(2.219 571.194 255.48) scale(1.00005)" fill="#DCE4E8" width="80.3" height="3.6"/></g><g><rect x="530.1" y="265" transform="rotate(2.219 570.535 266.849) scale(1.00005)" fill="#DCE4E8" width="80.7" height="3.6"/><rect x="529.9" y="271.1" transform="rotate(2.219 570.312 272.934) scale(1.00005)" fill="#DCE4E8" width="80.7" height="3.6"/><rect x="529.7" y="277.1" transform="rotate(2.219 570.064 278.955) scale(1.00005)" fill="#DCE4E8" width="80.7" height="3.6"/></g></g><g id="wind"><rect x="518.4" y="231.8" transform="matrix(-.9986 .0537 -.0537 -.9986 1163.843 587.822)" fill="#BE3D2F" width="111.2" height="155.5"/><rect x="519.3" y="230.7" transform="matrix(-.9986 .0537 -.0537 -.9986 1165.517 585.585)" fill="#FFF" width="111.2" height="155.5"/><polygon fill="#F4812C" points="564.7,261.1 560.9,261.3 558.9,268.9 558.5,271 555.3,261.6 551.4,261.8 549.5,271.5 548.8,269.5 546,262.1 542.1,262.3 547.9,275.1 551.4,274.9 553,267.2 553.5,264.6 554.3,267.1 556.9,274.6 560.4,274.4"/><polygon fill="#F4812C" points="570.3,260.8 566.6,261 567.3,274 571,273.8"/><polygon fill="#F4812C" points="588.8,272.8 588,259.8 584.7,260 585.2,269.1 577.5,260.4 573.6,260.6 574.3,273.6 577.9,273.4 577.4,264.2 585.1,273"/><path fill="#F4812C" d="M599.1 270l-3.4.2-.5-8.5 3.4-.2c1.7-.1 2.8.2 3.4.8.6.7.9 1.7 1 3 .1.9-.1 1.8-.5 2.6-.4 1.4-1.6 2-3.4 2.1zm.8 2.2c2.6-.1 4.5-1.1 5.8-2.8.9-1.3 1.3-2.8 1.2-4.5 0-.7-.2-1.4-.4-2.1-.3-.7-.7-1.4-1.4-2-.8-.8-1.9-1.3-3.1-1.5-.8-.1-1.7-.2-2.7-.1l-7.7.4.7 13 7.6-.4z"/><path fill="#515F84" d="M575.3 254.6c.9.1 1.8.2 2.8.1.9-.1 2-.2 3-.4 1.1-.3 2.1-.8 3.1-1.3s1.9-1.2 2.8-2.1c1.1-1 2-1.9 2.7-2.7.7-.8 1.2-1.4 1.7-1.9.4-.5.6-.9.8-1.2l.2-.4.5-.7.2-.6c.1-.2.2-.4.2-.6 0-.2-.1-.4-.3-.5v-.1l-.3.1c-.2 0-.4.1-.6.3-.3.2-.7.7-1.2 1.1l-1.6 1.8c-.4.5-1.1 1-1.7 1.7-.7.6-1.4 1.2-2.2 1.8-.8.6-1.6 1.2-2.5 1.7-.9.5-1.7.9-2.7 1.3-.9.3-1.9.5-2.8.5-.9 0-1.8-.2-2.7-.6l-.4-.1c-.4-.2-.7-.2-1.1-.4l-1.4-.3c-.5-.1-1-.1-1.5-.1-.6 0-1 .2-1.5.4s-.8.6-1.2 1l-.2.3c-.1.2-.3.4-.4.6-.3.3-.4.5-.8.7l-.9.3c-.4 0-.8-.1-1.1-.3-.4-.2-.8-.5-1.2-1.2l-4-4.5-.6-.6c-.2-.2-.4-.3-.5-.3-.2-.1-.4 0-.4.2-.1.2-.2.5-.1 1l1.1 2c.3.6.7 1.4 1.3 2.1.5.8 1.2 1.6 1.9 2.4.5.5 1 .9 1.5 1.1.5.2 1 .2 1.5.2s.8-.1 1.3-.4c.4-.2.7-.4 1-.6l.7-.6.3-.3.2-.3c.2-.1.4-.3.5-.5.3-.2.6-.4 1-.6.4-.1.8-.1 1.3-.1.6 0 1 .1 1.8.5.9.7 1.7.9 2.5 1.1z"/><path fill="#F4812C" d="M567.7 249.8h.3l.6-.2c.3 0 .6-.2.8-.3l.6-.6c.2-.3.2-.7.2-1v-.3c0-.2-.1-.4-.2-.6-.1-.2-.4-.4-.7-.4-.3-.2-.8-.1-1.4-.1-.6.1-1 .2-1.3.4-.4.2-.5.4-.6.6-.2.3-.2.5-.2.6v.6c0 .2 0 .4.1.6.1.2.3.4.6.5.4.1.8.2 1.2.2z"/><g><rect x="580.2" y="287.5" transform="rotate(-3.064 598.49 289.443) scale(1.00003)" fill="#B7BFC7" width="36.4" height="3.8"/><rect x="580.6" y="293.9" transform="rotate(-3.064 598.831 295.826) scale(1.00003)" fill="#DCE4E8" width="36.4" height="3.8"/><rect x="581" y="300.3" transform="matrix(.9986 -.0536 .0536 .9986 -15.336 32.551)" fill="#DCE4E8" width="36.4" height="3.8"/><rect x="581.3" y="306.7" transform="rotate(-3.064 599.554 308.584) scale(1.00003)" fill="#DCE4E8" width="36.4" height="3.8"/><rect x="532.7" y="320.1" transform="rotate(-3.064 575.606 322.031) scale(1.00003)" fill="#DCE4E8" width="85.7" height="3.8"/><rect x="533.1" y="326.5" transform="rotate(-3.064 575.948 328.414) scale(1.00003)" fill="#DCE4E8" width="85.7" height="3.8"/><rect x="533.4" y="332.9" transform="rotate(-3.064 576.282 334.8) scale(1.00003)" fill="#DCE4E8" width="85.7" height="3.8"/><g><rect x="535.4" y="369.9" transform="rotate(-3.064 578.268 371.816) scale(1.00003)" fill="#DCE4E8" width="85.7" height="3.8"/><rect x="535.8" y="376.8" transform="rotate(-3.064 569.03 378.713) scale(1.00003)" fill="#DCE4E8" width="66.5" height="3.8"/></g><g><rect x="534.1" y="345.8" transform="rotate(-3.064 562.589 347.692) scale(1.00003)" fill="#B7BFC7" width="56.9" height="3.8"/></g><g><rect x="534.4" y="352.2" transform="rotate(-3.064 562.919 354.077) scale(1.00003)" fill="#DCE4E8" width="56.9" height="3.8"/></g><g><rect x="534.8" y="358.6" transform="rotate(-3.064 563.26 360.459) scale(1.00003)" fill="#DCE4E8" width="56.9" height="3.8"/></g><g><rect x="531.7" y="291" transform="matrix(.9986 -.0537 .0537 .9986 -15.474 29.105)" fill="#DCE4E8" width="4.5" height="23"/><rect x="538" y="290.7" transform="matrix(.9986 -.0537 .0537 .9986 -15.447 29.448)" fill="#DCE4E8" width="4.5" height="23"/><rect x="544.4" y="290.3" transform="matrix(.9986 -.0537 .0537 .9986 -15.419 29.79)" fill="#DCE4E8" width="4.5" height="23"/><rect x="550.8" y="290" transform="rotate(-3.064 553.072 301.476) scale(1.00003)" fill="#DCE4E8" width="4.5" height="23"/><rect x="557.2" y="289.6" transform="rotate(-3.064 559.457 301.135) scale(1.00003)" fill="#DCE4E8" width="4.5" height="23"/><rect x="563.6" y="289.3" transform="rotate(-3.064 565.84 300.791) scale(1.00003)" fill="#DCE4E8" width="4.5" height="23"/><rect x="570" y="289" transform="matrix(.9986 -.0537 .0537 .9986 -15.309 31.159)" fill="#DCE4E8" width="4.5" height="23"/><rect x="532" y="303.8" transform="rotate(-3.054 534.254 308.893) scale(1.00002)" fill="#62C3ED" width="4.5" height="10.2"/><rect x="538.3" y="301.5" transform="matrix(.9986 -.0537 .0537 .9986 -15.737 29.47)" fill="#62C3ED" width="4.5" height="12.1"/><rect x="544.8" y="305.7" transform="matrix(.9986 -.0537 .0537 .9986 -15.83 29.823)" fill="#62C3ED" width="4.5" height="7.7"/><rect x="551" y="298.9" transform="rotate(-3.064 553.311 305.946) scale(1.00003)" fill="#62C3ED" width="4.5" height="14.1"/><rect x="557.4" y="296" transform="rotate(-3.064 559.624 304.328) scale(1.00003)" fill="#62C3ED" width="4.5" height="16.6"/><rect x="564.1" y="308.5" transform="rotate(-3.064 566.349 310.368) scale(1.00003)" fill="#62C3ED" width="4.5" height="3.8"/><rect x="570.3" y="301.7" transform="rotate(-3.064 572.56 306.831) scale(1.00003)" fill="#62C3ED" width="4.5" height="10.2"/></g></g></g></g><path id="wire5" fill="none" stroke="#DBDBDB" stroke-miterlimit="10" d="M1582.5-614.8c-18.5 62-198.3 159.1-173.5 246.8 4.3 15.1 5.8 29.9 24.6 44.1 8.3 6.3 109.8 50.3 48.2 54.4-44.3 2.9-91.1-10.1-134.4-17.9-20.4-3.6-220.9-43.3-181.2 28 22 39.6 210.5 106.9 200.9 145.1"/></g><g id="titles"><text transform="translate(853.056 60.139)" fill="#F5F7FA" font-weight="100" font-size="48" id="title3">as an entrepreneur</text><text transform="translate(917.74 60.139)" fill="#F5F7FA" font-weight="100" font-size="48" id="title2">as an employee</text><text transform="translate(922.596 60.139)" fill="#F5F7FA" font-weight="100" font-size="48" id="title1">as a freelancer</text></g></g><text id="title" transform="translate(533.348 -307.748)" fill="#F5F7FA" font-weight="100" font-size="36">Over the years I worked for clients and companies</text></g></svg>