<svg xmlns="http://www.w3.org/2000/svg" width="1024" height="768" viewBox="0 0 1024 768"><rect x="-5882.951" y="-5137.504" fill="#F5ECD9" width="12784.607" height="11218.004" id="bg5"/><rect x="-7653.467" y="-7098.016" fill="#2BACB5" stroke="#000" stroke-miterlimit="10" width="15687.934" height="14889.029" id="sky"/><g id="june" fill="#E84D5B" font-weight="100"><text transform="translate(30 411.632)" font-size="36">London, June 2014,</text><text transform="translate(30 469.231)" font-size="48">Good news, everyone!</text><text transform="translate(30 512.432)" font-size="36">I’m a senior frontend developer at Workshare,</text><text transform="translate(30 555.632)" font-size="36">a provider of secure enterprise file sharing</text><text transform="translate(30 598.832)" font-size="36">and collaboration applications. And it’s great!</text></g><g id="london"><title>Layer 1</title><g id="svg_2"><g id="layer17"><path id="path4607" fill="#E84D5B" d="M1593.918 997.435l-.451-56.525h-20.52v53.782h-11.217v-66.354h-19.258v49.591h-15.568v-39.113h-16.797v37.021h-15.537v-49.592s-13.078-39.115-23.637 0v49.592h-3.121v-83.119l-20.906 13.561v74.098h-8.938v-73.688h-4.98v-12.579h-15.237v10.479h-7.47v74.038h-8.066v-58.324l-4.352-.35-4.68-36.67-4.979 37.02h-6.209v58.324l-6.539-.698v-77.531l-12.508-24.343-11.428.245-13.619 26.49v77.234h-14.697v-90.804h-22.078v90.452h-5.275v-82.769h-17.432v79.274h-2.486v-69.847l-16.318 4.915v65.282h-18.176v-79.979l-5.73-11.143-5.969 11.581v78.489h-16.918v-82.77h-18.656v81.371h-3.75v-90.096h-30.146v88.354h-12.146v-49.591h-17.098v47.146h-2.49v-88.007h-20.217v88.703h-5.58v-81.37h-24.566v82.771h-11.518v-82h-7.318v-22.226h-12.959v22.228h-9.479v82.479h-12.299v-55.317h-20.906v55.562h-19.557v-75.812s-11.432-15.807-25.947-1.729c.211 7.653 0 78.281 0 78.281h-4.859v-66.422h-14.938l-15.117 63.332h-7.738v-27.278l-3.301-9.14-2.879 9.14h-16.258l-1.891-8.304-2.881 8.271v27.069h-10.947v-41.857h-13.646v40.995h-6.27v-71.123h-19.35v70.139h-13.646v-80.51h-21.535v17.286h-7.92v-19.756h-19.35v82.481h-5.277v-50.375h-12.748v48.895h-8.787v-64.699h-14.522v63.715h-14.518v-78.531h-16.707l.869 110.142 889.944.513z"/><path id="path4611" fill="#E84D5B" d="M307.835 1008.413l.438-56.527h20.527v53.782h11.192v-66.354h19.281v49.592h15.55v-39.116h16.791v37.021h15.55v-49.591s13.063-39.116 23.639 0v49.592h3.108v-83.117l20.919 13.559v74.098h8.938v-73.688h4.979v-12.574h15.238v10.479h7.469v74.036h8.068v-58.325l4.35-.352 4.682-36.67 4.979 37.021h6.209v58.323l6.539-.697v-77.534l12.508-24.341 11.432.246 13.616 26.488v77.236h14.696v-90.803h22.078v90.453h5.277v-82.77h17.396v79.275h2.49v-69.848l16.348 4.914v65.283h18.18v-79.977l5.729-11.145 5.97 11.58v78.49h16.918v-82.768h18.655v81.368h3.75v-90.102h30.146v88.356h12.146v-49.59h17.1v47.146h2.488v-88.002h20.219v88.702h5.58v-81.37h24.564v82.77h11.52v-82.001h7.316v-22.226h12.959v22.226h9.479v82.482h12.299v-55.318h20.906v55.563h19.557v-75.812s11.43-15.805 25.947-1.728c-.211 7.651 0 78.28 0 78.28h4.828v-66.428h14.969l15.117 63.332h7.736v-27.279l3.303-9.139 2.879 9.139h16.258l1.859-8.303 2.908 8.272v27.071h10.947v-41.859h13.647v40.996h6.271v-71.124h19.349v70.137h13.616v-80.509h21.568v17.288h7.918v-19.758h19.348v82.481h5.279v-50.365h12.748v48.896h8.787v-64.699h14.52v63.713h14.52v-78.531h16.707l-.869 110.143-889.928.511z"/><path id="path6551" fill="#00ADEF" d="M-130.707 1014.284l.438-56.527h20.523v53.785h11.197v-66.356h19.279v49.594h15.552v-39.116h16.792v37.021h15.55v-49.592s13.06-39.115 23.633 0v49.592h3.111v-83.119l20.916 13.562v74.099h8.938v-73.689h4.979v-12.57h15.236v10.477h7.463v74.036h8.087v-58.321l4.354-.349 4.664-36.67 4.977 37.019h6.223v58.321l6.527-.695 6.75-87.007 8.578-14.867 8.618.245 9.868 14.698 3.749 89.023h14.684v-90.808h22.079v90.452h5.286v-82.771h17.415v79.278h2.489v-69.852l16.33 4.914v65.283h18.188v-79.977l5.729-11.145 5.954 11.581v78.489h16.926v-82.769h18.661v81.374h3.729v-90.104h30.164v88.355h12.13v-49.593h17.104v47.15h2.487v-88.01h20.214v88.707h5.602v-81.37h24.564v82.771h11.507v-82h7.318v-22.226h12.973v22.226h9.455v82.479h12.317v-55.315h20.88v55.564h19.587v-75.811s11.429-15.806 25.946-1.728c-.21 7.654 0 78.282 0 78.282h4.829v-66.43h14.967l15.088 63.335h7.771v-27.282l3.301-9.135 2.85 9.135h16.287l1.859-8.303 2.879 8.273v27.07h10.979v-41.855h13.648v40.992h6.238v-71.12h19.377v70.133h13.617v-80.505h21.566v17.288h7.889v-19.756h19.377v82.479h5.279v-50.377h12.748v48.898h8.789v-64.703h14.518v63.713h14.52v-78.527h16.71l-.871 110.139-889.935.518z"/><path id="path2709" fill="#F7F7F7" d="M970.639 993.241h5.066v-90.803h22.078v90.451h5.279v-82.77h17.396v79.275h2.489v-69.844l16.35 4.914v65.282h18.178v-79.976l5.729-11.144 5.971 11.581v78.49h16.918v-82.77h18.654v81.37h3.75v-90.102h30.146v88.354h12.149v-49.592h17.099v47.146h2.488v-88.003h20.217v88.708h5.58v-81.375h24.564v82.771h11.52v-82.001h7.316v-22.227h12.959v22.227h9.479v82.48h12.299v-55.316h20.906v55.562h19.557v-75.812s11.428-15.805 25.947-1.729c-.211 7.653 0 78.281 0 78.281h4.828v-66.427h14.969l15.117 63.332h7.74v-27.279l3.299-9.135 2.879 9.135h16.258l1.859-8.303 2.91 8.271v27.073h10.947v-41.861h13.646v40.996h6.27v-71.121h19.35v70.135h13.615v-80.505h21.566v17.282h7.92v-19.757h19.35v82.482h5.275v-50.37h12.748v48.895h8.789v-64.697h14.518v63.713h14.521v-78.531h16.707l-.869 110.141-624.27.36"/></g><g id="layer14"><path id="path4146" fill="#999" d="M-408.512 978.595v-133.582c0-6.252 7.622-21.321 17.2-21.586 10.027-.274 17.88 15.697 18.093 21.586.021.609 0 132.78 0 132.78l-35.293.802z"/><path id="path4153" fill="#E84D5B" d="M-85.83 767.775l10.381 36.312v178.909l-45.344.488v-181.397l9.997-33.278 12.706-23.102 12.26 22.068z"/><path id="path4155" fill="#00ADEF" d="M-59.564 954.884v-158.082h9.442v10.166h22.338v-10.22h8.828v158.079l-40.608.057z"/><path id="path4602" fill="#ECECEC" d="M1456.744 978.443l.271-179.954-36.025 25.379v154.575h35.754z"/><path id="path4604" fill="#F2F2F2" d="M1503.84 855.974l5.879 20.601v101.501l-25.705.277v-102.915l5.668-18.878 7.199-13.105 6.959 12.519z"/></g><g id="layer11"><g id="g3909" fill="#E84D5B" stroke="#000"><path id="path3094" stroke-width=".13" d="M1391.237 1041.392l-.148-47.581s3.631-.546 5.578-3.073v-126.068h-38.363v126.064c1.951 2.531 5.551 3.074 5.551 3.074v46.936c6.354 6.172 21.022 4.659 27.382.648z"/><path id="path3096" stroke-width=".13" d="M1369.879 864.752l-.119-66.107h15.268l.029 66.093-15.178.014z"/><path id="path3098" stroke-width=".13" d="M1359.922 853.319v4.668h35.184v-4.732l-35.184.064z"/><path id="path3100" stroke-width=".13" d="M1360.102 840.021v4.663h35.184v-4.729l-35.184.066z"/><path id="path3102" stroke-width=".13" d="M1359.862 826.718v4.668h35.188v-4.73l-35.188.062z"/><path id="path3104" stroke-width=".13" d="M1360.192 813.354v4.665h35.215v-4.729l-35.215.064z"/><path id="path3106" stroke-width=".13" d="M1359.922 799.797v4.668h35.184v-4.73l-35.184.062z"/><path id="path3108" stroke-width=".13" d="M1385.326 798.57s9.568-.387 11.367-1.793l-.059-3.391s-.57-.639-2.281-.956c-.146.063-.09-.832-.09-.832h1.59l.721-.832v-13.556h1.049s.633-.391.842-1.044v-17.614s-.842-1.106-1.949-1.492c.061-.065 0-12.005 0-12.005-1.199-2.229-6.689-3.043-10.352-3.595l.031-.927s3.182-.249 3.75-1.019c.061 0 1.17-1.106 1.229-1.56.029-.092 0-8.254 0-8.254-.449-.832-3.721-2.283-6.721-2.509l-13.945.013c-3 .227-6.271 1.678-6.689 2.51 0 0-.061 8.162 0 8.25.062.455 1.142 1.562 1.201 1.562.568.771 3.748 1.017 3.748 1.017l.029.931c-3.658.551-9.146 1.36-10.35 3.597 0 0-.061 11.938 0 12.005-1.107.384-1.947 1.492-1.947 1.492v17.608c.209.657.868 1.048.868 1.048h1.021v13.558l.721.832h1.619s.031.896-.119.832c-1.709.317-2.278.959-2.278.959l-.062 3.389c1.83 1.405 11.397 1.789 11.397 1.789l15.659-.013z"/><path id="path3110" stroke-width=".13" d="M1361.002 853.225v-.901h-2.102l-.359 1.355-2.398.045-.48-2.531v-2.621l.422-1.72 2.459-.091.6.902v3.844l2.76.091.031 1.492-.933.135z"/><path id="path3112" stroke-width=".13" d="M1360.311 839.791v-.906h-2.1l-.359 1.357-2.398.044-.512-2.529v-2.625l.451-1.718 2.459-.091.6.905v3.845l2.762.088.027 1.492-.93.138z"/><path id="path3114" stroke-width=".13" d="M1360.791 826.685v-.904h-2.07l-.359 1.355-2.43.047-.479-2.531v-2.624l.449-1.721 2.459-.09.601.906v3.843l2.729.092.029 1.492-.929.135z"/><path id="path3116" stroke-width=".13" d="M1364.36 813.268v-.901h-2.098l-.361 1.355-2.43.044-.479-2.531v-2.621l.449-1.719 2.459-.092.6.902v3.844l2.73.092.061 1.492-.931.135z"/><path id="path3118" stroke-width=".13" d="M1392.737 832.923h-2.91s-3.479 2.852-.119 6.784c.092-.136 3.779.182 3.779.182s3.24-4.208-.75-6.966z"/><path id="path3120" stroke-width=".13" d="M1392.948 846.767h-2.91s-3.51 2.853-.121 6.785c.092-.135 3.779.184 3.779.184s3.24-4.21-.748-6.969z"/><path id="path3122" stroke-width=".117" d="M1392.887 820.273h-2.312s-2.816 2.864-.119 6.823c.092-.139 3.062.184 3.062.184s2.578-4.23-.631-7.007z"/><path id="path3124" stroke-width=".11" d="M1389.438 809.073h-2.1s-2.521 2.874-.09 6.845c.059-.139 2.729.182 2.729.182s2.308-4.245-.539-7.027z"/><path id="path3126" stroke-width=".122" d="M1366.43 821.369h-2.549s-3.09 2.859-.121 6.808c.092-.135 3.33.184 3.33.184s2.85-4.223-.66-6.992z"/><path id="path3128" stroke-width=".134" d="M1367.27 834.243h-2.91s-3.479 3.052-.119 7.266c.09-.145 3.779.195 3.779.195s3.209-4.507-.75-7.461z"/><path id="path3130" stroke-width=".126" d="M1366.67 847.212h-2.729s-3.33 2.854-.121 6.791c.062-.135 3.602.182 3.602.182s3.059-4.211-.752-6.973z"/><path id="path3132" stroke-width=".143" d="M1371.979 693.586l11.068.165-.359 4.585h-10.799l.09-4.75z"/><path id="path3134" stroke-width=".187" d="M1382.268 703.112h-9.209v4.599h9.119l.09-4.599z"/><path id="path3136" stroke-width=".201" d="M1373.629 712.949h7.77v5.049h-7.74l-.03-5.049z"/><path id="path3138" stroke-width=".2" d="M1374.77 721.99h5.578v2.792h-5.639l.061-2.792z"/><path id="path3140" stroke-width=".324" d="M1374.406 727.439l-2.639-33.637 11.428.192-2.67 33.477-6.119-.032z"/><path id="path3142" stroke-width=".311" d="M1377.77 693.357v-23.086"/></g></g><path id="path3090" fill="#00ADEF" stroke="#000" stroke-width=".164" d="M1278.873 1039.703c-.512 2.001-2.672 4.816-2.881 4.986-15.088 13.478-55.012 15.75-76.697-1.673-.869-.688-4.709-6.138-4.709-6.28-3.9-37.474-27.389-266.805 37.975-355.58-.48-.525 7.049-.525 7.049-.525 68.898 77.973 42.623 358.635 39.263 359.072z"/><path id="path3293" fill="#00ADEF" d="M838.656 1039.835v-7.781l.781-.866-.031-25.282s-1.107-1.559-.896-1.815c-.062-.304-.062-1.941-.062-1.941h1.109v-23.603l-1.049-.821v-.732l1.049.044-1.049-1.385v-1.298l-1.352-.884v-1.146l1.289-.994v-1.513l.871-.69v-5.534h-.811l-.449-.865v-.817l.479-.531h4.053v4.075h.809v.689h1.65v-.689h2.277v.866h1.32v.82h1.109v.517l.777.239v-3.051l.633-1.293.538-.604h5.431v.688h6.357v-.904h5.971v.86h15.54v-1.038h5.906v1.038h15.719v-1.165h5.788v1.165h15.147v-1.122h6.898v.994h5.52v-.948h-.869v-1.688h-.6v-1.43h1.68v-10.914h-1.107v-3.092h.51v-25.955l-1.351-1.514v-1.316l1.769-.759v-3.393l-.479-.146v-.868l2.13-1.515 3.149-1.061h3.39v-9.854l-1.289-1.114v-1.836h1.319v-.598h.568l-.091-.449h-.448l-.511-.584v-.678l1.47-.957v-2.173h.66c1.051-10.048 6.357-29.435 22.258-35.743v-1.378h.688v-.854s-1.229.146-1.409-.791c0-.242-.062-1.027.75-1.389l.479-.039v-2.918h.389v-1.576h.48v1.425h1.02v-2.507h-.538v-1.514h1.079v-10.979l-1.198-1.081v-.862h1.289v-3.44l1.229 1.374v1.682h.961v-6.234h-1.26v-1.101h.719v-3.361s1.59-2.84 2.58-2.84v-1.041l-.84-.488v-.489h.93v-2.644h.691s-.602-.465-.66-.906l-.031-1.018s.271-.495.541-.521l.392-.02v-.562c-2.761-1.527-.603-4.441 0-4.144l.06-5.386.479-2.918.448 2.918.091 5.386c.569-.3 2.761 2.614-.028 4.144v.562l.391.02c.299.024.539.521.539.521l-.029 1.018c-.061.441-.659.906-.659.906h.72v2.644h.899v.489l-.841.488v1.041c.99 0 2.58 2.84 2.58 2.84v3.361h.722v1.101h-1.263v6.236h.961v-1.683l1.229-1.373v3.44h1.291v.862l-1.199 1.081v10.979h1.078v1.514h-.539v2.507h1.021v-1.425h.479v1.574h.391v2.918l.479.04c.811.36.75 1.146.75 1.39-.181.937-1.41.791-1.41.791v.854h.69v1.378c15.896 6.311 21.207 25.695 22.285 35.743h.631v2.173l1.5.957v.677l-.539.583h-.42l-.121.451h.569v.597h1.318v1.837l-1.289 1.113v9.854h3.389l3.15 1.061 2.16 1.515v.866l-.511.146v3.392l1.771.759v1.317l-1.32 1.512v25.955h.48v3.094h-1.109v10.914h1.681v1.425h-.603v1.688h-.838v.676h7.647v-1.256h6.897v1.256h15.268v-1.094h5.908v1.225h15.869v-1.193h6.028v1.129h13.979v-1.081h7.588v1.004h30.355v-6.241l-.898-.756-.03-4.029.899-.455v-1.552h-.899v-5.195h2.698v-2.05l1.32.021-.812-1.26-.449-.58-.062-1.286.99.026v-1.643h.42v-13.943l-.75-.477-1.08-.594v-1.986h1.83v-3.027h.511v-2.118h1.347v-2.633h-.569v-.903h.569v-1.128h.841v1.099h.51v.935h-.51v1.516h.688l.812-1.452v-4.574h-.601v-1.495h.931v-1.534h.659v-1.064h-.659v-1.162h.631v-1.095h.448l-.09-.414h.569l-.062-1.978.869-1.303v-2.524l1.562-2.836h.301s.148-1.546.839-1.674l.062-1.135c-.629-.094-.897-1.333-.062-1.738.03 0 0-1.051 0-1.054-.988-.343-.988-2.173.36-2.224 1.351.055 1.351 1.881.358 2.227l-.028 1.051c.869.408.569 1.648-.031 1.738l.062 1.135c.688.131.841 1.678.841 1.678h.301l1.56 2.836v2.525l.84 1.301-.028 1.978h.569l-.09.415h.448v1.094h.601v1.162h-.66v1.062h.69v1.536h.929v1.495h-.601v4.573l.781 1.448h.688v-1.513h-.479v-.938h.479v-1.096h.871v1.129h.539v.902h-.539v2.628h1.318v2.117h.541v3.031h1.827v1.983l-1.108.597-.719.478v13.939h.42v1.646l.959-.027-.062 1.287-.42.579-.841 1.257 1.351-.023v2.053h2.701v5.195h-.899v1.553l.899.452-.031 4.032-.899.751v5.036h3.66v-1.166s-.66-.643-.601-1.128v-1.979s.149-.659.479-.84c-.062-.047 0-4.336 0-4.336l.39-.449s-.209-.881.51-.912c-.028 0 .75-.027.479 1.047 0-.019.722.462.722.462v1.162h-.302v.499h.511l-.028 3.979h-.449v9.947l.897.641v3.396h-.448v1.979h-.48v18.688h1.41v3.075h.959v2.073h-.479v.935h-1.409v3.056h.538v2.188h-.538v1.913h-.48v23.927h.931v.979h.511v.569h.479v8.135l-326.321.03h-.026z"/><g id="g3281"><g id="g3293" fill="#00ADEF"><path id="path3295" d="M710.455 872.81c0 1.199-1.021 2.174-2.279 2.174-1.262 0-2.279-.975-2.279-2.174 0-1.201 1.02-2.176 2.279-2.176s2.279.972 2.279 2.176z"/><path id="path3297" d="M707.906 871.206l.15-6.896.211 6.888-.361.008z"/><path id="path3299" d="M708.926 874.312c-.238 1.172.451 8.369.541 8.396 7.857 2.25 8.908 10.021 8.908 10.021l2.129.02v4.39h-2.248l-.121 33.354-19.887-.043.027-33.066h-2.129v-4.668l2.01-.021s.512-8.249 8.369-9.735c.09-.017 1.049-7.296.779-8.469l1.622-.179z"/></g><g id="g3301" fill="#00ADEF"><path id="path3303" d="M677.908 860.676c0 1.199-1.02 2.173-2.277 2.173-1.261 0-2.279-.974-2.279-2.173 0-1.202 1.02-2.176 2.279-2.176s2.277.974 2.277 2.176z"/><path id="path3305" d="M675.362 859.072l.15-6.896.209 6.883-.359.013z"/><path id="path3307" d="M676.381 862.179c-.24 1.172.449 8.37.541 8.397 7.857 2.25 8.906 10.021 8.906 10.021l2.131.021v4.385h-2.248l-.121 33.355-19.889-.04.029-33.065h-2.129v-4.669l2.01-.021s.511-8.25 8.369-9.732c.09-.02 1.049-7.297.779-8.469l1.622-.183z"/></g><path id="path3310" fill="#00ADEF" d="M798.764 860.518c0 1.202-1.021 2.178-2.279 2.178-1.291 0-2.311-.976-2.311-2.178 0-1.197 1.02-2.177 2.311-2.177 1.257 0 2.279.977 2.279 2.177z"/><path id="path3312" fill="#00ADEF" d="M796.184 858.914l.15-6.896.238 6.888-.388.008z"/><g id="g3314" fill="#00ADEF"><path id="path3316" d="M770.178 872.048c0 1.105-.99 1.998-2.223 1.998-1.197 0-2.188-.893-2.188-1.998 0-1.102.99-1.997 2.188-1.997 1.233 0 2.223.895 2.223 1.997z"/><path id="path3318" d="M767.719 870.579l.119-6.336.238 6.322-.357.014z"/><path id="path3321" d="M768.705 873.429c-.236 1.078.424 7.691.514 7.716 7.559 2.067 8.578 9.205 8.578 9.205l2.039.021v4.028h-2.158l-.121 30.637-19.168-.037.061-30.374h-2.068v-4.288l1.949-.017s.479-7.58 8.068-8.943c.09-.018.988-6.701.75-7.778l1.556-.17z"/></g><path id="path3323" fill="#00ADEF" stroke="#000" stroke-width=".071" d="M797.293 862.38c-.271 1.173.422 8.371.51 8.398 7.857 2.25 8.91 10.022 8.91 10.022l2.129.021v4.386h-2.219l-.15 33.354-19.887-.038.027-33.069h-2.129v-4.669l2.008-.021s.514-8.249 8.369-9.729c.09-.021 1.051-7.3.812-8.475l1.62-.18z"/><path id="path3325" fill="#00ADEF" stroke="#000" stroke-width=".07" d="M826.6 919.636l.029-4.811c-.57-.441-3.721-.707-3.721-.707v5.996l-3.301-.475-.029-5.666c-2.039-.357-2.879-.475-4.799-.552l.029 5.443-3.539-.474v-5.107c-2.641-.088-4.529-.111-4.529-.111l.062 5.09-5.16-.029h-4.59v-5.406h-7.107l.061 5.471-4.498-.021v-5.406l-7.021.021-.029 5.464-4.527-.025v-5.403h-7.143l.031 5.48-4.469-.033v-5.406h-7.141l.092 5.46-4.529-.007v-5.406h-7.141l.09 5.477-4.529-.016v-5.404h-7.105l.027 5.46-4.5-.009v-5.404h-7.107l.029 5.474-4.5-.021v-5.406h-7.107l.061 5.471-4.527-.021v-5.406h-7.109v5.372h-4.529v-5.238h-27.114l.209 89.227c-.237.059 131.804-.472 132.041-.476 0 0 27.086-.428 28.616-4.133.081-1.626.023-78.216.023-78.327z"/><path id="path3056" fill="#002F5B" stroke="#000" stroke-width=".24" d="M657.033 1019.617l-.029-9.647s-1.682-.318-1.592-1.034c.092-.714 1.053-.197 1.352-1.069.898-2.812-.449-4.861-2.879-4.904-2.699.01-3.898 2.115-2.973 4.924.271.873 1.23.357 1.32 1.072.09.714-1.59 1.033-1.59 1.033l-.061 9.129v.535l6.452-.039z"/></g><g id="g12775" fill="#E84D5B" stroke="#E84D5B" stroke-miterlimit="10"><path id="path2236" d="M217.136 887.749l1.519.04 1.325-8.276.618-2.998-.87-.068-.081-.636 1.089-.038.858-6.012.398-3.301.351 3.375.897 5.938.871.032.092.686-.894-.074 2.493 17.25.171 119.553-33.001-.003v-119.56l2.538-17.547-.789.081.062-.587.798-.07.789-4.691.49-3.938.281 3.965.76 4.456.792.064-.031.475-.657.078.792 3.561 2.44 8.229 1.516-.015 6.927-27.688 7.456 27.719z"/><path id="path7339" d="M421.265 887.61h2.097l1.329-8.354.618-2.994-.87-.069-.081-.636 1.089-.043.858-6.01.396-3.301.354 3.378.896 5.936.87.034.093.686-.894-.074 2.492 17.25.174 119.557-33.001-.008v-119.56l2.538-17.548-.789.08.062-.587.796-.068.791-4.692.492-3.938.281 3.966.757 4.46.795.061-.032.479-.659.073.792 3.562 2.091 8.6 1.946.016 6.849-28.084 6.87 27.828z"/><path id="path7342" d="M397.737 913.226l-78.274.023v-1.688s.477-3.397-1.413-3.221c.067-.025-1.706-.307-1.547 2.785l-3.806-.051-.045-2.633s2.594-3.428-.889-4.656c-1.771.805-1.758 2.701-.731 4.397.485.808.188 2.065.188 2.94l-3.873.027s.123-2.768-.957-2.764c0 0-2.387-.681-1.842 3.977h-78.979v13.115h176.035v-12.295l-3.867.044z"/><g id="g13443"><path id="path8345" d="M195.531 926.372c-50.342 56.454-75.533 82.606-139.939 84.854 0 0-50.432 3.24-78.712-20.895v.145"/><path id="path8336" d="M194.754 923.425s-71.725 74.815-139.374 83.429c0 0-35.197 3.351-79.468-21.61"/><path id="path11254" d="M176.265 941.053l-5.373 12.685"/><path id="path11256" d="M168.16 946.984l10.931-.818"/><path id="path11258" d="M169.618 947.392l-4.013 11.051.366-.309"/><path id="path11262" d="M149.167 964.016l11.297-.919"/><path id="path11264" d="M146.845 965.498l-10.479 18.722"/><path id="path11266" d="M134.409 974.653l15.304.924"/><path id="path11268" d="M132.405 975.271l-10.199 19.332"/><path id="path11270" d="M121.202 981.92l13.39 5.727"/><path id="path11272" d="M118.833 983.759l-10.658 17.698"/><path id="path11274" d="M107.446 989.489l13.572 6.75"/><path id="path11276" d="M106.172 990.614l-11.66 15.442"/><path id="path11278" d="M94.056 996.138l12.208 6.033"/><path id="path11280" d="M89.865 998.183l-9.019 11.15"/><path id="path11282" d="M79.847 1001.558l10.475 5.221"/><path id="path11284" d="M76.019 1003.195c-.36 0-8.381 7.367-8.381 7.367"/><path id="path11286" d="M67.093 1004.934l8.927 4.812"/><path id="path11288" d="M64.453 1006.265l-6.562 5.318"/><path id="path11290" d="M56.981 1007.288l9.293 4.399"/><path id="path12267" d="M175.401 948.366v71.811"/><path id="path12269" d="M161.738 952.866v67.721"/><path id="path12271" d="M148.075 962.483v58"/><path id="path12273" d="M134.046 973.121v47.056"/><path id="path12275" d="M119.834 981.92v38.257"/><path id="path12277" d="M106.718 988.465v31.506l.354-.226.014.021"/><path id="path12279" d="M92.871 995.013v25.164"/><path id="path12281" d="M79.574 1000.332v20.255"/><path id="path12283" d="M65.728 1004.627v16.162"/><path id="path12376" d="M162.511 953.224l10.157-.715"/><path id="path12378" d="M158.639 956.09l-8.381 17.081"/><path id="path7591" d="M39.401 1019.894v-14.014"/><path id="path7593" d="M24.919 1019.894v-16.062"/><path id="path7595" d="M11.256 1019.587v-19.336"/><path id="path7597" d="M-2.5 1019.075v-23.426h.366"/><path id="path7599" d="M-15.8 1018.462v-28.949"/><path id="path8572" d="M39.857 1010.073l10.75-2.764"/><path id="path8574" d="M39.95 1005.675l11.476 5.625"/><path id="path8576" d="M25.465 1008.845l14.938-2.25"/><path id="path8578" d="M25.648 1003.731l14.028 7.771v-.101"/><path id="path8580" d="M11.435 1006.595l13.117-2.456"/><path id="path8582" d="M11.619 1000.456l12.569 9.207"/><path id="path8584" d="M-2.227 1003.013l13.302-2.86"/><path id="path8586" d="M-2.134 995.444l13.115 11.254"/><path id="path8588" d="M-15.617 996.774l12.754-1.229"/><path id="path8590" d="M-15.251 989.407l12.205 12.893"/></g><g id="g12056"><g id="g11860"><path id="path11866" d="M446.558 941.386l5.375 12.688"/><path id="path11868" d="M454.654 947.321l-10.918-.818"/><path id="path11870" d="M453.215 947.729l3.987 11.051-.358-.309"/><path id="path11872" d="M473.672 964.354l-11.311-.921"/><path id="path11874" d="M475.981 965.835l10.468 18.723"/><path id="path11876" d="M488.429 974.991l-15.328.922"/><path id="path11878" d="M490.407 975.606l10.198 19.331"/><path id="path11880" d="M501.627 982.253l-13.407 5.73"/><path id="path11882" d="M503.995 984.096l10.648 17.698"/><path id="path11884" d="M515.365 989.825l-13.558 6.751"/><path id="path11886" d="M516.655 990.95l11.668 15.444"/><path id="path11888" d="M528.774 996.476l-12.209 6.033"/><path id="path11890" d="M532.973 998.521l8.998 11.147"/><path id="path11892" d="M542.99 1001.896l-10.498 5.217"/><path id="path11894" d="M546.801 1003.532c.357 0 8.367 7.367 8.367 7.367"/><path id="path11896" d="M555.739 1005.271l-8.938 4.811"/><path id="path11898" d="M558.379 1006.601l6.539 5.319"/><path id="path11900" d="M565.848 1007.625l-9.299 4.399"/><path id="path11902" d="M447.426 948.702v71.811"/><path id="path11904" d="M461.073 953.203v67.721"/><path id="path11906" d="M474.751 962.819v58"/><path id="path11908" d="M488.787 973.458v47.055"/><path id="path11910" d="M502.976 982.253v38.26"/><path id="path11912" d="M516.115 988.802v31.506l-.359-.226v.023"/><path id="path11914" d="M529.944 995.351v25.162"/><path id="path11916" d="M543.26 1000.669v20.255"/><path id="path11918" d="M557.088 1004.964v16.162"/><path id="path11920" d="M460.323 953.56l-10.166-.714"/><path id="path11922" d="M464.192 956.427l8.369 17.082"/><path id="path11924" d="M583.426 1020.229v-14.013"/><path id="path11926" d="M597.91 1020.229v-16.061"/><path id="path11928" d="M611.561 1019.923v-19.335"/><path id="path11930" d="M625.326 1019.411v-23.424h-.357"/><path id="path11932" d="M638.615 1018.798v-28.949"/><path id="path11934" d="M582.975 1010.411l-10.77-2.763"/><path id="path11936" d="M582.885 1006.012l-11.488 5.625"/><path id="path11938" d="M597.371 1009.181l-14.938-2.25"/><path id="path11940" d="M597.16 1004.067l-14.008 7.773v-.104"/><path id="path11942" d="M611.381 1006.931l-13.107-2.455"/><path id="path11944" d="M611.199 1000.794l-12.566 9.206"/><path id="path11946" d="M625.059 1003.351l-13.318-2.861"/><path id="path11948" d="M624.969 995.781l-13.141 11.251"/><path id="path11950" d="M638.438 997.112l-12.748-1.23"/><path id="path11952" d="M638.074 989.745l-12.207 12.891"/></g><path id="path11954" d="M665.973 985.662l45.98 31.152"/><path id="path11956" d="M664.084 987.396l43.584 30.231"/></g><path id="path2241" d="M57 1021.53l-.033-9.768s-1.707-.325-1.611-1.047c.099-.725 1.065-.199 1.354-1.085.924-2.843-.45-4.922-2.916-4.966-2.726.01-3.938 2.143-3.012 4.981.286.888 1.257.362 1.354 1.089.096.721-1.611 1.048-1.611 1.048l-.081 9.238v.544l6.556-.034z"/><path id="path2249" d="M572.115 1021.489l-.029-9.767s-1.709-.326-1.592-1.051c.092-.722 1.053-.199 1.352-1.085.93-2.84-.449-4.918-2.908-4.962-2.73.011-3.961 2.14-3.029 4.981.299.887 1.261.359 1.352 1.086.09.724-1.591 1.051-1.591 1.051l-.091 9.239v.542l6.536-.034z"/><path id="path10593" d="M-44.829 1021.604l228.461.037v-1.455c-.021 0-203.232-.48-228.479-.502l.018 1.92z"/><path id="path2253" d="M-44.809 1012.771h228.854v4.882h-228.854v-4.882z"/><g id="g2268"><path id="path2264" d="M439.584 1013.079h408.252v5.062h-408.666l.414-5.062z"/><path id="path2266" d="M847.237 1020.261c-.061 0-409.209-.182-409.209-.182l.033 1.692h409.146l.03-1.51z"/></g><path id="path2276" d="M387.734 1012.837h53.47v33.961h-53.741l.271-33.961z"/><path id="path2280" d="M182.87 1012.837h53.47v33.961h-53.742l.272-33.961z"/><g id="g4241"><path id="path2291" d="M231.709 1015.636l68.798-38.506 2.043 4.558-68.837 38.495-2.004-4.547z"/><path id="path2296" d="M232.114 1038.706c.053.011 41.812-38.818 69.463-54.691l1.935-1.105"/><path id="path3270" d="M239.427 1031.619l-6.677-12.996 12.538 5.491-4.064-9.396 11.878 3.177-3.978-9.049 11.027 3.122-3.271-7.703 10.379 2.233-2.769-6.245 8.609 1.324-2.472-4.76 7.862.854-2.04-4.112 6.825.466-1.605-3.464 6.221.235-2.298-5.017"/></g><g id="g4247"><path id="path4249" d="M391.306 1014.928l-68.798-38.505-2.043 4.558 68.837 38.495 2.004-4.548z"/><path id="path4251" d="M390.901 1037.999c-.051.01-41.811-38.815-69.464-54.691l-1.932-1.106"/><path id="path4253" d="M383.589 1030.912l6.677-12.996-12.538 5.491 4.062-9.396-11.878 3.179 3.979-9.051-11.029 3.123 3.276-7.703-10.382 2.232 2.769-6.244-8.606 1.323 2.469-4.76-7.862.854 2.04-4.112-6.827.467 1.607-3.463-6.222.236 2.299-5.019"/></g><path id="path12772" d="M-34.211 945.345c.249-.122.444-.452.444-.792 0-.455-.309-.822-.688-.822-.384 0-.693.367-.693.822 0 .354.189.656.483.792l-.069 4.603-1.157.017v.883h.434s.096 1.343-.132 2.328c-3.008 8.799-5.78 9.866-5.78 9.866l-3.387-.037-1.637 3.519-.031 12.053-1.742.021-.024 2.708h1.8v28.229l-1.997 5.804.065 29.03h27.446l-.063-29.41-2.061-5.805v-27.854h1.8l-.024-2.704-1.74-.022-.036-12.055-1.439-3.357-2.99-.118s-2.41-1.661-5.817-9.991c-.087-1.521.009-2.209-.007-2.223l.433.006-.006-.906h-1.176l-.204-4.576v-.007l-.005-.002z"/><path id="path12108" d="M656.614 945.345c.271-.122.451-.452.451-.792 0-.455-.301-.822-.689-.822-.391 0-.689.367-.689.822 0 .354.182.656.479.792l-.061 4.603-1.168.017v.883h.449s.09 1.343-.15 2.328c-3 8.799-5.76 9.866-5.76 9.866l-3.389-.037-1.65 3.519-.029 12.053-1.74.021-.027 2.708h1.799v28.229l-1.979 5.804.061 29.03h27.447l-.062-29.41-2.07-5.805v-27.854h1.803l-.031-2.704-1.738-.022-.03-12.052-1.438-3.358-3-.118s-2.398-1.661-5.818-9.991c-.09-1.521.029-2.209 0-2.223l.42.006v-.906h-1.17l-.211-4.575v-.008h-.005v-.004z"/></g><g id="layer4" stroke="#000" stroke-width=".072"><path id="path2912" fill="#00ADEF" d="M-188.233 979.151h32.982v-5.305h-3.271v-4.346h-3.753v-9.924l-2.289-1.482v-14.421l2.169-1.697v-1.699l-2.358-1.633v-1.493l.028-1.09s.045-.912-.727-.964c.042-.047.472-1.534-.6-2.062.129 0-.729-99.816-.729-99.816s-.581-.52-.953-.62c.188-.101 1.041-8.27 3.096-10.191l-.01-.352-.407-.034v-.574l.498-.239v-.475s-2.043-.188-2.421-1.105c-.016-.084-.831-4.639-2.874-5.13.099-.011-1.437-.018-1.604-.014-.167.003-1.743.017-1.604.021-1.68.266-2.86 5.046-2.877 5.131-.378.919-2.42 1.104-2.42 1.104v.478l.5.236v.579l-.407.034-.013.351c2.055 1.92 2.913 10.092 3.096 10.193-.366.101-.951.618-.951.618s-.855 99.812-.729 99.812c-1.067.529-.642 2.02-.597 2.068-.771.048-.729.961-.729.961l.03 1.092v1.492l-2.36 1.633v1.698l2.169 1.699v14.419l-2.289 1.483v9.921h-3.753v4.354h-3.269v5.299h32.98"/><path id="path2914" fill="#E84D5B" d="M-174.153 815.144l-2.988-.028s.861-1.303.972-2.089c.159-.784 1.104-.938 1.236-1.511 0 .184.809-5.684 1.158-5.926.35-.238-.324-.33-.324-.33s-.216.634-.565.664c-.32.03-.617-1.752-.617-1.752l-.027-1.998.243-.178.054-.606.861-.212s.353.062.646.363c.025 0 .378-.455.7-.363.294.029.104-1.21.104-1.21l-.915-.057s.595-3.116 1.965-3.325c.027 0-.032-.414.055-.455.249-.114.431-.05.485 0 .039.037.054.634.054.634s.537.425.81.851c-.027-.184.456.846.456.846s.271.037.297.061c.063.062-.003.592-.027.664-.012.04-.672.184-.672.184l-.405.242-.188.119-.051 1.54.645.364.108.242s.591-.071.969 0c.081.014.429.663.32 1.3-.056.634.241 1.603.241 1.603l.38.967.241 1.178.563.152.217.455-.027.391-.646.303-1.425 6.832-.434-.182 1.563-6.804s-.354.03-.516-.149c-.16-.183-.858-1.994-.834-2.389-.054-.062-.27-.093-.27-.093v.819l.188.121-.025 3.836-.402 2.023-.781.092s-.239.668-.077.846c0 .061 1.101.121 1.071 1.422-.214-.064-4.386.603-4.386.543z"/></g><g id="g3766" stroke="#D21C23"><path id="path2898" fill="none" stroke-width=".9" d="M-212.071 891.117c0 61.733-44.564 111.782-99.537 111.782-54.977 0-99.541-50.049-99.541-111.782 0-61.735 44.564-111.785 99.541-111.785 54.973 0 99.537 50.05 99.537 111.785z"/><path id="path2900" fill="none" stroke-width="2.828" d="M-195.903 891.892c0 70.809-51.113 128.203-114.16 128.203-63.048 0-114.16-57.396-114.16-128.203 0-70.803 51.112-128.197 114.16-128.197 63.047-.003 114.16 57.394 114.16 128.197z"/><path id="path2902" fill="none" stroke-width=".305" d="M-347.651 786.78l-10.297-9.896.801 15.034-9.956-9.25.806 14.391-9.271-8.736 1.944 14.519-9.953-6.553 3.316 12.848-12.587-3.725 5.492 11.691-11.785-2.697 5.948 11.95-13.042-2.057 7.78 11.306h-12.357l8.009 7.712-12.014 2.44 8.24 7.579-12.358 4.241 9.038 8.095-10.524 6.04 9.725 5.396-12.355 7.449 9.611 2.061-10.069 9.894 11.214 1.543-10.069 10.793 12.357.646-10.641 10.92 12.355-.256-9.727 10.276 13.615.257-9.038 10.536 12.355-1.539-8.467 13.875 13.501-4.882-7.779 15.935 13.045-6.428-4.81 18.632 12.933-8.479-3.776 18.76 13.387-9.381-2.4 18.503 11.785-10.537-1.028 19.403 11.668-13.104 2.175 18.887 10.756-13.363 3.091 18.89 9.267-15.29 4.689 17.73 6.979-16.705 7.554 17.732 4.807-17.604 7.663 16.448 4.351-18.632 9.838 15.418 2.062-18.375 11.213 14.006.459-18.887 11.897 12.848-.915-20.043 12.47 11.305-2.631-18.371 11.67 10.021-3.203-19.403 13.501 7.455-4.808-18.891 13.845 6.168-7.321-16.961 14.532 5.141-9.843-16.705 15.219 1.543-11.101-13.105 13.615-.771-11.44-11.562 14.416-4.241-12.929-9.894 13.729-3.981-12.586-7.326 12.697-3.98-14.068-5.523 12.469-8.738-15.33-1.415 11.557-9.638h-12.698l12.47-9.766-16.02.516 10.299-12.335-14.875 4.112 10.068-12.725-14.528 1.543 6.635-14.776-13.729 6.041 5.263-16.833-12.015 8.095 3.433-17.217-11.898 10.021.801-18.76-10.123 11.372-1.936-18.904-11.812 10.358-2.427-16.9-9.062 12.902-1.94-15.81-8.417 13.991-4.367-15.988-5.015 13.808-6.312-15.444-4.209 15.444-8.413-13.629-1.134 14.538-10.841-12.175-.647 15.265-10.028-11.086-1.491 14.949z"/><g fill="#00ADEF"><path id="path2836" stroke-miterlimit="10" d="M-312.198 756.156c0 4.262-3.077 7.718-6.875 7.718-3.795 0-6.872-3.456-6.872-7.718 0-4.266 3.077-7.722 6.872-7.722 3.797.004 6.875 3.459 6.875 7.722z"/><path id="path2838" stroke-miterlimit="10" d="M-338.592 761.91c0 4.265-3.077 7.721-6.875 7.721-3.799 0-6.875-3.456-6.875-7.721 0-4.262 3.076-7.717 6.875-7.717 3.798 0 6.875 3.455 6.875 7.717z"/><path id="path2840" stroke-miterlimit="10" d="M-359.789 771.178c0 4.266-3.078 7.723-6.875 7.723-3.795 0-6.872-3.457-6.872-7.723 0-4.262 3.077-7.718 6.872-7.718 3.797 0 6.875 3.456 6.875 7.718z"/><path id="path2842" stroke-miterlimit="10" d="M-379.533 785.352c0 4.268-3.077 7.723-6.871 7.723-3.798 0-6.875-3.455-6.875-7.723 0-4.264 3.077-7.717 6.875-7.717 3.793 0 6.871 3.453 6.871 7.717z"/><path id="path2844" stroke-miterlimit="10" d="M-395.712 802.979c0 4.263-3.078 7.72-6.875 7.72-3.795 0-6.872-3.457-6.872-7.72 0-4.265 3.077-7.721 6.872-7.721 3.797.001 6.875 3.457 6.875 7.721z"/><path id="path2846" stroke-miterlimit="10" d="M-408.821 823.874c0 4.266-3.077 7.721-6.872 7.721-3.798 0-6.875-3.455-6.875-7.721 0-4.261 3.077-7.717 6.875-7.717 3.795 0 6.872 3.456 6.872 7.717z"/><path id="path2848" stroke-miterlimit="10" d="M-418.528 847.862c0 4.264-3.077 7.721-6.875 7.721-3.794 0-6.871-3.457-6.871-7.721s3.077-7.72 6.871-7.72c3.798.003 6.875 3.459 6.875 7.72z"/><path id="path2850" stroke-miterlimit="10" d="M-423.707 873.302c0 4.266-3.077 7.723-6.872 7.723-3.798 0-6.875-3.457-6.875-7.723 0-4.262 3.077-7.718 6.875-7.718 3.795 0 6.872 3.456 6.872 7.718z"/><path id="path2852" stroke-miterlimit="10" d="M-425.324 899.107c0 4.261-3.077 7.718-6.875 7.718-3.794 0-6.872-3.457-6.872-7.718 0-4.267 3.078-7.723 6.872-7.723 3.797.003 6.875 3.459 6.875 7.723z"/><path id="path2854" stroke-miterlimit="10" d="M-421.44 925.638c0 4.264-3.077 7.72-6.875 7.72-3.794 0-6.872-3.456-6.872-7.72s3.078-7.721 6.872-7.721c3.798 0 6.875 3.457 6.875 7.721z"/><path id="path2856" stroke-miterlimit="10" d="M-413.998 950.35c0 4.267-3.077 7.723-6.871 7.723-3.798 0-6.875-3.456-6.875-7.723 0-4.261 3.077-7.718 6.875-7.718 3.794 0 6.871 3.457 6.871 7.718z"/><path id="path2858" stroke-miterlimit="10" d="M-401.537 974.7c0 4.262-3.078 7.718-6.875 7.718-3.795 0-6.872-3.456-6.872-7.718 0-4.266 3.077-7.722 6.872-7.722 3.797.001 6.875 3.46 6.875 7.722z"/><path id="path2860" stroke-miterlimit="10" d="M-382.928 996.505c0 4.268-3.076 7.721-6.875 7.721-3.798 0-6.875-3.453-6.875-7.721 0-4.261 3.077-7.717 6.875-7.717s6.875 3.456 6.875 7.717z"/><path id="path2862" stroke-miterlimit="10" d="M-362.057 1013.042c0 4.264-3.073 7.721-6.872 7.721-3.798 0-6.875-3.457-6.875-7.721 0-4.262 3.077-7.718 6.875-7.718s6.872 3.456 6.872 7.718z"/><path id="path2864" stroke-miterlimit="10" d="M-334.797 1024.855c0 4.261-3.078 7.717-6.875 7.717-3.795 0-6.872-3.456-6.872-7.717 0-4.267 3.077-7.724 6.872-7.724 3.797.003 6.875 3.46 6.875 7.724z"/><path id="path2866" stroke-miterlimit="10" d="M-303.557 1027.749c0 4.261-3.078 7.717-6.875 7.717-3.794 0-6.872-3.456-6.872-7.717 0-4.266 3.078-7.721 6.872-7.721 3.797 0 6.875 3.455 6.875 7.721z"/><path id="path2868" stroke-miterlimit="10" d="M-276.378 1026.034c0 4.265-3.077 7.721-6.871 7.721-3.798 0-6.876-3.456-6.876-7.721 0-4.263 3.078-7.717 6.876-7.717 3.794 0 6.871 3.454 6.871 7.717z"/><path id="path2870" stroke-miterlimit="10" d="M-247.816 1015.403c0 4.264-3.078 7.721-6.875 7.721-3.798 0-6.876-3.457-6.876-7.721s3.078-7.72 6.876-7.72c3.797.003 6.875 3.459 6.875 7.72z"/><path id="path2872" stroke-miterlimit="10" d="M-224.03 997.778c0 4.262-3.077 7.718-6.875 7.718-3.797 0-6.875-3.456-6.875-7.718 0-4.266 3.078-7.723 6.875-7.723 3.798.003 6.875 3.46 6.875 7.723z"/><path id="path2874" stroke-miterlimit="10" d="M-206.231 976.517c0 4.267-3.077 7.723-6.874 7.723-3.798 0-6.876-3.456-6.876-7.723 0-4.262 3.078-7.717 6.876-7.717 3.797 0 6.874 3.455 6.874 7.717z"/><path id="path2876" stroke-miterlimit="10" d="M-193.125 953.075c0 4.264-3.077 7.721-6.875 7.721-3.795 0-6.872-3.457-6.872-7.721 0-4.263 3.077-7.718 6.872-7.718 3.798 0 6.875 3.455 6.875 7.718z"/><path id="path2878" stroke-miterlimit="10" d="M-184.873 927.271c0 4.265-3.077 7.721-6.872 7.721-3.798 0-6.875-3.456-6.875-7.721 0-4.263 3.077-7.719 6.875-7.719 3.795.003 6.872 3.459 6.872 7.719z"/><path id="path2880" stroke-miterlimit="10" d="M-180.826 901.469c0 4.267-3.078 7.723-6.875 7.723-3.795 0-6.872-3.456-6.872-7.723 0-4.265 3.077-7.721 6.872-7.721 3.796 0 6.875 3.456 6.875 7.721z"/><path id="path2882" stroke-miterlimit="10" d="M-181.313 874.757c0 4.266-3.078 7.722-6.875 7.722-3.795 0-6.872-3.456-6.872-7.722s3.077-7.721 6.872-7.721c3.797 0 6.875 3.455 6.875 7.721z"/><path id="path2884" stroke-miterlimit="10" d="M-186.976 847.862c0 4.264-3.078 7.721-6.875 7.721-3.795 0-6.872-3.457-6.872-7.721s3.077-7.72 6.872-7.72c3.797.003 6.875 3.459 6.875 7.72z"/><path id="path2886" stroke-miterlimit="10" d="M-196.037 825.33c0 4.265-3.078 7.721-6.875 7.721-3.795 0-6.872-3.456-6.872-7.721s3.077-7.721 6.872-7.721c3.797 0 6.875 3.456 6.875 7.721z"/><path id="path2888" stroke-miterlimit="10" d="M-210.115 803.162c0 4.261-3.077 7.717-6.875 7.717-3.795 0-6.872-3.456-6.872-7.717 0-4.266 3.077-7.722 6.872-7.722 3.798 0 6.875 3.456 6.875 7.722z"/><path id="path2890" stroke-miterlimit="10" d="M-225.973 785.716c0 4.267-3.076 7.722-6.872 7.722-3.798 0-6.875-3.455-6.875-7.722 0-4.265 3.077-7.721 6.875-7.721 3.794 0 6.872 3.456 6.872 7.721z"/><path id="path2892" stroke-miterlimit="10" d="M-245.713 771.359c0 4.264-3.078 7.721-6.875 7.721-3.795 0-6.872-3.457-6.872-7.721s3.077-7.72 6.872-7.72c3.797.003 6.875 3.459 6.875 7.72z"/><path id="path2894" stroke-miterlimit="10" d="M-267.073 761.547c0 4.264-3.077 7.721-6.872 7.721-3.797 0-6.875-3.457-6.875-7.721 0-4.262 3.078-7.718 6.875-7.718 3.794 0 6.872 3.456 6.872 7.718z"/><path id="path2896" stroke-miterlimit="10" d="M-288.754 756.643c0 4.263-3.077 7.719-6.875 7.719-3.797 0-6.875-3.456-6.875-7.719 0-4.266 3.078-7.721 6.875-7.721 3.798 0 6.875 3.455 6.875 7.721z"/><path id="path2904" stroke-width=".9" d="M-302.571 888.291c0 4.753-3.431 8.606-7.666 8.606-4.232 0-7.664-3.854-7.664-8.606 0-4.757 3.432-8.61 7.664-8.61 4.236 0 7.666 3.853 7.666 8.61z"/></g><path id="path2906" fill="#E84D5B" stroke-width=".349" d="M-313.606 895.655l2.438.033s-3.578 38.586-14.244 148.12l-12.455-.271"/><path id="path2908" fill="#E84D5B" stroke-width=".353" d="M-308.596 895.523l-2.491.032s5.146 46.364 15.856 148.623l11.476-.784"/></g></g></g><g id="mountains"><path fill="#D4E5F6" d="M-792.243 1119.833"/><polygon fill="#14757B" points="-209.3,510.472 -37.804,689.235 -193.184,705.394"/><polygon fill="#ACE8EA" points="-402.598,667.509 -345.107,604.72 -321.267,642.229 -398.216,859.793"/><path fill="#A7C6E8" d="M-927.366 1503.302"/><path fill="#A7C6E8" d="M-1577.241 1702.573"/><path fill="#C1DDF3" d="M-1577.241 1702.573"/><path fill="#5984C3" d="M-832.03 1389.982"/><path fill="#A7C6E8" d="M-588.439 1107.608"/><path fill="#0D72B9" d="M-854.126 1095.198"/><polygon fill="#ACE8EA" points="-854.126,1095.198 -735.19,578.242 -588.439,1107.608"/><polygon fill="#F5ECD9" points="-735.19,578.242 -649.129,529.291 -588.439,1107.608"/><polygon fill="#fff" points="-646.729,553.362 -649.129,529.291 -566.951,373.859 -471.992,709.22"/><polygon fill="#229098" points="-588.439,1107.608 -471.992,709.22 -626.096,552.59 -646.729,553.362"/><polygon fill="#F5ECD9" points="-345.107,1147.357 -588.439,1107.608 -471.992,709.22 -402.598,667.509"/><polygon fill="#C1E8E7" points="-566.951,373.859 -402.598,667.509 -471.992,709.22"/><path fill="#5984C3" d="M-854.126 1095.198"/><polygon fill="#fff" points="-345.107,604.72 -209.3,510.472 -180.034,864.441"/><polygon fill="#14757B" points="-398.216,859.793 -330.423,1226.866 -180.034,864.441 -321.267,642.229"/><polygon fill="#ACE8EA" points="-357.747,1078.915 -330.423,1226.866 -398.216,859.793 -588.439,1107.608"/><polygon fill="#229098" points="-209.3,510.472 -193.184,705.394 -180.034,864.441"/><polygon fill="#14757B" points="-191.831,1193.399 -180.034,864.441 -330.423,1226.866"/><polygon fill="#229098" points="71.511,1204.285 -191.831,1193.399 -180.034,864.441"/><polygon fill="#ACE8EA" points="71.511,1204.285 -37.804,689.235 -180.034,864.441"/><polygon fill="#F5ECD9" points="71.511,1204.285 227.962,1204.132 -37.804,689.235"/><polygon fill="#14757B" points="-37.804,689.235 171.052,897.846 227.962,1204.132"/><polygon fill="#63D3D6" points="227.962,1204.132 426.55,1189.605 171.052,897.846"/><polygon fill="#ACE8EA" points="-37.804,689.235 -116.212,415.166 88.257,723.859"/><polygon fill="#63D3D6" points="171.052,897.846 88.257,723.859 -37.804,689.235"/><polygon fill="#fff" points="-37.804,689.235 -116.212,415.166 -209.3,510.472"/><polygon fill="#229098" points="-402.598,667.509 -345.107,604.72 -566.951,373.859"/><polygon fill="#63D3D6" points="426.55,1189.605 490.657,1138.932 273.831,934.037"/><polygon fill="#ACE8EA" points="490.657,1138.932 701.151,1101.004 454.365,929.785 273.831,934.037"/><polygon fill="#C1E8E7" points="255.411,944.84 148.075,795.87 148.075,691.64 250.054,605.882 454.365,929.785"/><polygon fill="#1C8389" points="701.151,1101.004 250.054,605.882 454.365,929.785"/><polygon fill="#fff" points="168.141,820.025 255.411,944.84 250.054,605.882 88.257,723.859"/><polygon fill="#63D3D6" points="488.188,867.465 599.406,883.821 761.608,1042.641 701.151,1101.004"/><polygon fill="#C1E8E7" points="454.365,929.785 490.657,1138.932 255.411,944.84"/><polygon fill="#C1E8E7" points="599.406,883.821 701.151,1101.004 761.608,1042.641"/></g><g id="clouds"><path fill="#F5ECD9" d="M188.406 612.645c0-10.18-8.252-18.432-18.432-18.432s-18.432 8.252-18.432 18.432h36.864z"/><path fill="#F5ECD9" d="M273.68 612.645c0-10.18-8.252-18.432-18.432-18.432-10.186 0-18.438 8.252-18.438 18.432h36.87z"/><path fill="#F5ECD9" d="M231.043 612.645c0-15.688-12.729-28.424-28.426-28.424s-28.43 12.729-28.43 28.424h56.856z"/><g fill="#F5ECD9"><path d="M253.926 342.688c0-4.557-3.693-8.25-8.25-8.25s-8.25 3.693-8.25 8.25h16.5zM279.373 342.688c0-3.513-2.854-6.361-6.361-6.361s-6.361 2.849-6.361 6.361h12.722zM273.012 342.688c0-7.026-5.697-12.723-12.725-12.723-7.025 0-12.729 5.696-12.729 12.723h25.454z"/></g><g fill="#F5ECD9"><path d="M460.604 534.379c0-6.624 5.369-11.992 11.993-11.992 6.622 0 11.991 5.368 11.991 11.992h-23.984zM376.655 534.379c0-9.936 8.06-17.989 17.979-17.989 9.938 0 17.982 8.062 17.982 17.989h-35.961zM400.641 534.379c0-19.871 16.104-35.979 35.979-35.979s35.979 16.104 35.979 35.979h-71.958z"/></g><g fill="#F5ECD9"><path d="M482.551 554.23c0-5.273 4.271-9.562 9.549-9.562 5.271 0 9.557 4.273 9.557 9.562h-19.106zM497.275 554.23c0-4.064 3.297-7.361 7.354-7.361 4.062 0 7.357 3.297 7.357 7.361h-14.711z"/></g><g fill="#F5ECD9"><path d="M803.939 380.535c0-19.677-15.953-35.632-35.641-35.632-19.682 0-35.627 15.955-35.627 35.632h71.268zM830.49 380.535c0-14.669-11.889-26.558-26.557-26.558-14.678 0-26.562 11.889-26.562 26.558h53.119zM744.854 380.535c0-8.801-7.137-15.936-15.938-15.936-8.803 0-15.938 7.135-15.938 15.936h31.876zM418.438 513.637c0-18.051-14.633-32.684-32.684-32.684-18.057 0-32.688 14.633-32.688 32.684h65.372zM377.432 513.637c0-13.455-10.896-24.354-24.354-24.354-13.447 0-24.354 10.896-24.354 24.354h48.708zM437.926 513.637c0-10.764-8.729-19.479-19.488-19.479-10.764 0-19.479 8.725-19.479 19.479h38.967zM338.449 513.637c0-8.062-6.543-14.617-14.609-14.617-8.072 0-14.617 6.561-14.617 14.617h29.226zM366.605 442.211"/><path d="M346.316 370.211"/><path d="M667.055 556.801c0-8.953-7.258-16.211-16.211-16.211s-16.211 7.258-16.211 16.211h32.422zM717.055 556.801c0-6.896-5.596-12.5-12.5-12.5-6.896 0-12.5 5.604-12.5 12.5h25zM704.555 556.801c0-13.807-11.188-25-25-25s-25 11.193-25 25h50zM304.781 534.908c0-7.674-6.229-13.896-13.896-13.896s-13.895 6.229-13.895 13.896h27.791zM315.139 534.908c0-5.721-4.637-10.357-10.354-10.357s-10.354 4.646-10.354 10.357h20.708zM281.736 534.908c0-3.438-2.777-6.215-6.215-6.215-3.432 0-6.215 2.771-6.215 6.215h12.43zM362.755 376.418c0-8.264-6.697-14.961-14.961-14.961-8.271 0-14.959 6.697-14.959 14.961h29.92zM467.479 376.418c0-12.395-10.047-22.441-22.438-22.441-12.396 0-22.44 10.047-22.44 22.441h44.878zM437.558 376.418c0-24.789-20.094-44.883-44.881-44.883s-44.886 20.094-44.886 44.883h89.767zM511.904 600.949c0-5.273-4.271-9.547-9.547-9.547-5.271 0-9.557 4.271-9.557 9.547h19.104zM497.182 600.949c0-4.064-3.297-7.361-7.354-7.361-4.062 0-7.355 3.297-7.355 7.361h14.709zM618.617 107.473c0-5.273-4.271-9.547-9.549-9.547-5.271 0-9.547 4.273-9.547 9.547h19.096zM603.898 107.473c0-4.064-3.307-7.361-7.361-7.361-4.062 0-7.357 3.297-7.357 7.361h14.718zM856.65 47.383c0-4.557-3.692-8.25-8.25-8.25-4.562 0-8.25 3.693-8.25 8.25h16.5zM882.098 47.383c0-3.513-2.848-6.361-6.354-6.361-3.521 0-6.355 2.849-6.355 6.361h12.709zM875.736 47.383c0-7.026-5.697-12.723-12.729-12.723-7.021 0-12.729 5.696-12.729 12.723h25.458zM66 395.904c0-5.273 4.271-9.547 9.549-9.547 5.271 0 9.547 4.271 9.547 9.547h-19.096zM80.725 395.904c0-4.064 3.297-7.361 7.361-7.361 4.062 0 7.363 3.297 7.363 7.361h-14.724z"/></g><path fill="#F5ECD9" d="M64.212 540.55h-8v-1h8v1zm-16 0h-8v-1h8v1zm-16 0h-8v-1h8v1zm-16 0h-8v-1h8v1zm-16 0h-8v-1h8v1zm-16 0h-8v-1h8v1zm-16 0h-8v-1h8v1zm-16 0h-8v-1h8v1zm-16 0h-8v-1h8v1zm-16 0h-8v-1h8v1zm-16 0h-8v-1h8v1zm-16 0h-5.417v-1h5.417v1z"/><path fill="#F5ECD9" d="M1151.275 93.095h-8v-1h8v1zm-16 0h-8v-1h8v1zm-16 0h-8v-1h8v1zm-16 0h-8v-1h8v1zm-16 0h-8v-1h8v1zm-16 0h-8v-1h8v1zm-16 0h-8v-1h8v1z"/><path fill="#F5ECD9" d="M721.096 317.734h-8v-1h8v1zm-16 0h-8v-1h8v1zm-16 0h-8v-1h8v1zm-16 0h-8v-1h8v1zm-16 0h-8v-1h8v1zm-16 0h-8v-1h8v1zm-16 0h-8v-1h8v1zm-16 0h-8v-1h8v1zm-16 0h-8v-1h8v1zm-16 0h-8v-1h8v1z"/></g><g id="Layer_1_1_"><g id="plane"><path fill="#FFFEF0" d="M1113.342 663.949c2.248.031 5.396.428 5.396.428s-3.146.396-5.396.429c-2.246.031-4.113-.429-4.113-.429s1.867-.46 4.113-.428z"/><path fill="#C8C6BC" d="M1109.227 664.382l21.562 15.711s1.234.325 3.152.729l-22.969-16.438-1.745-.002z"/><path fill="#FFFEF0" d="M1133.947 680.816c3.021.625 7.729 1.432 11.938 1.432 5.481 0 17.938-1.835 17.938-1.835l-45.25-16.03h-7.595l22.969 16.433z"/><path opacity=".4" fill="#BCBAD0" enable-background="new" d="M1109.227 664.377s1.868-.46 4.114-.428c2.248.031 5.396.428 5.396.428l-.137.018 45.217 16.021s-12.438 1.835-17.931 1.835c-4.229 0-8.936-.807-11.944-1.432-1.918-.397-3.154-.729-3.154-.729l-21.562-15.711h.021l-.02-.002z"/><path fill="#C8C6BC" d="M1265.199 676.9l35.201 25.646s2.021.53 5.158 1.183l-37.5-26.816-2.859-.013z"/><path fill="#FFFEF0" d="M1305.564 703.73c4.934 1.021 12.609 2.337 19.502 2.337 8.959 0 29.271-2.995 29.271-2.995l-73.877-26.172h-12.396l37.5 26.83z"/><polygon opacity=".4" fill="#BCBAD0" enable-background="new" points="1318.875,690.482 1277.656,685.979 1283.682,690.482"/><path id="carlinga" fill="#FFFEF0" d="M1142.924 660.316l13.275 18.166 48 12h176s39.5-2.166 51.734 6l4.334 4s12.021 4.545 13.646 9.002c.123.334.19.668.188.998-.062 4.856-12.668 16-69.918 16h-144c-10.688 0-25.562-3.021-41.854-7.229-38.153-9.871-81.896-26.356-81.896-26.356v-8.567l8.646-2.104-5.729-21.896 27.574-.014z"/><polygon fill="#FFFEF0" points="1107.561,630.482 1121.111,630.482 1134.395,648.65 1112.318,648.65"/><polygon fill="#FFFEF0" points="1119.318,660.316 1115.373,660.316 1112.318,648.65 1115.699,648.65"/><polygon fill="#8CC152" points="1134.395,648.65 1142.924,660.316 1119.318,660.316 1115.699,648.65"/><polygon fill="#C8C6BC" points="1150.311,687.645 1136.586,701.598 1123.834,697.091"/><path fill="#C8C6BC" d="M1098.982 702.715l20.271-14.771s1.168-.312 2.971-.688l-21.594 15.448-1.648.011z"/><path fill="#FFFEF0" d="M1122.223 687.266c2.853-.589 7.271-1.346 11.229-1.346 5.158 0 16.857 1.725 16.857 1.725l-38.533 15.07h-11.146l21.593-15.449z"/><rect x="1117.56" y="629.42" transform="matrix(.955 -.298 .298 .955 -144.155 362.473)" fill="#8CC152" width=".997" height="50.265"/><path fill="none" stroke="#4E4B80" stroke-width="10" stroke-miterlimit="10" d="M1225.699 716.482"/><path fill="#DA4453" d="M1225.199 708.816h161l5 5h-166c-24.689 0-42.605-.604-55.266-1.331-7.486-2.277-14.781-4.625-21.525-6.87 8.367 1.063 30.903 3.201 76.791 3.201z"/><path fill="#DA4453" d="M1225.199 715.537h133.168l-2.5 2.5h-130.668c-15.123 0-27.688-.229-38.062-.567-3.437-.938-6.886-1.921-10.312-2.928 12.017.568 27.868.995 48.374.995z"/><path fill="#E4E2D6" d="M1449.934 709.484c.123.334.193.668.188.998-.062 4.856-12.668 16-69.918 16h-144c-27 0-87.791-20.867-87.791-20.867s28.406 12.142 114.791 12.142c179.157 0 186.4-8.195 186.73-8.273z"/><path fill="#EDEDE6" d="M1344.281 730.434c-23.959 3.375-34.611-.269-41.156-2v-12c6.545-1.729 17.197-5.375 41.156-2v16z"/><polygon fill="#C8C6BC" points="1346.859,716.434 1346.859,718.434 1346.859,728.434 1344.281,730.434 1344.281,718.434 1344.281,714.434"/><polygon fill="#EDEDE6" points="1303.125,727.517 1300.551,726.881 1300.551,717.985 1303.125,717.351"/><polygon fill="#EDEDE6" points="1300.551,725.611 1292.834,723.704 1292.834,721.163 1300.551,719.257"/><path fill="#C8C6BC" d="M1302.49 716.434c5.715-1.511 14.561-4.476 32.623-2.967l-17.938 17.944c-6.826-.688-11.311-2.084-14.686-2.979v-11.998h.001z"/><path fill="#C8C6BC" d="M1245.986 739.482l35.201-25.648s2.021-.531 5.147-1.18l-37.5 26.829-2.848-.001z"/><path fill="#FFFEF0" d="M1286.346 712.654c4.938-1.021 12.619-2.338 19.5-2.338 8.959 0 29.271 2.98 29.271 2.98l-66.914 26.186h-19.354l37.497-26.828z"/><path fill="#3BAFDA" d="M1431.939 696.482h-11.734s-.848 4 16.068 4l-4.334-4z"/><path fill="#54A2BD" d="M1202.699 700.482c0 .551.451 1 1 1h1c.557 0 1-.449 1-1v-2c0-.562-.443-1-1-1h-1c-.549 0-1 .438-1 1v2z"/><path fill="#54A2BD" d="M1210.699 700.482c0 .551.451 1 1 1h1c.557 0 1-.449 1-1v-2c0-.562-.443-1-1-1h-1c-.549 0-1 .438-1 1v2z"/><path fill="#54A2BD" d="M1218.699 700.482c0 .551.451 1 1 1h1c.557 0 1-.449 1-1v-2c0-.562-.443-1-1-1h-1c-.549 0-1 .438-1 1v2z"/><path fill="#54A2BD" d="M1226.699 700.482c0 .551.451 1 1 1h1c.557 0 1-.449 1-1v-2c0-.562-.443-1-1-1h-1c-.549 0-1 .438-1 1v2z"/><path fill="#54A2BD" d="M1234.699 700.482c0 .551.451 1 1 1h1c.557 0 1-.449 1-1v-2c0-.562-.443-1-1-1h-1c-.549 0-1 .438-1 1v2z"/><path fill="#54A2BD" d="M1242.699 700.482c0 .551.451 1 1 1h1c.557 0 1-.449 1-1v-2c0-.562-.443-1-1-1h-1c-.549 0-1 .438-1 1v2z"/><path fill="#54A2BD" d="M1250.699 700.482c0 .551.451 1 1 1h1c.557 0 1-.449 1-1v-2c0-.562-.443-1-1-1h-1c-.549 0-1 .438-1 1v2z"/><path fill="#54A2BD" d="M1258.699 700.482c0 .551.451 1 1 1h1c.557 0 1-.449 1-1v-2c0-.562-.443-1-1-1h-1c-.549 0-1 .438-1 1v2z"/><path fill="#54A2BD" d="M1266.699 700.482c0 .551.451 1 1 1h1c.557 0 1-.449 1-1v-2c0-.562-.443-1-1-1h-1c-.549 0-1 .438-1 1v2z"/><path fill="#54A2BD" d="M1274.699 700.482c0 .551.451 1 1 1h1c.557 0 1-.449 1-1v-2c0-.562-.443-1-1-1h-1c-.549 0-1 .438-1 1v2z"/><path fill="#54A2BD" d="M1282.699 700.482c0 .551.451 1 1 1h1c.557 0 1-.449 1-1v-2c0-.562-.443-1-1-1h-1c-.549 0-1 .438-1 1v2z"/><path fill="#54A2BD" d="M1290.699 700.482c0 .551.451 1 1 1h1c.557 0 1-.449 1-1v-2c0-.562-.443-1-1-1h-1c-.549 0-1 .438-1 1v2z"/><path fill="#54A2BD" d="M1298.699 700.482c0 .551.451 1 1 1h1c.557 0 1-.449 1-1v-2c0-.562-.443-1-1-1h-1c-.549 0-1 .438-1 1v2z"/><path fill="#54A2BD" d="M1306.699 700.482c0 .551.451 1 1 1h1c.557 0 1-.449 1-1v-2c0-.562-.443-1-1-1h-1c-.549 0-1 .438-1 1v2z"/><path fill="#54A2BD" d="M1314.699 700.482c0 .551.451 1 1 1h1c.557 0 1-.449 1-1v-2c0-.562-.443-1-1-1h-1c-.549 0-1 .438-1 1v2z"/><path fill="#54A2BD" d="M1322.699 700.482c0 .551.451 1 1 1h1c.557 0 1-.449 1-1v-2c0-.562-.443-1-1-1h-1c-.549 0-1 .438-1 1v2z"/><path fill="#54A2BD" d="M1330.699 700.482c0 .551.451 1 1 1h1c.557 0 1-.449 1-1v-2c0-.562-.443-1-1-1h-1c-.549 0-1 .438-1 1v2z"/><path fill="#54A2BD" d="M1338.699 700.482c0 .551.451 1 1 1h1c.557 0 1-.449 1-1v-2c0-.562-.443-1-1-1h-1c-.549 0-1 .438-1 1v2z"/><path fill="#54A2BD" d="M1346.699 700.482c0 .551.451 1 1 1h1c.557 0 1-.449 1-1v-2c0-.562-.443-1-1-1h-1c-.549 0-1 .438-1 1v2z"/><path fill="#54A2BD" d="M1354.699 700.482c0 .551.451 1 1 1h1c.557 0 1-.449 1-1v-2c0-.562-.443-1-1-1h-1c-.549 0-1 .438-1 1v2z"/><path fill="#54A2BD" d="M1362.699 700.482c0 .551.451 1 1 1h1c.557 0 1-.449 1-1v-2c0-.562-.443-1-1-1h-1c-.549 0-1 .438-1 1v2z"/><path fill="#54A2BD" d="M1370.699 700.482c0 .551.451 1 1 1h1c.557 0 1-.449 1-1v-2c0-.562-.443-1-1-1h-1c-.549 0-1 .438-1 1v2z"/><path fill="#54A2BD" d="M1378.699 700.482c0 .551.451 1 1 1h1c.557 0 1-.449 1-1v-2c0-.562-.443-1-1-1h-1c-.549 0-1 .438-1 1v2z"/><path fill="#54A2BD" d="M1386.699 700.482c0 .551.451 1 1 1h1c.557 0 1-.449 1-1v-2c0-.562-.443-1-1-1h-1c-.549 0-1 .438-1 1v2z"/><path fill="#FFFEF0" d="M1255.596 738.482c5.248.062 12.604 1 12.604 1s-7.355.926-12.604.999c-5.248.062-9.604-.999-9.604-.999s4.356-1.073 9.604-1z"/><path fill="#FFFEF0" d="M1104.531 702.126c3.033.044 7.289.578 7.289.578s-4.256.534-7.289.577c-3.027.043-5.555-.577-5.555-.577s2.528-.622 5.555-.578z"/><rect x="1427.372" y="697.963" transform="matrix(-.45 -.893 .893 -.45 1450.327 2289.82)" fill="#EDE3EB" width="5.309" height="1.002"/><rect x="1423.215" y="697.506" transform="matrix(-.144 -.99 .99 -.144 939.856 2208.999)" fill="#EDE3EB" width="4.225" height="1.004"/><circle fill="#E4E2D6" cx="1409.518" cy="704.921" r=".5"/><circle fill="#E4E2D6" cx="1192.611" cy="704.921" r=".5"/></g><g id="torre"><rect x="-589.07" y="481.503" fill="#FFFEF0" width="362.505" height="2900.03"/><rect x="-951.575" y="481.503" fill="#FFFEF0" width="362.504" height="2900.03"/><rect x="-864.493" y="481.503" fill="#E4E2D6" width="543.755" height="2900.03"/><polygon opacity=".4" fill="#C8C6BC" enable-background="new" points="-770.321,662.756 -407.816,662.756 -226.565,617.441 -226.565,640.099 -407.816,685.413 -770.321,685.413 -951.575,640.099 -951.575,617.441"/><polygon opacity=".4" fill="#C8C6BC" enable-background="new" points="-223.021,617.441 -952.573,1346.993 -952.573,566.343 -226.565,566.343"/><rect x="-770.321" y="300.254" fill="#FFFEF0" width="362.505" height="362.502"/><rect x="-600.396" y="-606.009" fill="#DA4453" width="22.655" height="453.127"/><rect x="-770.321" y="-84.91" fill="#E4E2D6" width="362.505" height="45.314"/><polygon fill="#FFFEF0" points="-1132.825,51.028 -770.321,-39.596 -770.321,-84.91 -1132.825,5.714 -1178.138,17.045 -1178.138,62.354"/><polygon fill="#FFFEF0" points="-45.312,51.028 0,62.354 0,17.045 -45.312,5.714 -407.816,-84.91 -407.816,-39.596"/><polygon fill="#E4E2D6" points="-407.816,662.756 -45.312,572.126 -45.312,209.625 -407.816,300.254"/><polygon fill="#E4E2D6" points="-1132.825,572.126 -770.321,662.756 -770.321,300.254 -1132.825,209.625"/><polygon fill="#E4E2D6" points="-407.816,300.254 -45.312,209.625 -45.312,119 -407.816,209.625"/><rect x="-770.321" y="209.625" fill="#FFFEF0" width="362.505" height="90.629"/><polygon fill="#E4E2D6" points="-1132.825,209.625 -770.321,300.254 -770.321,209.625 -1132.825,119"/><polygon fill="#FFFEF0" points="-770.321,-39.596 -1132.825,51.028 -1132.825,96.343 -770.321,5.714"/><rect x="-770.321" y="-39.596" fill="#FFFEF0" width="362.505" height="45.31"/><polygon fill="#FFFEF0" points="-45.312,51.028 -407.816,-39.596 -407.816,5.714 -45.312,96.343"/><polygon fill="#FFFEF0" points="-1132.825,96.343 -1178.138,107.669 -1178.138,62.354 -1132.825,51.028"/><polygon fill="#E4E2D6" points="0,62.354 -1178.138,62.354 -770.321,164.311 -407.816,164.311"/><polygon fill="#FFFEF0" points="-1178.138,62.354 0,62.354 -407.816,-39.596 -770.321,-39.596"/><polygon fill="#E4E2D6" points="-135.939,62.354 -407.816,119 -441.803,-243.504"/><polygon fill="#FFFEF0" points="-441.803,-243.504 -407.816,119 -770.321,119 -736.335,-243.504"/><polygon fill="#E4E2D6" points="-736.335,-243.504 -770.321,119 -1042.198,62.354"/><rect x="-770.321" y="119" fill="#DA4453" width="362.505" height="45.311"/><polygon fill="#BA3548" points="-1132.825,28.376 -770.321,119 -770.321,164.311 -770.321,209.625 -1132.825,119 -1178.138,107.669 -1178.138,62.354 -1178.138,17.045"/><polygon fill="#ED5565" points="-45.312,28.376 0,17.045 0,62.354 0,107.669 -45.312,119 -407.816,209.625 -407.816,164.311 -407.816,119"/><rect x="-770.321" y="164.311" fill="#DA4453" width="362.505" height="45.314"/><polygon opacity=".4" fill="#C8C6BC" enable-background="new" points="-407.816,209.625 -45.312,119 -45.312,164.311 -407.816,254.939 -770.321,254.939 -1132.825,164.311 -1132.825,119 -770.321,209.625"/><path fill="#FFFEF0" d="M-611.726-606.009c0 12.512 10.146 22.655 22.655 22.655 12.514 0 22.657-10.144 22.657-22.655 0-12.514-10.146-22.657-22.657-22.657-12.508 0-22.655 10.144-22.655 22.657z"/></g></g><g id="contacts"><rect x="-2766.482" y="342.5" fill="#E84D5B" width="6910.617" height="445.5"/><g id="email" fill="#F5ECD9"><text transform="translate(66 534.232)" font-weight="100" font-size="18">albinotonnina@gmail.com</text><path d="M47.688 535.041v-7.457c-.204.233-.431.447-.671.643-1.731 1.332-3.115 2.432-4.136 3.282-.33.277-.599.496-.804.647-.207.151-.487.31-.843.471-.354.159-.684.237-.99.237h-.021c-.311 0-.645-.078-.993-.237-.354-.161-.633-.314-.839-.471-.206-.151-.474-.372-.804-.647-1.022-.854-2.4-1.948-4.136-3.282-.24-.191-.461-.404-.675-.643v7.457c0 .084.031.157.097.219.062.063.135.094.22.094h14.297c.084 0 .157-.031.219-.094.063-.062.097-.135.097-.219h-.018zm0-10.205v-.238l-.006-.126-.03-.12-.053-.089c-.02-.061-.048-.086-.088-.069l-.136-.022h-14.296c-.083 0-.157.031-.222.092-.062.062-.092.139-.092.223 0 1.09.479 2.008 1.428 2.757 1.25.98 2.548 2.011 3.893 3.076l.34.283.446.362c.106.085.252.188.435.306.176.118.341.209.488.271.146.059.289.088.419.088h.018c.129 0 .271-.029.418-.088.146-.062.312-.146.488-.271l.438-.306.442-.362.337-.283c1.352-1.068 2.647-2.1 3.896-3.076.35-.278.673-.652.976-1.121.31-.48.461-.906.461-1.287zm1.242-.357v10.562c0 .428-.152.794-.459 1.095-.303.307-.671.459-1.094.459h-14.296c-.431 0-.792-.147-1.098-.459-.303-.304-.459-.672-.459-1.095v-10.562c0-.43.152-.795.459-1.098s.675-.456 1.098-.456h14.296c.429 0 .793.15 1.094.456.307.303.459.668.459 1.098z"/></g><g id="linkedin" fill="#F5ECD9"><text transform="translate(64.821 571.17)" font-weight="100" font-size="18">LinkedIn profile</text><path d="M34.418 571.388h2.808v-8.438h-2.808v8.438zm2.989-11.037c-.012-.42-.155-.771-.438-1.043-.283-.271-.662-.411-1.131-.411s-.854.143-1.149.411c-.298.272-.438.623-.438 1.043 0 .413.144.764.431 1.039.289.279.667.42 1.124.42h.013c.479 0 .865-.141 1.155-.42.288-.279.432-.626.433-1.039zm7.111 11.037h2.812v-4.836c0-1.248-.301-2.189-.891-2.832-.592-.639-1.376-.962-2.347-.962-1.104 0-1.949.479-2.539 1.423h.021v-1.229h-2.812c.025.536.025 3.348 0 8.438h2.812v-4.721c0-.309.024-.535.085-.681.126-.283.304-.524.552-.727.241-.195.543-.299.895-.299.943 0 1.409.639 1.409 1.913l.003 4.513zm5.689-12.131v11.67c0 .964-.347 1.789-1.027 2.479-.688.687-1.513 1.025-2.477 1.025h-11.671c-.969 0-1.789-.343-2.479-1.025-.688-.688-1.03-1.517-1.03-2.479v-11.67c0-.966.346-1.79 1.03-2.477.688-.688 1.51-1.03 2.479-1.03h11.671c.964 0 1.788.343 2.477 1.03.685.687 1.027 1.511 1.027 2.477z"/></g><g id="l500px" fill="#F5ECD9"><text transform="translate(64.037 681.981)" font-weight="100" font-size="18">Photography</text><path d="M39.423 673.222c.769 0 1.423.271 1.969.813.546.544.815 1.201.815 1.97s-.271 1.424-.815 1.969c-.546.544-1.2.813-1.969.813-.771 0-1.422-.271-1.968-.813-.544-.545-.816-1.2-.816-1.969s.272-1.425.816-1.97c.547-.542 1.203-.813 1.968-.813zm8.546-4.023c.686 0 1.269.242 1.749.729.482.48.728 1.063.728 1.75v8.661c0 .688-.237 1.271-.728 1.75-.48.48-1.063.729-1.749.729h-13.61c-.686 0-1.269-.241-1.75-.729-.479-.48-.727-1.062-.727-1.75v-8.661c0-.687.241-1.27.727-1.75.482-.479 1.064-.729 1.75-.729h2.165l.494-1.312c.119-.312.346-.588.671-.812.325-.229.657-.348 1.001-.348h4.947c.344 0 .678.114 1.001.348.324.229.551.5.673.812l.491 1.312h2.167zm-8.546 11.136c1.188 0 2.212-.423 3.062-1.271.853-.851 1.271-1.867 1.271-3.062 0-1.189-.423-2.212-1.271-3.062-.85-.852-1.863-1.271-3.062-1.271-1.191 0-2.213.424-3.062 1.271-.85.85-1.271 1.863-1.271 3.062 0 1.191.426 2.214 1.271 3.062.85.849 1.871 1.271 3.062 1.271z"/></g><g id="phone"><path fill="#F5ECD9" d="M45.604 476.917h-11.14c-1.612 0-2.938 1.317-2.938 2.934v22.865c0 1.604 1.32 2.938 2.938 2.938h11.14c1.608 0 2.938-1.32 2.938-2.938v-22.865c-.007-1.614-1.326-2.934-2.938-2.934zm-5.57 27.559c-1.142 0-2.057-.653-2.057-1.464 0-.812.919-1.468 2.057-1.468 1.132 0 2.047.655 2.047 1.468.003.806-.913 1.464-2.047 1.464zm6.156-4.398h-12.312v-19.354h12.312v19.354z"/><text transform="translate(64.429 497.295)" fill="#F5ECD9" font-weight="100" font-size="18">+39 393 4318597</text></g><g id="skype"><path fill="#F5ECD9" d="M44.801 603.992c0-.396-.076-.754-.234-1.08-.147-.327-.344-.595-.564-.812-.233-.213-.52-.401-.867-.574-.344-.183-.671-.312-.974-.402-.307-.093-.647-.183-1.033-.271l-1.229-.283-.519-.124c-.11-.028-.248-.073-.413-.14-.166-.063-.284-.126-.354-.188-.064-.069-.136-.152-.191-.248-.062-.104-.089-.22-.089-.354 0-.604.562-.905 1.693-.905.345 0 .646.047.909.141.269.097.482.207.643.337l.445.399c.146.131.299.247.477.343.172.097.357.144.562.141.371 0 .667-.123.896-.373.224-.253.336-.558.336-.906 0-.434-.224-.822-.661-1.176-.44-.349-1-.615-1.675-.797-.679-.179-1.395-.27-2.15-.271-.535 0-1.054.062-1.556.183-.504.124-.979.309-1.411.557-.438.247-.787.592-1.055 1.028-.265.438-.396.942-.396 1.519 0 .479.074.896.224 1.257.152.354.372.653.661.894.291.234.606.429.949.571.339.146.744.271 1.216.383l1.725.427c.709.179 1.146.316 1.318.429.253.152.377.396.377.707 0 .31-.153.562-.473.762s-.73.301-1.239.297c-.397 0-.761-.062-1.08-.188-.314-.124-.573-.275-.768-.455-.194-.181-.372-.354-.537-.533-.166-.184-.344-.327-.538-.456-.199-.123-.409-.188-.641-.188-.396 0-.691.12-.896.354-.201.23-.301.531-.301.886 0 .728.482 1.344 1.444 1.857.957.515 2.104.772 3.431.772.575 0 1.125-.071 1.653-.219.523-.149 1.008-.354 1.442-.631.438-.276.785-.646 1.045-1.104.263-.461.393-.977.393-1.556h.006v-.01zm4.285 2.562c0 1.254-.443 2.324-1.329 3.21-.886.89-1.954 1.328-3.205 1.328-1.023 0-1.943-.312-2.768-.941-.605.124-1.196.187-1.771.187-1.126 0-2.202-.216-3.229-.649-1.027-.438-1.915-1.03-2.658-1.773-.744-.744-1.334-1.631-1.771-2.657-.437-1.023-.651-2.104-.651-3.229 0-.574.064-1.17.188-1.776-.63-.812-.946-1.739-.946-2.763 0-1.251.443-2.319 1.328-3.205.89-.886 1.954-1.33 3.206-1.33 1.026 0 1.943.313 2.771.947.604-.125 1.193-.188 1.771-.188 1.125 0 2.202.218 3.229.654 1.028.436 1.915 1.024 2.655 1.771.744.744 1.336 1.63 1.771 2.658.436 1.029.654 2.106.654 3.23 0 .571-.064 1.166-.188 1.771.629.811.943 1.732.943 2.755z"/><text transform="translate(65.215 608.106)" fill="#F5ECD9" font-weight="100" font-size="18">albino.tonnina</text></g><g id="addressnumidia" fill="#F5ECD9" font-weight="100" font-size="18"><text transform="translate(33.271 438.129)">Albino Tonnina c/o Numidia Srl</text><text transform="translate(33.271 459.728)">Via Giovanni Antonelli 3, 00197 Roma</text></g><g id="contactresume"><path fill="#F5ECD9" d="M45.744 640.588v.867c0 .13-.041.229-.123.312-.082.087-.188.124-.313.124h-9.574c-.127 0-.229-.035-.312-.124-.082-.081-.124-.184-.124-.312v-.867c0-.13.042-.229.124-.312.082-.082.186-.123.312-.123h9.574c.128 0 .23.041.313.123.082.081.123.185.123.312zm0-3.483v.867c0 .127-.041.231-.123.312-.082.082-.188.123-.313.123h-9.574c-.127 0-.229-.041-.312-.123-.082-.081-.124-.188-.124-.312v-.867c0-.13.042-.23.124-.312.082-.081.186-.122.312-.122h9.574c.128 0 .23.041.313.122.082.082.123.186.123.312zm-12.183 8.27h13.923v-10.443h-5.654c-.363 0-.676-.126-.927-.381-.254-.251-.381-.56-.381-.925v-5.656h-6.962l.001 17.405zm8.701-12.184h5.112c-.092-.267-.191-.449-.297-.561l-4.26-4.257c-.105-.108-.293-.211-.558-.299l.003 5.117zm6.961.435v12.183c0 .366-.127.677-.379.932-.254.251-.562.378-.926.378h-14.795c-.363 0-.671-.127-.924-.378-.257-.255-.385-.562-.385-.932v-18.271c0-.366.128-.673.385-.925.253-.254.561-.381.924-.381h8.702c.359 0 .761.091 1.192.271.438.183.78.399 1.033.654l4.244 4.241c.251.254.473.599.651 1.03.187.438.277.835.278 1.198z"/><text transform="translate(65.608 645.044)" fill="#F5ECD9" font-weight="100" font-size="18">View resume</text></g><text transform="translate(26.604 402.719)" fill="#F5ECD9" font-weight="100" font-size="36">To stay connected:</text><g id="rightside"><text transform="translate(610.229 682.813)" fill="#F5ECD9" font-weight="100" font-size="18">copyright 2014 Albino Tonnina</text><text transform="translate(606.604 402.719)" fill="#F5ECD9" font-weight="100" font-size="36">This website:</text><g id="githubsite"><path fill="#F5ECD9" d="M622.635 638.003c-.132.144-.3.129-.501-.081-.22-.188-.256-.343-.104-.475.128-.146.298-.129.503.078.203.185.233.344.102.478zm-1.062-1.539c.152.202.152.36 0 .474-.133.102-.281.041-.429-.177-.148-.216-.148-.379 0-.457.15-.111.294-.056.429.16zm-1.542-1.516c-.084.123-.188.131-.323.047-.169-.088-.229-.19-.177-.301.048-.089.156-.104.324-.048.168.083.229.185.176.302zm.787.858c-.104.122-.237.098-.404-.069-.146-.188-.168-.319-.048-.404.104-.1.236-.075.404.079.148.176.163.31.048.394zm3.255 2.828c-.064.211-.227.259-.479.15-.287-.066-.394-.195-.329-.385.067-.191.229-.248.479-.18.273.093.375.228.329.415zm1.583.126c0 .191-.129.276-.396.276-.291.036-.436-.058-.436-.276 0-.188.138-.271.401-.271.299-.039.431.054.431.271zm1.471-.252c.032.168-.083.293-.354.358-.269.062-.422 0-.453-.207-.038-.209.083-.328.354-.386.263-.028.417.051.453.235zm24.464-24.184v24.231c0 2.009-.722 3.714-2.134 5.142-1.425 1.417-3.139 2.133-5.145 2.133h-5.656c-.27 0-.47-.008-.622-.027-.139-.021-.304-.057-.483-.129-.188-.062-.325-.188-.401-.366-.088-.176-.128-.402-.128-.69v-6.038c0-1.627-.439-2.828-1.317-3.585.97-.1 1.826-.254 2.595-.449.765-.212 1.558-.534 2.375-.981.812-.454 1.496-1.014 2.045-1.673.544-.667.985-1.557 1.333-2.652.345-1.096.517-2.366.517-3.803 0-2.029-.668-3.771-1.998-5.194.625-1.533.553-3.251-.203-5.156-.474-.148-1.15-.062-2.046.272-.896.34-1.666.709-2.326 1.111l-.961.606c-1.566-.438-3.183-.65-4.847-.65s-3.287.213-4.844.65c-.277-.188-.633-.409-1.072-.682-.439-.268-1.15-.596-2.105-.975-.964-.386-1.684-.494-2.176-.342-.734 1.91-.801 3.626-.176 5.158-1.329 1.428-1.994 3.154-1.994 5.195 0 1.433.172 2.689.52 3.788.346 1.103.788 1.985 1.323 2.652.535.677 1.214 1.238 2.029 1.688.81.462 1.604.783 2.374.982.764.199 1.629.352 2.589.448-.671.606-1.088 1.474-1.231 2.604-.361.167-.733.303-1.146.391-.398.081-.886.126-1.438.126-.554 0-1.104-.186-1.652-.551-.553-.356-1.02-.889-1.404-1.573-.313-.544-.726-.979-1.227-1.319-.496-.336-.909-.541-1.245-.614l-.504-.076c-.356 0-.604.047-.732.118-.128.076-.177.178-.125.295.045.118.125.234.224.354.104.119.217.22.326.303l.179.124c.378.171.732.494 1.101.966.361.47.625.9.793 1.284l.257.581c.219.641.591 1.155 1.108 1.559.523.389 1.09.646 1.693.759.604.111 1.188.167 1.754.176.557.017 1.031-.024 1.397-.09l.581-.104c0 .646.004 1.508.013 2.607.016 1.082.02 1.663.02 1.715 0 .372-.099.646-.28.85-.185.192-.372.298-.557.318-.188.033-.472.041-.829.041h-5.66c-2.007 0-3.716-.715-5.138-2.133-1.417-1.422-2.135-3.141-2.135-5.142v-24.237c0-2.006.714-3.715 2.135-5.141 1.417-1.424 3.131-2.134 5.138-2.134h24.235c2.005 0 3.715.71 5.136 2.134 1.422 1.415 2.135 3.135 2.135 5.141l.012.004z"/><text transform="translate(666.055 633.482)" fill="#F5ECD9" font-weight="100" font-size="18">has a public repository on GitHub.</text></g><g fill="#F5ECD9"><path d="M631.97 475.007c0-.384-.203-.731-.533-.925l-8.818-5.076c-.146-.088-.312-.134-.482-.14h-.092c-.169.006-.337.052-.486.14l-8.817 5.076c-.33.188-.533.541-.533.925l.021 13.666c0 .19.098.367.266.46.164.103.367.103.529 0l5.24-3c.332-.197.529-.545.529-.926v-6.385c0-.381.201-.732.531-.922l2.231-1.285c.166-.101.348-.146.535-.146.182 0 .363.047.525.146l2.229 1.285c.332.188.531.541.531.922v6.385c0 .381.205.729.533.926l5.238 3c.164.103.369.103.531 0 .164-.093.266-.27.266-.46l.026-13.666zM679.06 456.221c-.166-.093-.367-.09-.529.006-.164.1-.264.271-.264.459v13.534c0 .137-.07.256-.188.323-.111.065-.26.065-.37 0l-2.209-1.273c-.329-.188-.733-.188-1.063.005l-8.822 5.092c-.33.188-.533.542-.533.921v10.188c0 .383.203.731.533.926l8.822 5.097c.328.188.734.188 1.063 0l8.819-5.097c.33-.189.533-.543.533-.926v-25.39c0-.387-.209-.741-.547-.931l-5.245-2.934zm-.82 25.901c0 .096-.051.184-.135.229l-3.027 1.746c-.082.047-.186.047-.266 0l-3.031-1.746c-.082-.048-.133-.136-.133-.229v-3.497c0-.096.051-.184.133-.23l3.029-1.745c.082-.052.186-.052.268 0l3.027 1.745c.084.052.135.141.135.23v3.497zM710.618 478.533c.326-.19.529-.541.529-.92v-2.474c0-.38-.203-.729-.529-.922l-8.768-5.089c-.33-.188-.736-.188-1.066-.001l-8.814 5.091c-.33.19-.533.542-.533.922v10.188c0 .384.205.731.539.926l8.764 4.994c.324.185.724.187 1.045.006l5.307-2.946c.168-.094.27-.271.271-.462.001-.188-.1-.37-.268-.466l-8.875-5.095c-.166-.1-.271-.271-.271-.461v-3.191c0-.188.104-.367.271-.462l2.762-1.592c.164-.095.367-.095.533 0l2.762 1.592c.166.095.271.271.271.462v2.512c0 .189.102.365.268.461.164.101.369.1.533-.002l5.269-3.071zM648.011 469.078c.328-.189.732-.189 1.062 0l8.82 5.091c.33.189.533.541.533.923v10.189c0 .38-.203.729-.533.923l-8.82 5.095c-.328.189-.732.189-1.062 0l-8.82-5.095c-.33-.191-.531-.543-.531-.923v-10.189c0-.382.201-.729.531-.923l8.82-5.091zM727.75 491.443c-.31 0-.606-.078-.872-.232l-2.777-1.644c-.414-.231-.213-.314-.076-.361.555-.192.666-.236 1.256-.571.062-.034.146-.021.207.02l2.135 1.268c.076.043.188.043.262 0l8.312-4.801c.078-.045.127-.134.127-.229v-9.599c0-.094-.049-.183-.129-.229l-8.312-4.798c-.078-.045-.184-.045-.262 0l-8.312 4.802c-.08.047-.131.138-.131.229v9.6c0 .096.051.184.131.228l2.279 1.312c1.23.619 1.988-.104 1.988-.841v-9.479c0-.138.107-.239.24-.239h1.06c.132 0 .237.104.237.239v9.479c0 1.65-.896 2.599-2.463 2.599-.479 0-.856 0-1.916-.521l-2.182-1.256c-.539-.312-.873-.896-.873-1.521v-9.599c0-.624.334-1.206.873-1.518l8.314-4.811c.525-.297 1.229-.297 1.748 0l8.316 4.811c.537.312.873.894.873 1.518v9.599c0 .624-.336 1.204-.873 1.521l-8.316 4.803c-.253.141-.556.221-.864.221zM730.32 484.83c-3.641 0-4.398-1.671-4.398-3.072 0-.133.104-.239.236-.239h1.074c.121 0 .223.09.24.203.162 1.099.645 1.647 2.848 1.647 1.752 0 2.498-.396 2.498-1.326 0-.536-.211-.935-2.936-1.2-2.275-.226-3.688-.729-3.688-2.549 0-1.68 1.414-2.68 3.787-2.68 2.664 0 3.982.926 4.15 2.907.006.065-.021.137-.064.188-.045.048-.104.077-.176.077h-1.08c-.109 0-.211-.08-.232-.188-.26-1.149-.889-1.521-2.598-1.521-1.914 0-2.137.667-2.137 1.166 0 .604.262.78 2.846 1.122 2.56.34 3.771.813 3.771 2.609.005 1.818-1.509 2.856-4.141 2.856zM741.786 468.99v.246h-.697v1.819h-.283v-1.819h-.695v-.246h1.675zM742.036 468.99h.4l.594 1.75.598-1.75h.396v2.065h-.268v-1.221l.002-.21.004-.315-.592 1.746h-.277l-.598-1.746v.062l.004.229.004.229v1.221h-.271v-2.064l.004.004zM701.193 478.057c.062-.032.146-.032.205 0l1.691.979c.062.036.104.104.104.177v1.955c0 .074-.039.142-.104.177l-1.691.979c-.062.036-.143.036-.205 0l-1.688-.979c-.062-.035-.104-.103-.104-.177v-1.955c0-.072.039-.141.104-.177l1.688-.979z"/></g><g fill="#F5ECD9"><path d="M659.974 574.822v-11.71c0-.824-.604-1.186-1.316-1.186-1.432 0-3.217.356-4.84 1.071v11.819h-3.299v-21.742h3.299v7.173c1.568-.575 3.438-1.07 5.308-1.07 2.995 0 4.122 1.841 4.122 4.37v11.271l-3.274.004zm9.428-7.092c.111 3.931.881 4.697 3.299 4.697 1.896 0 4.041-.633 5.691-1.266l.549 2.474c-1.76.798-3.902 1.565-6.459 1.565-5.498 0-6.352-3.021-6.352-7.833 0-2.64.189-5.029.822-7.229 1.646-.632 3.852-.962 6.623-.962 4.514 0 5.889 2.501 5.889 6.871v1.678h-10.062v.005zm4.175-5.799c-.984 0-2.559.026-3.85.272-.135.66-.303 1.568-.354 3.244h6.871c.001-2.281-.409-3.516-2.667-3.516zm12.069 1.071v11.819h-3.299v-13.308c2.773-1.511 5.719-1.979 7.643-2.112v2.749c-1.348.111-3.051.275-4.344.852zm13.054 12.204c-4.922 0-7.146-2.418-7.146-7.941 0-5.854 2.938-8.082 7.146-8.082 4.918 0 7.146 2.419 7.146 7.944.003 5.854-2.94 8.079-7.146 8.079zm0-13.275c-2.525 0-3.932 1.456-3.932 5.333 0 4.231 1.182 5.168 3.932 5.168 2.527 0 3.936-1.43 3.936-5.307 0-4.233-1.188-5.194-3.936-5.194zm23.063 12.891h-3.875c-.906-2.418-2.172-4.896-4.123-7.036h-1.732v7.036h-3.299v-21.742h3.299v12.479h1.539c1.682-1.729 2.97-3.875 3.875-5.987h3.711c-1.262 2.558-2.885 4.812-4.695 6.647 2.167 2.748 3.872 5.662 5.3 8.603zm6.184.384c-2.994 0-4.123-1.84-4.123-4.367v-11.271h3.271v11.683c0 .826.604 1.184 1.316 1.184 1.432 0 3.383-.354 5.005-1.069v-11.796h3.3v13.25c-3.902 2.139-6.9 2.386-8.769 2.386zM639.74 582.872h-22.965c-1.965 0-3.557-1.592-3.557-3.557v-30.181c0-1.965 1.592-3.558 3.557-3.558h22.965c1.965 0 3.561 1.593 3.561 3.558v30.181c-.005 1.965-1.601 3.557-3.561 3.557zm2.333-33.531c0-1.403-1.139-2.54-2.541-2.54h-22.552c-1.402 0-2.541 1.141-2.541 2.54v29.771c0 1.399 1.139 2.54 2.541 2.54h22.557c1.402 0 2.541-1.141 2.541-2.54l-.005-29.771zM632.068 577.741v-14.811s.963-3.543-11.865 1.45c-.021.062-.021-13.692-.021-13.692l4.188-.024v8.813s11.734-4.625 11.734 3.507v14.76l-4.036-.003zm2.386-21.744h-4.443c1.6-1.956 3.049-5.31 3.049-5.31h4.596c0 .001-.79 2.186-3.202 5.31zm-14.197 21.719v-8.435l4.215 4.217-4.215 4.218z"/></g><text transform="translate(611.36 445.006)" fill="#F5ECD9" font-weight="100" font-size="18">is 100% powered by:</text><text transform="translate(613.219 530.518)" fill="#F5ECD9" font-weight="100" font-size="18">is hosted on:</text></g><g id="pegu"><text transform="translate(660.633 489.283)" fill="#F5ECD9" font-weight="100" font-size="36">Have you tried</text><text transform="translate(609.072 630.388)" fill="#F5ECD9" font-weight="100" font-size="124.874">Pegu?</text></g></g><text transform="translate(26.604 122.301)" fill="#2BACB5" font-weight="100" font-size="36" id="ownership">And reliable. And friendly, most of the time.</text><g id="leaving" fill="#F5ECD9" font-weight="100" font-size="36"><text transform="translate(26.604 182.247)">I&apos;m leaving Italy and looking for a development position</text><text transform="translate(26.604 222.194)">within the EU with a forward thinking IT company</text><text transform="translate(26.604 262.142)">where I can continue to grow.</text></g><text id="passionate" transform="translate(26.604 62.353)" fill="#E84D5B" font-weight="100" font-size="36">I’m passionate about my job.</text><text transform="translate(26.604 319.345)" fill="#2BACB5" font-weight="100" font-size="36" id="thankyouforscrolling">Thank you for scrolling this far :)</text><g id="planebig"><path fill="#FFFEF0" d="M-4344.382-390.975c24.917.346 59.812 4.739 59.812 4.739s-34.896 4.397-59.812 4.752c-24.896.346-45.589-4.752-45.589-4.752s20.695-5.094 45.589-4.739z"/><path fill="#C8C6BC" d="M-4389.994-386.178l238.986 174.13s13.701 3.602 34.959 8.083l-254.569-182.193-19.376-.02z"/><path fill="#FFFEF0" d="M-4116.015-204.029c33.489 6.926 85.67 15.868 132.319 15.868 60.775 0 198.811-20.339 198.811-20.339l-501.525-177.668h-84.177l254.572 182.139z"/><path opacity=".4" fill="#BCBAD0" enable-background="new" d="M-4389.994-386.234s20.708-5.095 45.603-4.739c24.914.346 59.811 4.739 59.811 4.739s-.54.067-1.517.198l501.158 177.571s-137.852 20.339-198.736 20.339c-46.843 0-99.013-8.943-132.382-15.869-21.258-4.407-34.973-8.086-34.973-8.086l-238.983-174.13h.237l-.218-.023z"/><path fill="#C8C6BC" d="M-2661.268-247.431l390.151 284.237s22.401 5.879 57.168 13.108l-415.626-297.237-31.693-.108z"/><path fill="#FFFEF0" d="M-2213.916 49.938c54.681 11.31 139.753 25.9 216.148 25.9 99.293 0 324.414-33.195 324.414-33.195l-818.807-290.074h-137.384l415.629 297.369z"/><polygon opacity=".4" fill="#BCBAD0" enable-background="new" points="-2066.379,-96.896 -2523.202,-146.814 -2456.443,-96.896"/><path id="carlinga_1_" fill="#FFFEF0" d="M-4016.511-431.237l147.156 201.338 532.001 133.002h1950.679s437.793-24.009 573.391 66.501l48.035 44.333s133.229 50.372 151.271 99.77c1.364 3.703 2.11 7.403 2.089 11.062-.681 53.85-140.402 177.336-774.924 177.336h-1596.011c-118.462 0-283.309-33.488-463.893-80.129-422.887-109.406-907.676-292.118-907.676-292.118v-94.977l95.842-23.324-63.502-242.678 305.542-.116z"/><polygon fill="#FFFEF0" points="-4408.459,-761.899 -4258.279,-761.899 -4111.046,-560.537 -4355.736,-560.537"/><polygon fill="#FFFEF0" points="-4278.153,-431.237 -4321.869,-431.237 -4355.736,-560.537 -4318.23,-560.537"/><polygon fill="#8CC152" points="-4111.046,-560.537 -4016.511,-431.237 -4278.153,-431.237 -4318.23,-560.537"/><polygon fill="#C8C6BC" points="-3934.641,-128.351 -4086.759,26.298 -4228.092,-23.654"/><path fill="#C8C6BC" d="M-4503.543 38.683l224.676-163.709s12.945-3.464 32.928-7.631l-239.333 171.218-18.271.122z"/><path fill="#FFFEF0" d="M-4245.951-132.549c31.616-6.527 80.578-14.916 124.45-14.916 57.17 0 186.834 19.114 186.834 19.114l-427.077 167.033h-123.53l239.323-171.231z"/><polygon fill="#8CC152" points="-4204.001,-231.197 -4214.562,-227.907 -4380.221,-759.767 -4369.665,-763.058"/><path fill="none" stroke="#4E4B80" stroke-width="10" stroke-miterlimit="10" d="M-3099.06 191.271"/><g id="worksharelogo"><path fill="#00ADEF" d="M-3104.601 106.307l1768.436-37.633 71.407 93.049h-1839.843c-273.666 0-472.231-6.698-612.529-14.751-82.978-25.242-163.827-51.261-238.574-76.145 92.7 11.777 342.48 35.48 851.103 35.48z"/><path fill="#00ADEF" d="M-3104.601 180.793h1475.948l-27.708 27.707h-1448.24c-167.616 0-306.894-2.541-421.853-6.288-38.063-10.392-76.304-21.288-114.296-32.446 133.163 6.298 308.842 11.027 536.149 11.027z"/><g id="workshare" fill="#fff"><path d="M-1630.411 107.365v-12.492c0-5.207 4.02-9.327 9.308-9.222 3.3.064 6.59.528 9.878.87 7.483.781 14.948 1.74 22.444 2.354 5.309.435 8.321 4.5 7.99 8.545-.057.685.008 1.377-.013 2.064-.048 1.555-1.042 2.666-2.424 2.739-1.393.075-2.659-1.01-2.814-2.51-.091-.887-.044-1.788-.056-2.681-.016-1.238-.505-1.848-1.778-1.959-3.191-.279-6.389-.512-9.584-.741-7.155-.511-14.312-1.024-21.471-1.506-2.479-.166-3.292.63-3.284 3.075.02 7.844.044 15.689.069 23.535.006 2.006.95 2.904 2.988 2.749 8.787-.663 17.57-1.351 26.357-2.027 1.458-.113 2.918-.2 4.377-.311 1.907-.144 2.359-.629 2.36-2.494 0-.619-.02-1.237.004-1.858.067-1.649 1.197-2.886 2.65-2.93 1.45-.042 2.605 1.039 2.625 2.752.021 1.704.09 3.502-.395 5.101-.963 3.183-3.329 5.012-6.704 5.396-8.788 1.006-17.58 1.979-26.371 2.958-1.973.221-3.942.525-5.921.613-5.248.245-9.534-3.121-10.129-7.991-.209-1.697-.1-3.436-.106-5.155-.01-2.952 0-5.913 0-8.874zM-1563.227 124.841c0 4.099-.094 8.194.021 12.286.183 6.459-5.635 10.104-11.072 9.501-8.688-.964-17.385-1.863-26.078-2.792-1.975-.212-3.953-.384-5.919-.65-3.472-.474-6.357-3.58-6.564-7.044-.066-1.132-.056-2.27-.026-3.405.041-1.52 1.104-2.663 2.465-2.722 1.304-.057 2.595 1.049 2.759 2.477.106.92.052 1.854.065 2.782.019 1.191.607 1.86 1.816 1.952 4.791.358 9.589.695 14.383 1.04 5.384.387 10.771.773 16.155 1.163.452.03.905.083 1.356.07 1.393-.038 2.399-.979 2.398-2.34-.005-8.259-.027-16.52-.072-24.778-.009-1.488-1.159-2.474-2.696-2.355-8.16.625-16.32 1.268-24.482 1.904-2.256.175-4.512.358-6.771.521-1.542.11-2.118.689-2.124 2.186-.001.721.021 1.444-.005 2.167-.061 1.585-1.178 2.821-2.575 2.876-1.508.057-2.591-.947-2.703-2.666-.171-2.625-.192-5.229 1.551-7.499 1.783-2.32 4.273-2.96 7.038-3.255 9.039-.965 18.068-2.024 27.102-3.037 2.487-.28 4.968-.687 7.452.138 4.022 1.332 6.456 4.598 6.456 8.78v12.698l.07.002zM-1539.725 123.284c1.688-6.167 3.299-12.066 4.917-17.963.208-.763.409-1.529.669-2.273.781-2.241 2.255-3.368 4.341-3.36 2.131.007 3.597 1.084 4.312 3.379.797 2.56 1.472 5.156 2.186 7.741 1.125 4.072 2.238 8.147 3.534 12.232.488-2.076.983-4.15 1.462-6.227 1.062-4.621 2.11-9.25 3.185-13.868.283-1.217.631-2.398 1.978-2.968 2.312-.982 4.843.649 4.477 3.094-.396 2.641-1.093 5.241-1.736 7.841-1.479 5.974-3.004 11.934-4.518 17.895-.177.701-.374 1.397-.619 2.075-.771 2.116-1.896 2.975-3.873 3.007-1.924.03-3.303-.828-4.011-2.858-.835-2.398-1.485-4.863-2.168-7.313-1.301-4.67-2.564-9.346-3.849-14.021-.078-.281-.193-.549-.396-1.118-.733 2.619-1.389 4.948-2.035 7.281-1.22 4.404-2.434 8.809-3.654 13.217-.166.596-.346 1.188-.562 1.769-.785 2.117-2.074 3.066-4.099 3.039-1.999-.022-3.288-.898-3.913-3.083-1.104-3.866-2.052-7.777-3.043-11.677-1.151-4.529-2.289-9.064-3.413-13.601-.189-.766-.329-1.549-.418-2.33-.192-1.696.804-3.056 2.458-3.429 1.631-.371 3.119.346 3.615 2.007.679 2.27 1.174 4.593 1.713 6.902 1.067 4.552 2.108 9.11 3.163 13.665.052.224.141.45.297.945zM-1412.438 112.442c.409-.384.659-.605.895-.842 2.794-2.766 6.146-3.369 9.824-2.29 3.285.96 5.192 3.6 5.32 7.586.143 4.505.104 9.017.025 13.521-.045 2.576-1.564 3.792-3.88 3.37-1.464-.263-2.305-1.272-2.333-3.089-.062-3.784-.037-7.569-.058-11.354-.002-.514-.03-1.033-.099-1.542-.33-2.458-1.33-3.723-3.184-4.064-2.149-.398-4.61.579-5.487 2.526-.589 1.305-.878 2.824-.946 4.263-.146 3.09-.059 6.193-.082 9.289-.004.512-.045 1.034-.145 1.532-.354 1.734-1.357 2.56-3.021 2.54-1.696-.026-2.633-.83-2.964-2.597-.101-.54-.134-1.095-.134-1.639-.011-8.673-.009-17.342-.002-26.014.002-.514.034-1.033.132-1.537.298-1.545 1.336-2.391 2.909-2.415 1.583-.026 2.748.867 3.047 2.408.124.637.172 1.296.176 1.946.018 2.717.007 5.435.007 8.402zM-1458.612 117.775c2.775-2.56 5.558-5.114 8.318-7.691.871-.816 1.774-1.422 3.061-1.21 1.872.308 2.88 2.174 1.802 3.699-.885 1.251-2.064 2.307-3.153 3.412-.679.689-1.429 1.307-2.2 2.009.197.343.366.67.564.978 1.979 3.075 3.971 6.146 5.946 9.224.316.491.627.995.87 1.522.629 1.365.211 2.902-.957 3.662-1.229.796-2.898.615-3.904-.488-.461-.505-.839-1.098-1.204-1.68-1.845-2.954-3.672-5.919-5.597-9.026-1.119 1.026-2.196 1.98-3.221 2.988-.176.173-.161.574-.166.872-.028 1.618.061 3.243-.074 4.848-.212 2.531-2.742 3.74-4.896 2.438-.866-.521-1.187-1.319-1.279-2.241-.059-.583-.064-1.17-.064-1.751.006-8.604.008-17.209.039-25.812.008-2.298.812-3.389 2.626-3.766 1.692-.351 3.09.508 3.437 2.179.147.701.195 1.432.197 2.15.018 4.336.01 8.672.01 13.01v.993l-.155-.319zM-1377.103 130.568c-.86.542-1.742 1.157-2.679 1.675-3.03 1.677-6.231 2.114-9.567 1.089-2.889-.889-4.689-3.18-4.875-6.056-.18-2.786 1.226-5.22 4.107-6.306 2.289-.861 4.745-1.305 7.137-1.894 1.787-.442 3.591-.828 5.359-1.232.438-2.937-1.032-4.71-3.922-4.759-.795-.015-1.604.063-2.388.199-1.727.302-3.123 1.07-3.917 2.734-.551 1.154-1.403 1.958-2.856 1.83-1.56-.136-2.547-1.265-2.361-2.796.173-1.434.935-2.568 1.973-3.538 1.271-1.189 2.796-1.952 4.496-2.279 3.106-.6 6.239-.627 9.333.059 4.015.89 5.904 3.13 6.018 7.179.072 2.677-.03 5.363-.09 8.042-.038 1.742.262 3.394.828 5.053.288.85.391 1.961.085 2.771-.608 1.616-2.925 2.026-4.325.833-.86-.731-1.53-1.672-2.356-2.604zm-.426-8.897c-1.976.442-3.909.859-5.828 1.322-.842.201-1.681.451-2.479.777-1.521.621-2.143 1.495-2.09 2.759.057 1.361 1.051 2.59 2.447 3.034 3.556 1.128 7.543-1.392 7.936-5.051.098-.913.014-1.848.014-2.841zM-1345.17 122.881c.062 2.548.792 4.592 2.903 5.902 2.245 1.395 4.591 1.274 6.843.032.958-.528 1.734-1.364 2.629-2.009.688-.5 1.374-1.141 2.16-1.335 1.806-.452 2.988.937 2.395 2.679-.57 1.673-1.763 2.874-3.234 3.793-3.143 1.962-6.604 2.2-10.17 1.689-7.077-1.014-9.584-6.217-9.907-11.232-.241-3.727.499-7.224 3.14-10.058 2.863-3.074 6.597-3.771 10.613-3.432 5.297.451 8.994 3.783 9.938 8.891.631 3.405-.688 5.025-4.244 5.068-3.936.045-7.875.011-11.813.011l-1.253.001zm11.236-3.637c-.011-3.687-2.396-6.225-5.714-6.138-3.089.084-5.557 2.875-5.397 6.138h11.111zM-1497.051 133.867c-7.938.148-12.79-4.614-12.989-12.21-.172-6.59 3.631-12.326 11.512-12.811 7.521-.463 12.974 4.04 13.489 11.14.56 7.703-3.96 13.677-12.012 13.881zm5.922-12.606c-.433-1.58-.686-3.233-1.335-4.709-.907-2.061-2.688-3.077-4.998-3.1-2.309-.023-4.094.961-5.084 2.986-1.571 3.208-1.581 6.525-.042 9.75 1.037 2.176 2.934 3.123 5.361 3.023 2.32-.091 4.02-1.214 4.872-3.291.589-1.433.809-3.015 1.226-4.659zM-1432.327 133.867c-2.215-.036-5.285-.301-7.856-2.364-1.172-.94-1.97-2.124-2.271-3.602-.268-1.303.28-2.423 1.404-2.907 1.148-.494 2.396-.186 3.179.813.255.325.461.687.687 1.034 1.669 2.575 4.568 3.629 7.547 2.743 1.401-.419 2.273-1.325 2.36-2.455.091-1.184-.512-2.141-1.99-2.707-1.321-.509-2.734-.776-4.085-1.223-1.812-.591-3.696-1.061-5.381-1.912-5.213-2.637-4.045-8.407-.417-10.75 2.492-1.611 5.285-1.81 8.134-1.666 2.26.113 4.45.589 6.279 1.965.831.626 1.573 1.466 2.112 2.354.708 1.165.399 2.47-.495 3.189-.906.731-2.419.824-3.418.083-.659-.49-1.238-1.105-1.774-1.732-1.642-1.928-4.731-2.568-6.907-1.244-.563.34-1.023 1.11-1.191 1.764-.204.808.396 1.484 1.151 1.764 1.625.603 3.292 1.086 4.936 1.627 1.845.605 3.748 1.084 5.508 1.871 2.133.951 3.657 2.546 3.755 5.033.109 2.821-.909 5.118-3.429 6.623-2.125 1.27-4.49 1.607-7.838 1.699zM-1476.553 112.394l.441-.611c2.192-3.267 6.128-3.956 9.351-1.637 1.209.87 1.607 2.134 1.047 3.335-.567 1.215-1.743 1.659-3.254 1.325-1.144-.251-2.312-.572-3.465-.559-1.521.014-2.605 1.017-2.93 2.399-.499 2.125-.858 4.305-1.011 6.48-.176 2.466-.032 4.953-.083 7.427-.046 2.368-1.886 3.781-4.026 3.161-1.339-.387-2.074-1.287-2.191-2.817-.072-.958-.047-1.924-.047-2.888-.004-4.989-.005-9.981.001-14.966.002-.514.017-1.037.112-1.54.348-1.883 1.316-2.696 3.107-2.662 1.684.03 2.6.929 2.856 2.804l.092.749zM-1361.792 112.276l.296-.331c2.277-3.412 5.969-4.14 9.374-1.851 1.274.856 1.707 2.157 1.131 3.396-.557 1.192-1.779 1.683-3.266 1.305-.741-.186-1.477-.413-2.228-.539-1.947-.319-3.439.371-4.086 2.207-.541 1.534-.896 3.188-.996 4.809-.196 3.185-.113 6.391-.232 9.583-.065 1.818-1.373 3.025-3.042 3.021-1.728-.003-3.003-1.138-3.089-2.972-.104-2.162-.054-4.333-.056-6.498-.005-3.853-.005-7.705.004-11.558 0-.515.022-1.036.113-1.54.281-1.584 1.284-2.434 2.855-2.471 1.698-.038 2.642.711 3.004 2.389.071.303.128.605.218 1.05zM-1321.197 111.271c-.017 1.562-1.2 2.72-2.783 2.727-1.612.007-2.87-1.208-2.876-2.782-.005-1.556 1.272-2.795 2.874-2.786 1.603.011 2.804 1.234 2.785 2.841zm-.628-.036c.009-1.217-.934-2.167-2.161-2.178-1.204-.011-2.219.966-2.229 2.144-.01 1.176.986 2.167 2.191 2.176 1.23.01 2.19-.928 2.199-2.142zM-1324.458 111.273l1.583 1.546.271-.216-.562-1.24.26.012c.024-.449.182-1.235.047-1.288-.711-.276-1.494-.365-2.204-.51v3.199l.341.009.264-1.512zM-1324.458 111.273l-.263 1.512-.341-.01v-3.199c.71.143 1.493.233 2.204.509.134.052-.023.838-.047 1.288l-.26-.012.562 1.24-.271.216-1.584-1.544z"/></g></g><path fill="#E4E2D6" d="M-613.805 113.708c1.362 3.703 2.144 7.403 2.075 11.062-.681 53.85-140.402 177.335-774.927 177.335h-1596.005c-299.253 0-973.021-231.278-973.021-231.278s314.837 134.567 1272.271 134.567c1985.668.001 2065.946-90.82 2069.607-91.686z"/><path fill="#EDEDE6" d="M-1784.769 345.898c-265.55 37.406-383.633-2.975-456.175-22.168v-132.997c72.542-19.159 190.625-59.577 456.175-22.168v177.333z"/><polygon fill="#C8C6BC" points="-1756.226,190.733 -1756.226,212.898 -1756.226,323.73 -1784.769,345.898 -1784.769,212.898 -1784.769,168.565"/><polygon fill="#EDEDE6" points="-2240.944,313.566 -2269.472,306.521 -2269.472,207.928 -2240.944,200.893"/><polygon fill="#EDEDE6" points="-2269.472,292.449 -2355.002,271.312 -2355.002,243.148 -2269.472,222.02"/><path fill="#C8C6BC" d="M-2247.957 190.733c63.342-16.747 161.359-49.606 361.574-32.885l-198.833 198.884c-75.652-7.631-125.334-23.098-162.741-33.021v-132.978z"/><path fill="#C8C6BC" d="M-2874.245 446.189l390.151-284.273s22.392-5.887 57.049-13.074l-415.625 297.359-31.575-.012z"/><path fill="#FFFEF0" d="M-2426.914 148.842c54.727-11.32 139.86-25.91 216.127-25.91 99.296 0 324.416 33.054 324.416 33.054l-741.635 290.204h-214.521l415.613-297.348z"/><path fill="#00ADEF" d="M-813.253-30.395h-130.057s-9.394 44.333 178.094 44.333l-48.037-44.333z"/><path fill="#00ADEF" d="M-3353.976 13.938c0 6.104 4.997 11.083 11.082 11.083h11.082c6.15 0 11.085-4.978 11.085-11.083v-22.167c0-6.236-4.935-11.085-11.085-11.085h-11.082c-6.085 0-11.082 4.85-11.082 11.085v22.167z"/><path fill="#00ADEF" d="M-3265.311 13.938c0 6.104 5.001 11.083 11.085 11.083h11.083c6.146 0 11.085-4.978 11.085-11.083v-22.167c0-6.236-4.938-11.085-11.085-11.085h-11.083c-6.084 0-11.085 4.85-11.085 11.085v22.167z"/><path fill="#00ADEF" d="M-3176.643 13.938c0 6.104 5 11.083 11.085 11.083h11.082c6.147 0 11.082-4.978 11.082-11.083v-22.167c0-6.236-4.935-11.085-11.082-11.085h-11.082c-6.084 0-11.085 4.85-11.085 11.085v22.167z"/><path fill="#00ADEF" d="M-3087.974 13.938c0 6.104 5 11.083 11.081 11.083h11.085c6.146 0 11.083-4.978 11.083-11.083v-22.167c0-6.236-4.938-11.085-11.083-11.085h-11.085c-6.081 0-11.081 4.85-11.081 11.085v22.167z"/><path fill="#00ADEF" d="M-2999.31 13.938c0 6.104 5 11.083 11.085 11.083h11.082c6.147 0 11.085-4.978 11.085-11.083v-22.167c0-6.236-4.938-11.085-11.085-11.085h-11.082c-6.084 0-11.085 4.85-11.085 11.085v22.167z"/><path fill="#00ADEF" d="M-2910.643 13.938c0 6.104 5.001 11.083 11.083 11.083h11.085c6.146 0 11.086-4.978 11.086-11.083v-22.167c0-6.236-4.938-11.085-11.086-11.085h-11.085c-6.081 0-11.083 4.85-11.083 11.085v22.167z"/><path fill="#00ADEF" d="M-2821.974 13.938c0 6.104 5 11.083 11.082 11.083h11.085c6.147 0 11.082-4.978 11.082-11.083v-22.167c0-6.236-4.935-11.085-11.082-11.085h-11.085c-6.081 0-11.082 4.85-11.082 11.085v22.167z"/><path fill="#00ADEF" d="M-2733.306 13.938c0 6.104 4.998 11.083 11.082 11.083h11.083c6.147 0 11.084-4.978 11.084-11.083v-22.167c0-6.236-4.937-11.085-11.084-11.085h-11.083c-6.084 0-11.082 4.85-11.082 11.085v22.167z"/><path fill="#00ADEF" d="M-2644.642 13.938c0 6.104 5.002 11.083 11.086 11.083h11.082c6.146 0 11.081-4.978 11.081-11.083v-22.167c0-6.236-4.935-11.085-11.081-11.085h-11.082c-6.084 0-11.086 4.85-11.086 11.085v22.167z"/><path fill="#00ADEF" d="M-2555.973 13.938c0 6.104 5 11.083 11.082 11.083h11.085c6.147 0 11.082-4.978 11.082-11.083v-22.167c0-6.236-4.935-11.085-11.082-11.085h-11.085c-6.082 0-11.082 4.85-11.082 11.085v22.167z"/><path fill="#00ADEF" d="M-2467.309 13.938c0 6.104 5.005 11.083 11.086 11.083h11.084c6.146 0 11.083-4.978 11.083-11.083v-22.167c0-6.236-4.938-11.085-11.083-11.085h-11.084c-6.082 0-11.086 4.85-11.086 11.085v22.167z"/><path fill="#00ADEF" d="M-2378.64 13.938c0 6.104 5 11.083 11.084 11.083h11.082c6.146 0 11.085-4.978 11.085-11.083v-22.167c0-6.236-4.938-11.085-11.085-11.085h-11.082c-6.084 0-11.084 4.85-11.084 11.085v22.167z"/><path fill="#00ADEF" d="M-2289.973 13.938c0 6.104 5.001 11.083 11.083 11.083h11.084c6.148 0 11.083-4.978 11.083-11.083v-22.167c0-6.236-4.935-11.085-11.083-11.085h-11.084c-6.081 0-11.083 4.85-11.083 11.085v22.167z"/><path fill="#00ADEF" d="M-2201.304 13.938c0 6.104 4.998 11.083 11.082 11.083h11.081c6.151 0 11.086-4.978 11.086-11.083v-22.167c0-6.236-4.935-11.085-11.086-11.085h-11.081c-6.084 0-11.082 4.85-11.082 11.085v22.167z"/><path fill="#00ADEF" d="M-2112.64 13.938c0 6.104 5.001 11.083 11.085 11.083h11.083c6.147 0 11.086-4.978 11.086-11.083v-22.167c0-6.236-4.938-11.085-11.086-11.085h-11.083c-6.084 0-11.085 4.85-11.085 11.085v22.167z"/><path fill="#00ADEF" d="M-2023.971 13.938c0 6.104 5 11.083 11.084 11.083h11.082c6.146 0 11.082-4.978 11.082-11.083v-22.167c0-6.236-4.936-11.085-11.082-11.085h-11.082c-6.084 0-11.084 4.85-11.084 11.085v22.167z"/><path fill="#00ADEF" d="M-1935.303 13.938c0 6.104 5.001 11.083 11.082 11.083h11.084c6.146 0 11.082-4.978 11.082-11.083v-22.167c0-6.236-4.938-11.085-11.082-11.085h-11.084c-6.081 0-11.082 4.85-11.082 11.085v22.167z"/><path fill="#00ADEF" d="M-1846.639 13.938c0 6.104 5.002 11.083 11.085 11.083h11.082c6.147 0 11.085-4.978 11.085-11.083v-22.167c0-6.236-4.938-11.085-11.085-11.085h-11.082c-6.083 0-11.085 4.85-11.085 11.085v22.167z"/><path fill="#00ADEF" d="M-1757.97 13.938c0 6.104 5.001 11.083 11.081 11.083h11.087c6.146 0 11.086-4.978 11.086-11.083v-22.167c0-6.236-4.938-11.085-11.086-11.085h-11.087c-6.079 0-11.081 4.85-11.081 11.085v22.167z"/><path fill="#00ADEF" d="M-1669.302 13.938c0 6.104 4.999 11.083 11.081 11.083h11.087c6.146 0 11.082-4.978 11.082-11.083v-22.167c0-6.236-4.937-11.085-11.082-11.085h-11.087c-6.082 0-11.081 4.85-11.081 11.085v22.167z"/><path fill="#00ADEF" d="M-1580.635 13.938c0 6.104 4.997 11.083 11.083 11.083h11.082c6.146 0 11.085-4.978 11.085-11.083v-22.167c0-6.236-4.938-11.085-11.085-11.085h-11.082c-6.085 0-11.083 4.85-11.083 11.085v22.167z"/><path fill="#00ADEF" d="M-1491.969 13.938c0 6.104 5.001 11.083 11.084 11.083h11.082c6.147 0 11.083-4.978 11.083-11.083v-22.167c0-6.236-4.936-11.085-11.083-11.085h-11.082c-6.083 0-11.084 4.85-11.084 11.085v22.167z"/><path fill="#00ADEF" d="M-1403.302 13.938c0 6.104 5.002 11.083 11.082 11.083h11.084c6.149 0 11.083-4.978 11.083-11.083v-22.167c0-6.236-4.932-11.085-11.083-11.085h-11.084c-6.079 0-11.082 4.85-11.082 11.085v22.167z"/><path fill="#00ADEF" d="M-1314.638 13.938c0 6.104 5.006 11.083 11.087 11.083h11.086c6.145 0 11.082-4.978 11.082-11.083v-22.167c0-6.236-4.938-11.085-11.082-11.085h-11.086c-6.081 0-11.087 4.85-11.087 11.085v22.167z"/><path fill="#FFFEF0" d="M-2767.726 435.105c58.167.682 139.71 11.086 139.71 11.086s-81.543 10.26-139.71 11.071c-58.166.691-106.451-11.071-106.451-11.071s48.286-11.896 106.451-11.086z"/><path fill="#FFFEF0" d="M-4442.013 32.154c33.618.486 80.789 6.406 80.789 6.406s-47.171 5.92-80.789 6.396c-33.574.476-61.563-6.396-61.563-6.396s27.989-6.895 61.563-6.406z"/><polygon fill="#FFFEF0" points="-842.728,-37.204 -816.231,15.334 -826.155,20.335 -852.652,-32.204"/><polygon fill="#FFFEF0" points="-884.948,-37.626 -878.217,8.7 -889.216,10.299 -895.937,-36.023"/><path fill="#E4E2D6" d="M-1061.754 57.588c3.062 0 5.543 2.478 5.543 5.541 0 3.065-2.479 5.544-5.543 5.544-3.062 0-5.542-2.479-5.542-5.544 0-3.063 2.48-5.541 5.542-5.541z"/><path fill="#E4E2D6" d="M-3465.818 57.588c3.062 0 5.541 2.478 5.541 5.541 0 3.065-2.479 5.544-5.541 5.544-3.062 0-5.541-2.479-5.541-5.544 0-3.063 2.477-5.541 5.541-5.541z"/></g></svg>