<?xml version="1.0" encoding="utf-8"?>
<!-- Generator: Adobe Illustrator 16.0.0, SVG Export Plug-In . SVG Version: 6.00 Build 0)  -->
<!DOCTYPE svg PUBLIC "-//W3C//DTD SVG 1.1//EN" "http://www.w3.org/Graphics/SVG/1.1/DTD/svg11.dtd">
<svg version="1.1" id="svg1" xmlns="http://www.w3.org/2000/svg" xmlns:xlink="http://www.w3.org/1999/xlink" x="0px" y="0px"
	 width="1024px" height="768px" viewBox="0 0 1024 768" enable-background="new 0 0 1024 768" xml:space="preserve">
<g id="bg">
	<rect x="-7576.431" y="-6889.818" fill="#3498DB" width="16291.837" height="14783.959"/>
</g>
<path id="wire1" opacity="0.6" fill="none" stroke="#EFEFEF" stroke-miterlimit="10" enable-background="new    " d="M18.115-44.888
	C63.952,14.779,115.713,82.916,198.636,81.016c65.57-1.501,127.096-41.73,193.394-31.265
	c67.338,10.629,116.664,71.303,167.169,111.705c53.213,42.57,112.231,66.442,171.979,97.309
	c45.997,23.766,69.19,58.462,77.456,109.252c5.77,35.415-0.088,84.239,22.37,114.638c29.146,39.456,156.977,59.966,101.035,134.771
	c-53.021,70.909-150.769,81.889-210.564,115.771C705.355,742.33,683,759.5,670,768l-1.984,1.312"/>
<g id="introduction" inkscape:version="0.48.4 r9939" sodipodi:docname="drawing.svg" xmlns:inkscape="http://www.inkscape.org/namespaces/inkscape" xmlns:dc="http://purl.org/dc/elements/1.1/" xmlns:svg="http://www.w3.org/2000/svg" xmlns:sodipodi="http://sodipodi.sourceforge.net/DTD/sodipodi-0.dtd" xmlns:cc="http://creativecommons.org/ns#" xmlns:rdf="http://www.w3.org/1999/02/22-rdf-syntax-ns#">
	<g id="intro">
		<g id="intro1">
			<text transform="matrix(1 0 0 1 30.7058 451.1562)" fill="#ECF0F1" font-weight="100" font-size="30">I’m Albino Tonnina,</text>
			<text transform="matrix(1 0 0 1 30.7058 487.1562)" fill="#ECF0F1" font-weight="100" font-size="30">a self-taught full-stack web developer.</text>
		</g>
		<g id="intro2">
			<text transform="matrix(1 0 0 1 30.2058 537.6025)" fill="#F5F7FA" font-weight="100" font-size="30">Currently I work in Rome for Numidia, </text>
			<text transform="matrix(1 0 0 1 30.2058 573.6025)" fill="#F5F7FA" font-weight="100" font-size="30">a fresh and dynamic development company I co-founded in 2011.</text>
		</g>
	</g>
	<g id="macbook">
		<path fill="#586273" d="M938.378,306.397L938.378,306.397C938.351,306.458,938.378,306.397,938.378,306.397z"/>
		<path opacity="0.8" fill="#2980B9" enable-background="new    " d="M969.267,279.006L627.089,123.152c0,0-8.188-3.73-11.923,4.46
			c-3.733,8.19,4.462,11.921,4.462,11.921l24.569,11.192c0,0-8.188-3.73-11.92,4.46c-4.688,10.274-4.656,10.22-77.521,170.179
			c-3.892,8.544,0.791,19.04,9.334,22.932L841.66,474.719c8.545,3.896,18.625,0.121,22.519-8.424c0,0,59.131-129.82,74.197-162.898
			l0,0c0.073-0.166,0.579-1.274,3.312-7.28c3.729-8.19-4.462-11.921-4.462-11.921l24.562,11.191c0,0,8.189,3.73,11.923-4.46
			C977.455,282.737,969.267,279.006,969.267,279.006z"/>
		<g>
			<path fill="#E6E9ED" d="M870.181,464.295c-3.892,8.545-13.974,12.316-22.519,8.424L570.099,346.295
				c-8.543-3.892-13.226-14.388-9.334-22.932c0,0,73.783-161.988,77.521-170.179c3.729-8.191,11.922-4.46,11.922-4.46
				l293.031,133.471c0,0,8.188,3.73,4.459,11.921C943.964,302.307,870.181,464.295,870.181,464.295z"/>
			<path opacity="0.3" fill="#B7BFC7" enable-background="new    " d="M944.378,301.397l-364.201-20.582
				c0,0,54.371-119.439,58.104-127.63c3.729-8.191,11.92-4.46,11.92-4.46l293.035,133.471c0,0,8.188,3.73,4.461,11.921
				C943.964,302.308,944.378,301.397,944.378,301.397z"/>
			
				<rect x="713.879" y="215.036" transform="matrix(-0.91 -0.4145 0.4145 -0.91 1427.1321 748.7892)" fill="#DCE4E8" width="161.877" height="9"/>
			
				<radialGradient id="mbplight_1_" cx="1216.2913" cy="8375.0508" r="163.2177" gradientTransform="matrix(0.9118 0.4011 -0.0955 0.1842 477.5787 -1812.8054)" gradientUnits="userSpaceOnUse">
				<stop  offset="0.103" style="stop-color:#3498DB;stop-opacity:0.4"/>
				<stop  offset="0.7955" style="stop-color:#3498DB;stop-opacity:0.0565"/>
				<stop  offset="0.9095" style="stop-color:#3498DB;stop-opacity:0"/>
			</radialGradient>
			<polygon id="mbplight" display="none" fill="url(#mbplight_1_)" points="960.16,328.208 625.479,177.709 669.61,137.852 
				968.716,274.252 			"/>
			<path fill="#CCD1D9" d="M967.806,293.387L625.628,137.533c0,0-8.19-3.73-4.462-11.921c3.729-8.191,11.923-4.46,11.923-4.46
				l342.178,155.854c0,0,8.188,3.73,4.459,11.921C975.996,297.118,967.806,293.387,967.806,293.387z"/>
			
				<rect x="677.233" y="351.505" transform="matrix(-0.91 -0.4145 0.4145 -0.91 1227.0605 1015.2697)" display="none" fill="#F5F7FA" stroke="#CCD1D9" stroke-miterlimit="10" width="92.928" height="45.964"/>
			<g>
				
					<rect x="671.423" y="199.327" transform="matrix(-0.9101 -0.4145 0.4145 -0.9101 1214.5574 674.2049)" fill="#3B3B3B" stroke="#C1C1C1" stroke-miterlimit="10" width="18.006" height="12.004"/>
				
					<rect x="662.454" y="216.363" transform="matrix(-0.91 -0.4145 0.4145 -0.91 1189.2947 707.8279)" fill="#3B3B3B" stroke="#C1C1C1" stroke-miterlimit="10" width="18" height="17"/>
				
					<rect x="651.634" y="240.635" transform="matrix(-0.91 -0.4145 0.4145 -0.91 1169.5952 754.0751)" fill="#3B3B3B" stroke="#C1C1C1" stroke-miterlimit="10" width="29.974" height="18.985"/>
				
					<rect x="641.103" y="266.213" transform="matrix(-0.9101 -0.4145 0.4145 -0.9101 1151.7715 799.3785)" fill="#3B3B3B" stroke="#C1C1C1" stroke-miterlimit="10" width="43.032" height="17.017"/>
				
					<rect x="684.354" y="226.522" transform="matrix(-0.91 -0.4145 0.4145 -0.91 1227.8599 736.4966)" fill="#3B3B3B" stroke="#C1C1C1" stroke-miterlimit="10" width="18.985" height="16.984"/>
				
					<rect x="684.842" y="253.31" transform="matrix(-0.91 -0.4145 0.4145 -0.91 1217.2716 789.7885)" fill="#3B3B3B" stroke="#C1C1C1" stroke-miterlimit="10" width="18.991" height="18.991"/>
				
					<rect x="686.677" y="281.476" transform="matrix(-0.91 -0.4145 0.4145 -0.91 1209.5251 842.4479)" fill="#3B3B3B" stroke="#C1C1C1" stroke-miterlimit="10" width="19.001" height="17.001"/>
				
					<rect x="708.718" y="291.265" transform="matrix(-0.91 -0.4145 0.4145 -0.91 1246.6106 870.0715)" fill="#3B3B3B" stroke="#C1C1C1" stroke-miterlimit="10" width="17.999" height="17.001"/>
				
					<rect x="731.429" y="301.664" transform="matrix(-0.9101 -0.4145 0.4145 -0.9101 1285.7092 899.3241)" fill="#3B3B3B" stroke="#C1C1C1" stroke-miterlimit="10" width="18.003" height="16.999"/>
				
					<rect x="753.301" y="311.592" transform="matrix(-0.91 -0.4145 0.4145 -0.91 1323.3281 927.3791)" fill="#3B3B3B" stroke="#C1C1C1" stroke-miterlimit="10" width="17.995" height="16.994"/>
				
					<rect x="776.057" y="321.939" transform="matrix(-0.9101 -0.4145 0.4145 -0.9101 1362.5415 956.5676)" fill="#3B3B3B" stroke="#C1C1C1" stroke-miterlimit="10" width="18.008" height="17.011"/>
				
					<rect x="796.938" y="331.68" transform="matrix(-0.9101 -0.4145 0.4145 -0.9101 1399.3562 984.0334)" fill="#3B3B3B" stroke="#C1C1C1" stroke-miterlimit="10" width="19.014" height="17.015"/>
				
					<rect x="818.535" y="347.015" transform="matrix(-0.91 -0.4145 0.4145 -0.91 1457.1058 1027.2395)" fill="#3B3B3B" stroke="#C1C1C1" stroke-miterlimit="10" width="42.968" height="16.987"/>
				
					<rect x="707.659" y="263.443" transform="matrix(-0.91 -0.4145 0.4145 -0.91 1255.7111 818.3818)" fill="#3B3B3B" stroke="#C1C1C1" stroke-miterlimit="10" width="17.993" height="18.99"/>
				
					<rect x="729.491" y="273.657" transform="matrix(-0.91 -0.4145 0.4145 -0.91 1294.1169 847.1729)" fill="#3B3B3B" stroke="#C1C1C1" stroke-miterlimit="10" width="18.997" height="18.996"/>
				
					<rect x="752.301" y="283.739" transform="matrix(-0.9101 -0.4144 0.4144 -0.9101 1332.6431 875.6113)" fill="#3B3B3B" stroke="#C1C1C1" stroke-miterlimit="10" width="18.009" height="19.01"/>
				
					<rect x="774.031" y="293.925" transform="matrix(-0.91 -0.4145 0.4145 -0.91 1370.7935 904.3204)" fill="#3B3B3B" stroke="#C1C1C1" stroke-miterlimit="10" width="18.984" height="18.984"/>
				
					<rect x="796.906" y="304.093" transform="matrix(-0.91 -0.4145 0.4145 -0.91 1409.3347 933.0355)" fill="#3B3B3B" stroke="#C1C1C1" stroke-miterlimit="10" width="18.005" height="19.003"/>
				
					<rect x="818.692" y="314.167" transform="matrix(-0.91 -0.4145 0.4145 -0.91 1447.7075 961.4966)" fill="#3B3B3B" stroke="#C1C1C1" stroke-miterlimit="10" width="18.985" height="18.984"/>
				
					<rect x="840.951" y="326.89" transform="matrix(-0.9101 -0.4145 0.4145 -0.9101 1495.4954 997.33)" fill="#3B3B3B" stroke="#C1C1C1" stroke-miterlimit="10" width="30.022" height="19.016"/>
				
					<rect x="707.046" y="236.942" transform="matrix(-0.91 -0.4145 0.4145 -0.91 1266.8706 765.8195)" fill="#3B3B3B" stroke="#C1C1C1" stroke-miterlimit="10" width="18.985" height="16.985"/>
				
					<rect x="729.035" y="246.759" transform="matrix(-0.91 -0.4145 0.4145 -0.91 1303.8796 793.4759)" fill="#3B3B3B" stroke="#C1C1C1" stroke-miterlimit="10" width="18.001" height="17.004"/>
				
					<rect x="751.765" y="257.048" transform="matrix(-0.9101 -0.4145 0.4145 -0.9101 1343.0322 822.5358)" fill="#3B3B3B" stroke="#C1C1C1" stroke-miterlimit="10" width="17.996" height="16.997"/>
				
					<rect x="773.647" y="267.058" transform="matrix(-0.9101 -0.4145 0.4145 -0.9101 1380.6891 850.7364)" fill="#3B3B3B" stroke="#C1C1C1" stroke-miterlimit="10" width="18.006" height="17.007"/>
				
					<rect x="796.339" y="277.371" transform="matrix(-0.9101 -0.4144 0.4144 -0.9101 1419.8113 879.7916)" fill="#3B3B3B" stroke="#C1C1C1" stroke-miterlimit="10" width="18.011" height="17.011"/>
				
					<rect x="817.159" y="287.071" transform="matrix(-0.9101 -0.4145 0.4145 -0.9101 1456.4714 907.2)" fill="#3B3B3B" stroke="#C1C1C1" stroke-miterlimit="10" width="19.012" height="17.01"/>
				
					<rect x="838.896" y="302.441" transform="matrix(-0.9101 -0.4145 0.4145 -0.9101 1514.5448 950.5641)" fill="#3B3B3B" stroke="#C1C1C1" stroke-miterlimit="10" width="43.032" height="17.016"/>
				
					<rect x="632.28" y="281.879" transform="matrix(-0.9101 -0.4145 0.4145 -0.9101 1104.1228 822.3674)" fill="#3B3B3B" stroke="#C1C1C1" stroke-miterlimit="10" width="18.015" height="19.016"/>
				
					<rect x="654.053" y="292.072" transform="matrix(-0.91 -0.4145 0.4145 -0.91 1142.4192 851.056)" fill="#3B3B3B" stroke="#C1C1C1" stroke-miterlimit="10" width="19.001" height="18.996"/>
				
					<rect id="spacebar" x="672.468" y="322.471" transform="matrix(-0.91 -0.4145 0.4145 -0.91 1257.5361 936.8358)" fill="#3B3B3B" stroke="#C1C1C1" stroke-miterlimit="10" width="115.912" height="18.983"/>
				
					<rect x="786.928" y="352.481" transform="matrix(-0.9101 -0.4145 0.4145 -0.9101 1371.1885 1021.5206)" fill="#3B3B3B" stroke="#C1C1C1" stroke-miterlimit="10" width="19.006" height="19.006"/>
				
					<rect x="809.68" y="362.832" transform="matrix(-0.9101 -0.4145 0.4145 -0.9101 1410.3823 1050.7181)" fill="#3B3B3B" stroke="#C1C1C1" stroke-miterlimit="10" width="19.018" height="19.015"/>
				
					<rect x="832.458" y="373.125" transform="matrix(-0.9101 -0.4145 0.4145 -0.9101 1448.6621 1079.5944)" fill="#3B3B3B" stroke="#C1C1C1" stroke-miterlimit="10" width="18.003" height="19.005"/>
				
					<rect x="693.296" y="209.483" transform="matrix(-0.91 -0.4145 0.4145 -0.91 1253.0681 702.9124)" fill="#3B3B3B" stroke="#C1C1C1" stroke-miterlimit="10" width="19.018" height="12.011"/>
				
					<rect x="715.992" y="219.819" transform="matrix(-0.9101 -0.4145 0.4145 -0.9101 1292.1349 732.0391)" fill="#3B3B3B" stroke="#C1C1C1" stroke-miterlimit="10" width="19.006" height="12.004"/>
				
					<rect x="737.849" y="229.597" transform="matrix(-0.91 -0.4145 0.4145 -0.91 1328.8542 759.5684)" fill="#3B3B3B" stroke="#C1C1C1" stroke-miterlimit="10" width="17.993" height="11.996"/>
				
					<rect x="760.583" y="239.987" transform="matrix(-0.91 -0.4145 0.4145 -0.91 1367.9556 788.853)" fill="#3B3B3B" stroke="#C1C1C1" stroke-miterlimit="10" width="17.993" height="11.996"/>
				
					<rect x="782.509" y="249.936" transform="matrix(-0.9101 -0.4145 0.4145 -0.9101 1405.7488 816.9253)" fill="#3B3B3B" stroke="#C1C1C1" stroke-miterlimit="10" width="18.005" height="12.003"/>
				
					<rect x="805.222" y="260.336" transform="matrix(-0.9101 -0.4145 0.4145 -0.9101 1444.8319 846.2092)" fill="#3B3B3B" stroke="#C1C1C1" stroke-miterlimit="10" width="18.015" height="12.01"/>
				
					<rect x="826.176" y="270.007" transform="matrix(-0.9101 -0.4145 0.4145 -0.9101 1481.8041 873.5612)" fill="#3B3B3B" stroke="#C1C1C1" stroke-miterlimit="10" width="19.007" height="12.008"/>
				
					<rect x="848.843" y="280.361" transform="matrix(-0.91 -0.4145 0.4145 -0.91 1520.7444 902.7628)" fill="#3B3B3B" stroke="#C1C1C1" stroke-miterlimit="10" width="18.986" height="11.991"/>
				
					<rect x="871.637" y="290.691" transform="matrix(-0.91 -0.4146 0.4146 -0.91 1559.0092 931.7847)" fill="#3B3B3B" stroke="#C1C1C1" stroke-miterlimit="10" width="17.991" height="11.999"/>
			</g>
		</g>
	</g>
	<g id="bevanda">
		<circle opacity="0.8" fill="#2980B9" enable-background="new    " cx="419.416" cy="136.903" r="50.582"/>
		<circle fill="#E6E9ED" cx="424.416" cy="134.903" r="50.582"/>
		<path fill="#E74C3C" d="M424.416,93.203c23.03,0,41.7,18.67,41.7,41.7c0,23.03-18.67,41.7-41.7,41.7
			c-10.369,0-19.855-3.786-27.15-10.052c-8.897-7.647-14.547-18.989-14.547-31.648C382.717,111.873,401.387,93.203,424.416,93.203z"
			/>
		<path id="linecover1" fill="#E6E9ED" d="M424.416,92.203c23.584,0,42.7,19.118,42.7,42.7s-19.116,42.7-42.7,42.7
			c-10.619,0-20.335-3.877-27.805-10.293c-9.118-7.831-14.896-19.444-14.896-32.407C381.717,111.321,400.834,92.203,424.416,92.203z
			"/>
		
			<ellipse transform="matrix(-0.993 -0.1184 0.1184 -0.993 798.5212 381.2043)" fill="#D8D8DA" cx="410.583" cy="166.884" rx="11.569" ry="7.711"/>
		<polygon fill="#CCD1D9" points="361.239,157.128 402.066,164.068 401.641,167.644 360.326,164.782 		"/>
		
			<ellipse transform="matrix(-0.993 -0.1184 0.1184 -0.993 798.5096 381.2104)" fill="#AAB2BD" cx="410.579" cy="166.884" rx="9.639" ry="6.423"/>
		<path fill="#FFFFFF" d="M397.135,92.046l9.689,12.484c1.604,2.068,1.229,5.048-0.838,6.654c-2.062,1.607-5.05,1.232-6.649-0.836
			l-9.692-12.484c-1.604-2.068-1.229-5.047,0.842-6.654C392.55,89.603,395.528,89.977,397.135,92.046z"/>
		<circle fill="#FFFFFF" cx="424.416" cy="134.903" r="34.776"/>
		<circle fill="#E6E7E8" cx="424.416" cy="134.903" r="31.298"/>
		<circle fill="#49433C" cx="424.416" cy="134.903" r="29.559"/>
		<path fill="#363532" d="M403.194,151.386c9.088,11.702,26.004,13.828,37.707,4.739c0.688-0.535,0.812-1.528,0.271-2.218
			c-0.537-0.689-1.521-0.814-2.225-0.278c-0.275,0.218-0.562,0.428-0.854,0.632c-0.073,0.056-0.148,0.111-0.229,0.166
			c-0.271,0.188-0.55,0.372-0.83,0.549c-0.09,0.057-0.188,0.11-0.271,0.167c-0.188,0.119-0.396,0.235-0.589,0.347
			c-0.136,0.075-0.269,0.15-0.396,0.222c-0.229,0.125-0.455,0.244-0.688,0.36c-0.188,0.09-0.354,0.176-0.539,0.261
			c-0.143,0.064-0.271,0.127-0.402,0.188c-0.174,0.076-0.342,0.151-0.512,0.223c-0.238,0.103-0.485,0.203-0.732,0.298
			c-0.162,0.062-0.323,0.12-0.485,0.178c-0.15,0.056-0.312,0.111-0.478,0.164c-0.146,0.05-0.303,0.1-0.442,0.147
			c-0.281,0.088-0.562,0.171-0.854,0.249c-0.104,0.029-0.205,0.054-0.312,0.081c-0.25,0.064-0.5,0.124-0.755,0.18
			c-0.079,0.018-0.159,0.036-0.236,0.054c-0.343,0.072-0.688,0.137-1.021,0.194c-0.021,0.002-0.037,0.006-0.062,0.008
			c-0.188,0.033-0.396,0.065-0.599,0.092c-0.146,0.021-0.304,0.037-0.45,0.054c-0.021,0.003-0.052,0.007-0.076,0.009
			c-0.738,0.085-1.484,0.134-2.229,0.147c-0.011,0-0.021,0-0.021,0c-0.73,0.013-1.476-0.009-2.207-0.064
			c-0.043-0.003-0.086-0.007-0.129-0.011c-0.34-0.028-0.681-0.061-1.021-0.103c-0.021-0.002-0.039-0.004-0.062-0.006
			c-0.312-0.042-0.637-0.09-0.949-0.143c-0.135-0.022-0.266-0.046-0.395-0.07c-0.179-0.034-0.354-0.068-0.531-0.105
			c-0.646-0.134-1.279-0.297-1.918-0.484c-0.008-0.002-0.017-0.005-0.021-0.007c-3.418-1.023-6.599-2.808-9.25-5.243
			c-0.021-0.015-0.031-0.03-0.058-0.044c-0.146-0.14-0.303-0.282-0.438-0.425c-0.121-0.118-0.241-0.238-0.36-0.358
			c-0.121-0.124-0.242-0.246-0.354-0.373c-0.199-0.215-0.397-0.435-0.604-0.659c-0.062-0.078-0.136-0.157-0.205-0.237
			c-0.229-0.268-0.45-0.54-0.67-0.819c-0.218-0.28-0.427-0.565-0.627-0.854c-0.062-0.085-0.121-0.171-0.183-0.256
			c-0.168-0.245-0.33-0.492-0.487-0.741c-0.097-0.147-0.188-0.295-0.271-0.442c-0.09-0.147-0.18-0.291-0.266-0.438
			c-0.104-0.179-0.201-0.358-0.302-0.539c-0.012-0.019-0.021-0.04-0.03-0.06c-1.693-3.179-2.646-6.695-2.789-10.259
			c0-0.009-0.002-0.017-0.002-0.025c-0.021-0.66-0.021-1.319,0.008-1.978c0.019-0.181,0.021-0.359,0.027-0.541
			c0.01-0.132,0.021-0.263,0.027-0.394c0.021-0.32,0.059-0.641,0.1-0.96c0.002-0.02,0.008-0.039,0.01-0.058
			c0.041-0.338,0.104-0.675,0.147-1.011c0.009-0.043,0.019-0.086,0.021-0.129c0.133-0.723,0.288-1.441,0.479-2.154
			c0.002-0.007,0.007-0.015,0.009-0.022c0.196-0.717,0.435-1.428,0.694-2.13c0.011-0.024,0.021-0.047,0.021-0.071
			c0.062-0.142,0.104-0.283,0.162-0.424c0.075-0.187,0.155-0.372,0.233-0.556c0.011-0.017,0.021-0.035,0.021-0.052
			c0.146-0.32,0.288-0.636,0.438-0.948c0.034-0.074,0.072-0.146,0.104-0.22c0.116-0.229,0.233-0.458,0.355-0.684
			c0.056-0.095,0.104-0.19,0.155-0.285c0.146-0.258,0.298-0.514,0.446-0.766c0.08-0.133,0.171-0.265,0.256-0.397
			c0.096-0.14,0.188-0.28,0.271-0.418c0.101-0.143,0.189-0.286,0.291-0.428c0.151-0.217,0.312-0.432,0.478-0.644
			c0.106-0.146,0.229-0.291,0.348-0.435c0.097-0.117,0.188-0.233,0.273-0.348c0.136-0.153,0.265-0.307,0.396-0.458
			c0.17-0.194,0.346-0.386,0.521-0.576c0.104-0.11,0.206-0.219,0.312-0.329c0.159-0.163,0.312-0.324,0.479-0.483
			c0.077-0.076,0.147-0.152,0.229-0.225c0.234-0.229,0.479-0.45,0.729-0.669c0.071-0.063,0.146-0.125,0.229-0.188
			c0.271-0.23,0.544-0.458,0.818-0.676c0.688-0.536,0.812-1.528,0.273-2.218c-0.533-0.689-1.523-0.814-2.218-0.279
			C396.231,122.77,394.104,139.685,403.194,151.386z"/>
		<path fill="#363532" d="M413.143,112.208c0.345,0.803,1.271,1.182,2.064,0.842c0.219-0.089,0.432-0.171,0.645-0.253
			c0.031-0.013,0.062-0.025,0.102-0.038c0.002-0.001,0.004-0.002,0.007-0.002c0.198-0.076,0.396-0.148,0.604-0.219
			c0.011-0.001,0.016-0.004,0.021-0.006c0.055-0.018,0.104-0.036,0.153-0.055c0.006,0,0.01-0.002,0.015-0.003
			c0.209-0.073,0.422-0.142,0.635-0.208c0.008-0.002,0.021-0.003,0.021-0.005c0.017-0.003,0.021-0.008,0.041-0.012
			c0.015-0.003,0.021-0.007,0.036-0.011c0.438-0.138,0.896-0.258,1.354-0.369c0.051-0.012,0.104-0.026,0.152-0.039
			c0.438-0.104,0.883-0.193,1.322-0.271c0.104-0.019,0.214-0.037,0.312-0.055c-0.062,0.01-0.123,0.018-0.188,0.029
			c0.062-0.011,0.125-0.019,0.188-0.029c-0.002,0-0.004,0-0.007,0c0.146-0.023,0.287-0.044,0.438-0.065
			c-0.011,0.001-0.017,0.001-0.021,0.001c0.052-0.007,0.104-0.016,0.146-0.023c0.005,0,0.005,0,0.012,0
			c-0.055,0.006-0.104,0.016-0.146,0.021c0.062-0.009,0.125-0.016,0.188-0.025c0.562-0.059,1.091,0.182,1.416,0.601
			c0.165,0.212,0.271,0.47,0.312,0.755c0.111,0.859-0.479,1.651-1.344,1.777c-0.002,0-0.002,0.001-0.004,0.001
			c-0.004,0-0.008,0.002-0.011,0.002c-1.323,0.181-2.622,0.493-3.886,0.924c-0.004,0.002-0.009,0.002-0.016,0.005
			c-0.021,0.006-0.036,0.013-0.062,0.019c-0.011,0.002-0.015,0.004-0.021,0.005c-0.42,0.146-0.83,0.305-1.236,0.476
			c-0.777,0.35-1.146,1.262-0.812,2.056c0.336,0.797,1.252,1.174,2.053,0.849c2.158-0.917,4.479-1.382,6.854-1.365
			c0.062,0,0.125,0,0.188,0c0.16,0.003,0.32,0.01,0.482,0.017c0.104,0.005,0.202,0.009,0.311,0.016
			c0.146,0.009,0.302,0.021,0.452,0.033c0.104,0.011,0.214,0.021,0.316,0.033c0.104,0.012,0.22,0.019,0.321,0.033
			c0.021,0.001,0.022,0.008,0.044,0.009c0.021,0.003,0.04,0.01,0.062,0.014c0.388,0.076,0.722,0.282,0.944,0.575
			c0.247,0.32,0.375,0.734,0.312,1.167c-0.104,0.866-0.896,1.479-1.768,1.371c-2.487-0.312-4.959,0.027-7.219,0.965l-0.104,0.047
			c-0.793,0.345-1.164,1.264-0.824,2.062c0.339,0.802,1.271,1.182,2.066,0.842c4.604-1.942,9.965-0.539,13.032,3.412
			c3.062,3.951,3.104,9.49,0.078,13.472c-0.524,0.695-0.396,1.688,0.306,2.214c0.688,0.525,1.674,0.393,2.203-0.29l0.178-0.227
			c1.403-1.922,2.312-4.181,2.61-6.607c0.104-0.866,0.896-1.48,1.769-1.372c0.438,0.055,0.811,0.28,1.057,0.6
			c0.229,0.292,0.353,0.666,0.316,1.06c-0.002,0.021,0,0.041-0.002,0.062c0,0.015,0.002,0.029,0,0.044
			c-0.019,0.11-0.03,0.217-0.051,0.326c-0.021,0.105-0.027,0.211-0.05,0.316c-0.021,0.15-0.056,0.299-0.075,0.449
			c-0.021,0.101-0.039,0.201-0.062,0.301c-0.032,0.159-0.062,0.317-0.104,0.475c-0.021,0.061-0.029,0.12-0.046,0.181
			c-0.569,2.303-1.604,4.44-3.021,6.307c-0.518,0.695-0.375,1.675,0.312,2.197c0.688,0.521,1.654,0.393,2.188-0.282
			c0.271-0.351,0.521-0.711,0.771-1.08c0.002-0.004,0.006-0.008,0.01-0.013c0.018-0.017,0.021-0.034,0.033-0.053
			c0.002-0.002,0.004-0.007,0.008-0.01c0.729-1.11,1.354-2.291,1.854-3.529c0-0.003,0.003-0.006,0.009-0.008
			c0-0.002,0.004-0.003,0.004-0.004c0.334-0.8,1.246-1.183,2.054-0.856c0.271,0.108,0.486,0.281,0.646,0.493
			c0.324,0.42,0.436,0.993,0.229,1.521c-0.021,0.051-0.038,0.104-0.062,0.153c-0.077,0.194-0.161,0.387-0.25,0.579
			c-0.04,0.093-0.077,0.185-0.122,0.276c-0.093,0.198-0.188,0.393-0.276,0.587c-0.039,0.082-0.078,0.165-0.119,0.247
			c-0.104,0.216-0.229,0.429-0.344,0.641c-0.029,0.059-0.062,0.119-0.1,0.176c-0.146,0.264-0.301,0.525-0.457,0.783
			c-0.013,0.017-0.021,0.033-0.023,0.05c-0.004,0.005-0.006,0.011-0.014,0.017c-0.12,0.2-0.25,0.398-0.381,0.595
			c-0.021,0.042-0.062,0.084-0.085,0.127c-0.003,0.005-0.007,0.01-0.013,0.015c-0.071,0.11-0.146,0.218-0.229,0.327
			c-0.055,0.071-0.104,0.144-0.146,0.214c-0.021,0.023-0.033,0.047-0.055,0.07c-0.142,0.19-0.271,0.38-0.409,0.567
			c-0.522,0.695-0.396,1.688,0.306,2.214c0.689,0.528,1.688,0.392,2.221-0.303c7.34-9.67,7.264-23.124-0.189-32.719
			c-7.447-9.594-20.471-13-31.646-8.282C413.182,110.476,412.805,111.403,413.143,112.208z M446.061,144.572
			c-0.027,0.078-0.062,0.156-0.104,0.233C445.992,144.728,446.026,144.65,446.061,144.572z M445.653,145.439
			c-0.035,0.067-0.063,0.136-0.104,0.203C445.586,145.575,445.617,145.506,445.653,145.439z M445.191,146.324
			c-0.022,0.045-0.055,0.092-0.074,0.138C445.143,146.417,445.166,146.369,445.191,146.324z M446.33,143.944
			c0.021-0.044,0.035-0.09,0.061-0.135c-0.005,0.012-0.011,0.024-0.018,0.037C446.357,143.879,446.344,143.911,446.33,143.944z"/>
		<path fill="#363532" d="M443.291,149.252c0.007-0.009,0.02-0.015,0.021-0.023c0.141-0.176,0.268-0.354,0.396-0.535
			C443.566,148.882,443.43,149.068,443.291,149.252z"/>
	</g>
	<g id="mouse">
		<path opacity="0.8" fill="#2980B9" enable-background="new    " d="M975.604,484.257c-0.004-0.003-0.016-0.009-0.02-0.011
			c-9.787-7.229-23.593-5.188-30.863,4.562c-0.033,0.043-0.066,0.081-0.103,0.119l-0.12,0.162l-24.63,33.294
			c-0.062,0.087-0.172,0.298-0.241,0.372l-1.271,1.764l0.006,0.011c-7.248,9.894-5.045,23.509,4.728,30.729
			c9.815,7.261,23.707,5.104,30.896-4.615l26.223-35.457C987.466,505.382,985.421,491.518,975.604,484.257z"/>
		<g>
			<g>
				<path fill="#CCD1D9" d="M950.519,488.136c-0.023,0.043-0.062,0.081-0.103,0.12l-0.118,0.161l-24.63,33.294
					c-0.062,0.087-0.12,0.182-0.19,0.258l-1.219,1.646l0.004,0.002c-7.316,10.055-5.097,23.624,4.675,30.851l52.45-70.896
					C971.589,476.337,957.791,478.383,950.519,488.136z"/>
				<path fill="#E6E9ED" d="M981.396,483.579c-0.01-0.003-0.021-0.008-0.021-0.011l-52.447,70.898
					c9.813,7.27,23.686,5.163,30.869-4.558l-0.086-0.065c-0.002-0.001-0.002-0.001-0.002-0.001s0,0,0.002,0.001l0.086,0.065
					l26.207-35.429C993.271,504.675,991.212,490.841,981.396,483.579z"/>
			</g>
		</g>
	</g>
	<g id="iphone">
		<path opacity="0.8" fill="#2980B9" enable-background="new    " d="M960.569,183.469l38.502-44.066
			c3.021-3.461,2.666-8.77-0.797-11.794l-88.143-77.004c-3.463-3.025-8.771-2.666-11.793,0.796l-38.5,44.065
			c-3.021,3.462-2.67,8.768,0.793,11.795l88.131,77.003C952.233,187.288,957.544,186.932,960.569,183.469z"/>
		<path fill="#434A54" d="M903.869,50.304l-38.5,44.066c-3.024,3.461-2.67,8.769,0.793,11.794l88.132,77.003
			c3.461,3.025,8.771,2.668,11.795-0.796l38.504-44.065c3.022-3.461,2.666-8.77-0.797-11.795l-88.132-77.002
			C912.201,46.485,906.896,46.843,903.869,50.304z"/>
		<path fill="#586273" d="M991.998,127.306l-38.5,44.067l-81.825-71.492c0-0.007,0-0.015,0-0.021l38.481-44.042
			c0.006-0.003,0.015-0.002,0.021-0.003L991.998,127.306z"/>
		
			<rect x="972.941" y="152.87" transform="matrix(-0.658 0.753 -0.753 -0.658 1740.2306 -480.4258)" fill="#434A54" width="12.538" height="4.176"/>
		<path fill="#F7F9F8" d="M871.673,99.859c0,0.007,0,0.015,0,0.021l81.825,71.492l38.5-44.067l-81.821-71.492
			c-0.009,0.001-0.017,0-0.021,0.003L871.673,99.859z"/>
		<path fill="#44C650" d="M935.56,94.342l-5.475-2.599c-0.57-0.273-1.513-0.283-2.089-0.021l-9.243,4.342
			c-0.005,0.002-0.009,0.005-0.013,0.007l-1.287-1.126c-0.396-2.214-1.729-4.557-3.854-6.419l-1.717-1.5
			c-3.028-2.647-7.517-2.466-10.021,0.4l0,0l0,0l0,0c-2.521,2.868-2.08,7.34,0.938,9.987l1.729,1.499
			c2.135,1.862,4.635,2.868,6.881,2.957l1.287,1.126c0,0.002-0.016,0.008-0.021,0.011l-3.062,9.745
			c-0.188,0.604-0.045,1.533,0.303,2.064l3.312,5.075c0.349,0.527,0.972,0.572,1.386,0.096l10.604-12.143l0,0L935.828,95.7
			C936.255,95.225,936.13,94.614,935.56,94.342z"/>
		
			<rect x="918.805" y="113.389" transform="matrix(-0.6579 0.7531 -0.7531 -0.6579 1641.793 -510.0372)" fill="#DCE4E8" width="35.868" height="8.969"/>
		
			<rect x="929.041" y="122.366" transform="matrix(-0.658 0.753 -0.753 -0.658 1665.6078 -502.7587)" fill="#DCE4E8" width="35.861" height="8.969"/>
		
			<rect x="947.922" y="131.244" transform="matrix(-0.658 0.753 -0.753 -0.658 1688.7327 -495.5118)" fill="#DCE4E8" width="17.933" height="8.964"/>
		<circle fill="#586273" cx="937.946" cy="137.03" r="1.682"/>
		<circle fill="#586273" cx="943.847" cy="130.277" r="1.681"/>
		<circle fill="#586273" cx="940.896" cy="133.653" r="1.681"/>
		<path fill="#586273" d="M947.903,125.634c0.688,0.611,0.769,1.672,0.146,2.373c-0.604,0.699-1.677,0.771-2.373,0.16
			c-0.688-0.611-0.771-1.674-0.146-2.374C946.142,125.097,947.203,125.025,947.903,125.634z"/>
		<circle fill="#586273" cx="927.815" cy="128.179" r="1.681"/>
		<circle fill="#586273" cx="939.617" cy="114.674" r="1.681"/>
		<circle fill="#586273" cx="933.716" cy="121.427" r="1.681"/>
		<circle fill="#586273" cx="930.767" cy="124.804" r="1.681"/>
		<circle fill="#586273" cx="936.666" cy="118.051" r="1.682"/>
		
			<rect x="952.626" y="134.584" transform="matrix(-0.6578 0.7532 -0.7532 -0.6578 1689.0885 -495.5276)" fill="#E74C3C" width="8.965" height="2.693"/>
		<path fill="none" d="M903.869,50.305l-29.883,34.212l113.553,73.266l17.054-19.475c3.024-3.461,2.666-8.771-0.797-11.795
			L915.664,49.51C912.201,46.485,906.896,46.843,903.869,50.305z"/>
	</g>
	<g id="matita1">
		<polygon opacity="0.8" fill="#2980B9" enable-background="new    " points="1117.845,319.321 1055.812,191.27 1050.479,193.855 
			1045.142,196.44 1107.175,324.49 1112.511,321.906 		"/>
		<polygon fill="#2980B9" points="1121.599,337.266 1117.845,319.321 1107.175,324.49 1118.931,338.561 1122.851,343.246 		"/>
		<g>
			<g>
				<polygon fill="#58585C" points="1116.608,320.809 1057.16,198.096 1054.576,192.76 1049.239,195.346 1111.274,323.395 				"/>
				<polygon fill="#58585C" points="1116.608,320.809 1121.944,318.227 1059.91,190.174 1054.576,192.76 1057.16,198.096 				"/>
			</g>
			<g>
				<polygon fill="#464E5C" points="1126.948,342.152 1125.696,336.17 1123.028,337.465 				"/>
				<polygon fill="#F7D39A" points="1125.696,336.17 1121.944,318.227 1111.274,323.395 1123.028,337.465 				"/>
			</g>
			<g>
				
					<rect x="1056.362" y="206.545" transform="matrix(0.8998 -0.4362 0.4362 0.8998 15.3372 484.3312)" fill="#DA4453" width="11.859" height="4.448"/>
			</g>
		</g>
	</g>
	<g id="foglio2">
		<g>
			<g opacity="0.8">
				<g>
					<polygon fill="#2980B9" points="165.448,7.97 141.341,196.495 292.062,215.769 316.17,27.243 317.776,14.683 167.054,-4.591 
											"/>
				</g>
			</g>
			<g>
				<g>
					
						<rect x="156.337" y="14.107" transform="matrix(-0.9919 -0.1268 0.1268 -0.9919 448.8826 246.8136)" fill="#EBF4FF" width="151.92" height="190.026"/>
				</g>
			</g>
			<g>
				<g>
					
						<rect x="169.188" y="2.247" transform="matrix(-0.9919 -0.1268 0.1268 -0.9919 487.229 48.1702)" fill="#44C650" width="151.92" height="12.661"/>
				</g>
			</g>
			<g>
				<g>
					
						<rect x="203.276" y="80.577" transform="matrix(0.9919 0.1268 -0.1268 0.9919 12.7103 -25.8741)" fill="none" width="12.663" height="12.662"/>
				</g>
			</g>
			<g>
				<g>
					
						<rect x="225.682" y="82.993" transform="matrix(-0.9919 -0.1267 0.1267 -0.9919 444.9266 200.6277)" fill="none" width="6.329" height="6.33"/>
				</g>
			</g>
			<g>
				<g>
					
						<rect x="180.368" y="66.451" transform="matrix(-0.9919 -0.1268 0.1268 -0.9919 413.5643 162.3968)" fill="#434A54" width="63.167" height="3.166"/>
				</g>
			</g>
			<g>
				<g>
					
						<rect x="249.534" y="73.884" transform="matrix(-0.9919 -0.1268 0.1268 -0.9919 528.4639 184.5741)" fill="#3498DB" width="41.146" height="3.166"/>
				</g>
			</g>
			<g>
				<g>
					
						<rect x="173.047" y="75.75" transform="matrix(-0.9919 -0.1268 0.1268 -0.9919 457.8287 183.8111)" fill="#3498DB" width="123.435" height="3.166"/>
				</g>
			</g>
			<g>
				<g>
					
						<rect x="178.887" y="77.013" transform="matrix(-0.9919 -0.1268 0.1268 -0.9919 377.8859 181.2458)" fill="#3498DB" width="31.65" height="3.165"/>
				</g>
			</g>
			<g>
				<g>
					
						<rect x="216.632" y="80.648" transform="matrix(-0.9919 -0.1269 0.1269 -0.9919 433.6865 192.0923)" fill="#434A54" width="12.662" height="3.166"/>
				</g>
			</g>
			<g>
				<g>
					
						<rect x="235.319" y="85.637" transform="matrix(-0.9919 -0.1268 0.1268 -0.9919 511.2664 206.9861)" fill="#3498DB" width="53.805" height="3.165"/>
				</g>
			</g>
			<g>
				<g>
					
						<rect x="163.046" y="126.047" transform="matrix(-0.9919 -0.1268 0.1268 -0.9919 340.1124 276.9112)" fill="#434A54" width="31.65" height="3.165"/>
				</g>
			</g>
			<g>
				<g>
					
						<rect x="161.483" y="137.816" transform="matrix(-0.9919 -0.1269 0.1269 -0.9919 322.8824 299.3667)" fill="#434A54" width="18.988" height="3.165"/>
				</g>
			</g>
			<g>
				<g>
					
						<rect x="186.632" y="140.621" transform="matrix(-0.9919 -0.1269 0.1269 -0.9919 366.319 307.7435)" fill="#434A54" width="12.66" height="3.166"/>
				</g>
			</g>
			<g>
				<g>
					
						<rect x="162.265" y="131.925" transform="matrix(-0.9919 -0.1268 0.1268 -0.9919 331.5145 288.1174)" fill="#434A54" width="25.325" height="3.166"/>
				</g>
			</g>
			<g>
				<g>
					
						<rect x="160.635" y="144.89" transform="matrix(-0.9919 -0.1268 0.1268 -0.9919 332.9225 314.1384)" fill="#434A54" width="31.65" height="3.166"/>
				</g>
			</g>
			<g>
				<g>
					
						<rect x="165.819" y="90.243" transform="matrix(-0.9919 -0.1269 0.1269 -0.9919 354.6639 234.7354)" fill="#CCD1D9" width="37.982" height="31.652"/>
				</g>
			</g>
			<g>
				<g>
					
						<rect x="208.511" y="145.03" transform="matrix(-0.9919 -0.1268 0.1268 -0.9919 434.5743 320.8926)" fill="#434A54" width="37.98" height="3.166"/>
				</g>
			</g>
			<g>
				<g>
					
						<rect x="207.809" y="149.705" transform="matrix(-0.9919 -0.1268 0.1268 -0.9919 407.3658 328.5101)" fill="#434A54" width="12.661" height="3.166"/>
				</g>
			</g>
			<g>
				<g>
					
						<rect x="226.675" y="151.715" transform="matrix(-0.9919 -0.127 0.127 -0.9919 438.345 334.5522)" fill="#434A54" width="6.331" height="3.166"/>
				</g>
			</g>
			<g>
				<g>
					
						<rect x="209.399" y="137.536" transform="matrix(-0.9919 -0.1268 0.1268 -0.9919 418.3846 304.8675)" fill="#434A54" width="18.993" height="3.165"/>
				</g>
			</g>
			<g>
				<g>
					
						<rect x="234.537" y="140.354" transform="matrix(-0.9919 -0.1268 0.1268 -0.9919 461.7856 313.2763)" fill="#434A54" width="12.659" height="3.166"/>
				</g>
			</g>
			<g>
				<g>
					
						<rect x="210.142" y="132.07" transform="matrix(-0.9919 -0.1268 0.1268 -0.9919 433.1605 294.8814)" fill="#434A54" width="31.649" height="3.166"/>
				</g>
			</g>
			<g>
				<g>
					
						<rect x="212.93" y="96.242" transform="matrix(-0.9919 -0.1268 0.1268 -0.9919 447.7582 252.6367)" fill="#CCD1D9" width="37.98" height="31.651"/>
				</g>
			</g>
			<g>
				<g>
					
						<rect x="257.216" y="138.494" transform="matrix(-0.9919 -0.1268 0.1268 -0.9919 532.4188 314.0469)" fill="#434A54" width="37.979" height="3.165"/>
				</g>
			</g>
			<g>
				<g>
					
						<rect x="255.647" y="150.277" transform="matrix(-0.9919 -0.1269 0.1269 -0.9919 515.1745 336.5408)" fill="#434A54" width="25.321" height="3.165"/>
				</g>
			</g>
			<g>
				<g>
					
						<rect x="257.513" y="143.168" transform="matrix(-0.9919 -0.1268 0.1268 -0.9919 507.2046 321.7867)" fill="#434A54" width="12.662" height="3.165"/>
				</g>
			</g>
			<g>
				<g>
					
						<rect x="254.875" y="156.141" transform="matrix(-0.9919 -0.1268 0.1268 -0.9919 506.6028 347.7005)" fill="#434A54" width="18.989" height="3.166"/>
				</g>
			</g>
			<g>
				<g>
					
						<rect x="280.02" y="158.947" transform="matrix(-0.9919 -0.1268 0.1268 -0.9919 550.033 356.0747)" fill="#434A54" width="12.661" height="3.166"/>
				</g>
			</g>
			<g>
				<g>
					
						<rect x="275.315" y="146.006" transform="matrix(-0.9919 -0.1269 0.1269 -0.9919 548.588 330.1251)" fill="#434A54" width="18.989" height="3.165"/>
				</g>
			</g>
			<g>
				<g>
					
						<rect x="260.028" y="102.269" transform="matrix(-0.9919 -0.1268 0.1268 -0.9919 540.8073 270.6144)" fill="#CCD1D9" width="37.978" height="31.649"/>
				</g>
			</g>
			<g>
				<g>
					
						<rect x="173.064" y="46.209" transform="matrix(-0.9919 -0.1268 0.1268 -0.9919 470.4617 135.0255)" fill="#CCD1D9" width="132.928" height="12.66"/>
				</g>
			</g>
			<g>
				<g>
					<g>
						
							<rect x="180.106" y="44.216" transform="matrix(-0.9919 -0.1268 0.1268 -0.9919 366.1928 114.9116)" fill="#E5E5E5" width="13.296" height="3.166"/>
					</g>
				</g>
			</g>
			<g>
				<g>
					<g>
						
							<rect x="199.839" y="42.843" transform="matrix(-0.9919 -0.1268 0.1268 -0.9919 418.3151 124.9768)" fill="#434A54" width="26.593" height="12.66"/>
					</g>
				</g>
				<g>
					<g>
						
							<rect x="206.49" y="47.58" transform="matrix(-0.9919 -0.1268 0.1268 -0.9919 418.3187 124.9538)" fill="#E5E5E5" width="13.293" height="3.165"/>
					</g>
				</g>
			</g>
			<g>
				<g>
					<g>
						
							<rect x="232.859" y="50.995" transform="matrix(-0.9919 -0.1269 0.1269 -0.9919 470.4033 135.1282)" fill="#E5E5E5" width="13.296" height="3.165"/>
					</g>
				</g>
			</g>
			<g>
				<g>
					<g>
						
							<rect x="259.247" y="54.335" transform="matrix(-0.9919 -0.1268 0.1268 -0.9919 522.5504 145.1029)" fill="#E5E5E5" width="13.295" height="3.165"/>
					</g>
				</g>
			</g>
			<g>
				<g>
					<g>
						
							<rect x="285.627" y="57.708" transform="matrix(-0.9919 -0.1268 0.1268 -0.9919 574.6709 155.1619)" fill="#E5E5E5" width="13.294" height="3.166"/>
					</g>
				</g>
			</g>
			<g>
				<g>
					<g>
						
							<rect x="178.837" y="28.901" transform="matrix(-0.9919 -0.1268 0.1268 -0.9919 428.0189 88.2137)" fill="#CCD1D9" width="75.961" height="3.165"/>
					</g>
				</g>
				<g>
					<g>
						
							<rect x="179.863" y="19.014" transform="matrix(-0.9919 -0.1268 0.1268 -0.9919 374.5771 65.0382)" fill="#CCD1D9" width="18.992" height="3.166"/>
					</g>
				</g>
			</g>
			<g>
				<g>
					
						<rect x="156.993" y="165.598" transform="matrix(-0.9919 -0.1268 0.1268 -0.9919 422.5089 383.4148)" fill="#CCD1D9" width="132.93" height="25.322"/>
				</g>
			</g>
		</g>
	</g>
	<g id="foglio1">
		
			<rect x="-6.739" y="-5.909" transform="matrix(-0.9495 0.3137 -0.3137 -0.9495 173.7663 182.4534)" fill="#2980B9" width="157.885" height="222.233"/>
		<g>
			<g>
				<g>
					<g>
						
							<rect x="-36.78" y="26.935" transform="matrix(-0.3137 -0.9495 0.9495 -0.3137 -2.8752 209.6752)" fill="#F7F9F8" width="222.235" height="157.883"/>
					</g>
				</g>
			</g>
			<g>
				
					<rect x="68.789" y="48.842" transform="matrix(-0.9495 0.3137 -0.3137 -0.9495 205.9134 70.549)" fill="#B7BFC7" width="56.983" height="5.999"/>
				
					<rect x="71.928" y="58.333" transform="matrix(-0.9495 0.3137 -0.3137 -0.9495 215.0108 88.068)" fill="#DCE4E8" width="56.983" height="6.001"/>
				
					<rect x="75.066" y="67.83" transform="matrix(-0.9495 0.3137 -0.3137 -0.9495 224.106 105.5984)" fill="#DCE4E8" width="56.982" height="6"/>
				
					<rect x="78.199" y="77.325" transform="matrix(-0.9495 0.3137 -0.3137 -0.9495 233.1913 123.1251)" fill="#DCE4E8" width="56.981" height="6"/>
			</g>
			
				<rect x="-12.213" y="42.879" transform="matrix(-0.9495 0.3137 -0.3137 -0.9495 121.1537 72.261)" fill="#DCE4E8" width="133.952" height="5.999"/>
			
				<rect x="-18.484" y="13.896" transform="matrix(-0.9495 0.3137 -0.3137 -0.9495 102.9707 37.2113)" fill="#B7BFC7" width="133.95" height="25.989"/>
			<g>
				
					<rect x="9.117" y="107.444" transform="matrix(-0.9495 0.3137 -0.3137 -0.9495 182.9927 191.4421)" fill="#DCE4E8" width="133.952" height="6"/>
				
					<rect x="12.257" y="116.937" transform="matrix(-0.9495 0.3137 -0.3137 -0.9495 192.0911 208.9661)" fill="#DCE4E8" width="133.951" height="6.002"/>
				
					<rect x="15.397" y="126.435" transform="matrix(-0.9495 0.3137 -0.3137 -0.9495 201.1891 226.4948)" fill="#DCE4E8" width="133.948" height="5.999"/>
			</g>
			<g>
				
					<rect x="33.586" y="181.503" transform="matrix(-0.9495 0.3137 -0.3137 -0.9495 253.9263 328.1468)" fill="#DCE4E8" width="133.951" height="6"/>
				
					<rect x="37.476" y="195.701" transform="matrix(-0.9495 0.3137 -0.3137 -0.9495 236.7361 359.3076)" fill="#DCE4E8" width="103.966" height="6.001"/>
			</g>
			<g>
				
					<rect x="22.476" y="151.531" transform="matrix(-0.9495 0.3137 -0.3137 -0.9495 179.016 280.2549)" fill="#B7BFC7" width="88.967" height="5.999"/>
				
					<rect x="25.614" y="161.029" transform="matrix(-0.9495 0.3137 -0.3137 -0.9495 188.1111 297.7857)" fill="#DCE4E8" width="88.966" height="5.998"/>
				
					<rect x="28.761" y="170.524" transform="matrix(-0.9495 0.3137 -0.3137 -0.9495 197.2259 315.3097)" fill="#DCE4E8" width="88.966" height="5.999"/>
				
					<rect x="120.954" y="128.453" transform="matrix(-0.9496 0.3136 -0.3136 -0.9496 314.305 232.3643)" fill="#44C650" width="35.021" height="26.013"/>
			</g>
			<g>
				
					<rect x="1.635" y="80.099" transform="matrix(-0.9495 0.3137 -0.3137 -0.9495 40.7844 189.625)" fill="#DCE4E8" width="7.001" height="35.99"/>
				
					<rect x="11.132" y="76.938" transform="matrix(-0.9495 0.3138 -0.3138 -0.9495 58.314 180.4986)" fill="#DCE4E8" width="7" height="36.008"/>
				
					<rect x="20.623" y="73.792" transform="matrix(-0.9495 0.3138 -0.3138 -0.9495 75.8348 171.3867)" fill="#DCE4E8" width="7" height="36.009"/>
				
					<rect x="30.126" y="70.665" transform="matrix(-0.9495 0.3138 -0.3138 -0.9495 93.3772 162.2957)" fill="#DCE4E8" width="7" height="35.997"/>
				
					<rect x="39.601" y="67.541" transform="matrix(-0.9495 0.3137 -0.3137 -0.9495 110.855 153.2307)" fill="#DCE4E8" width="6.999" height="35.984"/>
				
					<rect x="49.088" y="64.401" transform="matrix(-0.9496 0.3134 -0.3134 -0.9496 128.3481 144.1645)" fill="#DCE4E8" width="6.999" height="35.993"/>
				
					<rect x="58.617" y="61.252" transform="matrix(-0.9495 0.3138 -0.3138 -0.9495 145.9645 135.0055)" fill="#DCE4E8" width="7.001" height="35.996"/>
				
					<rect x="4.793" y="99.585" transform="matrix(-0.9496 0.3134 -0.3134 -0.9496 49.8855 207.1499)" fill="#E74C3C" width="7.002" height="15.999"/>
				
					<rect x="13.801" y="93.503" transform="matrix(-0.9495 0.3137 -0.3137 -0.9495 66.0425 195.3727)" fill="#E74C3C" width="6.999" height="18.996"/>
				
					<rect x="24.374" y="97.21" transform="matrix(-0.9495 0.3138 -0.3138 -0.9495 86.727 192.4619)" fill="#E74C3C" width="7.001" height="12.001"/>
				
					<rect x="32.313" y="84.318" transform="matrix(-0.9495 0.3137 -0.3137 -0.9495 99.7204 174.5838)" fill="#E74C3C" width="6.999" height="21.997"/>
				
					<rect x="41.18" y="77.275" transform="matrix(-0.9495 0.3137 -0.3137 -0.9495 115.4235 161.9829)" fill="#E74C3C" width="7.002" height="26.003"/>
				
					<rect x="53.809" y="93.634" transform="matrix(-0.9495 0.3138 -0.3138 -0.9495 142.0481 170.4007)" fill="#E74C3C" width="7" height="5.999"/>
				
					<rect x="61.717" y="80.768" transform="matrix(-0.9496 0.3134 -0.3134 -0.9496 154.9698 152.625)" fill="#E74C3C" width="7.002" height="15.998"/>
			</g>
		</g>
	</g>
	<g id="occhiali">
		<g>
			<g>
				<path fill="#586273" d="M134.9,124.489c-1.323-0.233-2.208-1.495-1.975-2.817c1.628-9.25-4.572-18.098-13.821-19.726
					L32.842,86.758c-1.323-0.233-2.207-1.495-1.974-2.818c0.232-1.323,1.494-2.208,2.816-1.975l86.262,15.186
					c11.893,2.094,19.863,13.471,17.771,25.363C137.483,123.837,136.222,124.722,134.9,124.489z"/>
			</g>
		</g>
		<g>
			<g>
				<g>
					<path fill="#586273" d="M134.9,124.489c-1.323-0.233-2.208-1.495-1.975-2.817c1.628-9.25-4.572-18.098-13.821-19.726
						L32.842,86.758c-1.323-0.233-2.207-1.495-1.974-2.818c0.232-1.323,1.494-2.208,2.816-1.975l86.262,15.186
						c11.893,2.094,19.863,13.471,17.771,25.363C137.483,123.837,136.222,124.722,134.9,124.489z"/>
				</g>
			</g>
			<g>
				<g>
					<path fill="#586273" d="M39.051,107.614c-1.323-0.232-2.206-1.495-1.973-2.817c2.094-11.892,13.471-19.863,25.361-17.77
						l86.263,15.187c1.322,0.233,2.208,1.495,1.974,2.818c-0.232,1.323-1.494,2.208-2.817,1.974L61.596,91.82
						c-9.248-1.628-18.098,4.571-19.727,13.82C41.637,106.963,40.375,107.848,39.051,107.614z"/>
				</g>
			</g>
		</g>
		<g opacity="0.3">
			<g>
				<g>
					<path fill="#EFEEEE" d="M77.812,111.969c-0.928,5.271-5.999,8.825-11.271,7.897l-28.755-5.062
						c-5.271-0.928-8.825-6-7.896-11.271l3.374-19.17c0.929-5.272,6.001-8.825,11.271-7.897l28.755,5.062
						c5.271,0.928,8.823,6,7.896,11.272L77.812,111.969z"/>
				</g>
			</g>
		</g>
		<g opacity="0.3">
			<g>
				<g>
					<path fill="#EFEEEE" d="M144.905,123.78c-0.928,5.271-6,8.826-11.271,7.896l-28.756-5.062
						c-5.272-0.928-8.826-6.001-7.897-11.272l3.375-19.169c0.929-5.272,6-8.826,11.272-7.897l28.755,5.062
						c5.271,0.928,8.825,6,7.896,11.272L144.905,123.78z"/>
				</g>
			</g>
		</g>
		<g>
			<g>
				<path fill="#586273" d="M97.403,112.948c-1.322-0.233-2.207-1.495-1.974-2.819c0.698-3.964-1.959-7.756-5.923-8.454
					c-3.963-0.698-7.756,1.959-8.454,5.923c-0.233,1.323-1.493,2.208-2.818,1.975c-1.321-0.232-2.206-1.495-1.974-2.818
					c1.164-6.606,7.484-11.035,14.09-9.872c6.607,1.163,11.035,7.485,9.872,14.09C99.989,112.296,98.727,113.181,97.403,112.948z"/>
			</g>
		</g>
		<g opacity="0.3">
			<path fill="#EFEEEE" d="M44.473,76.82c-5.271-0.928-10.212,2.282-11.14,7.554l-3.375,19.17
				c-0.929,5.271,2.482,10.758,7.753,11.686l14.121,2.486l6.762-38.409L44.473,76.82z"/>
		</g>
		<g opacity="0.3">
			<path fill="#EFEEEE" d="M111.566,88.632c-5.272-0.928-9.351,2.433-10.278,7.706l-3.375,19.168
				c-0.928,5.272,1.618,10.606,6.892,11.535l13.998,2.465l6.762-38.41L111.566,88.632z"/>
		</g>
		<g>
			<g>
				<path fill="none" d="M139.961,95.736l-28.755-5.062c-3.963-0.698-7.756,1.958-8.454,5.922l-3.375,19.169
					c-0.698,3.963,1.959,7.757,5.923,8.455l28.755,5.062c3.963,0.697,7.754-1.961,8.452-5.924l3.375-19.169
					C146.581,100.224,143.925,96.433,139.961,95.736z"/>
			</g>
			<g>
				<path fill="none" d="M72.868,83.924l-28.756-5.062c-3.962-0.698-7.755,1.958-8.453,5.922l-3.375,19.169
					c-0.697,3.963,1.961,7.757,5.923,8.455l28.755,5.062c3.964,0.697,7.756-1.96,8.454-5.924l3.375-19.169
					C79.489,88.414,76.832,84.622,72.868,83.924z"/>
			</g>
			<g>
				<path fill="#586273" d="M73.712,79.13l-28.755-5.062c-6.605-1.163-12.927,3.266-14.089,9.873l-3.375,19.169
					c-1.163,6.606,3.266,12.927,9.87,14.09l28.756,5.062c6.604,1.162,12.925-3.266,14.088-9.872l3.375-19.169
					C84.746,86.613,80.318,80.293,73.712,79.13z M75.417,111.547c-0.698,3.963-4.49,6.621-8.454,5.924l-28.755-5.062
					c-3.962-0.698-6.62-4.492-5.923-8.455l3.375-19.169c0.697-3.964,4.49-6.62,8.453-5.922l28.756,5.062
					c3.964,0.698,6.621,4.49,5.923,8.454L75.417,111.547z"/>
			</g>
			<g>
				<path fill="#586273" d="M140.806,90.942L112.05,85.88c-6.607-1.163-12.926,3.265-14.09,9.873l-3.375,19.168
					c-1.164,6.607,3.264,12.928,9.872,14.09l28.755,5.062c6.604,1.163,12.926-3.265,14.089-9.872l3.375-19.169
					C151.839,98.426,147.411,92.105,140.806,90.942z M142.508,123.358c-0.698,3.963-4.489,6.621-8.452,5.924l-28.755-5.062
					c-3.963-0.697-6.621-4.492-5.923-8.455l3.375-19.169c0.698-3.964,4.491-6.62,8.454-5.922l28.755,5.062
					c3.963,0.697,6.619,4.488,5.921,8.453L142.508,123.358z"/>
			</g>
		</g>
	</g>
	<g id="calcolatrice">
		<path opacity="0.8" fill="#2980B9" enable-background="new    " d="M1185.925,37.422l-33.881-36.096
			c-2.636-2.807-7.089-2.948-9.896-0.313l-53.904,50.597c-2.812,2.635-2.946,7.087-0.312,9.895l33.882,36.096
			c2.645,2.807,7.093,2.947,9.896,0.312l53.905-50.596C1188.418,44.682,1188.561,40.229,1185.925,37.422z"/>
		<g>
			<path fill="#F7F9F8" d="M1092.244,51.61c-2.812,2.635-2.946,7.087-0.312,9.895l33.882,36.096
				c2.645,2.807,7.093,2.947,9.896,0.312l53.905-50.596c2.808-2.635,2.938-7.087,0.312-9.895l-33.881-36.096
				c-2.636-2.807-7.088-2.948-9.896-0.313L1092.244,51.61z"/>
			<g>
				
					<rect x="1128.722" y="23.014" transform="matrix(-0.6844 -0.7291 0.7291 -0.6844 1888.8904 873.0147)" fill="#E74C3C" width="9.345" height="9.348"/>
				
					<rect x="1138.244" y="33.291" transform="matrix(-0.6844 -0.7291 0.7291 -0.6844 1897.4407 897.2621)" fill="#E74C3C" width="9.346" height="9.346"/>
				
					<rect x="1147.848" y="43.54" transform="matrix(-0.6844 -0.7291 0.7291 -0.6844 1906.1565 921.5222)" fill="#E74C3C" width="9.349" height="9.346"/>
				
					<rect x="1157.443" y="53.766" transform="matrix(-0.6844 -0.7291 0.7291 -0.6844 1914.8628 945.7429)" fill="#E74C3C" width="9.349" height="9.346"/>
				
					<rect x="1118.406" y="32.608" transform="matrix(-0.6845 -0.729 0.729 -0.6845 1864.6599 881.5324)" fill="#E74C3C" width="9.349" height="9.345"/>
				
					<rect x="1128.124" y="42.821" transform="matrix(-0.6844 -0.7291 0.7291 -0.6844 1873.4772 905.908)" fill="#E74C3C" width="9.346" height="9.345"/>
				
					<rect x="1137.64" y="53.053" transform="matrix(-0.6843 -0.7292 0.7292 -0.6843 1881.8558 930.2438)" fill="#E74C3C" width="9.347" height="9.345"/>
				
					<rect x="1147.271" y="63.339" transform="matrix(-0.6844 -0.7291 0.7291 -0.6844 1890.7683 954.431)" fill="#E74C3C" width="9.346" height="9.346"/>
				
					<rect x="1108.114" y="42.312" transform="matrix(-0.6843 -0.7292 0.7292 -0.6843 1840.0175 890.5727)" fill="#E74C3C" width="9.346" height="9.348"/>
				
					<rect x="1117.799" y="52.523" transform="matrix(-0.6844 -0.7291 0.7291 -0.6844 1848.9651 914.7607)" fill="#E74C3C" width="9.342" height="9.348"/>
				
					<rect x="1127.402" y="62.708" transform="matrix(-0.6844 -0.7291 0.7291 -0.6844 1857.7625 938.8814)" fill="#E74C3C" width="9.346" height="9.347"/>
				
					<rect x="1137.005" y="72.966" transform="matrix(-0.6844 -0.7291 0.7291 -0.6844 1866.4363 963.1819)" fill="#E74C3C" width="9.349" height="9.347"/>
				
					<rect x="1098.017" y="51.828" transform="matrix(-0.6845 -0.729 0.729 -0.6845 1816.2865 899.0538)" fill="#E74C3C" width="9.345" height="9.347"/>
				
					<rect x="1107.66" y="62.121" transform="matrix(-0.6846 -0.729 0.729 -0.6846 1825.0923 923.3691)" fill="#E74C3C" width="9.345" height="9.348"/>
				
					<rect x="1114.917" y="77.443" transform="matrix(-0.6844 -0.7291 0.7291 -0.6844 1837.7642 959.7339)" fill="#656D78" width="23.366" height="9.346"/>
			</g>
			
				<rect x="1135.656" y="20.942" transform="matrix(-0.6844 -0.7291 0.7291 -0.6844 1934.1123 897.7609)" fill="#2C3E50" width="51.4" height="18.689"/>
			
				<rect x="1165.442" y="32.422" transform="matrix(-0.6843 -0.7292 0.7292 -0.6843 1939.8793 913.9861)" fill="#ECF0F1" width="4.672" height="9.345"/>
			
				<rect x="1171.817" y="39.215" transform="matrix(-0.6848 -0.7288 0.7288 -0.6848 1946.1958 929.619)" fill="#ECF0F1" width="4.673" height="9.351"/>
			
				<rect x="1152.662" y="18.801" transform="matrix(-0.6842 -0.7293 0.7293 -0.6842 1928.1216 881.8796)" fill="#ECF0F1" width="4.676" height="9.346"/>
			
				<rect x="1158.894" y="25.754" transform="matrix(-0.6843 -0.7292 0.7292 -0.6843 1933.6929 897.9988)" fill="#ECF0F1" width="4.669" height="9.349"/>
		</g>
	</g>
	<text id="hello" transform="matrix(1 0 0 1 30.7058 389.209)" fill="#ECF0F1" font-weight="900" font-size="120">hello</text>
	<g id="subtitle">
		
			<text id="scrolldown" transform="matrix(1 0 0 1 409.5745 389.209)" fill="#F5ECD9" font-weight="400" font-size="14">scroll down</text>
		
			<text id="viewresume" transform="matrix(1 0 0 1 484.1746 389.209)" fill="#DED6C7" font-weight="400" font-size="14">or just view my resume.</text>
	</g>
</g>
<g id="scrollthing">
	<rect x="969.689" y="-206.661" fill="#4CAEE5" width="14.722" height="170.528"/>
	<g id="moving">
		<rect id="scrollertop" x="971.3" y="-204.409" fill="#3498DB" width="11.501" height="81.576"/>
		<g id="cursor">
			<g>
				<polygon fill="#4CAEE5" points="949.01,-168.324 949.01,-167.301 944.918,-167.301 944.918,-165.409 944.865,-165.392 
					943.911,-165.392 943.911,-168.324 943.918,-168.324 944.918,-168.324 946.887,-168.324 946.887,-169.15 947.875,-169.15 
					947.875,-168.324 				"/>
				<polygon fill="#4CAEE5" points="947.851,-161.523 947.851,-159.579 946.845,-159.579 946.845,-159.581 946.845,-161.523 
					946.862,-161.523 				"/>
				<rect x="945.889" y="-170.146" fill="#4CAEE5" width="0.988" height="0.988"/>
				<polygon fill="#4CAEE5" points="946.862,-163.465 946.862,-161.523 946.845,-161.523 945.856,-161.523 945.856,-163.465 
					945.871,-163.465 				"/>
				<polygon fill="#4CAEE5" points="946.845,-159.579 946.845,-158.574 944.9,-158.574 944.9,-159.579 944.906,-159.581 
					946.845,-159.581 				"/>
				<rect x="944.892" y="-171.144" fill="#4CAEE5" width="0.988" height="0.988"/>
				<polygon fill="#4CAEE5" points="945.871,-165.409 945.871,-163.465 945.856,-163.465 944.865,-163.465 944.865,-165.392 
					944.918,-165.409 				"/>
				<polygon fill="#4CAEE5" points="944.906,-161.523 944.906,-159.581 944.9,-159.579 943.9,-159.579 943.9,-161.523 				"/>
				<rect x="943.896" y="-172.141" fill="#4CAEE5" width="0.982" height="0.988"/>
				<polygon fill="#4CAEE5" points="943.896,-161.523 943.896,-161.505 942.89,-161.505 942.89,-163.431 942.895,-163.448 
					943.896,-163.448 				"/>
				<rect x="942.898" y="-173.138" fill="#4CAEE5" width="0.983" height="0.988"/>
				<polygon fill="#4CAEE5" points="942.895,-165.375 942.895,-163.448 942.89,-163.431 941.889,-163.431 941.889,-165.357 
					941.889,-165.375 				"/>
				<rect x="941.901" y="-174.135" fill="#4CAEE5" width="0.983" height="0.988"/>
				<rect x="940.904" y="-175.134" fill="#4CAEE5" width="0.983" height="0.99"/>
				<polygon fill="#4CAEE5" points="941.889,-165.375 941.889,-165.357 940.893,-165.357 940.882,-165.4 940.882,-167.301 
					941.889,-167.301 				"/>
				<rect x="939.906" y="-176.13" fill="#4CAEE5" width="0.983" height="0.99"/>
				<polygon fill="#4CAEE5" points="940.893,-165.357 940.893,-164.412 939.903,-164.412 939.903,-165.4 940.882,-165.4 				"/>
				<rect x="938.909" y="-164.403" fill="#4CAEE5" width="0.988" height="0.99"/>
				<rect x="938.909" y="-177.127" fill="#4CAEE5" width="0.988" height="0.988"/>
				<polygon fill="#4CAEE5" points="938.905,-163.406 938.905,-162.416 937.916,-162.416 937.916,-161.607 936.91,-161.607 
					936.91,-179.061 937.916,-179.061 937.916,-178.125 938.901,-178.125 938.901,-177.136 937.916,-177.136 937.916,-163.406 				
					"/>
			</g>
		</g>
	</g>
</g>
</svg>
