<?xml version="1.0" encoding="utf-8"?>
<!-- Generator: Adobe Illustrator 16.0.0, SVG Export Plug-In . SVG Version: 6.00 Build 0)  -->
<!DOCTYPE svg PUBLIC "-//W3C//DTD SVG 1.1//EN" "http://www.w3.org/Graphics/SVG/1.1/DTD/svg11.dtd">
<svg version="1.1" id="svg3" xmlns="http://www.w3.org/2000/svg" xmlns:xlink="http://www.w3.org/1999/xlink" x="0px" y="0px"
	 width="1024px" height="768px" viewBox="0 0 1024 768" enable-background="new 0 0 1024 768" xml:space="preserve">
<g id="svgScene3">
	<rect x="-8168" y="-5681.615" fill="#44C650" width="16535.688" height="12159.688"/>
</g>
<g>
	<path fill="#459B45" d="M768.53,265.132L708.679,420.09l16.312,6.303l59.852-154.958L768.53,265.132z M772.747,278.476
		c-1.126-0.435-1.687-1.701-1.25-2.826c0.435-1.126,1.698-1.687,2.826-1.252c1.126,0.438,1.688,1.701,1.252,2.828
		C775.14,278.351,773.874,278.912,772.747,278.476z"/>
	<path fill="#F6BB42" d="M770.024,264.633l-59.853,154.958l16.312,6.303l59.85-154.958L770.024,264.633z M774.242,277.978
		c-1.126-0.436-1.687-1.701-1.25-2.826c0.434-1.127,1.698-1.688,2.825-1.253c1.127,0.438,1.688,1.702,1.253,2.828
		C776.634,277.852,775.369,278.413,774.242,277.978z"/>
	
		<rect x="763.471" y="281.815" transform="matrix(-0.9329 -0.3602 0.3602 -0.9329 1380.4189 821.4254)" fill="#FFFFFF" width="6.554" height="0.546"/>
	
		<rect x="757.242" y="298.142" transform="matrix(-0.9328 -0.3603 0.3603 -0.9328 1362.4451 850.8001)" fill="#FFFFFF" width="6.557" height="0.545"/>
	
		<rect x="750.879" y="314.503" transform="matrix(-0.9328 -0.3604 0.3604 -0.9328 1344.1895 880.1945)" fill="#FFFFFF" width="6.555" height="0.546"/>
	
		<rect x="744.59" y="330.741" transform="matrix(-0.9328 -0.3603 0.3603 -0.9328 1326.245 909.2494)" fill="#FFFFFF" width="6.557" height="0.544"/>
	
		<rect x="738.206" y="347.053" transform="matrix(-0.9328 -0.3603 0.3603 -0.9328 1308.0288 938.4792)" fill="#FFFFFF" width="6.557" height="0.545"/>
	
		<rect x="732.025" y="363.416" transform="matrix(-0.9329 -0.3602 0.3602 -0.9329 1290.2609 967.809)" fill="#FFFFFF" width="6.557" height="0.545"/>
	
		<rect x="725.72" y="379.727" transform="matrix(-0.9328 -0.3604 0.3604 -0.9328 1272.0793 997.1733)" fill="#FFFFFF" width="6.557" height="0.548"/>
	
		<rect x="719.333" y="396.08" transform="matrix(-0.9328 -0.3603 0.3603 -0.9328 1253.8848 1026.442)" fill="#FFFFFF" width="6.557" height="0.548"/>
	
		<rect x="713.149" y="412.283" transform="matrix(-0.9328 -0.3604 0.3604 -0.9328 1236.0421 1055.5767)" fill="#FFFFFF" width="6.558" height="0.548"/>
	
		<rect x="761.995" y="285.52" transform="matrix(-0.9329 -0.3601 0.3601 -0.9329 1374.1714 827.6068)" fill="#FFFFFF" width="4.371" height="0.547"/>
	
		<rect x="760.404" y="289.599" transform="matrix(-0.9328 -0.3604 0.3604 -0.9328 1369.4578 835.1098)" fill="#FFFFFF" width="4.372" height="0.548"/>
	
		<rect x="758.792" y="293.66" transform="matrix(-0.9328 -0.3604 0.3604 -0.9328 1364.8773 842.3758)" fill="#FFFFFF" width="4.372" height="0.547"/>
	
		<rect x="757.276" y="297.765" transform="matrix(-0.9328 -0.3604 0.3604 -0.9328 1360.4805 849.7496)" fill="#FFFFFF" width="4.371" height="0.547"/>
	
		<rect x="755.752" y="301.852" transform="matrix(-0.9328 -0.3603 0.3603 -0.9328 1356.0948 857.0649)" fill="#FFFFFF" width="4.373" height="0.547"/>
	
		<rect x="754.098" y="305.901" transform="matrix(-0.9329 -0.36 0.36 -0.9329 1351.6262 864.0939)" fill="#FFFFFF" width="4.371" height="0.545"/>
	
		<rect x="752.527" y="310.043" transform="matrix(-0.9327 -0.3607 0.3607 -0.9327 1346.7153 871.9361)" fill="#FFFFFF" width="4.37" height="0.544"/>
	
		<rect x="750.946" y="314.058" transform="matrix(-0.933 -0.36 0.36 -0.933 1342.609 878.7152)" fill="#FFFFFF" width="4.37" height="0.548"/>
	
		<rect x="749.379" y="318.151" transform="matrix(-0.9329 -0.3602 0.3602 -0.9329 1337.9629 886.2111)" fill="#FFFFFF" width="4.373" height="0.548"/>
	
		<rect x="747.789" y="322.224" transform="matrix(-0.9327 -0.3606 0.3606 -0.9327 1333.2236 893.7103)" fill="#FFFFFF" width="4.37" height="0.546"/>
	
		<rect x="746.281" y="326.316" transform="matrix(-0.9328 -0.3605 0.3605 -0.9328 1328.8674 901.0437)" fill="#FFFFFF" width="4.372" height="0.546"/>
	
		<rect x="744.632" y="330.44" transform="matrix(-0.9329 -0.3603 0.3603 -0.9329 1324.3491 908.2659)" fill="#FFFFFF" width="4.374" height="0.546"/>
	
		<rect x="743.083" y="334.443" transform="matrix(-0.9328 -0.3605 0.3605 -0.9328 1319.7578 915.5995)" fill="#FFFFFF" width="4.372" height="0.546"/>
	
		<rect x="741.451" y="338.484" transform="matrix(-0.933 -0.3598 0.3598 -0.933 1315.5704 922.4033)" fill="#FFFFFF" width="4.371" height="0.547"/>
	
		<rect x="739.932" y="342.636" transform="matrix(-0.9329 -0.3602 0.3602 -0.9329 1310.9224 930.0916)" fill="#FFFFFF" width="4.369" height="0.546"/>
	
		<rect x="738.427" y="346.75" transform="matrix(-0.9325 -0.3611 0.3611 -0.9325 1305.9669 938.0452)" fill="#FFFFFF" width="4.372" height="0.544"/>
	
		<rect x="736.788" y="350.785" transform="matrix(-0.9329 -0.3602 0.3602 -0.9329 1301.8838 944.7385)" fill="#FFFFFF" width="4.372" height="0.547"/>
	
		<rect x="735.166" y="354.849" transform="matrix(-0.9328 -0.3603 0.3603 -0.9328 1297.2356 952.0547)" fill="#FFFFFF" width="4.371" height="0.546"/>
	
		<rect x="733.631" y="358.931" transform="matrix(-0.9328 -0.3604 0.3604 -0.9328 1292.7363 959.4482)" fill="#FFFFFF" width="4.371" height="0.545"/>
	
		<rect x="732.095" y="363.048" transform="matrix(-0.9328 -0.3605 0.3605 -0.9328 1288.2219 966.908)" fill="#FFFFFF" width="4.371" height="0.544"/>
	
		<rect x="730.488" y="367.133" transform="matrix(-0.9327 -0.3607 0.3607 -0.9327 1283.5303 974.327)" fill="#FFFFFF" width="4.37" height="0.545"/>
	
		<rect x="728.916" y="371.219" transform="matrix(-0.9328 -0.3603 0.3603 -0.9328 1279.2437 981.4574)" fill="#FFFFFF" width="4.372" height="0.547"/>
	
		<rect x="727.314" y="375.296" transform="matrix(-0.9329 -0.3601 0.3601 -0.9329 1274.8206 988.634)" fill="#FFFFFF" width="4.37" height="0.548"/>
	
		<rect x="725.727" y="379.354" transform="matrix(-0.9329 -0.36 0.36 -0.9329 1270.3406 995.8623)" fill="#FFFFFF" width="4.371" height="0.548"/>
	
		<rect x="724.193" y="383.385" transform="matrix(-0.9328 -0.3603 0.3603 -0.9328 1265.7317 1003.2672)" fill="#FFFFFF" width="4.372" height="0.545"/>
	
		<rect x="722.618" y="387.46" transform="matrix(-0.9328 -0.3603 0.3603 -0.9328 1261.2205 1010.5776)" fill="#FFFFFF" width="4.372" height="0.546"/>
	
		<rect x="721.01" y="391.616" transform="matrix(-0.9331 -0.3597 0.3597 -0.9331 1257.0569 1017.6549)" fill="#FFFFFF" width="4.372" height="0.547"/>
	
		<rect x="719.51" y="395.629" transform="matrix(-0.9329 -0.3601 0.3601 -0.9329 1252.3994 1025.136)" fill="#FFFFFF" width="4.371" height="0.546"/>
	
		<rect x="717.944" y="399.734" transform="matrix(-0.9329 -0.3602 0.3602 -0.9329 1247.8427 1032.548)" fill="#FFFFFF" width="4.371" height="0.545"/>
	
		<rect x="716.317" y="403.752" transform="matrix(-0.9329 -0.3602 0.3602 -0.9329 1243.2505 1039.7292)" fill="#FFFFFF" width="4.371" height="0.545"/>
	
		<rect x="714.811" y="407.78" transform="matrix(-0.933 -0.36 0.36 -0.933 1239.0464 1046.8508)" fill="#FFFFFF" width="4.373" height="0.548"/>
	
		<rect x="713.223" y="411.938" transform="matrix(-0.9331 -0.3597 0.3597 -0.9331 1234.6411 1054.1813)" fill="#FFFFFF" width="4.371" height="0.548"/>
</g>
<g>
	<circle fill="#459B45" cx="59.401" cy="392.135" r="52.096"/>
	<circle fill="#F5ECD9" cx="63.401" cy="389.135" r="52.096"/>
	<circle fill="#2BACB5" cx="63.401" cy="389.135" r="39.072"/>
	
		<ellipse transform="matrix(0.9964 -0.0845 0.0845 0.9964 -35.7318 7.8678)" fill="#D8D8DA" cx="75.102" cy="426.151" rx="11.907" ry="7.94"/>
	<polygon fill="#D8D8DA" points="126.844,425.732 84.218,427.225 83.905,423.527 126.173,417.82 	"/>
	
		<ellipse transform="matrix(0.9964 -0.0845 0.0845 0.9964 -35.7395 7.8706)" fill="#95989F" cx="75.108" cy="426.134" rx="9.922" ry="6.615"/>
	<path fill="#FFFFFF" d="M107.468,360.924l-12.831,10.02c-2.126,1.659-5.196,1.282-6.855-0.845c-1.66-2.126-1.282-5.195,0.844-6.854
		l12.832-10.021c2.126-1.659,5.195-1.281,6.855,0.845C109.973,356.196,109.595,359.265,107.468,360.924z"/>
	<circle fill="#FFFFFF" cx="63.401" cy="389.135" r="35.816"/>
	<circle fill="#E6E7E8" cx="63.401" cy="389.136" r="32.235"/>
	<circle fill="#49433C" cx="63.4" cy="389.136" r="30.444"/>
	<path fill="#363532" d="M46.369,367.32c-12.029,9.392-14.175,26.817-4.783,38.846c0.554,0.709,1.577,0.836,2.285,0.282
		c0.709-0.554,0.835-1.575,0.282-2.284c-0.227-0.289-0.443-0.586-0.655-0.884c-0.058-0.081-0.114-0.162-0.171-0.243
		c-0.194-0.281-0.385-0.564-0.567-0.854c-0.059-0.097-0.114-0.188-0.173-0.283c-0.122-0.199-0.242-0.4-0.358-0.604
		c-0.078-0.135-0.156-0.271-0.23-0.405c-0.128-0.231-0.253-0.47-0.372-0.707c-0.094-0.185-0.183-0.367-0.271-0.556
		c-0.066-0.139-0.132-0.276-0.195-0.418c-0.078-0.174-0.156-0.347-0.23-0.521c-0.107-0.252-0.211-0.506-0.31-0.765
		c-0.064-0.163-0.124-0.334-0.185-0.5c-0.058-0.159-0.115-0.323-0.17-0.485c-0.052-0.152-0.104-0.31-0.152-0.461
		c-0.092-0.291-0.179-0.584-0.259-0.879c-0.03-0.107-0.057-0.218-0.084-0.322c-0.066-0.258-0.129-0.516-0.188-0.773
		c-0.019-0.084-0.038-0.166-0.056-0.248c-0.075-0.352-0.143-0.705-0.202-1.061c-0.003-0.021-0.007-0.038-0.01-0.057
		c-0.033-0.205-0.067-0.41-0.096-0.615c-0.021-0.155-0.038-0.312-0.057-0.467c-0.003-0.024-0.007-0.054-0.01-0.078
		c-0.09-0.771-0.142-1.535-0.157-2.304c0-0.01,0-0.018,0-0.022c-0.016-0.762,0.005-1.521,0.06-2.271
		c0.004-0.045,0.008-0.09,0.011-0.133c0.028-0.352,0.062-0.701,0.104-1.049c0.003-0.021,0.004-0.04,0.007-0.061
		c0.041-0.33,0.091-0.658,0.146-0.984c0.021-0.135,0.047-0.271,0.07-0.4c0.034-0.184,0.069-0.365,0.107-0.547
		c0.137-0.664,0.302-1.324,0.493-1.977c0.002-0.009,0.005-0.017,0.007-0.024c1.045-3.522,2.875-6.796,5.376-9.54
		c0.016-0.018,0.03-0.035,0.046-0.052c0.144-0.156,0.289-0.31,0.437-0.462c0.121-0.125,0.244-0.249,0.369-0.372
		c0.126-0.125,0.252-0.251,0.383-0.373c0.221-0.21,0.446-0.415,0.676-0.617c0.08-0.07,0.162-0.14,0.244-0.211
		c0.275-0.235,0.555-0.468,0.843-0.692c0.287-0.225,0.58-0.439,0.876-0.649c0.088-0.062,0.176-0.124,0.264-0.186
		c0.252-0.174,0.506-0.344,0.763-0.507c0.15-0.096,0.303-0.188,0.454-0.28c0.149-0.091,0.3-0.18,0.45-0.267
		c0.185-0.107,0.368-0.211,0.555-0.312c0.02-0.011,0.041-0.021,0.062-0.032c3.27-1.761,6.888-2.741,10.559-2.9
		c0.009-0.001,0.018-0.001,0.025-0.002c0.68-0.026,1.358-0.027,2.038,0.001c0.185,0.008,0.37,0.018,0.556,0.029
		c0.136,0.009,0.271,0.018,0.406,0.028c0.33,0.026,0.66,0.059,0.989,0.099c0.021,0.002,0.04,0.006,0.061,0.008
		c0.348,0.043,0.694,0.095,1.041,0.153c0.044,0.008,0.088,0.016,0.133,0.022c0.745,0.129,1.484,0.293,2.22,0.492
		c0.008,0.002,0.016,0.005,0.023,0.007c0.738,0.201,1.472,0.438,2.196,0.711c0.023,0.01,0.048,0.019,0.073,0.028
		c0.146,0.056,0.292,0.109,0.438,0.168c0.192,0.077,0.383,0.16,0.573,0.242c0.018,0.008,0.036,0.015,0.054,0.022
		c0.329,0.145,0.655,0.296,0.978,0.454c0.076,0.037,0.151,0.076,0.228,0.113c0.237,0.119,0.472,0.243,0.705,0.37
		c0.098,0.053,0.196,0.105,0.293,0.16c0.268,0.149,0.53,0.305,0.791,0.465c0.138,0.084,0.273,0.172,0.409,0.259
		c0.145,0.093,0.289,0.188,0.432,0.283c0.147,0.1,0.295,0.198,0.441,0.3c0.225,0.158,0.446,0.32,0.664,0.485
		c0.151,0.114,0.3,0.231,0.448,0.35c0.121,0.096,0.241,0.192,0.359,0.291c0.159,0.131,0.316,0.262,0.473,0.396
		c0.201,0.175,0.399,0.353,0.595,0.533c0.114,0.105,0.227,0.214,0.339,0.322c0.169,0.162,0.335,0.327,0.499,0.495
		c0.077,0.079,0.156,0.155,0.232,0.236c0.236,0.246,0.465,0.5,0.69,0.757c0.064,0.074,0.13,0.149,0.194,0.225
		c0.238,0.278,0.472,0.56,0.698,0.849c0.553,0.709,1.576,0.835,2.285,0.281c0.708-0.554,0.834-1.576,0.281-2.285
		C75.824,360.074,58.397,357.929,46.369,367.32z"/>
	<path fill="#363532" d="M86.746,377.466c-0.825,0.351-1.214,1.308-0.861,2.135c0.093,0.218,0.177,0.438,0.262,0.656
		c0.014,0.032,0.027,0.065,0.04,0.098c0,0.002,0.001,0.004,0.002,0.006c0.079,0.206,0.153,0.412,0.228,0.619
		c0.002,0.007,0.004,0.013,0.007,0.018c0.018,0.054,0.037,0.106,0.056,0.16c0.001,0.004,0.003,0.009,0.004,0.013
		c0.075,0.217,0.147,0.435,0.216,0.652c0.002,0.005,0.003,0.009,0.005,0.014c0.004,0.014,0.008,0.028,0.013,0.042
		c0.004,0.013,0.007,0.026,0.011,0.039c0.144,0.461,0.269,0.927,0.384,1.393c0.013,0.053,0.027,0.104,0.04,0.157
		c0.107,0.453,0.201,0.908,0.283,1.365c0.02,0.108,0.039,0.22,0.057,0.326c-0.011-0.062-0.019-0.125-0.029-0.188
		c0.011,0.064,0.02,0.129,0.03,0.193c0-0.002-0.001-0.006-0.001-0.006c0.024,0.145,0.047,0.295,0.069,0.441
		c-0.001-0.004-0.002-0.013-0.003-0.019c0.008,0.056,0.019,0.104,0.025,0.158c0,0.002,0,0.004,0,0.006
		c-0.007-0.05-0.016-0.103-0.022-0.146c0.009,0.062,0.017,0.129,0.025,0.19c0.062,0.578-0.185,1.123-0.615,1.459
		c-0.217,0.17-0.482,0.287-0.776,0.328c-0.885,0.123-1.701-0.49-1.833-1.373c0-0.002-0.001-0.002-0.001-0.004
		c-0.001-0.005-0.002-0.011-0.003-0.013c-0.189-1.36-0.514-2.698-0.962-3.991c-0.002-0.004-0.003-0.008-0.005-0.012
		c-0.006-0.021-0.014-0.04-0.021-0.06c-0.001-0.005-0.004-0.01-0.005-0.016c-0.151-0.429-0.316-0.854-0.494-1.273
		c-0.361-0.807-1.302-1.181-2.119-0.834c-0.819,0.349-1.205,1.292-0.869,2.114c0.95,2.223,1.436,4.613,1.425,7.059
		c-0.001,0.064,0,0.133,0,0.193c-0.003,0.166-0.01,0.332-0.017,0.5c-0.005,0.104-0.01,0.211-0.016,0.312
		c-0.01,0.155-0.021,0.312-0.034,0.469c-0.01,0.109-0.021,0.221-0.032,0.328c-0.012,0.112-0.02,0.227-0.033,0.336
		c-0.002,0.02-0.008,0.029-0.01,0.045c-0.004,0.021-0.011,0.041-0.015,0.062c-0.077,0.4-0.289,0.742-0.59,0.979
		c-0.329,0.261-0.755,0.392-1.201,0.334c-0.893-0.108-1.526-0.924-1.417-1.812c0.316-2.562-0.04-5.106-1.012-7.43l-0.05-0.101
		c-0.356-0.815-1.304-1.194-2.125-0.846c-0.825,0.351-1.214,1.307-0.862,2.138c2.013,4.734,0.581,10.26-3.479,13.432
		c-4.062,3.171-9.767,3.22-13.875,0.117c-0.718-0.541-1.738-0.397-2.279,0.316c-0.538,0.715-0.4,1.725,0.304,2.27l0.234,0.183
		c1.983,1.442,4.312,2.367,6.812,2.677c0.893,0.108,1.526,0.922,1.417,1.812c-0.055,0.445-0.286,0.828-0.614,1.086
		c-0.301,0.232-0.686,0.355-1.091,0.334c-0.021,0-0.042,0.002-0.063-0.002c-0.016-0.001-0.03,0.002-0.046,0
		c-0.113-0.016-0.224-0.033-0.336-0.051c-0.108-0.019-0.218-0.029-0.325-0.049c-0.155-0.023-0.309-0.054-0.462-0.08
		c-0.104-0.021-0.208-0.041-0.311-0.062c-0.164-0.032-0.327-0.065-0.489-0.104c-0.062-0.017-0.124-0.03-0.187-0.047
		c-2.374-0.58-4.578-1.634-6.504-3.095c-0.717-0.524-1.726-0.383-2.261,0.33c-0.536,0.709-0.4,1.711,0.295,2.258
		c0.362,0.275,0.734,0.537,1.114,0.787c0.005,0.004,0.009,0.007,0.014,0.011c0.018,0.014,0.035,0.022,0.054,0.034
		c0.003,0.005,0.008,0.005,0.011,0.009c1.146,0.748,2.363,1.387,3.64,1.899c0.003,0.002,0.006,0.004,0.009,0.006
		c0.001,0,0.003,0,0.005,0.002c0.824,0.343,1.221,1.283,0.887,2.111c-0.11,0.272-0.288,0.504-0.506,0.674
		c-0.432,0.336-1.021,0.442-1.567,0.242c-0.053-0.021-0.106-0.041-0.158-0.063c-0.2-0.082-0.399-0.168-0.598-0.255
		c-0.096-0.043-0.191-0.084-0.286-0.127c-0.203-0.092-0.403-0.188-0.604-0.289c-0.085-0.04-0.171-0.079-0.255-0.122
		c-0.223-0.111-0.442-0.229-0.661-0.351c-0.061-0.031-0.122-0.062-0.182-0.099c-0.272-0.149-0.541-0.309-0.807-0.471
		c-0.018-0.01-0.035-0.02-0.052-0.027c-0.006-0.004-0.012-0.006-0.018-0.01c-0.206-0.129-0.411-0.258-0.614-0.393
		c-0.044-0.025-0.088-0.059-0.131-0.086c-0.006-0.002-0.011-0.008-0.016-0.012c-0.113-0.074-0.225-0.15-0.337-0.229
		c-0.073-0.051-0.148-0.099-0.222-0.147c-0.024-0.021-0.048-0.035-0.072-0.055c-0.195-0.14-0.392-0.273-0.585-0.423
		c-0.718-0.541-1.74-0.396-2.28,0.317c-0.541,0.718-0.398,1.736,0.318,2.279c9.979,7.531,23.835,7.416,33.697-0.285
		c9.862-7.696,13.337-21.11,8.448-32.62C88.53,377.5,87.574,377.114,86.746,377.466z M53.499,411.451
		c-0.08-0.035-0.161-0.07-0.241-0.107C53.338,411.381,53.419,411.416,53.499,411.451z M52.604,411.033
		c-0.068-0.033-0.139-0.066-0.209-0.104C52.465,410.967,52.536,411,52.604,411.033z M51.692,410.561
		c-0.047-0.022-0.096-0.051-0.143-0.076C51.596,410.51,51.645,410.534,51.692,410.561z M54.146,411.729
		c0.046,0.021,0.093,0.037,0.14,0.059c-0.013-0.004-0.026-0.01-0.038-0.014C54.214,411.758,54.18,411.741,54.146,411.729z"/>
	<path fill="#363532" d="M48.672,408.609c0.009,0.009,0.016,0.018,0.024,0.021c0.182,0.14,0.366,0.271,0.551,0.396
		C49.053,408.895,48.861,408.754,48.672,408.609z"/>
	<path fill="#363532" d="M85.868,379.57c0.091,0.214,0.178,0.431,0.263,0.647c-0.081-0.207-0.16-0.414-0.247-0.619
		C85.879,379.589,85.873,379.581,85.868,379.57z"/>
</g>
<g>
	<g>
		<g>
			<polygon fill="#459B45" points="306.175,487.959 305.039,476.778 174.833,490.016 175.97,501.196 192.484,663.62 
				322.688,650.385 			"/>
		</g>
	</g>
	<g>
		<g>
			
				<rect x="185.737" y="479.962" transform="matrix(0.9949 -0.1011 0.1011 0.9949 -56.0612 28.3022)" fill="#F5ECD9" width="130.9" height="174.532"/>
		</g>
	</g>
	<g>
		<g>
			
				<rect x="177.483" y="480.397" transform="matrix(0.9949 -0.1011 0.1011 0.9949 -47.8899 27.0497)" fill="#E74C3C" width="130.899" height="11.239"/>
		</g>
	</g>
	<g>
		<g>
			
				<rect x="190.271" y="505.453" transform="matrix(0.9949 -0.1011 0.1011 0.9949 -50.2233 22.6608)" fill="#EB9773" width="16.363" height="2.726"/>
		</g>
	</g>
	<g>
		<g>
			
				<rect x="189.757" y="500.286" transform="matrix(0.9949 -0.1011 0.1011 0.9949 -49.7163 22.3058)" fill="#E25A5A" width="10.905" height="2.727"/>
		</g>
	</g>
	<g opacity="0.5">
		<g>
			
				<rect x="196.838" y="514.922" transform="matrix(0.9949 -0.1011 0.1011 0.9949 -51.1102 24.203)" fill="#999999" width="32.722" height="2.726"/>
		</g>
	</g>
	<g opacity="0.5">
		<g>
			
				<rect x="201.791" y="563.467" transform="matrix(0.9949 -0.1011 0.1011 0.9949 -55.9625 25.2155)" fill="#999999" width="38.094" height="2.726"/>
		</g>
	</g>
	<g>
		<g>
			
				<rect x="234.752" y="511.05" transform="matrix(0.9949 -0.1011 0.1011 0.9949 -50.5201 28.0142)" fill="#999999" width="32.725" height="2.727"/>
		</g>
	</g>
	<g opacity="0.5">
		<g>
			
				<rect x="208.759" y="524.945" transform="matrix(0.9949 -0.1011 0.1011 0.9949 -52.0747 25.1809)" fill="#999999" width="27.227" height="2.725"/>
		</g>
	</g>
	<g>
		<g>
			
				<rect x="202.81" y="521.135" transform="matrix(0.9949 -0.1011 0.1011 0.9949 -51.755 23.7357)" fill="#EB9773" width="10.993" height="2.726"/>
		</g>
	</g>
	<g>
		<g>
			
				<rect x="219.022" y="518.949" transform="matrix(0.9949 -0.1011 0.1011 0.9949 -51.4267 25.9147)" fill="#999999" width="21.859" height="2.727"/>
		</g>
	</g>
	<g opacity="0.5">
		<g>
			
				<rect x="249.073" y="597.542" transform="matrix(0.9949 -0.1011 0.1011 0.9949 -59.2128 29.6296)" fill="#999999" width="27.187" height="2.724"/>
		</g>
	</g>
	<g opacity="0.5">
		<g>
			
				<rect x="224.535" y="572.931" transform="matrix(0.9949 -0.1011 0.1011 0.9949 -56.8562 26.7487)" fill="#999999" width="21.859" height="2.727"/>
		</g>
	</g>
	<g opacity="0.5">
		<g>
			
				<rect x="251.718" y="569.622" transform="matrix(0.9949 -0.1011 0.1011 0.9949 -56.3519 30.0289)" fill="#999999" width="32.746" height="2.727"/>
		</g>
	</g>
	<g opacity="0.5">
		<g>
			
				<rect x="211.047" y="601.096" transform="matrix(0.9949 -0.1012 0.1012 0.9949 -59.8036 26.1093)" fill="#999999" width="32.75" height="2.726"/>
		</g>
	</g>
	<g opacity="0.5">
		<g>
			
				<rect x="214.798" y="529.786" transform="matrix(0.9949 -0.1011 0.1011 0.9949 -52.5129 26.0864)" fill="#999999" width="32.64" height="2.727"/>
		</g>
	</g>
	<g>
		<g>
			
				<rect x="252.656" y="525.089" transform="matrix(0.9949 -0.1012 0.1012 0.9949 -51.8502 30.7532)" fill="#999999" width="49.092" height="2.729"/>
		</g>
	</g>
	<g>
		<g>
			
				<rect x="195.779" y="559.593" transform="matrix(0.9949 -0.1011 0.1011 0.9949 -55.667 23.4944)" fill="#E25A5A" width="16.363" height="2.725"/>
		</g>
	</g>
	<g opacity="0.5">
		<g>
			
				<rect x="217.437" y="556.285" transform="matrix(0.9949 -0.1011 0.1011 0.9949 -55.1616 26.7664)" fill="#999999" width="38.158" height="2.726"/>
		</g>
	</g>
	<g>
		<g>
			
				<rect x="207.739" y="569.451" transform="matrix(0.9949 -0.1011 0.1011 0.9949 -56.5837 24.7425)" fill="#999999" width="16.32" height="2.728"/>
		</g>
	</g>
	<g>
		<g>
			
				<rect x="213.762" y="574.859" transform="matrix(0.9949 -0.1012 0.1012 0.9949 -57.1905 24.8655)" fill="#E25A5A" width="5.54" height="2.727"/>
		</g>
	</g>
	<g>
		<g>
			
				<rect x="229.472" y="566.978" transform="matrix(0.9949 -0.1011 0.1011 0.9949 -56.232 27.2125)" fill="#EB9773" width="21.732" height="2.726"/>
		</g>
	</g>
	<g>
		<g>
			
				<rect x="237.241" y="643.027" transform="matrix(0.9949 -0.1011 0.1011 0.9949 -63.8827 28.3884)" fill="#999999" width="21.731" height="2.726"/>
		</g>
	</g>
	<g>
		<g>
			
				<rect x="232.154" y="591.885" transform="matrix(0.9949 -0.1011 0.1011 0.9949 -58.6127 29.8101)" fill="#999999" width="65.364" height="2.727"/>
		</g>
	</g>
	<g opacity="0.5">
		<g>
			
				<rect x="256.579" y="564.502" transform="matrix(0.9949 -0.1011 0.1011 0.9949 -55.8336 29.6531)" fill="#999999" width="16.32" height="2.727"/>
		</g>
	</g>
	<g opacity="0.5">
		<g>
			
				<rect x="241.296" y="522.596" transform="matrix(0.9949 -0.1012 0.1012 0.9949 -51.734 27.6467)" fill="#999999" width="10.909" height="2.728"/>
		</g>
	</g>
	<g>
		<g>
			
				<rect x="219.715" y="578.092" transform="matrix(0.9949 -0.1011 0.1011 0.9949 -57.3698 27.1155)" fill="#999999" width="38.138" height="2.726"/>
		</g>
	</g>
	<g opacity="0.5">
		<g>
			
				<rect x="212.632" y="616.538" transform="matrix(0.9949 -0.1011 0.1011 0.9949 -61.2453 27.4225)" fill="#999999" width="54.542" height="2.725"/>
		</g>
	</g>
	<g opacity="0.5">
		<g>
			
				<rect x="224.706" y="627.682" transform="matrix(0.9949 -0.1011 0.1011 0.9949 -62.3855 27.3201)" fill="#999999" width="27.187" height="2.727"/>
		</g>
	</g>
	<g opacity="0.5">
		<g>
			
				<rect x="257.28" y="624.914" transform="matrix(0.9949 -0.1011 0.1011 0.9949 -61.9781 30.0611)" fill="#999999" width="16.405" height="2.727"/>
		</g>
	</g>
	<g opacity="0.5">
		<g>
			
				<rect x="279.008" y="622.864" transform="matrix(0.9949 -0.1012 0.1012 0.9949 -61.7389 32.0039)" fill="#999999" width="10.822" height="2.727"/>
		</g>
	</g>
	<g opacity="0.5">
		<g>
			
				<rect x="194.145" y="543.4" transform="matrix(0.9949 -0.1011 0.1011 0.9949 -54.0325 23.5259)" fill="#999999" width="21.817" height="2.727"/>
		</g>
	</g>
	<g>
		<g>
			
				<rect x="200.198" y="548.008" transform="matrix(0.9949 -0.1011 0.1011 0.9949 -54.4739 24.1583)" fill="#999999" width="21.689" height="2.725"/>
		</g>
	</g>
	<g opacity="0.5">
		<g>
			
				<rect x="210.119" y="645.787" transform="matrix(0.9949 -0.1011 0.1011 0.9949 -64.3082 25.6616)" fill="#999999" width="21.69" height="2.725"/>
		</g>
	</g>
	<g>
		<g>
			
				<rect x="205.14" y="596.854" transform="matrix(0.9949 -0.1011 0.1011 0.9949 -59.3638 24.8967)" fill="#E25A5A" width="21.689" height="2.725"/>
		</g>
	</g>
	<g>
		<g>
			
				<rect x="257.676" y="520.238" transform="matrix(0.9949 -0.1011 0.1011 0.9949 -51.3626 29.8297)" fill="#E25A5A" width="21.818" height="2.726"/>
		</g>
	</g>
	<g>
		<g>
			
				<rect x="218.711" y="622.648" transform="matrix(0.9949 -0.1011 0.1011 0.9949 -61.8844 26.6789)" fill="#E25A5A" width="27.226" height="2.727"/>
		</g>
	</g>
	<g>
		<g>
			
				<rect x="251.343" y="620.226" transform="matrix(0.9949 -0.1008 0.1008 0.9949 -61.3628 29.0589)" fill="#999999" width="10.906" height="2.725"/>
		</g>
	</g>
	<g>
		<g>
			
				<rect x="267.526" y="616.853" transform="matrix(0.9949 -0.1011 0.1011 0.9949 -61.0135 32.4124)" fill="#EB9773" width="43.549" height="2.727"/>
		</g>
	</g>
	<g>
		<g>
			
				<rect x="199.068" y="592.43" transform="matrix(0.9949 -0.1012 0.1012 0.9949 -59.0197 23.7359)" fill="#EB9773" width="10.908" height="2.727"/>
		</g>
	</g>
	<g>
		<g>
			
				<rect x="204.051" y="640.439" transform="matrix(0.9949 -0.1011 0.1011 0.9949 -63.7627 25.5793)" fill="#E25A5A" width="32.81" height="2.727"/>
		</g>
	</g>
	<g opacity="0.5">
		<g>
			
				<rect x="217.007" y="605.574" transform="matrix(0.9949 -0.1012 0.1012 0.9949 -60.1902 27.2843)" fill="#999999" width="43.679" height="2.727"/>
		</g>
	</g>
</g>
<g id="lalineag">
	<rect x="591.167" y="625.833" fill="#44C650" width="66.333" height="66.667"/>
</g>
<path id="wire3" opacity="0.6" fill="none" stroke="#EFEFEF" stroke-miterlimit="10" enable-background="new    " d="M90.111-0.832
	c0,0-7.058,76.718,76.717,76.718s166.271,0,166.271,0h260.987h218.988c0,0,60.106,0.001,60.106,60.107S846.074,205.1,804.076,205.1
	S512,205.1,512,205.1s-129.948-17.59-129.948,129.948s0,288.028,0,288.028s-7.999,57.27,64.271,57.27c34.092,0,100.596,0,161.345,0
	l10.29,0.006c2.886,0,5.77,0.061,8.655,0.136c0.714,0.019,0.993-0.208,0.986-0.931c-0.028-4.115,0.162-8.248-0.105-12.348
	c-0.247-3.77-0.941-7.525-2.252-11.099c-1.187-3.231-2.947-6.175-4.938-9.115c-1.073,0.802-2.09,1.535-3.079,2.306
	c-1.275,0.993-2.541,2.004-3.794,3.027c-1.562,1.273-2.147,2.982-2.083,4.941c0.021,0.579,0.171,1.154,0.229,1.734
	c0.075,0.735-0.227,1.325-0.949,1.485c-0.736,0.162-1.391-0.131-1.574-0.936c-0.139-0.61-0.127-1.258-0.205-2.169
	c-0.208,0.686-0.349,1.107-0.463,1.537c-0.269,1.014-0.864,1.551-1.569,1.339c-0.936-0.278-1.173-0.934-0.84-1.799
	c-0.49,0.284-0.942,0.731-1.446,0.802c-1.282,0.178-1.831-0.674-1.216-1.812c0.614-1.136,1.307-2.231,1.959-3.347
	c0.11-0.188,0.201-0.387,0.287-0.555c-0.516-0.43-1.125-0.736-1.401-1.229c-0.27-0.473-0.332-1.173-0.197-1.702
	c0.055-0.218,0.853-0.29,1.322-0.352c0.667-0.087,1.343-0.107,2.017-0.144c0.47-0.024,0.948,0.019,1.409-0.054
	c0.358-0.059,0.774-0.162,1.032-0.393c2.503-2.253,4.998-4.517,7.438-6.837c0.284-0.271,0.379-0.938,0.289-1.363
	c-0.243-1.17-0.613-2.314-0.97-3.459c-0.216-0.695,0.038-1.026,0.663-1.37c1.73-0.952,3.406-2.007,5.104-3.02
	c-0.051-0.08-0.1-0.159-0.147-0.239c-1.039,0.193-2.073,0.471-3.121,0.549c-0.636,0.049-1.4-0.038-1.92-0.364
	c-0.972-0.607-0.911-1.261-0.014-1.988c0.146-0.121,0.286-0.252,0.363-0.32c-0.963-0.562-2.038-0.986-2.853-1.708
	c-1.567-1.385-1.309-3.319,0.52-4.389c1.611-0.939,3.418-1.296,5.246-1.073c3.428,0.417,6.479,1.796,9.059,4.104
	c2.097,1.876,3.528,4.999,1.562,8.391c4.818,1.979,9.615,3.947,14.409,5.917c-0.022-0.11-0.045-0.223-0.066-0.333
	c0.62-0.274,1.284-0.48,1.851-0.843c0.77-0.491,1.515-1.048,2.175-1.678c0.406-0.389,0.679-0.968,1.331-0.568
	c0.651,0.4,1.211,0.915,0.959,1.817c-0.061,0.218-0.14,0.432-0.214,0.646c-0.501,1.458-0.442,1.621,0.874,2.519
	c1.231,0.838,2.496,1.637,3.668,2.553c0.36,0.283,0.69,0.915,0.647,1.347c-0.096,0.952-0.845,1.208-1.725,0.732
	c-0.241-0.13-0.483-0.261-0.857-0.461c0.344,0.978,1.396,1.907,0.19,2.661c-0.981,0.61-1.734-0.224-2.517-0.861
	c0.094,0.243,0.137,0.523,0.287,0.722c0.487,0.636,0.284,1.214-0.228,1.625c-0.611,0.491-1.357,0.403-1.828-0.202
	c-0.53-0.681-1.024-1.442-1.307-2.249c-0.537-1.542-1.448-2.448-3.099-2.828c-2.707-0.622-5.367-1.445-8.248-2.24
	c0.308,0.525,0.5,0.902,0.736,1.253c2.065,3.056,2.936,6.531,3.477,10.102c0.639,4.225-0.021,8.389-0.654,12.564
	c-0.438,2.876-0.696,5.785-0.874,8.688c-0.163,2.657-0.067,2.665,2.628,2.671l15.59,0.199l3.164-0.009
	c42.923,0,75.169,0.009,75.169,0.009s61.949,4.823,61.949-51.177c0-55.795,0-162.285,0-163.433c0-15.813-5.28-32.703-9.83-47.812
	c-3.292-10.936-6.779-22.732-3.467-34.107c5.165-17.74,24.095-26.234,40.629-30.116c28.926-6.792,61.578-3.365,89.015,7.684
	c18.313,7.375,48.574,25.562,39.038,49.865c-10.331,26.327-51.621,30.209-75.226,29.442c-26.705-0.865-68.17-8.483-82.002-35.096
	c-13.381-25.741,19.146-41.848,39.148-46.932c31.203-7.93,70.625-6.425,98.964,10.196c22.052,12.933,26.088,34.987,5.134,51.381
	c-24.848,19.438-63.131,23.733-93.296,18.285c-23.029-4.158-54.48-18.821-50.92-47.17c3.484-27.736,35.848-41.749,60.459-42.558
	c160.405-4.848,98.403,92.7,99.736,160.618c2.337,44.505,1.884,83.611-8.983,126.969c-10.855,43.306-31.548,74.358-33.691,120.287
	c-0.26,5.572-0.444,5.535-0.158,11.015"/>
<g id="skill01">
	<g>
		<circle fill="#FFFFFF" cx="392.728" cy="75.225" r="15.104"/>
		<text transform="matrix(1 0 0 1 375.6284 54)" fill="#FFFFFF" font-weight="400" font-size="18.0063">PHP</text>
	</g>
</g>
<g id="skill02">
	<g>
		<text transform="matrix(1 0 0 1 508.1523 54)" fill="#FFFFFF" font-weight="400" font-size="18.0063">HTML5</text>
		<circle fill="#FFFFFF" cx="540.15" cy="75.986" r="15"/>
	</g>
</g>
<g id="skill03">
	<g>
		<text transform="matrix(1 0 0 1 646.582 54)" fill="#FFFFFF" font-weight="400" font-size="18.0063">jQuery / JavaScript libraries</text>
		<circle fill="#FFFFFF" cx="750.15" cy="75.986" r="17.385"/>
	</g>
</g>
<g id="skill12">
	<g>
		<text transform="matrix(1 0 0 1 398.4229 416.793)" fill="#FFFFFF" font-weight="400" font-size="18.0063">ActionScript</text>
		<circle fill="#FFFFFF" cx="382.009" cy="409.73" r="10.213"/>
	</g>
</g>
<g id="skill11">
	<g>
		<text transform="matrix(1 0 0 1 189.3105 375.7314)" fill="#FFFFFF" font-weight="400" font-size="18.0063">RESTful web services</text>
		<circle fill="#FFFFFF" cx="382.009" cy="369.73" r="10.213"/>
	</g>
</g>
<g id="skill18">
	<g>
		<text transform="matrix(1 0 0 1 400.4229 612.8066)" fill="#FFFFFF" font-weight="400" font-size="18.0063">Drupal/Joomla/Smarty</text>
		<circle fill="#FFFFFF" cx="382.009" cy="606.962" r="8"/>
	</g>
</g>
<g id="skill13">
	<g>
		<circle fill="#FFFFFF" cx="382.422" cy="441.73" r="7.746"/>
		<text transform="matrix(1 0 0 1 397.4229 446.7305)" fill="#FFFFFF" font-weight="400" font-size="18.0063">Code Igniter</text>
	</g>
</g>
<g id="skill10">
	<g>
		<text transform="matrix(1 0 0 1 408.4229 333.7314)" fill="#FFFFFF" font-weight="400" font-size="18.0063">Twitter/Facebook API</text>
		<circle fill="#FFFFFF" cx="382.422" cy="326.731" r="14.449"/>
	</g>
</g>
<g id="skill08">
	<g>
		<text transform="matrix(1 0 0 1 385.4233 190.5781)" fill="#FFFFFF" font-weight="400" font-size="18.0063">MVC frameworks</text>
		<circle fill="#FFFFFF" cx="448.089" cy="216.5" r="11"/>
	</g>
</g>
<g id="skill09">
	<g>
		<text transform="matrix(1 0 0 1 277.0898 275.9111)" fill="#FFFFFF" font-weight="400" font-size="18.0063">LESS/SASS</text>
		<circle fill="#FFFFFF" cx="392.728" cy="269.167" r="11"/>
	</g>
</g>
<g id="skill06">
	<g>
		<text transform="matrix(1 0 0 1 684.0898 186.5781)" fill="#FFFFFF" font-weight="400" font-size="18.0063">MySQL/SQLite</text>
		<circle fill="#FFFFFF" cx="738.15" cy="204.911" r="11"/>
	</g>
</g>
<g id="skill14">
	<g>
		<text transform="matrix(1 0 0 1 400.4229 476.7305)" fill="#FFFFFF" font-weight="400" font-size="18.0063">Magento / OpenCart</text>
		<circle fill="#FFFFFF" cx="382.009" cy="471.626" r="8"/>
	</g>
</g>
<g id="skill15">
	<g>
		<text transform="matrix(1 0 0 1 401.4219 509.416)" fill="#FFFFFF" font-weight="400" font-size="18.0063">Version Control</text>
		<circle fill="#FFFFFF" cx="382.628" cy="502.73" r="8"/>
	</g>
</g>
<g id="skill16">
	<g>
		<text transform="matrix(1 0 0 1 400.7275 543.416)" fill="#FFFFFF" font-weight="400" font-size="18.0063">Ext JS</text>
		<circle fill="#FFFFFF" cx="381.628" cy="537.73" r="8"/>
	</g>
</g>
<g id="skill17">
	<g>
		<text transform="matrix(1 0 0 1 401.4219 576.6543)" fill="#FFFFFF" font-weight="400" font-size="18.0063">Docebo/Moodle</text>
		<circle fill="#FFFFFF" cx="382.009" cy="570.839" r="8"/>
	</g>
</g>
<g id="skill22">
	<g>
		<text transform="matrix(1 0 0 1 684.0898 469.8018)" fill="#FFFFFF" font-weight="400" font-size="18.0063">Unit testing</text>
		<circle fill="#44C650" stroke="#FFFFFF" stroke-miterlimit="10" cx="798.449" cy="465.731" r="8"/>
	</g>
</g>
<g id="skill23">
	<g>
		<text transform="matrix(1 0 0 1 846.8359 470.7314)" fill="#FFFFFF" font-weight="400" font-size="18.0063">Ruby / Rails</text>
		<circle fill="#44C650" stroke="#FFFFFF" stroke-miterlimit="10" cx="959.529" cy="465.731" r="8"/>
	</g>
</g>
<g id="skill21">
	<g>
		<text transform="matrix(1 0 0 1 724.0898 512.8018)" fill="#FFFFFF" font-weight="400" font-size="18.0063">NoSQL</text>
		<circle fill="#44C650" stroke="#FFFFFF" stroke-miterlimit="10" cx="798.449" cy="505.731" r="8"/>
	</g>
</g>
<g id="skill24">
	<g>
		<text transform="matrix(1 0 0 1 842.4463 512.0635)" fill="#FFFFFF" font-weight="400" font-size="18.0063">CoffeeScript</text>
		<circle fill="#44C650" stroke="#FFFFFF" stroke-miterlimit="10" cx="956.473" cy="506.802" r="8"/>
	</g>
</g>
<g id="skill20">
	<g>
		<text transform="matrix(1 0 0 1 719.0898 552.8018)" fill="#FFFFFF" font-weight="400" font-size="18.0063">Node.js</text>
		<circle fill="#44C650" stroke="#FFFFFF" stroke-miterlimit="10" cx="798.449" cy="545.731" r="8"/>
	</g>
</g>
<g id="skill25">
	<g>
		<text transform="matrix(1 0 0 1 903.1826 556.0645)" fill="#FFFFFF" font-weight="400" font-size="18.0063">D3.js</text>
		<circle fill="#44C650" stroke="#FFFFFF" stroke-miterlimit="10" cx="958.059" cy="551.731" r="8"/>
	</g>
</g>
<g id="skill26">
	<g>
		<text transform="matrix(1 0 0 1 857.7568 602.4688)" fill="#FFFFFF" font-weight="400" font-size="18.0063">AngularJS</text>
		<circle fill="#44C650" stroke="#FFFFFF" stroke-miterlimit="10" cx="956.473" cy="596.63" r="8"/>
	</g>
</g>
<g id="skill19">
	<g>
		<text transform="matrix(1 0 0 1 630.0898 593.6299)" fill="#FFFFFF" font-weight="400" font-size="18.0063">Agile methodology</text>
		<circle fill="#44C650" stroke="#FFFFFF" stroke-miterlimit="10" cx="798.449" cy="588.63" r="8"/>
	</g>
</g>
<g id="skill04">
	<g>
		<circle fill="#FFFFFF" cx="873.183" cy="129.971" r="12"/>
		<text transform="matrix(1 0 0 1 890.1826 135.6523)" fill="#FFFFFF" font-weight="400" font-size="18.0063">CSS3</text>
	</g>
</g>
<g id="skill05">
	<g>
		<text transform="matrix(1 0 0 1 869.4229 199.5)" fill="#FFFFFF" font-weight="400" font-size="18.0063">Wordpress</text>
		<circle fill="#FFFFFF" cx="847.27" cy="194.807" r="16.589"/>
		<text transform="matrix(1 0 0 1 868.1826 216.0957)" fill="#FFFFFF" font-weight="400" font-size="18.0063">(super advanced!)</text>
	</g>
</g>
<g id="skill07">
	<g>
		<text transform="matrix(1 0 0 1 496.0938 238.0898)" fill="#FFFFFF" font-weight="400" font-size="18.0063">Appcelerator Titanium </text>
		<circle fill="#FFFFFF" cx="580.346" cy="204.911" r="11.589"/>
		<text transform="matrix(1 0 0 1 507.0088 255.166)" fill="#FFFFFF" font-weight="400" font-size="18.0063">(certified developer)</text>
	</g>
</g>
<g id="interested">
	<text transform="matrix(1 0 0 1 826.7822 387.2324)" fill="#FFFFFF" font-weight="400" font-size="18.0063">Very </text>
	<text transform="matrix(1 0 0 1 826.7822 408.8398)" fill="#FFFFFF" font-weight="400" font-size="18.0063">interested in</text>
</g>
</svg>
