<?xml version="1.0" encoding="utf-8"?>
<!-- Generator: Adobe Illustrator 19.0.0, SVG Export Plug-In . SVG Version: 6.00 Build 0)  -->
<svg version="1.1" id="svg6" xmlns="http://www.w3.org/2000/svg" xmlns:xlink="http://www.w3.org/1999/xlink" x="0px" y="0px"
	 viewBox="496 -368 1024 768" enable-background="new 496 -368 1024 768" xml:space="preserve">
<rect id="bg" x="-7122.6" y="-7472" fill="#2BACB5" stroke="#000000" stroke-miterlimit="10" width="15687.9" height="14889"/>
<g id="contacts">
	<rect x="-2235.6" y="-31.5" fill="#E84D5B" width="6910.6" height="445.5"/>
	<text transform="matrix(1 0 0 1 557.5032 28.7207)" fill="#F5ECD9" font-weight="100" font-size="36px">To stay connected:</text>
	<g id="rightside">
		<g>
			<text transform="matrix(1 0 0 1 908.0002 376.8154)" fill="#F5ECD9" font-weight="100" font-size="18px">copyright 2017 Albino Tonnina</text>
		</g>
		<text transform="matrix(1 0 0 1 1191.2572 28.7207)" fill="#F5ECD9" font-weight="100" font-size="36px">This website:</text>
		<g id="githubsite">
			<path fill="#F5ECD9" d="M1197.2,156.7c-0.1,0.1-0.2,0.1-0.3-0.1c-0.1-0.1-0.2-0.2-0.1-0.3c0.1-0.1,0.2-0.1,0.3,0.1
				C1197.3,156.5,1197.4,156.6,1197.2,156.7z M1196.6,155.8c0.1,0.1,0.1,0.3,0,0.3c-0.1,0.1-0.2,0-0.3-0.1s-0.1-0.3,0-0.3
				C1196.4,155.6,1196.5,155.6,1196.6,155.8z M1195.6,154.7c-0.1,0.1-0.1,0.1-0.2,0c-0.1-0.1-0.1-0.1-0.1-0.2c0-0.1,0.1-0.1,0.2,0
				C1195.6,154.6,1195.7,154.7,1195.6,154.7z M1196.1,155.3c-0.1,0.1-0.1,0.1-0.3-0.1c-0.1-0.1-0.1-0.2,0-0.3
				c0.1-0.1,0.1-0.1,0.3,0.1C1196.2,155.2,1196.2,155.3,1196.1,155.3z M1198.2,157.1c-0.1,0.1-0.1,0.2-0.3,0.1
				c-0.2-0.1-0.3-0.1-0.2-0.3c0.1-0.1,0.1-0.1,0.3-0.1C1198.1,156.9,1198.2,156.9,1198.2,157.1z M1199.2,157.2
				c0,0.1-0.1,0.2-0.3,0.2s-0.3-0.1-0.3-0.2c0-0.1,0.1-0.2,0.3-0.2C1199.1,157,1199.2,157,1199.2,157.2z M1200.1,157
				c0,0.1-0.1,0.2-0.3,0.3c-0.2,0.1-0.3,0-0.3-0.1c0-0.1,0.1-0.2,0.3-0.3S1200.1,156.9,1200.1,157z M1215.5,141.8V157
				c0,1.3-0.4,2.3-1.3,3.2s-1.9,1.3-3.2,1.3h-3.6c-0.2,0-0.3,0-0.4,0c-0.1,0-0.2-0.1-0.3-0.1c-0.1-0.1-0.2-0.1-0.3-0.3
				c-0.1-0.1-0.1-0.3-0.1-0.4V157c0-1-0.3-1.8-0.8-2.3c0.6-0.1,1.1-0.2,1.6-0.3c0.5-0.1,1-0.3,1.5-0.6c0.5-0.3,0.9-0.6,1.3-1.1
				s0.6-1,0.8-1.7s0.3-1.5,0.3-2.4c0-1.3-0.4-2.4-1.3-3.3c0.4-0.9,0.4-2.1-0.1-3.3c-0.3-0.1-0.8-0.1-1.3,0.2
				c-0.6,0.2-1.1,0.4-1.4,0.7l-0.6,0.4c-1-0.3-2-0.4-3-0.4c-1.1,0-2.1,0.1-3,0.4c-0.2-0.1-0.4-0.3-0.7-0.4c-0.3-0.2-0.7-0.4-1.3-0.6
				c-0.6-0.3-1.1-0.3-1.4-0.2c-0.4,1.2-0.5,2.3-0.1,3.3c-0.8,0.9-1.3,2-1.3,3.3c0,0.9,0.1,1.7,0.3,2.4c0.2,0.7,0.5,1.3,0.8,1.7
				c0.3,0.4,0.8,0.8,1.3,1.1c0.5,0.3,1,0.5,1.5,0.6c0.5,0.1,1,0.3,1.6,0.3c-0.4,0.4-0.7,0.9-0.8,1.6c-0.3,0.1-0.4,0.2-0.7,0.3
				c-0.3,0.1-0.6,0.1-0.9,0.1c-0.4,0-0.7-0.1-1.1-0.4c-0.4-0.3-0.6-0.6-0.9-1c-0.2-0.3-0.4-0.6-0.8-0.8c-0.3-0.2-0.6-0.3-0.8-0.4
				l-0.3-0.1c-0.3,0-0.4,0-0.4,0.1c-0.1,0.1-0.1,0.1-0.1,0.2c0,0.1,0.1,0.1,0.1,0.3c0.1,0.1,0.1,0.1,0.2,0.2l0.1,0.1
				c0.3,0.1,0.4,0.3,0.7,0.6c0.3,0.3,0.4,0.6,0.5,0.8l0.2,0.4c0.1,0.4,0.4,0.8,0.7,1c0.3,0.3,0.7,0.4,1.1,0.5
				c0.4,0.1,0.8,0.1,1.1,0.1c0.4,0,0.6,0,0.9-0.1l0.4-0.1c0,0.4,0,0.9,0,1.6s0,1.1,0,1.1c0,0.3-0.1,0.4-0.2,0.5
				c-0.1,0.1-0.3,0.2-0.4,0.2c-0.1,0-0.3,0-0.5,0h-3.6c-1.3,0-2.3-0.4-3.2-1.3s-1.3-1.9-1.3-3.2v-15.2c0-1.3,0.4-2.3,1.3-3.2
				s1.9-1.3,3.2-1.3h15.2c1.3,0,2.3,0.4,3.2,1.3C1215,139.5,1215.5,140.5,1215.5,141.8L1215.5,141.8z"/>
			<g>
				<text transform="matrix(1 0 0 1 1226.0696 156.4843)" fill="#F5ECD9" font-weight="100" font-size="18px">has a public repository on GitHub.</text>
			</g>
		</g>
		<g>
			<g>
				<path fill="#F5ECD9" d="M1333.3,60.9c0-0.3-0.2-0.5-0.4-0.7l-6.7-3.9c-0.1-0.1-0.2-0.1-0.4-0.1h-0.1c-0.2,0-0.2,0.1-0.4,0.1
					l-6.7,3.9c-0.2,0.2-0.4,0.4-0.4,0.7v10.5c0,0.2,0.1,0.3,0.2,0.4c0.2,0.1,0.3,0.1,0.4,0l4-2.3c0.2-0.2,0.4-0.4,0.4-0.7v-4.9
					c0-0.3,0.2-0.5,0.4-0.7l1.7-1c0.2-0.1,0.2-0.1,0.4-0.1c0.2,0,0.3,0,0.4,0.1l1.7,1c0.2,0.2,0.4,0.4,0.4,0.7v4.9
					c0,0.3,0.2,0.5,0.4,0.7l4,2.3c0.2,0.1,0.3,0.1,0.4,0c0.2-0.1,0.2-0.2,0.2-0.4L1333.3,60.9z"/>
				<path fill="#F5ECD9" d="M1369.4,46.4c-0.2-0.1-0.3-0.1-0.4,0c-0.2,0.1-0.2,0.2-0.2,0.4v10.4c0,0.1-0.1,0.2-0.2,0.2
					c-0.1,0.1-0.2,0.1-0.3,0l-1.7-1c-0.2-0.2-0.5-0.2-0.8,0l-6.7,3.9c-0.2,0.2-0.4,0.4-0.4,0.7v7.8c0,0.3,0.2,0.5,0.4,0.7l6.7,3.9
					c0.2,0.2,0.5,0.2,0.8,0l6.7-3.9c0.2-0.2,0.4-0.4,0.4-0.7V49.4c0-0.3-0.2-0.5-0.4-0.7L1369.4,46.4z M1368.7,66.3
					c0,0.1-0.1,0.2-0.1,0.2l-2.3,1.3c-0.1,0-0.2,0-0.2,0l-2.3-1.3c-0.1,0-0.1-0.1-0.1-0.2v-2.7c0-0.1,0.1-0.2,0.1-0.2l2.3-1.3
					c0.1-0.1,0.2-0.1,0.2,0l2.3,1.3c0.1,0.1,0.1,0.1,0.1,0.2V66.3z"/>
				<path fill="#F5ECD9" d="M1393.6,63.5c0.2-0.2,0.4-0.4,0.4-0.7v-1.9c0-0.3-0.2-0.5-0.4-0.7l-6.7-3.9c-0.2-0.2-0.5-0.2-0.8,0
					l-6.7,3.9c-0.2,0.2-0.4,0.4-0.4,0.7v7.8c0,0.3,0.2,0.5,0.4,0.7l6.7,3.8c0.2,0.2,0.5,0.2,0.8,0l4.1-2.2c0.2-0.1,0.2-0.2,0.2-0.4
					c0-0.2-0.1-0.3-0.2-0.4l-6.8-3.9c-0.2-0.1-0.2-0.2-0.2-0.4v-2.5c0-0.2,0.1-0.3,0.2-0.4l2.1-1.2c0.2-0.1,0.3-0.1,0.4,0l2.1,1.2
					c0.2,0.1,0.2,0.2,0.2,0.4v1.9c0,0.2,0.1,0.3,0.2,0.4c0.2,0.1,0.3,0.1,0.4,0L1393.6,63.5z"/>
				<path fill="#F5ECD9" d="M1345.6,56.3c0.2-0.2,0.5-0.2,0.8,0l6.7,3.9c0.2,0.2,0.4,0.4,0.4,0.7v7.8c0,0.3-0.2,0.5-0.4,0.7
					l-6.7,3.9c-0.2,0.2-0.5,0.2-0.8,0l-6.7-3.9c-0.2-0.2-0.4-0.4-0.4-0.7v-7.8c0-0.3,0.2-0.5,0.4-0.7L1345.6,56.3z"/>
				<path fill="#F5ECD9" d="M1406.8,73.4c-0.2,0-0.5-0.1-0.7-0.2l-2.1-1.2c-0.3-0.2-0.2-0.2-0.1-0.3c0.5-0.2,0.5-0.2,1-0.5
					c0.1,0,0.1,0,0.2,0l1.6,1c0.1,0,0.2,0,0.2,0l6.4-3.7c0.1,0,0.1-0.1,0.1-0.2v-7.4c0-0.1,0-0.2-0.1-0.2l-6.4-3.7
					c-0.1,0-0.2,0-0.2,0l-6.4,3.7c-0.1,0-0.1,0.1-0.1,0.2v7.4c0,0.1,0.1,0.2,0.1,0.2l1.8,1c0.9,0.5,1.5-0.1,1.5-0.6v-7.3
					c0-0.1,0.1-0.2,0.2-0.2h0.8c0.1,0,0.2,0.1,0.2,0.2V69c0,1.2-0.7,2-1.9,2c-0.4,0-0.7,0-1.5-0.4l-1.7-1c-0.4-0.2-0.7-0.7-0.7-1.2
					v-7.4c0-0.5,0.2-0.9,0.7-1.2l6.4-3.7c0.4-0.2,0.9-0.2,1.3,0l6.4,3.7c0.4,0.2,0.7,0.7,0.7,1.2v7.4c0,0.5-0.2,0.9-0.7,1.2
					l-6.4,3.7C1407.2,73.4,1407,73.4,1406.8,73.4z"/>
				<path fill="#F5ECD9" d="M1408.7,68.4c-2.8,0-3.4-1.3-3.4-2.4c0-0.1,0.1-0.2,0.2-0.2h0.8c0.1,0,0.2,0.1,0.2,0.2
					c0.2,0.8,0.5,1.2,2.1,1.2c1.4,0,1.9-0.3,1.9-1c0-0.4-0.2-0.7-2.2-0.9c-1.8-0.2-2.8-0.5-2.8-1.9c0-1.3,1.1-2.1,2.9-2.1
					c2.1,0,3.1,0.7,3.2,2.2c0,0.1,0,0.1-0.1,0.2c0,0-0.1,0.1-0.2,0.1h-0.8c-0.1,0-0.2-0.1-0.2-0.2c-0.2-0.8-0.7-1.2-2-1.2
					c-1.5,0-1.6,0.5-1.6,0.9c0,0.5,0.2,0.6,2.1,0.8c2,0.2,2.9,0.6,2.9,2C1411.9,67.6,1410.8,68.4,1408.7,68.4z"/>
				<g>
					<path fill="#F5ECD9" d="M1417.5,56.3v0.2h-0.5v1.4h-0.2v-1.4h-0.5v-0.2H1417.5z"/>
					<path fill="#F5ECD9" d="M1417.7,56.3h0.3l0.5,1.4l0.5-1.4h0.3v1.6h-0.2v-0.9c0,0,0-0.1,0-0.2c0-0.1,0-0.2,0-0.2l-0.5,1.3h-0.2
						l-0.5-1.3v0.1c0,0.1,0,0.1,0,0.2s0,0.2,0,0.2v0.9h-0.2L1417.7,56.3L1417.7,56.3L1417.7,56.3z"/>
				</g>
				<path fill="#F5ECD9" d="M1386.4,63.2c0.1,0,0.1,0,0.2,0l1.3,0.8c0.1,0,0.1,0.1,0.1,0.2v1.5c0,0.1,0,0.1-0.1,0.2l-1.3,0.8
					c-0.1,0-0.1,0-0.2,0l-1.3-0.8c-0.1,0-0.1-0.1-0.1-0.2v-1.5c0-0.1,0-0.1,0.1-0.2L1386.4,63.2z"/>
			</g>
			<text transform="matrix(1 0 0 1 1191.2567 71.0078)" fill="#F5ECD9" font-weight="100" font-size="18px">is powered by:</text>
		</g>
		<g>
			<g>
				<path fill="#F5ECD9" d="M1339.7,114.4v-9.3c0-0.6-0.5-0.9-1-0.9c-1.1,0-2.5,0.3-3.8,0.9v9.3h-2.6V97.2h2.6v5.7
					c1.3-0.5,2.7-0.9,4.2-0.9c2.4,0,3.2,1.4,3.2,3.5v8.9L1339.7,114.4L1339.7,114.4z M1347.1,108.8c0.1,3.1,0.7,3.7,2.6,3.7
					c1.5,0,3.2-0.5,4.5-1l0.4,2c-1.4,0.6-3.1,1.3-5.1,1.3c-4.4,0-5.1-2.4-5.1-6.2c0-2.1,0.2-4,0.6-5.7c1.3-0.5,3.1-0.8,5.2-0.8
					c3.6,0,4.7,2,4.7,5.5v1.3L1347.1,108.8L1347.1,108.8z M1350.5,104.2c-0.8,0-2.1,0-3,0.2c-0.1,0.6-0.2,1.3-0.3,2.5h5.5
					C1352.5,105.2,1352.2,104.2,1350.5,104.2L1350.5,104.2z M1360,105.1v9.3h-2.6v-10.5c2.2-1.2,4.5-1.6,6-1.7v2.1
					C1362.3,104.5,1361,104.6,1360,105.1L1360,105.1z M1370.3,114.7c-3.9,0-5.6-1.9-5.6-6.3c0-4.7,2.3-6.4,5.6-6.4
					c3.9,0,5.6,1.9,5.6,6.3C1376,113,1373.7,114.7,1370.3,114.7L1370.3,114.7z M1370.3,104.2c-2,0-3.1,1.2-3.1,4.2
					c0,3.3,0.9,4.1,3.1,4.1c2,0,3.1-1.1,3.1-4.2C1373.4,105,1372.5,104.2,1370.3,104.2L1370.3,104.2z M1388.6,114.4h-3.1
					c-0.7-1.9-1.7-3.9-3.2-5.5h-1.3v5.5h-2.6V97.2h2.6v9.9h1.2c1.3-1.3,2.4-3.1,3.1-4.7h2.9c-1,2.1-2.3,3.8-3.7,5.2
					C1386.1,109.8,1387.4,112.1,1388.6,114.4L1388.6,114.4z M1393.4,114.7c-2.4,0-3.2-1.4-3.2-3.5v-8.9h2.6v9.3c0,0.6,0.5,0.9,1,0.9
					c1.1,0,2.7-0.3,4-0.9v-9.3h2.6v10.4C1397.3,114.5,1394.9,114.7,1393.4,114.7L1393.4,114.7z"/>
				<path fill="#F5ECD9" d="M1323.6,120.8h-18.2c-1.6,0-2.8-1.3-2.8-2.8V94c0-1.6,1.3-2.8,2.8-2.8h18.2c1.6,0,2.8,1.3,2.8,2.8V118
					C1326.5,119.5,1325.2,120.8,1323.6,120.8L1323.6,120.8z M1325.5,94.2c0-1.1-0.9-2-2-2h-17.9c-1.1,0-2,0.9-2,2v23.6
					c0,1.1,0.9,2,2,2h17.9c1.1,0,2-0.9,2-2V94.2L1325.5,94.2z"/>
				<path fill="#F5ECD9" d="M1317.6,116.7V105c0,0,0.8-2.8-9.4,1.2c0,0.1,0-10.8,0-10.8h3.3v7c0,0,9.3-3.6,9.3,2.8s0,11.7,0,11.7
					L1317.6,116.7L1317.6,116.7z M1319.5,99.5h-3.5c1.3-1.6,2.4-4.2,2.4-4.2h3.6C1322.1,95.3,1321.4,97.1,1319.5,99.5L1319.5,99.5z
					 M1308.3,116.7V110l3.3,3.3L1308.3,116.7L1308.3,116.7z"/>
			</g>
			<text transform="matrix(1 0 0 1 1191.2566 113.5195)" fill="#F5ECD9" font-weight="100" font-size="18px">is hosted on:</text>
		</g>
	</g>
	<g id="medium">
		<text transform="matrix(1 0 0 1 593.2291 182.7532)" fill="#F5ECD9" font-weight="100" font-size="18px">Medium</text>
		<g>
			<path fill="#F5ECD9" d="M582.9,169.7C582.9,169.7,582.9,169.7,582.9,169.7L582.9,169.7l-7-3.5c0,0-0.1,0-0.1-0.1
				c-0.1,0-0.1,0-0.2,0c-0.3,0-0.5,0.1-0.7,0.4l-4,6.5l5,8.1l7-11.3C582.9,169.8,582.9,169.8,582.9,169.7z"/>
			<polygon fill="#F5ECD9" points="568.7,171.6 568.7,178.9 575.3,182.2 			"/>
			<path fill="#F5ECD9" d="M576.3,182.7l5.4,2.7c0.7,0.4,1.3,0.1,1.3-0.5v-13L576.3,182.7z"/>
			<path fill="#F5ECD9" d="M567.6,169.7l-6.8-3.4c-0.1-0.1-0.2-0.1-0.3-0.1c-0.3,0-0.5,0.2-0.5,0.6v14.6c0,0.4,0.3,0.9,0.6,1l6,3
				c0.2,0.1,0.3,0.1,0.4,0.1c0.4,0,0.6-0.3,0.6-0.8L567.6,169.7C567.6,169.8,567.6,169.8,567.6,169.7z"/>
		</g>
	</g>
	<g id="email">
		<text transform="matrix(1 0 0 1 595.5704 72.2343)" fill="#F5ECD9" font-weight="100" font-size="18px">albinotonnina@gmail.com</text>
		<path fill="#F5ECD9" d="M577.3,73v-7.5c-0.2,0.2-0.4,0.4-0.7,0.6c-1.7,1.3-3.1,2.4-4.1,3.3c-0.3,0.3-0.6,0.5-0.8,0.6
			c-0.2,0.2-0.5,0.3-0.8,0.5c-0.4,0.2-0.7,0.2-1,0.2l0,0c-0.3,0-0.6-0.1-1-0.2c-0.4-0.2-0.6-0.3-0.8-0.5s-0.5-0.4-0.8-0.6
			c-1-0.9-2.4-1.9-4.1-3.3c-0.2-0.2-0.5-0.4-0.7-0.6V73c0,0.1,0,0.2,0.1,0.2c0.1,0.1,0.1,0.1,0.2,0.1h14.3c0.1,0,0.2,0,0.2-0.1
			C577.3,73.2,577.3,73.1,577.3,73L577.3,73z M577.3,62.8v-0.2c0,0,0,0,0-0.1s0-0.1,0-0.1s0,0-0.1-0.1c0-0.1,0-0.1-0.1-0.1H577
			h-14.3c-0.1,0-0.2,0-0.2,0.1c-0.1,0.1-0.1,0.1-0.1,0.2c0,1.1,0.5,2,1.4,2.8c1.2,1,2.5,2,3.9,3.1c0,0,0.1,0.1,0.3,0.3
			c0.2,0.2,0.3,0.3,0.4,0.4c0.1,0.1,0.3,0.2,0.4,0.3c0.2,0.1,0.3,0.2,0.5,0.3c0.1,0.1,0.3,0.1,0.4,0.1l0,0c0.1,0,0.3,0,0.4-0.1
			c0.1-0.1,0.3-0.1,0.5-0.3c0.2-0.1,0.3-0.2,0.4-0.3c0.1-0.1,0.3-0.2,0.4-0.4c0.2-0.2,0.3-0.2,0.3-0.3c1.4-1.1,2.6-2.1,3.9-3.1
			c0.4-0.3,0.7-0.7,1-1.1C577.1,63.6,577.3,63.2,577.3,62.8L577.3,62.8z M578.5,62.5V73c0,0.4-0.2,0.8-0.5,1.1
			c-0.3,0.3-0.7,0.5-1.1,0.5h-14.3c-0.4,0-0.8-0.1-1.1-0.5c-0.3-0.3-0.5-0.7-0.5-1.1V62.5c0-0.4,0.2-0.8,0.5-1.1s0.7-0.5,1.1-0.5
			h14.3c0.4,0,0.8,0.2,1.1,0.5C578.4,61.7,578.5,62,578.5,62.5z"/>
	</g>
	<g id="linkedin">
		<text transform="matrix(1 0 0 1 594.2917 109.1718)" fill="#F5ECD9" font-weight="100" font-size="18px">LinkedIn profile</text>
		<path fill="#F5ECD9" d="M563.9,109.4h2.8V101h-2.8V109.4z M566.9,98.4c0-0.4-0.2-0.8-0.4-1c-0.3-0.3-0.7-0.4-1.1-0.4
			s-0.9,0.1-1.1,0.4c-0.3,0.3-0.4,0.6-0.4,1s0.1,0.8,0.4,1c0.3,0.3,0.7,0.4,1.1,0.4l0,0c0.5,0,0.9-0.1,1.2-0.4
			C566.8,99.1,566.9,98.8,566.9,98.4L566.9,98.4z M574,109.4h2.8v-4.8c0-1.2-0.3-2.2-0.9-2.8c-0.6-0.6-1.4-1-2.3-1
			c-1.1,0-1.9,0.5-2.5,1.4l0,0V101h-2.8c0,0.5,0,3.3,0,8.4h2.8v-4.7c0-0.3,0-0.5,0.1-0.7c0.1-0.3,0.3-0.5,0.6-0.7
			c0.2-0.2,0.5-0.3,0.9-0.3c0.9,0,1.4,0.6,1.4,1.9L574,109.4L574,109.4z M579.7,97.3V109c0,1-0.3,1.8-1,2.5s-1.5,1-2.5,1h-11.7
			c-1,0-1.8-0.3-2.5-1s-1-1.5-1-2.5V97.3c0-1,0.3-1.8,1-2.5s1.5-1,2.5-1h11.7c1,0,1.8,0.3,2.5,1S579.7,96.3,579.7,97.3z"/>
	</g>
	<g id="instagram">
		<text transform="matrix(1 0 0 1 592.7956 222.9833)" fill="#F5ECD9" font-weight="100" font-size="18px">Instagram</text>
		<path fill="#F5ECD9" d="M570.6,208.2c2.6,0,2.9,0,3.9,0.1c0.9,0,1.5,0.2,1.8,0.3c0.4,0.2,0.8,0.4,1.1,0.7c0.3,0.3,0.5,0.7,0.7,1.1
			c0.1,0.3,0.3,0.8,0.3,1.8c0,1,0.1,1.3,0.1,3.9s0,2.9-0.1,3.9c0,0.9-0.2,1.4-0.3,1.8c-0.2,0.4-0.4,0.8-0.7,1.1
			c-0.3,0.3-0.7,0.5-1.1,0.7c-0.3,0.1-0.8,0.3-1.8,0.3c-1,0-1.3,0.1-3.9,0.1s-2.9,0-3.9-0.1c-0.9,0-1.4-0.2-1.8-0.3
			c-0.4-0.2-0.8-0.4-1.1-0.7s-0.5-0.7-0.7-1.1c-0.1-0.3-0.3-0.8-0.3-1.8c0-1-0.1-1.3-0.1-3.9s0-2.9,0.1-3.9c0-0.9,0.2-1.4,0.3-1.8
			c0.2-0.4,0.4-0.8,0.7-1.1c0.3-0.3,0.7-0.5,1.1-0.7c0.3-0.1,0.8-0.3,1.8-0.3C567.7,208.3,568,208.2,570.6,208.2 M570.6,206.5
			c-2.6,0-2.9,0-4,0.1c-1,0-1.7,0.2-2.3,0.4c-0.6,0.2-1.2,0.6-1.7,1.1c-0.5,0.5-0.9,1.1-1.1,1.7c-0.2,0.6-0.4,1.3-0.4,2.3
			c0,1-0.1,1.4-0.1,4s0,2.9,0.1,4c0,1,0.2,1.7,0.4,2.3c0.2,0.6,0.6,1.2,1.1,1.7c0.5,0.5,1.1,0.9,1.7,1.1c0.6,0.2,1.3,0.4,2.3,0.4
			c1,0,1.4,0.1,4,0.1s2.9,0,4-0.1c1,0,1.7-0.2,2.3-0.4c0.6-0.2,1.2-0.6,1.7-1.1c0.5-0.5,0.9-1.1,1.1-1.7c0.2-0.6,0.4-1.3,0.4-2.3
			c0-1,0.1-1.4,0.1-4s0-2.9-0.1-4c0-1-0.2-1.7-0.4-2.3c-0.2-0.6-0.6-1.2-1.1-1.7c-0.5-0.5-1.1-0.9-1.7-1.1c-0.6-0.2-1.3-0.4-2.3-0.4
			C573.6,206.5,573.2,206.5,570.6,206.5L570.6,206.5z"/>
		<path fill="#F5ECD9" d="M570.6,211.2c-2.7,0-4.9,2.2-4.9,4.9c0,2.7,2.2,4.9,4.9,4.9s4.9-2.2,4.9-4.9
			C575.6,213.4,573.3,211.2,570.6,211.2z M570.6,219.4c-1.8,0-3.2-1.4-3.2-3.2s1.4-3.2,3.2-3.2s3.2,1.4,3.2,3.2
			S572.4,219.4,570.6,219.4z"/>
		<circle fill="#F5ECD9" cx="575.8" cy="211" r="1.2"/>
	</g>
	<g id="contactresume">
		<path fill="#F5ECD9" d="M574.9,141.6v0.9c0,0.1,0,0.2-0.1,0.3s-0.2,0.1-0.3,0.1h-9.6c-0.1,0-0.2,0-0.3-0.1s-0.1-0.2-0.1-0.3v-0.9
			c0-0.1,0-0.2,0.1-0.3s0.2-0.1,0.3-0.1h9.6c0.1,0,0.2,0,0.3,0.1C574.9,141.4,574.9,141.5,574.9,141.6z M574.9,138.1v0.9
			c0,0.1,0,0.2-0.1,0.3s-0.2,0.1-0.3,0.1h-9.6c-0.1,0-0.2,0-0.3-0.1s-0.1-0.2-0.1-0.3v-0.9c0-0.1,0-0.2,0.1-0.3s0.2-0.1,0.3-0.1h9.6
			c0.1,0,0.2,0,0.3,0.1C574.9,137.9,574.9,138,574.9,138.1z M562.8,146.4h13.9V136H571c-0.4,0-0.7-0.1-0.9-0.4
			c-0.3-0.3-0.4-0.6-0.4-0.9V129h-7L562.8,146.4L562.8,146.4z M571.5,134.2h5.1c-0.1-0.3-0.2-0.4-0.3-0.6l-4.3-4.3
			c-0.1-0.1-0.3-0.2-0.6-0.3L571.5,134.2L571.5,134.2z M578.4,134.6v12.2c0,0.4-0.1,0.7-0.4,0.9c-0.3,0.3-0.6,0.4-0.9,0.4h-14.8
			c-0.4,0-0.7-0.1-0.9-0.4c-0.3-0.3-0.4-0.6-0.4-0.9v-18.3c0-0.4,0.1-0.7,0.4-0.9c0.3-0.3,0.6-0.4,0.9-0.4h8.7
			c0.4,0,0.8,0.1,1.2,0.3s0.8,0.4,1,0.7l4.2,4.2c0.3,0.3,0.5,0.6,0.7,1C578.3,133.9,578.4,134.3,578.4,134.6L578.4,134.6z"/>
		<g>
			<text transform="matrix(1 0 0 1 594.7784 146.0458)" fill="#F5ECD9" font-weight="100" font-size="18px">View resume</text>
		</g>
	</g>
</g>
<g id="skills">
	<g id="skillnames">
		<g id="title">
			
				<text id="texttitle" transform="matrix(1 0 0 1 907.9998 -261.6861)" fill="#F5F7FA" font-weight="100" font-size="48px">Front end</text>
		</g>
		<g id="title_1_">
			
				<text id="texttitle_1_" transform="matrix(1 0 0 1 1190.3575 290.9808)" fill="#F5F7FA" font-weight="100" font-size="48px">UX</text>
		</g>
		<g id="title_2_">
			
				<text id="texttitle_2_" transform="matrix(1 0 0 1 697.3575 290.981)" fill="#F5F7FA" font-weight="100" font-size="48px">Graphics</text>
		</g>
	</g>
	<polyline id="graph1" fill="none" stroke="#FFFFFF" stroke-width="2" stroke-miterlimit="10" points="1011.3,-241.8 1011.3,44.2 
		1218,236.8 	"/>
	
		<line id="graph2" fill="none" stroke="#FFFFFF" stroke-width="2" stroke-miterlimit="10" x1="1011.3" y1="44.2" x2="804.7" y2="236.8"/>
	<polygon id="skillpath" fill="#FFFFFF" points="1011.3,31.3 1021.3,53.5 998.5,56.1 	"/>
</g>
<g id="sc6title">
	<text transform="matrix(1 0 0 1 525.9998 -318.6861)" fill="#F5F7FA" font-weight="100" font-size="36px">As for the future:</text>
</g>
<g id="invincible" display="none">
	<defs>
		<polygon id="clippingimage" points="1011.3,-241.8 1218,236.8 804.7,236.8 		"/>
	</defs>
	<clipPath id="clippingimage_1_" display="inline">
		<use xlink:href="#clippingimage"  overflow="visible"/>
	</clipPath>
	<g display="inline" clip-path="url(#clippingimage_1_)">
		
			<image overflow="visible" width="280" height="210" xlink:href="images/157evxw_th.gif"  transform="matrix(2.2781 0 0 2.2781 721.2655 -241.7003)">
		</image>
	</g>
	<g display="inline" clip-path="url(#clippingimage_1_)">
		
			<image overflow="visible" width="350" height="406" xlink:href="images/invincible.jpg"  transform="matrix(0.9668 0 0 0.9668 848.8033 -155.8835)">
		</image>
	</g>
</g>
</svg>
