<svg xmlns="http://www.w3.org/2000/svg" width="1024" height="768" viewBox="0 0 1024 768"><rect x="-8168" y="-5681.615" fill="#44C650" width="16535.688" height="12159.688" id="svgScene3"/><path fill="#459B45" d="M768.53 265.132l-59.851 154.958 16.312 6.303 59.852-154.958-16.313-6.303zm4.217 13.344c-1.126-.435-1.687-1.701-1.25-2.826.435-1.126 1.698-1.687 2.826-1.252 1.126.438 1.688 1.701 1.252 2.828-.435 1.125-1.701 1.686-2.828 1.25z"/><path fill="#F6BB42" d="M770.024 264.633l-59.853 154.958 16.312 6.303 59.85-154.958-16.309-6.303zm4.218 13.345c-1.126-.436-1.687-1.701-1.25-2.826.434-1.127 1.698-1.688 2.825-1.253 1.127.438 1.688 1.702 1.253 2.828-.436 1.125-1.701 1.686-2.828 1.251z"/><rect x="763.471" y="281.815" transform="matrix(-.933 -.36 .36 -.933 1380.419 821.425)" fill="#fff" width="6.554" height=".546"/><rect x="757.242" y="298.142" transform="matrix(-.933 -.36 .36 -.933 1362.445 850.8)" fill="#fff" width="6.557" height=".545"/><rect x="750.879" y="314.503" transform="matrix(-.933 -.36 .36 -.933 1344.189 880.194)" fill="#fff" width="6.555" height=".546"/><rect x="744.59" y="330.741" transform="matrix(-.933 -.36 .36 -.933 1326.245 909.249)" fill="#fff" width="6.557" height=".544"/><rect x="738.206" y="347.053" transform="matrix(-.933 -.36 .36 -.933 1308.029 938.479)" fill="#fff" width="6.557" height=".545"/><rect x="732.025" y="363.416" transform="matrix(-.933 -.36 .36 -.933 1290.261 967.809)" fill="#fff" width="6.557" height=".545"/><rect x="725.72" y="379.727" transform="matrix(-.933 -.36 .36 -.933 1272.079 997.173)" fill="#fff" width="6.557" height=".548"/><rect x="719.333" y="396.08" transform="matrix(-.933 -.36 .36 -.933 1253.885 1026.442)" fill="#fff" width="6.557" height=".548"/><rect x="713.149" y="412.283" transform="matrix(-.933 -.36 .36 -.933 1236.042 1055.577)" fill="#fff" width="6.558" height=".548"/><rect x="761.995" y="285.52" transform="matrix(-.933 -.36 .36 -.933 1374.171 827.607)" fill="#fff" width="4.371" height=".547"/><rect x="760.404" y="289.599" transform="matrix(-.933 -.36 .36 -.933 1369.458 835.11)" fill="#fff" width="4.372" height=".548"/><rect x="758.792" y="293.66" transform="matrix(-.933 -.36 .36 -.933 1364.877 842.376)" fill="#fff" width="4.372" height=".547"/><rect x="757.276" y="297.765" transform="matrix(-.933 -.36 .36 -.933 1360.48 849.75)" fill="#fff" width="4.371" height=".547"/><rect x="755.752" y="301.852" transform="matrix(-.933 -.36 .36 -.933 1356.095 857.065)" fill="#fff" width="4.373" height=".547"/><rect x="754.098" y="305.901" transform="matrix(-.933 -.36 .36 -.933 1351.626 864.094)" fill="#fff" width="4.371" height=".545"/><rect x="752.527" y="310.043" transform="matrix(-.933 -.361 .361 -.933 1346.715 871.936)" fill="#fff" width="4.37" height=".544"/><rect x="750.946" y="314.058" transform="matrix(-.933 -.36 .36 -.933 1342.609 878.715)" fill="#fff" width="4.37" height=".548"/><rect x="749.379" y="318.151" transform="matrix(-.933 -.36 .36 -.933 1337.963 886.211)" fill="#fff" width="4.373" height=".548"/><rect x="747.789" y="322.224" transform="matrix(-.933 -.361 .361 -.933 1333.224 893.71)" fill="#fff" width="4.37" height=".546"/><rect x="746.281" y="326.316" transform="matrix(-.933 -.36 .36 -.933 1328.867 901.044)" fill="#fff" width="4.372" height=".546"/><rect x="744.632" y="330.44" transform="matrix(-.933 -.36 .36 -.933 1324.349 908.266)" fill="#fff" width="4.374" height=".546"/><rect x="743.083" y="334.443" transform="matrix(-.933 -.36 .36 -.933 1319.758 915.6)" fill="#fff" width="4.372" height=".546"/><rect x="741.451" y="338.484" transform="matrix(-.933 -.36 .36 -.933 1315.57 922.403)" fill="#fff" width="4.371" height=".547"/><rect x="739.932" y="342.636" transform="matrix(-.933 -.36 .36 -.933 1310.922 930.092)" fill="#fff" width="4.369" height=".546"/><rect x="738.427" y="346.75" transform="matrix(-.932 -.361 .361 -.932 1305.967 938.045)" fill="#fff" width="4.372" height=".544"/><rect x="736.788" y="350.785" transform="matrix(-.933 -.36 .36 -.933 1301.884 944.739)" fill="#fff" width="4.372" height=".547"/><rect x="735.166" y="354.849" transform="matrix(-.933 -.36 .36 -.933 1297.236 952.055)" fill="#fff" width="4.371" height=".546"/><rect x="733.631" y="358.931" transform="matrix(-.933 -.36 .36 -.933 1292.736 959.448)" fill="#fff" width="4.371" height=".545"/><rect x="732.095" y="363.048" transform="matrix(-.933 -.36 .36 -.933 1288.222 966.908)" fill="#fff" width="4.371" height=".544"/><rect x="730.488" y="367.133" transform="matrix(-.933 -.361 .361 -.933 1283.53 974.327)" fill="#fff" width="4.37" height=".545"/><rect x="728.916" y="371.219" transform="matrix(-.933 -.36 .36 -.933 1279.244 981.457)" fill="#fff" width="4.372" height=".547"/><rect x="727.314" y="375.296" transform="matrix(-.933 -.36 .36 -.933 1274.821 988.634)" fill="#fff" width="4.37" height=".548"/><rect x="725.727" y="379.354" transform="matrix(-.933 -.36 .36 -.933 1270.341 995.862)" fill="#fff" width="4.371" height=".548"/><rect x="724.193" y="383.385" transform="matrix(-.933 -.36 .36 -.933 1265.732 1003.267)" fill="#fff" width="4.372" height=".545"/><rect x="722.618" y="387.46" transform="matrix(-.933 -.36 .36 -.933 1261.22 1010.578)" fill="#fff" width="4.372" height=".546"/><rect x="721.01" y="391.616" transform="matrix(-.933 -.36 .36 -.933 1257.057 1017.655)" fill="#fff" width="4.372" height=".547"/><rect x="719.51" y="395.629" transform="matrix(-.933 -.36 .36 -.933 1252.399 1025.136)" fill="#fff" width="4.371" height=".546"/><rect x="717.944" y="399.734" transform="matrix(-.933 -.36 .36 -.933 1247.843 1032.548)" fill="#fff" width="4.371" height=".545"/><rect x="716.317" y="403.752" transform="matrix(-.933 -.36 .36 -.933 1243.251 1039.729)" fill="#fff" width="4.371" height=".545"/><rect x="714.811" y="407.78" transform="matrix(-.933 -.36 .36 -.933 1239.046 1046.851)" fill="#fff" width="4.373" height=".548"/><rect x="713.223" y="411.938" transform="matrix(-.933 -.36 .36 -.933 1234.641 1054.181)" fill="#fff" width="4.371" height=".548"/><circle fill="#459B45" cx="59.401" cy="392.135" r="52.096"/><circle fill="#F5ECD9" cx="63.401" cy="389.135" r="52.096"/><circle fill="#2BACB5" cx="63.401" cy="389.135" r="39.072"/><ellipse transform="matrix(.996 -.085 .085 .996 -35.732 7.868)" fill="#D8D8DA" cx="75.102" cy="426.151" rx="11.907" ry="7.94"/><polygon fill="#D8D8DA" points="126.844,425.732 84.218,427.225 83.905,423.527 126.173,417.82"/><ellipse transform="matrix(.996 -.085 .085 .996 -35.739 7.871)" fill="#95989F" cx="75.108" cy="426.134" rx="9.922" ry="6.615"/><path fill="#fff" d="M107.468 360.924l-12.831 10.02c-2.126 1.659-5.196 1.282-6.855-.845-1.66-2.126-1.282-5.195.844-6.854l12.832-10.021c2.126-1.659 5.195-1.281 6.855.845 1.66 2.127 1.282 5.196-.845 6.855z"/><circle fill="#fff" cx="63.401" cy="389.135" r="35.816"/><circle fill="#E6E7E8" cx="63.401" cy="389.136" r="32.235"/><circle fill="#49433C" cx="63.4" cy="389.136" r="30.444"/><path fill="#363532" d="M46.369 367.32c-12.029 9.392-14.175 26.817-4.783 38.846.554.709 1.577.836 2.285.282.709-.554.835-1.575.282-2.284-.227-.289-.443-.586-.655-.884l-.171-.243c-.194-.281-.385-.564-.567-.854l-.173-.283-.358-.604-.23-.405c-.128-.231-.253-.47-.372-.707l-.271-.556-.195-.418-.23-.521c-.107-.252-.211-.506-.31-.765l-.185-.5-.17-.485-.152-.461c-.092-.291-.179-.584-.259-.879l-.084-.322-.188-.773-.056-.248c-.075-.352-.143-.705-.202-1.061l-.01-.057-.096-.615-.057-.467-.01-.078c-.09-.771-.142-1.535-.157-2.304v-.022c-.016-.762.005-1.521.06-2.271l.011-.133c.028-.352.062-.701.104-1.049l.007-.061c.041-.33.091-.658.146-.984l.07-.4.107-.547c.137-.664.302-1.324.493-1.977l.007-.024c1.045-3.522 2.875-6.796 5.376-9.54l.046-.052.437-.462.369-.372.383-.373c.221-.21.446-.415.676-.617l.244-.211c.275-.235.555-.468.843-.692.287-.225.58-.439.876-.649l.264-.186c.252-.174.506-.344.763-.507l.454-.28.45-.267.555-.312.062-.032c3.27-1.761 6.888-2.741 10.559-2.9l.025-.002c.68-.026 1.358-.027 2.038.001l.556.029.406.028c.33.026.66.059.989.099l.061.008c.348.043.694.095 1.041.153l.133.022c.745.129 1.484.293 2.22.492l.023.007c.738.201 1.472.438 2.196.711l.073.028.438.168.573.242.054.022c.329.145.655.296.978.454l.228.113.705.37.293.16c.268.149.53.305.791.465l.409.259.432.283.441.3c.225.158.446.32.664.485l.448.35.359.291.473.396.595.533.339.322.499.495.232.236c.236.246.465.5.69.757l.194.225c.238.278.472.56.698.849.553.709 1.576.835 2.285.281.708-.554.834-1.576.281-2.285-9.393-12.027-26.82-14.172-38.848-4.781z"/><path fill="#363532" d="M86.746 377.466c-.825.351-1.214 1.308-.861 2.135l.262.656.04.098.002.006.228.619.007.018.056.16.004.013.216.652.005.014.013.042.011.039c.144.461.269.927.384 1.393l.04.157c.107.453.201.908.283 1.365l.057.326-.029-.188.03.193-.001-.006.069.441-.003-.019.025.158v.006l-.022-.146.025.19c.062.578-.185 1.123-.615 1.459-.217.17-.482.287-.776.328-.885.123-1.701-.49-1.833-1.373l-.001-.004-.003-.013c-.189-1.36-.514-2.698-.962-3.991l-.005-.012-.021-.06-.005-.016c-.151-.429-.316-.854-.494-1.273-.361-.807-1.302-1.181-2.119-.834-.819.349-1.205 1.292-.869 2.114.95 2.223 1.436 4.613 1.425 7.059v.193l-.017.5-.016.312-.034.469-.032.328-.033.336-.01.045-.015.062c-.077.4-.289.742-.59.979-.329.261-.755.392-1.201.334-.893-.108-1.526-.924-1.417-1.812.316-2.562-.04-5.106-1.012-7.43l-.05-.101c-.356-.815-1.304-1.194-2.125-.846-.825.351-1.214 1.307-.862 2.138 2.013 4.734.581 10.26-3.479 13.432-4.062 3.171-9.767 3.22-13.875.117-.718-.541-1.738-.397-2.279.316-.538.715-.4 1.725.304 2.27l.234.183c1.983 1.442 4.312 2.367 6.812 2.677.893.108 1.526.922 1.417 1.812-.055.445-.286.828-.614 1.086-.301.232-.686.355-1.091.334l-.063-.002h-.046l-.336-.051-.325-.049-.462-.08-.311-.062-.489-.104-.187-.047c-2.374-.58-4.578-1.634-6.504-3.095-.717-.524-1.726-.383-2.261.33-.536.709-.4 1.711.295 2.258.362.275.734.537 1.114.787l.014.011.054.034.011.009c1.146.748 2.363 1.387 3.64 1.899l.009.006.005.002c.824.343 1.221 1.283.887 2.111-.11.272-.288.504-.506.674-.432.336-1.021.442-1.567.242l-.158-.063-.598-.255-.286-.127-.604-.289-.255-.122c-.223-.111-.442-.229-.661-.351l-.182-.099c-.272-.149-.541-.309-.807-.471l-.052-.027-.018-.01-.614-.393-.131-.086-.016-.012-.337-.229-.222-.147-.072-.055-.585-.423c-.718-.541-1.74-.396-2.28.317-.541.718-.398 1.736.318 2.279 9.979 7.531 23.835 7.416 33.697-.285 9.862-7.696 13.337-21.11 8.448-32.62-.351-.811-1.307-1.197-2.135-.845zm-33.247 33.985l-.241-.107.241.107zm-.895-.418l-.209-.104.209.104zm-.912-.472l-.143-.076.143.076zm2.454 1.168l.14.059-.038-.014-.102-.045z"/><path fill="#363532" d="M48.672 408.609l.024.021c.182.14.366.271.551.396-.194-.131-.386-.272-.575-.417z"/><path fill="#363532" d="M85.868 379.57l.263.647-.247-.619-.016-.028z"/><polygon fill="#459B45" points="306.175,487.959 305.039,476.778 174.833,490.016 175.97,501.196 192.484,663.62 322.688,650.385"/><rect x="185.737" y="479.962" transform="matrix(.995 -.101 .101 .995 -56.061 28.302)" fill="#F5ECD9" width="130.9" height="174.532"/><rect x="177.483" y="480.397" transform="matrix(.995 -.101 .101 .995 -47.89 27.05)" fill="#E74C3C" width="130.899" height="11.239"/><rect x="190.271" y="505.453" transform="matrix(.995 -.101 .101 .995 -50.223 22.661)" fill="#EB9773" width="16.363" height="2.726"/><rect x="189.757" y="500.286" transform="matrix(.995 -.101 .101 .995 -49.716 22.306)" fill="#E25A5A" width="10.905" height="2.727"/><rect x="196.838" y="514.922" transform="matrix(.995 -.101 .101 .995 -51.11 24.203)" fill="#999" width="32.722" height="2.726" opacity=".5"/><rect x="201.791" y="563.467" transform="matrix(.995 -.101 .101 .995 -55.962 25.215)" fill="#999" width="38.094" height="2.726" opacity=".5"/><rect x="234.752" y="511.05" transform="matrix(.995 -.101 .101 .995 -50.52 28.014)" fill="#999" width="32.725" height="2.727"/><rect x="208.759" y="524.945" transform="matrix(.995 -.101 .101 .995 -52.075 25.181)" fill="#999" width="27.227" height="2.725" opacity=".5"/><rect x="202.81" y="521.135" transform="matrix(.995 -.101 .101 .995 -51.755 23.736)" fill="#EB9773" width="10.993" height="2.726"/><rect x="219.022" y="518.949" transform="matrix(.995 -.101 .101 .995 -51.427 25.915)" fill="#999" width="21.859" height="2.727"/><rect x="249.073" y="597.542" transform="matrix(.995 -.101 .101 .995 -59.213 29.63)" fill="#999" width="27.187" height="2.724" opacity=".5"/><rect x="224.535" y="572.931" transform="matrix(.995 -.101 .101 .995 -56.856 26.749)" fill="#999" width="21.859" height="2.727" opacity=".5"/><rect x="251.718" y="569.622" transform="matrix(.995 -.101 .101 .995 -56.352 30.029)" fill="#999" width="32.746" height="2.727" opacity=".5"/><rect x="211.047" y="601.096" transform="matrix(.995 -.101 .101 .995 -59.804 26.109)" fill="#999" width="32.75" height="2.726" opacity=".5"/><rect x="214.798" y="529.786" transform="matrix(.995 -.101 .101 .995 -52.513 26.086)" fill="#999" width="32.64" height="2.727" opacity=".5"/><rect x="252.656" y="525.089" transform="matrix(.995 -.101 .101 .995 -51.85 30.753)" fill="#999" width="49.092" height="2.729"/><rect x="195.779" y="559.593" transform="matrix(.995 -.101 .101 .995 -55.667 23.494)" fill="#E25A5A" width="16.363" height="2.725"/><rect x="217.437" y="556.285" transform="matrix(.995 -.101 .101 .995 -55.162 26.766)" fill="#999" width="38.158" height="2.726" opacity=".5"/><rect x="207.739" y="569.451" transform="matrix(.995 -.101 .101 .995 -56.584 24.742)" fill="#999" width="16.32" height="2.728"/><rect x="213.762" y="574.859" transform="matrix(.995 -.101 .101 .995 -57.191 24.866)" fill="#E25A5A" width="5.54" height="2.727"/><rect x="229.472" y="566.978" transform="matrix(.995 -.101 .101 .995 -56.232 27.212)" fill="#EB9773" width="21.732" height="2.726"/><rect x="237.241" y="643.027" transform="matrix(.995 -.101 .101 .995 -63.883 28.388)" fill="#999" width="21.731" height="2.726"/><rect x="232.154" y="591.885" transform="matrix(.995 -.101 .101 .995 -58.613 29.81)" fill="#999" width="65.364" height="2.727"/><rect x="256.579" y="564.502" transform="matrix(.995 -.101 .101 .995 -55.834 29.653)" fill="#999" width="16.32" height="2.727" opacity=".5"/><rect x="241.296" y="522.596" transform="matrix(.995 -.101 .101 .995 -51.734 27.647)" fill="#999" width="10.909" height="2.728" opacity=".5"/><rect x="219.715" y="578.092" transform="matrix(.995 -.101 .101 .995 -57.37 27.116)" fill="#999" width="38.138" height="2.726"/><rect x="212.632" y="616.538" transform="matrix(.995 -.101 .101 .995 -61.245 27.422)" fill="#999" width="54.542" height="2.725" opacity=".5"/><rect x="224.706" y="627.682" transform="matrix(.995 -.101 .101 .995 -62.386 27.32)" fill="#999" width="27.187" height="2.727" opacity=".5"/><rect x="257.28" y="624.914" transform="matrix(.995 -.101 .101 .995 -61.978 30.061)" fill="#999" width="16.405" height="2.727" opacity=".5"/><rect x="279.008" y="622.864" transform="matrix(.995 -.101 .101 .995 -61.739 32.004)" fill="#999" width="10.822" height="2.727" opacity=".5"/><rect x="194.145" y="543.4" transform="matrix(.995 -.101 .101 .995 -54.032 23.526)" fill="#999" width="21.817" height="2.727" opacity=".5"/><rect x="200.198" y="548.008" transform="matrix(.995 -.101 .101 .995 -54.474 24.158)" fill="#999" width="21.689" height="2.725"/><rect x="210.119" y="645.787" transform="matrix(.995 -.101 .101 .995 -64.308 25.662)" fill="#999" width="21.69" height="2.725" opacity=".5"/><rect x="205.14" y="596.854" transform="matrix(.995 -.101 .101 .995 -59.364 24.897)" fill="#E25A5A" width="21.689" height="2.725"/><rect x="257.676" y="520.238" transform="matrix(.995 -.101 .101 .995 -51.363 29.83)" fill="#E25A5A" width="21.818" height="2.726"/><rect x="218.711" y="622.648" transform="matrix(.995 -.101 .101 .995 -61.884 26.679)" fill="#E25A5A" width="27.226" height="2.727"/><rect x="251.343" y="620.226" transform="matrix(.995 -.101 .101 .995 -61.363 29.059)" fill="#999" width="10.906" height="2.725"/><rect x="267.526" y="616.853" transform="matrix(.995 -.101 .101 .995 -61.014 32.412)" fill="#EB9773" width="43.549" height="2.727"/><rect x="199.068" y="592.43" transform="matrix(.995 -.101 .101 .995 -59.02 23.736)" fill="#EB9773" width="10.908" height="2.727"/><rect x="204.051" y="640.439" transform="matrix(.995 -.101 .101 .995 -63.763 25.579)" fill="#E25A5A" width="32.81" height="2.727"/><rect x="217.007" y="605.574" transform="matrix(.995 -.101 .101 .995 -60.19 27.284)" fill="#999" width="43.679" height="2.727" opacity=".5"/><rect x="591.167" y="625.833" fill="#44C650" width="66.333" height="66.667" id="lalineag"/><path id="wire3" opacity=".6" fill="none" stroke="#EFEFEF" stroke-miterlimit="10" enable-background="new" d="M90.111-.832s-7.058 76.718 76.717 76.718h646.2460000000001s60.106.001 60.106 60.107-27.106 69.107-69.104 69.107h-292.076s-129.948-17.59-129.948 129.948v288.028s-7.999 57.27 64.271 57.27h161.345l10.29.006c2.886 0 5.77.061 8.655.136.714.019.993-.208.986-.931-.028-4.115.162-8.248-.105-12.348-.247-3.77-.941-7.525-2.252-11.099-1.187-3.231-2.947-6.175-4.938-9.115-1.073.802-2.09 1.535-3.079 2.306-1.275.993-2.541 2.004-3.794 3.027-1.562 1.273-2.147 2.982-2.083 4.941.021.579.171 1.154.229 1.734.075.735-.227 1.325-.949 1.485-.736.162-1.391-.131-1.574-.936-.139-.61-.127-1.258-.205-2.169-.208.686-.349 1.107-.463 1.537-.269 1.014-.864 1.551-1.569 1.339-.936-.278-1.173-.934-.84-1.799-.49.284-.942.731-1.446.802-1.282.178-1.831-.674-1.216-1.812.614-1.136 1.307-2.231 1.959-3.347.11-.188.201-.387.287-.555-.516-.43-1.125-.736-1.401-1.229-.27-.473-.332-1.173-.197-1.702.055-.218.853-.29 1.322-.352.667-.087 1.343-.107 2.017-.144.47-.024.948.019 1.409-.054.358-.059.774-.162 1.032-.393 2.503-2.253 4.998-4.517 7.438-6.837.284-.271.379-.938.289-1.363-.243-1.17-.613-2.314-.97-3.459-.216-.695.038-1.026.663-1.37 1.73-.952 3.406-2.007 5.104-3.02l-.147-.239c-1.039.193-2.073.471-3.121.549-.636.049-1.4-.038-1.92-.364-.972-.607-.911-1.261-.014-1.988l.363-.32c-.963-.562-2.038-.986-2.853-1.708-1.567-1.385-1.309-3.319.52-4.389 1.611-.939 3.418-1.296 5.246-1.073 3.428.417 6.479 1.796 9.059 4.104 2.097 1.876 3.528 4.999 1.562 8.391 4.818 1.979 9.615 3.947 14.409 5.917l-.066-.333c.62-.274 1.284-.48 1.851-.843.77-.491 1.515-1.048 2.175-1.678.406-.389.679-.968 1.331-.568.651.4 1.211.915.959 1.817-.061.218-.14.432-.214.646-.501 1.458-.442 1.621.874 2.519 1.231.838 2.496 1.637 3.668 2.553.36.283.69.915.647 1.347-.096.952-.845 1.208-1.725.732l-.857-.461c.344.978 1.396 1.907.19 2.661-.981.61-1.734-.224-2.517-.861.094.243.137.523.287.722.487.636.284 1.214-.228 1.625-.611.491-1.357.403-1.828-.202-.53-.681-1.024-1.442-1.307-2.249-.537-1.542-1.448-2.448-3.099-2.828-2.707-.622-5.367-1.445-8.248-2.24.308.525.5.902.736 1.253 2.065 3.056 2.936 6.531 3.477 10.102.639 4.225-.021 8.389-.654 12.564-.438 2.876-.696 5.785-.874 8.688-.163 2.657-.067 2.665 2.628 2.671l15.59.199 3.164-.009c42.923 0 75.169.009 75.169.009s61.949 4.823 61.949-51.177v-163.433c0-15.813-5.28-32.703-9.83-47.812-3.292-10.936-6.779-22.732-3.467-34.107 5.165-17.74 24.095-26.234 40.629-30.116 28.926-6.792 61.578-3.365 89.015 7.684 18.313 7.375 48.574 25.562 39.038 49.865-10.331 26.327-51.621 30.209-75.226 29.442-26.705-.865-68.17-8.483-82.002-35.096-13.381-25.741 19.146-41.848 39.148-46.932 31.203-7.93 70.625-6.425 98.964 10.196 22.052 12.933 26.088 34.987 5.134 51.381-24.848 19.438-63.131 23.733-93.296 18.285-23.029-4.158-54.48-18.821-50.92-47.17 3.484-27.736 35.848-41.749 60.459-42.558 160.405-4.848 98.403 92.7 99.736 160.618 2.337 44.505 1.884 83.611-8.983 126.969-10.855 43.306-31.548 74.358-33.691 120.287-.26 5.572-.444 5.535-.158 11.015"/><g fill="#fff" id="skill01"><circle cx="392.728" cy="75.225" r="15.104"/><text transform="translate(375.628 54)" font-weight="400" font-size="18.006">PHP</text></g><g fill="#fff" id="skill02"><text transform="translate(508.152 54)" font-weight="400" font-size="18.006">HTML5</text><circle cx="540.15" cy="75.986" r="15"/></g><g fill="#fff" id="skill03"><text transform="translate(646.582 54)" font-weight="400" font-size="18.006">jQuery / JavaScript libraries</text><circle cx="750.15" cy="75.986" r="17.385"/></g><g fill="#fff" id="skill12"><text transform="translate(398.423 416.793)" font-weight="400" font-size="18.006">ActionScript</text><circle cx="382.009" cy="409.73" r="10.213"/></g><g fill="#fff" id="skill11"><text transform="translate(189.31 375.731)" font-weight="400" font-size="18.006">RESTful web services</text><circle cx="382.009" cy="369.73" r="10.213"/></g><g fill="#fff" id="skill18"><text transform="translate(400.423 612.807)" font-weight="400" font-size="18.006">Drupal/Joomla/Smarty</text><circle cx="382.009" cy="606.962" r="8"/></g><g fill="#fff" id="skill13"><circle cx="382.422" cy="441.73" r="7.746"/><text transform="translate(397.423 446.731)" font-weight="400" font-size="18.006">Code Igniter</text></g><g fill="#fff" id="skill10"><text transform="translate(408.423 333.731)" font-weight="400" font-size="18.006">Twitter/Facebook API</text><circle cx="382.422" cy="326.731" r="14.449"/></g><g fill="#fff" id="skill08"><text transform="translate(385.423 190.578)" font-weight="400" font-size="18.006">MVC frameworks</text><circle cx="448.089" cy="216.5" r="11"/></g><g fill="#fff" id="skill09"><text transform="translate(277.09 275.911)" font-weight="400" font-size="18.006">LESS/SASS</text><circle cx="392.728" cy="269.167" r="11"/></g><g fill="#fff" id="skill06"><text transform="translate(684.09 186.578)" font-weight="400" font-size="18.006">MySQL/SQLite</text><circle cx="738.15" cy="204.911" r="11"/></g><g fill="#fff" id="skill14"><text transform="translate(400.423 476.731)" font-weight="400" font-size="18.006">Magento / OpenCart</text><circle cx="382.009" cy="471.626" r="8"/></g><g fill="#fff" id="skill15"><text transform="translate(401.422 509.416)" font-weight="400" font-size="18.006">Version Control</text><circle cx="382.628" cy="502.73" r="8"/></g><g fill="#fff" id="skill16"><text transform="translate(400.728 543.416)" font-weight="400" font-size="18.006">Ext JS</text><circle cx="381.628" cy="537.73" r="8"/></g><g fill="#fff" id="skill17"><text transform="translate(401.422 576.654)" font-weight="400" font-size="18.006">Docebo/Moodle</text><circle cx="382.009" cy="570.839" r="8"/></g><g id="skill22"><text transform="translate(684.09 469.802)" fill="#fff" font-weight="400" font-size="18.006">Unit testing</text><circle fill="#44C650" stroke="#fff" stroke-miterlimit="10" cx="798.449" cy="465.731" r="8"/></g><g id="skill23"><text transform="translate(846.836 470.731)" fill="#fff" font-weight="400" font-size="18.006">Ruby / Rails</text><circle fill="#44C650" stroke="#fff" stroke-miterlimit="10" cx="959.529" cy="465.731" r="8"/></g><g id="skill21"><text transform="translate(724.09 512.802)" fill="#fff" font-weight="400" font-size="18.006">NoSQL</text><circle fill="#44C650" stroke="#fff" stroke-miterlimit="10" cx="798.449" cy="505.731" r="8"/></g><g id="skill24"><text transform="translate(842.446 512.063)" fill="#fff" font-weight="400" font-size="18.006">CoffeeScript</text><circle fill="#44C650" stroke="#fff" stroke-miterlimit="10" cx="956.473" cy="506.802" r="8"/></g><g id="skill20"><text transform="translate(719.09 552.802)" fill="#fff" font-weight="400" font-size="18.006">Node.js</text><circle fill="#44C650" stroke="#fff" stroke-miterlimit="10" cx="798.449" cy="545.731" r="8"/></g><g id="skill25"><text transform="translate(903.183 556.064)" fill="#fff" font-weight="400" font-size="18.006">D3.js</text><circle fill="#44C650" stroke="#fff" stroke-miterlimit="10" cx="958.059" cy="551.731" r="8"/></g><g id="skill26"><text transform="translate(857.757 602.469)" fill="#fff" font-weight="400" font-size="18.006">AngularJS</text><circle fill="#44C650" stroke="#fff" stroke-miterlimit="10" cx="956.473" cy="596.63" r="8"/></g><g id="skill19"><text transform="translate(630.09 593.63)" fill="#fff" font-weight="400" font-size="18.006">Agile methodology</text><circle fill="#44C650" stroke="#fff" stroke-miterlimit="10" cx="798.449" cy="588.63" r="8"/></g><g fill="#fff" id="skill04"><circle cx="873.183" cy="129.971" r="12"/><text transform="translate(890.183 135.652)" font-weight="400" font-size="18.006">CSS3</text></g><g fill="#fff" id="skill05"><text transform="translate(869.423 199.5)" font-weight="400" font-size="18.006">Wordpress</text><circle cx="847.27" cy="194.807" r="16.589"/><text transform="translate(868.183 216.096)" font-weight="400" font-size="18.006">(super advanced!)</text></g><g fill="#fff" id="skill07"><text transform="translate(496.094 238.09)" font-weight="400" font-size="18.006">Appcelerator Titanium</text><circle cx="580.346" cy="204.911" r="11.589"/><text transform="translate(507.009 255.166)" font-weight="400" font-size="18.006">(certified developer)</text></g><g id="interested" fill="#fff" font-weight="400" font-size="18.006"><text transform="translate(826.782 387.232)">Very</text><text transform="translate(826.782 408.84)">interested in</text></g></svg>