<?xml version="1.0" encoding="utf-8"?>
<!-- Generator: Adobe Illustrator 19.0.0, SVG Export Plug-In . SVG Version: 6.00 Build 0)  -->
<svg version="1.1" id="svg2" xmlns="http://www.w3.org/2000/svg" xmlns:xlink="http://www.w3.org/1999/xlink" x="0px" y="0px"
	 viewBox="496 -368 1024 768" style="enable-background:new 496 -368 1024 768;" xml:space="preserve">
<g id="bg2_1_">
	<rect x="-3360.3" y="-2658.6" style="fill:#44C650;" width="8736.7" height="5396"/>
</g>
<g id="objects" xmlns:dc="http://purl.org/dc/elements/1.1/" xmlns:inkscape="http://www.inkscape.org/namespaces/inkscape" xmlns:rdf="http://www.w3.org/1999/02/22-rdf-syntax-ns#" xmlns:cc="http://creativecommons.org/ns#" xmlns:svg="http://www.w3.org/2000/svg" xmlns:sodipodi="http://sodipodi.sourceforge.net/DTD/sodipodi-0.dtd" sodipodi:docname="drawing.svg" inkscape:version="0.48.4 r9939">
	<g id="iphone">
		<path style="fill:#0F0D10;" d="M1438.5,69.9l1.2,9.7c0.5,3.6,3.7,6.1,7.3,5.7l52-6.6c3.6-0.5,6.1-3.7,5.7-7.3l-1.2-9.7
			L1438.5,69.9z"/>
		<path style="fill:#0F0D10;" d="M1491.1-35.8l-1.2-9.7c-0.5-3.6-3.7-6.1-7.3-5.7l-52,6.6c-3.6,0.5-6.1,3.7-5.7,7.3l1.2,9.7
			L1491.1-35.8z"/>
		
			<rect x="1432" y="-32" transform="matrix(-0.9921 0.1256 -0.1256 -0.9921 2920.0542 -149.9644)" style="fill:#0F0D10;" width="65.5" height="98.2"/>
		
			<rect x="1435.3" y="-32.1" transform="matrix(-0.9921 0.1256 -0.1256 -0.9921 2920.0632 -150.0137)" style="fill:#F5F7FA;" width="58.9" height="98.2"/>
		<circle style="fill:#272528;" cx="1472" cy="73.9" r="4.9"/>
		<g id="s3">
			
				<rect id="s3-bg1" x="1439" y="26.6" transform="matrix(-0.9921 0.1256 -0.1256 -0.9921 2931.1111 -92.2111)" style="fill:#CCD1D9;" width="58.9" height="39.3"/>
			<g>
				
					<rect id="i1" x="1455.8" y="48.7" transform="matrix(-0.9921 0.1256 -0.1256 -0.9921 2932.2888 -85.8184)" style="fill:#F5F7FA;" width="26.2" height="1.6"/>
				
					<rect id="i2" x="1456.6" y="55.2" transform="matrix(-0.9921 0.1256 -0.1256 -0.9921 2934.8308 -73.0128)" style="fill:#F5F7FA;" width="26.2" height="1.6"/>
				
					<rect id="i3" x="1456.2" y="51.9" transform="matrix(-0.9921 0.1256 -0.1256 -0.9921 2933.5703 -79.4235)" style="fill:#F5F7FA;" width="26.2" height="1.6"/>
				
					<rect id="i4" x="1457" y="59.3" transform="matrix(-0.9921 0.1257 -0.1257 -0.9921 2923.1238 -64.2463)" style="fill:#F5F7FA;" width="13.1" height="1.6"/>
				
					<rect id="i5" x="1454.5" y="32.4" transform="matrix(-0.9921 0.1256 -0.1256 -0.9921 2928.4001 -106.7886)" style="fill:#44C650;" width="26.2" height="13.1"/>
			</g>
			<g>
				
					<rect id="i6" x="1447.1" y="6.5" transform="matrix(-0.9921 0.1256 -0.1256 -0.9921 2916.3782 -169.2474)" style="fill:#AAB2BD;" width="32.7" height="1.6"/>
				
					<rect id="i7" x="1448" y="13" transform="matrix(-0.9921 0.1256 -0.1256 -0.9921 2918.8582 -156.3676)" style="fill:#AAB2BD;" width="32.7" height="1.6"/>
				
					<rect id="i8" x="1447.6" y="9.7" transform="matrix(-0.9921 0.1256 -0.1256 -0.9921 2917.6084 -162.8296)" style="fill:#AAB2BD;" width="32.7" height="1.6"/>
				
					<rect id="i9" x="1455" y="16.1" transform="matrix(-0.9921 0.1256 -0.1256 -0.9921 2920.127 -150.1931)" style="fill:#AAB2BD;" width="19.6" height="1.6"/>
				
					<rect id="i10" x="1437.7" y="-25.2" transform="matrix(-0.9921 0.1256 -0.1256 -0.9921 2907.7993 -214.1824)" style="fill:#3498DB;" width="45.8" height="19.6"/>
				
					<rect id="i11" x="1443.1" y="-0.4" transform="matrix(-0.9921 0.1256 -0.1256 -0.9921 2913.9243 -182.0852)" style="fill:#E1E1E2;" width="39.3" height="2.5"/>
			</g>
		</g>
	</g>
	<g id="ipad">
		<path style="fill:#0F0D10;" d="M1385.8-66.4v-12c0-4.4-3.6-8-8-8h-144c-4.4,0-8,3.6-8,8v12H1385.8z"/>
		<path style="fill:#0F0D10;" d="M1225.8,101.6v12c0,4.4,3.6,8,8,8h144c4.4,0,8-3.6,8-8v-12H1225.8L1225.8,101.6z"/>
		<rect x="1225.8" y="-66.4" style="fill:#0F0D10;" width="160" height="168"/>
		<rect x="1233.8" y="-66.4" style="fill:#C4C3C4;" width="144" height="168"/>
		<circle style="fill:#272528;" cx="1305.8" cy="111.6" r="6"/>
		<g id="s2">
			<rect x="1233.8" y="-66.4" style="fill:#E6E9ED;" width="144" height="168"/>
			<rect id="s2-bg1" x="1233.8" y="37.6" style="fill:#FFFFFF;" width="144" height="64"/>
			<g>
				<rect id="g1" x="1257.8" y="-50.4" style="fill:#44C650;" width="96" height="48"/>
				<g id="g2g">
					<rect id="g2" x="1273.8" y="12.6" style="fill:#434A54;" width="64" height="2"/>
					<rect id="g3" x="1273.8" y="20.6" style="fill:#434A54;" width="64" height="2"/>
					<rect id="g4" x="1273.8" y="16.6" style="fill:#434A54;" width="64" height="2"/>
					<rect id="g5" x="1281.8" y="24.6" style="fill:#434A54;" width="48" height="2"/>
				</g>
				<rect id="g21" x="1265.8" y="3.6" style="fill:#4FC1E9;" width="80" height="4"/>
			</g>
			<g>
				<g id="g6g">
					<rect id="g6" x="1289.8" y="69.6" style="fill:#AAB2BD;" width="32" height="2"/>
					<rect id="g7" x="1289.8" y="77.6" style="fill:#AAB2BD;" width="32" height="2"/>
					<rect id="g8" x="1289.8" y="73.6" style="fill:#AAB2BD;" width="32" height="2"/>
					<rect id="g9" x="1289.8" y="81.6" style="fill:#AAB2BD;" width="16" height="2"/>
				</g>
				<rect id="g10" x="1289.8" y="49.6" style="fill:#44C650;" width="32" height="16"/>
			</g>
			<g>
				<g id="g11g">
					<rect id="g11" x="1241.8" y="81.6" style="fill:#AAB2BD;" width="16" height="2"/>
					<rect id="g12" x="1241.8" y="73.6" style="fill:#AAB2BD;" width="32" height="2"/>
					<rect id="g13" x="1241.8" y="77.6" style="fill:#AAB2BD;" width="32" height="2"/>
					<rect id="g14" x="1241.8" y="69.6" style="fill:#AAB2BD;" width="32" height="2"/>
				</g>
				<rect id="g15" x="1241.8" y="49.6" style="fill:#44C650;" width="32" height="16"/>
			</g>
			<g>
				<rect id="g16" x="1337.8" y="69.6" style="fill:#AAB2BD;" width="32" height="2"/>
				<rect id="g17" x="1337.8" y="77.6" style="fill:#AAB2BD;" width="32" height="2"/>
				<rect id="g18" x="1337.8" y="73.6" style="fill:#AAB2BD;" width="32" height="2"/>
				<rect id="g19" x="1337.8" y="81.6" style="fill:#AAB2BD;" width="16" height="2"/>
				<rect id="g20" x="1337.8" y="49.6" style="fill:#44C650;" width="32" height="16"/>
			</g>
			<rect x="1233.8" y="-66.4" style="fill:#4B4A4C;" width="144" height="8"/>
		</g>
	</g>
	<g id="imac">
		<rect id="gridbg" x="888.7" y="-180.4" style="fill:#F5B8B6;" width="299.5" height="165.8"/>
		<g id="grid">
			<rect id="grid1" x="907.8" y="-180.4" style="fill:#FFFFFF;" width="6.4" height="166"/>
			<rect id="grid2" x="933.8" y="-180.4" style="fill:#FFFFFF;" width="6.4" height="166"/>
			<rect id="grid3" x="958.8" y="-180.4" style="fill:#FFFFFF;" width="6.4" height="166"/>
			<rect id="grid4" x="984.8" y="-180.4" style="fill:#FFFFFF;" width="6.4" height="166"/>
			<rect id="grid5" x="1009.8" y="-180.4" style="fill:#FFFFFF;" width="6.4" height="166"/>
			<rect id="grid6" x="1035.8" y="-180.4" style="fill:#FFFFFF;" width="6.4" height="166"/>
			<rect id="grid7" x="1060.8" y="-180.4" style="fill:#FFFFFF;" width="6.4" height="166"/>
			<rect id="grid8" x="1086.8" y="-180.4" style="fill:#FFFFFF;" width="6.4" height="166"/>
			<rect id="grid9" x="1111.8" y="-180.4" style="fill:#FFFFFF;" width="6.4" height="166"/>
			<rect id="grid10" x="1137.8" y="-180.4" style="fill:#FFFFFF;" width="6.4" height="166"/>
			<rect id="grid11" x="1162.8" y="-180.4" style="fill:#FFFFFF;" width="6.4" height="166"/>
		</g>
		<path id="bg1" style="fill:#F5F7FA;" d="M1188.2-180.4c0,0,0,0,0,12.8v153.1h-300v-153.1c0-12.8,0-12.8,0-12.8H1188.2
			L1188.2-180.4z"/>
		<rect id="bg2" x="888.2" y="-103.8" style="fill:#E6E9ED;" width="300" height="76.6"/>
		<g id="b4">
			<rect id="f22" x="1112.3" y="-41.6" style="fill:#434A54;" width="28.6" height="3.2"/>
			<rect id="f21" x="1112.3" y="-54.4" style="fill:#434A54;" width="57.1" height="3.2"/>
			<rect id="f20" x="1112.3" y="-48" style="fill:#434A54;" width="57.1" height="3.2"/>
			<rect id="f19" x="1112.3" y="-60.8" style="fill:#434A54;" width="57.1" height="3.2"/>
		</g>
		<rect id="f18" x="1112.3" y="-92.7" style="fill:#3498DB;" width="57.1" height="25.5"/>
		<g id="b3">
			<rect id="f17" x="1009.6" y="-60.8" style="fill:#434A54;" width="57.1" height="3.2"/>
			<rect id="f16" x="1009.6" y="-48" style="fill:#434A54;" width="57.1" height="3.2"/>
			<rect id="f15" x="1009.6" y="-54.4" style="fill:#434A54;" width="57.1" height="3.2"/>
			<rect id="f14" x="1009.6" y="-41.6" style="fill:#434A54;" width="28.6" height="3.2"/>
		</g>
		<rect id="f13" x="1009.6" y="-92.7" style="fill:#3498DB;" width="57.1" height="25.5"/>
		<g id="b2">
			<rect id="f12" x="907.9" y="-60.8" style="fill:#434A54;" width="57.1" height="3.2"/>
			<rect id="f11" x="907.9" y="-48" style="fill:#434A54;" width="57.1" height="3.2"/>
			<rect id="f10" x="907.9" y="-54.4" style="fill:#434A54;" width="57.1" height="3.2"/>
			<rect id="f9" x="907.9" y="-41.6" style="fill:#434A54;" width="28.6" height="3.2"/>
		</g>
		<rect id="f8" x="907.9" y="-92.7" style="fill:#3498DB;" width="57.1" height="25.5"/>
		<g id="b1">
			<rect id="f6" x="1023.8" y="-165.2" style="fill:#E74C3C;" width="110.7" height="6.4"/>
			<rect id="f5" x="1023.8" y="-126.9" style="fill:#39B54A;" width="39.3" height="12.8"/>
			<rect id="f4" x="1023.8" y="-154" style="fill:#656D78;" width="110.7" height="3.2"/>
			<rect id="f3" x="1023.8" y="-141.3" style="fill:#656D78;" width="110.7" height="3.2"/>
			<rect id="f2" x="1023.8" y="-147.7" style="fill:#656D78;" width="110.7" height="3.2"/>
			<rect id="f7" x="1023.8" y="-134.9" style="fill:#656D78;" width="82.1" height="3.2"/>
		</g>
		<rect id="f1" x="907.9" y="-165.2" style="fill:#3498DB;" width="110.7" height="51"/>
	</g>
	<g id="diagramma1">
		<polygon style="fill:#39B54A;" points="736.6,-1 708.9,-34.2 561,-45.1 543,200 720.9,213.1 		"/>
		<polygon style="fill:#F5F7FA;" points="712.9,-37.8 565,-48.7 547,196.4 724.8,209.5 740.6,-4.6 		"/>
		<polygon style="fill:#8996A9;" points="710.6,-6.8 740.6,-4.6 712.9,-37.8 		"/>
		<g id="dg1">
			
				<ellipse id="d1" transform="matrix(-7.330072e-02 0.9973 -0.9973 -7.330072e-02 688.3163 -663.0183)" style="fill:#3498DB;" cx="652.2" cy="-11.7" rx="15.4" ry="14.9"/>
			
				<rect id="d2" x="642.4" y="-13.5" transform="matrix(-0.9973 -7.330072e-02 7.330072e-02 -0.9973 1302.5529 24.5901)" style="fill:#F5F7FA;" width="18.6" height="3.8"/>
			
				<rect id="d3" x="648.9" y="-3.1" transform="matrix(-0.9973 -7.310180e-02 7.310180e-02 -0.9973 1299.1271 63.555)" style="fill:#E6E9ED;" width="3.7" height="22.3"/>
		</g>
		<g id="dg2">
			<polygon id="d4" style="fill:#E6E9ED;" points="687.7,37.2 684,36.9 685,23.6 614.6,18.4 613.9,28 610.2,27.8 611.1,14.3 
				688.9,20.1 			"/>
			<polygon id="d5" style="fill:#E74C3C;" points="581.5,37.2 612.3,24.1 640.8,41.6 610,54.7 			"/>
			
				<rect id="d6" x="596.3" y="37.5" transform="matrix(-0.9973 -7.340018e-02 7.340018e-02 -0.9973 1217.7987 123.526)" style="fill:#F5F7FA;" width="29.7" height="3.8"/>
			
				<rect id="d7" x="608.1" y="46.9" transform="matrix(-0.9973 -7.359911e-02 7.359911e-02 -0.9973 1214.1217 156.7569)" style="fill:#E6E9ED;" width="3.7" height="18.3"/>
		</g>
		<g id="dg3">
			
				<rect id="d8" x="578.6" y="62.2" transform="matrix(-0.9973 -7.340018e-02 7.340018e-02 -0.9973 1209.3319 199.6049)" style="fill:#3498DB;" width="59.4" height="30.8"/>
			
				<rect id="d9" x="590.1" y="71" transform="matrix(-0.9973 -7.330072e-02 7.330072e-02 -0.9973 1188.1727 189.4461)" style="fill:#F5F7FA;" width="14.9" height="3.8"/>
			
				<rect id="d10" x="612.3" y="72.4" transform="matrix(-0.9973 -7.349965e-02 7.349965e-02 -0.9973 1224.958 193.6578)" style="fill:#F5F7FA;" width="7.4" height="3.8"/>
			
				<rect id="d11" x="589.5" y="79.5" transform="matrix(-0.9973 -7.330072e-02 7.330072e-02 -0.9973 1208.4707 207.1841)" style="fill:#F5F7FA;" width="37.1" height="3.8"/>
			
				<rect id="d12" x="605.1" y="81.4" transform="matrix(-0.9973 -7.310180e-02 7.310180e-02 -0.9973 1205.0676 239.0369)" style="fill:#E6E9ED;" width="3.7" height="32.2"/>
		</g>
		<g id="dg4">
			
				<rect id="d13" x="574.6" y="108.3" transform="matrix(-0.9973 -7.340018e-02 7.340018e-02 -0.9973 1197.4626 306.8299)" style="fill:#3498DB;" width="59.4" height="46.1"/>
			
				<rect id="d14" x="581.4" y="133.3" transform="matrix(-0.9973 -7.330072e-02 7.330072e-02 -0.9973 1195.7694 314.2991)" style="fill:#F5F7FA;" width="44.6" height="3.8"/>
			
				<rect id="d15" x="580.8" y="139.9" transform="matrix(-0.9973 -7.330072e-02 7.330072e-02 -0.9973 1164.4714 326.3147)" style="fill:#F5F7FA;" width="14.9" height="3.8"/>
			
				<rect id="d16" x="603.1" y="141.2" transform="matrix(-0.9973 -7.330072e-02 7.330072e-02 -0.9973 1201.4752 330.3918)" style="fill:#F5F7FA;" width="7.4" height="3.8"/>
			
				<rect id="d17" x="581.9" y="124.8" transform="matrix(-0.9973 -7.330072e-02 7.330072e-02 -0.9973 1175.283 296.5761)" style="fill:#F5F7FA;" width="22.3" height="3.8"/>
			
				<rect id="d18" x="611.6" y="126.7" transform="matrix(-0.9973 -7.330072e-02 7.330072e-02 -0.9973 1227.0277 302.2869)" style="fill:#F5F7FA;" width="14.9" height="3.8"/>
			
				<rect id="d19" x="582.5" y="117.7" transform="matrix(-0.9973 -7.340018e-02 7.340018e-02 -0.9973 1191.7325 282.9998)" style="fill:#F5F7FA;" width="37.1" height="3.8"/>
		</g>
		<g id="dg5">
			<polygon id="d20" style="fill:#44C650;" points="655.6,42.7 686.4,29.5 714.9,47 684.1,60.2 			"/>
			
				<rect id="d21" x="670.4" y="42.9" transform="matrix(-0.9973 -7.330072e-02 7.330072e-02 -0.9973 1365.4896 139.7609)" style="fill:#F5F7FA;" width="29.7" height="3.8"/>
			
				<rect id="d22" x="668.2" y="67.7" transform="matrix(-0.9973 -7.330072e-02 7.330072e-02 -0.9973 1358.6681 200.581)" style="fill:#3498DB;" width="29.7" height="15.4"/>
		</g>
		<g id="dg6">
			
				<rect id="d23" x="682.2" y="52.3" transform="matrix(-0.9973 -7.310180e-02 7.310180e-02 -0.9973 1361.759 172.756)" style="fill:#E6E9ED;" width="3.7" height="18.3"/>
			
				<rect id="d24" x="676" y="73.5" transform="matrix(-0.9973 -7.330072e-02 7.330072e-02 -0.9973 1359.5729 200.6947)" style="fill:#F5F7FA;" width="14.9" height="3.8"/>
			
				<rect id="d25" x="679.7" y="70.5" transform="matrix(-0.9973 -7.310180e-02 7.310180e-02 -0.9973 1354.2363 241.6438)" style="fill:#E6E9ED;" width="3.7" height="51.1"/>
		</g>
		<g id="dg7">
			
				<rect id="d26" x="651.6" y="90.8" transform="matrix(0.9973 7.330072e-02 -7.330072e-02 0.9973 9.055 -49.6738)" style="fill:#3498DB;" width="59.4" height="15.4"/>
			
				<rect id="d27" x="681.8" y="97.4" transform="matrix(-0.9973 -7.330072e-02 7.330072e-02 -0.9973 1376.672 249.2436)" style="fill:#F5F7FA;" width="22.3" height="3.8"/>
			
				<rect id="d28" x="659.5" y="95.5" transform="matrix(-0.9973 -7.330072e-02 7.330072e-02 -0.9973 1324.9321 243.5461)" style="fill:#F5F7FA;" width="14.9" height="3.8"/>
		</g>
		<g id="dg8">
			
				<rect id="d29" x="657.4" y="113.8" transform="matrix(-0.9973 -7.330072e-02 7.330072e-02 -0.9973 1348.5625 292.5181)" style="fill:#3498DB;" width="44.6" height="15.4"/>
			
				<rect id="d30" x="676.5" y="129" transform="matrix(-0.9973 -7.330072e-02 7.330072e-02 -0.9973 1344.7552 326.7369)" style="fill:#E6E9ED;" width="3.7" height="19.4"/>
			
				<rect id="d32" x="668.5" y="119.6" transform="matrix(-0.9973 -7.330072e-02 7.330072e-02 -0.9973 1348.5668 292.5141)" style="fill:#F5F7FA;" width="22.3" height="3.8"/>
		</g>
		<g id="dg9">
			
				<ellipse id="d31" transform="matrix(-7.330072e-02 0.9973 -0.9973 -7.330072e-02 885.8612 -503.4135)" style="fill:#3498DB;" cx="676.8" cy="159.9" rx="15.4" ry="14.9"/>
			
				<rect id="d33" x="667.1" y="158.1" transform="matrix(-0.9973 -7.330072e-02 7.330072e-02 -0.9973 1339.1456 369.0951)" style="fill:#FFFFFF;" width="18.6" height="3.8"/>
		</g>
	</g>
	<g id="appunti">
		
			<rect x="1244.8" y="149.3" transform="matrix(0.1011 -0.9949 0.9949 0.1011 931.3724 1585.5636)" style="fill:#39B54A;" width="196.7" height="256.2"/>
		
			<rect x="1249.7" y="145.2" transform="matrix(0.1011 -0.9949 0.9949 0.1011 939.8456 1586.9377)" style="fill:#E6E9ED;" width="196.7" height="256.2"/>
		
			<rect x="1256.2" y="145.3" transform="matrix(-3.460004e-02 -0.9994 0.9994 -3.460004e-02 1128.1429 1636.5278)" style="fill:#F5F7FA;" width="196.7" height="256.2"/>
		<g id="ag1">
			<path id="a1" style="fill:#44C650;" d="M1439.2,302.8l-108.7,4.2l-3.6-91.1l108.7-4.2L1439.2,302.8z M1334.7,302.5l100-3.9
				l-3.2-82.4l-100,3.9L1334.7,302.5z"/>
			
				<rect id="a2" x="1329.8" y="231.2" transform="matrix(-0.9992 3.890168e-02 -3.890168e-02 -0.9992 2772.0288 412.6988)" style="fill:#44C650;" width="104.4" height="4.3"/>
		</g>
		<g id="ag2">
			<path id="a3" style="fill:#44C650;" d="M1369.4,296.8l-21.7,0.8l-0.9-21.7l21.7-0.8L1369.4,296.8z M1351.9,293.2l13-0.5l-0.5-13
				l-13,0.5L1351.9,293.2z"/>
			<path id="a4" style="fill:#44C650;" d="M1395.3,295.8l-21.7,0.9l-0.8-21.7l21.7-0.8L1395.3,295.8z M1377.8,292.1l13-0.5l-0.5-13
				l-13,0.5L1377.8,292.1z"/>
			<path id="a5" style="fill:#44C650;" d="M1421.4,294.8l-21.7,0.8l-0.8-21.7l21.7-0.8L1421.4,294.8z M1403.9,291.1l13-0.5l-0.5-13
				l-13,0.5L1403.9,291.1z"/>
		</g>
		<g id="ag3">
			<path id="a6" style="fill:#44C650;" d="M1385.8,270.1l-39.1,1.5l-1.2-30.4l39.1-1.5L1385.8,270.1z M1350.9,267.1l30.4-1.2
				l-0.8-21.7l-30.4,1.2L1350.9,267.1z"/>
			
				<rect id="a7" x="1391.1" y="238.9" transform="matrix(-0.9992 3.900153e-02 -3.900153e-02 -0.9992 2816.499 427.1953)" style="fill:#44C650;" width="26.1" height="4.3"/>
			
				<rect id="a8" x="1391.3" y="247.7" transform="matrix(-0.9992 3.890168e-02 -3.890168e-02 -0.9992 2817.4512 444.8501)" style="fill:#44C650;" width="26.1" height="4.3"/>
			
				<rect id="a9" x="1391.7" y="256.4" transform="matrix(-0.9992 3.890168e-02 -3.890168e-02 -0.9992 2809.8494 462.5312)" style="fill:#44C650;" width="17.4" height="4.3"/>
		</g>
		<g id="ag4">
			
				<rect id="a10" x="1402.7" y="316.5" transform="matrix(-0.9992 3.900153e-02 -3.900153e-02 -0.9992 2851.6138 581.8057)" style="fill:#44C650;" width="34.8" height="4.3"/>
			
				<rect id="a11" x="1403.1" y="325.2" transform="matrix(-0.9992 3.890168e-02 -3.890168e-02 -0.9992 2852.6873 599.2756)" style="fill:#44C650;" width="34.9" height="4.3"/>
			
				<rect id="a18" x="1419.9" y="307.6" transform="matrix(-0.9992 3.900153e-02 -3.900153e-02 -0.9992 2868.0759 563.6397)" style="fill:#44C650;" width="17.4" height="4.3"/>
		</g>
		<g id="ag5">
			
				<rect id="a12" x="1314.7" y="285" transform="matrix(-0.9992 3.900153e-02 -3.900153e-02 -0.9992 2683.0862 521.988)" style="fill:#44C650;" width="43.4" height="4.3"/>
			
				<rect id="a13" x="1297.4" y="286.4" transform="matrix(-0.9993 3.869810e-02 -3.869810e-02 -0.9993 2613.5974 526.5508)" style="fill:#44C650;" width="8.7" height="4.3"/>
			
				<rect id="a14" x="1312.4" y="224.4" transform="matrix(-0.9992 3.900153e-02 -3.900153e-02 -0.9992 2675.9944 400.9905)" style="fill:#44C650;" width="43.4" height="4.3"/>
			
				<rect id="a15" x="1295" y="225.9" transform="matrix(-0.9993 3.859825e-02 -3.859825e-02 -0.9993 2606.6079 405.7711)" style="fill:#44C650;" width="8.7" height="4.3"/>
			
				<rect id="a16" x="1295.7" y="243" transform="matrix(-0.9992 3.880182e-02 -3.880182e-02 -0.9992 2608.5378 439.7776)" style="fill:#44C650;" width="8.7" height="4.3"/>
			<polygon id="a17" style="fill:#44C650;" points="1365,257.7 1330.1,246.2 1313.1,246.9 1313,242.5 1330.7,241.8 1366.3,253.6 			
				"/>
		</g>
	</g>
	<g id="appunti2">
		
			<rect x="1683.4" y="-4" transform="matrix(-0.9548 0.2971 -0.2971 -0.9548 3433.0107 -344.5289)" style="fill:#363532;" width="118.5" height="185.2"/>
		<circle style="fill:#363532;" cx="1776.2" cy="-3.3" r="14.8"/>
		<circle style="fill:#363532;" cx="1822.5" cy="145.3" r="14.8"/>
		
			<rect x="1799.1" y="-9.1" transform="matrix(0.9548 -0.2972 0.2972 0.9548 61.2078 540.0024)" style="fill:#363532;" width="14.8" height="155.6"/>
		<circle style="fill:#363532;" cx="1711.5" cy="187.6" r="7.4"/>
		<circle style="fill:#363532;" cx="1660.8" cy="24.9" r="7.4"/>
		
			<rect x="1678.5" y="20.3" transform="matrix(-0.9548 0.2972 -0.2972 -0.9548 3332.5161 -295.6118)" style="fill:#363532;" width="20.4" height="170.4"/>
		
			<rect x="1682.9" y="-5.7" transform="matrix(-0.9548 0.2971 -0.2971 -0.9548 3431.4045 -347.8575)" style="fill:#FFFFFF;" width="118.5" height="185.2"/>
		<circle style="fill:#FFFFFF;" cx="1775.7" cy="-5" r="14.8"/>
		<circle style="fill:#FFFFFF;" cx="1821.9" cy="143.5" r="14.8"/>
		
			<rect x="1798.4" y="-10.7" transform="matrix(0.9548 -0.2972 0.2972 0.9548 61.6711 539.7232)" style="fill:#FFFFFF;" width="14.8" height="155.6"/>
		<circle style="fill:#FFFFFF;" cx="1711.5" cy="187.6" r="5.6"/>
		<circle style="fill:#FFFFFF;" cx="1660.3" cy="23.1" r="7.4"/>
		
			<rect x="1680.1" y="18.2" transform="matrix(-0.9548 0.2971 -0.2971 -0.9548 3333.3899 -298.0726)" style="fill:#FFFFFF;" width="18.5" height="172.2"/>
		<path style="fill:#434A54;" d="M1770.7-21l-113.2,35.2c-3.9,1.2-6.1,5.4-4.9,9.3l50.6,162.7c1.2,3.9,5.4,6.1,9.3,4.9l113.2-35.2
			c7.8-2.4,12.2-10.7,9.7-18.6l-46.2-148.6C1786.9-19,1778.5-23.4,1770.7-21z"/>
		
			<rect x="1692.8" y="4.8" transform="matrix(-0.955 0.2967 -0.2967 -0.955 3346.9211 -303.8187)" style="fill:#A0D468;" width="7.4" height="194.5"/>
		
			<rect x="1704.3" y="51.3" transform="matrix(0.9542 -0.2992 0.2992 0.9542 63.6517 522.1171)" style="fill:#E6E9ED;" width="65.2" height="3.7"/>
		
			<rect x="1708.7" y="65.8" transform="matrix(0.9542 -0.2992 0.2992 0.9542 59.5209 524.088)" style="fill:#E6E9ED;" width="65.2" height="3.7"/>
		
			<rect x="1713.1" y="80.4" transform="matrix(0.9542 -0.2992 0.2992 0.9542 55.3685 526.0607)" style="fill:#E6E9ED;" width="65.2" height="3.7"/>
		
			<rect x="1717.4" y="94.9" transform="matrix(0.9542 -0.2992 0.2992 0.9542 51.2196 528.0333)" style="fill:#E6E9ED;" width="65.2" height="3.7"/>
	</g>
	<g id="coffee">
		<circle style="fill:#39B54A;" cx="1618.8" cy="-91.4" r="50.6"/>
		<circle style="fill:#E6E9ED;" cx="1623.8" cy="-93.4" r="50.6"/>
		<path style="fill:#3498DB;" d="M1623.8-135.1c23,0,41.7,18.7,41.7,41.7s-18.7,41.7-41.7,41.7c-10.4,0-19.9-3.8-27.2-10.1
			c-8.9-7.6-14.5-19-14.5-31.6C1582.1-116.4,1600.8-135.1,1623.8-135.1z"/>
		<path id="linecover2" style="fill:#E6E9ED;" d="M1623.8-136.1c23.6,0,42.7,19.1,42.7,42.7s-19.1,42.7-42.7,42.7
			c-10.6,0-20.3-3.9-27.8-10.3c-9.1-7.8-14.9-19.4-14.9-32.4C1581.1-117,1600.3-136.1,1623.8-136.1z"/>
		
			<ellipse transform="matrix(0.1184 -0.993 0.993 0.1184 1480.3826 1544.5428)" style="fill:#D8D8DA;" cx="1610" cy="-61.4" rx="7.7" ry="11.6"/>
		<polygon style="fill:#CCD1D9;" points="1560.7,-71.2 1601.5,-64.3 1601.1,-60.7 1559.7,-63.5 		"/>
		
			<ellipse transform="matrix(0.1184 -0.993 0.993 0.1184 1480.2922 1544.4274)" style="fill:#AAB2BD;" cx="1609.9" cy="-61.4" rx="6.4" ry="9.6"/>
		<path style="fill:#FFFFFF;" d="M1596.6-136.3l9.7,12.5c1.6,2.1,1.2,5-0.8,6.7c-2.1,1.6-5,1.2-6.7-0.8l-9.7-12.5
			c-1.6-2.1-1.2-5,0.8-6.7C1592-138.7,1594.9-138.3,1596.6-136.3z"/>
		<circle style="fill:#FFFFFF;" cx="1623.8" cy="-93.4" r="34.8"/>
		<circle style="fill:#E6E7E8;" cx="1623.8" cy="-93.4" r="31.3"/>
		<circle style="fill:#49433C;" cx="1623.8" cy="-93.4" r="29.6"/>
		<path style="fill:#363532;" d="M1602.6-76.9c9.1,11.7,26,13.8,37.7,4.7c0.7-0.5,0.8-1.5,0.3-2.2c-0.5-0.7-1.5-0.8-2.2-0.3
			c-0.3,0.2-0.6,0.4-0.9,0.6c-0.1,0.1-0.2,0.1-0.2,0.2c-0.3,0.2-0.5,0.4-0.8,0.5c-0.1,0.1-0.2,0.1-0.3,0.2c-0.2,0.1-0.4,0.2-0.6,0.3
			c-0.1,0.1-0.3,0.1-0.4,0.2c-0.2,0.1-0.5,0.2-0.7,0.4c-0.2,0.1-0.4,0.2-0.5,0.3c-0.1,0.1-0.3,0.1-0.4,0.2c-0.2,0.1-0.3,0.2-0.5,0.2
			c-0.2,0.1-0.5,0.2-0.7,0.3c-0.2,0.1-0.3,0.1-0.5,0.2c-0.2,0.1-0.3,0.1-0.5,0.2c-0.1,0-0.3,0.1-0.4,0.1c-0.3,0.1-0.6,0.2-0.9,0.2
			c-0.1,0-0.2,0.1-0.3,0.1c-0.2,0.1-0.5,0.1-0.8,0.2c-0.1,0-0.2,0-0.2,0.1c-0.3,0.1-0.7,0.1-1,0.2c0,0,0,0-0.1,0
			c-0.2,0-0.4,0.1-0.6,0.1c-0.1,0-0.3,0-0.5,0.1c0,0-0.1,0-0.1,0c-0.7,0.1-1.5,0.1-2.2,0.1c0,0,0,0,0,0c-0.7,0-1.5,0-2.2-0.1
			c0,0-0.1,0-0.1,0c-0.3,0-0.7-0.1-1-0.1c0,0,0,0-0.1,0c-0.3,0-0.6-0.1-0.9-0.1c-0.1,0-0.3,0-0.4-0.1c-0.2,0-0.4-0.1-0.5-0.1
			c-0.6-0.1-1.3-0.3-1.9-0.5c0,0,0,0,0,0c-3.4-1-6.6-2.8-9.2-5.2c0,0,0,0-0.1,0c-0.1-0.1-0.3-0.3-0.4-0.4c-0.1-0.1-0.2-0.2-0.4-0.4
			c-0.1-0.1-0.2-0.2-0.4-0.4c-0.2-0.2-0.4-0.4-0.6-0.7c-0.1-0.1-0.1-0.2-0.2-0.2c-0.2-0.3-0.5-0.5-0.7-0.8c-0.2-0.3-0.4-0.6-0.6-0.9
			c-0.1-0.1-0.1-0.2-0.2-0.3c-0.2-0.2-0.3-0.5-0.5-0.7c-0.1-0.1-0.2-0.3-0.3-0.4c-0.1-0.1-0.2-0.3-0.3-0.4c-0.1-0.2-0.2-0.4-0.3-0.5
			c0,0,0,0,0-0.1c-1.7-3.2-2.6-6.7-2.8-10.3c0,0,0,0,0,0c0-0.7,0-1.3,0-2c0-0.2,0-0.4,0-0.5c0-0.1,0-0.3,0-0.4c0-0.3,0.1-0.6,0.1-1
			c0,0,0,0,0-0.1c0-0.3,0.1-0.7,0.1-1c0,0,0-0.1,0-0.1c0.1-0.7,0.3-1.4,0.5-2.2c0,0,0,0,0,0c0.2-0.7,0.4-1.4,0.7-2.1c0,0,0,0,0-0.1
			c0.1-0.1,0.1-0.3,0.2-0.4c0.1-0.2,0.2-0.4,0.2-0.6c0,0,0,0,0-0.1c0.1-0.3,0.3-0.6,0.4-0.9c0-0.1,0.1-0.1,0.1-0.2
			c0.1-0.2,0.2-0.5,0.4-0.7c0.1-0.1,0.1-0.2,0.2-0.3c0.1-0.3,0.3-0.5,0.5-0.8c0.1-0.1,0.2-0.3,0.3-0.4c0.1-0.1,0.2-0.3,0.3-0.4
			c0.1-0.1,0.2-0.3,0.3-0.4c0.2-0.2,0.3-0.4,0.5-0.6c0.1-0.1,0.2-0.3,0.3-0.4c0.1-0.1,0.2-0.2,0.3-0.3c0.1-0.2,0.3-0.3,0.4-0.5
			c0.2-0.2,0.3-0.4,0.5-0.6c0.1-0.1,0.2-0.2,0.3-0.3c0.2-0.2,0.3-0.3,0.5-0.5c0.1-0.1,0.1-0.2,0.2-0.2c0.2-0.2,0.5-0.5,0.7-0.7
			c0.1-0.1,0.1-0.1,0.2-0.2c0.3-0.2,0.5-0.5,0.8-0.7c0.7-0.5,0.8-1.5,0.3-2.2c-0.5-0.7-1.5-0.8-2.2-0.3
			C1595.6-105.5,1593.5-88.6,1602.6-76.9z"/>
		<path style="fill:#363532;" d="M1612.6-116.1c0.3,0.8,1.3,1.2,2.1,0.8c0.2-0.1,0.4-0.2,0.6-0.3c0,0,0.1,0,0.1,0c0,0,0,0,0,0
			c0.2-0.1,0.4-0.1,0.6-0.2c0,0,0,0,0,0c0.1,0,0.1,0,0.2-0.1c0,0,0,0,0,0c0.2-0.1,0.4-0.1,0.6-0.2c0,0,0,0,0,0c0,0,0,0,0,0
			c0,0,0,0,0,0c0.4-0.1,0.9-0.3,1.4-0.4c0.1,0,0.1,0,0.2,0c0.4-0.1,0.9-0.2,1.3-0.3c0.1,0,0.2,0,0.3-0.1c-0.1,0-0.1,0-0.2,0
			c0.1,0,0.1,0,0.2,0c0,0,0,0,0,0c0.1,0,0.3,0,0.4-0.1c0,0,0,0,0,0c0.1,0,0.1,0,0.2,0c0,0,0,0,0,0c0,0-0.1,0-0.1,0
			c0.1,0,0.1,0,0.2,0c0.6-0.1,1.1,0.2,1.4,0.6c0.2,0.2,0.3,0.5,0.3,0.8c0.1,0.9-0.5,1.7-1.3,1.8c0,0,0,0,0,0c0,0,0,0,0,0
			c-1.3,0.2-2.6,0.5-3.9,0.9c0,0,0,0,0,0c0,0,0,0-0.1,0c0,0,0,0,0,0c-0.4,0.1-0.8,0.3-1.2,0.5c-0.8,0.3-1.1,1.3-0.8,2.1
			c0.3,0.8,1.3,1.2,2.1,0.8c2.2-0.9,4.5-1.4,6.9-1.4c0.1,0,0.1,0,0.2,0c0.2,0,0.3,0,0.5,0c0.1,0,0.2,0,0.3,0c0.1,0,0.3,0,0.5,0
			c0.1,0,0.2,0,0.3,0c0.1,0,0.2,0,0.3,0c0,0,0,0,0,0c0,0,0,0,0.1,0c0.4,0.1,0.7,0.3,0.9,0.6c0.2,0.3,0.4,0.7,0.3,1.2
			c-0.1,0.9-0.9,1.5-1.8,1.4c-2.5-0.3-5,0-7.2,1l-0.1,0c-0.8,0.3-1.2,1.3-0.8,2.1c0.3,0.8,1.3,1.2,2.1,0.8c4.6-1.9,10-0.5,13,3.4
			c3.1,4,3.1,9.5,0.1,13.5c-0.5,0.7-0.4,1.7,0.3,2.2c0.7,0.5,1.7,0.4,2.2-0.3l0.2-0.2c1.4-1.9,2.3-4.2,2.6-6.6
			c0.1-0.9,0.9-1.5,1.8-1.4c0.4,0.1,0.8,0.3,1.1,0.6c0.2,0.3,0.3,0.7,0.3,1.1c0,0,0,0,0,0.1c0,0,0,0,0,0c0,0.1,0,0.2-0.1,0.3
			c0,0.1,0,0.2,0,0.3c0,0.1-0.1,0.3-0.1,0.4c0,0.1,0,0.2-0.1,0.3c0,0.2-0.1,0.3-0.1,0.5c0,0.1,0,0.1,0,0.2c-0.6,2.3-1.6,4.4-3,6.3
			c-0.5,0.7-0.4,1.7,0.3,2.2c0.7,0.5,1.7,0.4,2.2-0.3c0.3-0.4,0.5-0.7,0.8-1.1c0,0,0,0,0,0c0,0,0,0,0-0.1c0,0,0,0,0,0
			c0.7-1.1,1.4-2.3,1.9-3.5c0,0,0,0,0,0c0,0,0,0,0,0c0.3-0.8,1.2-1.2,2.1-0.9c0.3,0.1,0.5,0.3,0.6,0.5c0.3,0.4,0.4,1,0.2,1.5
			c0,0.1,0,0.1-0.1,0.2c-0.1,0.2-0.2,0.4-0.2,0.6c0,0.1-0.1,0.2-0.1,0.3c-0.1,0.2-0.2,0.4-0.3,0.6c0,0.1-0.1,0.2-0.1,0.2
			c-0.1,0.2-0.2,0.4-0.3,0.6c0,0.1-0.1,0.1-0.1,0.2c-0.1,0.3-0.3,0.5-0.5,0.8c0,0,0,0,0,0c0,0,0,0,0,0c-0.1,0.2-0.2,0.4-0.4,0.6
			c0,0-0.1,0.1-0.1,0.1c0,0,0,0,0,0c-0.1,0.1-0.1,0.2-0.2,0.3c0,0.1-0.1,0.1-0.1,0.2c0,0,0,0-0.1,0.1c-0.1,0.2-0.3,0.4-0.4,0.6
			c-0.5,0.7-0.4,1.7,0.3,2.2c0.7,0.5,1.7,0.4,2.2-0.3c7.3-9.7,7.3-23.1-0.2-32.7c-7.5-9.6-20.5-13-31.6-8.3
			C1612.6-117.8,1612.2-116.9,1612.6-116.1z M1645.5-83.7c0,0.1-0.1,0.2-0.1,0.2C1645.4-83.6,1645.4-83.7,1645.5-83.7z M1645.1-82.9
			c0,0.1-0.1,0.1-0.1,0.2C1645-82.7,1645-82.8,1645.1-82.9z M1644.6-82c0,0-0.1,0.1-0.1,0.1C1644.6-81.9,1644.6-82,1644.6-82z
			 M1645.7-84.4c0,0,0-0.1,0.1-0.1C1645.8-84.5,1645.8-84.5,1645.7-84.4C1645.8-84.4,1645.8-84.4,1645.7-84.4z"/>
		<path style="fill:#363532;" d="M1642.7-79.1C1642.7-79.1,1642.7-79.1,1642.7-79.1c0.2-0.2,0.3-0.4,0.4-0.6
			C1643-79.4,1642.8-79.3,1642.7-79.1z"/>
	</g>
</g>
<g id="tblock1">
	<path style="fill:#3498DB;" d="M505.3-211.1h257.1v68.8H505.3V-211.1z"/>
	<path style="fill:#3498DB;" d="M808.5-173.5l-48,13v-24L808.5-173.5z"/>
	<g>
		<g>
			<text transform="matrix(1 0 0 1 563.7349 -119.7539)" style="fill:#ECF0F1; font-family:'ArialHebrew-Light'; font-size:21px;"> </text>
		</g>
		<g>
			<text transform="matrix(1 0 0 1 513.0908 -157.2051)" style="fill:#ECF0F1; font-family:'Roboto-Light'; font-size:18px;">UX and Design </text>
			<text transform="matrix(1 0 0 1 513.5 -185.0215)" style="fill:#ECF0F1; font-family:'Roboto-Light'; font-size:18px;">Front-End development </text>
			<text transform="matrix(1 0 0 1 549.0781 -161.0215)" style="fill:#ECF0F1; font-family:'ArialHebrew-Light'; font-size:21px;"> </text>
			<text transform="matrix(1 0 0 1 588.5332 -191.0215)" style="fill:#ECF0F1; font-family:'ArialHebrew-Light'; font-size:21px;"> </text>
			<text transform="matrix(1 0 0 1 655.4971 -191.0215)" style="fill:#ECF0F1; font-family:'ArialHebrew-Light'; font-size:21px;"> </text>
		</g>
		<g>
			<text transform="matrix(1 0 0 1 613.1089 -143.5107)" style="fill:#ECF0F1; font-family:'ArialHebrew-Light'; font-size:21px;"> </text>
		</g>
	</g>
</g>
<g id="tblock2">
	<path style="fill:#3498DB;" d="M1231.1-209.4h257.1v69.8h-257.1V-209.4z"/>
	<path style="fill:#3498DB;" d="M1360.6-107l-13-48h24L1360.6-107z"/>
	<text transform="matrix(1 0 0 1 1241.8848 -180.0371)" style="fill:#ECF0F1; font-family:'Roboto-Light'; font-size:18px;">Mobile Applications</text>
	<text transform="matrix(1 0 0 1 1241.8848 -157.7661)" style="fill:#ECF0F1; font-family:'Roboto-Light'; font-size:18px;">Responsive Web Design</text>
</g>
<g id="tblock3">
	<path style="fill:#3498DB;" d="M865.2,167.9h314.3v124.8H865.2V167.9z"/>
	<path style="fill:#3498DB;" d="M997,125.6l13,48h-24L997,125.6z"/>
	<g>
		<g>
			<text transform="matrix(1 0 0 1 881.4409 197.2188)" style="fill:#ECF0F1; font-family:'Roboto-Light'; font-size:18px;">Project Management</text>
			<text transform="matrix(1 0 0 1 943.8232 192.6143)" style="fill:#ECF0F1; font-family:'ArialHebrew-Light'; font-size:21px;"> </text>
			<text transform="matrix(1 0 0 1 1085.8799 192.6143)" style="fill:#ECF0F1; font-family:'Roboto-Light'; font-size:18px;"> </text>
		</g>
		<g>
			<text transform="matrix(1 0 0 1 953.7783 216.3701)" style="fill:#ECF0F1; font-family:'ArialHebrew-Light'; font-size:21px;"> </text>
			<text transform="matrix(1 0 0 1 972.3174 216.3701)" style="fill:#ECF0F1; font-family:'ArialHebrew-Light'; font-size:21px;"> </text>
			<text transform="matrix(1 0 0 1 1035.46 216.3701)" style="fill:#ECF0F1; font-family:'ArialHebrew-Light'; font-size:21px;"> </text>
		</g>
		<g>
			<text transform="matrix(1 0 0 1 923.4541 240.126)" style="fill:#ECF0F1; font-family:'ArialHebrew-Light'; font-size:21px;"> </text>
		</g>
		<g>
			<text transform="matrix(1 0 0 1 881.4409 221.9189)" style="fill:#ECF0F1; font-family:'Roboto-Light'; font-size:18px;">Estimating / Strategy / Planning</text>
			<text transform="matrix(1 0 0 1 881.4409 273.4854)" style="fill:#ECF0F1; font-family:'Roboto-Light'; font-size:18px;">Client relationship</text>
			<text transform="matrix(1 0 0 1 933.5547 263.8818)" style="fill:#ECF0F1; font-family:'ArialHebrew-Light'; font-size:21px;"> </text>
			<text transform="matrix(1 0 0 1 993.6738 263.8818)" style="fill:#ECF0F1; font-family:'ArialHebrew-Light'; font-size:21px;"> </text>
		</g>
		<text transform="matrix(1 0 0 1 881.4409 247.4854)" style="fill:#ECF0F1; font-family:'Roboto-Light'; font-size:18px;">Mentoring, Team Leading</text>
	</g>
</g>
<g id="title">
	
		<text id="texttitle" transform="matrix(1 0 0 1 512.6812 -321.0195)" style="fill:#F5F7FA; font-family:'Roboto-Thin'; font-size:36px;">Knowledge, skills and abilities:</text>
</g>
<path id="wire2" style="opacity:0.6;fill:none;stroke:#EFEFEF;stroke-miterlimit:10;enable-background:new    ;" d="M1167.2-369.2
	l-1.2,1.2c-65.5,59.8-48.7,76-135.9,87c-56.8,7.2-163,16-199.6,65.9c-46,62.6-33.6,201.1,62.6,201.1c91.1,0,204.7,0,295.9,0
	c0-22.6,0-60.9,0-90.1c31.9,0,29.2,0.1,64.3,0.1c46.1,0,100.7,0,146.7,0c0,18.9,0.7,70.3,0.7,87.3c0,38.2,0,117.9,0,156.1
	c-36.7,0-11.8,0.4-65.7,0.4c-38.8,0-89.6,11.3-120.6-12.7c-66.5-51.3-152.9-21.5-227-8.1c-60.8,11-140.9-14.7-195.5,18.5
	c-71.5,43.4-34.2,173.1-108,208.6c-32.3,15.5-93.5,2.1-97.8,54.3"/>
</svg>
