<?xml version="1.0" encoding="utf-8"?>
<!-- Generator: Adobe Illustrator 16.0.0, SVG Export Plug-In . SVG Version: 6.00 Build 0)  -->
<!DOCTYPE svg PUBLIC "-//W3C//DTD SVG 1.1//EN" "http://www.w3.org/Graphics/SVG/1.1/DTD/svg11.dtd">
<svg version="1.1" id="svg2" xmlns="http://www.w3.org/2000/svg" xmlns:xlink="http://www.w3.org/1999/xlink" x="0px" y="0px"
	 width="1024px" height="768px" viewBox="0 0 1024 768" enable-background="new 0 0 1024 768" xml:space="preserve">
<g id="bg2_1_">
	<rect x="-3863.5" y="-2291.136" fill="#44C650" width="8736.682" height="5395.95"/>
</g>
<g id="objects" xmlns:rdf="http://www.w3.org/1999/02/22-rdf-syntax-ns#" xmlns:sodipodi="http://sodipodi.sourceforge.net/DTD/sodipodi-0.dtd" xmlns:inkscape="http://www.inkscape.org/namespaces/inkscape" xmlns:svg="http://www.w3.org/2000/svg" xmlns:dc="http://purl.org/dc/elements/1.1/" xmlns:cc="http://creativecommons.org/ns#" sodipodi:docname="drawing.svg" inkscape:version="0.48.4 r9939">
	<g id="iphone">
		<path fill="#0F0D10" d="M942.459,437.872l1.232,9.742c0.45,3.569,3.743,6.126,7.315,5.677l51.967-6.58
			c3.574-0.454,6.125-3.745,5.678-7.319l-1.233-9.74L942.459,437.872z"/>
		<path fill="#0F0D10" d="M995.079,332.209l-1.233-9.744c-0.453-3.573-3.746-6.125-7.315-5.673l-51.972,6.58
			c-3.569,0.453-6.125,3.746-5.672,7.318l1.232,9.745L995.079,332.209z"/>
		
			<rect x="935.992" y="335.944" transform="matrix(0.9921 -0.1256 0.1256 0.9921 -40.6926 124.7245)" fill="#0F0D10" width="65.489" height="98.234"/>
		
			<rect x="939.272" y="335.926" transform="matrix(0.9921 -0.1256 0.1256 0.9921 -40.6887 124.7176)" fill="#F5F7FA" width="58.938" height="98.236"/>
		<circle fill="#272528" cx="975.967" cy="441.881" r="4.911"/>
		<g id="s3">
			
				<rect id="s3-bg1" x="942.977" y="394.631" transform="matrix(0.9921 -0.1256 0.1256 0.9921 -44.3351 125.429)" fill="#CCD1D9" width="58.939" height="39.295"/>
			<g>
				
					<rect id="i1" x="959.719" y="416.751" transform="matrix(0.9921 -0.1256 0.1256 0.9921 -44.7292 125.4446)" fill="#F5F7FA" width="26.197" height="1.636"/>
				
					<rect id="i2" x="960.608" y="423.157" transform="matrix(0.9921 -0.1256 0.1256 0.9921 -45.5486 125.6823)" fill="#F5F7FA" width="26.197" height="1.639"/>
				
					<rect id="i3" x="960.176" y="419.922" transform="matrix(0.9921 -0.1256 0.1256 0.9921 -45.1428 125.593)" fill="#F5F7FA" width="26.199" height="1.638"/>
				
					<rect id="i4" x="961.014" y="427.251" transform="matrix(0.9921 -0.1257 0.1257 0.9921 -46.1384 125.0322)" fill="#F5F7FA" width="13.097" height="1.64"/>
				
					<rect id="i5" x="958.438" y="400.408" transform="matrix(0.9921 -0.1256 0.1256 0.9921 -43.4081 125.2046)" fill="#44C650" width="26.196" height="13.097"/>
			</g>
			<g>
				
					<rect id="i6" x="951.132" y="374.486" transform="matrix(0.9921 -0.1256 0.1256 0.9921 -39.4769 124.4926)" fill="#AAB2BD" width="32.749" height="1.636"/>
				
					<rect id="i7" x="951.966" y="381.003" transform="matrix(0.9921 -0.1256 0.1256 0.9921 -40.289 124.6489)" fill="#AAB2BD" width="32.749" height="1.638"/>
				
					<rect id="i8" x="951.544" y="377.74" transform="matrix(0.9921 -0.1256 0.1256 0.9921 -39.8807 124.5626)" fill="#AAB2BD" width="32.747" height="1.638"/>
				
					<rect id="i9" x="958.943" y="384.182" transform="matrix(0.9921 -0.1256 0.1256 0.9921 -40.6716 124.6768)" fill="#AAB2BD" width="19.648" height="1.636"/>
				
					<rect id="i10" x="941.713" y="342.736" transform="matrix(0.9921 -0.1256 0.1256 0.9921 -36.6444 123.9578)" fill="#3498DB" width="45.844" height="19.649"/>
				
					<rect id="i11" x="947.036" y="367.581" transform="matrix(0.9921 -0.1256 0.1256 0.9921 -38.6674 124.3367)" fill="#E1E1E2" width="39.296" height="2.456"/>
			</g>
		</g>
	</g>
	<g id="ipad">
		<path fill="#0F0D10" d="M889.811,301.583v-12c0-4.4-3.604-8-8-8h-144c-4.397,0-8,3.6-8,8v12H889.811z"/>
		<path fill="#0F0D10" d="M729.811,469.584v12c0,4.396,3.603,8,8,8h144c4.396,0,8-3.604,8-8v-12H729.811L729.811,469.584z"/>
		<rect x="729.811" y="301.583" fill="#0F0D10" width="160" height="168.001"/>
		<rect x="737.811" y="301.583" fill="#C4C3C4" width="144" height="168.001"/>
		<circle fill="#272528" cx="809.811" cy="479.584" r="6"/>
		<g id="s2">
			<rect x="737.811" y="301.583" fill="#E6E9ED" width="144" height="168.001"/>
			<rect id="s2-bg1" x="737.811" y="405.584" fill="#FFFFFF" width="144" height="64"/>
			<g>
				<rect id="g1" x="761.811" y="317.583" fill="#44C650" width="96" height="48"/>
				<g id="g2g">
					<rect id="g2" x="777.811" y="380.583" fill="#434A54" width="64" height="2"/>
					<rect id="g3" x="777.811" y="388.583" fill="#434A54" width="64" height="1.999"/>
					<rect id="g4" x="777.811" y="384.583" fill="#434A54" width="64" height="2"/>
					<rect id="g5" x="785.811" y="392.582" fill="#434A54" width="48" height="2"/>
				</g>
				<rect id="g21" x="769.811" y="371.583" fill="#4FC1E9" width="80" height="4"/>
			</g>
			<g>
				<g id="g6g">
					<rect id="g6" x="793.811" y="437.584" fill="#AAB2BD" width="32" height="2"/>
					<rect id="g7" x="793.811" y="445.584" fill="#AAB2BD" width="32" height="2"/>
					<rect id="g8" x="793.811" y="441.584" fill="#AAB2BD" width="32" height="2"/>
					<rect id="g9" x="793.811" y="449.584" fill="#AAB2BD" width="16" height="2"/>
				</g>
				<rect id="g10" x="793.811" y="417.584" fill="#44C650" width="32" height="16"/>
			</g>
			<g>
				<g id="g11g">
					<rect id="g11" x="745.811" y="449.584" fill="#AAB2BD" width="16" height="2"/>
					<rect id="g12" x="745.811" y="441.584" fill="#AAB2BD" width="32" height="2"/>
					<rect id="g13" x="745.811" y="445.584" fill="#AAB2BD" width="32" height="2"/>
					<rect id="g14" x="745.811" y="437.584" fill="#AAB2BD" width="32" height="2"/>
				</g>
				<rect id="g15" x="745.811" y="417.584" fill="#44C650" width="32" height="16"/>
			</g>
			<g>
				<rect id="g16" x="841.811" y="437.584" fill="#AAB2BD" width="32" height="2"/>
				<rect id="g17" x="841.811" y="445.584" fill="#AAB2BD" width="32" height="2"/>
				<rect id="g18" x="841.811" y="441.584" fill="#AAB2BD" width="32" height="2"/>
				<rect id="g19" x="841.811" y="449.584" fill="#AAB2BD" width="16" height="2"/>
				<rect id="g20" x="841.811" y="417.584" fill="#44C650" width="32" height="16"/>
			</g>
			<rect x="737.811" y="301.583" fill="#4B4A4C" width="144" height="8"/>
		</g>
	</g>
	<g id="imac">
		<rect id="gridbg" x="392.694" y="187.642" fill="#F5B8B6" width="299.489" height="165.827"/>
		<g id="grid">
			<rect id="grid1" x="411.767" y="187.562" fill="#FFFFFF" width="6.386" height="166"/>
			<rect id="grid2" x="437.767" y="187.562" fill="#FFFFFF" width="6.386" height="166"/>
			<rect id="grid3" x="462.767" y="187.562" fill="#FFFFFF" width="6.386" height="166"/>
			<rect id="grid4" x="488.767" y="187.562" fill="#FFFFFF" width="6.386" height="166"/>
			<rect id="grid5" x="513.767" y="187.562" fill="#FFFFFF" width="6.386" height="166"/>
			<rect id="grid6" x="539.767" y="187.562" fill="#FFFFFF" width="6.386" height="166"/>
			<rect id="grid7" x="564.767" y="187.562" fill="#FFFFFF" width="6.386" height="166"/>
			<rect id="grid8" x="590.767" y="187.562" fill="#FFFFFF" width="6.386" height="166"/>
			<rect id="grid9" x="615.767" y="187.562" fill="#FFFFFF" width="6.386" height="166"/>
			<rect id="grid10" x="641.767" y="187.562" fill="#FFFFFF" width="6.386" height="166"/>
			<rect id="grid11" x="666.767" y="187.562" fill="#FFFFFF" width="6.386" height="166"/>
		</g>
		<path id="bg1" fill="#F5F7FA" d="M692.158,187.642c0.01,0.008,0.02,0.015,0.024,12.771v153.056h-300V200.413
			c0.01-12.754,0.021-12.763,0.026-12.771H692.158L692.158,187.642z"/>
		<rect id="bg2" x="392.186" y="264.172" fill="#E6E9ED" width="300" height="76.551"/>
		<g id="b4">
			<rect id="f22" x="616.326" y="326.372" fill="#434A54" width="28.574" height="3.188"/>
			<rect id="f21" x="616.326" y="313.616" fill="#434A54" width="57.145" height="3.187"/>
			<rect id="f20" x="616.326" y="319.992" fill="#434A54" width="57.145" height="3.188"/>
			<rect id="f19" x="616.326" y="307.236" fill="#434A54" width="57.145" height="3.188"/>
		</g>
		<rect id="f18" x="616.326" y="275.346" fill="#3498DB" width="57.145" height="25.513"/>
		<g id="b3">
			<rect id="f17" x="513.613" y="307.236" fill="#434A54" width="57.143" height="3.188"/>
			<rect id="f16" x="513.613" y="319.992" fill="#434A54" width="57.143" height="3.188"/>
			<rect id="f15" x="513.613" y="313.616" fill="#434A54" width="57.143" height="3.187"/>
			<rect id="f14" x="513.613" y="326.372" fill="#434A54" width="28.569" height="3.188"/>
		</g>
		<rect id="f13" x="513.613" y="275.346" fill="#3498DB" width="57.143" height="25.513"/>
		<g id="b2">
			<rect id="f12" x="411.901" y="307.236" fill="#434A54" width="57.14" height="3.188"/>
			<rect id="f11" x="411.901" y="319.992" fill="#434A54" width="57.14" height="3.188"/>
			<rect id="f10" x="411.901" y="313.616" fill="#434A54" width="57.14" height="3.187"/>
			<rect id="f9" x="411.901" y="326.372" fill="#434A54" width="28.566" height="3.188"/>
		</g>
		<rect id="f8" x="411.901" y="275.346" fill="#3498DB" width="57.14" height="25.513"/>
		<g id="b1">
			<rect id="f6" x="527.758" y="202.791" fill="#E74C3C" width="110.716" height="6.379"/>
			<rect id="f5" x="527.758" y="241.062" fill="#39B54A" width="39.279" height="12.756"/>
			<rect id="f4" x="527.758" y="213.955" fill="#656D78" width="110.716" height="3.188"/>
			<rect id="f3" x="527.758" y="226.711" fill="#656D78" width="110.716" height="3.188"/>
			<rect id="f2" x="527.758" y="220.333" fill="#656D78" width="110.716" height="3.188"/>
			<rect id="f7" x="527.758" y="233.089" fill="#656D78" width="82.146" height="3.189"/>
		</g>
		<rect id="f1" x="411.901" y="202.791" fill="#3498DB" width="110.713" height="51.027"/>
	</g>
	<g id="diagramma1">
		<polygon fill="#39B54A" points="240.597,366.983 212.917,333.78 65.026,322.904 47.003,567.986 224.852,581.065 		"/>
		<polygon fill="#F5F7FA" points="216.906,330.22 69.014,319.344 50.992,564.424 228.841,577.503 244.585,363.422 		"/>
		<polygon fill="#8996A9" points="214.625,361.22 244.585,363.423 216.906,330.22 		"/>
		<g id="dg1">
			
				<ellipse id="d1" transform="matrix(-0.9973 -0.0733 0.0733 -0.9973 285.8531 723.0493)" fill="#3498DB" cx="156.194" cy="356.28" rx="14.859" ry="15.379"/>
			
				<rect id="d2" x="146.444" y="354.475" transform="matrix(0.9973 0.0733 -0.0733 0.9973 26.5415 -10.4559)" fill="#F5F7FA" width="18.573" height="3.843"/>
			
				<rect id="d3" x="152.864" y="364.888" transform="matrix(0.9973 0.0731 -0.0731 0.9973 27.9106 -10.3073)" fill="#E6E9ED" width="3.713" height="22.256"/>
		</g>
		<g id="dg2">
			<polygon id="d4" fill="#E6E9ED" points="191.69,405.157 187.985,404.886 188.96,391.616 118.561,386.438 117.856,396.023 
				114.151,395.753 115.137,382.332 192.949,388.055 			"/>
			<polygon id="d5" fill="#E74C3C" points="85.516,405.212 116.287,392.057 144.801,409.57 114.031,422.728 			"/>
			
				<rect id="d6" x="100.307" y="405.466" transform="matrix(0.9973 0.0734 -0.0734 0.9973 30.2148 -7.3547)" fill="#F5F7FA" width="29.721" height="3.843"/>
			
				<rect id="d7" x="112.09" y="414.874" transform="matrix(0.9973 0.0736 -0.0736 0.9973 31.5159 -7.2367)" fill="#E6E9ED" width="3.715" height="18.259"/>
		</g>
		<g id="dg3">
			
				<rect id="d8" x="82.611" y="430.205" transform="matrix(0.9973 0.0734 -0.0734 0.9973 33.0097 -7.0435)" fill="#3498DB" width="59.444" height="30.755"/>
			
				<rect id="d9" x="94.115" y="439.009" transform="matrix(0.9973 0.0733 -0.0733 0.9973 32.6118 -6.26)" fill="#F5F7FA" width="14.86" height="3.837"/>
			
				<rect id="d10" x="116.348" y="440.362" transform="matrix(0.9973 0.0735 -0.0735 0.9973 32.8103 -7.6241)" fill="#F5F7FA" width="7.432" height="3.843"/>
			
				<rect id="d11" x="93.468" y="447.501" transform="matrix(0.9973 0.0733 -0.0733 0.9973 33.2397 -7.003)" fill="#F5F7FA" width="37.149" height="3.839"/>
			
				<rect id="d12" x="109.064" y="449.378" transform="matrix(0.9973 0.0731 -0.0731 0.9973 34.3124 -6.8613)" fill="#E6E9ED" width="3.715" height="32.195"/>
		</g>
		<g id="dg4">
			
				<rect id="d13" x="78.647" y="476.351" transform="matrix(0.9973 0.0734 -0.0734 0.9973 36.9488 -6.6072)" fill="#3498DB" width="59.446" height="46.124"/>
			
				<rect id="d14" x="85.364" y="501.292" transform="matrix(0.9973 0.0733 -0.0733 0.9973 37.1757 -6.5374)" fill="#F5F7FA" width="44.577" height="3.841"/>
			
				<rect id="d15" x="84.771" y="507.879" transform="matrix(0.9973 0.0733 -0.0733 0.9973 37.6401 -5.3894)" fill="#F5F7FA" width="14.859" height="3.836"/>
			
				<rect id="d16" x="107.075" y="509.236" transform="matrix(0.9973 0.0733 -0.0733 0.9973 37.7761 -6.7474)" fill="#F5F7FA" width="7.432" height="3.839"/>
			
				<rect id="d17" x="85.938" y="492.808" transform="matrix(0.9973 0.0733 -0.0733 0.9973 36.5272 -5.7856)" fill="#F5F7FA" width="22.288" height="3.838"/>
			
				<rect id="d18" x="115.644" y="494.709" transform="matrix(0.9973 0.0733 -0.0733 0.9973 36.7221 -7.6833)" fill="#F5F7FA" width="14.86" height="3.843"/>
			
				<rect id="d19" x="86.494" y="485.684" transform="matrix(0.9973 0.0734 -0.0734 0.9973 36.0716 -6.3965)" fill="#F5F7FA" width="37.149" height="3.838"/>
		</g>
		<g id="dg5">
			<polygon id="d20" fill="#44C650" points="159.621,410.661 190.392,397.503 218.906,415.021 188.136,428.177 			"/>
			
				<rect id="d21" x="174.448" y="410.907" transform="matrix(0.9973 0.0733 -0.0733 0.9973 30.7724 -12.7668)" fill="#F5F7FA" width="29.721" height="3.844"/>
			
				<rect id="d22" x="172.153" y="435.676" transform="matrix(0.9973 0.0733 -0.0733 0.9973 33.0047 -12.5164)" fill="#3498DB" width="29.721" height="15.377"/>
		</g>
		<g id="dg6">
			
				<rect id="d23" x="186.198" y="420.336" transform="matrix(0.9973 0.0731 -0.0731 0.9973 31.8871 -12.5944)" fill="#E6E9ED" width="3.715" height="18.258"/>
			
				<rect id="d24" x="180.052" y="441.478" transform="matrix(0.9973 0.0733 -0.0733 0.9973 32.9946 -12.5459)" fill="#F5F7FA" width="14.86" height="3.844"/>
			
				<rect id="d25" x="183.698" y="438.505" transform="matrix(0.9973 0.0731 -0.0731 0.9973 34.4076 -12.3192)" fill="#E6E9ED" width="3.715" height="51.085"/>
		</g>
		<g id="dg7">
			
				<rect id="d26" x="155.568" y="458.837" transform="matrix(-0.9973 -0.0733 0.0733 -0.9973 335.8797 945.3737)" fill="#3498DB" width="59.441" height="15.372"/>
			
				<rect id="d27" x="185.765" y="465.447" transform="matrix(0.9973 0.0733 -0.0733 0.9973 34.7901 -13.177)" fill="#F5F7FA" width="22.288" height="3.837"/>
			
				<rect id="d28" x="163.52" y="463.541" transform="matrix(0.9973 0.0733 -0.0733 0.9973 34.5645 -11.2747)" fill="#F5F7FA" width="14.861" height="3.841"/>
		</g>
		<g id="dg8">
			
				<rect id="d29" x="161.361" y="481.833" transform="matrix(0.9973 0.0733 -0.0733 0.9973 36.3775 -12.1452)" fill="#3498DB" width="44.576" height="15.371"/>
			
				<rect id="d30" x="180.516" y="497.013" transform="matrix(0.9973 0.0733 -0.0733 0.9973 37.632 -12.0051)" fill="#E6E9ED" width="3.717" height="19.369"/>
			
				<rect id="d32" x="172.507" y="487.595" transform="matrix(0.9973 0.0733 -0.0733 0.9973 36.3774 -12.1454)" fill="#F5F7FA" width="22.288" height="3.843"/>
		</g>
		<g id="dg9">
			
				<ellipse id="d31" transform="matrix(-0.9973 -0.0733 0.0733 -0.9973 322.449 1067.5513)" fill="#3498DB" cx="180.813" cy="527.859" rx="14.862" ry="15.377"/>
			
				<rect id="d33" x="171.066" y="526.056" transform="matrix(0.9973 0.0733 -0.0733 0.9973 39.1799 -11.798)" fill="#FFFFFF" width="18.575" height="3.844"/>
		</g>
	</g>
	<g id="appunti">
		
			<rect x="748.774" y="517.238" transform="matrix(-0.1011 0.9949 -0.9949 -0.1011 1574.825 -132.1896)" fill="#39B54A" width="196.714" height="256.243"/>
		
			<rect x="753.772" y="513.236" transform="matrix(-0.1011 0.9949 -0.9949 -0.1011 1576.3457 -141.5686)" fill="#E6E9ED" width="196.714" height="256.243"/>
		
			<rect x="760.162" y="513.292" transform="matrix(0.0346 0.9994 -0.9994 0.0346 1469.7924 -238.7897)" fill="#F5F7FA" width="196.668" height="256.185"/>
		<g id="ag1">
			<path id="a1" fill="#44C650" d="M943.17,670.787l-108.669,4.229l-3.555-91.109l108.671-4.229L943.17,670.787z M838.668,670.514
				l99.992-3.896l-3.215-82.438l-99.99,3.896L838.668,670.514z"/>
			
				<rect id="a2" x="833.853" y="599.179" transform="matrix(0.9992 -0.0389 0.0389 0.9992 -22.7203 34.9196)" fill="#44C650" width="104.366" height="4.336"/>
		</g>
		<g id="ag2">
			<path id="a3" fill="#44C650" d="M873.412,664.814l-21.688,0.849l-0.853-21.693l21.693-0.846L873.412,664.814z M855.886,661.152
				l13.021-0.513l-0.508-13.018l-13.021,0.506L855.886,661.152z"/>
			<path id="a4" fill="#44C650" d="M899.344,663.803l-21.691,0.851l-0.849-21.69l21.688-0.849L899.344,663.803z M881.82,660.141
				l13.021-0.508l-0.514-13.021l-13.021,0.511L881.82,660.141z"/>
			<path id="a5" fill="#44C650" d="M925.391,662.789l-21.69,0.846l-0.849-21.692l21.693-0.847L925.391,662.789z M907.867,659.127
				l13.021-0.508l-0.51-13.021l-13.021,0.506L907.867,659.127z"/>
		</g>
		<g id="ag3">
			<path id="a6" fill="#44C650" d="M889.752,638.105l-39.052,1.521l-1.187-30.368l39.051-1.521L889.752,638.105z M854.873,635.119
				l30.372-1.188l-0.846-21.688l-30.372,1.186L854.873,635.119z"/>
			
				<rect id="a7" x="895.074" y="606.95" transform="matrix(0.9992 -0.039 0.039 0.9992 -23.05 35.8554)" fill="#44C650" width="26.059" height="4.336"/>
			
				<rect id="a8" x="895.356" y="615.709" transform="matrix(0.9992 -0.0389 0.0389 0.9992 -23.3391 35.7915)" fill="#44C650" width="26.144" height="4.336"/>
			
				<rect id="a9" x="895.775" y="624.464" transform="matrix(0.9992 -0.0389 0.0389 0.9992 -23.6898 35.6553)" fill="#44C650" width="17.374" height="4.337"/>
		</g>
		<g id="ag4">
			
				<rect id="a10" x="906.79" y="684.566" transform="matrix(0.9992 -0.039 0.039 0.9992 -26.0869 36.576)" fill="#44C650" width="34.771" height="4.336"/>
			
				<rect id="a11" x="907.119" y="693.264" transform="matrix(0.9992 -0.0389 0.0389 0.9992 -26.3455 36.4811)" fill="#44C650" width="34.854" height="4.336"/>
			
				<rect id="a18" x="923.892" y="675.648" transform="matrix(0.9992 -0.039 0.039 0.9992 -25.7286 36.8912)" fill="#44C650" width="17.376" height="4.338"/>
		</g>
		<g id="ag5">
			
				<rect id="a12" x="818.776" y="653.031" transform="matrix(0.9992 -0.039 0.039 0.9992 -24.9073 33.2689)" fill="#44C650" width="43.405" height="4.336"/>
			
				<rect id="a13" x="801.327" y="654.366" transform="matrix(0.9993 -0.0387 0.0387 0.9993 -24.8077 31.6755)" fill="#44C650" width="8.679" height="4.335"/>
			
				<rect id="a14" x="816.41" y="592.462" transform="matrix(0.9992 -0.039 0.039 0.9992 -22.5471 33.1298)" fill="#44C650" width="43.406" height="4.335"/>
			
				<rect id="a15" x="799.016" y="593.846" transform="matrix(0.9993 -0.0386 0.0386 0.9993 -22.4109 31.4587)" fill="#44C650" width="8.676" height="4.339"/>
			
				<rect id="a16" x="799.722" y="611.031" transform="matrix(0.9992 -0.0388 0.0388 0.9992 -23.2072 31.6884)" fill="#44C650" width="8.675" height="4.342"/>
			<polygon id="a17" fill="#44C650" points="868.953,625.743 834.108,614.202 817.146,614.862 816.979,610.524 834.725,609.833 
				870.318,621.619 			"/>
		</g>
	</g>
	<g id="appunti2">
		
			<rect x="1187.49" y="364.045" transform="matrix(0.9548 -0.2971 0.2971 0.9548 -79.371 391.0398)" fill="#363532" width="118.512" height="185.175"/>
		<circle fill="#363532" cx="1280.236" cy="364.723" r="14.821"/>
		<circle fill="#363532" cx="1326.47" cy="513.312" r="14.821"/>
		
			<rect x="1303.064" y="358.957" transform="matrix(-0.9548 0.2972 -0.2972 -0.9548 2691.5317 464.2339)" fill="#363532" width="14.818" height="155.562"/>
		<circle fill="#363532" cx="1215.461" cy="555.613" r="7.411"/>
		<circle fill="#363532" cx="1164.824" cy="392.873" r="7.41"/>
		
			<rect x="1182.564" y="388.3" transform="matrix(0.9548 -0.2972 0.2972 0.9548 -86.8324 375.9164)" fill="#363532" width="20.374" height="170.397"/>
		
			<rect x="1186.94" y="362.259" transform="matrix(0.9548 -0.2971 0.2971 0.9548 -78.8652 390.7958)" fill="#FFFFFF" width="118.512" height="185.174"/>
		<circle fill="#FFFFFF" cx="1279.686" cy="362.955" r="14.821"/>
		<circle fill="#FFFFFF" cx="1325.919" cy="511.542" r="14.82"/>
		
			<rect x="1302.378" y="357.234" transform="matrix(-0.9548 0.2972 -0.2972 -0.9548 2689.6826 461.1438)" fill="#FFFFFF" width="14.818" height="155.592"/>
		<circle fill="#FFFFFF" cx="1215.461" cy="555.613" r="5.558"/>
		<circle fill="#FFFFFF" cx="1164.273" cy="391.104" r="7.41"/>
		
			<rect x="1184.146" y="386.181" transform="matrix(0.9548 -0.2971 0.2971 0.9548 -86.4314 375.9024)" fill="#FFFFFF" width="18.515" height="172.212"/>
		<path fill="#434A54" d="M1274.73,347.035l-113.209,35.226c-3.907,1.215-6.1,5.368-4.875,9.276l50.639,162.74
			c1.215,3.896,5.369,6.089,9.275,4.874l113.211-35.229c7.812-2.432,12.181-10.736,9.738-18.555l-46.229-148.588
			C1290.854,348.967,1282.548,344.602,1274.73,347.035z"/>
		
			<rect x="1196.775" y="372.764" transform="matrix(0.955 -0.2967 0.2967 0.955 -85.4015 377.3667)" fill="#A0D468" width="7.412" height="194.525"/>
		
			<rect x="1208.341" y="419.327" transform="matrix(-0.9542 0.2992 -0.2992 -0.9542 2551.0278 451.7938)" fill="#E6E9ED" width="65.176" height="3.706"/>
		
			<rect x="1212.71" y="433.815" transform="matrix(-0.9542 0.2992 -0.2992 -0.9542 2563.9031 478.7873)" fill="#E6E9ED" width="65.177" height="3.708"/>
		
			<rect x="1217.074" y="448.364" transform="matrix(-0.9542 0.2992 -0.2992 -0.9542 2576.7874 505.9091)" fill="#E6E9ED" width="65.18" height="3.705"/>
		
			<rect x="1221.445" y="462.88" transform="matrix(-0.9542 0.2992 -0.2992 -0.9542 2589.6675 532.9885)" fill="#E6E9ED" width="65.177" height="3.705"/>
	</g>
	<g id="coffee">
		<circle fill="#39B54A" cx="1122.833" cy="276.583" r="50.582"/>
		<circle fill="#E6E9ED" cx="1127.833" cy="274.583" r="50.582"/>
		<path fill="#3498DB" d="M1127.834,232.883c23.03,0,41.7,18.67,41.7,41.7s-18.67,41.7-41.7,41.7
			c-10.371,0-19.858-3.786-27.153-10.052c-8.9-7.647-14.547-18.989-14.547-31.648
			C1086.134,251.553,1104.804,232.883,1127.834,232.883z"/>
		<path id="linecover2" fill="#E6E9ED" d="M1127.834,231.883c23.583,0,42.7,19.118,42.7,42.7s-19.117,42.7-42.7,42.7
			c-10.62,0-20.335-3.877-27.805-10.293c-9.118-7.831-14.896-19.444-14.896-32.407C1085.134,251,1104.251,231.883,1127.834,231.883z
			"/>
		
			<ellipse transform="matrix(0.993 0.1184 -0.1184 0.993 44.1305 -129.7325)" fill="#D8D8DA" cx="1113.979" cy="306.564" rx="11.564" ry="7.709"/>
		<polygon fill="#CCD1D9" points="1064.655,296.808 1105.483,303.748 1105.058,307.324 1063.743,304.462 		"/>
		
			<ellipse transform="matrix(0.993 0.1184 -0.1184 0.993 44.1365 -129.7336)" fill="#AAB2BD" cx="1113.863" cy="306.572" rx="9.637" ry="6.424"/>
		<path fill="#FFFFFF" d="M1100.552,231.726l9.692,12.484c1.604,2.068,1.229,5.048-0.838,6.654c-2.063,1.607-5.047,1.232-6.65-0.836
			l-9.693-12.484c-1.604-2.068-1.229-5.047,0.84-6.654C1095.966,229.283,1098.944,229.657,1100.552,231.726z"/>
		<circle fill="#FFFFFF" cx="1127.833" cy="274.583" r="34.776"/>
		<circle fill="#E6E7E8" cx="1127.833" cy="274.583" r="31.298"/>
		<circle fill="#49433C" cx="1127.833" cy="274.583" r="29.559"/>
		<path fill="#363532" d="M1106.61,291.066c9.088,11.702,26.004,13.828,37.707,4.739c0.688-0.535,0.812-1.528,0.274-2.218
			c-0.537-0.689-1.524-0.814-2.222-0.278c-0.278,0.218-0.565,0.428-0.856,0.632c-0.074,0.056-0.151,0.111-0.231,0.166
			c-0.271,0.188-0.549,0.372-0.83,0.549c-0.09,0.057-0.188,0.11-0.271,0.167c-0.189,0.119-0.396,0.235-0.59,0.347
			c-0.133,0.075-0.266,0.15-0.396,0.222c-0.229,0.125-0.455,0.244-0.688,0.36c-0.185,0.09-0.354,0.176-0.539,0.261
			c-0.14,0.064-0.271,0.127-0.403,0.188c-0.168,0.076-0.338,0.151-0.508,0.223c-0.242,0.103-0.49,0.203-0.738,0.298
			c-0.162,0.062-0.324,0.12-0.486,0.178c-0.15,0.056-0.312,0.111-0.475,0.164c-0.146,0.05-0.297,0.1-0.445,0.147
			c-0.28,0.088-0.562,0.171-0.854,0.249c-0.104,0.029-0.207,0.054-0.312,0.081c-0.25,0.064-0.5,0.124-0.754,0.18
			c-0.08,0.018-0.16,0.036-0.237,0.054c-0.343,0.072-0.687,0.137-1.021,0.194c-0.021,0.002-0.039,0.006-0.062,0.008
			c-0.189,0.033-0.396,0.065-0.598,0.092c-0.146,0.021-0.302,0.037-0.451,0.054c-0.021,0.003-0.051,0.007-0.076,0.009
			c-0.742,0.085-1.49,0.134-2.229,0.147c-0.014,0-0.021,0-0.023,0c-0.734,0.013-1.475-0.009-2.207-0.064
			c-0.043-0.003-0.086-0.007-0.129-0.011c-0.34-0.028-0.68-0.061-1.018-0.103c-0.021-0.002-0.039-0.004-0.062-0.006
			c-0.312-0.042-0.637-0.09-0.95-0.143c-0.134-0.022-0.265-0.046-0.394-0.07c-0.176-0.034-0.354-0.068-0.531-0.105
			c-0.645-0.134-1.282-0.297-1.918-0.484c-0.008-0.002-0.016-0.005-0.021-0.007c-3.418-1.023-6.596-2.808-9.25-5.243
			c-0.021-0.015-0.032-0.03-0.055-0.044c-0.146-0.14-0.302-0.282-0.44-0.425c-0.121-0.118-0.242-0.238-0.361-0.358
			c-0.121-0.124-0.242-0.246-0.357-0.373c-0.197-0.215-0.396-0.435-0.602-0.659c-0.064-0.078-0.135-0.157-0.205-0.237
			c-0.229-0.268-0.451-0.54-0.67-0.819c-0.217-0.28-0.426-0.565-0.627-0.853c-0.062-0.085-0.121-0.171-0.181-0.256
			c-0.168-0.245-0.332-0.492-0.489-0.741c-0.095-0.147-0.188-0.295-0.271-0.442c-0.087-0.146-0.175-0.291-0.261-0.438
			c-0.102-0.179-0.201-0.358-0.301-0.539c-0.01-0.019-0.021-0.04-0.031-0.06c-1.698-3.179-2.645-6.695-2.789-10.259
			c0-0.009-0.002-0.017-0.002-0.025c-0.021-0.66-0.021-1.319,0.009-1.978c0.015-0.181,0.021-0.359,0.026-0.541
			c0.01-0.132,0.021-0.263,0.029-0.394c0.021-0.32,0.057-0.641,0.098-0.96c0.002-0.02,0.009-0.039,0.011-0.058
			c0.041-0.338,0.101-0.675,0.147-1.011c0.008-0.043,0.018-0.086,0.021-0.129c0.133-0.723,0.289-1.441,0.48-2.154
			c0.002-0.007,0.006-0.015,0.008-0.022c0.197-0.717,0.434-1.428,0.695-2.13c0.01-0.024,0.02-0.047,0.025-0.071
			c0.057-0.142,0.104-0.283,0.16-0.424c0.076-0.187,0.156-0.372,0.234-0.556c0.01-0.017,0.021-0.035,0.021-0.052
			c0.144-0.32,0.286-0.636,0.438-0.948c0.035-0.074,0.074-0.146,0.109-0.22c0.112-0.229,0.231-0.458,0.354-0.684
			c0.057-0.095,0.104-0.19,0.156-0.285c0.146-0.258,0.297-0.514,0.453-0.766c0.08-0.133,0.168-0.265,0.252-0.397
			c0.092-0.14,0.187-0.28,0.271-0.418c0.102-0.143,0.189-0.286,0.291-0.428c0.15-0.217,0.312-0.432,0.479-0.644
			c0.105-0.146,0.228-0.291,0.34-0.435c0.097-0.117,0.188-0.233,0.281-0.348c0.131-0.153,0.258-0.307,0.389-0.458
			c0.17-0.194,0.345-0.386,0.521-0.576c0.104-0.11,0.207-0.219,0.312-0.329c0.16-0.163,0.318-0.324,0.479-0.483
			c0.074-0.076,0.146-0.152,0.229-0.225c0.24-0.229,0.486-0.45,0.736-0.669c0.067-0.062,0.146-0.125,0.221-0.188
			c0.271-0.23,0.544-0.458,0.824-0.676c0.688-0.536,0.812-1.528,0.272-2.218c-0.535-0.688-1.522-0.812-2.217-0.279
			C1099.646,262.45,1097.521,279.365,1106.61,291.066z"/>
		<path fill="#363532" d="M1116.561,251.887c0.342,0.803,1.271,1.182,2.066,0.842c0.216-0.089,0.429-0.171,0.643-0.253
			c0.03-0.013,0.062-0.025,0.098-0.038c0.002-0.001,0.004-0.002,0.006-0.002c0.199-0.076,0.396-0.148,0.604-0.219
			c0.01-0.001,0.015-0.004,0.021-0.006c0.055-0.018,0.104-0.036,0.155-0.055c0.005,0,0.009-0.002,0.013-0.003
			c0.209-0.073,0.422-0.142,0.635-0.208c0.006-0.002,0.013-0.003,0.018-0.005c0.018-0.003,0.023-0.008,0.041-0.012
			c0.016-0.003,0.021-0.007,0.036-0.011c0.444-0.138,0.897-0.258,1.354-0.369c0.051-0.012,0.104-0.026,0.151-0.039
			c0.438-0.104,0.883-0.193,1.324-0.271c0.104-0.021,0.213-0.037,0.313-0.055c-0.062,0.01-0.123,0.018-0.188,0.029
			c0.062-0.011,0.125-0.019,0.188-0.029c-0.002,0-0.004,0-0.006,0c0.146-0.023,0.286-0.044,0.435-0.065
			c-0.009,0.001-0.015,0.001-0.019,0.001c0.051-0.007,0.104-0.016,0.15-0.023c0.002,0,0.002,0,0.005,0
			c-0.048,0.006-0.099,0.016-0.146,0.021c0.062-0.009,0.125-0.016,0.188-0.025c0.562-0.059,1.091,0.182,1.416,0.601
			c0.166,0.212,0.273,0.47,0.314,0.755c0.113,0.859-0.479,1.651-1.342,1.777c-0.002,0-0.002,0.001-0.005,0.001
			c-0.005,0-0.011,0.002-0.013,0.002c-1.321,0.181-2.623,0.493-3.879,0.924c-0.004,0.002-0.009,0.002-0.015,0.005
			c-0.021,0.006-0.037,0.013-0.062,0.019c-0.005,0.002-0.009,0.004-0.016,0.005c-0.418,0.146-0.829,0.305-1.237,0.476
			c-0.781,0.35-1.146,1.262-0.812,2.056c0.336,0.797,1.252,1.174,2.051,0.849c2.16-0.917,4.479-1.382,6.854-1.365
			c0.062,0,0.125,0,0.188,0c0.162,0.003,0.322,0.01,0.485,0.017c0.104,0.005,0.2,0.009,0.308,0.016
			c0.149,0.009,0.302,0.021,0.453,0.033c0.104,0.011,0.213,0.021,0.316,0.033c0.104,0.012,0.221,0.019,0.323,0.033
			c0.021,0.001,0.026,0.008,0.043,0.009c0.021,0.003,0.041,0.01,0.062,0.014c0.387,0.076,0.721,0.282,0.943,0.575
			c0.246,0.32,0.375,0.734,0.315,1.167c-0.104,0.866-0.896,1.479-1.768,1.371c-2.487-0.312-4.959,0.027-7.218,0.965l-0.099,0.047
			c-0.793,0.345-1.164,1.264-0.826,2.062c0.338,0.802,1.27,1.182,2.067,0.842c4.604-1.942,9.966-0.539,13.031,3.412
			c3.066,3.951,3.104,9.49,0.079,13.472c-0.524,0.695-0.394,1.688,0.305,2.214c0.688,0.525,1.675,0.393,2.202-0.29l0.18-0.227
			c1.402-1.922,2.312-4.181,2.608-6.607c0.107-0.866,0.896-1.48,1.771-1.372c0.438,0.055,0.806,0.28,1.054,0.6
			c0.229,0.292,0.348,0.666,0.319,1.06c-0.002,0.021,0,0.041-0.002,0.062c0,0.015,0.002,0.029,0,0.044
			c-0.019,0.11-0.032,0.217-0.054,0.326c-0.016,0.105-0.024,0.211-0.047,0.316c-0.021,0.15-0.053,0.299-0.078,0.449
			c-0.021,0.101-0.037,0.201-0.062,0.301c-0.032,0.159-0.064,0.317-0.104,0.475c-0.016,0.061-0.026,0.12-0.045,0.181
			c-0.567,2.303-1.598,4.44-3.021,6.307c-0.521,0.695-0.375,1.675,0.312,2.197c0.688,0.522,1.659,0.393,2.191-0.282
			c0.27-0.351,0.521-0.711,0.77-1.08c0.002-0.004,0.008-0.008,0.013-0.013c0.015-0.017,0.021-0.034,0.03-0.053
			c0.002-0.002,0.006-0.007,0.011-0.01c0.729-1.11,1.354-2.291,1.854-3.529c0-0.003,0.003-0.006,0.005-0.008
			c0-0.002,0.002-0.003,0.002-0.004c0.334-0.8,1.248-1.183,2.056-0.856c0.271,0.108,0.485,0.281,0.648,0.493
			c0.325,0.42,0.434,0.993,0.229,1.523c-0.021,0.051-0.038,0.102-0.062,0.153c-0.08,0.194-0.164,0.387-0.25,0.579
			c-0.041,0.093-0.08,0.185-0.123,0.276c-0.092,0.198-0.188,0.393-0.281,0.587c-0.036,0.082-0.075,0.165-0.116,0.247
			c-0.109,0.216-0.229,0.429-0.347,0.641c-0.026,0.059-0.062,0.119-0.095,0.176c-0.146,0.264-0.301,0.525-0.457,0.783
			c-0.012,0.017-0.021,0.033-0.027,0.05c-0.005,0.005-0.007,0.011-0.012,0.017c-0.123,0.2-0.25,0.398-0.379,0.595
			c-0.025,0.042-0.062,0.084-0.084,0.127c-0.004,0.005-0.008,0.01-0.012,0.015c-0.072,0.11-0.146,0.218-0.229,0.327
			c-0.049,0.071-0.098,0.144-0.146,0.214c-0.021,0.023-0.035,0.047-0.054,0.07c-0.14,0.19-0.271,0.38-0.409,0.567
			c-0.525,0.695-0.396,1.688,0.303,2.214c0.692,0.528,1.688,0.392,2.217-0.303c7.339-9.67,7.264-23.124-0.188-32.719
			c-7.451-9.594-20.474-13-31.649-8.282C1116.599,250.156,1116.222,251.083,1116.561,251.887z M1149.479,284.252
			c-0.031,0.078-0.066,0.156-0.104,0.233C1149.409,284.408,1149.442,284.33,1149.479,284.252z M1149.069,285.119
			c-0.035,0.067-0.064,0.136-0.104,0.203C1149.003,285.255,1149.034,285.186,1149.069,285.119z M1148.605,286.004
			c-0.022,0.045-0.051,0.092-0.073,0.138C1148.561,286.096,1148.583,286.049,1148.605,286.004z M1149.747,283.624
			c0.021-0.044,0.035-0.09,0.058-0.135c-0.005,0.012-0.009,0.021-0.015,0.037C1149.774,283.559,1149.761,283.591,1149.747,283.624z"
			/>
		<path fill="#363532" d="M1146.708,288.932c0.006-0.009,0.017-0.015,0.021-0.023c0.138-0.176,0.265-0.354,0.394-0.535
			C1146.983,288.562,1146.847,288.748,1146.708,288.932z"/>
	</g>
</g>
<g id="tblock1">
	<path fill="#3498DB" d="M9.253,126.877h257.071v132.785H9.253V126.877z"/>
	<path fill="#3498DB" d="M312.5,194.5l-48,13v-24L312.5,194.5z"/>
	<g>
		<g>
			<text transform="matrix(1 0 0 1 17.2954 248.2461)" fill="#ECF0F1" font-weight="300" font-size="18">Web applications</text>
			<text transform="matrix(1 0 0 1 67.7349 248.2461)" fill="#ECF0F1" font-family="'ArialHebrew-Light'" font-size="21"> </text>
		</g>
		<text transform="matrix(1 0 0 1 16.6812 200.6123)" fill="#ECF0F1" font-weight="300" font-size="18">OO JavaScript</text>
		<g>
			<text transform="matrix(1 0 0 1 17.0908 176.7949)" fill="#ECF0F1" font-weight="300" font-size="18">UX and Design thinking</text>
			<text transform="matrix(1 0 0 1 17.5 152.9785)" fill="#ECF0F1" font-weight="300" font-size="18">Front-End development </text>
			<text transform="matrix(1 0 0 1 53.0781 176.9785)" fill="#ECF0F1" font-family="'ArialHebrew-Light'" font-size="21"> </text>
			<text transform="matrix(1 0 0 1 92.5332 176.9785)" fill="#ECF0F1" font-family="'ArialHebrew-Light'" font-size="21"> </text>
			<text transform="matrix(1 0 0 1 159.4971 176.9785)" fill="#ECF0F1" font-family="'ArialHebrew-Light'" font-size="21"> </text>
		</g>
		<g>
			<text transform="matrix(1 0 0 1 16.8857 224.4287)" fill="#ECF0F1" font-weight="300" font-size="18">E-learning platforms</text>
			<text transform="matrix(1 0 0 1 117.1089 224.4893)" fill="#ECF0F1" font-family="'ArialHebrew-Light'" font-size="21"> </text>
		</g>
	</g>
</g>
<g id="tblock2">
	<path fill="#3498DB" d="M735.113,95.586h257.067v132.785H735.113V95.586z"/>
	<path fill="#3498DB" d="M864.648,261.001l-13-48h24L864.648,261.001z"/>
	<text transform="matrix(1 0 0 1 745.8848 120.9629)" fill="#ECF0F1" font-weight="300" font-size="18">Mobile Applications</text>
	<text transform="matrix(1 0 0 1 745.8848 190.2339)" fill="#ECF0F1" font-weight="300" font-size="18">Responsive Web Design</text>
	<text transform="matrix(1 0 0 1 745.8848 144.0537)" fill="#ECF0F1" font-weight="300" font-size="18">CMS and Frameworks</text>
	<text transform="matrix(1 0 0 1 745.8848 213.3247)" fill="#ECF0F1" font-weight="300" font-size="18">Image editing skills</text>
	<text transform="matrix(1 0 0 1 745.8848 167.144)" fill="#ECF0F1" font-weight="300" font-size="18">E-Commerce Development</text>
</g>
<g id="tblock3">
	<path fill="#3498DB" d="M369.194,535.938H683.5v132.785H369.194V535.938z"/>
	<path fill="#3498DB" d="M500.959,493.594l13,48h-24L500.959,493.594z"/>
	<g>
		<g>
			<text transform="matrix(1 0 0 1 385.4409 565.2188)" fill="#ECF0F1" font-weight="300" font-size="18">Project Management &amp; Strategy</text>
			<text transform="matrix(1 0 0 1 447.8232 560.6143)" fill="#ECF0F1" font-family="'ArialHebrew-Light'" font-size="21"> </text>
			<text transform="matrix(1 0 0 1 571.3408 560.6143)" fill="#ECF0F1" font-family="'ArialHebrew-Light'" font-size="21"> </text>
			<text transform="matrix(1 0 0 1 589.8799 560.6143)" fill="#ECF0F1" font-weight="300" font-size="18"> </text>
		</g>
		<g>
			<text transform="matrix(1 0 0 1 457.7783 584.3701)" fill="#ECF0F1" font-family="'ArialHebrew-Light'" font-size="21"> </text>
			<text transform="matrix(1 0 0 1 476.3174 584.3701)" fill="#ECF0F1" font-family="'ArialHebrew-Light'" font-size="21"> </text>
			<text transform="matrix(1 0 0 1 539.46 584.3701)" fill="#ECF0F1" font-family="'ArialHebrew-Light'" font-size="21"> </text>
		</g>
		<g>
			<text transform="matrix(1 0 0 1 385.4409 586.7852)" fill="#ECF0F1" font-weight="300" font-size="18">Data Models</text>
			<text transform="matrix(1 0 0 1 427.4541 608.126)" fill="#ECF0F1" font-family="'ArialHebrew-Light'" font-size="21"> </text>
		</g>
		<g>
			<text transform="matrix(1 0 0 1 385.4409 608.3516)" fill="#ECF0F1" font-weight="300" font-size="18">Social Media Platforms</text>
			<text transform="matrix(1 0 0 1 385.4409 629.9189)" fill="#ECF0F1" font-weight="300" font-size="18">Estimating / Strategy / Planning</text>
			<text transform="matrix(1 0 0 1 385.4409 651.4854)" fill="#ECF0F1" font-weight="300" font-size="18">Client relationship</text>
			<text transform="matrix(1 0 0 1 437.5547 631.8818)" fill="#ECF0F1" font-family="'ArialHebrew-Light'" font-size="21"> </text>
			<text transform="matrix(1 0 0 1 497.6738 631.8818)" fill="#ECF0F1" font-family="'ArialHebrew-Light'" font-size="21"> </text>
		</g>
	</g>
</g>
<text id="title" transform="matrix(1 0 0 1 16.6812 46.9805)" fill="#F5F7FA" font-weight="100" font-size="36">Knowledge, skills and abilities:</text>
<path id="wire2" opacity="0.6" fill="none" stroke="#EFEFEF" stroke-miterlimit="10" enable-background="new    " d="M671.234-1.156
	L670,0c-65.504,59.78-48.729,76.03-135.857,87.044c-56.793,7.18-162.955,16.03-199.643,65.934
	c-46,62.57-33.588,201.134,62.631,201.134c91.125,0,204.743,0,295.869,0c0-22.613,0.01-60.918,0.01-90.113
	c31.948,0,29.193,0.1,64.254,0.1c46.064,0,100.672,0,146.736,0c0,18.9,0.727,70.283,0.727,87.275c0,38.25,0,117.876,0,156.125
	c-36.727,0-11.759,0.377-65.668,0.377c-38.819,0-89.562,11.265-120.625-12.685c-66.51-51.279-152.852-21.468-226.998-8.088
	c-60.755,10.964-140.931-14.668-195.547,18.471c-71.498,43.378-34.157,173.148-108.044,208.565
	c-32.333,15.5-93.484,2.073-97.844,54.308"/>
</svg>
