<svg xmlns="http://www.w3.org/2000/svg" width="1024" height="768" viewBox="0 0 1024 768"><rect x="-7576.431" y="-6889.818" fill="#3498DB" width="16291.837" height="14783.959" id="bg"/><path id="wire1" opacity=".6" fill="none" stroke="#EFEFEF" stroke-miterlimit="10" enable-background="new" d="M18.115-44.888c45.837 59.667 97.598 127.804 180.521 125.904 65.57-1.501 127.096-41.73 193.394-31.265 67.338 10.629 116.664 71.303 167.169 111.705 53.213 42.57 112.231 66.442 171.979 97.309 45.997 23.766 69.19 58.462 77.456 109.252 5.77 35.415-.088 84.239 22.37 114.638 29.146 39.456 156.977 59.966 101.035 134.771-53.021 70.909-150.769 81.889-210.564 115.771-16.12 9.133-38.475 26.303-51.475 34.803l-1.984 1.312"/><g id="introduction" inkscape:version="0.48.4 r9939" sodipodi:docname="drawing.svg" xmlns:inkscape="http://www.inkscape.org/namespaces/inkscape" xmlns:dc="http://purl.org/dc/elements/1.1/" xmlns:svg="http://www.w3.org/2000/svg" xmlns:sodipodi="http://sodipodi.sourceforge.net/DTD/sodipodi-0.dtd" xmlns:cc="http://creativecommons.org/ns#" xmlns:rdf="http://www.w3.org/1999/02/22-rdf-syntax-ns#"><g id="intro" font-weight="100" font-size="30"><g id="intro1" fill="#ECF0F1"><text transform="translate(30.706 451.156)">I’m Albino Tonnina,</text><text transform="translate(30.706 487.156)">a self-taught full-stack web developer.</text></g><g id="intro2" fill="#F5F7FA"><text transform="translate(30.206 537.602)">Currently I work in Rome for Numidia,</text><text transform="translate(30.206 573.602)">a fresh and dynamic development company I co-founded in 2011.</text></g></g><g id="macbook"><path fill="#586273" d="M938.378 306.397z"/><path opacity=".8" fill="#2980B9" enable-background="new" d="M969.267 279.006l-342.178-155.854s-8.188-3.73-11.923 4.46c-3.733 8.19 4.462 11.921 4.462 11.921l24.569 11.192s-8.188-3.73-11.92 4.46c-4.688 10.274-4.656 10.22-77.521 170.179-3.892 8.544.791 19.04 9.334 22.932l277.57 126.423c8.545 3.896 18.625.121 22.519-8.424 0 0 59.131-129.82 74.197-162.898.073-.166.579-1.274 3.312-7.28 3.729-8.19-4.462-11.921-4.462-11.921l24.562 11.191s8.189 3.73 11.923-4.46c3.744-8.19-4.444-11.921-4.444-11.921z"/><path fill="#E6E9ED" d="M870.181 464.295c-3.892 8.545-13.974 12.316-22.519 8.424l-277.563-126.424c-8.543-3.892-13.226-14.388-9.334-22.932 0 0 73.783-161.988 77.521-170.179 3.729-8.191 11.922-4.46 11.922-4.46l293.031 133.471s8.188 3.73 4.459 11.921c-3.734 8.191-77.517 170.179-77.517 170.179z"/><path opacity=".3" fill="#B7BFC7" enable-background="new" d="M944.378 301.397l-364.201-20.582s54.371-119.439 58.104-127.63c3.729-8.191 11.92-4.46 11.92-4.46l293.035 133.471s8.188 3.73 4.461 11.921c-3.733 8.191-3.319 7.28-3.319 7.28z"/><rect x="713.879" y="215.036" transform="matrix(-.91 -.414 .414 -.91 1427.132 748.789)" fill="#DCE4E8" width="161.877" height="9"/><radialGradient id="mbplight_1_" cx="1216.291" cy="8375.051" r="163.218" gradientTransform="matrix(.912 .401 -.096 .184 477.579 -1812.805)" gradientUnits="userSpaceOnUse"><stop offset=".103" stop-color="#3498DB" stop-opacity=".4"/><stop offset=".795" stop-color="#3498DB" stop-opacity=".057"/><stop offset=".909" stop-color="#3498DB" stop-opacity="0"/></radialGradient><path fill="#CCD1D9" d="M967.806 293.387l-342.178-155.854s-8.19-3.73-4.462-11.921c3.729-8.191 11.923-4.46 11.923-4.46l342.178 155.854s8.188 3.73 4.459 11.921c-3.73 8.191-11.92 4.46-11.92 4.46z"/><g fill="#3B3B3B" stroke="#C1C1C1" stroke-miterlimit="10"><rect x="671.423" y="199.327" transform="matrix(-.91 -.414 .414 -.91 1214.557 674.205)" width="18.006" height="12.004"/><rect x="662.454" y="216.363" transform="matrix(-.91 -.414 .414 -.91 1189.295 707.828)" width="18" height="17"/><rect x="651.634" y="240.635" transform="matrix(-.91 -.414 .414 -.91 1169.595 754.075)" width="29.974" height="18.985"/><rect x="641.103" y="266.213" transform="matrix(-.91 -.414 .414 -.91 1151.772 799.379)" width="43.032" height="17.017"/><rect x="684.354" y="226.522" transform="matrix(-.91 -.414 .414 -.91 1227.86 736.497)" width="18.985" height="16.984"/><rect x="684.842" y="253.31" transform="matrix(-.91 -.414 .414 -.91 1217.272 789.788)" width="18.991" height="18.991"/><rect x="686.677" y="281.476" transform="matrix(-.91 -.414 .414 -.91 1209.525 842.448)" width="19.001" height="17.001"/><rect x="708.718" y="291.265" transform="matrix(-.91 -.414 .414 -.91 1246.611 870.072)" width="17.999" height="17.001"/><rect x="731.429" y="301.664" transform="matrix(-.91 -.414 .414 -.91 1285.709 899.324)" width="18.003" height="16.999"/><rect x="753.301" y="311.592" transform="matrix(-.91 -.414 .414 -.91 1323.328 927.379)" width="17.995" height="16.994"/><rect x="776.057" y="321.939" transform="matrix(-.91 -.414 .414 -.91 1362.542 956.568)" width="18.008" height="17.011"/><rect x="796.938" y="331.68" transform="matrix(-.91 -.414 .414 -.91 1399.356 984.033)" width="19.014" height="17.015"/><rect x="818.535" y="347.015" transform="matrix(-.91 -.414 .414 -.91 1457.106 1027.239)" width="42.968" height="16.987"/><rect x="707.659" y="263.443" transform="matrix(-.91 -.414 .414 -.91 1255.711 818.382)" width="17.993" height="18.99"/><rect x="729.491" y="273.657" transform="matrix(-.91 -.414 .414 -.91 1294.117 847.173)" width="18.997" height="18.996"/><rect x="752.301" y="283.739" transform="matrix(-.91 -.414 .414 -.91 1332.643 875.611)" width="18.009" height="19.01"/><rect x="774.031" y="293.925" transform="matrix(-.91 -.414 .414 -.91 1370.793 904.32)" width="18.984" height="18.984"/><rect x="796.906" y="304.093" transform="matrix(-.91 -.414 .414 -.91 1409.335 933.035)" width="18.005" height="19.003"/><rect x="818.692" y="314.167" transform="matrix(-.91 -.414 .414 -.91 1447.707 961.497)" width="18.985" height="18.984"/><rect x="840.951" y="326.89" transform="matrix(-.91 -.414 .414 -.91 1495.495 997.33)" width="30.022" height="19.016"/><rect x="707.046" y="236.942" transform="matrix(-.91 -.414 .414 -.91 1266.871 765.819)" width="18.985" height="16.985"/><rect x="729.035" y="246.759" transform="matrix(-.91 -.414 .414 -.91 1303.88 793.476)" width="18.001" height="17.004"/><rect x="751.765" y="257.048" transform="matrix(-.91 -.414 .414 -.91 1343.032 822.536)" width="17.996" height="16.997"/><rect x="773.647" y="267.058" transform="matrix(-.91 -.414 .414 -.91 1380.689 850.736)" width="18.006" height="17.007"/><rect x="796.339" y="277.371" transform="matrix(-.91 -.414 .414 -.91 1419.811 879.792)" width="18.011" height="17.011"/><rect x="817.159" y="287.071" transform="matrix(-.91 -.414 .414 -.91 1456.471 907.2)" width="19.012" height="17.01"/><rect x="838.896" y="302.441" transform="matrix(-.91 -.414 .414 -.91 1514.545 950.564)" width="43.032" height="17.016"/><rect x="632.28" y="281.879" transform="matrix(-.91 -.414 .414 -.91 1104.123 822.367)" width="18.015" height="19.016"/><rect x="654.053" y="292.072" transform="matrix(-.91 -.414 .414 -.91 1142.419 851.056)" width="19.001" height="18.996"/><rect id="spacebar" x="672.468" y="322.471" transform="matrix(-.91 -.414 .414 -.91 1257.536 936.836)" width="115.912" height="18.983"/><rect x="786.928" y="352.481" transform="matrix(-.91 -.414 .414 -.91 1371.188 1021.521)" width="19.006" height="19.006"/><rect x="809.68" y="362.832" transform="matrix(-.91 -.414 .414 -.91 1410.382 1050.718)" width="19.018" height="19.015"/><rect x="832.458" y="373.125" transform="matrix(-.91 -.414 .414 -.91 1448.662 1079.594)" width="18.003" height="19.005"/><rect x="693.296" y="209.483" transform="matrix(-.91 -.414 .414 -.91 1253.068 702.912)" width="19.018" height="12.011"/><rect x="715.992" y="219.819" transform="matrix(-.91 -.414 .414 -.91 1292.135 732.039)" width="19.006" height="12.004"/><rect x="737.849" y="229.597" transform="matrix(-.91 -.414 .414 -.91 1328.854 759.568)" width="17.993" height="11.996"/><rect x="760.583" y="239.987" transform="matrix(-.91 -.414 .414 -.91 1367.956 788.853)" width="17.993" height="11.996"/><rect x="782.509" y="249.936" transform="matrix(-.91 -.414 .414 -.91 1405.749 816.925)" width="18.005" height="12.003"/><rect x="805.222" y="260.336" transform="matrix(-.91 -.414 .414 -.91 1444.832 846.209)" width="18.015" height="12.01"/><rect x="826.176" y="270.007" transform="matrix(-.91 -.414 .414 -.91 1481.804 873.561)" width="19.007" height="12.008"/><rect x="848.843" y="280.361" transform="matrix(-.91 -.414 .414 -.91 1520.744 902.763)" width="18.986" height="11.991"/><rect x="871.637" y="290.691" transform="matrix(-.91 -.415 .415 -.91 1559.009 931.785)" width="17.991" height="11.999"/></g></g><g id="bevanda"><circle opacity=".8" fill="#2980B9" enable-background="new" cx="419.416" cy="136.903" r="50.582"/><circle fill="#E6E9ED" cx="424.416" cy="134.903" r="50.582"/><path fill="#E74C3C" d="M424.416 93.203c23.03 0 41.7 18.67 41.7 41.7s-18.67 41.7-41.7 41.7c-10.369 0-19.855-3.786-27.15-10.052-8.897-7.647-14.547-18.989-14.547-31.648-.002-23.03 18.668-41.7 41.697-41.7z"/><path id="linecover1" fill="#E6E9ED" d="M424.416 92.203c23.584 0 42.7 19.118 42.7 42.7s-19.116 42.7-42.7 42.7c-10.619 0-20.335-3.877-27.805-10.293-9.118-7.831-14.896-19.444-14.896-32.407.002-23.582 19.119-42.7 42.701-42.7z"/><ellipse transform="matrix(-.993 -.118 .118 -.993 798.521 381.204)" fill="#D8D8DA" cx="410.583" cy="166.884" rx="11.569" ry="7.711"/><polygon fill="#CCD1D9" points="361.239,157.128 402.066,164.068 401.641,167.644 360.326,164.782"/><ellipse transform="matrix(-.993 -.118 .118 -.993 798.51 381.21)" fill="#AAB2BD" cx="410.579" cy="166.884" rx="9.639" ry="6.423"/><path fill="#fff" d="M397.135 92.046l9.689 12.484c1.604 2.068 1.229 5.048-.838 6.654-2.062 1.607-5.05 1.232-6.649-.836l-9.692-12.484c-1.604-2.068-1.229-5.047.842-6.654 2.063-1.607 5.041-1.233 6.648.836z"/><circle fill="#fff" cx="424.416" cy="134.903" r="34.776"/><circle fill="#E6E7E8" cx="424.416" cy="134.903" r="31.298"/><circle fill="#49433C" cx="424.416" cy="134.903" r="29.559"/><path fill="#363532" d="M403.194 151.386c9.088 11.702 26.004 13.828 37.707 4.739.688-.535.812-1.528.271-2.218-.537-.689-1.521-.814-2.225-.278-.275.218-.562.428-.854.632l-.229.166c-.271.188-.55.372-.83.549l-.271.167-.589.347-.396.222c-.229.125-.455.244-.688.36l-.539.261-.402.188-.512.223c-.238.103-.485.203-.732.298l-.485.178-.478.164-.442.147c-.281.088-.562.171-.854.249l-.312.081-.755.18-.236.054c-.343.072-.688.137-1.021.194l-.062.008-.599.092-.45.054-.076.009c-.738.085-1.484.134-2.229.147h-.021c-.73.013-1.476-.009-2.207-.064l-.129-.011c-.34-.028-.681-.061-1.021-.103l-.062-.006c-.312-.042-.637-.09-.949-.143l-.395-.07-.531-.105c-.646-.134-1.279-.297-1.918-.484l-.021-.007c-3.418-1.023-6.599-2.808-9.25-5.243l-.058-.044-.438-.425-.36-.358-.354-.373-.604-.659-.205-.237c-.229-.268-.45-.54-.67-.819-.218-.28-.427-.565-.627-.854l-.183-.256c-.168-.245-.33-.492-.487-.741l-.271-.442-.266-.438-.302-.539-.03-.06c-1.693-3.179-2.646-6.695-2.789-10.259l-.002-.025c-.021-.66-.021-1.319.008-1.978l.027-.541.027-.394c.021-.32.059-.641.1-.96l.01-.058.147-1.011.021-.129c.133-.723.288-1.441.479-2.154l.009-.022c.196-.717.435-1.428.694-2.13l.021-.071.162-.424.233-.556.021-.052.438-.948.104-.22.355-.684.155-.285.446-.766.256-.397.271-.418.291-.428c.151-.217.312-.432.478-.644l.348-.435.273-.348.396-.458.521-.576.312-.329.479-.483.229-.225c.234-.229.479-.45.729-.669l.229-.188c.271-.23.544-.458.818-.676.688-.536.812-1.528.273-2.218-.533-.689-1.523-.814-2.218-.279-11.667 9.09-13.794 26.005-4.704 37.706z"/><path fill="#363532" d="M413.143 112.208c.345.803 1.271 1.182 2.064.842l.645-.253.102-.038.007-.002.604-.219.021-.006.153-.055.015-.003.635-.208.021-.005.041-.012.036-.011c.438-.138.896-.258 1.354-.369l.152-.039c.438-.104.883-.193 1.322-.271l.312-.055-.188.029.188-.029h-.007l.438-.065-.021.001.146-.023h.012l-.146.021.188-.025c.562-.059 1.091.182 1.416.601.165.212.271.47.312.755.111.859-.479 1.651-1.344 1.777l-.004.001-.011.002c-1.323.181-2.622.493-3.886.924l-.016.005-.062.019-.021.005c-.42.146-.83.305-1.236.476-.777.35-1.146 1.262-.812 2.056.336.797 1.252 1.174 2.053.849 2.158-.917 4.479-1.382 6.854-1.365h.188l.482.017.311.016.452.033.316.033.321.033.044.009.062.014c.388.076.722.282.944.575.247.32.375.734.312 1.167-.104.866-.896 1.479-1.768 1.371-2.487-.312-4.959.027-7.219.965l-.104.047c-.793.345-1.164 1.264-.824 2.062.339.802 1.271 1.182 2.066.842 4.604-1.942 9.965-.539 13.032 3.412 3.062 3.951 3.104 9.49.078 13.472-.524.695-.396 1.688.306 2.214.688.525 1.674.393 2.203-.29l.178-.227c1.403-1.922 2.312-4.181 2.61-6.607.104-.866.896-1.48 1.769-1.372.438.055.811.28 1.057.6.229.292.353.666.316 1.06l-.002.062v.044l-.051.326-.05.316-.075.449-.062.301-.104.475-.046.181c-.569 2.303-1.604 4.44-3.021 6.307-.518.695-.375 1.675.312 2.197.688.521 1.654.393 2.188-.282.271-.351.521-.711.771-1.08l.01-.013.033-.053.008-.01c.729-1.11 1.354-2.291 1.854-3.529l.009-.008.004-.004c.334-.8 1.246-1.183 2.054-.856.271.108.486.281.646.493.324.42.436.993.229 1.521l-.062.153-.25.579-.122.276-.276.587-.119.247c-.104.216-.229.429-.344.641l-.1.176c-.146.264-.301.525-.457.783l-.023.05-.014.017c-.12.2-.25.398-.381.595l-.085.127-.013.015-.229.327-.146.214-.055.07-.409.567c-.522.695-.396 1.688.306 2.214.689.528 1.688.392 2.221-.303 7.34-9.67 7.264-23.124-.189-32.719-7.447-9.594-20.471-13-31.646-8.282-.744.341-1.121 1.268-.783 2.073zm32.918 32.364l-.104.233.104-.233zm-.408.867l-.104.203.104-.203zm-.462.885l-.074.138.074-.138zm1.139-2.38l.061-.135-.018.037-.043.098z"/><path fill="#363532" d="M443.291 149.252l.021-.023c.141-.176.268-.354.396-.535l-.417.558z"/></g><g id="mouse"><path opacity=".8" fill="#2980B9" enable-background="new" d="M975.604 484.257l-.02-.011c-9.787-7.229-23.593-5.188-30.863 4.562l-.103.119-.12.162-24.63 33.294-.241.372-1.271 1.764.006.011c-7.248 9.894-5.045 23.509 4.728 30.729 9.815 7.261 23.707 5.104 30.896-4.615l26.223-35.457c7.257-9.805 5.212-23.669-4.605-30.93z"/><path fill="#CCD1D9" d="M950.519 488.136l-.103.12-.118.161-24.63 33.294-.19.258-1.219 1.646.004.002c-7.316 10.055-5.097 23.624 4.675 30.851l52.45-70.896c-9.799-7.235-23.597-5.189-30.869 4.564z"/><path fill="#E6E9ED" d="M981.396 483.579l-.021-.011-52.447 70.898c9.813 7.27 23.686 5.163 30.869-4.558l-.086-.065-.002-.001.002.001.086.065 26.207-35.429c7.267-9.804 5.208-23.638-4.608-30.9z"/></g><g id="iphone"><path opacity=".8" fill="#2980B9" enable-background="new" d="M960.569 183.469l38.502-44.066c3.021-3.461 2.666-8.77-.797-11.794l-88.143-77.004c-3.463-3.025-8.771-2.666-11.793.796l-38.5 44.065c-3.021 3.462-2.67 8.768.793 11.795l88.131 77.003c3.471 3.024 8.782 2.668 11.807-.795z"/><path fill="#434A54" d="M903.869 50.304l-38.5 44.066c-3.024 3.461-2.67 8.769.793 11.794l88.132 77.003c3.461 3.025 8.771 2.668 11.795-.796l38.504-44.065c3.022-3.461 2.666-8.77-.797-11.795l-88.132-77.002c-3.463-3.024-8.768-2.666-11.795.795z"/><path fill="#586273" d="M991.998 127.306l-38.5 44.067-81.825-71.492v-.021l38.481-44.042.021-.003 81.823 71.491z"/><rect x="972.941" y="152.87" transform="matrix(-.658 .753 -.753 -.658 1740.231 -480.426)" fill="#434A54" width="12.538" height="4.176"/><path fill="#F7F9F8" d="M871.673 99.859v.021l81.825 71.492 38.5-44.067-81.821-71.492-.021.003-38.483 44.043z"/><path fill="#44C650" d="M935.56 94.342l-5.475-2.599c-.57-.273-1.513-.283-2.089-.021l-9.243 4.342-.013.007-1.287-1.126c-.396-2.214-1.729-4.557-3.854-6.419l-1.717-1.5c-3.028-2.647-7.517-2.466-10.021.4-2.521 2.868-2.08 7.34.938 9.987l1.729 1.499c2.135 1.862 4.635 2.868 6.881 2.957l1.287 1.126-.021.011-3.062 9.745c-.188.604-.045 1.533.303 2.064l3.312 5.075c.349.527.972.572 1.386.096l10.604-12.143 10.61-12.143c.427-.475.302-1.086-.268-1.358z"/><rect x="918.805" y="113.389" transform="matrix(-.658 .753 -.753 -.658 1641.793 -510.037)" fill="#DCE4E8" width="35.868" height="8.969"/><rect x="929.041" y="122.366" transform="matrix(-.658 .753 -.753 -.658 1665.608 -502.759)" fill="#DCE4E8" width="35.861" height="8.969"/><rect x="947.922" y="131.244" transform="matrix(-.658 .753 -.753 -.658 1688.733 -495.512)" fill="#DCE4E8" width="17.933" height="8.964"/><circle fill="#586273" cx="937.946" cy="137.03" r="1.682"/><circle fill="#586273" cx="943.847" cy="130.277" r="1.681"/><circle fill="#586273" cx="940.896" cy="133.653" r="1.681"/><path fill="#586273" d="M947.903 125.634c.688.611.769 1.672.146 2.373-.604.699-1.677.771-2.373.16-.688-.611-.771-1.674-.146-2.374.612-.696 1.673-.768 2.373-.159z"/><circle fill="#586273" cx="927.815" cy="128.179" r="1.681"/><circle fill="#586273" cx="939.617" cy="114.674" r="1.681"/><circle fill="#586273" cx="933.716" cy="121.427" r="1.681"/><circle fill="#586273" cx="930.767" cy="124.804" r="1.681"/><circle fill="#586273" cx="936.666" cy="118.051" r="1.682"/><rect x="952.626" y="134.584" transform="matrix(-.658 .753 -.753 -.658 1689.089 -495.528)" fill="#E74C3C" width="8.965" height="2.693"/><path fill="none" d="M903.869 50.305l-29.883 34.212 113.553 73.266 17.054-19.475c3.024-3.461 2.666-8.771-.797-11.795l-88.132-77.003c-3.463-3.025-8.768-2.667-11.795.795z"/></g><g id="matita1"><polygon opacity=".8" fill="#2980B9" enable-background="new" points="1117.845,319.321 1055.812,191.27 1050.479,193.855 1045.142,196.44 1107.175,324.49 1112.511,321.906"/><polygon fill="#2980B9" points="1121.599,337.266 1117.845,319.321 1107.175,324.49 1118.931,338.561 1122.851,343.246"/><g fill="#58585C"><polygon points="1116.608,320.809 1057.16,198.096 1054.576,192.76 1049.239,195.346 1111.274,323.395"/><polygon points="1116.608,320.809 1121.944,318.227 1059.91,190.174 1054.576,192.76 1057.16,198.096"/></g><polygon fill="#464E5C" points="1126.948,342.152 1125.696,336.17 1123.028,337.465"/><polygon fill="#F7D39A" points="1125.696,336.17 1121.944,318.227 1111.274,323.395 1123.028,337.465"/><rect x="1056.362" y="206.545" transform="matrix(.9 -.436 .436 .9 15.337 484.331)" fill="#DA4453" width="11.859" height="4.448"/></g><g id="foglio2"><polygon fill="#2980B9" points="165.448,7.97 141.341,196.495 292.062,215.769 316.17,27.243 317.776,14.683 167.054,-4.591" opacity=".8"/><rect x="156.337" y="14.107" transform="matrix(-.992 -.127 .127 -.992 448.883 246.814)" fill="#EBF4FF" width="151.92" height="190.026"/><rect x="169.188" y="2.247" transform="matrix(-.992 -.127 .127 -.992 487.229 48.17)" fill="#44C650" width="151.92" height="12.661"/><rect x="203.276" y="80.577" transform="matrix(.992 .127 -.127 .992 12.71 -25.874)" fill="none" width="12.663" height="12.662"/><rect x="225.682" y="82.993" transform="matrix(-.992 -.127 .127 -.992 444.927 200.628)" fill="none" width="6.329" height="6.33"/><rect x="180.368" y="66.451" transform="matrix(-.992 -.127 .127 -.992 413.564 162.397)" fill="#434A54" width="63.167" height="3.166"/><rect x="249.534" y="73.884" transform="matrix(-.992 -.127 .127 -.992 528.464 184.574)" fill="#3498DB" width="41.146" height="3.166"/><rect x="173.047" y="75.75" transform="matrix(-.992 -.127 .127 -.992 457.829 183.811)" fill="#3498DB" width="123.435" height="3.166"/><rect x="178.887" y="77.013" transform="matrix(-.992 -.127 .127 -.992 377.886 181.246)" fill="#3498DB" width="31.65" height="3.165"/><rect x="216.632" y="80.648" transform="matrix(-.992 -.127 .127 -.992 433.687 192.092)" fill="#434A54" width="12.662" height="3.166"/><rect x="235.319" y="85.637" transform="matrix(-.992 -.127 .127 -.992 511.266 206.986)" fill="#3498DB" width="53.805" height="3.165"/><rect x="163.046" y="126.047" transform="matrix(-.992 -.127 .127 -.992 340.112 276.911)" fill="#434A54" width="31.65" height="3.165"/><rect x="161.483" y="137.816" transform="matrix(-.992 -.127 .127 -.992 322.882 299.367)" fill="#434A54" width="18.988" height="3.165"/><rect x="186.632" y="140.621" transform="matrix(-.992 -.127 .127 -.992 366.319 307.743)" fill="#434A54" width="12.66" height="3.166"/><rect x="162.265" y="131.925" transform="matrix(-.992 -.127 .127 -.992 331.514 288.117)" fill="#434A54" width="25.325" height="3.166"/><rect x="160.635" y="144.89" transform="matrix(-.992 -.127 .127 -.992 332.923 314.138)" fill="#434A54" width="31.65" height="3.166"/><rect x="165.819" y="90.243" transform="matrix(-.992 -.127 .127 -.992 354.664 234.735)" fill="#CCD1D9" width="37.982" height="31.652"/><rect x="208.511" y="145.03" transform="matrix(-.992 -.127 .127 -.992 434.574 320.893)" fill="#434A54" width="37.98" height="3.166"/><rect x="207.809" y="149.705" transform="matrix(-.992 -.127 .127 -.992 407.366 328.51)" fill="#434A54" width="12.661" height="3.166"/><rect x="226.675" y="151.715" transform="matrix(-.992 -.127 .127 -.992 438.345 334.552)" fill="#434A54" width="6.331" height="3.166"/><rect x="209.399" y="137.536" transform="matrix(-.992 -.127 .127 -.992 418.385 304.868)" fill="#434A54" width="18.993" height="3.165"/><rect x="234.537" y="140.354" transform="matrix(-.992 -.127 .127 -.992 461.786 313.276)" fill="#434A54" width="12.659" height="3.166"/><rect x="210.142" y="132.07" transform="matrix(-.992 -.127 .127 -.992 433.161 294.881)" fill="#434A54" width="31.649" height="3.166"/><rect x="212.93" y="96.242" transform="matrix(-.992 -.127 .127 -.992 447.758 252.637)" fill="#CCD1D9" width="37.98" height="31.651"/><rect x="257.216" y="138.494" transform="matrix(-.992 -.127 .127 -.992 532.419 314.047)" fill="#434A54" width="37.979" height="3.165"/><rect x="255.647" y="150.277" transform="matrix(-.992 -.127 .127 -.992 515.174 336.541)" fill="#434A54" width="25.321" height="3.165"/><rect x="257.513" y="143.168" transform="matrix(-.992 -.127 .127 -.992 507.205 321.787)" fill="#434A54" width="12.662" height="3.165"/><rect x="254.875" y="156.141" transform="matrix(-.992 -.127 .127 -.992 506.603 347.7)" fill="#434A54" width="18.989" height="3.166"/><rect x="280.02" y="158.947" transform="matrix(-.992 -.127 .127 -.992 550.033 356.075)" fill="#434A54" width="12.661" height="3.166"/><rect x="275.315" y="146.006" transform="matrix(-.992 -.127 .127 -.992 548.588 330.125)" fill="#434A54" width="18.989" height="3.165"/><rect x="260.028" y="102.269" transform="matrix(-.992 -.127 .127 -.992 540.807 270.614)" fill="#CCD1D9" width="37.978" height="31.649"/><rect x="173.064" y="46.209" transform="matrix(-.992 -.127 .127 -.992 470.462 135.025)" fill="#CCD1D9" width="132.928" height="12.66"/><rect x="180.106" y="44.216" transform="matrix(-.992 -.127 .127 -.992 366.193 114.912)" fill="#E5E5E5" width="13.296" height="3.166"/><rect x="199.839" y="42.843" transform="matrix(-.992 -.127 .127 -.992 418.315 124.977)" fill="#434A54" width="26.593" height="12.66"/><rect x="206.49" y="47.58" transform="matrix(-.992 -.127 .127 -.992 418.319 124.954)" fill="#E5E5E5" width="13.293" height="3.165"/><rect x="232.859" y="50.995" transform="matrix(-.992 -.127 .127 -.992 470.403 135.128)" fill="#E5E5E5" width="13.296" height="3.165"/><rect x="259.247" y="54.335" transform="matrix(-.992 -.127 .127 -.992 522.55 145.103)" fill="#E5E5E5" width="13.295" height="3.165"/><rect x="285.627" y="57.708" transform="matrix(-.992 -.127 .127 -.992 574.671 155.162)" fill="#E5E5E5" width="13.294" height="3.166"/><rect x="178.837" y="28.901" transform="matrix(-.992 -.127 .127 -.992 428.019 88.214)" fill="#CCD1D9" width="75.961" height="3.165"/><rect x="179.863" y="19.014" transform="matrix(-.992 -.127 .127 -.992 374.577 65.038)" fill="#CCD1D9" width="18.992" height="3.166"/><rect x="156.993" y="165.598" transform="matrix(-.992 -.127 .127 -.992 422.509 383.415)" fill="#CCD1D9" width="132.93" height="25.322"/></g><g id="foglio1"><rect x="-6.739" y="-5.909" transform="matrix(-.95 .314 -.314 -.95 173.766 182.453)" fill="#2980B9" width="157.885" height="222.233"/><rect x="-36.78" y="26.935" transform="matrix(-.314 -.95 .95 -.314 -2.875 209.675)" fill="#F7F9F8" width="222.235" height="157.883"/><rect x="68.789" y="48.842" transform="matrix(-.95 .314 -.314 -.95 205.913 70.549)" fill="#B7BFC7" width="56.983" height="5.999"/><rect x="71.928" y="58.333" transform="matrix(-.95 .314 -.314 -.95 215.011 88.068)" fill="#DCE4E8" width="56.983" height="6.001"/><rect x="75.066" y="67.83" transform="matrix(-.95 .314 -.314 -.95 224.106 105.598)" fill="#DCE4E8" width="56.982" height="6"/><rect x="78.199" y="77.325" transform="matrix(-.95 .314 -.314 -.95 233.191 123.125)" fill="#DCE4E8" width="56.981" height="6"/><rect x="-12.213" y="42.879" transform="matrix(-.95 .314 -.314 -.95 121.154 72.261)" fill="#DCE4E8" width="133.952" height="5.999"/><rect x="-18.484" y="13.896" transform="matrix(-.95 .314 -.314 -.95 102.971 37.211)" fill="#B7BFC7" width="133.95" height="25.989"/><g fill="#DCE4E8"><rect x="9.117" y="107.444" transform="matrix(-.95 .314 -.314 -.95 182.993 191.442)" width="133.952" height="6"/><rect x="12.257" y="116.937" transform="matrix(-.95 .314 -.314 -.95 192.091 208.966)" width="133.951" height="6.002"/><rect x="15.397" y="126.435" transform="matrix(-.95 .314 -.314 -.95 201.189 226.495)" width="133.948" height="5.999"/></g><g fill="#DCE4E8"><rect x="33.586" y="181.503" transform="matrix(-.95 .314 -.314 -.95 253.926 328.147)" width="133.951" height="6"/><rect x="37.476" y="195.701" transform="matrix(-.95 .314 -.314 -.95 236.736 359.308)" width="103.966" height="6.001"/></g><rect x="22.476" y="151.531" transform="matrix(-.95 .314 -.314 -.95 179.016 280.255)" fill="#B7BFC7" width="88.967" height="5.999"/><rect x="25.614" y="161.029" transform="matrix(-.95 .314 -.314 -.95 188.111 297.786)" fill="#DCE4E8" width="88.966" height="5.998"/><rect x="28.761" y="170.524" transform="matrix(-.95 .314 -.314 -.95 197.226 315.31)" fill="#DCE4E8" width="88.966" height="5.999"/><rect x="120.954" y="128.453" transform="matrix(-.95 .314 -.314 -.95 314.305 232.364)" fill="#44C650" width="35.021" height="26.013"/><rect x="1.635" y="80.099" transform="matrix(-.95 .314 -.314 -.95 40.784 189.625)" fill="#DCE4E8" width="7.001" height="35.99"/><rect x="11.132" y="76.938" transform="matrix(-.95 .314 -.314 -.95 58.314 180.499)" fill="#DCE4E8" width="7" height="36.008"/><rect x="20.623" y="73.792" transform="matrix(-.95 .314 -.314 -.95 75.835 171.387)" fill="#DCE4E8" width="7" height="36.009"/><rect x="30.126" y="70.665" transform="matrix(-.95 .314 -.314 -.95 93.377 162.296)" fill="#DCE4E8" width="7" height="35.997"/><rect x="39.601" y="67.541" transform="matrix(-.95 .314 -.314 -.95 110.855 153.231)" fill="#DCE4E8" width="6.999" height="35.984"/><rect x="49.088" y="64.401" transform="matrix(-.95 .313 -.313 -.95 128.348 144.165)" fill="#DCE4E8" width="6.999" height="35.993"/><rect x="58.617" y="61.252" transform="matrix(-.95 .314 -.314 -.95 145.964 135.006)" fill="#DCE4E8" width="7.001" height="35.996"/><rect x="4.793" y="99.585" transform="matrix(-.95 .313 -.313 -.95 49.886 207.15)" fill="#E74C3C" width="7.002" height="15.999"/><rect x="13.801" y="93.503" transform="matrix(-.95 .314 -.314 -.95 66.043 195.373)" fill="#E74C3C" width="6.999" height="18.996"/><rect x="24.374" y="97.21" transform="matrix(-.95 .314 -.314 -.95 86.727 192.462)" fill="#E74C3C" width="7.001" height="12.001"/><rect x="32.313" y="84.318" transform="matrix(-.95 .314 -.314 -.95 99.72 174.584)" fill="#E74C3C" width="6.999" height="21.997"/><rect x="41.18" y="77.275" transform="matrix(-.95 .314 -.314 -.95 115.424 161.983)" fill="#E74C3C" width="7.002" height="26.003"/><rect x="53.809" y="93.634" transform="matrix(-.95 .314 -.314 -.95 142.048 170.401)" fill="#E74C3C" width="7" height="5.999"/><rect x="61.717" y="80.768" transform="matrix(-.95 .313 -.313 -.95 154.97 152.625)" fill="#E74C3C" width="7.002" height="15.998"/></g><g id="occhiali"><path fill="#586273" d="M134.9 124.489c-1.323-.233-2.208-1.495-1.975-2.817 1.628-9.25-4.572-18.098-13.821-19.726l-86.262-15.188c-1.323-.233-2.207-1.495-1.974-2.818.232-1.323 1.494-2.208 2.816-1.975l86.262 15.186c11.893 2.094 19.863 13.471 17.771 25.363-.234 1.323-1.495 2.208-2.817 1.975z"/><path fill="#586273" d="M134.9 124.489c-1.323-.233-2.208-1.495-1.975-2.817 1.628-9.25-4.572-18.098-13.821-19.726l-86.262-15.188c-1.323-.233-2.207-1.495-1.974-2.818.232-1.323 1.494-2.208 2.816-1.975l86.262 15.186c11.893 2.094 19.863 13.471 17.771 25.363-.234 1.323-1.495 2.208-2.817 1.975z"/><path fill="#586273" d="M39.051 107.614c-1.323-.232-2.206-1.495-1.973-2.817 2.094-11.892 13.471-19.863 25.361-17.77l86.263 15.187c1.322.233 2.208 1.495 1.974 2.818-.232 1.323-1.494 2.208-2.817 1.974l-86.263-15.186c-9.248-1.628-18.098 4.571-19.727 13.82-.232 1.323-1.494 2.208-2.818 1.974z"/><path fill="#EFEEEE" d="M77.812 111.969c-.928 5.271-5.999 8.825-11.271 7.897l-28.755-5.062c-5.271-.928-8.825-6-7.896-11.271l3.374-19.17c.929-5.272 6.001-8.825 11.271-7.897l28.755 5.062c5.271.928 8.823 6 7.896 11.272l-3.374 19.169z" opacity=".3"/><path fill="#EFEEEE" d="M144.905 123.78c-.928 5.271-6 8.826-11.271 7.896l-28.756-5.062c-5.272-.928-8.826-6.001-7.897-11.272l3.375-19.169c.929-5.272 6-8.826 11.272-7.897l28.755 5.062c5.271.928 8.825 6 7.896 11.272l-3.374 19.17z" opacity=".3"/><path fill="#586273" d="M97.403 112.948c-1.322-.233-2.207-1.495-1.974-2.819.698-3.964-1.959-7.756-5.923-8.454-3.963-.698-7.756 1.959-8.454 5.923-.233 1.323-1.493 2.208-2.818 1.975-1.321-.232-2.206-1.495-1.974-2.818 1.164-6.606 7.484-11.035 14.09-9.872 6.607 1.163 11.035 7.485 9.872 14.09-.233 1.323-1.495 2.208-2.819 1.975z"/><path fill="#EFEEEE" d="M44.473 76.82c-5.271-.928-10.212 2.282-11.14 7.554l-3.375 19.17c-.929 5.271 2.482 10.758 7.753 11.686l14.121 2.486 6.762-38.409-14.121-2.487z" opacity=".3"/><path fill="#EFEEEE" d="M111.566 88.632c-5.272-.928-9.351 2.433-10.278 7.706l-3.375 19.168c-.928 5.272 1.618 10.606 6.892 11.535l13.998 2.465 6.762-38.41-13.999-2.464z" opacity=".3"/><path fill="none" d="M139.961 95.736l-28.755-5.062c-3.963-.698-7.756 1.958-8.454 5.922l-3.375 19.169c-.698 3.963 1.959 7.757 5.923 8.455l28.755 5.062c3.963.697 7.754-1.961 8.452-5.924l3.375-19.169c.699-3.965-1.957-7.756-5.921-8.453z"/><path fill="none" d="M72.868 83.924l-28.756-5.062c-3.962-.698-7.755 1.958-8.453 5.922l-3.375 19.169c-.697 3.963 1.961 7.757 5.923 8.455l28.755 5.062c3.964.697 7.756-1.96 8.454-5.924l3.375-19.169c.698-3.963-1.959-7.755-5.923-8.453z"/><path fill="#586273" d="M73.712 79.13l-28.755-5.062c-6.605-1.163-12.927 3.266-14.089 9.873l-3.375 19.169c-1.163 6.606 3.266 12.927 9.87 14.09l28.756 5.062c6.604 1.162 12.925-3.266 14.088-9.872l3.375-19.169c1.164-6.608-3.264-12.928-9.87-14.091zm1.705 32.417c-.698 3.963-4.49 6.621-8.454 5.924l-28.755-5.062c-3.962-.698-6.62-4.492-5.923-8.455l3.375-19.169c.697-3.964 4.49-6.62 8.453-5.922l28.756 5.062c3.964.698 6.621 4.49 5.923 8.454l-3.375 19.168z"/><path fill="#586273" d="M140.806 90.942l-28.756-5.062c-6.607-1.163-12.926 3.265-14.09 9.873l-3.375 19.168c-1.164 6.607 3.264 12.928 9.872 14.09l28.755 5.062c6.604 1.163 12.926-3.265 14.089-9.872l3.375-19.169c1.163-6.606-3.265-12.927-9.87-14.09zm1.702 32.416c-.698 3.963-4.489 6.621-8.452 5.924l-28.755-5.062c-3.963-.697-6.621-4.492-5.923-8.455l3.375-19.169c.698-3.964 4.491-6.62 8.454-5.922l28.755 5.062c3.963.697 6.619 4.488 5.921 8.453l-3.375 19.169z"/></g><g id="calcolatrice"><path opacity=".8" fill="#2980B9" enable-background="new" d="M1185.925 37.422l-33.881-36.096c-2.636-2.807-7.089-2.948-9.896-.313l-53.904 50.597c-2.812 2.635-2.946 7.087-.312 9.895l33.882 36.096c2.645 2.807 7.093 2.947 9.896.312l53.905-50.596c2.803-2.635 2.946-7.088.31-9.895z"/><path fill="#F7F9F8" d="M1092.244 51.61c-2.812 2.635-2.946 7.087-.312 9.895l33.882 36.096c2.645 2.807 7.093 2.947 9.896.312l53.905-50.596c2.808-2.635 2.938-7.087.312-9.895l-33.881-36.096c-2.636-2.807-7.088-2.948-9.896-.313l-53.906 50.597z"/><rect x="1128.722" y="23.014" transform="matrix(-.684 -.729 .729 -.684 1888.89 873.015)" fill="#E74C3C" width="9.345" height="9.348"/><rect x="1138.244" y="33.291" transform="matrix(-.684 -.729 .729 -.684 1897.441 897.262)" fill="#E74C3C" width="9.346" height="9.346"/><rect x="1147.848" y="43.54" transform="matrix(-.684 -.729 .729 -.684 1906.157 921.522)" fill="#E74C3C" width="9.349" height="9.346"/><rect x="1157.443" y="53.766" transform="matrix(-.684 -.729 .729 -.684 1914.863 945.743)" fill="#E74C3C" width="9.349" height="9.346"/><rect x="1118.406" y="32.608" transform="matrix(-.684 -.729 .729 -.684 1864.66 881.532)" fill="#E74C3C" width="9.349" height="9.345"/><rect x="1128.124" y="42.821" transform="matrix(-.684 -.729 .729 -.684 1873.477 905.908)" fill="#E74C3C" width="9.346" height="9.345"/><rect x="1137.64" y="53.053" transform="matrix(-.684 -.729 .729 -.684 1881.856 930.244)" fill="#E74C3C" width="9.347" height="9.345"/><rect x="1147.271" y="63.339" transform="matrix(-.684 -.729 .729 -.684 1890.768 954.431)" fill="#E74C3C" width="9.346" height="9.346"/><rect x="1108.114" y="42.312" transform="matrix(-.684 -.729 .729 -.684 1840.017 890.573)" fill="#E74C3C" width="9.346" height="9.348"/><rect x="1117.799" y="52.523" transform="matrix(-.684 -.729 .729 -.684 1848.965 914.761)" fill="#E74C3C" width="9.342" height="9.348"/><rect x="1127.402" y="62.708" transform="matrix(-.684 -.729 .729 -.684 1857.763 938.881)" fill="#E74C3C" width="9.346" height="9.347"/><rect x="1137.005" y="72.966" transform="matrix(-.684 -.729 .729 -.684 1866.436 963.182)" fill="#E74C3C" width="9.349" height="9.347"/><rect x="1098.017" y="51.828" transform="matrix(-.684 -.729 .729 -.684 1816.286 899.054)" fill="#E74C3C" width="9.345" height="9.347"/><rect x="1107.66" y="62.121" transform="matrix(-.685 -.729 .729 -.685 1825.092 923.369)" fill="#E74C3C" width="9.345" height="9.348"/><rect x="1114.917" y="77.443" transform="matrix(-.684 -.729 .729 -.684 1837.764 959.734)" fill="#656D78" width="23.366" height="9.346"/><rect x="1135.656" y="20.942" transform="matrix(-.684 -.729 .729 -.684 1934.112 897.761)" fill="#2C3E50" width="51.4" height="18.689"/><rect x="1165.442" y="32.422" transform="matrix(-.684 -.729 .729 -.684 1939.879 913.986)" fill="#ECF0F1" width="4.672" height="9.345"/><rect x="1171.817" y="39.215" transform="matrix(-.685 -.729 .729 -.685 1946.196 929.619)" fill="#ECF0F1" width="4.673" height="9.351"/><rect x="1152.662" y="18.801" transform="matrix(-.684 -.729 .729 -.684 1928.122 881.88)" fill="#ECF0F1" width="4.676" height="9.346"/><rect x="1158.894" y="25.754" transform="matrix(-.684 -.729 .729 -.684 1933.693 897.999)" fill="#ECF0F1" width="4.669" height="9.349"/></g><text id="hello" transform="translate(30.706 389.209)" fill="#ECF0F1" font-weight="900" font-size="120">hello</text><g id="subtitle" font-weight="400" font-size="14"><text id="scrolldown" transform="translate(409.575 389.209)" fill="#F5ECD9">scroll down</text><text id="viewresume" transform="translate(484.175 389.209)" fill="#DED6C7">or just view my resume.</text></g></g><g id="scrollthing"><rect x="969.689" y="-206.661" fill="#4CAEE5" width="14.722" height="170.528"/><g id="moving"><rect id="scrollertop" x="971.3" y="-204.409" fill="#3498DB" width="11.501" height="81.576"/><g fill="#4CAEE5" id="cursor"><polygon points="949.01,-168.324 949.01,-167.301 944.918,-167.301 944.918,-165.409 944.865,-165.392 943.911,-165.392 943.911,-168.324 943.918,-168.324 944.918,-168.324 946.887,-168.324 946.887,-169.15 947.875,-169.15 947.875,-168.324"/><polygon points="947.851,-161.523 947.851,-159.579 946.845,-159.579 946.845,-159.581 946.845,-161.523 946.862,-161.523"/><rect x="945.889" y="-170.146" width=".988" height=".988"/><polygon points="946.862,-163.465 946.862,-161.523 946.845,-161.523 945.856,-161.523 945.856,-163.465 945.871,-163.465"/><polygon points="946.845,-159.579 946.845,-158.574 944.9,-158.574 944.9,-159.579 944.906,-159.581 946.845,-159.581"/><rect x="944.892" y="-171.144" width=".988" height=".988"/><polygon points="945.871,-165.409 945.871,-163.465 945.856,-163.465 944.865,-163.465 944.865,-165.392 944.918,-165.409"/><polygon points="944.906,-161.523 944.906,-159.581 944.9,-159.579 943.9,-159.579 943.9,-161.523"/><rect x="943.896" y="-172.141" width=".982" height=".988"/><polygon points="943.896,-161.523 943.896,-161.505 942.89,-161.505 942.89,-163.431 942.895,-163.448 943.896,-163.448"/><rect x="942.898" y="-173.138" width=".983" height=".988"/><polygon points="942.895,-165.375 942.895,-163.448 942.89,-163.431 941.889,-163.431 941.889,-165.357 941.889,-165.375"/><rect x="941.901" y="-174.135" width=".983" height=".988"/><rect x="940.904" y="-175.134" width=".983" height=".99"/><polygon points="941.889,-165.375 941.889,-165.357 940.893,-165.357 940.882,-165.4 940.882,-167.301 941.889,-167.301"/><rect x="939.906" y="-176.13" width=".983" height=".99"/><polygon points="940.893,-165.357 940.893,-164.412 939.903,-164.412 939.903,-165.4 940.882,-165.4"/><rect x="938.909" y="-164.403" width=".988" height=".99"/><rect x="938.909" y="-177.127" width=".988" height=".988"/><polygon points="938.905,-163.406 938.905,-162.416 937.916,-162.416 937.916,-161.607 936.91,-161.607 936.91,-179.061 937.916,-179.061 937.916,-178.125 938.901,-178.125 938.901,-177.136 937.916,-177.136 937.916,-163.406"/></g></g></g></svg>