<svg id="svg1" xmlns="http://www.w3.org/2000/svg" viewBox="496 -368 1024 768"><rect x="-6591.4" y="-7628.7" fill="#3498DB" width="16291.8" height="14784" id="bg"/><path id="wire1" fill="none" stroke="#DBDBDB" stroke-miterlimit="10" d="M514.3-413.1c45.9 59.7 97.6 127.8 180.5 125.9 65.6-1.5 127.1-41.7 193.4-31.3 67.3 10.6 116.7 71.3 167.2 111.7 53.2 42.6 112.2 66.4 172 97.3 46 23.8 69.2 58.5 77.5 109.3 5.8 35.4-.1 84.2 22.4 114.6 29.1 39.5 157 60 101 134.8-53 70.9-150.8 81.9-210.6 115.8-16.1 9.1-52.3 35.4-52.6 35.4"/><g id="introduction" inkscape:version="0.48.4 r9939" sodipodi:docname="drawing.svg" xmlns:cc="http://creativecommons.org/ns#" xmlns:sodipodi="http://sodipodi.sourceforge.net/DTD/sodipodi-0.dtd" xmlns:rdf="http://www.w3.org/1999/02/22-rdf-syntax-ns#" xmlns:dc="http://purl.org/dc/elements/1.1/" xmlns:svg="http://www.w3.org/2000/svg" xmlns:inkscape="http://www.inkscape.org/namespaces/inkscape"><g id="macbook"><path fill="#586273" d="M1434.6-61.8c0 .1 0 0 0 0z"/><path opacity=".8" fill="#2980B9" d="M1465.5-89.2l-342.2-155.9s-8.2-3.7-11.9 4.5c-3.7 8.2 4.5 11.9 4.5 11.9l24.6 11.2s-8.2-3.7-11.9 4.5c-4.7 10.3-4.7 10.2-77.5 170.2-3.9 8.5.8 19 9.3 22.9L1338 106.5c8.5 3.9 18.6.1 22.5-8.4 0 0 59.1-129.8 74.2-162.9.1-.2.6-1.3 3.3-7.3 3.7-8.2-4.5-11.9-4.5-11.9l24.6 11.2s8.2 3.7 11.9-4.5-4.5-11.9-4.5-11.9z"/><path fill="#E6E9ED" d="M1367.4 96.1c-3.9 8.5-14 12.3-22.5 8.4L1067.3-21.9c-8.5-3.9-13.2-14.4-9.3-22.9 0 0 73.8-162 77.5-170.2s11.9-4.5 11.9-4.5l293 133.5s8.2 3.7 4.5 11.9-77.5 170.2-77.5 170.2z"/><path opacity=".3" fill="#B7BFC7" d="M1440.6-66.8l-364.2-20.6s54.4-119.4 58.1-127.6 11.9-4.5 11.9-4.5l293 133.5s8.2 3.7 4.5 11.9-3.3 7.3-3.3 7.3z"/><rect x="1210" y="-153" transform="scale(-1) rotate(24.489 -684.177 -5948.764)" fill="#DCE4E8" width="161.9" height="9"/><radialGradient id="mbplight_1_" cx="1913.299" cy="13499.202" r="163.218" gradientTransform="matrix(.9118 .4011 -.0955 .1842 827.556 -3404.37)" gradientUnits="userSpaceOnUse"><stop offset=".103" stop-color="#3498db" stop-opacity=".4"/><stop offset=".795" stop-color="#3498db" stop-opacity=".057"/><stop offset=".909" stop-color="#3498db" stop-opacity="0"/></radialGradient><path fill="#CCD1D9" d="M1464-74.8l-342.2-155.9s-8.2-3.7-4.5-11.9 11.9-4.5 11.9-4.5l342.3 155.9s8.2 3.7 4.5 11.9c-3.8 8.2-12 4.5-12 4.5z"/><g fill="#3B3B3B" stroke="#C1C1C1" stroke-miterlimit="10"><rect x="1167.6" y="-168.9" transform="scale(-1) rotate(24.487 -750.497 -5422.033)" width="18" height="12"/><rect x="1158.6" y="-151.7" transform="scale(-1) rotate(24.489 -659.764 -5380.442)" width="18" height="17"/><rect x="1147.7" y="-127.4" transform="scale(-1) rotate(24.489 -543.297 -5357.905)" width="30" height="19"/><rect x="1137.3" y="-102" transform="scale(-1) rotate(24.487 -430.66 -5340.022)" width="43" height="17"/><rect x="1180.5" y="-141.6" transform="scale(-1) rotate(24.489 -613.287 -5483.71)" width="19" height="17"/><rect x="1181" y="-114.9" transform="scale(-1) rotate(24.489 -485.709 -5486.068)" width="19" height="19"/><rect x="1182.8" y="-86.6" transform="scale(-1) rotate(24.489 -359.844 -5494.247)" width="19" height="17"/><rect x="1204.8" y="-76.9" transform="scale(-1) rotate(24.489 -315.13 -5593.44)" width="18" height="17"/><rect x="1227.6" y="-66.6" transform="scale(-1) rotate(24.487 -267.581 -5698.572)" width="18" height="17"/><rect x="1249.4" y="-56.5" transform="scale(-1) rotate(24.489 -221.194 -5798.825)" width="18" height="17"/><rect x="1272.2" y="-46.3" transform="scale(-1) rotate(24.487 -174.032 -5904.066)" width="18" height="17"/><rect x="1293.1" y="-36.5" transform="scale(-1) rotate(24.487 -129.21 -6002.612)" width="19" height="17"/><rect x="1314.7" y="-21.2" transform="scale(-1) rotate(24.489 -58.571 -6157.448)" width="43" height="17"/><rect x="1203.8" y="-104.6" transform="scale(-1) rotate(24.489 -438.102 -5588.673)" width="18" height="19"/><rect x="1225.6" y="-94.4" transform="scale(-1) rotate(24.489 -391.167 -5691.441)" width="19" height="19"/><rect x="1248.5" y="-84.5" transform="rotate(-155.519 1257.477 -74.977)" width="18" height="19"/><rect x="1270.2" y="-74.3" transform="scale(-1) rotate(24.489 -298.643 -5897.098)" width="19" height="19"/><rect x="1293" y="-64" transform="scale(-1) rotate(24.489 -251.163 -5999.678)" width="18" height="19"/><rect x="1314.8" y="-53.9" transform="scale(-1) rotate(24.489 -204.558 -6102.436)" width="19" height="19"/><rect x="1337.1" y="-41.3" transform="scale(-1) rotate(24.487 -146.316 -6230.763)" width="30" height="19"/><rect x="1203.1" y="-131.1" transform="scale(-1) rotate(24.489 -564.993 -5587.85)" width="19" height="17"/><rect x="1225.2" y="-121.3" transform="matrix(-.91 -.4145 .4145 -.91 2404.14 296.2)" width="18" height="17"/><rect x="1247.9" y="-111.2" transform="scale(-1) rotate(24.487 -473.124 -5792.082)" width="18" height="17"/><rect x="1269.9" y="-101.1" transform="scale(-1) rotate(24.487 -426.856 -5893.453)" width="18" height="17"/><rect x="1292.4" y="-90.7" transform="rotate(-155.519 1301.355 -82.191)" width="18" height="17"/><rect x="1313.4" y="-81.1" transform="scale(-1) rotate(24.487 -334.711 -6096.198)" width="19" height="17"/><rect x="1335.1" y="-65.7" transform="scale(-1) rotate(24.487 -263.428 -6251.424)" width="43" height="17"/><rect x="1128.5" y="-86.2" transform="scale(-1) rotate(24.487 -353.629 -5241.863)" width="18" height="19"/><rect x="1150.2" y="-76" transform="matrix(-.91 -.4145 .4145 -.91 2242.66 353.74)" width="19" height="19"/><rect id="spacebar" x="1168.6" y="-45.6" transform="matrix(-.91 -.4145 .4145 -.91 2357.735 439.5)" width="115.9" height="19"/><rect x="1283.1" y="-15.6" transform="scale(-1) rotate(24.487 -28.297 -5956.573)" width="19" height="19"/><rect x="1305.9" y="-5.3" transform="scale(-1) rotate(24.487 19.563 -6061.525)" width="19" height="19"/><rect x="1328.6" y="4.9" transform="scale(-1) rotate(24.487 66.56 -6163.905)" width="18" height="19"/><rect x="1189.4" y="-158.6" transform="scale(-1) rotate(24.489 -703.162 -5524.61)" width="19" height="12"/><rect x="1212.2" y="-148.3" transform="scale(-1) rotate(24.487 -655.564 -5629.742)" width="19" height="12"/><rect x="1234" y="-138.5" transform="scale(-1) rotate(24.489 -610.498 -5727.891)" width="18" height="12"/><rect x="1256.7" y="-128.1" transform="scale(-1) rotate(24.489 -562.606 -5832.47)" width="18" height="12"/><rect x="1278.7" y="-118.3" transform="scale(-1) rotate(24.487 -517.3 -5934.076)" width="18" height="12"/><rect x="1301.4" y="-107.9" transform="scale(-1) rotate(24.487 -469.39 -6038.659)" width="18" height="12"/><rect x="1322.4" y="-98.1" transform="scale(-1) rotate(24.487 -424.177 -6137.563)" width="19" height="12"/><rect x="1345" y="-87.7" transform="scale(-1) rotate(24.489 -376.388 -6241.685)" width="19" height="12"/><rect x="1367.7" y="-77.5" transform="rotate(-155.505 1376.687 -71.486)" width="18" height="12"/></g></g><g id="bevanda"><circle opacity=".8" fill="#2980B9" cx="915.6" cy="-231.3" r="50.6"/><circle fill="#E6E9ED" cx="920.6" cy="-233.3" r="50.6"/><path fill="#E74C3C" d="M920.6-275c23 0 41.7 18.7 41.7 41.7s-18.7 41.7-41.7 41.7c-10.4 0-19.9-3.8-27.2-10.1-8.9-7.6-14.5-19-14.5-31.6 0-23 18.7-41.7 41.7-41.7z"/><path id="linecover1" fill="#E6E9ED" d="M920.6-276c23.6 0 42.7 19.1 42.7 42.7s-19.1 42.7-42.7 42.7c-10.6 0-20.3-3.9-27.8-10.3-9.1-7.8-14.9-19.4-14.9-32.4 0-23.6 19.1-42.7 42.7-42.7z"/><ellipse transform="scale(-1) rotate(6.8 -3386.206 -15262.19)" fill="#D8D8DA" cx="906.7" cy="-201.2" rx="11.6" ry="7.7"/><polygon fill="#CCD1D9" points="857.4,-211.1 898.3,-204.1 897.8,-200.6 856.5,-203.4"/><ellipse transform="scale(-1) rotate(6.8 -3386.17 -15262.208)" fill="#AAB2BD" cx="906.7" cy="-201.2" rx="9.6" ry="6.4"/><path fill="#FFF" d="M893.3-276.2l9.7 12.5c1.6 2.1 1.2 5-.8 6.7-2.1 1.6-5 1.2-6.6-.8l-9.7-12.5c-1.6-2.1-1.2-5 .8-6.7 2-1.6 5-1.2 6.6.8z"/><circle fill="#FFF" cx="920.6" cy="-233.3" r="34.8"/><circle fill="#E6E7E8" cx="920.6" cy="-233.3" r="31.3"/><circle fill="#49433C" cx="920.6" cy="-233.3" r="29.6"/><path fill="#363532" d="M899.4-216.8c9.1 11.7 26 13.8 37.7 4.7.7-.5.8-1.5.3-2.2s-1.5-.8-2.2-.3l-.9.6-.2.2c-.3.2-.6.4-.8.5-.1.1-.2.1-.3.2l-.6.3c-.1.1-.3.1-.4.2-.2.1-.5.2-.7.4-.2.1-.4.2-.5.3s-.3.1-.4.2c-.2.1-.3.2-.5.2-.2.1-.5.2-.7.3s-.3.1-.5.2-.3.1-.5.2c-.1.1-.3.1-.4.1-.3.1-.6.2-.9.2-.1 0-.2.1-.3.1-.2.1-.5.1-.8.2-.1 0-.2 0-.2.1-.3.1-.7.1-1 .2h-.1c-.2 0-.4.1-.6.1-.1 0-.3 0-.4.1h-.1c-.7.1-1.5.1-2.2.1-.7 0-1.5 0-2.2-.1h-.1c-.3 0-.7-.1-1-.1h-.1c-.3 0-.6-.1-.9-.1-.1 0-.3 0-.4-.1-.2 0-.4-.1-.5-.1-.6-.1-1.3-.3-1.9-.5-3.4-1-6.6-2.8-9.2-5.2h-.1l-.4-.4-.4-.4-.4-.4c-.2-.2-.4-.4-.6-.7-.1-.1-.1-.2-.2-.2-.2-.3-.5-.5-.7-.8l-.6-.9c-.1-.1-.1-.2-.2-.3-.2-.2-.3-.5-.5-.7-.1-.1-.2-.3-.3-.4-.1-.1-.2-.3-.3-.4-.1-.2-.2-.4-.3-.5v-.1c-1.7-3.2-2.6-6.7-2.8-10.3v-2-.5-.4c0-.3.1-.6.1-1v-.1c0-.3.1-.7.1-1v-.1c.1-.7.3-1.4.5-2.2.2-.7.4-1.4.7-2.1v-.1c.1-.1.1-.3.2-.4.1-.2.2-.4.2-.6v-.1c.1-.3.3-.6.4-.9 0-.1.1-.1.1-.2.1-.2.2-.5.4-.7.1-.1.1-.2.2-.3.1-.3.3-.5.4-.8.1-.1.2-.3.3-.4.1-.1.2-.3.3-.4.1-.1.2-.3.3-.4.2-.2.3-.4.5-.6.1-.1.2-.3.3-.4l.3-.3c.1-.2.3-.3.4-.5.2-.2.3-.4.5-.6l.3-.3.5-.5c.1-.1.1-.2.2-.2.2-.2.5-.4.7-.7l.2-.2c.3-.2.5-.5.8-.7.7-.5.8-1.5.3-2.2-.5-.7-1.5-.8-2.2-.3-11.7 9.1-13.8 26-4.7 37.7zM909.3-256c.3.8 1.3 1.2 2.1.8l.6-.3h.1c.2-.1.4-.1.6-.2.1 0 .1 0 .2-.1.2-.1.4-.1.6-.2.4-.1.9-.3 1.4-.4h.2c.4-.1.9-.2 1.3-.3.1 0 .2 0 .3-.1h-.2.2c.1 0 .3 0 .4-.1h.1-.1.2c.6-.1 1.1.2 1.4.6.2.2.3.5.3.8.1.9-.5 1.7-1.3 1.8-1.3.2-2.6.5-3.9.9h-.1c-.4.1-.8.3-1.2.5-.8.3-1.1 1.3-.8 2.1s1.3 1.2 2.1.8c2.2-.9 4.5-1.4 6.9-1.4h2.2c.4.1.7.3.9.6s.4.7.3 1.2c-.1.9-.9 1.5-1.8 1.4-2.5-.3-5 0-7.2 1h-.1c-.8.3-1.2 1.3-.8 2.1.3.8 1.3 1.2 2.1.8 4.6-1.9 10-.5 13 3.4 3.1 4 3.1 9.5.1 13.5-.5.7-.4 1.7.3 2.2s1.7.4 2.2-.3l.2-.2c1.4-1.9 2.3-4.2 2.6-6.6.1-.9.9-1.5 1.8-1.4.4.1.8.3 1.1.6.2.3.4.7.3 1.1v.1c0 .1 0 .2-.1.3v.3c0 .1-.1.3-.1.4 0 .1 0 .2-.1.3 0 .2-.1.3-.1.5v.2c-.6 2.3-1.6 4.4-3 6.3-.5.7-.4 1.7.3 2.2s1.7.4 2.2-.3c.3-.4.5-.7.8-1.1v-.1c.7-1.1 1.4-2.3 1.9-3.5.3-.8 1.2-1.2 2.1-.9.3.1.5.3.6.5.3.4.4 1 .2 1.5 0 .1 0 .1-.1.2-.1.2-.2.4-.2.6 0 .1-.1.2-.1.3l-.3.6c0 .1-.1.2-.1.2l-.3.6c0 .1-.1.1-.1.2-.1.3-.3.5-.5.8v.1c-.1.2-.2.4-.4.6l-.1.1c-.1.1-.1.2-.2.3s-.1.1-.1.2l-.1.1c-.1.2-.3.4-.4.6-.5.7-.4 1.7.3 2.2s1.7.4 2.2-.3c7.3-9.7 7.3-23.1-.2-32.7-7.4-9.6-20.5-13-31.6-8.3-.9.6-1.3 1.5-1 2.3zm33 32.4c0 .1-.1.2-.1.2 0-.1 0-.2.1-.2zm-.4.8c0 .1-.1.1-.1.2 0 0 0-.1.1-.2zm-.5.9l-.1.1s.1 0 .1-.1zm1.1-2.4s0-.1.1-.1l-.1.1c.1 0 0 0 0 0z"/><path fill="#363532" d="M939.5-218.9c0-.1 0-.1 0 0 .2-.2.3-.4.4-.6-.1.2-.3.4-.4.6z"/></g><g id="mouse"><path opacity=".8" fill="#2980B9" d="M1471.8 116.1s0-.1 0 0c-9.8-7.2-23.6-5.2-30.9 4.6l-.1.1-.1.2-24.6 33.3c-.1.1-.2.3-.2.4l-1.3 1.8c-7.2 9.9-5 23.5 4.7 30.7 9.8 7.3 23.7 5.1 30.9-4.6l26.2-35.5c7.3-9.9 5.2-23.8-4.6-31z"/><path fill="#CCD1D9" d="M1446.7 119.9l-.2.3-24.6 33.3c-.1.1-.1.2-.2.3l-1.2 1.6c-7.3 10.1-5.1 23.6 4.7 30.9l52.4-70.9c-9.8-7.3-23.6-5.2-30.9 4.5z"/><path fill="#E6E9ED" d="M1477.6 115.4l-52.5 70.9c9.8 7.3 23.7 5.2 30.9-4.6l-.1-.1.1.1 26.2-35.4c7.3-9.8 5.2-23.7-4.6-30.9z"/></g><g id="iphone"><path opacity=".8" fill="#2980B9" d="M1456.8-184.7l38.5-44.1c3-3.5 2.7-8.8-.8-11.8l-88.1-77c-3.5-3-8.8-2.7-11.8.8l-38.5 44.1c-3 3.5-2.7 8.8.8 11.8l88.1 77c3.4 3 8.7 2.6 11.8-.8z"/><path fill="#434A54" d="M1400.1-317.9l-38.5 44.1c-3 3.5-2.7 8.8.8 11.8l88.1 77c3.5 3 8.8 2.7 11.8-.8l38.5-44.1c3-3.5 2.7-8.8-.8-11.8l-88.1-77c-3.5-3-8.8-2.7-11.8.8z"/><path fill="#586273" d="M1488.2-240.9l-38.5 44.1-81.8-71.5 38.5-44 81.8 71.4z"/><rect x="1469.1" y="-215.2" transform="rotate(131.15 1475.39 -213.129)" fill="#434A54" width="12.5" height="4.2"/><path fill="#F7F9F8" d="M1367.9-268.3l81.8 71.5 38.5-44.1-81.8-71.5-38.5 44.1z"/><path fill="#44C650" d="M1431.8-273.9l-5.5-2.6c-.6-.3-1.5-.3-2.1 0l-9.2 4.3-1.3-1.1c-.4-2.2-1.7-4.6-3.9-6.4l-1.7-1.5c-3-2.6-7.5-2.5-10 .4s-2.1 7.3.9 10l1.7 1.5c2.1 1.9 4.6 2.9 6.9 3l1.3 1.1-3.1 9.7c-.2.6 0 1.5.3 2.1l3.3 5.1c.3.5 1 .6 1.4.1l10.6-12.1 10.6-12.1c.5-.6.3-1.2-.2-1.5z"/><rect x="1415" y="-254.7" transform="rotate(131.14 1432.953 -250.166)" fill="#DCE4E8" width="35.9" height="9"/><rect x="1425.3" y="-245.8" transform="rotate(131.15 1443.223 -241.277)" fill="#DCE4E8" width="35.9" height="9"/><rect x="1444" y="-236.9" transform="rotate(131.15 1452.992 -232.379)" fill="#DCE4E8" width="17.9" height="9"/><circle fill="#586273" cx="1434.1" cy="-231.2" r="1.7"/><circle fill="#586273" cx="1440" cy="-237.9" r="1.7"/><circle fill="#586273" cx="1437.1" cy="-234.5" r="1.7"/><path fill="#586273" d="M1444.1-242.6c.7.6.8 1.7.1 2.4-.6.7-1.7.8-2.4.2-.7-.6-.8-1.7-.1-2.4.6-.7 1.7-.8 2.4-.2z"/><circle fill="#586273" cx="1424" cy="-240" r="1.7"/><circle fill="#586273" cx="1435.8" cy="-253.5" r="1.7"/><circle fill="#586273" cx="1429.9" cy="-246.8" r="1.7"/><circle fill="#586273" cx="1427" cy="-243.4" r="1.7"/><circle fill="#586273" cx="1432.9" cy="-250.1" r="1.7"/><rect x="1448.7" y="-233.5" transform="rotate(131.132 1453.15 -232.178)" fill="#E74C3C" width="9" height="2.7"/><path fill="none" d="M1400.1-317.9l-29.9 34.2 113.6 73.3 17.1-19.5c3-3.5 2.7-8.8-.8-11.8l-88.1-77c-3.6-3-8.9-2.7-11.9.8z"/></g><g id="matita1"><polygon opacity=".8" fill="#2980B9" points="1614,-48.9 1552,-176.9 1546.7,-174.3 1541.3,-171.8 1603.4,-43.7 1608.7,-46.3"/><polygon fill="#2980B9" points="1617.8,-30.9 1614,-48.9 1603.4,-43.7 1615.1,-29.6 1619.1,-25"/><g fill="#58585C"><polygon points="1612.8,-47.4 1553.4,-170.1 1550.8,-175.4 1545.4,-172.9 1607.5,-44.8"/><polygon points="1612.8,-47.4 1618.1,-50 1556.1,-178 1550.8,-175.4 1553.4,-170.1"/></g><polygon fill="#464E5C" points="1623.1,-26 1621.9,-32 1619.2,-30.7"/><polygon fill="#F7D39A" points="1621.9,-32 1618.1,-50 1607.5,-44.8 1619.2,-30.7"/><g><rect x="1552.5" y="-161.6" transform="rotate(-25.863 1558.51 -159.422)" fill="#DA4453" width="11.9" height="4.4"/></g></g><g id="foglio2"><polygon fill="#2980B9" points="661.6,-360.2 637.5,-171.7 788.3,-152.4 812.4,-341 814,-353.5 663.3,-372.8" opacity=".8"/><rect x="652.3" y="-354" transform="scale(-1) rotate(7.285 -4068.257 -11440.96)" fill="#EBF4FF" width="151.9" height="190"/><rect x="665.2" y="-366" transform="scale(-1) rotate(7.285 -5649.365 -11643.631)" fill="#44C650" width="151.9" height="12.7"/><rect x="699.4" y="-287.6" transform="rotate(7.285 705.73 -281.233)" fill="none" width="12.7" height="12.7"/><rect x="721.8" y="-285.2" transform="scale(-1) rotate(7.279 -4433.828 -11398.087)" fill="none" width="6.3" height="6.3"/><rect x="676.6" y="-301.7" transform="scale(-1) rotate(7.285 -4713.858 -11124.498)" fill="#434A54" width="63.2" height="3.2"/><rect x="745.6" y="-294.2" transform="scale(-1) rotate(7.285 -4596.043 -12036.337)" fill="#3498DB" width="41.1" height="3.2"/><rect x="669.3" y="-292.4" transform="scale(-1) rotate(7.285 -4567.767 -11482.65)" fill="#3498DB" width="123.4" height="3.2"/><rect x="674.9" y="-291.2" transform="scale(-1) rotate(7.285 -4548.954 -10851.114)" fill="#3498DB" width="31.6" height="3.2"/><rect x="712.7" y="-287.4" transform="rotate(-172.703 719.012 -285.774)" fill="#434A54" width="12.7" height="3.2"/><rect x="731.3" y="-282.6" transform="scale(-1) rotate(7.285 -4413.873 -11911.453)" fill="#3498DB" width="53.8" height="3.2"/><rect x="659.1" y="-242" transform="scale(-1) rotate(7.285 -3776.029 -10602.905)" fill="#434A54" width="31.6" height="3.2"/><rect x="657.6" y="-230.4" transform="rotate(-172.703 667.065 -228.778)" fill="#434A54" width="19" height="3.2"/><rect x="682.7" y="-227.5" transform="rotate(-172.703 689.013 -225.877)" fill="#434A54" width="12.7" height="3.2"/><rect x="658.4" y="-236.3" transform="scale(-1) rotate(7.285 -3686.546 -10540.885)" fill="#434A54" width="25.3" height="3.2"/><rect x="656.7" y="-223.2" transform="scale(-1) rotate(7.285 -3480.725 -10565.213)" fill="#434A54" width="31.6" height="3.2"/><rect x="662" y="-278" transform="rotate(-172.703 680.963 -262.116)" fill="#CCD1D9" width="38" height="31.7"/><rect x="704.5" y="-223.2" transform="scale(-1) rotate(7.285 -3480.769 -11366.37)" fill="#434A54" width="38" height="3.2"/><rect x="703.8" y="-218.5" transform="scale(-1) rotate(7.285 -3406.924 -11156.663)" fill="#434A54" width="12.7" height="3.2"/><rect x="722.9" y="-216.5" transform="rotate(-172.703 726.018 -214.868)" fill="#434A54" width="6.3" height="3.2"/><rect x="705.4" y="-230.7" transform="scale(-1) rotate(7.285 -3598.584 -11231.276)" fill="#434A54" width="19" height="3.2"/><rect x="730.6" y="-227.7" transform="scale(-1) rotate(7.285 -3551.396 -11577.662)" fill="#434A54" width="12.7" height="3.2"/><rect x="706.2" y="-236" transform="scale(-1) rotate(7.285 -3681.787 -11342.79)" fill="#434A54" width="31.6" height="3.2"/><rect x="708.9" y="-272" transform="scale(-1) rotate(7.285 -4023.509 -11435.477)" fill="#CCD1D9" width="38" height="31.7"/><rect x="753.3" y="-229.7" transform="scale(-1) rotate(7.285 -3582.854 -12132.977)" fill="#434A54" width="38" height="3.2"/><rect x="751.8" y="-217.9" transform="rotate(-172.703 764.414 -216.277)" fill="#434A54" width="25.3" height="3.2"/><rect x="753.6" y="-225" transform="scale(-1) rotate(7.285 -3509.009 -11938.975)" fill="#434A54" width="12.7" height="3.2"/><rect x="750.9" y="-212.1" transform="scale(-1) rotate(7.285 -3306.405 -11946.04)" fill="#434A54" width="19" height="3.2"/><rect x="776.1" y="-209.2" transform="scale(-1) rotate(7.285 -3260.802 -12292.418)" fill="#434A54" width="12.7" height="3.2"/><rect x="771.4" y="-222.1" transform="rotate(-172.703 780.862 -220.477)" fill="#434A54" width="19" height="3.2"/><rect x="756.1" y="-265.9" transform="scale(-1) rotate(7.285 -3928.456 -12176.957)" fill="#CCD1D9" width="38" height="31.6"/><rect x="669.2" y="-322" transform="scale(-1) rotate(7.285 -4958.16 -11555.667)" fill="#CCD1D9" width="132.9" height="12.7"/><rect x="676.1" y="-324" transform="scale(-1) rotate(7.285 -5064.203 -10726.235)" fill="#E5E5E5" width="13.3" height="3.2"/><rect x="695.8" y="-325.4" transform="scale(-1) rotate(7.285 -5011.593 -11140.147)" fill="#434A54" width="26.6" height="12.7"/><rect x="702.7" y="-320.6" transform="scale(-1) rotate(7.285 -5010.768 -11142.547)" fill="#E5E5E5" width="13.3" height="3.2"/><rect x="729" y="-317.2" transform="rotate(-172.703 735.615 -315.577)" fill="#E5E5E5" width="13.3" height="3.2"/><rect x="755.3" y="-313.9" transform="scale(-1) rotate(7.285 -4905.55 -11970.4)" fill="#E5E5E5" width="13.3" height="3.2"/><rect x="781.7" y="-310.5" transform="scale(-1) rotate(7.285 -4852.128 -12385.093)" fill="#E5E5E5" width="13.3" height="3.2"/><rect x="675" y="-339.3" transform="scale(-1) rotate(7.285 -5304.536 -11199.87)" fill="#CCD1D9" width="76" height="3.2"/><rect x="676" y="-349.2" transform="scale(-1) rotate(7.285 -5460.057 -10767.884)" fill="#CCD1D9" width="19" height="3.2"/><g><rect x="653" y="-202.6" transform="scale(-1) rotate(7.285 -2983.585 -11302.745)" fill="#CCD1D9" width="132.9" height="25.3"/></g></g><g id="foglio1"><rect x="489.5" y="-374" transform="rotate(161.714 568.417 -262.884)" fill="#2980B9" width="157.9" height="222.2"/><rect x="459.3" y="-341.2" transform="rotate(-108.282 570.434 -262.276)" fill="#F7F9F8" width="222.2" height="157.9"/><rect x="565" y="-319.4" transform="rotate(161.714 593.47 -316.368)" fill="#B7BFC7" width="57" height="6"/><rect x="567.9" y="-309.9" transform="rotate(161.714 596.454 -306.86)" fill="#DCE4E8" width="57" height="6"/><rect x="571.2" y="-300.3" transform="rotate(161.714 599.669 -297.255)" fill="#DCE4E8" width="57" height="6"/><rect x="574.3" y="-290.9" transform="rotate(161.714 602.76 -287.861)" fill="#DCE4E8" width="57" height="6"/><rect x="484" y="-325.3" transform="rotate(161.714 550.906 -322.282)" fill="#DCE4E8" width="133.9" height="6"/><rect x="477.6" y="-354.3" transform="rotate(161.714 544.6 -341.28)" fill="#B7BFC7" width="133.9" height="26"/><g fill="#DCE4E8"><rect x="505.2" y="-260.7" transform="rotate(161.714 572.13 -257.665)" width="133.9" height="6"/><rect x="508.5" y="-251.3" transform="rotate(161.714 575.42 -248.268)" width="133.9" height="6"/><rect x="511.4" y="-241.8" transform="rotate(161.714 578.404 -238.76)" width="133.9" height="6"/></g><g fill="#DCE4E8"><rect x="529.7" y="-186.7" transform="rotate(161.714 596.608 -183.657)" width="133.9" height="6"/><rect x="533.7" y="-172.4" transform="rotate(161.714 585.666 -169.384)" width="104" height="6"/></g><g><rect x="518.6" y="-216.6" transform="rotate(161.714 563.069 -213.557)" fill="#B7BFC7" width="89" height="6"/><rect x="521.7" y="-207.2" transform="rotate(161.714 566.16 -204.163)" fill="#DCE4E8" width="89" height="6"/><rect x="524.9" y="-197.6" transform="rotate(161.714 569.372 -194.557)" fill="#DCE4E8" width="89" height="6"/><rect x="617" y="-239.8" transform="scale(-1) rotate(-18.276 1409.82 3944.41)" fill="#44C650" width="35" height="26"/></g><g><rect x="497.7" y="-288" transform="rotate(161.714 501.157 -270.052)" fill="#DCE4E8" width="7" height="36"/><rect x="507.2" y="-291.3" transform="rotate(161.714 510.664 -273.267)" fill="#DCE4E8" width="7" height="36"/><rect x="516.7" y="-294.4" transform="rotate(161.714 520.17 -276.36)" fill="#DCE4E8" width="7" height="36"/><rect x="526.3" y="-297.5" transform="rotate(161.714 529.767 -279.484)" fill="#DCE4E8" width="7" height="36"/><rect x="535.7" y="-300.7" transform="rotate(161.714 539.159 -282.663)" fill="#DCE4E8" width="7" height="36"/><rect x="545.2" y="-303.8" transform="rotate(161.732 548.664 -285.757)" fill="#DCE4E8" width="7" height="36"/><rect x="554.8" y="-306.8" transform="rotate(161.714 558.274 -288.774)" fill="#DCE4E8" width="7" height="36"/><rect x="500.9" y="-268.6" transform="rotate(161.732 504.365 -260.555)" fill="#E74C3C" width="7" height="16"/><rect x="509.9" y="-274.7" transform="rotate(161.714 513.362 -265.156)" fill="#E74C3C" width="7" height="19"/><rect x="520.6" y="-270.9" transform="rotate(161.714 524.075 -264.888)" fill="#E74C3C" width="7" height="12"/><rect x="528.4" y="-283.9" transform="rotate(161.714 531.858 -272.857)" fill="#E74C3C" width="7" height="22"/><rect x="537.3" y="-290.9" transform="rotate(161.714 540.767 -277.855)" fill="#E74C3C" width="7" height="26"/><rect x="550" y="-274.5" transform="rotate(161.714 553.467 -271.489)" fill="#E74C3C" width="7" height="6"/><rect x="557.9" y="-287.4" transform="rotate(161.732 561.356 -279.38)" fill="#E74C3C" width="7" height="16"/></g></g><g id="occhiali"><path fill="#586273" d="M631.1-243.7c-1.3-.2-2.2-1.5-2-2.8 1.6-9.2-4.6-18.1-13.8-19.7L529-281.4c-1.3-.2-2.2-1.5-2-2.8s1.5-2.2 2.8-2l86.3 15.2c11.9 2.1 19.9 13.5 17.8 25.4-.2 1.2-1.5 2.1-2.8 1.9z"/><path fill="#586273" d="M631.1-243.7c-1.3-.2-2.2-1.5-2-2.8 1.6-9.2-4.6-18.1-13.8-19.7L529-281.4c-1.3-.2-2.2-1.5-2-2.8s1.5-2.2 2.8-2l86.3 15.2c11.9 2.1 19.9 13.5 17.8 25.4-.2 1.2-1.5 2.1-2.8 1.9z"/><path fill="#586273" d="M535.3-260.6c-1.3-.2-2.2-1.5-2-2.8 2.1-11.9 13.5-19.9 25.4-17.8L645-266c1.3.2 2.2 1.5 2 2.8s-1.5 2.2-2.8 2l-86.3-15.2c-9.2-1.6-18.1 4.6-19.7 13.8-.4 1.4-1.6 2.2-2.9 2z"/><path fill="#EFEEEE" d="M574-256.2c-.9 5.3-6 8.8-11.3 7.9l-28.8-5.1c-5.3-.9-8.8-6-7.9-11.3l3.4-19.2c.9-5.3 6-8.8 11.3-7.9l28.8 5.1c5.3.9 8.8 6 7.9 11.3l-3.4 19.2zM641.1-244.4c-.9 5.3-6 8.8-11.3 7.9l-28.8-5.1c-5.3-.9-8.8-6-7.9-11.3l3.4-19.2c.9-5.3 6-8.8 11.3-7.9l28.8 5.1c5.3.9 8.8 6 7.9 11.3l-3.4 19.2z" opacity=".3"/><path fill="#586273" d="M593.6-255.3c-1.3-.2-2.2-1.5-2-2.8.7-4-2-7.8-5.9-8.5-4-.7-7.8 2-8.5 5.9-.2 1.3-1.5 2.2-2.8 2s-2.2-1.5-2-2.8c1.2-6.6 7.5-11 14.1-9.9 6.6 1.2 11 7.5 9.9 14.1-.2 1.4-1.5 2.3-2.8 2z"/><path fill="#EFEEEE" d="M540.7-291.4c-5.3-.9-10.2 2.3-11.1 7.6l-3.4 19.2c-.9 5.3 2.5 10.8 7.8 11.7l14.1 2.5 6.8-38.4-14.2-2.6zM607.8-279.6c-5.3-.9-9.4 2.4-10.3 7.7l-3.4 19.2c-.9 5.3 1.6 10.6 6.9 11.5l14 2.5 6.8-38.4-14-2.5z" opacity=".3"/><g><path fill="none" d="M636.2-272.5l-28.8-5.1c-4-.7-7.8 2-8.5 5.9l-3.4 19.2c-.7 4 2 7.8 5.9 8.5l28.8 5.1c4 .7 7.8-2 8.5-5.9l3.4-19.2c.7-4-2-7.8-5.9-8.5zM569.1-284.3l-28.8-5.1c-4-.7-7.8 2-8.5 5.9l-3.4 19.2c-.7 4 2 7.8 5.9 8.5l28.8 5.1c4 .7 7.8-2 8.5-5.9l3.4-19.2c.7-4-2-7.8-5.9-8.5z"/><path fill="#586273" d="M569.9-289.1l-28.8-5.1c-6.6-1.2-12.9 3.3-14.1 9.9l-3.4 19.2c-1.2 6.6 3.3 12.9 9.9 14.1l28.8 5.1c6.6 1.2 12.9-3.3 14.1-9.9l3.4-19.2c1.1-6.6-3.3-12.9-9.9-14.1zm1.7 32.4c-.7 4-4.5 6.6-8.5 5.9l-28.8-5.1c-4-.7-6.6-4.5-5.9-8.5l3.4-19.2c.7-4 4.5-6.6 8.5-5.9l28.8 5.1c4 .7 6.6 4.5 5.9 8.5l-3.4 19.2zM637-277.3l-28.8-5.1c-6.6-1.2-12.9 3.3-14.1 9.9l-3.4 19.2c-1.2 6.6 3.3 12.9 9.9 14.1l28.8 5.1c6.6 1.2 12.9-3.3 14.1-9.9l3.4-19.2c1.1-6.6-3.3-12.9-9.9-14.1zm1.7 32.5c-.7 4-4.5 6.6-8.5 5.9l-28.8-5.1c-4-.7-6.6-4.5-5.9-8.5l3.4-19.2c.7-4 4.5-6.6 8.5-5.9l28.8 5.1c4 .7 6.6 4.5 5.9 8.5l-3.4 19.2z"/></g></g><g id="calcolatrice"><path opacity=".8" fill="#2980B9" d="M1682.1-330.8l-33.9-36.1c-2.6-2.8-7.1-2.9-9.9-.3l-53.9 50.6c-2.8 2.6-2.9 7.1-.3 9.9l33.9 36.1c2.6 2.8 7.1 2.9 9.9.3l53.9-50.6c2.8-2.6 3-7.1.3-9.9z"/><path fill="#F7F9F8" d="M1588.4-316.6c-2.8 2.6-2.9 7.1-.3 9.9l33.9 36.1c2.6 2.8 7.1 2.9 9.9.3l53.9-50.6c2.8-2.6 2.9-7.1.3-9.9l-33.9-36.1c-2.6-2.8-7.1-2.9-9.9-.3l-53.9 50.6z"/><rect x="1624.9" y="-345.1" transform="rotate(-133.188 1629.508 -340.446)" fill="#E74C3C" width="9.3" height="9.3"/><rect x="1634.4" y="-334.9" transform="rotate(-133.188 1639.04 -330.231)" fill="#E74C3C" width="9.3" height="9.3"/><rect x="1644" y="-324.6" transform="rotate(-133.188 1648.676 -319.922)" fill="#E74C3C" width="9.3" height="9.3"/><rect x="1653.5" y="-314.4" transform="rotate(-133.188 1658.202 -309.73)" fill="#E74C3C" width="9.3" height="9.3"/><rect x="1614.6" y="-335.6" transform="rotate(-133.196 1619.25 -330.92)" fill="#E74C3C" width="9.3" height="9.3"/><rect x="1624.3" y="-325.4" transform="rotate(-133.188 1628.938 -320.744)" fill="#E74C3C" width="9.3" height="9.3"/><rect x="1633.7" y="-315" transform="rotate(-133.181 1638.38 -310.305)" fill="#E74C3C" width="9.3" height="9.3"/><rect x="1643.5" y="-304.8" transform="rotate(-133.188 1648.108 -300.126)" fill="#E74C3C" width="9.3" height="9.3"/><rect x="1604.3" y="-325.9" transform="rotate(-133.181 1608.948 -321.216)" fill="#E74C3C" width="9.3" height="9.3"/><rect x="1614" y="-315.6" transform="rotate(-133.188 1618.68 -310.918)" fill="#E74C3C" width="9.3" height="9.3"/><rect x="1623.6" y="-305.5" transform="rotate(-133.188 1628.234 -300.818)" fill="#E74C3C" width="9.3" height="9.3"/><rect x="1633.2" y="-295.1" transform="rotate(-133.188 1637.817 -290.486)" fill="#E74C3C" width="9.3" height="9.3"/><rect x="1594.2" y="-316.3" transform="rotate(-133.196 1598.811 -311.658)" fill="#E74C3C" width="9.3" height="9.3"/><rect x="1603.8" y="-306" transform="scale(-1) rotate(46.799 -696.37 -3716.84)" fill="#E74C3C" width="9.3" height="9.3"/><rect x="1611.1" y="-290.5" transform="rotate(-133.188 1622.765 -285.897)" fill="#656D78" width="23.4" height="9.3"/><rect x="1631.8" y="-347.2" transform="rotate(-133.188 1657.538 -337.837)" fill="#2C3E50" width="51.4" height="18.7"/><rect x="1661.7" y="-335.7" transform="rotate(-133.181 1664.034 -331.095)" fill="#ECF0F1" width="4.7" height="9.3"/><rect x="1668" y="-328.9" transform="scale(-1) rotate(46.783 -749.515 -3861.284)" fill="#ECF0F1" width="4.7" height="9.4"/><rect x="1648.9" y="-349.2" transform="rotate(-133.173 1651.2 -344.599)" fill="#ECF0F1" width="4.7" height="9.3"/><rect x="1655.2" y="-342.4" transform="rotate(-133.181 1657.544 -337.78)" fill="#ECF0F1" width="4.7" height="9.3"/></g><g id="hellocontainer"><text id="hello" transform="translate(526.858 21.082)" fill="#ECF0F1" font-weight="900" font-size="120">hello</text></g><g id="subtitle" font-weight="400" font-size="14"><text id="scrolldown" transform="translate(905.727 21.082)" fill="#F5ECD9">scroll down</text><text id="viewresume" transform="translate(980.327 21.082)" fill="#DED6C7">or just view my resume.</text></g></g><g id="intro3" fill="#01050A" font-weight="100" font-size="18"><text transform="translate(531.193 283.922)">a design and technology hybrid .</text><text transform="translate(529.305 224.322)">- Participate in the design process: Discover, Ideate, Design &amp; Def ine</text><text transform="translate(529.305 245.922)">- Leads the UI development efforts across all web applications, ensuring best practices are followed at all times.</text><text transform="translate(529.305 202.122)">* An engineer who has the technical knowhow and edge to create production code and:</text></g><g id="intro2"><text id="h" transform="translate(526.845 145.922)" fill="#F5F7FA" font-weight="100" font-size="30">I’m Lead Product Design Engineer* @ Workshare.com, London</text></g><g id="intro1" fill="#ECF0F1" font-weight="100" font-size="30"><text transform="translate(527.345 60.476)">I’m Albino Tonnina,</text><text transform="translate(527.345 96.476)">a self-taught developer.</text></g></svg>