<?xml version="1.0" encoding="utf-8"?>
<!-- Generator: Adobe Illustrator 19.0.0, SVG Export Plug-In . SVG Version: 6.00 Build 0)  -->
<svg version="1.1" id="Layer_1" xmlns="http://www.w3.org/2000/svg" xmlns:xlink="http://www.w3.org/1999/xlink" x="0px" y="0px"
	 viewBox="0 0 342 79" enable-background="new 0 0 342 79" xml:space="preserve">
<g id="XMLID_1_">
	<path id="XMLID_3_" d="M8.5,20.4c5.3,2.1-0.3,1.4-0.3,2c-0.4,3.7-0.7,10.7-0.5,15.8c0.2,3.2,3.1,13.9-1.9,15.2
		c-3.6,0.9-6.1-7.2-3.6-7.2c1.9,0,0.5,5.6,3.5,5.3c2.1-0.2,0.4-8.6,0.3-9.1c-0.5-6.6-0.6-13.1-0.6-19.7c-0.6,0.1-4.3,0.8-4.3-0.9
		C1.3,20.3,7.7,20.5,8.5,20.4z"/>
	<path id="XMLID_18_" d="M16.5,41.1c3.7,1.3,4.8,11.9,0,12.3C10.5,54,12.4,42.5,16.5,41.1z M14.6,47.5c0,1.3,0.1,4,1.9,4
		c1-1,1.8-7.5-0.2-8.2C15,44.4,14.4,45.8,14.6,47.5z"/>
	<path id="XMLID_21_" d="M27.2,40.8c4.4,0.4,3.4,12.7,1.3,12.5C26,53,30.3,43.1,27,42.8c-4.1-0.3-0.5,10.4-3.3,10.5
		c-1-0.1-3-12.1-0.5-12.3c0,1,0.3,1.5,1,1.6C24.8,41.4,25.9,40.8,27.2,40.8C29.5,40.9,26.2,40.7,27.2,40.8z"/>
	<path id="XMLID_23_" d="M37.8,41.4c5.1-0.2,4.6,15.5,1.3,7.7C32.9,59.8,28,42.3,37.8,41.4z M34,49.3c0.7,5.8,5-5.8,4.9-5.6
		C35.7,43.3,33.9,46,34,49.3z"/>
	<path id="XMLID_26_" d="M46.4,23.1c1.8,0,0.8,14.3,0.8,15.9c0.7,0,3.1-1,3.1,0.6c0,1.5-2.5,0.7-2.6,1.3c0,0.3-0.2,2.2-0.4,2.8
		c-0.2,0.8,1.3,9.9-0.8,9.9c-1.8,0-1-8.2-1.1-9c-0.2-0.9-0.1-2.1-0.1-3.1c0-0.7-2.5,1-2.5-1.1c0-1,2.4-0.9,2.4-1.1
		c0-0.6-0.2-2.6,0-3.4C45.7,34,44,23.4,46.4,23.1C47.1,23.1,45.7,23.2,46.4,23.1z"/>
	<path id="XMLID_28_" d="M53.4,19.8c1.8,0,0.8,19.9,0.8,21.5c5.8-6.1,8.3,12.2,5.4,13.5c-3-1.4,0.4-12.5-2.9-12.8
		c-4.2-0.3,0,12-3,12C51.4,54.1,52.2,19.8,53.4,19.8z"/>
	<path id="XMLID_30_" d="M67.7,41.4c5.1-0.2,4.6,15.5,1.3,7.7C62.8,59.8,57.9,42.3,67.7,41.4z M63.9,49.3c0.7,5.8,5-5.8,4.9-5.6
		C65.6,43.3,63.8,46,63.9,49.3z"/>
	<path id="XMLID_33_" d="M79,40.8c4.4,0.4,3.4,12.7,1.3,12.5c-2.6-0.2,1.7-10.2-1.6-10.4c-4.1-0.3-0.5,10.4-3.3,10.5
		c-1-0.1-3-12.1-0.5-12.3c0,1,0.3,1.5,1,1.6C76.6,41.4,77.7,40.8,79,40.8C81.3,40.9,78,40.7,79,40.8z"/>
	<path id="XMLID_35_" d="M99,21.1c2.4,0,7.1,5.9,4,6.2c-2.6,0-2.4-7.7-6.2-2.4c-2,2.9,1.1,8.6,2.3,11.1c2,4.2,9.3,13.1,2.8,17
		c-4,2.4-7.7-1.5-8.7-5.4c-1.6-6.3,3.6,1.2,2,0.1c2.9,1.9,5,7.9,7.2,0.8C103.8,44.2,85.4,22.5,99,21.1z"/>
	<path id="XMLID_37_" d="M112.2,40.8c4.4,0.4,3.4,12.7,1.3,12.5c-2.6-0.2,1.7-10.2-1.6-10.4c-4.1-0.3-0.5,10.4-3.3,10.5
		c-1-0.1-3-12.1-0.5-12.3c0,1,0.3,1.5,1,1.6C109.8,41.4,110.8,40.8,112.2,40.8C114.4,40.9,111.1,40.7,112.2,40.8z"/>
	<path id="XMLID_39_" d="M121.2,41.1c3.7,1.3,4.8,11.9,0,12.3C115.2,54,117.1,42.5,121.2,41.1z M119.3,47.5c0,1.3,0.1,4,1.9,4
		c1-1,1.8-7.5-0.2-8.2C119.7,44.4,119.1,45.8,119.3,47.5z"/>
	<path id="XMLID_42_" d="M130,41.1c3.7,1.3,4.8,11.9,0,12.3C124,54,125.9,42.5,130,41.1z M128.2,47.5c0,1.3,0.1,4,1.9,4
		c1-1,1.8-7.5-0.2-8.2C128.5,44.4,128,45.8,128.2,47.5z"/>
	<path id="XMLID_45_" d="M137,17.7c1.6,0.1,0.1,22.9,0.3,24.9c1.4-1.7,2.6-3.1,4.6-3.8c2.4,1.8-4.1,4.4-3.9,6.6
		c0.2,2.9,6.9,4,6.7,6.2c-0.2,2.9-7.2-3.1-7.5-3.4c-0.2,3.2-0.6,8.9-2.2,4.4c-1-2.8,0.2-8,0.2-11C135.2,40,134.5,17.6,137,17.7
		C137.5,17.7,136.2,17.7,137,17.7z"/>
</g>
</svg>
