<?xml version="1.0" encoding="utf-8"?>
<!-- Generator: Adobe Illustrator 19.0.0, SVG Export Plug-In . SVG Version: 6.00 Build 0)  -->
<svg version="1.1" id="Layer_1" xmlns="http://www.w3.org/2000/svg" xmlns:xlink="http://www.w3.org/1999/xlink" x="0px" y="0px"
	 viewBox="0 0 342 79" enable-background="new 0 0 342 79" xml:space="preserve">
<g id="XMLID_1_">
	<path id="XMLID_3_" fill="#434444" d="M11.8,20.9C12.9,21,8.8,53.2,7,53c-2.3-0.2-6-27.7-5.5-29.4c1.3-4.7,2.5,3.2,2.9,5.5
		c0.8,5.1,1.3,10.5,2.4,15.4C7.7,41.2,9.8,20.7,11.8,20.9C12.3,21,11,20.8,11.8,20.9z"/>
	<path id="XMLID_18_" fill="#434444" d="M16.6,40.1c1.6,0.3,0.5,13.5-0.8,13.3C13.9,53.1,14.7,40,16.6,40.1
		C17.4,40.2,15.9,40.1,16.6,40.1z M16.3,35.5c1.3,0.7,1.4,1.4,0.3,2.3C16.3,37.6,13.9,35.5,16.3,35.5z"/>
	<path id="XMLID_21_" fill="#434444" d="M23,23.1c1.8,0,0.8,14.3,0.8,15.9c0.7,0,3.1-1,3.1,0.6c0,1.5-2.5,0.7-2.6,1.3
		c0,0.3-0.2,2.2-0.4,2.8c-0.2,0.8,1.3,9.9-0.8,9.9c-1.8,0-1-8.2-1.1-9c-0.2-0.9-0.1-2.1-0.1-3.1c0-0.7-2.5,1-2.5-1.1
		c0-1,2.4-0.9,2.4-1.1c0-0.6-0.2-2.6,0-3.4C22.2,34,20.5,23.4,23,23.1C23.7,23.1,22.2,23.2,23,23.1z"/>
	<path id="XMLID_23_" fill="#434444" d="M34,41.4c5.1-0.2,4.6,15.5,1.3,7.7C29.1,59.8,24.2,42.3,34,41.4z M30.2,49.3
		c0.7,5.8,5-5.8,4.9-5.6C31.9,43.3,30.1,46,30.2,49.3z"/>
	<path id="XMLID_26_" fill="#434444" d="M41.3,22.6c1.6,0.1,0.8,27.5,1.1,29.7C40.8,55.6,40,42.2,40,41.3
		C40,39.1,38.6,22.5,41.3,22.6C41.7,22.7,40.5,22.6,41.3,22.6z"/>
	<path id="XMLID_28_" fill="#434444" d="M45.9,40.9c2.9,0-1.1,9.5,2.9,9.3c2.3-0.1-0.2-10.2,3.1-8.9c1.5,0.6,0.2,19.7-0.1,21.7
		c-0.5,3.6-1.4,9.9-6.1,8.8c-2.7-0.7-5.6-8.6-2.6-7.2c1.7,0.8,0.8,5.7,3.7,5.6c2.1,0,2-3.1,2.6-4.4c1.8-3.7,0.9-9.7,0.8-13.9
		C43.5,53.6,44.2,40.9,45.9,40.9z"/>
	<path id="XMLID_30_" fill="#434444" d="M64.3,21.6c0.2,0,8.2,1.8,8.2,2.5c-0.4,1.6-5.7,0.9-6.9,0.9c0.3,2.5-0.2,6.7,0.9,9
		C67.1,35,71,36,71,36.7c-0.3,1.2-3.3,1-4.1,0.9c0.3,3.6,1.7,9,1,12.7c-0.6,3.2-0.5,4.1-2,1.2C63.9,47.9,64.7,21.6,64.3,21.6z"/>
	<path id="XMLID_32_" fill="#434444" d="M75,39.1c1.3,0,0.8,1.9,1.5,2.3c0.5,0.2,5.3-3.6,5.3,0c-0.7,2-2.8-0.4-3.9,2
		c-0.6,1.3-0.1,9.5-1.8,9.5C74.4,52.8,74.1,39.1,75,39.1z"/>
	<path id="XMLID_34_" fill="#434444" d="M85.4,40.1c1.6,0.3,0.5,13.5-0.8,13.3C82.6,53.1,83.5,40,85.4,40.1
		C86.2,40.2,84.7,40.1,85.4,40.1z M85.1,35.5c1.3,0.7,1.4,1.4,0.3,2.3C85.1,37.6,82.7,35.5,85.1,35.5z"/>
	<path id="XMLID_37_" fill="#434444" d="M91.8,40.6c4.2,0,2.3,6.8-1.2,7.3c1.1,7.1,5.3-0.1,5.8,0.1c2.4,0.9,1.5,4-2,4.9
		C88,54.6,86.1,42.7,91.8,40.6z M90.5,44.9c-1.5,1,4.4-2.1,1.3-2.1C90.9,42.7,90.5,43.4,90.5,44.9z"/>
	<path id="XMLID_40_" fill="#434444" d="M105.8,23.8c1.5,0,1.4,16.6,1.7,19.1c0.2,2.2,2.2,8.4,1.6,10.3c-1.3,3.8-1.6-1.1-2.4-1.2
		c-1.2-0.1-3,2-4.4,0.8c-2.1-1.9-4-5.4-2.6-8.4c1.2-2.5,2.9-4.4,5.7-2.2C105.3,41,103.1,23.8,105.8,23.8z M101.4,46.7
		c-0.2,2,1.5,6.3,3.8,3.7C108,47.3,101.4,39.2,101.4,46.7z"/>
	<path id="XMLID_43_" fill="#434444" d="M120.6,40.1c2.5,1.2,4.2,13.4,2.2,13.4c-2.2,0-2.1-9.6-2.8-10.9c-1.1,1.3-1.3,9.2-2.6,9.1
		c-2.5-0.3,0.3-8.5-2.4-8.8c-2.5,2.5,0.1,14.3-3.5,7.1c-0.6-1.2-0.5-8.3,0-8.8c1.3-1.3,1.4,0.3,2.1-0.1c1.2-0.7,1.9,0.8,2.7,0.7
		C117.8,41.6,118.2,40.6,120.6,40.1C122.3,40.8,119.6,40.3,120.6,40.1z"/>
	<path id="XMLID_45_" fill="#434444" d="M131.1,41.4c5.1-0.2,4.6,15.5,1.3,7.7C126.1,59.8,121.2,42.3,131.1,41.4z M127.2,49.3
		c0.7,5.8,5-5.8,4.9-5.6C128.9,43.3,127.1,46,127.2,49.3z"/>
	<path id="XMLID_48_" fill="#434444" d="M142.4,40.8c4.4,0.4,3.4,12.7,1.3,12.5c-2.6-0.2,1.7-10.2-1.6-10.4
		c-4.1-0.3-0.5,10.4-3.3,10.5c-1-0.1-3-12.1-0.5-12.3c0,1,0.3,1.5,1,1.6C140,41.4,141,40.8,142.4,40.8
		C144.6,40.9,141.3,40.7,142.4,40.8z"/>
</g>
</svg>
