<?xml version="1.0" encoding="utf-8"?>
<!-- Generator: Adobe Illustrator 16.0.0, SVG Export Plug-In . SVG Version: 6.00 Build 0)  -->
<!DOCTYPE svg PUBLIC "-//W3C//DTD SVG 1.1//EN" "http://www.w3.org/Graphics/SVG/1.1/DTD/svg11.dtd">
<svg version="1.1" id="Vrstva_1" xmlns="http://www.w3.org/2000/svg" xmlns:xlink="http://www.w3.org/1999/xlink" x="0px" y="0px"
	 width="518px" height="204px" viewBox="0 0 518 204" enable-background="new 0 0 518 204" xml:space="preserve">
<g>
	<path fill-rule="evenodd" clip-rule="evenodd" fill="#E13A3E" d="M114.678,28.08c5.914,0,10.983,2.384,13.283,4.149
		c0.404,0.312,0.641,0.273,0.951,0.065c1.533-1.023,6.148-4.178,12.508-4.178c7.676,0,15.445,3.884,15.445,12.339
		c0,5.175-3.529,10.573-9.58,14.262c-1.528,0.933-3.318,1.735-5.24,2.426c-1.096,0.393-1.582-0.059-0.43-0.914
		c2.836-2.108,10.102-7.654,10.102-14.597c0-4.717-4.372-9.431-11.911-9.431c-5.751,0-10.005,3.225-10.801,3.769
		c-0.41,0.28-0.677,0.235-1.026-0.075c-2.08-1.85-6.316-3.842-11.23-3.842c-5.993,0-11.396,3.295-11.396,9.158
		c0,10.688,18.555,15.082,23.057,15.082c1.119,0,11.053-3.463,11.053-11.808c0-2.954-1.835-4.896-4.254-4.896
		c-3.161,0-4.98,2.657-6.211,4.142c-0.281,0.338-0.715,0.487-0.982-0.003c-1.092-1.986-3.234-4.195-6.153-4.195
		c-2.59,0-4.142,1.881-4.142,3.946c0,4.867,6.771,7.89,9.934,8.981c0.613,0.212,0.606,0.865-0.252,0.783
		c-4.496-0.429-15.669-3.825-15.669-11.081c0-2.993,2.577-6.323,7.723-6.323c3.462,0,6.743,1.902,8.674,4.225
		c0.191,0.229,0.503,0.196,0.673,0.028c0.167-0.168,4.195-4.113,9.01-4.113c3.44,0,7.162,2.351,7.162,7.304
		c0,5.115-4.475,10.242-8.254,12.592c-3.871,2.405-7.564,3.488-8.479,3.414c-14.884-1.216-28.036-9.829-28.036-19.979
		C100.203,34.311,104.012,28.08,114.678,28.08L114.678,28.08z"/>
	<path fill="#E13A3E" d="M108.83,69.026l3.488-6.687h0.02l3.586,6.687l-1.367,0.615l-0.642-1.306h-3.151l-0.602,1.306L108.83,69.026
		z M111.395,67.044h1.923l-0.983-1.949L111.395,67.044z"/>
	<path fill="#E13A3E" d="M141.203,69.026l3.488-6.687h0.021l3.585,6.687l-1.367,0.615l-0.641-1.306h-3.152l-0.6,1.306
		L141.203,69.026z M143.768,67.044h1.924l-0.984-1.949L143.768,67.044z"/>
	<path fill="#E13A3E" d="M117.394,69.39v-6.824h1.468v5.457h2.361v1.367H117.394z"/>
	<path fill="#E13A3E" d="M128.654,68.484c-0.433,0.501-1.89,1.004-2.901,1.004c-1.954,0-3.415-1.534-3.415-3.528
		c0-2.034,1.518-3.517,3.364-3.517c1.169,0,2.171,0.565,2.563,1.146l-1.008,0.992c-0.273-0.291-0.77-0.667-1.573-0.667
		c-1.009,0-1.794,0.847-1.794,2.143c0,1.355,0.969,2.046,1.999,2.046c0.491,0,0.958-0.138,1.351-0.394v-1.082h-1.076l-0.018-1.248
		h2.508V68.484z"/>
	<path fill="#E13A3E" d="M134.629,62.565h2.288c1.858,0,3.476,1.492,3.476,3.361c0,2.287-1.979,3.461-3.762,3.461h-2.002V62.565z
		 M136.852,68.001c1.33,0,2.023-0.99,2.023-2.074c0-1.163-0.881-1.995-2.09-1.995h-0.704v4.069H136.852z"/>
	<rect x="130.865" y="62.548" fill="#E13A3E" width="1.486" height="6.854"/>
</g>
<g>
	<path fill="#444A54" d="M431.602,102.519c1.91,0.013,3.818,0.033,5.725,0.042c-1.857,0.841-2.021,2.362-1.984,4.094
		c0.066,2.811-0.115,5.618,0.008,8.428c0.152,3.451,2.451,5.185,5.639,4.4c1.336-0.33,2.377-1.031,2.645-2.502
		c0.734-4.062,0.34-8.161,0.338-12.253c0-1.1-1.105-1.439-1.896-2.107c1.682,0.012,3.363,0.022,5.047,0.035
		c-1.84,0.83-1.643,2.472-1.66,4.029c-0.031,2.955-0.004,5.921-0.104,8.876c-0.117,3.508-1.908,5.201-5.449,5.35
		c-4.117,0.151-6.512-1.525-6.73-5.088c-0.197-3.101-0.021-6.222-0.025-9.339C433.152,105.006,433.51,103.368,431.602,102.519z"/>
	<path fill="#444A54" d="M477.232,121.188c-1.301-0.013-2.545-0.28-3.779-0.711c-1.729-0.608-1.359-1.953-1.234-3.213
		c0.041-0.449,0.398-0.593,0.826-0.567c0.559,0.032,0.764,0.42,0.879,0.881c0.609,2.415,2.447,2.622,4.461,2.498
		c1.703-0.118,2.912-0.854,3.15-2.679c0.232-1.778,0.012-3.371-1.99-4.077c-1.285-0.455-2.584-0.867-3.854-1.363
		c-2.295-0.896-3.436-2.707-3.189-4.954c0.254-2.291,1.713-3.906,4-4.37c1.588-0.327,3.178-0.218,4.736,0.207
		c0.432,0.119,0.85,0.325,1.238,0.549c0.928,0.543,0.613,1.458,0.617,2.261c0.004,0.41-0.219,0.734-0.654,0.791
		c-0.977,0.107-0.961-0.8-1.295-1.332c-1.129-1.774-2.75-1.991-4.574-1.416c-1.764,0.554-2.193,1.912-2.041,3.601
		c0.102,1.116,0.75,1.823,1.707,2.233c0.902,0.385,1.852,0.659,2.787,0.963c3.801,1.246,5.148,3.134,4.574,6.457
		C483.119,119.709,480.861,121.217,477.232,121.188z"/>
	<path fill="#444A54" d="M463.334,121.084c-1.381-0.004-2.701-0.258-4-0.753c-0.908-0.349-1.383-0.906-1.254-1.88
		c0.084-0.626-0.326-1.503,0.512-1.795c1.088-0.381,1.143,0.627,1.428,1.287c0.955,2.249,2.881,2.166,4.822,1.954
		c1.82-0.198,2.623-1.438,2.799-3.088c0.221-2.045-0.854-3.283-2.74-3.905c-1.008-0.336-2.031-0.629-3.025-1.001
		c-2.619-0.977-3.535-2.473-3.27-5.246c0.223-2.329,1.779-3.855,4.344-4.206c1.682-0.236,3.336-0.11,4.932,0.509
		c0.762,0.296,1.352,0.733,1.211,1.673c-0.088,0.611,0.336,1.475-0.66,1.691c-0.824,0.17-0.896-0.543-1.197-1.074
		c-1.086-1.931-3.391-2.531-5.277-1.441c-2.08,1.208-2.139,4.24-0.023,5.433c0.977,0.549,2.115,0.818,3.188,1.181
		c3.549,1.191,5.072,3.217,4.553,6.063C469.117,119.571,467.025,121.085,463.334,121.084z"/>
	<path fill="#444A54" d="M418.615,102.427c1.984,0.014,3.973,0.031,5.957,0.044c-1.953,0.823-2.066,2.386-2.047,4.13
		c0.039,3.64,0.023,7.297-0.086,10.943c-0.047,1.51,0.5,1.955,1.965,1.966c3.52,0.045,3.543,0.096,5.469-3.094
		c1.246,3.028,0.561,4.12-2.566,4.104c-2.932-0.017-5.863-0.041-9.08-0.343c2.451-0.609,2.021-2.383,2.041-3.926
		c0.045-3.421,0.033-6.84,0.09-10.26C420.385,104.532,420.352,103.167,418.615,102.427z"/>
	<path fill="#444A54" d="M449.682,102.589c1.879,0.013,3.76,0.033,6.402,0.053c-2.656,1.097-2.559,2.85-2.533,4.645
		c0.043,3.12-0.031,6.231-0.047,9.344c-0.01,1.503-0.365,3.179,2.006,3.664c-2.178,0.566-4.072,0.438-6.17,0.119
		c2.092-0.671,1.967-2.276,1.963-3.862c0-3.343,0-6.681,0.084-10.028C451.43,104.932,451.395,103.478,449.682,102.589z"/>
	<path fill="#444A54" d="M410.668,108.227c0.404,0.68-0.377,1.638,0.73,1.791c0.58,0.088,1.027-0.171,1.326-0.683
		c0.439-0.743,0.064-1.308-0.426-1.823c-0.598-0.63-1.365-0.709-2.1-0.382c-0.893,0.384-1.428,1.112-1.439,2.14
		c-0.033,2.89-0.057,5.775-0.111,8.663c-0.016,0.695,0.18,1.46-0.684,2.675c0.033-4.45-0.08-8.27,0.156-12.068
		c0.1-1.583,1.473-2.434,3.158-2.294c1.418,0.111,2.209,0.985,2.332,2.358c0.094,0.99-0.389,1.735-1.35,2.146
		c-0.826,0.36-1.486,0.141-2.012-0.519C409.695,109.519,409.695,108.861,410.668,108.227z"/>
	<path fill="#444A54" d="M397.355,119.769c0.021-3.07,0.041-6.141,0.068-9.21c0.008-0.919,0.031-1.846-0.533-2.632
		c-0.689-0.971-1.602-1.401-2.75-0.84c-0.77,0.381-1.051,1.061-0.877,1.909c0.131,0.624,0.59,0.884,1.156,0.902
		c1.281,0.044,0.584-1.114,0.971-1.754c0.889,0.539,0.809,1.27,0.414,1.94c-0.318,0.544-0.914,0.809-1.576,0.659
		c-0.867-0.189-1.557-0.647-1.738-1.583c-0.273-1.388,0.283-2.454,1.598-2.899c1.564-0.529,2.898,0.013,3.611,1.513
		c0.344,0.725,0.436,1.622,0.443,2.441c0.025,3.174-0.025,6.349-0.051,9.519C397.85,119.752,397.602,119.762,397.355,119.769z"/>
	<path fill="#444A54" d="M413.125,102.832c-6.764-0.048-13.523-0.098-20.289-0.142c0-0.114,0-0.226-0.002-0.347
		c6.756,0.05,13.51,0.101,20.264,0.148C413.105,102.604,413.119,102.718,413.125,102.832z"/>
	<path fill="#444A54" d="M413.041,104.711c-6.701-0.05-13.4-0.1-20.102-0.147c0-0.113-0.002-0.222-0.004-0.342
		c6.693,0.049,13.385,0.099,20.076,0.148C413.023,104.482,413.033,104.596,413.041,104.711z"/>
	<path fill="#444A54" d="M400.076,108.242c-0.027,3.887-0.057,7.773-0.082,11.66c-0.125,0.003-0.246,0.005-0.373,0.008
		c0.029-3.88,0.057-7.755,0.084-11.641C399.83,108.26,399.955,108.252,400.076,108.242z"/>
	<path fill="#444A54" d="M401.662,119.978c0.029-3.936,0.059-7.874,0.088-11.806c0.119-0.002,0.236-0.008,0.354-0.015
		c-0.025,3.934-0.057,7.866-0.082,11.798C401.898,119.967,401.781,119.972,401.662,119.978z"/>
	<path fill="#444A54" d="M404.264,108.301c-0.025,3.861-0.055,7.721-0.084,11.583c-0.121,0.006-0.242,0.012-0.363,0.017
		c0.029-3.851,0.057-7.701,0.084-11.556C404.021,108.33,404.143,108.316,404.264,108.301z"/>
	<path fill="#444A54" d="M405.857,120.044c0.029-3.959,0.055-7.91,0.086-11.872c0.137,0.001,0.273,0.003,0.41,0.003
		c-0.031,3.957-0.061,7.91-0.09,11.87C406.129,120.045,405.992,120.044,405.857,120.044z"/>
	<path fill="#444A54" d="M407.029,106.535c-2.688-0.015-5.375-0.034-8.059-0.053c-0.002-0.104-0.008-0.207-0.01-0.31
		c2.664,0.018,5.33,0.038,7.992,0.058C406.979,106.327,407.004,106.432,407.029,106.535z"/>
</g>
<g>
	<path fill-rule="evenodd" clip-rule="evenodd" fill="#ED1C2E" d="M435.703,57.794c1.545,0,1.965-2.956,2.809-6.137l-6.883,6.161
		C433.117,57.818,434.242,57.794,435.703,57.794L435.703,57.794z"/>
	<polygon fill-rule="evenodd" clip-rule="evenodd" fill="#008457" points="451.854,44.144 448.568,57.869 444.578,57.869 
		447.865,44.144 451.854,44.144 	"/>
	<polygon fill-rule="evenodd" clip-rule="evenodd" fill="#008457" points="457.641,47.499 455.141,57.869 451.152,57.869 
		453.652,47.499 457.641,47.499 	"/>
	<polygon fill-rule="evenodd" clip-rule="evenodd" fill="#008457" points="458.428,44.144 457.838,46.623 453.848,46.623 
		454.438,44.144 458.428,44.144 	"/>
	<polygon fill-rule="evenodd" clip-rule="evenodd" fill="#008457" points="487.977,44.068 484.693,57.794 480.703,57.794 
		483.99,44.068 487.977,44.068 	"/>
	<polygon fill-rule="evenodd" clip-rule="evenodd" fill="#008457" points="493.652,47.449 491.18,57.794 487.191,57.794 
		489.664,47.449 493.652,47.449 	"/>
	<polygon fill-rule="evenodd" clip-rule="evenodd" fill="#008457" points="494.467,44.068 493.877,46.548 489.889,46.548 
		490.479,44.068 494.467,44.068 	"/>
	<path fill-rule="evenodd" clip-rule="evenodd" fill="#008457" d="M460.113,45.347h3.791l-0.504,2.053c1.375,0,2.725,0,4.102,0
		c-0.113,2.129-1.182,2.83-2.781,2.755h-1.828l-0.955,3.983c0,0-0.281,0.951,0.984,0.951h2.893l-0.674,2.729h-4.748
		c0,0-3.314,0.177-2.668-2.554L460.113,45.347L460.113,45.347z"/>
	<path fill-rule="evenodd" clip-rule="evenodd" fill="#008457" d="M478.287,47.375c0,0-2.865-0.702-6.18,0.024
		c0,0-3.371,0.426-3.848,3.231h3.988c0,0,0.365-1.429,2.359-1.429c0,0,1.77-0.124,1.658,0.952c0,0,0.111,0.602-1.041,0.927
		l-5.504,0.877c0,0-2.502,0.375-3.064,2.83c0,0-0.504,1.628,0.535,2.479c0,0,1.152,0.902,3.736,0.902c0,0,4.887,0.125,7.555-0.227
		l1.799-7.539C480.281,50.404,481.18,47.875,478.287,47.375L478.287,47.375z M474.943,55.866c0,0-2.5,0.199-3.539-0.102
		c0,0-0.758-0.25-0.533-1.202c0,0,0.197-0.802,1.18-1.026l3.596-0.651L474.943,55.866L474.943,55.866z"/>
	<path fill-rule="evenodd" clip-rule="evenodd" fill="#008457" d="M504.748,47.375c0,0-2.865-0.702-6.152,0.024
		c0,0-3.369,0.426-3.82,3.231h4.018c0,0,0.281-1.429,2.303-1.429c0,0,1.77-0.124,1.656,0.952c0,0,0.143,0.602-1.066,0.927
		l-5.477,0.877c0,0-2.502,0.375-3.09,2.83c0,0-0.449,1.628,0.561,2.479c0,0,1.125,0.902,3.764,0.902c0,0,4.832,0.125,7.557-0.227
		l1.826-7.539C506.826,50.404,507.67,47.875,504.748,47.375L504.748,47.375z M501.434,55.866c0,0-2.527,0.199-3.512-0.102
		c0,0-0.787-0.25-0.562-1.202c0,0,0.197-0.802,1.207-1.026l3.568-0.651L501.434,55.866L501.434,55.866z"/>
	<path fill-rule="evenodd" clip-rule="evenodd" fill="#008457" d="M442.051,45.821l-3.09,11.997c0.73,0,1.461,0,2.162,0
		c1.631,0,2.08-1.227,2.586-3.48l2.387-10.32h-5.533c-1.602,0-2.33,0.776-2.33,0.776l-14.244,13.024h4.916L442.051,45.821
		L442.051,45.821z"/>
</g>
<g>
	<path fill-rule="evenodd" clip-rule="evenodd" fill="#EF3E28" d="M200.752,53.486c-4.051,1.754-5.67,4.332-10.504,4.332
		c2.516,2.517,8.527,1.959,11.454,0.595c3.601-1.679,4.218-4.202,9.206-3.637C209.034,52.072,203.519,52.29,200.752,53.486
		L200.752,53.486z"/>
	<path fill-rule="evenodd" clip-rule="evenodd" fill="#EF3E28" d="M202.414,47.007c-4.414-0.044-6.941,1.654-11.357-0.308
		c1.277,3.321,6.994,5.251,10.225,5.193c3.971-0.071,5.562-2.126,9.891,0.416C210.556,49.076,205.427,47.036,202.414,47.007
		L202.414,47.007z"/>
	<path fill-rule="evenodd" clip-rule="evenodd" fill="#EF3E28" d="M206.15,41.663c-3.98-1.907-6.99-1.437-10.161-5.082
		c-0.248,3.549,4.117,7.717,7.068,9.03c3.628,1.614,5.938,0.426,8.786,4.56C212.653,46.981,208.869,42.963,206.15,41.663
		L206.15,41.663z"/>
	<path fill-rule="evenodd" clip-rule="evenodd" fill="#EF3E28" d="M212.176,38.313c-2.802-3.412-5.729-4.259-7.061-8.902
		c-1.723,3.111,0.469,8.733,2.588,11.173c2.605,2.996,5.202,2.896,6.033,7.846C215.82,45.883,214.09,40.641,212.176,38.313
		L212.176,38.313z"/>
	<path fill-rule="evenodd" clip-rule="evenodd" fill="#EF3E28" d="M218.806,37.963c-1.096-4.276-3.39-6.28-2.63-11.052
		c-2.88,2.09-3.271,8.112-2.383,11.218c1.094,3.818,3.489,4.825,2.148,9.661C218.906,46.363,219.557,40.882,218.806,37.963
		L218.806,37.963z"/>
	<path fill-rule="evenodd" clip-rule="evenodd" fill="#EF3E28" d="M225.146,40.271c0.814-4.339-0.416-7.124,2.289-11.129
		c-3.494,0.678-6.395,5.969-6.902,9.159c-0.625,3.922,1.121,5.847-2.14,9.664C221.684,47.927,224.59,43.234,225.146,40.271
		L225.146,40.271z"/>
	<path fill-rule="evenodd" clip-rule="evenodd" fill="#EF3E28" d="M229.66,45.274c2.623-3.551,2.727-6.594,6.904-9.023
		c-3.439-0.91-8.354,2.591-10.199,5.242c-2.27,3.259-1.537,5.753-6.133,7.771C223.211,50.66,227.871,47.699,229.66,45.274
		L229.66,45.274z"/>
	<path fill-rule="evenodd" clip-rule="evenodd" fill="#EF3E28" d="M231.676,51.765c3.906-2.054,5.324-4.749,10.143-5.116
		c-2.699-2.317-8.648-1.304-11.465,0.279c-3.459,1.946-3.887,4.51-8.902,4.325C223.525,53.807,229.008,53.17,231.676,51.765
		L231.676,51.765z"/>
	<path fill-rule="evenodd" clip-rule="evenodd" fill="#EF3E28" d="M231.014,58.411c4.412-0.148,6.863-1.958,11.36-0.191
		c-1.421-3.261-7.22-4.938-10.444-4.739c-3.963,0.247-5.463,2.369-9.898,0.02C222.787,56.702,228.002,58.516,231.014,58.411
		L231.014,58.411z"/>
	<path fill-rule="evenodd" clip-rule="evenodd" fill="#EF3E28" d="M220.711,55.445c0,1.419-0.484,2.891-0.357,4.332
		c0.209,2.323,0.549,5.371,1.365,7.537c1.166,3.087,2.963,5.155,5.52,7.121c-5.211,0-8.542-2.662-9.674-7.893
		c-0.434-2.005-0.302-4.81,0.273-6.766C218.248,58.395,219.646,56.509,220.711,55.445L220.711,55.445z"/>
	<path fill-rule="evenodd" clip-rule="evenodd" fill="#EF3E28" d="M212.029,55.445c0,1.419,0.483,2.891,0.355,4.332
		c-0.207,2.323-0.547,5.371-1.365,7.537c-1.165,3.087-2.963,5.155-5.52,7.121c5.211,0,8.542-2.662,9.674-7.893
		c0.434-2.005,0.303-4.81-0.273-6.766C214.492,58.395,213.092,56.509,212.029,55.445L212.029,55.445z"/>
	<path fill-rule="evenodd" clip-rule="evenodd" fill="#0054A6" d="M256.821,57.793h-10.471l3.566-18.084h10.471l-0.631,3.203h-6.914
		l-0.805,4.082h6.287l-0.586,2.971h-6.289l-0.912,4.625h6.916L256.821,57.793L256.821,57.793z M270.523,57.793h-3.408l1.596-8.086
		c0.15-0.774,0.1-1.396-0.16-1.859c-0.299-0.518-0.807-0.775-1.525-0.775c-0.9,0-1.705,0.353-2.412,1.059s-1.152,1.524-1.336,2.455
		l-1.422,7.207h-3.405l2.638-13.382h3.281l-0.412,2.093c0.754-0.861,1.639-1.499,2.656-1.912c0.652-0.258,1.312-0.387,1.98-0.387
		c1.285,0,2.287,0.335,3.008,1.007c0.785,0.758,1.043,1.826,0.77,3.203L270.523,57.793L270.523,57.793z M285.285,52.16h-8.842
		c-0.197,1.001-0.004,1.802,0.578,2.404c0.584,0.603,1.457,0.903,2.627,0.903c1.352,0,2.766-0.311,4.24-0.93l-0.52,2.635
		c-0.734,0.259-1.512,0.465-2.326,0.62c-0.398,0.068-0.779,0.121-1.145,0.155S279.141,58,278.723,58
		c-1.953,0-3.455-0.518-4.504-1.551c-1.217-1.188-1.594-2.97-1.123-5.348c0.387-1.963,1.303-3.604,2.75-4.921
		c1.443-1.317,3.119-1.976,5.023-1.976c1.686,0,2.945,0.508,3.781,1.523c0.512,0.62,0.836,1.395,0.969,2.325
		c0.135,0.93,0.076,2.032-0.176,3.307L285.285,52.16L285.285,52.16z M282.254,49.759c0.191-0.981,0.09-1.748-0.311-2.3
		c-0.402-0.551-0.986-0.826-1.754-0.826c-0.785,0-1.486,0.314-2.102,0.943c-0.617,0.628-1.008,1.356-1.172,2.183H282.254
		L282.254,49.759z M288.834,57.793h-3.406l3.82-18.061h3.408L288.834,57.793L288.834,57.793z"/>
</g>
<g>
	<path fill="#0057A4" d="M314.939,118.411h-2.465v-4.062h-0.033c-0.559,0.773-1.51,1.051-2.529,1.051
		c-2.27,0-3.648-2.036-3.648-4.254c0-2.415,1.562-4.123,3.926-4.123c1.119,0,2.072,0.673,2.449,1.248h0.033v-1.052h2.268V118.411
		 M310.701,109.189c-1.23,0-1.973,0.822-1.973,2.022c0,1.198,0.742,2.021,1.973,2.021c1.232,0,1.971-0.822,1.971-2.021
		C312.672,110.012,311.934,109.189,310.701,109.189z"/>
	<path fill="#0057A4" d="M324.131,115.203h-2.365v-1.082h-0.033c-0.326,0.624-1.135,1.278-2.334,1.278
		c-2.496,0-2.955-1.641-2.955-3.778v-4.402h2.463v3.91c0,0.919,0.018,2.104,1.283,2.104c1.279,0,1.477-1.003,1.477-2.038v-3.976
		h2.465V115.203"/>
	<path fill="#0057A4" d="M327.062,103.31c0.793,0,1.432,0.642,1.432,1.431c0,0.788-0.639,1.429-1.432,1.429
		c-0.791,0-1.43-0.641-1.43-1.429C325.633,103.951,326.271,103.31,327.062,103.31 M325.832,107.253h2.463v7.985h-2.463V107.253z"/>
	<path fill="#0057A4" d="M335.973,109.189h-2.35v2.663c0,0.854,0.1,1.479,1.17,1.479c0.264,0,0.967-0.034,1.18-0.23v2.054
		c-0.543,0.199-1.326,0.245-1.904,0.245c-1.643,0-2.906-0.671-2.906-2.414v-3.796h-1.58v-1.971h1.58v-2.365h2.461v2.365h2.35
		V109.189"/>
	<path fill="#0057A4" d="M342.441,114.202h-0.031c-0.545,0.854-1.529,1.197-2.531,1.197c-1.494,0-2.844-0.852-2.844-2.464
		c0-2.759,3.352-2.81,5.406-2.81c0-0.869-0.723-1.43-1.576-1.43c-0.805,0-1.479,0.362-2.006,0.953l-1.314-1.347
		c0.902-0.854,2.221-1.28,3.516-1.28c2.877,0,3.65,1.461,3.65,4.123v4.058h-2.27V114.202 M341.836,111.705
		c-0.76,0-2.434,0.064-2.434,1.149c0,0.591,0.625,0.871,1.168,0.871c0.965,0,1.871-0.511,1.871-1.496v-0.524H341.836z"/>
	<rect x="346.17" y="102.379" fill="#0057A4" width="2.467" height="12.824"/>
	<path fill="#0057A4" d="M351.65,103.275c0.789,0,1.43,0.64,1.43,1.429c0,0.79-0.641,1.43-1.43,1.43c-0.791,0-1.43-0.64-1.43-1.43
		C350.221,103.915,350.859,103.275,351.65,103.275 M350.418,107.219h2.465v7.984h-2.465V107.219z"/>
	<path fill="#0057A4" d="M359.676,114.202h-0.033c-0.539,0.854-1.527,1.197-2.527,1.197c-1.496,0-2.844-0.852-2.844-2.464
		c0-2.759,3.352-2.81,5.404-2.81c0-0.869-0.723-1.43-1.576-1.43c-0.805,0-1.479,0.362-2.004,0.953l-1.314-1.347
		c0.904-0.854,2.217-1.28,3.518-1.28c2.871,0,3.646,1.461,3.646,4.123v4.058h-2.27V114.202 M359.068,111.705
		c-0.756,0-2.43,0.064-2.43,1.149c0,0.591,0.625,0.871,1.164,0.871c0.971,0,1.873-0.511,1.873-1.496v-0.524H359.068z"/>
	<polyline fill="#0057A4" points="296.213,102.352 304.918,102.352 304.918,104.957 299.035,104.957 299.035,107.347 
		304.592,107.347 304.592,109.954 299.035,109.954 299.035,112.56 305.244,112.56 305.244,115.165 296.213,115.165 296.213,102.352 
			"/>
	<path fill="#7F94C8" d="M262.057,115.197c-0.096,0.041-0.205,0.064-0.318,0.064c-0.441,0-0.805-0.36-0.805-0.807l0.004-12.085
		l-17.969,8.384c-0.144,0.089-0.248,0.236-0.248,0.416c0,0.183,0.098,0.343,0.244,0.429l24.869,11.6
		c0.096,0.042,0.203,0.064,0.316,0.064c0.443,0,0.805-0.359,0.805-0.805l0.002-10.471L262.057,115.197"/>
	<path fill="#0057A4" d="M286.924,103.6c0.146-0.085,0.244-0.244,0.244-0.428c0-0.18-0.104-0.326-0.248-0.416L262.107,91.18
		c-0.107-0.054-0.229-0.083-0.355-0.083c-0.445,0-0.812,0.361-0.812,0.806l-0.002,10.468l7.117-3.313
		c0.303-0.146,0.605-0.149,0.777,0.022c0.09,0.093,0.129,0.223,0.125,0.369v1.071c0,0.477-0.203,0.88-0.482,0.993l-5.188,2.491
		v2.569l4.342-2.008c0.301-0.148,0.604-0.151,0.775,0.02c0.094,0.094,0.131,0.225,0.123,0.372v1.068
		c0,0.478-0.203,0.881-0.479,0.993l-4.762,2.265v2.667l4.768-2.207c0.303-0.146,0.605-0.149,0.777,0.021
		c0.09,0.093,0.129,0.223,0.125,0.37v1.853L286.924,103.6"/>
</g>
<g>
	<path fill-rule="evenodd" clip-rule="evenodd" fill="#F37021" d="M26.216,118.261v-8.392h2.27v8.392H26.216L26.216,118.261z
		 M30.259,118.261h2.187v-6.274h0.035l4.36,6.274h2.792v-8.392h-2.187v6.273h-0.034l-4.344-6.273h-2.809V118.261L30.259,118.261z
		 M41.819,118.261h2.288v-3.68h3.854v-1.322h-3.854v-2.067h4.049v-1.322h-6.337V118.261L41.819,118.261z M49.518,114.041
		L49.518,114.041c0-2.573,1.958-4.316,5.583-4.316c3.581,0,5.589,1.778,5.589,4.316c0,2.536-1.979,4.364-5.589,4.364
		C51.444,118.405,49.518,116.614,49.518,114.041L49.518,114.041z M51.902,114.041c0,1.515,0.864,3.041,3.198,3.041
		c2.337,0,3.203-1.526,3.203-3.041c0-1.479-0.93-2.994-3.203-2.994C52.833,111.047,51.902,112.562,51.902,114.041L51.902,114.041z
		 M68.857,110.026c-0.833-0.205-1.748-0.302-2.729-0.302c-2.009,0-3.984,0.686-3.984,2.561c0,2.778,4.997,2.115,4.997,3.715
		c0,0.758-1.159,1.082-2.024,1.082c-0.899,0-1.797-0.204-2.582-0.517l-0.211,1.515c1.127,0.203,1.683,0.325,2.922,0.325
		c2.303,0,4.281-0.699,4.281-2.537c0-2.813-4.999-2.199-4.999-3.653c0-0.916,1.013-1.168,1.797-1.168
		c0.801,0,1.601,0.133,2.319,0.361L68.857,110.026L68.857,110.026z M73.125,118.261h2.287v-7.069h3.268v-1.322h-8.82v1.322h3.266
		V118.261L73.125,118.261z M82.363,111.191L82.363,111.191v2.261h0.75c1.127,0,2.418-0.121,2.418-1.167
		c0-1.01-1.273-1.094-2.418-1.094H82.363L82.363,111.191z M80.076,118.261v-8.392h2.465c2.451,0,5.373-0.06,5.373,2.272
		c0,0.987-0.898,1.805-2.352,1.946v0.024c0.621,0.038,0.982,0.493,1.211,0.868l1.829,3.28h-2.549l-1.37-2.621
		c-0.328-0.624-0.621-0.866-1.586-0.866h-0.734v3.487H80.076L80.076,118.261z M96.824,115.016L96.824,115.016l-1.648-3.464h-0.034
		l-1.647,3.464H96.824L96.824,115.016z M89.475,118.261l4.442-8.392h2.582l4.474,8.392h-2.529l-0.981-1.925H92.84l-0.996,1.925
		H89.475L89.475,118.261z M101.722,118.261L101.722,118.261v-8.392h3.118c3.498,0,6.584,0.866,6.584,4.195s-3.086,4.196-6.584,4.196
		H101.722L101.722,118.261z M104.008,111.191v5.747h1.275c1.91,0,3.756-1.046,3.756-2.874c0-1.827-1.846-2.873-3.756-2.873H104.008
		L104.008,111.191z M118.708,115.016L118.708,115.016l-1.65-3.464h-0.033l-1.648,3.464H118.708L118.708,115.016z M111.357,118.261
		l4.443-8.392h2.579l4.478,8.392h-2.533l-0.979-1.925h-4.621l-0.997,1.925H111.357L111.357,118.261z"/>
	<g>
		<path fill-rule="evenodd" clip-rule="evenodd" fill="#2A2A86" d="M59.393,100.956c0,0,1.752,2.327,2.37,3.049
			c0.617,0.722,1.306,1.656,2.06,1.706c0.847,0.059,1.939-1.34,2.234-1.557c0.619-0.438,0.939-0.396,1.235-0.413
			c1.03-0.068,3.179,1.192,4.534,1.169c3.656-0.061,6.594-2.784,8-4.09c1.407-1.307,2.336-2.062,2.336-2.062s0.48,0.067,0.156,0.773
			c-0.274,0.587-4.055,6.617-10.373,6.789c-2.764,0.075-3.235-1.382-4.85-1.254c-1.012,0.062-2.003,2.101-3.926,2.113
			c-1.527,0.011-3.914-4.829-3.914-4.829S58.561,101,59.393,100.956L59.393,100.956z"/>
		<path fill-rule="evenodd" clip-rule="evenodd" fill="#F37021" d="M66.223,102.552c0.754-0.229,1.227-0.876,1.055-1.447
			c-0.171-0.568-0.922-0.847-1.677-0.618c-0.753,0.228-1.228,0.873-1.056,1.443C64.717,102.499,65.468,102.777,66.223,102.552
			L66.223,102.552z"/>
	</g>
</g>
<g>
	<path fill-rule="evenodd" clip-rule="evenodd" fill="#ED1C2E" d="M30.38,177.904c-7.761-0.002-12.947-5.501-12.947-12.17
		s5.199-12.231,12.936-12.214h73.112c7.736-0.018,12.935,5.545,12.935,12.214s-5.186,12.168-12.947,12.17H30.38L30.38,177.904z"/>
	<path fill-rule="evenodd" clip-rule="evenodd" fill="#FFFFFF" d="M30.404,156.521c-6.145,0.012-9.917,4.118-9.917,9.198
		c0,5.077,3.749,9.218,9.917,9.195h73.039c6.168,0.022,9.918-4.118,9.918-9.195c0-5.08-3.772-9.187-9.918-9.198H30.404
		L30.404,156.521z"/>
	<polygon fill-rule="evenodd" clip-rule="evenodd" fill="#ED1C2E" points="27.253,159.953 30.828,159.953 35.777,167.956 
		35.774,159.953 39.322,159.953 39.322,171.433 35.78,171.433 30.806,163.428 30.806,171.433 27.252,171.433 27.253,159.953 	"/>
	<polygon fill-rule="evenodd" clip-rule="evenodd" fill="#ED1C2E" points="58.616,161.135 62.07,161.135 62.07,162.679 
		63.94,162.679 63.94,163.812 62.07,163.812 62.073,171.433 58.616,171.433 58.617,163.812 56.741,163.812 56.741,162.68 
		58.618,162.68 58.616,161.135 	"/>
	<polygon fill-rule="evenodd" clip-rule="evenodd" fill="#ED1C2E" points="41.299,163.799 44.751,163.799 44.751,171.433 
		41.299,171.433 41.299,163.799 	"/>
	<polygon fill-rule="evenodd" clip-rule="evenodd" fill="#ED1C2E" points="41.292,159.95 44.751,159.95 44.751,162.298 
		41.292,162.298 41.292,159.95 	"/>
	<path fill-rule="evenodd" clip-rule="evenodd" fill="#ED1C2E" d="M103.177,167.555c0,0-0.003,1.152-0.003,1.616
		c0,1.216-0.718,1.72-1.411,1.72c-0.69,0-1.413-0.504-1.413-1.72c0-0.464,0.002-1.646,0.002-1.646s0.003-1.127,0.003-1.591
		c0-1.212,0.721-1.71,1.408-1.71c0.688,0,1.411,0.498,1.411,1.71c0,0.464,0,1.318,0.003,1.626V167.555L103.177,167.555
		L103.177,167.555z M101.79,163.277c-2.785,0-5.043,1.919-5.043,4.287c0,2.366,2.258,4.286,5.043,4.286
		c2.788,0,5.045-1.92,5.045-4.286C106.835,165.196,104.578,163.277,101.79,163.277L101.79,163.277z"/>
	<path fill-rule="evenodd" clip-rule="evenodd" fill="#ED1C2E" d="M92.215,159.953h3.407v11.478H92.21c0,0-0.002-0.37-0.002-0.439
		c-1.32,0.829-2.813,0.827-3.975,0.286c-0.311-0.146-2.361-1.13-2.361-3.785c0-2.016,1.902-4.215,4.389-3.997
		c0.819,0.073,1.402,0.372,1.954,0.681C92.215,162.411,92.215,159.953,92.215,159.953L92.215,159.953L92.215,159.953z
		 M92.239,167.577c0,0,0-0.958,0-1.365c0-1.18-0.813-1.48-1.352-1.48c-0.55,0-1.354,0.301-1.354,1.48
		c0,0.391,0.002,1.362,0.002,1.362s-0.002,0.949-0.002,1.356c0,1.181,0.805,1.488,1.354,1.488c0.538,0,1.352-0.308,1.352-1.488
		C92.239,168.44,92.239,167.577,92.239,167.577L92.239,167.577z"/>
	<path fill-rule="evenodd" clip-rule="evenodd" fill="#ED1C2E" d="M52.832,163.446c1.289-0.036,3.909,0.809,3.891,3.832
		c-0.004,0.535-0.002,4.152-0.002,4.152h-3.429c0,0,0-4.535,0-5.014c0-0.666-0.637-1.405-1.577-1.405
		c-0.941,0-1.64,0.739-1.64,1.405c0,0.326,0.004,5.014,0.004,5.014h-3.428l-0.002-7.633l3.43-0.003c0,0-0.004,0.614,0,0.802
		C50.74,163.968,51.691,163.479,52.832,163.446L52.832,163.446z"/>
	<path fill-rule="evenodd" clip-rule="evenodd" fill="#ED1C2E" d="M80.886,163.446c1.288-0.036,3.908,0.809,3.891,3.832
		c-0.005,0.535-0.003,4.152-0.003,4.152h-3.429c0,0,0-4.535,0-5.014c0-0.666-0.637-1.405-1.576-1.405
		c-0.94,0-1.642,0.739-1.642,1.405c0,0.326,0.006,5.014,0.006,5.014h-3.428l0.003-7.633l3.425-0.003c0,0-0.006,0.614,0,0.802
		C78.794,163.968,79.743,163.479,80.886,163.446L80.886,163.446z"/>
	<path fill-rule="evenodd" clip-rule="evenodd" fill="#ED1C2E" d="M67.156,166.459c-0.007-0.668,0.007-1.114,0.227-1.498
		c0.271-0.47,0.768-0.693,1.217-0.695h-0.003c0.452,0.002,0.945,0.226,1.214,0.695c0.22,0.384,0.231,0.83,0.228,1.498H67.156
		L67.156,166.459L67.156,166.459z M70.022,168.762c0,0,0.003,0.034,0.003,0.463c0,1.396-0.918,1.708-1.426,1.708
		c-0.511,0-1.446-0.312-1.446-1.708c0-0.419,0.005-1.576,0.005-1.576s6.501,0.002,6.501,0c0-2.368-2.284-4.329-5.092-4.329
		c-2.807,0-5.084,1.919-5.084,4.285c0,2.368,2.277,4.287,5.084,4.287c2.329,0,4.295-1.33,4.896-3.133L70.022,168.762L70.022,168.762
		z"/>
	<path fill-rule="evenodd" clip-rule="evenodd" fill="#ED1C2E" d="M107.075,162.684h-0.397v-2.614h0.996
		c0.617,0,0.923,0.229,0.923,0.743c0,0.468-0.293,0.671-0.678,0.72l0.742,1.151h-0.441l-0.691-1.134h-0.453V162.684L107.075,162.684
		L107.075,162.684z M107.549,161.215c0.335,0,0.634-0.023,0.634-0.426c0-0.323-0.293-0.384-0.567-0.384h-0.54v0.81H107.549
		L107.549,161.215z"/>
	<path fill-rule="evenodd" clip-rule="evenodd" fill="#ED1C2E" d="M105.252,161.37c0-1.301,1.056-2.26,2.302-2.26
		c1.236,0,2.289,0.959,2.289,2.26c0,1.313-1.053,2.272-2.289,2.272C106.308,163.643,105.252,162.684,105.252,161.37L105.252,161.37
		L105.252,161.37z M107.554,163.265c1.026,0,1.833-0.803,1.833-1.895c0-1.072-0.807-1.883-1.833-1.883
		c-1.036,0-1.846,0.811-1.846,1.883C105.708,162.462,106.518,163.265,107.554,163.265L107.554,163.265z"/>
</g>
<g>
	<g>
		<rect x="162.416" y="122.12" fill-rule="evenodd" clip-rule="evenodd" fill="#939598" width="0.76" height="5.737"/>
		<polygon fill-rule="evenodd" clip-rule="evenodd" fill="#939598" points="168.392,127.857 168.392,122.798 166.501,122.798 
			166.501,122.12 171.049,122.12 171.049,122.798 169.15,122.798 169.15,127.857 		"/>
		<path fill-rule="evenodd" clip-rule="evenodd" fill="#939598" d="M174.195,127.857l2.01-5.772h0.91l2.03,5.772h-0.865
			l-0.576-1.737h-2.073l-0.629,1.737H174.195z M175.762,125.521l1.765-0.026c0,0-0.841-2.462-0.93-2.771
			C176.523,123.091,175.762,125.521,175.762,125.521z"/>
		<polygon fill-rule="evenodd" clip-rule="evenodd" fill="#939598" points="183.174,127.857 183.174,122.12 183.935,122.12 
			183.935,127.181 186.76,127.181 186.76,127.857 		"/>
		<path fill-rule="evenodd" clip-rule="evenodd" fill="#939598" d="M190.916,127.857v-2.431l-1.857-3.307h0.924
			c0,0,1.18,2.377,1.36,2.7c0.171-0.3,1.397-2.7,1.397-2.7h0.885l-1.95,3.307v2.431H190.916z"/>
	</g>
	<g>
		<path fill="#939598" d="M148.551,102.448v4.639h2.116c1.362,0,2.466-1.038,2.466-2.319s-1.104-2.319-2.466-2.319H148.551z
			 M144.75,100.273h6.506c2.543,0,4.603,1.999,4.603,4.465c0,2.467-2.06,4.466-4.603,4.466h-2.719v3.932
			c0,1.032,0.419,1.953,1.074,2.557h-4.745c0.655-0.604,1.075-1.524,1.075-2.557v-10.329
			C145.941,101.787,145.478,100.876,144.75,100.273z"/>
		<path fill="#939598" d="M171.531,104.274v3.86h1.761c1.132,0,2.052-0.864,2.052-1.93c0-1.066-0.92-1.931-2.052-1.931H171.531z
			 M167.776,101.983h5.872c2.295,0,4.156,1.806,4.156,4.031c0,1.316-0.651,2.486-1.658,3.222c1.104,0.963,1.76,3,2.357,4.44
			c0.609,1.464,1.654,1.957,1.654,1.957h-4.502c0.297-0.348,0.326-0.688,0.318-0.921c-0.007-0.231-0.428-1.565-1.225-3.124
			c-0.607-1.185-1.67-1.474-2.145-1.544h-1.029v3.291c0,0.932,0.378,1.763,0.97,2.307h-4.665c0.593-0.544,0.971-1.375,0.971-2.307
			v-9.065C168.852,103.351,168.434,102.528,167.776,101.983z"/>
		<path fill="#939598" d="M182.275,108.885c0,2.675,1.35,4.843,3.014,4.843c1.668,0,3.018-2.169,3.018-4.843
			c0-2.675-1.35-4.842-3.018-4.842C183.625,104.043,182.275,106.211,182.275,108.885z M179.607,108.443
			c0-3.632,2.544-6.575,5.682-6.575c3.141,0,5.686,2.943,5.686,6.575v0.883c0,3.632-2.545,6.576-5.686,6.576
			c-3.138,0-5.682-2.944-5.682-6.576V108.443z"/>
		<path fill="#939598" d="M211.307,115.641h-4.588c0.646-0.542,1.059-1.368,1.059-2.292v-8.985c0-0.909-0.398-1.72-1.023-2.264h4.52
			c-0.627,0.544-1.023,1.354-1.023,2.264v8.985C210.25,114.272,210.662,115.099,211.307,115.641z"/>
		<path fill="#939598" d="M204.58,115.641h-3.252l-5.461-8.404v6.112c0,0.924,0.412,1.75,1.058,2.292h-4.588
			c0.646-0.542,1.06-1.368,1.06-2.292v-8.985c0-0.909-0.398-1.72-1.025-2.264h3.242l5.438,8.372v-6.108
			c0-0.909-0.398-1.72-1.023-2.264h4.519c-0.626,0.544-1.023,1.354-1.023,2.264v8.985
			C203.522,114.272,203.935,115.099,204.58,115.641z"/>
		<path fill="#939598" d="M163.394,109.926c1.071,0.064,2.159-0.158,2.419-0.216l0.223,0.354c-2.274,0.489-3.246,0.141-3.246,0.141
			l-0.004,0.012c-0.035,0.043-0.336,0.345-1.67,0.17c-1.436-0.189-3.857-0.08-5.38,0.892c0.223-0.648,0.602-1.211,0.602-1.211
			l-0.455-0.702c0.646-0.411,2.011-0.709,3.593-0.737c0.756-0.013,1.463,0.015,2.069,0.112l0.096,0.015
			c0.837,0.163,1.04,0.065,1.04,0.065h0.013c0.136-0.067,0.228-0.175,0.239-0.297c-0.135,0.097-0.352,0.159-0.596,0.159
			l-0.211-0.032c-0.72-0.187-1.598-0.258-2.65-0.239c-1.668,0.029-3.092,0.358-3.691,0.803l-0.17-0.264
			c0.342-0.399,1.332-0.729,2.607-0.878v-3.708c0-0.909-0.396-1.72-1.023-2.264l8.426,0.029l0.312,2.732
			c-0.508-0.464-2.176-0.5-2.176-0.5h-2.836v3.684c0.326,0.032,0.631,0.076,0.91,0.132c0.098-0.16,0.051-0.819,0.042-0.93
			c0.438,0.102,1.108,0.166,1.859,0.166c1.083,0,1.998-0.135,2.29-0.319l-0.281,0.54c-1.555,0.303-2.551,0.218-3.064,0.12
			c0,0,0.518,0.59,2.953,0.093l-0.451,0.864l0.514,0.813c-0.5,0.138-1.812,0.292-2.24,0.201c-0.432-0.091-0.475-0.036-0.475-0.036
			S162.68,109.882,163.394,109.926z M155.629,111.639c1.742-1.24,4.215-1.25,5.521-1.028c1.37,0.231,1.551-0.275,1.551-0.275
			s0.131,0.913-1.551,0.696c-0.072-0.01-0.147-0.019-0.227-0.027v2.345l0.002,0.06h3.24c0,0,1.667-0.036,2.175-0.5l-0.312,2.732
			h-8.866c0.646-0.542,1.058-1.368,1.058-2.292v-2.284c-0.949,0.155-1.923,0.479-2.725,1.093
			C155.523,112.04,155.564,111.873,155.629,111.639z"/>
	</g>
</g>
<g>
	<path fill-rule="evenodd" clip-rule="evenodd" fill="#8B2332" d="M153.709,146.902c-8.637,0-15.658,8.43-15.658,18.79
		c0,10.363,7.021,18.791,15.658,18.791c8.636,0,15.662-8.428,15.662-18.791C169.371,155.332,162.345,146.902,153.709,146.902"/>
	<path fill="#8B2332" d="M191.301,164.671c0,2.788-2.569,4.427-5.311,4.427c-1.027,0-3.15-0.332-4.354-1.152l0.314-0.64
		c0.846,0.729,3.077,1.305,4.039,1.305c2.163,0,4.196-1.241,4.196-3.456c0-1.434-1.083-2.019-2.464-2.604
		c-1.127-0.475-2.396-1.057-3.558-1.616c-1.708-0.824-2.292-1.967-2.321-3.649c-0.039-2.044,1.32-4.3,5.093-4.3
		c0.894,0,2.257,0.178,3.394,0.396c0.046,0.865,0.068,1.752,0.068,2.438c0,0.287,0,0.333-0.156,0.333
		c-0.133,0-0.197-0.046-0.379-1.107c-0.156-0.866-1.299-1.572-3.083-1.572c-1.718,0-3.929,1.152-3.929,3.255
		C182.852,160.577,191.301,159.358,191.301,164.671"/>
	<path fill="#8B2332" d="M199.68,163.169h-4.238l2.206-5.138L199.68,163.169z M203.518,168.722l-5.106-12.372
		c-0.048-0.11-0.137-0.157-0.228-0.157h-1.469l0.242,0.511c0.154,0.31,0.182,0.533,0.044,0.819l-4.905,11.354l1.068-0.154
		l2.033-4.981h4.729l2.099,5.183L203.518,168.722z"/>
	<path fill="#8B2332" d="M212.983,159.604c0,2.28-1.69,3.849-4.259,3.849c-0.558,0-1.294-0.398-1.294-0.62
		c0-0.042,0.067-0.174,0.134-0.174c0.089,0,0.561,0.266,1.049,0.266c2.162,0,2.898-1.284,2.898-2.9c0-2.03-0.889-3.174-3.858-3.174
		c-0.534,0-0.624,0.11-0.624,0.681v11.19l-1.472,0.176V157.84c0-0.879-0.046-1.125-1.071-1.169
		c-0.401-0.021-0.424-0.174-0.424-0.285c0-0.154,0.088-0.22,0.221-0.22c0.137,0,0.404,0.042,0.76,0.108
		c0.359,0.064,1.074,0.111,1.562,0.111c0.758,0,1.941-0.089,2.698-0.089C210.999,156.297,212.983,157.51,212.983,159.604z"/>
	<path fill="#8B2332" d="M218.414,156.458c0,0.113-0.182,0.288-0.76,0.378c-0.443,0.066-0.491,0.555-0.491,0.973v10.934l-1.47,0.134
		v-11.067c0-0.441-0.07-0.906-0.445-0.973c-0.738-0.133-0.85-0.265-0.85-0.378c0-0.131,0.042-0.198,0.263-0.176
		c0.54,0.045,1.39,0.088,1.812,0.088s1.137-0.043,1.674-0.088C218.365,156.26,218.414,156.327,218.414,156.458z"/>
	<path fill="#8B2332" d="M227.021,162.301l0.014,0.49h-3.925v4.537c0,0.729,0.021,0.884,0.578,0.975
		c0.448,0.064,0.826,0.109,1.449,0.109s1.651-0.024,2.121-0.109c0.312-0.066,0.621,0.042,0.761-0.775
		c0.153-0.841,0.312-0.884,0.423-0.884c0.133,0,0.133,0.043,0.133,0.264c0,0.464-0.022,1.018-0.047,1.594
		c-0.021,0.443-0.108,0.465-0.509,0.443c-0.585-0.021-1.589-0.068-2.392-0.091c-0.688-0.02-2.186-0.041-2.764-0.041l-1.226,0.085
		v-11.065c0-0.886-0.07-1.129-1.097-1.174c-0.4-0.019-0.4-0.155-0.4-0.264c0-0.155,0.089-0.243,0.223-0.243
		c0.135,0,0.4,0.041,0.76,0.108c0.358,0.067,0.98,0.11,1.469,0.11c0.582,0,2.254-0.021,2.947-0.043
		c0.803-0.021,1.275-0.045,1.853-0.067c0.401-0.021,0.487-0.021,0.51,0.421c0.024,0.575,0.048,1.151,0.048,1.617
		c0,0.221,0,0.265-0.134,0.265c-0.113,0-0.269-0.044-0.424-0.884c-0.134-0.82-0.444-0.732-0.755-0.797
		c-0.207-0.046-0.609-0.046-0.719-0.046h-2.343c-0.331,0-0.466,0.09-0.466,0.311v5.154H227.021z"/>
	<path fill="#8B2332" d="M242.369,156.37c0,0.112-0.025,0.27-0.426,0.288c-1.026,0.045-1.072,0.288-1.072,1.174v10.89l-0.865,0.176
		l-7.99-10.888h-0.022v10.689l-0.69,0.198v-11.065c0-0.886-0.043-1.129-1.071-1.174c-0.405-0.019-0.405-0.176-0.405-0.288
		c0-0.153,0.07-0.242,0.203-0.219c0.759,0.088,2.188,0.131,2.746,0.176c0.043,0.067,0.115,0.131,0.18,0.223l7.205,10.004v-8.722
		c0-0.886-0.045-1.129-1.072-1.174c-0.399-0.019-0.425-0.176-0.425-0.288c0-0.153,0.091-0.219,0.224-0.219
		c0.314,0,1.338,0.176,1.718,0.176c0.356,0,1.251-0.176,1.542-0.176C242.275,156.151,242.369,156.217,242.369,156.37z"/>
	<path fill="#8B2332" d="M242.945,168.534c-0.113,0-0.156-0.044-0.156-0.133c0-0.088,0-0.133,0.064-0.199l7.662-11.231h-5.928
		c-0.736,0-1.137,0.462-1.207,0.462c-0.043,0-0.111-0.065-0.091-0.153l0.181-0.842c0.023-0.11,0.068-0.198,0.156-0.198
		c0.064,0,0.268,0.131,1.74,0.131h6.787l0.111,0.4l-7.42,10.879c1.342-0.008,5.559,0.142,7.406,0.327l4.497-10.402
		c0.138-0.291,0.112-0.51-0.044-0.82l-0.244-0.509h1.471c0.091,0,0.178,0.042,0.224,0.155l5.108,12.371l-1.494,0.201l-2.33-5.753
		l-2.039-5.137l-2.213,5.132l-2.275,5.557C250.938,168.463,244.049,168.154,242.945,168.534z"/>
	<rect x="254.617" y="163.184" fill="#8B2332" width="5.242" height="0.567"/>
	<path fill="#8B2332" d="M254.617,163.751"/>
	<path fill="#8B2332" d="M231.467,178.248c-0.237,0-0.734-0.114-1.131-0.088l-0.539,0.034v-4.425c0-0.335,0-0.407-0.381-0.425
		c-0.178-0.009-0.21-0.045-0.21-0.114c0-0.08,0.041-0.125,0.132-0.125c0.097,0,0.213,0.025,0.311,0.045
		c0.139,0.028,0.396,0.046,0.583,0.046c0.178,0,0.354-0.009,0.526-0.018c0.226-0.008,0.472-0.02,0.852-0.02
		c1.502,0,2.615,0.971,2.615,2.439C234.225,177.169,233.189,178.248,231.467,178.248 M231.415,173.416h-0.657
		c-0.198,0-0.289,0.08-0.289,0.309v3.87c0,0.274,0.01,0.291,0.196,0.344c0.229,0.07,0.513,0.089,0.866,0.089
		c1.403,0,1.951-0.98,1.951-2.322C233.482,174.527,233.155,173.416,231.415,173.416z"/>
	<path fill="#8B2332" d="M236.578,173.416c-0.161,0.026-0.161,0.203-0.161,0.346v4.372l-0.673,0.052v-4.424
		c0-0.151-0.008-0.319-0.141-0.346c-0.282-0.043-0.372-0.054-0.372-0.143c0-0.077,0.038-0.123,0.15-0.114
		c0.212,0.02,0.548,0.037,0.716,0.037c0.166,0,0.449-0.018,0.666-0.037c0.112-0.009,0.146,0.037,0.146,0.114
		C236.91,173.356,236.793,173.382,236.578,173.416"/>
	<path fill="#8B2332" d="M244.603,178.302c-0.034,0.035-0.263,0.052-0.413,0.026c-0.329-0.054-0.54-0.126-0.771-0.469l-0.38-0.565
		l-1.201-1.936c-0.186,0.037-0.23,0.054-0.602,0.054h-0.238v2.705l-0.708,0.097v-5.593c0-0.425-0.006-0.514-0.492-0.538
		c-0.204-0.01-0.247-0.019-0.247-0.107c0-0.116,0.069-0.133,0.147-0.133c0.081,0,0.214,0.024,0.392,0.054
		c0.178,0.026,0.572,0.061,0.811,0.061c0.397,0,0.806-0.053,1.202-0.053c0.886,0,1.644,0.521,1.644,1.452
		c0,0.89-0.68,1.647-1.229,1.825l1.097,1.796c0.319,0.511,0.495,0.854,0.972,1.19c0.062,0.046,0.071,0.098,0.017,0.143V178.302
		 M241.615,172.134h-0.387c-0.152,0-0.23,0.117-0.23,0.303v2.712c0.143,0.016,0.203,0.025,0.381,0.025
		c1.395,0,1.609-0.988,1.609-1.688C242.988,172.665,242.66,172.134,241.615,172.134z"/>
	<path fill="#8B2332" d="M247.797,178.248c-1.512,0-2.633-1.079-2.633-2.569c0-1.574,1.324-2.573,2.633-2.573
		c1.368,0,2.632,0.928,2.632,2.573C250.429,177.169,249.307,178.248,247.797,178.248 M247.797,173.356
		c-1.062,0-1.891,0.773-1.891,2.313c0,1.351,0.635,2.33,1.891,2.33c1.351,0,1.889-0.979,1.889-2.33
		C249.686,174.096,248.767,173.356,247.797,173.356z"/>
	<path fill="#8B2332" d="M257.622,173.345c-0.432,0.018-0.423,0.186-0.381,0.583c0.053,0.468,0.505,4.198,0.505,4.198l-0.751,0.068
		l-0.444-4.106l-1.652,3.807l-0.307,0.054l-1.865-3.88l-0.318,4.058l-0.637,0.076c0.389-5.08,0.346-4.238,0.361-4.44
		c0.037-0.319,0-0.399-0.379-0.417c-0.184-0.009-0.213-0.079-0.213-0.14c0-0.1,0.071-0.107,0.141-0.1
		c0.212,0.025,0.709,0.045,0.895,0.065c0.124,0.008,0.176,0.034,0.266,0.211l1.936,4.002l1.697-3.984
		c0.068-0.169,0.176-0.221,0.301-0.229c0.193-0.021,0.679-0.03,0.881-0.057c0.082-0.009,0.178,0.017,0.178,0.107
		C257.834,173.282,257.809,173.336,257.622,173.345"/>
	<path fill="#8B2332" d="M262.672,178.202l-0.83-2.03h-1.819l-0.796,1.954l-0.529,0.068l1.967-4.524
		c0.047-0.103,0.039-0.166-0.016-0.279l-0.123-0.269h0.654c0.051,0,0.107,0.037,0.133,0.092l2.039,4.903L262.672,178.202
		 M260.967,173.964l-0.803,1.943h1.545L260.967,173.964z"/>
	<path fill="#8B2332" d="M187.064,172.161c-0.203,0.035-0.203,0.293-0.211,0.45c0,0.063-0.047,2.278-0.176,3.313
		c-0.1,0.734-0.418,2.35-2.219,2.35c-1.812,0-2.283-1.413-2.404-2.367c-0.073-0.512-0.099-2.068-0.099-2.871
		c0-0.257-0.019-0.425-0.019-0.425c-0.008-0.194-0.008-0.424-0.176-0.45c-0.406-0.069-0.458-0.078-0.458-0.142
		c0-0.104,0.063-0.115,0.177-0.104c0.264,0.016,0.626,0.034,0.838,0.034c0.211,0,0.504-0.019,0.768-0.034
		c0.117-0.011,0.178,0,0.178,0.104c0,0.063-0.078,0.088-0.406,0.142c-0.186,0.035-0.221,0.229-0.211,0.45
		c0,0,0.025,2.033,0.078,3.03c0.09,1.556,0.754,2.358,1.734,2.358c1.209,0,1.765-0.988,1.855-2.287
		c0.069-1.023,0.069-1.959,0.069-2.905v-0.196c0-0.194-0.008-0.424-0.177-0.45c-0.406-0.069-0.458-0.078-0.458-0.142
		c0-0.104,0.061-0.115,0.177-0.104c0.264,0.016,0.535,0.034,0.752,0.034c0.211,0,0.354-0.019,0.617-0.034
		c0.116-0.011,0.176,0,0.176,0.104C187.471,172.083,187.394,172.107,187.064,172.161"/>
	<path fill="#8B2332" d="M193.072,173.345c-0.379,0.018-0.379,0.09-0.379,0.425v4.348l-0.408,0.085l-3.107-4.203v4.108l-0.363,0.106
		v-4.444c0-0.335,0-0.407-0.381-0.425c-0.186-0.009-0.203-0.045-0.203-0.105c0-0.08,0.035-0.142,0.134-0.134
		c0.299,0.035,0.734,0.054,0.971,0.073l2.987,4.088v-3.497c0-0.335,0-0.407-0.38-0.425c-0.177-0.009-0.212-0.036-0.212-0.105
		c0-0.089,0.052-0.134,0.134-0.134c0.121,0,0.528,0.073,0.681,0.073c0.141,0,0.492-0.073,0.607-0.073
		c0.079,0,0.134,0.045,0.134,0.134C193.286,173.309,193.25,173.336,193.072,173.345"/>
	<path fill="#8B2332" d="M195.511,173.416c-0.157,0.026-0.157,0.203-0.157,0.346v4.372l-0.673,0.052v-4.424
		c0-0.151-0.009-0.319-0.143-0.346c-0.28-0.043-0.37-0.054-0.37-0.143c0-0.077,0.035-0.123,0.15-0.114
		c0.211,0.02,0.548,0.037,0.717,0.037c0.168,0,0.449-0.018,0.661-0.037c0.116-0.009,0.149,0.037,0.149,0.114
		C195.846,173.356,195.734,173.382,195.511,173.416"/>
	<path fill="#8B2332" d="M201.289,173.382c-0.158,0.025-0.246,0.157-0.308,0.307l-1.765,4.445l-0.473,0.052l-1.775-4.407
		c-0.043-0.099-0.08-0.248-0.141-0.336c-0.036-0.061-0.088-0.086-0.203-0.098c-0.178-0.009-0.211-0.036-0.211-0.105
		c0-0.08,0.052-0.142,0.141-0.134c0.211,0.025,0.564,0.035,0.75,0.054c0.195,0.02,0.246,0.157,0.301,0.309l1.519,4.021l1.511-3.809
		c0.047-0.104-0.024-0.245-0.146-0.264c-0.338-0.054-0.381-0.107-0.381-0.15c0-0.069,0.026-0.115,0.148-0.106
		c0.215,0.02,0.434,0.037,0.602,0.037c0.17,0,0.31-0.018,0.521-0.037c0.123-0.009,0.15,0.037,0.15,0.106
		C201.529,173.316,201.475,173.345,201.289,173.382"/>
	<path fill="#8B2332" d="M205.084,178c-0.009,0.202-0.07,0.223-0.248,0.214c-0.68-0.028-1.359-0.097-2.041-0.054l-0.529,0.034
		v-4.433c0-0.337-0.01-0.405-0.391-0.426c-0.175-0.011-0.203-0.036-0.203-0.105c0-0.08,0.046-0.125,0.133-0.125
		c0.1,0,0.212,0.025,0.31,0.045c0.142,0.028,0.39,0.046,0.575,0.046c0.637,0,1.262-0.018,1.9-0.046c0.176-0.01,0.236,0,0.246,0.206
		c0.009,0.228,0.018,0.456,0.018,0.634c0,0.135-0.027,0.148-0.098,0.148c-0.149,0-0.115-0.54-0.265-0.635
		c-0.112-0.069-0.441-0.097-0.511-0.097h-0.904c-0.131,0-0.139,0.027-0.139,0.078v2.06h0.943c0.116,0,0.363-0.009,0.39-0.159
		c0.063-0.328,0.089-0.39,0.168-0.39c0.099,0,0.106,0.062,0.099,0.152c-0.018,0.202-0.038,0.354-0.038,0.513
		c0,0.156,0.021,0.316,0.038,0.52c0.008,0.089,0,0.151-0.099,0.151c-0.079,0-0.104-0.062-0.168-0.39
		c-0.026-0.15-0.237-0.168-0.39-0.168h-0.943v1.804c0,0.281,0.008,0.316,0.193,0.344c0.168,0.026,0.318,0.043,0.564,0.043
		c0.16,0,0.93-0.008,1.035-0.079c0.15-0.097,0.114-0.662,0.271-0.662c0.073,0,0.1,0.017,0.1,0.15
		C205.102,177.552,205.093,177.771,205.084,178"/>
	<path fill="#8B2332" d="M210,178.294c-0.318,0-0.555-0.117-0.74-0.381l-0.311-0.451l-0.998-1.52
		c-0.148,0.035-0.203,0.035-0.371,0.035h-0.186v2.148l-0.672,0.076v-4.433c0-0.327-0.01-0.407-0.389-0.425
		c-0.176-0.009-0.203-0.045-0.203-0.105c0-0.089,0.053-0.134,0.135-0.134c0.094,0,0.211,0.025,0.309,0.045
		c0.139,0.028,0.549,0.046,0.734,0.046c0.316,0,0.643-0.037,0.962-0.037c0.705,0,1.368,0.408,1.368,1.157
		c0,0.822-0.672,1.325-1.061,1.467c1.132,1.688,0.883,1.316,1.317,1.979c0.062,0.097,0.194,0.237,0.3,0.337
		c0.062,0.053,0.126,0.061,0.126,0.133C210.321,178.294,210.126,178.294,210,178.294 M207.88,173.391h-0.255
		c-0.177,0-0.23,0.086-0.23,0.208v2.132c0.107,0.008,0.158,0.017,0.301,0.017c1.104,0,1.228-0.751,1.228-1.308
		C208.923,173.787,208.71,173.391,207.88,173.391z"/>
	<path fill="#8B2332" d="M212.451,178.248c-0.328,0-0.886-0.096-1.3-0.379l0.132-0.309c0.311,0.263,0.875,0.439,1.168,0.439
		c0.67,0,1.191-0.334,1.191-0.997c0-0.354-0.311-0.557-0.583-0.717c-0.439-0.254-0.918-0.431-1.297-0.784
		c-0.294-0.267-0.522-0.583-0.522-1.148c0-0.743,0.697-1.248,1.548-1.248c0.279,0,0.634,0.054,1.032,0.134
		c0.018,0.308,0.018,0.583,0.018,0.794c0,0.097,0,0.152-0.09,0.152c-0.088,0-0.114-0.056-0.17-0.381
		c-0.043-0.237-0.297-0.432-0.836-0.432c-0.584,0-1.088,0.271-1.088,0.899c0,0.194,0.115,0.311,0.258,0.442
		c0.219,0.212,0.582,0.361,0.855,0.494c0.336,0.158,0.681,0.336,0.938,0.601c0.227,0.24,0.38,0.586,0.38,1.009
		C214.085,177.729,213.332,178.248,212.451,178.248"/>
	<path fill="#8B2332" d="M216.39,173.416c-0.157,0.026-0.157,0.203-0.157,0.346v4.372l-0.673,0.052v-4.424
		c0-0.151-0.009-0.319-0.142-0.346c-0.282-0.043-0.371-0.054-0.371-0.143c0-0.077,0.035-0.123,0.148-0.114
		c0.215,0.02,0.55,0.037,0.719,0.037c0.168,0,0.447-0.018,0.661-0.037c0.114-0.009,0.149,0.037,0.149,0.114
		C216.725,173.356,216.611,173.382,216.39,173.416"/>
	<path fill="#8B2332" d="M221.818,173.539l-0.281-0.054h-1.582v4.648l-0.674,0.068v-4.717c-0.412-0.009-1.242,0-1.242,0
		c-0.371,0-0.416,0.082-0.451,0.269c-0.018,0.085,0,0.385-0.132,0.385h-0.019c-0.09,0-0.104-0.051-0.104-0.148
		c0-0.178,0-0.406,0.006-0.634c0.009-0.206,0.071-0.216,0.249-0.206c0.23,0.009,0.424,0.021,0.743,0.028
		c0.944,0.035,1.908,0.018,2.853,0.018c0.246,0,0.531-0.091,0.652-0.091c0.035,0,0.098,0.017,0.098,0.091
		C221.934,173.325,221.891,173.345,221.818,173.539"/>
	<path fill-rule="evenodd" clip-rule="evenodd" fill="#8B2332" d="M224.542,172.79h0.251l-1.039-1.039
		c-0.113-0.113-0.191-0.162-0.269-0.162c-0.13,0-0.251,0.092-0.251,0.263c0,0.105,0.048,0.162,0.307,0.319L224.542,172.79
		 M224.193,173.964l-0.807,1.943h1.547L224.193,173.964z M225.895,178.202l-0.83-2.03h-1.817l-0.798,1.954l-0.531,0.068l1.972-4.524
		c0.044-0.103,0.036-0.166-0.016-0.279l-0.126-0.269h0.656c0.051,0,0.104,0.037,0.13,0.092l2.042,4.903L225.895,178.202z"/>
	<path fill-rule="evenodd" clip-rule="evenodd" fill="#FFFFFF" d="M154.008,152.918c0,0.589,0.004,2.104,0,2.65
		c0,0.247,0.092,0.422,0.208,0.549c0.069,0.068,0.128,0.114,0.187,0.151c0.021,0.018,0.115,0.053,0.148,0.053
		c0.048,0.008,0.109,0.014,0.188,0.009c0.188-0.013,0.374-0.077,0.542-0.26c0.359-0.391,1.118-1.201,1.441-1.551
		c0.096-0.103-0.004-0.119-0.086-0.116c-0.666,0.02-1.378,0.652-1.861,1.088c-0.061-0.654-0.159-2.109-0.643-2.662
		C154.076,152.767,154.008,152.768,154.008,152.918 M153.396,152.829c-0.484,0.553-0.57,2.008-0.627,2.662
		c-0.487-0.436-1.199-1.068-1.861-1.088c-0.082-0.003-0.185,0.014-0.09,0.116c0.324,0.35,1.082,1.16,1.441,1.551
		c0.168,0.183,0.354,0.247,0.527,0.26c0.096,0.005,0.154-0.001,0.204-0.009c0.033,0,0.126-0.035,0.149-0.053
		c0.06-0.037,0.117-0.083,0.174-0.139c0.129-0.14,0.221-0.314,0.219-0.562c-0.001-0.547,0.002-2.062,0.002-2.65
		C153.537,152.768,153.45,152.767,153.396,152.829z M147.756,166.401c0.045-0.498-0.291-0.928-0.767-1.02
		c-0.065-0.005-0.13-0.011-0.19-0.018c-2.055-0.197-4.088-0.784-5.974-1.778c-0.042-0.024-0.081,0.021-0.06,0.065
		c0.115,0.225,0.452,0.482,0.966,0.846c0.585,0.42,2.499,1.344,4.126,1.665C146.484,166.287,147.119,166.367,147.756,166.401z
		 M149.303,168.775c0.026-0.184-0.008-0.427-0.1-0.646c-0.035-0.161-0.149-0.309-0.297-0.424c-0.238-0.19-0.543-0.303-0.775-0.311
		c-2.117-0.12-4.181-0.86-6.014-2.148c-0.092-0.063-0.125-0.021-0.053,0.066c0.318,0.392,0.635,0.808,1.043,1.125
		c1.24,0.967,2.682,1.546,4.149,1.805c0.315,0.055,0.635,0.097,0.953,0.124c0.071,0.001,0.118,0,0.13,0.021
		c0.014,0.018,0.015,0.073-0.004,0.139c-0.027,0.312-0.043,0.627-0.043,0.942c0,1.459,0.328,2.948,1.08,4.316
		c0.246,0.451,0.607,0.829,0.945,1.204c0.076,0.086,0.121,0.06,0.074-0.039C149.423,172.954,149.045,170.839,149.303,168.775z
		 M151.107,170.423c0.004-0.063,0.01-0.128,0.014-0.188c-0.008-0.475-0.377-0.876-0.869-0.921h-0.02
		c-0.075,0.619-0.107,1.245-0.093,1.873c0.03,1.621,0.653,3.63,0.97,4.269c0.274,0.557,0.475,0.931,0.68,1.078
		c0.041,0.03,0.09,0,0.074-0.046C151.201,174.495,150.939,172.437,151.107,170.423z M153.125,170.91
		c0-0.004,0.027-0.239,0.029-0.239c0.117-0.753-0.145-1.511-0.615-2.047c-0.775-0.884-2.07-0.956-2.584-1.519
		c-0.51-0.563-0.311-1.985-1.096-2.802c-0.493-0.516-1.188-0.843-1.965-0.862l-0.216-0.008c-2.231-0.025-4.282-0.442-6.403-1.295
		c-0.073-0.03-0.161,0.036-0.102,0.12c0.193,0.26,0.604,0.631,1.328,0.937c2.262,0.958,5.336,1.182,5.346,1.182
		c1.307,0.065,1.88,1.221,2.18,2.226c0.102,0.341,0.255,0.661,0.432,0.867c0.172,0.209,0.461,0.451,0.799,0.615
		c0.957,0.468,2.115,1.192,1.945,2.465c0,0.007-0.414,3.009,0.145,5.354c0.18,0.755,0.447,1.216,0.676,1.446
		c0.072,0.073,0.154,0,0.138-0.075C152.683,175.083,152.751,173.062,153.125,170.91z M146.959,161.859
		c-0.291,0.068-0.95,0.235-1.381,0.414c-0.07,0.029-0.087,0.152,0.002,0.188c0.484,0.193,1.594,0.314,1.953,0.173
		c0.525-0.205,0.41-1.07,0.137-1.438c-1.195-1.699-1.873-3.737-1.984-5.943c-0.004-0.109-0.056-0.109-0.082,0.001
		c-0.112,0.486-0.243,0.987-0.243,1.497C145.36,158.64,145.986,160.396,146.959,161.859z M147.248,158.684
		c0.285,0.559,0.609,1.095,0.969,1.605c0.418-0.277,0.547-0.803,0.331-1.224c-0.036-0.052-0.069-0.106-0.104-0.158
		c-1.096-1.694-1.873-3.614-2.244-5.678c-0.009-0.048-0.065-0.051-0.087-0.005c-0.106,0.225-0.104,0.647-0.073,1.264
		C146.068,155.199,146.51,157.241,147.248,158.684z M149.246,158.33c0.746,1.043,0.19,2.201-0.41,3.056
		c-0.734,1.043,0.169,2.361,0.127,1.591c-0.062-1.136,1.371-1.806,1.566-3.15c0.1-0.698-0.064-1.435-0.525-2.042l-0.123-0.168
		c-1.338-1.726-2.261-3.555-2.888-5.711c-0.021-0.073-0.126-0.1-0.155,0c-0.083,0.307-0.121,0.854,0.078,1.601
		C147.546,155.83,149.242,158.325,149.246,158.33z M159.878,161.196c-0.271,0.367-0.388,1.232,0.138,1.438
		c0.361,0.142,1.469,0.021,1.953-0.173c0.09-0.035,0.072-0.158,0.001-0.188c-0.429-0.179-1.091-0.346-1.382-0.414
		c0.975-1.463,1.6-3.22,1.6-5.108c0-0.51-0.129-1.011-0.242-1.497c-0.024-0.11-0.078-0.11-0.081-0.001
		C161.752,157.459,161.076,159.497,159.878,161.196z M159.002,159.065c-0.219,0.421-0.09,0.946,0.314,1.215
		c0.373-0.502,0.697-1.038,0.982-1.597c0.74-1.442,1.182-3.484,1.212-4.195c0.029-0.616,0.031-1.039-0.075-1.264
		c-0.02-0.046-0.076-0.043-0.086,0.005c-0.371,2.063-1.148,3.983-2.246,5.678L159.002,159.065z M158.585,162.977
		c-0.043,0.771,0.862-0.548,0.126-1.591c-0.602-0.854-1.156-2.013-0.41-3.056c0.006-0.005,1.703-2.5,2.33-4.824
		c0.202-0.747,0.164-1.294,0.078-1.601c-0.028-0.1-0.134-0.073-0.155,0c-0.628,2.156-1.547,3.985-2.89,5.711
		c0,0-0.12,0.168-0.121,0.168c-0.461,0.607-0.625,1.344-0.525,2.042C157.212,161.171,158.648,161.841,158.585,162.977z
		 M153.709,183.258c-8.029,0-14.561-7.88-14.561-17.565c0-9.684,6.531-17.564,14.561-17.564c8.031,0,14.562,7.881,14.562,17.564
		C168.271,175.378,161.74,183.258,153.709,183.258z M153.709,147.592c-8.317,0-15.084,8.12-15.084,18.101
		c0,9.981,6.767,18.1,15.084,18.1c8.32,0,15.085-8.118,15.085-18.1C168.794,155.712,162.029,147.592,153.709,147.592z
		 M150.811,165.571c-0.382,0-0.71-0.326-0.774-0.466c-0.188,0.885,0.296,1.299,1.003,1.428c-0.121-0.285-0.199-0.586-0.229-0.891
		V165.571z M150.83,164.887c0.019-0.275,0.022-0.614,0.031-0.876c-0.635-0.069-1.039-0.553-1.123-0.669
		C149.35,163.965,149.792,164.744,150.83,164.887z M156.678,165.627c-0.029,0.305-0.106,0.604-0.23,0.891
		c0.709-0.129,1.161-0.544,0.975-1.43c-0.064,0.142-0.361,0.467-0.744,0.467V165.627z M157.751,163.326
		c-0.085,0.115-0.488,0.598-1.124,0.669c0.01,0.261,0.015,0.601,0.031,0.875C157.696,164.727,158.14,163.949,157.751,163.326z
		 M154.499,161.766c2.103,1.209,2.872,0.094,2.872,0.094s0.769,0.917-0.554,1.274c-1.397,0.376-2.345-0.477-2.568-0.642
		C153.833,162.186,153.745,161.334,154.499,161.766z M155.627,160.669c0.807,0.492,1.076,0.505,1.076,0.505
		s-0.028,0.841-1.232,0.381c-0.424-0.163-1.711-0.889-1.492-1.19C154.342,159.856,154.975,160.268,155.627,160.669z M152.99,161.766
		c-2.104,1.209-2.84,0.094-2.84,0.094s-0.801,0.917,0.521,1.274c1.396,0.376,2.343-0.477,2.568-0.642
		C153.657,162.186,153.744,161.334,152.99,161.766z M151.861,160.669c-0.805,0.492-1.043,0.505-1.043,0.505
		s-0.004,0.841,1.199,0.381c0.424-0.163,1.711-0.889,1.493-1.19C153.145,159.856,152.515,160.268,151.861,160.669z M156.171,165.273
		c-0.034-0.356-0.081-1.005-0.095-1.347c-0.99,0-2.038-0.757-2.331-1.228c-0.292,0.471-1.343,1.228-2.331,1.228
		c-0.014,0.342-0.061,0.99-0.096,1.347c-0.068,0.655,0.165,1.335,0.601,1.825c0.225,0.253,0.505,0.499,0.815,0.642
		c0.026,0.011,0.056,0.021,0.087,0.034l0.147,0.065c0.084,0.045,0.132,0.107,0.215,0.168c0.229,0.166,0.553,0.154,0.561,0.154
		c0.01,0,0.332,0.012,0.562-0.154c0.08-0.061,0.128-0.123,0.215-0.168l0.146-0.065c0.032-0.014,0.061-0.023,0.088-0.034
		c0.311-0.143,0.59-0.389,0.815-0.642C156.007,166.608,156.24,165.929,156.171,165.273z M154.902,165.008
		c-0.564,0-0.684-0.169-0.684-0.169s0.143-0.473,0.683-0.473c0.536,0,0.737,0.394,0.737,0.394
		C155.621,164.817,155.67,165.008,154.902,165.008z M153.758,167.165c-0.475,0-0.859-0.395-0.859-0.507s1.718-0.112,1.718,0
		S154.231,167.165,153.758,167.165z M152.587,165.008c-0.767,0-0.718-0.19-0.737-0.248c0,0,0.203-0.394,0.742-0.394
		c0.535,0,0.682,0.473,0.682,0.473S153.152,165.008,152.587,165.008z M153.758,165.731c0.246,0,0.443,0.101,0.443,0.186
		c0,0.082-0.197,0.184-0.443,0.184c-0.245,0-0.443-0.102-0.443-0.184C153.314,165.832,153.513,165.731,153.758,165.731z
		 M161.695,166.162c1.623-0.321,3.537-1.245,4.124-1.665c0.513-0.363,0.851-0.621,0.964-0.846c0.021-0.045-0.019-0.09-0.062-0.065
		c-1.884,0.994-3.915,1.581-5.97,1.778c-0.062,0.007-0.127,0.013-0.191,0.018c-0.475,0.092-0.812,0.521-0.767,1.02
		C160.432,166.367,161.064,166.287,161.695,166.162z M157.158,174.95c-0.047,0.099,0,0.125,0.074,0.039
		c0.338-0.375,0.699-0.753,0.946-1.204c0.751-1.368,1.078-2.857,1.078-4.316c0-0.315-0.017-0.63-0.042-0.942
		c-0.02-0.065-0.019-0.121-0.006-0.139c0.013-0.021,0.059-0.02,0.131-0.021c0.318-0.027,0.638-0.069,0.953-0.124
		c1.469-0.259,2.909-0.838,4.15-1.805c0.408-0.317,0.723-0.733,1.041-1.125c0.072-0.088,0.041-0.13-0.051-0.066
		c-1.835,1.288-3.896,2.028-6.014,2.148c-0.232,0.008-0.537,0.12-0.777,0.311c-0.148,0.115-0.262,0.263-0.296,0.424
		c-0.091,0.219-0.125,0.462-0.099,0.646C158.506,170.839,158.127,172.954,157.158,174.95z M155.686,176.487
		c-0.016,0.046,0.035,0.076,0.075,0.046c0.206-0.147,0.405-0.521,0.681-1.078c0.315-0.639,0.938-2.647,0.97-4.269
		c0.015-0.628-0.019-1.254-0.093-1.873h-0.02c-0.494,0.045-0.865,0.446-0.869,0.921c0.004,0.061,0.009,0.125,0.014,0.188
		C156.61,172.437,156.348,174.495,155.686,176.487z M154.389,177.275c-0.017,0.075,0.066,0.148,0.139,0.075
		c0.227-0.23,0.496-0.691,0.673-1.446c0.561-2.346,0.146-5.348,0.146-5.354c-0.168-1.272,0.989-1.997,1.947-2.465
		c0.338-0.164,0.627-0.406,0.799-0.615c0.178-0.206,0.329-0.526,0.432-0.867c0.298-1.005,0.872-2.16,2.179-2.226
		c0.009,0,3.084-0.224,5.345-1.182c0.723-0.306,1.137-0.677,1.329-0.937c0.058-0.084-0.028-0.15-0.103-0.12
		c-2.12,0.853-4.17,1.27-6.402,1.295l-0.215,0.008c-0.778,0.02-1.473,0.347-1.968,0.862c-0.782,0.816-0.583,2.238-1.093,2.802
		c-0.514,0.562-1.809,0.635-2.586,1.519c-0.469,0.536-0.732,1.294-0.613,2.047c0,0,0.029,0.235,0.029,0.239
		C154.8,173.062,154.867,175.083,154.389,177.275z M163.409,176.116c-0.028-0.026-0.06-0.021-0.081-0.018
		c-0.082,0.018-0.182,0.025-0.264,0.015c-0.375-0.049-0.717-0.073-1.096-0.12c0.072-0.228,0.085-0.642-0.213-0.915
		c-0.305-0.279-0.708-0.136-0.959,0.155c-0.107,0.125-0.206,0.266-0.313,0.393c-0.062,0.074-0.202,0.22-0.259,0.268
		c-0.043,0.037-0.094,0.072-0.129,0.114c-0.043,0.048-0.059,0.102-0.005,0.151c0.056,0.05,0.099,0.016,0.163-0.056
		c0.109-0.113,0.131-0.096,0.229-0.005l1.668,1.536l0.253-0.373l-0.761-0.698l0.033-0.039c0.048-0.056,0.071-0.082,0.102-0.139
		l0.844,0.091c0.277,0.035,0.486,0.104,0.703-0.148C163.379,176.266,163.437,176.142,163.409,176.116z M161.498,175.476
		c0.206,0.186,0.43,0.475,0.082,0.881c-0.033,0.039-0.053,0.057-0.076,0.078l-0.787-0.722c-0.03-0.026-0.043-0.05,0-0.1l0.087-0.099
		C161.066,175.209,161.272,175.268,161.498,175.476z M141.516,171.351c-0.059-0.172-0.107-0.473-0.029-0.777l0.263,0.021
		c-0.095,0.244-0.082,0.548-0.038,0.685c0.107,0.323,0.336,0.499,0.613,0.401c0.137-0.05,0.18-0.207,0.209-0.378
		c0.053-0.264,0.052-0.542,0.156-0.789c0.076-0.197,0.199-0.378,0.477-0.477c0.383-0.137,0.753,0.157,0.9,0.596
		c0.047,0.146,0.081,0.336,0.117,0.584c-0.173,0.072-0.303,0.119-0.406,0.154c-0.053,0.021-0.112,0.036-0.139-0.048
		c-0.017-0.056-0.008-0.102,0.168-0.203c0.074-0.044,0.131-0.178,0.045-0.437c-0.092-0.28-0.285-0.457-0.549-0.364
		c-0.182,0.064-0.209,0.504-0.225,0.673c-0.018,0.19-0.043,0.406-0.131,0.585c-0.079,0.166-0.223,0.307-0.434,0.382
		C142.06,172.121,141.668,171.811,141.516,171.351z M145.225,173.706c-0.023,0.003-0.05,0-0.135,0.008l-0.053-0.181l-0.338-0.707
		l-2.083,1.057l-0.231-0.381l2.122-1.079c-0.091-0.206-0.269-0.568-0.269-0.568c-0.102-0.211-0.13-0.135-0.276-0.092
		c-0.067,0.02-0.138,0.027-0.163-0.021c-0.034-0.076-0.004-0.106,0.064-0.142c0.082-0.042,0.186-0.092,0.289-0.139
		c0.122-0.059,0.16,0,0.199,0.096c0.048,0.108,0.09,0.203,0.155,0.358c0.198,0.456,0.423,0.909,0.638,1.358
		c0.04,0.084,0.101,0.157,0.151,0.23c0.015,0.025,0.03,0.041,0.039,0.06c0.009,0.021,0.031,0.092-0.038,0.127
		C145.262,173.709,145.258,173.707,145.225,173.706z M146.812,175.995c-0.04-0.04-0.104-0.048-0.179-0.026l-2.343,0.66l-0.208-0.222
		c0.507-0.908,0.83-1.505,1.262-2.244c0.034-0.057,0.063-0.087,0.024-0.149c-0.078-0.109-0.068-0.144-0.025-0.179
		c0.049-0.041,0.109-0.028,0.15,0.039c0.053,0.099,0.16,0.251,0.213,0.334c0.064,0.103,0.021,0.184-0.029,0.27l-1.08,1.809
		l1.908-0.551c0.12-0.038-0.121-0.264-0.023-0.343c0.05-0.037,0.096-0.015,0.144,0.055c0.056,0.093,0.116,0.189,0.169,0.262
		c0.053,0.068,0.102,0.122,0.173,0.204c0.055,0.063,0.052,0.124,0.003,0.162C146.941,176.099,146.91,176.088,146.812,175.995z
		 M148.456,178.844c0.462-0.611,0.298-1.394-0.327-1.895c-0.155-0.123-0.259-0.201-0.35-0.269c-0.074-0.053-0.15-0.107-0.221-0.165
		c-0.076-0.06-0.171-0.146-0.215-0.201c-0.039-0.041-0.077-0.091-0.121-0.125c-0.048-0.039-0.109-0.041-0.15,0.013
		c-0.049,0.063,0.008,0.104,0.072,0.163c0.117,0.104,0.096,0.122,0.017,0.23l-1.39,1.843c0.207,0.142,0.336,0.226,0.506,0.399
		c0.076,0.077,0.143,0.15,0.193,0.19C147.186,179.602,147.961,179.5,148.456,178.844z M148.051,178.592
		c-0.4,0.53-0.907,0.744-1.447,0.311c-0.143-0.115-0.244-0.208-0.314-0.304c-0.043-0.06-0.038-0.065,0.022-0.147l1.208-1.598
		c0.054-0.074,0.087-0.074,0.147-0.022l0.265,0.211C148.607,177.584,148.402,178.121,148.051,178.592z M149.912,178.387
		c-0.057-0.02-0.074,0.049-0.098,0.097l-0.992,2.021l-0.404-0.171l1.007-2.053c0.067-0.133,0.059-0.107-0.049-0.188
		c-0.048-0.036-0.12-0.069-0.086-0.133c0.03-0.065,0.086-0.075,0.158-0.036c0.089,0.057,0.239,0.147,0.315,0.187
		c0.076,0.042,0.209,0.1,0.308,0.141c0.073,0.031,0.099,0.086,0.068,0.15C150.115,178.451,150.051,178.435,149.912,178.387z
		 M152.865,179.172c-0.061,0.009-0.111,0.04-0.156,0.105l-1.46,2.069l-0.3-0.039c-0.152-1.037-0.264-1.68-0.375-2.539
		c-0.008-0.062-0.003-0.105-0.072-0.128c-0.127-0.037-0.141-0.071-0.13-0.126c0.016-0.062,0.071-0.092,0.144-0.063
		c0.102,0.041,0.277,0.09,0.366,0.123c0.11,0.039,0.128,0.13,0.142,0.229l0.257,2.077l1.153-1.662
		c0.072-0.105-0.254-0.126-0.225-0.251c0.017-0.062,0.064-0.073,0.143-0.049c0.1,0.033,0.498,0.066,0.607,0.066
		c0.081,0.002,0.117,0.03,0.107,0.103C153.059,179.14,153.008,179.155,152.865,179.172z M156.326,178.687
		c-0.146,0.071-0.156,0.116-0.104,0.312c0.06,0.236,0.57,2.164,0.57,2.164l-0.462,0.12l-0.504-1.971l-0.511,1.966l-0.211,0.071
		l-1.161-1.722l0.133,1.967l-0.406,0.115l-0.146-2.246c-0.016-0.229-0.049-0.281-0.186-0.292c-0.111-0.011-0.162-0.041-0.17-0.101
		c-0.014-0.095,0.066-0.111,0.107-0.113c0.111-0.001,0.4,0.012,0.494,0.007c0.082-0.005,0.125,0.008,0.189,0.102l1.197,1.821
		l0.54-2.08c0.029-0.102,0.094-0.151,0.169-0.173c0.098-0.024,0.336-0.115,0.438-0.143c0.04-0.011,0.14-0.018,0.152,0.071
		C156.465,178.629,156.422,178.641,156.326,178.687z M160.025,176.464c-0.047,0.092-0.035,0.221-0.017,0.298l0.51,2.346l-0.229,0.2
		c-0.842-0.584-1.402-0.901-2.088-1.397c-0.052-0.037-0.078-0.071-0.139-0.032c-0.113,0.07-0.147,0.061-0.178,0.012
		c-0.035-0.054-0.02-0.114,0.049-0.15c0.098-0.05,0.254-0.148,0.336-0.196c0.104-0.059,0.178-0.009,0.26,0.048l1.682,1.178
		l-0.443-1.975c-0.027-0.127-0.263,0.106-0.33,0.003c-0.034-0.057-0.008-0.099,0.061-0.143c0.125-0.083,0.337-0.303,0.45-0.439
		c0.055-0.062,0.124-0.044,0.159,0.009C160.127,176.257,160.086,176.343,160.025,176.464z M164.166,173.55
		c-0.354-0.229-0.676-0.089-0.919,0.169c0.021-0.264-0.082-0.482-0.319-0.636c-0.268-0.172-0.67-0.036-0.896,0.338
		c-0.077,0.124-0.133,0.255-0.211,0.381c-0.05,0.084-0.142,0.22-0.19,0.274c-0.039,0.045-0.08,0.087-0.108,0.134
		c-0.037,0.061-0.021,0.126,0.032,0.16c0.045,0.027,0.068,0.018,0.142-0.096c0.09-0.132,0.111-0.111,0.221-0.041l0.085,0.056
		l1.839,1.185c0,0,0.157-0.305,0.194-0.365c0.078-0.121,0.158-0.173,0.238-0.31C164.549,174.349,164.549,173.798,164.166,173.55z
		 M162.768,173.508c0.211,0.137,0.354,0.327,0.151,0.66l-0.079,0.133l-0.726-0.47c-0.056-0.037-0.076-0.048-0.046-0.1l0.035-0.062
		C162.259,173.416,162.512,173.343,162.768,173.508z M163.967,173.951c0.254,0.161,0.354,0.437,0.189,0.708
		c-0.064,0.11-0.149,0.212-0.232,0.296c-0.024,0.024-0.025,0.025-0.049,0.011l-0.881-0.568l0.072-0.118
		C163.35,173.812,163.669,173.76,163.967,173.951z M163.076,171.786c-0.017,0.061,0.051,0.077,0.098,0.1l2.02,0.971l-0.151,0.423
		l-2.056-0.988c-0.13-0.062-0.102-0.057-0.18,0.059c-0.031,0.052-0.061,0.126-0.126,0.094c-0.063-0.031-0.077-0.088-0.038-0.162
		c0.053-0.094,0.133-0.251,0.17-0.33c0.036-0.084,0.09-0.221,0.126-0.322c0.03-0.08,0.082-0.105,0.144-0.076
		C163.131,171.577,163.117,171.642,163.076,171.786z M165.844,171.271c-0.055,0.173-0.189,0.442-0.432,0.637l-0.193-0.177
		c0.215-0.141,0.383-0.388,0.428-0.526c0.102-0.323,0.025-0.606-0.256-0.7c-0.139-0.047-0.266,0.055-0.389,0.172
		c-0.194,0.18-0.354,0.4-0.583,0.534c-0.177,0.108-0.378,0.178-0.659,0.085c-0.385-0.131-0.51-0.594-0.371-1.035
		c0.048-0.146,0.129-0.317,0.247-0.541c0.181,0.05,0.31,0.093,0.413,0.129c0.057,0.019,0.109,0.042,0.084,0.126
		c-0.018,0.054-0.051,0.087-0.252,0.059c-0.086-0.016-0.208,0.058-0.293,0.319c-0.087,0.281-0.036,0.544,0.227,0.633
		c0.187,0.062,0.463-0.273,0.572-0.398c0.125-0.14,0.271-0.298,0.447-0.386c0.159-0.084,0.357-0.108,0.566-0.037
		C165.858,170.316,165.99,170.809,165.844,171.271z"/>
</g>
<g>
	<g>
		<defs>
			<rect id="SVGID_1_" x="17.716" y="25.316" width="45.829" height="50.701"/>
		</defs>
		<clipPath id="SVGID_2_">
			<use xlink:href="#SVGID_1_"  overflow="visible"/>
		</clipPath>
		<path clip-path="url(#SVGID_2_)" fill="#0081C0" d="M23.618,69.893c-0.074-0.239-0.294-0.777-0.354-1.173
			c-0.131-0.879,0.328-1.458,0.75-1.59c0.474-0.133,0.659,0.105,0.841,0.657c0.237,0.842,0.264,1.945,0.184,3.523
			c-0.104,2.155-1.183,4.76-3.865,4.706c-2.314-0.051-3.338-1.55-3.445-3.838c-0.051-1.079,0.026-2.155,0.474-3.681
			c0.236-0.816,0.448-1.106,1.184-1.263c0.578-0.105,0.526,0.499,0.395,1.21c-0.288,1.578-0.422,2.339-0.316,4.128
			c0.104,1.894,0.974,2.63,1.92,2.63c1.42,0.027,2.05-1.156,2.315-2.867C23.908,70.97,23.751,70.312,23.618,69.893z M53.896,71.76
			c0.554,0,0.712,0.653,0.58,1.05c-0.132,0.394-0.605,0.843-1.34,0.974C52.976,73.389,52.897,71.76,53.896,71.76z M43.616,72.65
			c0-0.445-0.238-0.813-0.525-0.813c-0.239,0-0.79,0.263-0.79,1.104c0,0.66,0.234,0.974,0.342,1.106
			C43.404,73.81,43.616,73.177,43.616,72.65z M35.437,67.287c-0.037-0.422-0.367-0.708-0.814-0.708c-0.5,0-0.969,0.523-0.92,1.182
			c0.032,0.433,0.289,0.79,0.791,0.79C35.07,68.551,35.49,67.894,35.437,67.287z M39.713,68.832
			c-0.045-0.735-0.224-1.067-0.618-1.04c-0.524,0.031-0.766,1.679-0.659,3.411c0.068,1.13,0.236,1.304,0.394,1.293
			C39.12,72.479,39.813,70.461,39.713,68.832z M57.157,71.601c-0.326,1.352-1.314,3.34-2.789,3.34c-0.341,0-0.946-0.132-0.946-0.474
			c0-0.369,2.315-0.42,2.315-2.183c0-0.656-0.604-1.579-1.499-1.579c-1.184,0-2.338,1.291-2.338,3.078
			c0,1.604,0.996,2.129,1.995,2.129c1.737,0,2.788-1.421,3.34-2.603c0.264,0.788,0.419,2.603,1.08,2.603
			c0.263,0,0.446-0.132,0.763-0.84c0.787-1.763,1.551-3.788,2.604-3.788c0.393,0,0.157,0.712,1.104,0.712
			c0.445,0,0.76-0.368,0.76-0.791c0-0.605-0.551-1.077-1.391-1.077c-2.473,0-2.996,3.708-3.393,3.708
			c-0.657,0-0.446-2.972-0.921-2.972C57.42,70.864,57.212,71.365,57.157,71.601z M36.121,74.755c0.394,0,1.072-0.128,1.605-0.981
			c-0.305-0.678-0.523-2.047-0.553-2.545c-0.156-2.549,0.825-4.947,1.9-5.014c0.788-0.048,1.419,0.698,1.491,1.907
			c0.194,3.177-0.864,4.503-1.394,5.646c0.089,0.443,0.841,1.198,1.551,1.198c0.262,0,0.58-0.132,0.659-0.238
			c-0.053-0.183-0.106-0.419-0.106-0.762c0-1.841,1.184-3.393,2.209-3.393c0.815,0,1.289,1.077,1.289,1.789
			c0,0.84-0.71,1.525-1.762,2.183c0.185,0.183,0.525,0.315,0.815,0.315c1.5,0,2.286-1.814,2.866-3.472
			c0.104-0.316,0.29-0.763,0.657-0.763c0.631,0,0.896,4.155,1.944,4.155c0.448,0,0.815-0.922,0.815-1.63
			c0-0.526-0.184-0.579-0.184-1.342c0-0.841,0.447-1.551,1.053-1.551c0.368,0,0.501,0.367,0.501,0.813
			c0,1.683-1.211,4.813-2.997,4.813c-1.343,0-1.239-2.314-1.711-2.314c-0.528,0-1.264,2.34-3.865,2.34
			c-0.423,0-0.869-0.21-1.236-0.632c-0.63,0.422-1.158,0.606-1.763,0.606c-0.971,0-1.393-1-1.788-1
			c-0.473,0-0.998,1.025-2.577,1.025c-1.262,0-1.473-1.681-1.918-1.681c-0.396,0-1,1.681-1.657,1.681
			c-1.106,0-1.341-2.918-2.315-2.918c-0.762,0-3.171,2.965-3.826,2.896c-0.263-0.027-0.374-0.225-0.346-0.486
			c0.037-0.364,0.351-1.338,0.478-1.799c0.213-0.8,0.408-1.676,0.517-1.955c0.108-0.283,0.4-0.483,0.634-0.462
			c0.119,0.012,0.154,0.23,0.19,0.413c0.133,0.65,0.318,1.313,0.527,1.313c0.37,0,1.59-2.341,2.298-2.341
			c0.87,0,0.974,3.682,2.157,3.682c0.395,0,0.686-0.473,0.947-1.053c0.027-0.974,0.29-2.364,1.079-2.364
			c0.553,0,0.815,1.234,0.42,2.313C34.728,74.439,35.567,74.755,36.121,74.755"/>
	</g>
	<path fill="#0081C0" d="M54.437,33.52c-0.195,0-0.475,0-0.629-0.307c-0.125-0.251-0.083-0.656-0.32-0.837
		c0.237,0.068,0.488,0.068,0.684,0.068c0.628,0,1.229-0.432,1.69-0.432c0.304,0,0.402,0.196,0.402,0.391
		C56.264,33.018,55.024,33.52,54.437,33.52z M54.744,35.097c1.45,0,2.777-1.158,2.777-2.177c0-0.476-0.225-0.865-0.797-0.935
		c0.098,0.125,0.14,0.224,0.14,0.446c0,0.768-1.17,1.618-2.441,1.618c-0.461,0-0.601,0.32-0.601,0.488
		C53.822,34.93,54.2,35.097,54.744,35.097z M54.632,35.683c0.182,1.325,2.19,3.111,2.734,3.069c0.364-0.03,0.503-1.73,0.503-3.069
		c0-0.768,0.042-1.367-0.363-1.508C56.864,35.474,55.177,35.738,54.632,35.683"/>
	<path fill="#0081C0" d="M23.226,44.46c0.474,0,0.376-2.904,1.143-2.904c0.182,0,0.237,0.183,0.237,0.405
		c0,0.656-0.321,1.619-0.321,2.148c0,0.266,0.07,0.351,0.195,0.351c0.336,0,0.922-3.197,1.493-3.197
		c0.181,0,0.265,0.182,0.265,0.364c0,0.669-0.85,2.595-0.85,3.139c0,0.084,0.027,0.153,0.097,0.153c0.349,0,1.047-1.507,1.27-2.26
		c0.126-0.392,0.293-0.601,0.447-0.601c0.14,0,0.266,0.153,0.266,0.475c0,0.754-0.698,2.525-1.312,3.712
		c-0.474,0.921-1.213,2.245-1.213,2.984c0,0.378,0.069,0.768,0.614,1.242c-0.893-0.056-1.256-0.139-1.59-0.837
		c-1.493,2.973,2.749,2.68,1.297,5.315c-0.266-0.474-2.357-0.962-2.357-3.725c0-2.386,2.092-3.781,2.092-4.771
		c0-0.195-0.068-0.362-0.25-0.516c-0.461-0.392-0.475-0.712-0.837-0.712c-0.265,0-0.587,0.613-0.251,1.157
		c0.112,0.182,0.209,0.293,0.209,0.461c0,0.391-0.615,1.436-1.046,1.436c-0.433,0-0.767-1.072-0.767-2.804
		c0-1.535,0.349-3.083,0.781-3.083c0.125,0,0.166,0.084,0.166,0.195c0,0.182-0.055,0.544-0.055,1.157
		C22.946,44.402,23.1,44.46,23.226,44.46"/>
	<path fill="#0081C0" d="M26.783,48.547c0.587,0,1.075-0.434,1.075-1.395v-1.424c0-0.545,0.042-1.157,0.405-1.591
		c-0.042,0.182-0.042,0.376-0.042,0.559c0,1.199,0.67,2.022,0.67,3.181c0,0.432-0.126,0.67-0.46,0.67
		c-0.321,0-0.293-0.294-0.363-0.294c-0.056,0-0.139,0.182-0.139,0.377c0,0.294,0.209,0.754,0.795,0.754
		c0.502,0,0.907-0.46,0.907-0.977c0-1.255-0.977-2.651-0.977-3.99c0-0.586,0.154-0.977,0.279-1.284c0,2.777,2.358,4.8,2.358,5.958
		c0,0.265-0.195,0.475-0.488,0.475c-0.321,0-0.475-0.252-0.475-0.447c0-0.099-0.014-0.126-0.056-0.126
		c-0.083,0-0.334,0.279-0.334,0.643c0,0.461,0.376,1.019,1.074,1.019c0.795,0,1.228-0.67,1.228-1.27
		c0-1.465-2.861-3.684-2.861-6.055c0-0.405,0.07-1.062,0.363-1.563c-1.842,1.186-2.414,2.763-2.414,4.145
		c0,1.2-0.042,1.799-0.656,1.799c-0.321,0-0.405-0.292-0.517-0.292c-0.083,0-0.125,0.251-0.125,0.32
		C26.03,48.253,26.407,48.547,26.783,48.547"/>
	<path fill="#0081C0" d="M47.922,32.836c0.177-0.119,0.963,0.069,1.981-0.433c0.125-0.069,0.251-0.098,0.362-0.098
		c0.489,0,0.364,0.559,0.811,0.559c0.348,0,0.795-0.293,1.061-0.293c0.415,0,1.016,1.312,1.016,1.926
		c0,0.711-1.072,1.144-2.342,1.144c-1.855,0-2.973-1.618-2.973-2.665C47.838,32.892,47.88,32.864,47.922,32.836z M50.964,34.608
		c0.615,0,1.075-0.279,1.075-0.446c0-0.056-0.083-0.099-0.265-0.099c-0.181,0-0.544-0.014-1.229-0.125
		c-0.587-0.098-1.033-0.321-1.201-0.321c-0.057,0-0.084,0.028-0.084,0.07C49.26,34.05,49.93,34.608,50.964,34.608"/>
	<path fill="#0081C0" d="M27.077,53.807c-0.46,0.112-1.2,0.837-1.2,1.982c0,1.366,1.465,3.474,3.879,3.474
		c2.037,0,2.539-1.409,2.539-2.358c0-2.106-1.296-3.586-2.985-3.586c-0.921,0-1.744,0.67-1.744,1.659
		c0,0.922,0.697,2.304,2.357,2.304c0.781,0,1.241-0.56,1.241-1.199c0-0.628-0.571-1.493-1.409-1.493
		c-0.251,0-0.432,0.166-0.432,0.433c0,0.333,0.459,0.67,1.032,0.67c0.139,0,0.251-0.029,0.307-0.057
		c0.028,0.042,0.042,0.111,0.042,0.167c0,0.321-0.307,0.517-0.781,0.517c-0.711,0-1.396-0.529-1.396-1.368
		c0-0.501,0.433-0.864,1.061-0.864c1.242,0,1.981,1.103,1.981,2.205c0,0.99-0.543,1.562-1.659,1.562
		C27.676,57.854,26.588,55.845,27.077,53.807"/>
	<path fill="#0081C0" d="M43.003,61.981c0.669,0,0.635-0.056,0.844-0.056s0.224,0.126,0.224,0.21c0,0.307-0.685,0.684-1.898,0.684
		c-0.711,0-1.144-0.377-1.27-0.795c-0.697,0.446-1.757,0.852-2.805,0.852c-2.859,0-3.585-1.243-4.479-1.647
		c-0.684-0.307-1.729,0.294-3.195-1.339c0.195,0.042,0.461,0.056,0.67,0.056c1.283,0,1.967-0.626,1.967-1.632
		c0-0.126-0.014-0.265-0.028-0.39c0.391,0.153,1.284,0.822,1.494,2.008c0.027,0.14,0.599,0.266,0.961,0.266
		c0.503,0,1.145-0.21,1.242-1.032c1.675-0.139,2.805-1.13,3.042-2.387c0.599,0.196,1.283,0.74,1.451,1.02
		c0.237-0.084,0.516-0.125,0.837-0.125c0.446,0,0.949,0.083,1.548,0.265c0.029-0.182,0.056-0.404,0.336-0.404
		c0.418,0,0.306,0.46,0.446,0.724c0.07,0.14,0.419,0.224,0.419,0.503c0,0.267-0.225,0.363-0.363,0.363
		c-0.056,0-0.125-0.014-0.168-0.027c-0.279,0.098-0.292,2.105-1.464,2.105c-0.865,0-1.66-0.711-2.01-1.604
		c-0.098-0.266-0.307-0.433-0.502-0.433c-0.223,0-0.349,0.042-0.613,0.335c-0.753,0.823-2.009,1.534-3.558,1.534
		c-0.475,0-0.852-0.043-0.949-0.043c-0.056,0-0.056,0.015-0.056,0.028c0,0.098,0.474,0.475,1.507,0.475
		c2.456,0,3.056-1.382,3.446-1.382c0.057,0,0.223,0,0.321,0.225C40.973,61.675,42.223,61.981,43.003,61.981z M41.922,59.193
		c0,0.307,0.251,0.559,0.559,0.559c0.307,0,0.558-0.252,0.558-0.559c0-0.308-0.251-0.559-0.558-0.559
		C42.173,58.635,41.922,58.886,41.922,59.193"/>
	<path fill="#0081C0" d="M52.972,52.23c-0.195,0-0.405,0.153-0.405,0.531c0,0.417,0.321,0.683,0.502,0.766
		c0.098,0.057,0.252,0.112,0.404,0.112c0.405,0,0.727-0.112,0.727-0.448C54.2,52.762,53.571,52.23,52.972,52.23z M51.466,53.095
		c-0.293,0-1.913,2.162-2.958,2.162c-0.251,0-0.461-0.474-0.461-0.835c0-0.195,0.125-0.336,0.573-0.434
		c2.399-0.544,1.869-2.345,3.918-2.345c1.13,0,2.387,0.769,2.387,2.498c0,1.842-2.622,4.129-3.012,4.129
		c-0.321,0-0.67-0.459-0.67-0.766c0-0.098,0.042-0.224,0.321-0.335c1.337-0.531,2.105-1.759,2.105-2.387
		c0-0.14-0.07-0.278-0.251-0.278c-0.237,0-1.253,2.315-2.385,2.315c-0.782,0-1.578-0.71-1.578-1.046
		c0-0.559,2.263-1.591,2.263-2.373C51.718,53.107,51.579,53.095,51.466,53.095"/>
	<path fill="#0081C0" d="M23.854,34.804c0,0-0.405,0.307-0.907,0.307c-0.599,0-1.074-0.446-1.074-1.074
		c0-0.433,0.224-0.879,0.739-1.103c-0.013,0.084-0.013,0.154-0.013,0.237C22.598,33.967,23.044,34.566,23.854,34.804z
		 M26.839,37.482c-0.306,0.362-0.627,0.977-0.627,1.605c0,0.752,0.46,1.38,1.172,1.38c0.684,0,1.005-0.586,1.005-1.186
		C28.389,38.348,27.538,37.691,26.839,37.482z M22.208,38.04c-0.026,0.044-0.042,0.098-0.042,0.154c0,0.126,0.139,0.265,0.264,0.265
		c0.111,0,0.181-0.027,0.237-0.027c0.334,0,0.711,0.237,1.256,0.237c0.32,0,0.697-0.099,1.171-0.335
		c1.005-0.503,1.396-1.744,1.396-1.954c0-0.266-0.213-0.23-0.392-0.474c-0.178-0.244-0.11-0.459-0.223-0.573
		c-0.065-0.064-0.265-0.069-0.517-0.098c-0.084-0.009-0.196-0.014-0.307-0.014c-0.46,0-1.006,0.057-1.619,0.447
		C22.224,36.441,22.403,37.72,22.208,38.04z M25.486,36.311c0.097,0.132,0.363,0.294,0.363,0.391c0,0.194-0.112,0.447-0.335,0.447
		c-0.489,0-0.879-0.74-0.879-1.159c0-0.265,0.153-0.292,0.362-0.292c0.098,0,0.14,0.014,0.21,0.056
		C25.332,35.822,25.332,36.102,25.486,36.311z M24.202,38.013c-0.46,0-0.962-0.571-0.962-1.089c0-0.278,0.209-0.628,0.362-0.628
		c0.056,0,0.084,0.043,0.098,0.141c0.083,0.683,0.531,1.074,0.949,1.269c0.042,0.028,0.069,0.042,0.069,0.07
		C24.718,37.873,24.453,38.013,24.202,38.013z M25.389,34.497c0.069-0.224,0.125-0.502,0.125-0.81c0-0.67-0.307-1.688-1.256-1.688
		c-0.543,0-0.936,0.433-0.936,0.949C23.322,34.05,24.425,34.497,25.389,34.497z M21.774,40.077c0,1.06,0.322,1.562,0.893,1.562
		c0.447,0,1.046-0.32,1.757-0.935c-0.543,0.126-0.962,0.21-1.339,0.21C22.584,40.915,22.193,40.72,21.774,40.077z M22.264,38.836
		c-0.014,0.069-0.014,0.14-0.014,0.209c0,0.655,0.348,1.019,0.809,1.019c0.348,0,0.753-0.209,1.115-0.67
		c-0.153,0.026-0.334,0.041-0.501,0.041C23.156,39.435,22.598,39.296,22.264,38.836z M25.681,38.64
		c-0.321,0.084-0.991,0.475-0.991,1.172c0,0.503,0.39,0.824,0.879,0.824c0.251,0,0.432-0.056,0.544-0.14
		c-0.391-0.377-0.53-0.796-0.53-1.214C25.584,38.989,25.625,38.808,25.681,38.64z M26.184,34.817c0,0.307,0.251,0.558,0.558,0.558
		c0.307,0,0.559-0.251,0.559-0.558s-0.251-0.559-0.559-0.559C26.435,34.259,26.184,34.511,26.184,34.817z M26.909,36.072
		c0,0.308,0.251,0.559,0.559,0.559c0.307,0,0.558-0.251,0.558-0.559c0-0.306-0.251-0.557-0.558-0.557
		C27.16,35.516,26.909,35.767,26.909,36.072"/>
	<path fill="#0081C0" d="M48.677,42.924c0-0.279,0.251-0.517,0.526-0.517c0.308,0,0.545,0.237,0.545,0.517
		c0,0.32-0.237,0.545-0.545,0.545C48.928,43.469,48.677,43.244,48.677,42.924z M43.778,38.626c0,0.307,0.251,0.559,0.558,0.559
		c0.308,0,0.559-0.252,0.559-0.559c0-0.306-0.251-0.558-0.559-0.558C44.029,38.068,43.778,38.32,43.778,38.626z M43.304,40.593
		c0,0.434,0.361,0.796,0.795,0.796c0.432,0,0.795-0.362,0.795-0.796c0-0.432-0.363-0.794-0.795-0.794
		C43.666,39.799,43.304,40.161,43.304,40.593z M45.062,39.7c0,0.476,0.377,0.852,0.849,0.852c0.474,0,0.852-0.376,0.852-0.852
		c0-0.475-0.378-0.851-0.852-0.851C45.439,38.85,45.062,39.226,45.062,39.7z M45.133,37.887c0,0.293,0.237,0.531,0.528,0.531
		c0.292,0,0.53-0.238,0.53-0.531s-0.238-0.529-0.53-0.529C45.37,37.357,45.133,37.594,45.133,37.887z M47.657,36.548
		c0,0.293,0.238,0.529,0.531,0.529c0.293,0,0.531-0.236,0.531-0.529s-0.238-0.53-0.531-0.53
		C47.895,36.018,47.657,36.255,47.657,36.548z M46.61,38.264c0,0.488,0.405,0.893,0.893,0.893c0.489,0,0.894-0.404,0.894-0.893
		s-0.405-0.893-0.894-0.893C47.015,37.371,46.61,37.775,46.61,38.264z M45.174,41.528c0,0.307,0.251,0.559,0.556,0.559
		c0.307,0,0.558-0.252,0.558-0.559s-0.251-0.558-0.558-0.558C45.425,40.971,45.174,41.222,45.174,41.528z M47,40.412
		c0,0.308,0.251,0.559,0.559,0.559c0.307,0,0.558-0.251,0.558-0.559c0-0.307-0.251-0.558-0.558-0.558
		C47.251,39.854,47,40.105,47,40.412z M46.484,42.379c0,0.531,0.432,0.964,0.963,0.964s0.964-0.433,0.964-0.964
		c0-0.529-0.434-0.962-0.964-0.962S46.484,41.85,46.484,42.379z M48.495,41.193c0,0.362,0.293,0.656,0.654,0.656
		c0.363,0,0.656-0.294,0.656-0.656s-0.293-0.656-0.656-0.656C48.788,40.537,48.495,40.831,48.495,41.193z M48.453,39.435
		c0,0.322,0.266,0.587,0.583,0.587c0.322,0,0.587-0.265,0.587-0.587c0-0.32-0.266-0.585-0.587-0.585
		C48.719,38.85,48.453,39.114,48.453,39.435"/>
	<path fill="#0081C0" d="M49.874,57.742c-0.362,0.279-1.211,0.906-2.623,0.906c-0.753,0-1.088-0.237-1.201-0.237
		c-0.14,0-0.293,0.139-0.447,0.321c-0.332,0.391-0.765,1.117-0.765,1.911c0,0.558,0.433,1.115,1.239,1.115
		c2.612,0,4.563-1.632,4.563-2.957C50.642,58.049,50.196,57.742,49.874,57.742z M49.148,57.589c0.113-0.096,0.139-0.251,0.139-0.405
		v-0.32c0-0.406-0.61-0.642-1.45-0.642c-1.019,0-1.563,0.459-1.563,0.655v0.642c0,0.266,0.615,0.53,1.369,0.53
		C48.244,58.049,48.788,57.896,49.148,57.589z M49.036,58.97c0.07,0,0.153,0.041,0.153,0.293c0,0.307-0.139,0.711-0.639,1.031
		c-0.349,0.238-0.824,0.434-1.522,0.446c0.112-0.334,0.196-0.684,0.196-1.017c0-0.111-0.014-0.195-0.028-0.321h0.181
		C48.481,59.402,48.956,58.97,49.036,58.97"/>
	<path fill="#0081C0" d="M43.708,41.92c0.153,1.186,1.746,0.586,1.746,2.021c0,0.21-0.056,0.519-0.056,0.782
		c0,0.308,0.028,0.572,0.263,0.572c0.236,0,0.292-0.168,0.292-0.391c0-0.224-0.056-0.503-0.056-0.656c0-0.488,0.35-0.6,0.56-0.6
		c0.53,0,0.935,0.544,1.731,0.544c-0.181,0.894-2.024,0.656-2.024,1.633c0,0.489,0.489,0.6,0.81,0.6
		c0.293,0,0.391-0.042,0.391-0.292c0-0.141-0.028-0.294-0.028-0.392c0-0.057,0.042-0.112,0.112-0.112
		c0.308,0,1.812,1.145,1.812,1.494c0,0.32-1.588,0.642-2.049,0.642c-0.14,0-0.167-0.098-0.167-0.153
		c0-0.099,0.237-0.391,0.237-0.559c0-0.125-0.209-0.209-0.768-0.209c-0.266,0-0.461,0.028-0.461,0.237
		c0,0.376,0.614,0.837,0.614,1.186c0,0.279-0.167,0.446-0.614,0.446c-0.377,0-0.947-0.294-0.947-0.781
		c0-0.391,0.403-0.78,0.403-1.019c0-0.069-0.053-0.182-0.22-0.182c-0.518,0-0.657,1.367-2.486,1.521
		c0.293-0.265,0.544-0.558,0.544-1.156c0-0.293-0.069-0.531-0.069-0.852c0-0.419,0.195-0.628,0.475-0.628
		c0.515,0,0.767,0.724,1.103,0.724c0.182,0,0.376-0.166,0.376-0.417c0-1.061-2.038-0.907-2.038-2.399
		C43.192,43.119,43.331,42.617,43.708,41.92z M50.363,46.008c0,0.348,0.112,0.753,0.461,0.753c0.292,0,0.544-0.445,0.544-0.935
		c0-0.558-0.098-0.99-0.098-1.215c0-0.098,0.042-0.139,0.098-0.139c0.21,0.014,0.405,0.586,0.628,0.586
		c0.251,0,0.626-0.462,0.779-0.462c0.042,0,0.056,0.058,0.056,0.07c0,0.21-0.321,0.671-0.321,0.852c0,0.154,0.81,0.182,0.81,0.321
		c0,0.21-0.849,0.21-1.254,0.391c-0.39,0.168-0.629,0.376-0.629,0.656c0,0.279,0.28,0.335,0.671,0.335
		c0.933,0,1.588-0.503,1.797-0.503c0.042,0,0.07,0.028,0.07,0.07c0,0.14-0.475,0.6-0.475,0.81c0,0.236,0.866,0.515,0.852,0.654
		c-0.014,0.043-0.07,0.056-0.167,0.056c-0.155,0-0.392-0.041-0.573-0.041c-0.111,0-0.209,0.013-0.252,0.069
		c-0.096,0.111,0.029,0.852-0.166,0.852c-0.182,0-0.657-1.646-1.729-1.646c-0.153,0-0.265,0.126-0.265,0.335
		c0,0.558,0.545,1.199,1.062,1.507c0.234,0.153,0.625,0.307,0.625,0.392c0,0.166-0.891,0.014-0.891,0.292
		c0,0.251,0.112,0.629,0.112,0.852c0,0.069-0.014,0.152-0.098,0.152c-0.167,0-0.573-0.768-0.768-0.768
		c-0.167,0-0.531,0.461-0.685,0.461c-0.042,0-0.069-0.042-0.069-0.083c0-0.321,0.517-1.047,0.517-1.758
		c0-0.336-0.042-1.062-0.447-1.062c-0.335,0-0.712,0.53-0.88,1.062c-0.097,0.306-0.028,1.492-0.251,1.492
		c-0.21,0-0.154-0.795-0.434-0.795c-0.206,0-0.653,0.376-0.807,0.376c-0.028,0-0.056-0.014-0.056-0.041
		c0-0.167,0.405-0.712,0.405-0.823c0-0.209-0.922-0.237-0.922-0.404c0-0.099,0.363-0.168,0.698-0.224
		c0.71-0.126,1.756-0.643,1.756-1.367c0-0.81-0.782-1.158-1.295-1.494c-0.265-0.167-0.558-0.306-0.558-0.417
		c0-0.112,0.334-0.112,0.475-0.112c0.209,0,0.416-0.015,0.416-0.182c0-0.125-0.028-0.376-0.028-0.572
		c0-0.139,0.013-0.251,0.07-0.251c0.209,0,0.502,0.684,0.643,0.684c0.223,0,0.53-0.558,0.74-0.558c0.069,0,0.098,0.042,0.098,0.167
		C50.629,44.919,50.363,45.504,50.363,46.008"/>
	<path fill="#0081C0" d="M44.112,49.872c0.644,0.084,0.797,0.307,0.797,0.488c0,0.308-0.28,0.404-0.545,0.404
		c-0.195,0-0.418-0.042-0.656-0.042c-0.308,0-0.614,0.07-0.865,0.363c0.181,0.027,0.446,0.153,0.446,0.433
		c0,0.81-2.247,0.139-2.247,2.219c0,1.102,1.144,2.303,2.874,2.303c0.894,0,1.467-0.294,1.467-0.629
		c0-0.265-0.474-0.084-0.474-0.307c0-0.098,0.167-0.28,0.167-0.435c0-0.066-0.055-0.193-0.167-0.193
		c-0.252,0-0.727,0.403-1.69,0.403c-0.753,0-1.493-0.431-1.493-1.017c0-0.126,0.056-0.196,0.139-0.196
		c0.084,0,0.196,0.056,0.293,0.056c0.083,0,0.097-0.056,0.097-0.209s0-0.586,0.265-0.586c0.266,0,0.769,0.977,2.695,0.977
		c0.64,0,1.882-0.125,2.343-0.544c-0.014,1.534-1.215,3.558-3.726,3.558c-2.609,0-4.004-2.094-4.004-4.019
		c0-2.135,1.743-4.074,4.13-4.074c0.613,0,1.131,0.209,1.131,0.475C45.09,49.664,44.182,49.439,44.112,49.872z M48.397,50.612
		c0.098,0.152,0.14,0.307,0.14,0.446c0,0.391-0.265,0.753-0.265,1.158c0,0.46,0.349,0.836,0.877,0.836
		c0.572,0,0.963-0.459,0.963-1.005C50.112,51.309,49.442,50.682,48.397,50.612z M43.778,51.505c0.139,0.139,0.182,0.278,0.182,0.419
		c0,0.208-0.098,0.432-0.098,0.67c0,0.334,0.251,0.627,0.614,0.627c0.392,0,0.658-0.308,0.658-0.669
		C45.133,52.021,44.586,51.505,43.778,51.505z M45.632,49.133c1.466,0.278,2.262,1.382,2.262,2.413c0,0.713-0.447,1.367-1.229,1.367
		c-0.712,0-1.226-0.487-1.226-1.27c0-0.585,0.458-1.199,0.458-1.801C45.897,49.607,45.827,49.369,45.632,49.133z M46.358,50.988
		c0,0.195,0.14,0.35,0.335,0.35c0.223,0,0.363-0.196,0.363-0.419c0-0.293-0.266-0.698-0.517-0.698c-0.112,0-0.07,0.167-0.098,0.349
		C46.428,50.708,46.358,50.877,46.358,50.988"/>
	<path fill="#0081C0" d="M30.956,36.631c0.475,0,1.018-2.567,1.018-3c0-0.111-0.041-0.195-0.14-0.195
		c-0.432,0-1.032,2.442-1.032,2.987C30.802,36.521,30.83,36.631,30.956,36.631z M34.374,37.398c0.348,0,0.739-1.34,0.739-2.177
		c0-0.182-0.028-0.376-0.112-0.376c-0.293,0-0.782,1.381-0.782,2.134C34.22,37.273,34.29,37.398,34.374,37.398z M32.099,36.157
		c0.154,0,0.349-0.168,0.713-0.571c0.027-0.183,0.027-0.351,0.027-0.56c0-0.278-0.111-0.586-0.279-0.586
		c-0.42,0-0.627,1.116-0.627,1.41C31.933,36.018,32.016,36.157,32.099,36.157z M34.01,35.586c0-0.238-0.056-0.294-0.111-0.294
		c-0.14,0-0.292,0.168-0.516,0.544c0.027,0.503,0.111,0.726,0.251,0.726C33.788,36.562,34.01,36.072,34.01,35.586z M35.085,33.938
		c0.921,0,1.338,0.796,1.338,1.688c0,0.391-0.11,0.963-0.292,0.963c-0.182,0-0.154-0.321-0.182-0.614
		c-0.027-0.377-0.098-0.46-0.224-0.46c-0.237,0-0.39,0.557-0.39,1.074c0,0.32,0.056,0.684,0.306,0.684
		c0.14,0,0.266-0.071,0.35-0.154c-0.056,0.642-0.531,1.201-1.201,1.201c-1.228,0-1.688-1.438-1.827-2.274
		c-0.74,0.781-1.423,1.353-2.651,1.353c-1.143,0-1.66-0.837-1.66-1.632c0-0.238,0.083-0.852,0.377-0.852
		c0.348,0,0.042,1.144,0.725,1.144c0.167,0,0.474-0.14,0.642-0.599c0.097-0.28,0.153-0.572,0.153-0.824
		c0-0.377-0.083-0.613-0.363-0.613c-0.237,0-0.531,0.181-0.627,0.278c0.335-1.005,1.144-1.521,2.036-1.521
		c1.104,0,1.689,0.977,1.689,2.065c0,0.153-0.014,0.32-0.042,0.475C33.718,34.538,34.374,33.938,35.085,33.938"/>
	<path fill="#0081C0" d="M32.476,37.691c-0.6,0-0.627,0.727-0.627,2.19c-0.447-0.962-1.186-1.995-2.051-1.995
		c-0.585,0-0.809,0.392-0.809,1.073c0,0.141,0.014,0.35,0.042,0.475c0.07-0.236,0.293-0.334,0.572-0.334
		c0.601,0,1.325,0.46,1.8,1.089c-0.544-0.098-1.075-0.195-1.521-0.195c-0.279,0-0.531,0.027-0.74,0.125
		c-0.405,0.181-0.949,0.781-0.949,1.688c0,0.14,0.014,0.292,0.042,0.46c0.488-1.089,1.786-1.577,2.623-1.577
		c0.168,0,0.292,0.015,0.391,0.029c-0.433,0.39-0.53,1.073-0.558,1.534c-0.014,0.224-0.098,0.237-0.251,0.237
		c0,0.46,0.363,1.145,0.363,1.493c0,0.125-0.07,0.237-0.14,0.265c0,0.614,0.613,1.061,0.613,1.451c0,0.098-0.027,0.181-0.07,0.224
		c0.042,0.251,0.718,0.674,0.804,0.886c0.107,0.257,0.229,0.301,0.298,0.301c0.237,0,0.613-0.279,0.613-0.531
		c0-0.084-0.07-0.181-0.125-0.224c-0.265-0.194-0.405-0.613-0.516-0.892c-0.099,0-0.224-0.042-0.269-0.206
		c-0.076-0.289-0.08-0.827-0.192-1.148c-0.182-0.041-0.266-0.111-0.266-0.487c0-0.182,0.112-0.894,0.112-1.145
		c-0.083,0-0.195-0.056-0.195-0.224c0-0.446,0.447-0.795,0.572-1.367c0.795,0.586,0.99,1.186,0.99,1.716
		c0,0.279-0.042,0.544-0.098,0.796c0.586-0.293,1.465-0.726,1.465-1.605c0-0.517-0.237-1.088-1.813-1.311
		c0.488-0.183,1.102-0.279,1.618-0.279c0.893,0,1.409,0.279,1.521,0.906c0.182-0.278,0.322-0.601,0.322-0.893
		c0-0.685-0.573-1.129-1.298-1.129c-0.852,0-1.605,0.444-2.415,0.989c0.364-0.753,0.614-1.2,1.062-1.2
		c0.069,0,0.139,0.015,0.209,0.028C33.439,38.292,32.812,37.691,32.476,37.691"/>
	<path fill="#0081C0" d="M55.984,47.751c0.698,0,1.257,0.907,1.257,1.968c0,1.13-0.531,2.358-1.477,3.194
		c-0.014-1.883-2.319-1.283-2.319-2.65c0-0.586,0.42-0.977,0.923-0.977c0.446,0,0.795,0.125,1.047,0.378
		c-0.251-0.238-0.377-0.573-0.377-0.894C55.038,48.239,55.373,47.751,55.984,47.751"/>
	<path fill="#0081C0" d="M43.526,34.497c0.363,0.349,0.684,0.502,1.075,0.502c0.155,0,0.336-0.042,0.434-0.042
		c0.125,0,0.209,0.056,0.209,0.153c0,0.153-0.14,0.405-0.307,0.545c0.167,0.069,0.35,0.098,0.544,0.098c0.793,0,1.7-0.503,1.7-1.758
		c0.168,0.222,0.266,0.683,0.266,0.893c0,1.521-1.117,2.106-2.147,2.106c-0.67,0-1.006-0.224-1.09-0.224
		c-0.265,0-0.25,0.53-0.432,0.517c-0.321-0.056-0.613-0.767-0.613-1.521C43.165,35.32,43.275,34.846,43.526,34.497z M45.632,33.478
		c-0.111-0.182-0.528-0.278-0.723-0.278c-0.615,0-1.034,0.432-1.117,0.823c-0.056-0.14-0.098-0.308-0.098-0.475
		c0-0.614,0.418-1.367,1.439-1.367c0.89,0,1.239,0.474,1.365,0.474c0.139,0,0.279-0.14,0.392-0.14c0.153,0,0.153,0.237,0.153,0.405
		c0,0.558-0.252,1.521-0.88,1.87c-0.112-0.237-0.336-0.503-0.696-0.67c-0.097-0.042-0.139-0.125-0.139-0.21
		C45.328,33.757,45.467,33.562,45.632,33.478"/>
	<path fill="#0081C0" d="M33.829,30.436c0,0.489,1.744,2.875,2.079,2.875c0.28,0,0.488-0.488,0.488-0.907
		c0-0.111-0.028-0.223-0.083-0.307c-0.251-0.349-2.023-1.744-2.415-1.744C33.857,30.353,33.829,30.395,33.829,30.436z
		 M23.574,28.999c0,0.279-1.061,1.214-1.437,1.214c-0.139,0-0.182-0.167-0.182-0.32c0-0.279,0.126-0.67,0.28-0.796
		c0.181-0.168,0.6-0.25,0.921-0.25C23.351,28.847,23.574,28.887,23.574,28.999z M36.313,29.809c0-0.838-2.264-2.358-2.289-3.013
		c-0.002-0.061,0.031-0.12,0.081-0.174c0.388-0.409,1.998-0.707,1.998-1.056c0-0.181-0.335-0.181-0.503-0.181
		c-1.296,0-3.194,0.475-3.194,0.934c0,0.477,1.702,1.634,1.702,2.206c0,0.153-0.098,0.208-0.251,0.208
		c-0.474,0-1.506-0.572-1.995-0.572c-0.223,0-0.307,0.154-0.307,0.378c0,0.67,0.796,1.939,0.796,2.315
		c0,0.042-0.015,0.098-0.07,0.098c-0.251,0-1.437-1.395-1.856-1.395c-0.153,0-0.167,0.209-0.167,0.516v0.475
		c0,0.32-0.015,0.516-0.167,0.516c-0.364,0-0.531-1.018-0.879-1.018c-0.363,0-0.433,1.812-0.781,1.812
		c-0.405,0-0.056-1.994-0.447-1.994c-0.433,0-0.921,1.326-1.229,1.326c-0.111,0-0.139-0.112-0.139-0.211
		c0-0.404,0.236-1.059,0.236-1.449c0-0.196-0.056-0.308-0.223-0.308c-0.433,0-1.381,0.698-1.744,0.698
		c-0.056,0-0.126-0.028-0.126-0.085c0-0.334,1.521-1.395,1.521-1.869c0-0.46-2.094-0.152-2.094-0.684
		c0-0.446,1.494-0.906,1.494-1.367c0-0.405-1.772-0.586-2.455-0.586c-0.823,0-1.271,0.097-1.271,0.334
		c0,0.363,1.871,0.476,1.871,0.796c0,0.307-1.94,1.131-1.94,1.604c0,0.418,2.734,0.027,2.734,0.461c0,0.474-2.385,2.524-2.385,3.208
		c0,0.153,0.112,0.224,0.265,0.224c0.726,0,2.608-1.382,3.125-1.382c0.181,0,0.195,0.224,0.195,0.419
		c0,0.363-0.125,0.921-0.125,1.325c0,0.321,0.083,0.545,0.362,0.545c0.517,0,0.991-0.879,1.34-0.879
		c0.446,0,0.181,2.581,0.851,2.581c0.572,0,0.809-2.79,1.171-2.79c0.363,0,0.657,0.809,0.992,0.809c0.418,0,0.223-1.409,0.67-1.409
		c0.487,0,1.883,1.674,2.511,1.674c0.195,0,0.265-0.153,0.265-0.349c0-0.74-1.032-2.414-1.032-2.943c0-0.14,0.042-0.181,0.195-0.181
		c0.544,0,2.135,0.752,2.888,0.752C36.161,30.129,36.313,29.99,36.313,29.809z M34.861,27.046c0,0.251,0.879,0.796,1.284,0.796
		c0.237,0,0.307-0.321,0.307-0.656c0-0.419-0.181-0.434-0.544-0.434C35.448,26.752,34.861,26.879,34.861,27.046z M31.583,25.623
		c0-0.084-0.419-0.168-0.99-0.168c-0.907,0-0.781,0.754-1.479,0.754c-0.725,0-0.545-0.782-1.465-0.782
		c-0.559,0-1.074,0.099-1.074,0.224c0,0.168,0.656,0.098,0.656,0.559c0,0.488-1.41,0.628-1.41,0.921c0,0.098,0.111,0.14,0.251,0.14
		c0.307,0,0.795-0.14,1.145-0.14c0.195,0,0.376,0.042,0.376,0.224c0,0.348-0.754,0.977-0.754,1.255c0,0.084,0.07,0.112,0.139,0.112
		c0.28,0,0.754-0.712,1.201-0.712c0.74,0,0.252,1.576,0.656,1.576c0.418,0,0.237-1.549,0.837-1.549c0.49,0,0.852,1.075,1.187,1.075
		c0.084,0,0.153-0.07,0.153-0.168c0-0.292-0.418-0.894-0.418-1.283c0-0.237,0.167-0.35,0.391-0.35c0.32,0,0.753,0.196,0.99,0.196
		c0.083,0,0.167-0.028,0.167-0.126c0-0.335-1.24-0.697-1.24-1.13S31.583,25.818,31.583,25.623"/>
	<path fill="#0081C0" d="M56.319,27.884c0,1.241-0.905,2.189-2.539,2.455c0.182,0.014,0.35,0.014,0.517,0.014
		c1.911,0,2.609-0.865,2.609-1.591C56.906,28.357,56.683,27.995,56.319,27.884z M53.962,29.292c0-0.99-2.37-1.242-2.37-1.465
		c0-0.181,1.324-0.488,2.007-0.503c-1.047-1.339-2.538-1.198-2.538-1.437c0-0.14,1.117-0.419,2.148-0.419
		c0.865,0,1.674,0.195,1.674,0.851c0,0.364-0.292,0.741-0.292,1.299c0,0.307,0.153,0.572,0.558,0.572c0.434,0,0.53-0.461,0.53-0.95
		c0-0.403-0.069-0.71-0.069-0.906c0-0.586,0.402-0.976,0.975-0.976c0.474,0,0.586,0.208,1.285,0.208
		c-0.377,0.225-0.517,0.629-0.517,0.823c0,0.587,0.377,0.991,0.377,2.191c0,2.204-2.064,2.984-4.592,2.984
		c-0.694,0-1.436-0.055-2.162-0.166c-0.111-0.015-0.14-0.042-0.14-0.112c0-0.181,0.993-0.279,0.993-1.171
		c0-0.35-0.112-0.684-0.112-0.81c0-0.07,0.056-0.112,0.112-0.112c0.208,0,0.628,0.81,1.407,0.81
		C53.445,30.004,53.962,29.934,53.962,29.292z M56.236,26.209c0,0.195,0.154,0.349,0.349,0.349s0.35-0.153,0.35-0.349
		s-0.154-0.349-0.35-0.349S56.236,26.014,56.236,26.209"/>
	<path fill="#0081C0" d="M54.996,39.101c0-0.293-0.74-0.32-0.81-1.145c-0.014-0.125-0.056-0.348-0.21-0.348
		c-0.251,0-0.056,0.768-0.335,0.768c-0.641,0-0.851-1.257-1.088-1.257c-0.055,0-0.122,0.042-0.122,0.21
		c0,0.153,0.028,0.252,0.028,0.432c0,0.182-0.042,0.308-0.21,0.308c-0.377,0-0.712-0.879-1.034-0.879
		c-0.069,0-0.139,0.042-0.139,0.111c0,0.168,0.278,0.475,0.278,0.628c0,0.335-0.908,0.154-0.908,0.433
		c0,0.126,0.125,0.167,0.293,0.167c0.293,0,0.754-0.125,0.992-0.125c0.14,0,0.349,0.028,0.349,0.209
		c0,0.195-0.502,0.446-0.502,0.628c0,0.084,0.084,0.126,0.153,0.126c0.377,0,1.044-0.656,1.519-0.656
		c0.084,0,0.293,0.042,0.293,0.167c0,0.182-0.475,0.502-0.475,0.768c0,0.07,0.043,0.154,0.126,0.154c0.25,0,0.585-0.656,1.06-0.656
		c0.182,0,0.447,0.07,0.586,0.07C54.954,39.213,54.996,39.143,54.996,39.101z M55.358,45.867c0.225-0.696,0.503-1.186,0.961-1.938
		c-0.458-0.237-1.673-0.74-1.673-1.562c0-0.964,1.2-1.717,1.449-1.717c0.112,0,0.141,0.098,0.141,0.279
		c0,0.502-0.237,1.312-0.237,1.744c0,0.391,0.251,0.768,0.475,0.768c0.237,0,0.893-0.838,0.893-1.66c0-1.48-1.298-1.926-1.7-1.926
		c-0.377,0-1.062,0.613-2.667,0.613c-3,0-3.683-2.971-3.683-4.27c0-0.056,0.013-0.07,0.028-0.07c0.069,0,0.363,0.364,1.312,0.364
		c0.489,0,0.936-0.127,1.647-0.127c1.672,0,2.412,1.16,3.446,2.638c0.625,0.391,2.119,1.019,2.119,2.79
		c0,1.563-1.662,2.429-2.064,4.103c0.639-0.069,1.017-1.214,1.672-1.214c0.335,0,0.489,0.266,0.489,0.685
		c0,0.613-0.35,1.535-1.02,2.106c0.014-0.056,0.014-0.127,0.014-0.21c0-0.39-0.153-0.947-0.601-0.947
		c-0.695,0-0.918,0.753-1.309,1.38c-0.406-1.423-0.951-2.707-1.927-3.488c-0.988-0.795-2.692-0.362-2.692-1.813
		c0-0.391,0.251-0.949,0.251-1.396c0-0.153-0.028-0.293-0.112-0.405c1.341,0.504,0.866,1.396,1.69,2.317
		c0.514,0.586,1.938,1.144,2.761,3.558c0.014-0.069,0.028-0.251,0.028-0.376c0-2.065-2.734-4.089-2.971-4.927
		c1.588,0.182,1.867,0.573,2.622,2.666C54.856,44.264,55.358,45.338,55.358,45.867"/>
	<path fill="#0081C0" d="M47.727,31.106c-0.978,0-1.62-0.487-1.62-0.74c0-0.126,0.084-0.209,0.196-0.209
		c0.307,0,0.977,0.474,1.2,0.474c0.057,0,0.098-0.026,0.098-0.11c0-0.251-0.237-0.67-0.237-0.879c0-0.057,0.042-0.098,0.126-0.098
		c0.376,0,0.936,0.153,1.229,0.153c0.097,0,0.125-0.056,0.125-0.112c0-0.307-0.908-0.906-0.908-1.088
		c0-0.167,1.128-0.419,1.128-0.683c0-0.28-1.534-0.085-1.534-0.35c0-0.195,0.294-0.53,0.294-0.684c0-0.07-0.057-0.098-0.154-0.098
		c-0.126,0-0.796,0.266-1.076,0.266c-0.139,0-0.308-0.028-0.308-0.225c0-0.32,0.545-0.669,1.397-0.669
		c1.379,0,2.204,0.948,2.204,2.539C49.889,30.604,48.481,31.106,47.727,31.106z M45.007,28.456c0-0.154-0.545-0.447-0.545-0.614
		c0-0.027,0.028-0.042,0.07-0.042c0.154,0,0.419,0.056,0.629,0.056c0.182,0,0.21-0.781,0.347-0.781c0.097,0,0.265,0.74,0.419,0.74
		c0.181,0,0.516-0.21,0.656-0.21c0.028,0,0.056,0.014,0.056,0.042c0,0.098-0.349,0.474-0.349,0.585c0,0.126,0.783,0.28,0.783,0.392
		c0,0.139-0.796,0.125-0.796,0.251c0,0.097,0.293,0.488,0.293,0.613c0,0.028-0.014,0.043-0.042,0.043
		c-0.112,0-0.545-0.196-0.67-0.196c-0.154,0-0.402,0.572-0.528,0.572c-0.041,0-0.069-0.056-0.069-0.126l-0.029-0.558
		c0-0.056-0.027-0.111-0.097-0.111c-0.168,0-0.489-0.015-0.588-0.015c-0.07,0-0.098-0.015-0.098-0.042
		C44.447,28.943,45.007,28.553,45.007,28.456z M44.601,30.743c0.224,0,0.266,0.544,0.308,0.864c0.028,0.169,0.055,0.182,0.125,0.182
		c0.168,0,0.432-0.642,0.612-0.642c0.265,0,0.978,0.739,2.164,0.739c1.687,0,3.279-1.187,3.279-3.278
		c0-2.023-1.425-3.209-3.392-3.209c-0.935,0-1.62,0.461-1.983,0.461c-0.22,0.014-0.555-0.544-0.723-0.544
		c-0.07,0-0.14,0.139-0.14,0.376c0,0.153,0,0.642-0.168,0.642c-0.336,0-1.632-0.962-1.632-0.613c0,0.32,0.864,1.298,0.864,1.549
		s-0.85,0.488-0.85,0.655c0,0.307,0.907,0.363,0.907,0.754c0,0.39-0.949,0.698-0.949,0.99c0,0.237,0.949,0.07,0.949,0.362
		c0,0.293-0.698,1.271-0.698,1.549c0,0.07,0.014,0.07,0.069,0.07C43.609,31.65,44.405,30.743,44.601,30.743"/>
	<path fill="#0081C0" d="M38.28,55.244c0,0.126-0.042,0.265-0.154,0.404c-0.152-0.278-0.585-0.419-0.781-0.418
		c-1.437,0-0.893,2.078-2.427,2.078c-0.642,0-0.698-0.084-0.935-0.084c-0.098,0-0.154,0.043-0.154,0.127
		c0,0.362,0.517,1.256,1.954,1.256s2.819-0.88,2.819-1.969c0-0.182-0.042-0.375-0.126-0.571c0.056-0.084,0.196-0.139,0.321-0.139
		c0.223,0,0.349,0.251,0.558,0.251c0.224,0,0.392-0.168,0.392-0.391c0-0.183-0.098-0.308-0.265-0.393
		c0.111-0.083,0.195-0.222,0.195-0.375c0-0.238-0.167-0.461-0.447-0.461c-0.126,0-0.209,0.043-0.306,0.139
		c-0.028-0.25-0.167-0.486-0.433-0.486c-0.21,0-0.364,0.152-0.364,0.391C38.126,54.824,38.28,55.007,38.28,55.244"/>
	<path fill="#0081C0" d="M30.635,52.65c1.116,0.277,1.674,0.877,1.785,1.59c0.112,0.683,0.251,1.241,0.516,1.521
		c0.349,0.391,1.033,0.738,1.633,0.738c0.502,0,0.906-0.166,0.906-0.627c0-0.502-0.684-1.632-1.688-1.632
		c-0.098,0-0.224,0.014-0.363,0.014c-0.125,0-0.307-0.027-0.418-0.125c-0.223-0.196-0.292-1.243-0.712-1.87
		c-0.46-0.698-0.962-0.894-1.646-0.894c-0.488,0-1.033,0.265-1.033,0.656C29.616,52.259,29.742,52.426,30.635,52.65z M34.528,55.774
		c-0.419,0-1.047-0.447-1.047-0.698c0-0.21,0.195-0.321,0.348-0.321c0.35,0,0.977,0.434,0.977,0.796
		C34.806,55.648,34.736,55.774,34.528,55.774"/>
	<path fill="#0081C0" d="M33.243,44.905c0-0.894,2.122-1.367,2.122-2.47c0-0.182-0.07-0.502-0.196-0.739
		c0.739,0.403,1.284,1.089,1.284,1.646c0,0.963-1.005,1.409-1.005,2.01c0,0.697,1.075,0.809,1.075,1.674
		c0,0.711-1.018,1.534-1.018,2.455c0,0.711,0.502,1.297,1.269,1.396c-0.25,0.055-0.474,0.098-0.711,0.098
		c-1.41,0-2.86-1.158-2.86-2.54c0-0.684,0.293-1.282,0.739-1.716c0.392,0.335,0.782,0.559,1.033,0.559
		c0.223,0,0.321-0.111,0.321-0.279C35.294,46.481,33.243,46.008,33.243,44.905z M37.694,51.951
		c-0.478,0.219-0.668,0.181-0.668,0.671c0,0.181-0.042,0.416-0.042,0.543c0,0.167,0.028,0.266,0.223,0.266
		c0.502,0,1.298-0.852,1.298-1.577c0-0.196-0.112-0.278-0.238-0.278C38.155,51.575,38.03,51.798,37.694,51.951z M37.639,50.946
		c0-0.628-1.298-0.643-1.298-1.591c0-0.237,0.153-0.642,0.461-1.075c0.126,0.726,0.418,1.104,1.046,1.341
		c1.241,0.46,1.409,1.157,1.409,1.897c0,1.257-0.879,2.818-3.14,2.818c-1.813,0-3.111-1.619-3.111-2.985
		c0-0.377,0.097-0.795,0.334-0.795c0.21,0,0.279,0.166,0.447,0.333c0.628,0.629,1.312,0.797,2.303,0.797
		C36.983,51.687,37.639,51.323,37.639,50.946"/>
	<path fill="#0081C0" d="M27.757,51.249c0.035,0.291-0.174,0.554-0.465,0.588c-0.292,0.034-0.555-0.174-0.588-0.466
		c-0.035-0.292,0.174-0.555,0.465-0.589C27.461,50.748,27.724,50.957,27.757,51.249z M25.15,51.798
		c0.059,0.476,0.504,0.837,1.005,0.781c0.181-0.02,0.349-0.069,0.461-0.14c0.112,0.446,0.486,0.733,0.993,0.668
		c0.514-0.067,0.863-0.473,0.808-0.988c-0.015-0.14-0.042-0.225-0.084-0.321c0,0,0.068-0.008,0.119-0.017
		c0.504-0.095,0.844-0.5,0.801-0.988c-0.055-0.502-0.506-0.875-0.975-0.817c-0.182,0.022-0.35,0.092-0.461,0.189
		c-0.126-0.418-0.52-0.781-1.057-0.693c-0.485,0.081-0.806,0.492-0.757,1.015c0.008,0.084,0.028,0.182,0.07,0.278
		c0,0-0.083,0.012-0.139,0.021C25.526,50.846,25.084,51.256,25.15,51.798"/>
</g>
<g>
	<polygon fill-rule="evenodd" clip-rule="evenodd" fill="#F5822D" points="347.85,42.831 343.48,42.831 340.818,51.354 
		340.18,53.695 337.197,42.831 332.723,42.831 329.953,53.695 329.312,51.354 326.65,42.831 322.176,42.831 327.928,57.639 
		331.869,57.639 334.213,49.01 334.959,46.132 335.705,49.01 338.154,57.639 342.096,57.639 347.85,42.831 	"/>
	<polygon fill-rule="evenodd" clip-rule="evenodd" fill="#F5822D" points="354.24,42.831 349.979,42.831 349.979,57.639 
		354.24,57.639 354.24,42.831 	"/>
	<polygon fill-rule="evenodd" clip-rule="evenodd" fill="#F5822D" points="374.375,57.639 374.375,42.831 370.541,42.831 
		370.541,53.162 362.443,42.831 357.969,42.831 357.969,57.639 362.018,57.639 362.018,47.092 370.221,57.639 374.375,57.639 	"/>
	<path fill-rule="evenodd" clip-rule="evenodd" fill="#F5822D" d="M386.307,55.081h-3.834v-9.693h3.834
		c1.918,0,3.195,0.425,3.836,1.172c0.639,0.852,0.959,2.023,0.959,3.515c0,1.065-0.215,2.024-0.746,2.877
		C389.717,54.442,388.33,55.081,386.307,55.081L386.307,55.081z M387.051,57.639c2.984,0,5.223-0.959,6.713-2.771
		c1.066-1.385,1.598-3.089,1.598-5.007c0-0.745-0.105-1.599-0.318-2.45c-0.32-0.852-0.746-1.599-1.492-2.344
		c-0.852-0.96-2.023-1.598-3.408-1.917c-0.854-0.214-1.918-0.319-3.092-0.319h-8.734v14.808H387.051L387.051,57.639z"/>
	<path fill-rule="evenodd" clip-rule="evenodd" fill="#525F85" d="M360.314,36.118c0.959,0.215,2.023,0.32,3.195,0.32
		c1.064,0,2.236-0.105,3.408-0.32c1.279-0.318,2.451-0.745,3.623-1.277c1.17-0.532,2.236-1.279,3.303-2.236
		c1.277-1.066,2.344-2.025,3.195-2.878c0.852-0.852,1.49-1.491,2.023-2.023c0.426-0.533,0.746-0.958,0.959-1.279l0.213-0.426
		l0.639-0.745l0.32-0.639c0.107-0.215,0.213-0.427,0.213-0.64c0-0.214-0.105-0.426-0.32-0.533v-0.106l-0.318,0.106
		c-0.215,0-0.428,0.107-0.746,0.319c-0.32,0.214-0.852,0.746-1.385,1.171l-1.916,1.92c-0.533,0.532-1.281,1.064-2.025,1.81
		c-0.852,0.64-1.703,1.279-2.559,1.918c-0.957,0.639-1.916,1.278-2.98,1.811c-1.066,0.533-2.025,0.959-3.09,1.279
		c-1.064,0.318-2.131,0.426-3.197,0.426c-1.064-0.107-2.023-0.319-2.982-0.852l-0.426-0.106c-0.426-0.214-0.746-0.32-1.172-0.532
		l-1.6-0.427c-0.531-0.106-1.17-0.214-1.703-0.214c-0.639,0-1.172,0.107-1.703,0.319c-0.533,0.214-0.959,0.64-1.387,1.065
		l-0.211,0.32c-0.107,0.213-0.32,0.426-0.533,0.64c-0.32,0.318-0.533,0.532-0.959,0.744c-0.32,0.107-0.639,0.215-1.064,0.32
		c-0.428,0-0.854-0.105-1.279-0.426c-0.426-0.212-0.854-0.639-1.279-1.386l-4.262-5.326l-0.639-0.746
		c-0.213-0.212-0.428-0.319-0.531-0.319c-0.213-0.106-0.428,0-0.428,0.214c-0.107,0.212-0.213,0.532-0.213,1.171l1.172,2.345
		c0.32,0.745,0.746,1.598,1.385,2.449c0.533,0.96,1.279,1.919,2.025,2.877c0.533,0.64,1.064,1.065,1.598,1.384
		c0.531,0.214,1.172,0.321,1.703,0.321c0.533,0,0.959-0.107,1.492-0.321c0.426-0.212,0.852-0.426,1.172-0.638l0.852-0.639
		l0.32-0.321l0.213-0.318c0.215-0.107,0.428-0.32,0.639-0.533c0.32-0.213,0.746-0.425,1.172-0.64c0.428-0.106,0.959-0.106,1.492,0
		c0.639,0,1.172,0.215,2.023,0.64C358.502,35.586,359.354,35.906,360.314,36.118L360.314,36.118z"/>
	<path fill-rule="evenodd" clip-rule="evenodd" fill="#F5822D" d="M352.004,30.259h0.32l0.744-0.212c0.32,0,0.639-0.213,0.959-0.32
		c0.213-0.213,0.533-0.426,0.746-0.639c0.213-0.319,0.32-0.745,0.32-1.172v-0.32c0-0.212-0.107-0.426-0.213-0.639
		c-0.107-0.212-0.426-0.427-0.746-0.533c-0.32-0.212-0.852-0.212-1.6-0.212c-0.639,0.106-1.17,0.212-1.49,0.426
		c-0.426,0.214-0.639,0.426-0.746,0.64c-0.213,0.318-0.213,0.532-0.213,0.639v0.639c0,0.214,0,0.427,0.107,0.639
		c0.105,0.215,0.318,0.427,0.639,0.641C351.045,30.047,351.473,30.153,352.004,30.259L352.004,30.259z"/>
</g>
</svg>
