<?xml version="1.0" encoding="utf-8"?>
<!-- Generator: Adobe Illustrator 19.0.0, SVG Export Plug-In . SVG Version: 6.00 Build 0)  -->
<svg version="1.1" id="Layer_1" xmlns="http://www.w3.org/2000/svg" xmlns:xlink="http://www.w3.org/1999/xlink" x="0px" y="0px"
	 viewBox="0 0 342 79" enable-background="new 0 0 342 79" xml:space="preserve">
<g id="XMLID_1_">
	<path id="XMLID_3_" d="M10.8,21.2c2.2,0,5.3,32.3,4,32.3c-2,0-0.8-5.6-1.6-6.5c-1.2-1.5-0.2-0.4-2-1.2C3,42,6.7,53.3,2.3,53.9
		c-1.6,0.2,2.3-12.1,2.5-13.2C5.4,38.1,7.6,21.2,10.8,21.2z M6.3,43.3c10.7,2.4,5.5-9.6,3.9-16.4C7.7,30.9,7.3,38.5,6.3,43.3z"/>
	<path id="XMLID_19_" d="M24,23.8c1.5,0,1.4,16.6,1.7,19.1c0.2,2.2,2.2,8.4,1.6,10.3c-1.3,3.8-1.6-1.1-2.4-1.2c-1.2-0.1-3,2-4.4,0.8
		c-2.1-1.9-4-5.4-2.6-8.4c1.2-2.5,2.9-4.4,5.7-2.2C23.4,41,21.2,23.8,24,23.8z M19.6,46.7c-0.2,2,1.5,6.3,3.8,3.7
		C26.1,47.3,19.6,39.2,19.6,46.7z"/>
	<path id="XMLID_22_" d="M35,23.8c1.5,0,1.4,16.6,1.7,19.1c0.2,2.2,2.2,8.4,1.6,10.3c-1.3,3.8-1.6-1.1-2.4-1.2c-1.2-0.1-3,2-4.4,0.8
		c-2.1-1.9-4-5.4-2.6-8.4c1.2-2.5,2.9-4.4,5.7-2.2C34.5,41,32.2,23.8,35,23.8z M30.6,46.7c-0.2,2,1.5,6.3,3.8,3.7
		C37.1,47.3,30.6,39.2,30.6,46.7z"/>
	<path id="XMLID_25_" d="M42,40.1c1.6,0.3,0.5,13.5-0.8,13.3C39.3,53.1,40.2,40,42,40.1C42.8,40.2,41.4,40.1,42,40.1z M41.8,35.5
		c1.3,0.7,1.4,1.4,0.3,2.3C41.7,37.6,39.4,35.5,41.8,35.5z"/>
	<path id="XMLID_28_" d="M58.4,23.7c9.3,0,11.8,31.3,0.8,30C50.1,52.7,53.1,23.7,58.4,23.7z M58.5,25.8c-1.1,3.2-6.6,25.8,0.8,26
		C67.6,51.9,64.4,25.8,58.5,25.8C56.7,31,58.8,25.8,58.5,25.8z"/>
	<path id="XMLID_31_" d="M72.8,39.9c1.1,0,1.8,0.5,2.1,1.5c0,2-5,0.3-3.2,4.8c0.2,0.5,3.5-1.2,4.1,1.3c0.9,4-7.6,7.8-7.6,3.8
		c0.9-2,5.3,1.7,5.1-3.3c0,1.4-4.9-1.1-5-3C68,42.3,70.5,40.3,72.8,39.9z"/>
	<path id="XMLID_33_" d="M87.2,40.1c2.5,1.2,4.2,13.4,2.2,13.4c-2.2,0-2.1-9.6-2.8-10.9c-1.1,1.3-1.3,9.2-2.6,9.1
		c-2.5-0.3,0.3-8.5-2.4-8.8c-2.5,2.5,0.1,14.3-3.5,7.1c-0.6-1.2-0.5-8.3,0-8.8c1.3-1.3,1.4,0.3,2.1-0.1c1.2-0.7,1.9,0.8,2.7,0.7
		C84.4,41.6,84.9,40.6,87.2,40.1C88.9,40.8,86.2,40.3,87.2,40.1z"/>
	<path id="XMLID_35_" d="M97.7,41.4c5.1-0.2,4.6,15.5,1.3,7.7C92.7,59.8,87.8,42.3,97.7,41.4z M93.8,49.3c0.7,5.8,5-5.8,4.9-5.6
		C95.5,43.3,93.7,46,93.8,49.3z"/>
	<path id="XMLID_38_" d="M109,40.8c4.4,0.4,3.4,12.7,1.3,12.5c-2.6-0.2,1.7-10.2-1.6-10.4c-4.1-0.3-0.5,10.4-3.3,10.5
		c-1-0.1-3-12.1-0.5-12.3c0,1,0.3,1.5,1,1.6C106.6,41.4,107.6,40.8,109,40.8C111.3,40.9,107.9,40.7,109,40.8z"/>
	<path id="XMLID_40_" d="M116.3,40.1c1.6,0.3,0.5,13.5-0.8,13.3C113.6,53.1,114.5,40,116.3,40.1C117.1,40.2,115.6,40.1,116.3,40.1z
		 M116.1,35.5c1.3,0.7,1.4,1.4,0.3,2.3C116,37.6,113.6,35.5,116.1,35.5z"/>
</g>
</svg>
