<svg xmlns="http://www.w3.org/2000/svg" width="1024" height="768" viewBox="0 0 1024 768"><rect x="-3863.5" y="-2291.136" fill="#44C650" width="8736.682" height="5395.95" id="bg2_1_"/><g id="objects" xmlns:rdf="http://www.w3.org/1999/02/22-rdf-syntax-ns#" xmlns:sodipodi="http://sodipodi.sourceforge.net/DTD/sodipodi-0.dtd" xmlns:inkscape="http://www.inkscape.org/namespaces/inkscape" xmlns:svg="http://www.w3.org/2000/svg" xmlns:dc="http://purl.org/dc/elements/1.1/" xmlns:cc="http://creativecommons.org/ns#" sodipodi:docname="drawing.svg" inkscape:version="0.48.4 r9939"><g id="iphone"><path fill="#0F0D10" d="M942.459 437.872l1.232 9.742c.45 3.569 3.743 6.126 7.315 5.677l51.967-6.58c3.574-.454 6.125-3.745 5.678-7.319l-1.233-9.74-64.959 8.22z"/><path fill="#0F0D10" d="M995.079 332.209l-1.233-9.744c-.453-3.573-3.746-6.125-7.315-5.673l-51.972 6.58c-3.569.453-6.125 3.746-5.672 7.318l1.232 9.745 64.96-8.226z"/><rect x="935.992" y="335.944" transform="matrix(.992 -.126 .126 .992 -40.693 124.725)" fill="#0F0D10" width="65.489" height="98.234"/><rect x="939.272" y="335.926" transform="matrix(.992 -.126 .126 .992 -40.689 124.718)" fill="#F5F7FA" width="58.938" height="98.236"/><circle fill="#272528" cx="975.967" cy="441.881" r="4.911"/><g id="s3"><rect id="s3-bg1" x="942.977" y="394.631" transform="matrix(.992 -.126 .126 .992 -44.335 125.429)" fill="#CCD1D9" width="58.939" height="39.295"/><rect id="i1" x="959.719" y="416.751" transform="matrix(.992 -.126 .126 .992 -44.729 125.445)" fill="#F5F7FA" width="26.197" height="1.636"/><rect id="i2" x="960.608" y="423.157" transform="matrix(.992 -.126 .126 .992 -45.549 125.682)" fill="#F5F7FA" width="26.197" height="1.639"/><rect id="i3" x="960.176" y="419.922" transform="matrix(.992 -.126 .126 .992 -45.143 125.593)" fill="#F5F7FA" width="26.199" height="1.638"/><rect id="i4" x="961.014" y="427.251" transform="matrix(.992 -.126 .126 .992 -46.138 125.032)" fill="#F5F7FA" width="13.097" height="1.64"/><rect id="i5" x="958.438" y="400.408" transform="matrix(.992 -.126 .126 .992 -43.408 125.205)" fill="#44C650" width="26.196" height="13.097"/><rect id="i6" x="951.132" y="374.486" transform="matrix(.992 -.126 .126 .992 -39.477 124.493)" fill="#AAB2BD" width="32.749" height="1.636"/><rect id="i7" x="951.966" y="381.003" transform="matrix(.992 -.126 .126 .992 -40.289 124.649)" fill="#AAB2BD" width="32.749" height="1.638"/><rect id="i8" x="951.544" y="377.74" transform="matrix(.992 -.126 .126 .992 -39.881 124.563)" fill="#AAB2BD" width="32.747" height="1.638"/><rect id="i9" x="958.943" y="384.182" transform="matrix(.992 -.126 .126 .992 -40.672 124.677)" fill="#AAB2BD" width="19.648" height="1.636"/><rect id="i10" x="941.713" y="342.736" transform="matrix(.992 -.126 .126 .992 -36.644 123.958)" fill="#3498DB" width="45.844" height="19.649"/><rect id="i11" x="947.036" y="367.581" transform="matrix(.992 -.126 .126 .992 -38.667 124.337)" fill="#E1E1E2" width="39.296" height="2.456"/></g></g><g id="ipad"><path fill="#0F0D10" d="M889.811 301.583v-12c0-4.4-3.604-8-8-8h-144c-4.397 0-8 3.6-8 8v12h160z"/><path fill="#0F0D10" d="M729.811 469.584v12c0 4.396 3.603 8 8 8h144c4.396 0 8-3.604 8-8v-12h-160z"/><rect x="729.811" y="301.583" fill="#0F0D10" width="160" height="168.001"/><rect x="737.811" y="301.583" fill="#C4C3C4" width="144" height="168.001"/><circle fill="#272528" cx="809.811" cy="479.584" r="6"/><g id="s2"><rect x="737.811" y="301.583" fill="#E6E9ED" width="144" height="168.001"/><rect id="s2-bg1" x="737.811" y="405.584" fill="#fff" width="144" height="64"/><rect id="g1" x="761.811" y="317.583" fill="#44C650" width="96" height="48"/><g id="g2g" fill="#434A54"><rect id="g2" x="777.811" y="380.583" width="64" height="2"/><rect id="g3" x="777.811" y="388.583" width="64" height="1.999"/><rect id="g4" x="777.811" y="384.583" width="64" height="2"/><rect id="g5" x="785.811" y="392.582" width="48" height="2"/></g><rect id="g21" x="769.811" y="371.583" fill="#4FC1E9" width="80" height="4"/><g id="g6g" fill="#AAB2BD"><rect id="g6" x="793.811" y="437.584" width="32" height="2"/><rect id="g7" x="793.811" y="445.584" width="32" height="2"/><rect id="g8" x="793.811" y="441.584" width="32" height="2"/><rect id="g9" x="793.811" y="449.584" width="16" height="2"/></g><rect id="g10" x="793.811" y="417.584" fill="#44C650" width="32" height="16"/><g id="g11g" fill="#AAB2BD"><rect id="g11" x="745.811" y="449.584" width="16" height="2"/><rect id="g12" x="745.811" y="441.584" width="32" height="2"/><rect id="g13" x="745.811" y="445.584" width="32" height="2"/><rect id="g14" x="745.811" y="437.584" width="32" height="2"/></g><rect id="g15" x="745.811" y="417.584" fill="#44C650" width="32" height="16"/><rect id="g16" x="841.811" y="437.584" fill="#AAB2BD" width="32" height="2"/><rect id="g17" x="841.811" y="445.584" fill="#AAB2BD" width="32" height="2"/><rect id="g18" x="841.811" y="441.584" fill="#AAB2BD" width="32" height="2"/><rect id="g19" x="841.811" y="449.584" fill="#AAB2BD" width="16" height="2"/><rect id="g20" x="841.811" y="417.584" fill="#44C650" width="32" height="16"/><rect x="737.811" y="301.583" fill="#4B4A4C" width="144" height="8"/></g></g><g id="imac"><rect id="gridbg" x="392.694" y="187.642" fill="#F5B8B6" width="299.489" height="165.827"/><g id="grid" fill="#fff"><rect id="grid1" x="411.767" y="187.562" width="6.386" height="166"/><rect id="grid2" x="437.767" y="187.562" width="6.386" height="166"/><rect id="grid3" x="462.767" y="187.562" width="6.386" height="166"/><rect id="grid4" x="488.767" y="187.562" width="6.386" height="166"/><rect id="grid5" x="513.767" y="187.562" width="6.386" height="166"/><rect id="grid6" x="539.767" y="187.562" width="6.386" height="166"/><rect id="grid7" x="564.767" y="187.562" width="6.386" height="166"/><rect id="grid8" x="590.767" y="187.562" width="6.386" height="166"/><rect id="grid9" x="615.767" y="187.562" width="6.386" height="166"/><rect id="grid10" x="641.767" y="187.562" width="6.386" height="166"/><rect id="grid11" x="666.767" y="187.562" width="6.386" height="166"/></g><path id="bg1" fill="#F5F7FA" d="M692.158 187.642c.01.008.02.015.024 12.771v153.056h-300v-153.056c.01-12.754.021-12.763.026-12.771h299.95z"/><rect id="bg2" x="392.186" y="264.172" fill="#E6E9ED" width="300" height="76.551"/><g id="b4" fill="#434A54"><rect id="f22" x="616.326" y="326.372" width="28.574" height="3.188"/><rect id="f21" x="616.326" y="313.616" width="57.145" height="3.187"/><rect id="f20" x="616.326" y="319.992" width="57.145" height="3.188"/><rect id="f19" x="616.326" y="307.236" width="57.145" height="3.188"/></g><rect id="f18" x="616.326" y="275.346" fill="#3498DB" width="57.145" height="25.513"/><g id="b3" fill="#434A54"><rect id="f17" x="513.613" y="307.236" width="57.143" height="3.188"/><rect id="f16" x="513.613" y="319.992" width="57.143" height="3.188"/><rect id="f15" x="513.613" y="313.616" width="57.143" height="3.187"/><rect id="f14" x="513.613" y="326.372" width="28.569" height="3.188"/></g><rect id="f13" x="513.613" y="275.346" fill="#3498DB" width="57.143" height="25.513"/><g id="b2" fill="#434A54"><rect id="f12" x="411.901" y="307.236" width="57.14" height="3.188"/><rect id="f11" x="411.901" y="319.992" width="57.14" height="3.188"/><rect id="f10" x="411.901" y="313.616" width="57.14" height="3.187"/><rect id="f9" x="411.901" y="326.372" width="28.566" height="3.188"/></g><rect id="f8" x="411.901" y="275.346" fill="#3498DB" width="57.14" height="25.513"/><g id="b1"><rect id="f6" x="527.758" y="202.791" fill="#E74C3C" width="110.716" height="6.379"/><rect id="f5" x="527.758" y="241.062" fill="#39B54A" width="39.279" height="12.756"/><rect id="f4" x="527.758" y="213.955" fill="#656D78" width="110.716" height="3.188"/><rect id="f3" x="527.758" y="226.711" fill="#656D78" width="110.716" height="3.188"/><rect id="f2" x="527.758" y="220.333" fill="#656D78" width="110.716" height="3.188"/><rect id="f7" x="527.758" y="233.089" fill="#656D78" width="82.146" height="3.189"/></g><rect id="f1" x="411.901" y="202.791" fill="#3498DB" width="110.713" height="51.027"/></g><g id="diagramma1"><polygon fill="#39B54A" points="240.597,366.983 212.917,333.78 65.026,322.904 47.003,567.986 224.852,581.065"/><polygon fill="#F5F7FA" points="216.906,330.22 69.014,319.344 50.992,564.424 228.841,577.503 244.585,363.422"/><polygon fill="#8996A9" points="214.625,361.22 244.585,363.423 216.906,330.22"/><g id="dg1"><ellipse id="d1" transform="matrix(-.997 -.073 .073 -.997 285.853 723.049)" fill="#3498DB" cx="156.194" cy="356.28" rx="14.859" ry="15.379"/><rect id="d2" x="146.444" y="354.475" transform="matrix(.997 .073 -.073 .997 26.541 -10.456)" fill="#F5F7FA" width="18.573" height="3.843"/><rect id="d3" x="152.864" y="364.888" transform="matrix(.997 .073 -.073 .997 27.911 -10.307)" fill="#E6E9ED" width="3.713" height="22.256"/></g><g id="dg2"><polygon id="d4" fill="#E6E9ED" points="191.69,405.157 187.985,404.886 188.96,391.616 118.561,386.438 117.856,396.023 114.151,395.753 115.137,382.332 192.949,388.055"/><polygon id="d5" fill="#E74C3C" points="85.516,405.212 116.287,392.057 144.801,409.57 114.031,422.728"/><rect id="d6" x="100.307" y="405.466" transform="matrix(.997 .073 -.073 .997 30.215 -7.355)" fill="#F5F7FA" width="29.721" height="3.843"/><rect id="d7" x="112.09" y="414.874" transform="matrix(.997 .074 -.074 .997 31.516 -7.237)" fill="#E6E9ED" width="3.715" height="18.259"/></g><g id="dg3"><rect id="d8" x="82.611" y="430.205" transform="matrix(.997 .073 -.073 .997 33.01 -7.043)" fill="#3498DB" width="59.444" height="30.755"/><rect id="d9" x="94.115" y="439.009" transform="matrix(.997 .073 -.073 .997 32.612 -6.26)" fill="#F5F7FA" width="14.86" height="3.837"/><rect id="d10" x="116.348" y="440.362" transform="matrix(.997 .073 -.073 .997 32.81 -7.624)" fill="#F5F7FA" width="7.432" height="3.843"/><rect id="d11" x="93.468" y="447.501" transform="matrix(.997 .073 -.073 .997 33.24 -7.003)" fill="#F5F7FA" width="37.149" height="3.839"/><rect id="d12" x="109.064" y="449.378" transform="matrix(.997 .073 -.073 .997 34.312 -6.861)" fill="#E6E9ED" width="3.715" height="32.195"/></g><g id="dg4"><rect id="d13" x="78.647" y="476.351" transform="matrix(.997 .073 -.073 .997 36.949 -6.607)" fill="#3498DB" width="59.446" height="46.124"/><rect id="d14" x="85.364" y="501.292" transform="matrix(.997 .073 -.073 .997 37.176 -6.537)" fill="#F5F7FA" width="44.577" height="3.841"/><rect id="d15" x="84.771" y="507.879" transform="matrix(.997 .073 -.073 .997 37.64 -5.389)" fill="#F5F7FA" width="14.859" height="3.836"/><rect id="d16" x="107.075" y="509.236" transform="matrix(.997 .073 -.073 .997 37.776 -6.747)" fill="#F5F7FA" width="7.432" height="3.839"/><rect id="d17" x="85.938" y="492.808" transform="matrix(.997 .073 -.073 .997 36.527 -5.786)" fill="#F5F7FA" width="22.288" height="3.838"/><rect id="d18" x="115.644" y="494.709" transform="matrix(.997 .073 -.073 .997 36.722 -7.683)" fill="#F5F7FA" width="14.86" height="3.843"/><rect id="d19" x="86.494" y="485.684" transform="matrix(.997 .073 -.073 .997 36.072 -6.396)" fill="#F5F7FA" width="37.149" height="3.838"/></g><g id="dg5"><polygon id="d20" fill="#44C650" points="159.621,410.661 190.392,397.503 218.906,415.021 188.136,428.177"/><rect id="d21" x="174.448" y="410.907" transform="matrix(.997 .073 -.073 .997 30.772 -12.767)" fill="#F5F7FA" width="29.721" height="3.844"/><rect id="d22" x="172.153" y="435.676" transform="matrix(.997 .073 -.073 .997 33.005 -12.516)" fill="#3498DB" width="29.721" height="15.377"/></g><g id="dg6"><rect id="d23" x="186.198" y="420.336" transform="matrix(.997 .073 -.073 .997 31.887 -12.594)" fill="#E6E9ED" width="3.715" height="18.258"/><rect id="d24" x="180.052" y="441.478" transform="matrix(.997 .073 -.073 .997 32.995 -12.546)" fill="#F5F7FA" width="14.86" height="3.844"/><rect id="d25" x="183.698" y="438.505" transform="matrix(.997 .073 -.073 .997 34.408 -12.319)" fill="#E6E9ED" width="3.715" height="51.085"/></g><g id="dg7"><rect id="d26" x="155.568" y="458.837" transform="matrix(-.997 -.073 .073 -.997 335.88 945.374)" fill="#3498DB" width="59.441" height="15.372"/><rect id="d27" x="185.765" y="465.447" transform="matrix(.997 .073 -.073 .997 34.79 -13.177)" fill="#F5F7FA" width="22.288" height="3.837"/><rect id="d28" x="163.52" y="463.541" transform="matrix(.997 .073 -.073 .997 34.565 -11.275)" fill="#F5F7FA" width="14.861" height="3.841"/></g><g id="dg8"><rect id="d29" x="161.361" y="481.833" transform="matrix(.997 .073 -.073 .997 36.377 -12.145)" fill="#3498DB" width="44.576" height="15.371"/><rect id="d30" x="180.516" y="497.013" transform="matrix(.997 .073 -.073 .997 37.632 -12.005)" fill="#E6E9ED" width="3.717" height="19.369"/><rect id="d32" x="172.507" y="487.595" transform="matrix(.997 .073 -.073 .997 36.377 -12.145)" fill="#F5F7FA" width="22.288" height="3.843"/></g><g id="dg9"><ellipse id="d31" transform="matrix(-.997 -.073 .073 -.997 322.449 1067.551)" fill="#3498DB" cx="180.813" cy="527.859" rx="14.862" ry="15.377"/><rect id="d33" x="171.066" y="526.056" transform="matrix(.997 .073 -.073 .997 39.18 -11.798)" fill="#fff" width="18.575" height="3.844"/></g></g><g id="appunti"><rect x="748.774" y="517.238" transform="matrix(-.101 .995 -.995 -.101 1574.825 -132.19)" fill="#39B54A" width="196.714" height="256.243"/><rect x="753.772" y="513.236" transform="matrix(-.101 .995 -.995 -.101 1576.346 -141.569)" fill="#E6E9ED" width="196.714" height="256.243"/><rect x="760.162" y="513.292" transform="matrix(.035 .999 -.999 .035 1469.792 -238.79)" fill="#F5F7FA" width="196.668" height="256.185"/><g id="ag1" fill="#44C650"><path id="a1" d="M943.17 670.787l-108.669 4.229-3.555-91.109 108.671-4.229 3.553 91.109zm-104.502-.273l99.992-3.896-3.215-82.438-99.99 3.896 3.213 82.438z"/><rect id="a2" x="833.853" y="599.179" transform="matrix(.999 -.039 .039 .999 -22.72 34.92)" width="104.366" height="4.336"/></g><g id="ag2" fill="#44C650"><path id="a3" d="M873.412 664.814l-21.688.849-.853-21.693 21.693-.846.848 21.69zm-17.526-3.662l13.021-.513-.508-13.018-13.021.506.508 13.025z"/><path id="a4" d="M899.344 663.803l-21.691.851-.849-21.69 21.688-.849.852 21.688zm-17.524-3.662l13.021-.508-.514-13.021-13.021.511.514 13.018z"/><path id="a5" d="M925.391 662.789l-21.69.846-.849-21.692 21.693-.847.846 21.693zm-17.524-3.662l13.021-.508-.51-13.021-13.021.506.51 13.023z"/></g><g id="ag3" fill="#44C650"><path id="a6" d="M889.752 638.105l-39.052 1.521-1.187-30.368 39.051-1.521 1.188 30.368zm-34.879-2.986l30.372-1.188-.846-21.688-30.372 1.186.846 21.69z"/><rect id="a7" x="895.074" y="606.95" transform="matrix(.999 -.039 .039 .999 -23.05 35.855)" width="26.059" height="4.336"/><rect id="a8" x="895.356" y="615.709" transform="matrix(.999 -.039 .039 .999 -23.339 35.791)" width="26.144" height="4.336"/><rect id="a9" x="895.775" y="624.464" transform="matrix(.999 -.039 .039 .999 -23.69 35.655)" width="17.374" height="4.337"/></g><g id="ag4" fill="#44C650"><rect id="a10" x="906.79" y="684.566" transform="matrix(.999 -.039 .039 .999 -26.087 36.576)" width="34.771" height="4.336"/><rect id="a11" x="907.119" y="693.264" transform="matrix(.999 -.039 .039 .999 -26.346 36.481)" width="34.854" height="4.336"/><rect id="a18" x="923.892" y="675.648" transform="matrix(.999 -.039 .039 .999 -25.729 36.891)" width="17.376" height="4.338"/></g><g id="ag5" fill="#44C650"><rect id="a12" x="818.776" y="653.031" transform="matrix(.999 -.039 .039 .999 -24.907 33.269)" width="43.405" height="4.336"/><rect id="a13" x="801.327" y="654.366" transform="matrix(.999 -.039 .039 .999 -24.808 31.675)" width="8.679" height="4.335"/><rect id="a14" x="816.41" y="592.462" transform="matrix(.999 -.039 .039 .999 -22.547 33.13)" width="43.406" height="4.335"/><rect id="a15" x="799.016" y="593.846" transform="matrix(.999 -.039 .039 .999 -22.411 31.459)" width="8.676" height="4.339"/><rect id="a16" x="799.722" y="611.031" transform="matrix(.999 -.039 .039 .999 -23.207 31.688)" width="8.675" height="4.342"/><polygon id="a17" points="868.953,625.743 834.108,614.202 817.146,614.862 816.979,610.524 834.725,609.833 870.318,621.619"/></g></g><g id="appunti2"><rect x="1187.49" y="364.045" transform="matrix(.955 -.297 .297 .955 -79.371 391.04)" fill="#363532" width="118.512" height="185.175"/><circle fill="#363532" cx="1280.236" cy="364.723" r="14.821"/><circle fill="#363532" cx="1326.47" cy="513.312" r="14.821"/><rect x="1303.064" y="358.957" transform="matrix(-.955 .297 -.297 -.955 2691.532 464.234)" fill="#363532" width="14.818" height="155.562"/><circle fill="#363532" cx="1215.461" cy="555.613" r="7.411"/><circle fill="#363532" cx="1164.824" cy="392.873" r="7.41"/><rect x="1182.564" y="388.3" transform="matrix(.955 -.297 .297 .955 -86.832 375.916)" fill="#363532" width="20.374" height="170.397"/><rect x="1186.94" y="362.259" transform="matrix(.955 -.297 .297 .955 -78.865 390.796)" fill="#fff" width="118.512" height="185.174"/><circle fill="#fff" cx="1279.686" cy="362.955" r="14.821"/><circle fill="#fff" cx="1325.919" cy="511.542" r="14.82"/><rect x="1302.378" y="357.234" transform="matrix(-.955 .297 -.297 -.955 2689.683 461.144)" fill="#fff" width="14.818" height="155.592"/><circle fill="#fff" cx="1215.461" cy="555.613" r="5.558"/><circle fill="#fff" cx="1164.273" cy="391.104" r="7.41"/><rect x="1184.146" y="386.181" transform="matrix(.955 -.297 .297 .955 -86.431 375.902)" fill="#fff" width="18.515" height="172.212"/><path fill="#434A54" d="M1274.73 347.035l-113.209 35.226c-3.907 1.215-6.1 5.368-4.875 9.276l50.639 162.74c1.215 3.896 5.369 6.089 9.275 4.874l113.211-35.229c7.812-2.432 12.181-10.736 9.738-18.555l-46.229-148.588c-2.426-7.812-10.732-12.177-18.55-9.744z"/><rect x="1196.775" y="372.764" transform="matrix(.955 -.297 .297 .955 -85.401 377.367)" fill="#A0D468" width="7.412" height="194.525"/><rect x="1208.341" y="419.327" transform="matrix(-.954 .299 -.299 -.954 2551.028 451.794)" fill="#E6E9ED" width="65.176" height="3.706"/><rect x="1212.71" y="433.815" transform="matrix(-.954 .299 -.299 -.954 2563.903 478.787)" fill="#E6E9ED" width="65.177" height="3.708"/><rect x="1217.074" y="448.364" transform="matrix(-.954 .299 -.299 -.954 2576.787 505.909)" fill="#E6E9ED" width="65.18" height="3.705"/><rect x="1221.445" y="462.88" transform="matrix(-.954 .299 -.299 -.954 2589.668 532.989)" fill="#E6E9ED" width="65.177" height="3.705"/></g><g id="coffee"><circle fill="#39B54A" cx="1122.833" cy="276.583" r="50.582"/><circle fill="#E6E9ED" cx="1127.833" cy="274.583" r="50.582"/><path fill="#3498DB" d="M1127.834 232.883c23.03 0 41.7 18.67 41.7 41.7s-18.67 41.7-41.7 41.7c-10.371 0-19.858-3.786-27.153-10.052-8.9-7.647-14.547-18.989-14.547-31.648 0-23.03 18.67-41.7 41.7-41.7z"/><path id="linecover2" fill="#E6E9ED" d="M1127.834 231.883c23.583 0 42.7 19.118 42.7 42.7s-19.117 42.7-42.7 42.7c-10.62 0-20.335-3.877-27.805-10.293-9.118-7.831-14.896-19.444-14.896-32.407.001-23.583 19.118-42.7 42.701-42.7z"/><ellipse transform="matrix(.993 .118 -.118 .993 44.13 -129.732)" fill="#D8D8DA" cx="1113.979" cy="306.564" rx="11.564" ry="7.709"/><polygon fill="#CCD1D9" points="1064.655,296.808 1105.483,303.748 1105.058,307.324 1063.743,304.462"/><ellipse transform="matrix(.993 .118 -.118 .993 44.136 -129.734)" fill="#AAB2BD" cx="1113.863" cy="306.572" rx="9.637" ry="6.424"/><path fill="#fff" d="M1100.552 231.726l9.692 12.484c1.604 2.068 1.229 5.048-.838 6.654-2.063 1.607-5.047 1.232-6.65-.836l-9.693-12.484c-1.604-2.068-1.229-5.047.84-6.654 2.063-1.607 5.041-1.233 6.649.836z"/><circle fill="#fff" cx="1127.833" cy="274.583" r="34.776"/><circle fill="#E6E7E8" cx="1127.833" cy="274.583" r="31.298"/><circle fill="#49433C" cx="1127.833" cy="274.583" r="29.559"/><path fill="#363532" d="M1106.61 291.066c9.088 11.702 26.004 13.828 37.707 4.739.688-.535.812-1.528.274-2.218-.537-.689-1.524-.814-2.222-.278-.278.218-.565.428-.856.632l-.231.166c-.271.188-.549.372-.83.549l-.271.167-.59.347-.396.222c-.229.125-.455.244-.688.36l-.539.261-.403.188-.508.223c-.242.103-.49.203-.738.298l-.486.178-.475.164-.445.147c-.28.088-.562.171-.854.249l-.312.081-.754.18-.237.054c-.343.072-.687.137-1.021.194l-.062.008-.598.092-.451.054-.076.009c-.742.085-1.49.134-2.229.147h-.023c-.734.013-1.475-.009-2.207-.064l-.129-.011c-.34-.028-.68-.061-1.018-.103l-.062-.006c-.312-.042-.637-.09-.95-.143l-.394-.07-.531-.105c-.645-.134-1.282-.297-1.918-.484l-.021-.007c-3.418-1.023-6.596-2.808-9.25-5.243l-.055-.044-.44-.425-.361-.358-.357-.373-.602-.659-.205-.237c-.229-.268-.451-.54-.67-.819-.217-.28-.426-.565-.627-.853l-.181-.256c-.168-.245-.332-.492-.489-.741l-.271-.442-.261-.438-.301-.539-.031-.06c-1.698-3.179-2.645-6.695-2.789-10.259l-.002-.025c-.021-.66-.021-1.319.009-1.978l.026-.541.029-.394c.021-.32.057-.641.098-.96l.011-.058.147-1.011.021-.129c.133-.723.289-1.441.48-2.154l.008-.022c.197-.717.434-1.428.695-2.13l.025-.071.16-.424.234-.556.021-.052c.144-.32.286-.636.438-.948l.109-.22c.112-.229.231-.458.354-.684l.156-.285c.146-.258.297-.514.453-.766l.252-.397.271-.418.291-.428c.15-.217.312-.432.479-.644l.34-.435.281-.348.389-.458.521-.576.312-.329.479-.483.229-.225c.24-.229.486-.45.736-.669l.221-.188c.271-.23.544-.458.824-.676.688-.536.812-1.528.272-2.218-.535-.688-1.522-.812-2.217-.279-11.682 9.089-13.807 26.004-4.718 37.705z"/><path fill="#363532" d="M1116.561 251.887c.342.803 1.271 1.182 2.066.842l.643-.253.098-.038.006-.002.604-.219.021-.006.155-.055.013-.003.635-.208.018-.005.041-.012.036-.011c.444-.138.897-.258 1.354-.369l.151-.039c.438-.104.883-.193 1.324-.271l.313-.055-.188.029.188-.029h-.006l.435-.065-.019.001.15-.023h.005l-.146.021.188-.025c.562-.059 1.091.182 1.416.601.166.212.273.47.314.755.113.859-.479 1.651-1.342 1.777l-.005.001-.013.002c-1.321.181-2.623.493-3.879.924l-.015.005-.062.019-.016.005c-.418.146-.829.305-1.237.476-.781.35-1.146 1.262-.812 2.056.336.797 1.252 1.174 2.051.849 2.16-.917 4.479-1.382 6.854-1.365h.188l.485.017.308.016.453.033.316.033.323.033.043.009.062.014c.387.076.721.282.943.575.246.32.375.734.315 1.167-.104.866-.896 1.479-1.768 1.371-2.487-.312-4.959.027-7.218.965l-.099.047c-.793.345-1.164 1.264-.826 2.062.338.802 1.27 1.182 2.067.842 4.604-1.942 9.966-.539 13.031 3.412 3.066 3.951 3.104 9.49.079 13.472-.524.695-.394 1.688.305 2.214.688.525 1.675.393 2.202-.29l.18-.227c1.402-1.922 2.312-4.181 2.608-6.607.107-.866.896-1.48 1.771-1.372.438.055.806.28 1.054.6.229.292.348.666.319 1.06l-.002.062v.044l-.054.326-.047.316-.078.449-.062.301-.104.475-.045.181c-.567 2.303-1.598 4.44-3.021 6.307-.521.695-.375 1.675.312 2.197.688.522 1.659.393 2.191-.282.27-.351.521-.711.77-1.08l.013-.013.03-.053.011-.01c.729-1.11 1.354-2.291 1.854-3.529l.005-.008.002-.004c.334-.8 1.248-1.183 2.056-.856.271.108.485.281.648.493.325.42.434.993.229 1.523l-.062.153-.25.579-.123.276-.281.587-.116.247-.347.641-.095.176c-.146.264-.301.525-.457.783l-.027.05-.012.017-.379.595-.084.127-.012.015-.229.327-.146.214-.054.07-.409.567c-.525.695-.396 1.688.303 2.214.692.528 1.688.392 2.217-.303 7.339-9.67 7.264-23.124-.188-32.719-7.451-9.594-20.474-13-31.649-8.282-.75.34-1.127 1.267-.788 2.071zm32.918 32.365l-.104.233.104-.233zm-.41.867l-.104.203.104-.203zm-.464.885l-.073.138.073-.138zm1.142-2.38l.058-.135-.015.037-.043.098z"/><path fill="#363532" d="M1146.708 288.932l.021-.023.394-.535-.415.558z"/></g></g><g id="tblock1"><path fill="#3498DB" d="M9.253 126.877h257.071v132.785h-257.071v-132.785z"/><path fill="#3498DB" d="M312.5 194.5l-48 13v-24l48 11z"/><text transform="translate(17.295 248.246)" fill="#ECF0F1" font-weight="300" font-size="18">Web applications</text><text transform="translate(16.681 200.612)" fill="#ECF0F1" font-weight="300" font-size="18">OO JavaScript</text><g fill="#ECF0F1" font-weight="300" font-size="18"><text transform="translate(17.091 176.795)">UX and Design thinking</text><text transform="translate(17.5 152.978)">Front-End development</text></g><text transform="translate(16.886 224.429)" fill="#ECF0F1" font-weight="300" font-size="18">E-learning platforms</text></g><g id="tblock2"><path fill="#3498DB" d="M735.113 95.586h257.067v132.785h-257.067v-132.785z"/><path fill="#3498DB" d="M864.648 261.001l-13-48h24l-11 48z"/><text transform="translate(745.885 120.963)" fill="#ECF0F1" font-weight="300" font-size="18">Mobile Applications</text><text transform="translate(745.885 190.234)" fill="#ECF0F1" font-weight="300" font-size="18">Responsive Web Design</text><text transform="translate(745.885 144.054)" fill="#ECF0F1" font-weight="300" font-size="18">CMS and Frameworks</text><text transform="translate(745.885 213.325)" fill="#ECF0F1" font-weight="300" font-size="18">Image editing skills</text><text transform="translate(745.885 167.144)" fill="#ECF0F1" font-weight="300" font-size="18">E-Commerce Development</text></g><g id="tblock3"><path fill="#3498DB" d="M369.194 535.938h314.306v132.785h-314.306v-132.785z"/><path fill="#3498DB" d="M500.959 493.594l13 48h-24l11-48z"/><text transform="translate(385.441 565.219)" fill="#ECF0F1" font-weight="300" font-size="18">Project Management &amp; Strategy</text><text transform="translate(385.441 586.785)" fill="#ECF0F1" font-weight="300" font-size="18">Data Models</text><g fill="#ECF0F1" font-weight="300" font-size="18"><text transform="translate(385.441 608.352)">Social Media Platforms</text><text transform="translate(385.441 629.919)">Estimating / Strategy / Planning</text><text transform="translate(385.441 651.485)">Client relationship</text></g></g><text id="title" transform="translate(16.681 46.98)" fill="#F5F7FA" font-weight="100" font-size="36">Knowledge, skills and abilities:</text><path id="wire2" opacity=".6" fill="none" stroke="#EFEFEF" stroke-miterlimit="10" enable-background="new" d="M671.234-1.156l-1.234 1.156c-65.504 59.78-48.729 76.03-135.857 87.044-56.793 7.18-162.955 16.03-199.643 65.934-46 62.57-33.588 201.134 62.631 201.134h295.869c0-22.613.01-60.918.01-90.113 31.948 0 29.193.1 64.254.1h146.736c0 18.9.727 70.283.727 87.275v156.125c-36.727 0-11.759.377-65.668.377-38.819 0-89.562 11.265-120.625-12.685-66.51-51.279-152.852-21.468-226.998-8.088-60.755 10.964-140.931-14.668-195.547 18.471-71.498 43.378-34.157 173.148-108.044 208.565-32.333 15.5-93.484 2.073-97.844 54.308"/></svg>