<?xml version="1.0" encoding="utf-8"?>
<!-- Generator: Adobe Illustrator 16.0.0, SVG Export Plug-In . SVG Version: 6.00 Build 0)  -->
<!DOCTYPE svg PUBLIC "-//W3C//DTD SVG 1.1//EN" "http://www.w3.org/Graphics/SVG/1.1/DTD/svg11.dtd">
<svg version="1.1" id="svg5" xmlns="http://www.w3.org/2000/svg" xmlns:xlink="http://www.w3.org/1999/xlink" x="0px" y="0px"
	 width="1024px" height="768px" viewBox="0 0 1024 768" enable-background="new 0 0 1024 768" xml:space="preserve">
<g id="bg5">
	<rect x="-5882.951" y="-5137.504" fill="#F5ECD9" width="12784.607" height="11218.004"/>
</g>
<g id="sky">
	<rect x="-7653.467" y="-7098.016" fill="#2BACB5" stroke="#000000" stroke-miterlimit="10" width="15687.934" height="14889.029"/>
</g>
<g id="mountains">
	<g>
		<path fill="#D4E5F6" d="M-792.243,1119.833"/>
		<polygon fill="#14757B" points="-209.3,510.472 -37.804,689.235 -193.184,705.394 		"/>
		<polygon fill="#ACE8EA" points="-402.598,667.509 -345.107,604.72 -321.267,642.229 -398.216,859.793 		"/>
		<path fill="#A7C6E8" d="M-927.366,1503.302"/>
		<path fill="#A7C6E8" d="M-1577.241,1702.573"/>
		<path fill="#C1DDF3" d="M-1577.241,1702.573"/>
		<path fill="#5984C3" d="M-832.03,1389.982"/>
		<path fill="#A7C6E8" d="M-588.439,1107.608"/>
		<path fill="#0D72B9" d="M-854.126,1095.198"/>
		<polygon fill="#ACE8EA" points="-854.126,1095.198 -735.19,578.242 -588.439,1107.608 		"/>
		<polygon fill="#F5ECD9" points="-735.19,578.242 -649.129,529.291 -588.439,1107.608 		"/>
		<polygon fill="#FFFFFF" points="-646.729,553.362 -649.129,529.291 -566.951,373.859 -471.992,709.22 		"/>
		<polygon fill="#229098" points="-588.439,1107.608 -471.992,709.22 -626.096,552.59 -646.729,553.362 		"/>
		<polygon fill="#F5ECD9" points="-345.107,1147.357 -588.439,1107.608 -471.992,709.22 -402.598,667.509 		"/>
		<polygon fill="#C1E8E7" points="-566.951,373.859 -402.598,667.509 -471.992,709.22 		"/>
		<path fill="#5984C3" d="M-854.126,1095.198"/>
		<polygon fill="#FFFFFF" points="-345.107,604.72 -209.3,510.472 -180.034,864.441 		"/>
		<polygon fill="#14757B" points="-398.216,859.793 -330.423,1226.866 -180.034,864.441 -321.267,642.229 		"/>
		<polygon fill="#ACE8EA" points="-357.747,1078.915 -330.423,1226.866 -398.216,859.793 -588.439,1107.608 		"/>
		<polygon fill="#229098" points="-209.3,510.472 -193.184,705.394 -180.034,864.441 		"/>
		<polygon fill="#14757B" points="-191.831,1193.399 -180.034,864.441 -330.423,1226.866 		"/>
		<polygon fill="#229098" points="71.511,1204.285 -191.831,1193.399 -180.034,864.441 		"/>
		<polygon fill="#ACE8EA" points="71.511,1204.285 -37.804,689.235 -180.034,864.441 		"/>
		<polygon fill="#F5ECD9" points="71.511,1204.285 227.962,1204.132 -37.804,689.235 		"/>
		<polygon fill="#14757B" points="-37.804,689.235 171.052,897.846 227.962,1204.132 		"/>
		<polygon fill="#63D3D6" points="227.962,1204.132 426.55,1189.605 171.052,897.846 		"/>
		<polygon fill="#ACE8EA" points="-37.804,689.235 -116.212,415.166 88.257,723.859 		"/>
		<polygon fill="#63D3D6" points="171.052,897.846 88.257,723.859 -37.804,689.235 		"/>
		<polygon fill="#FFFFFF" points="-37.804,689.235 -116.212,415.166 -209.3,510.472 		"/>
		<polygon fill="#229098" points="-402.598,667.509 -345.107,604.72 -566.951,373.859 		"/>
		<polygon fill="#63D3D6" points="426.55,1189.605 490.663,1138.932 273.831,934.037 		"/>
		<polygon fill="#ACE8EA" points="490.663,1138.932 701.151,1101.004 454.37,929.785 273.831,934.037 		"/>
		<polygon fill="#C1E8E7" points="255.411,944.84 148.075,795.87 148.075,691.64 250.054,605.882 454.37,929.785 		"/>
		<polygon fill="#1C8389" points="701.151,1101.004 250.054,605.882 454.37,929.785 		"/>
		<polygon fill="#FFFFFF" points="168.141,820.025 255.411,944.84 250.054,605.882 88.257,723.859 		"/>
		<polygon fill="#63D3D6" points="488.188,867.465 599.411,883.821 761.608,1042.641 701.151,1101.004 		"/>
		<polygon fill="#C1E8E7" points="454.37,929.785 490.663,1138.932 255.411,944.84 		"/>
		<polygon fill="#C1E8E7" points="599.411,883.821 701.151,1101.004 761.608,1042.641 		"/>
	</g>
</g>
<g id="clouds">
	<path fill="#F5ECD9" d="M188.406,612.645c0-10.18-8.252-18.432-18.432-18.432c-10.18,0-18.432,8.252-18.432,18.432H188.406z"/>
	<path fill="#F5ECD9" d="M273.68,612.645c0-10.18-8.252-18.432-18.432-18.432c-10.18,0-18.432,8.252-18.432,18.432H273.68z"/>
	<path fill="#F5ECD9" d="M231.043,612.645c0-15.689-12.727-28.424-28.426-28.424c-15.697,0-28.424,12.729-28.424,28.424H231.043z"/>
	<g>
		<path fill="#F5ECD9" d="M253.926,335.688c0-4.557-3.693-8.25-8.25-8.25c-4.557,0-8.25,3.693-8.25,8.25H253.926z"/>
		<path fill="#F5ECD9" d="M279.373,335.688c0-3.513-2.848-6.361-6.361-6.361c-3.513,0-6.361,2.849-6.361,6.361H279.373z"/>
		<path fill="#F5ECD9" d="M273.012,335.688c0-7.026-5.697-12.723-12.725-12.723c-7.025,0-12.723,5.696-12.723,12.723H273.012z"/>
	</g>
	<g>
		<path fill="#F5ECD9" d="M460.604,534.379c0-6.624,5.369-11.992,11.993-11.992c6.622,0,11.991,5.368,11.991,11.992H460.604z"/>
		<path fill="#F5ECD9" d="M376.655,534.379c0-9.936,8.054-17.989,17.979-17.989c9.938,0,17.988,8.062,17.988,17.989H376.655z"/>
		<path fill="#F5ECD9" d="M400.641,534.379c0-19.871,16.107-35.979,35.979-35.979s35.979,16.104,35.979,35.979H400.641z"/>
	</g>
	<g>
		<path fill="#F5ECD9" d="M482.551,554.23c0-5.273,4.275-9.557,9.549-9.557c5.271,0,9.557,4.273,9.557,9.557H482.551z"/>
		<path fill="#F5ECD9" d="M497.275,554.23c0-4.064,3.297-7.361,7.354-7.361c4.066,0,7.363,3.297,7.363,7.361H497.275z"/>
	</g>
	<g>
		<g>
			<path fill="#F5ECD9" d="M803.939,380.535c0-19.677-15.953-35.632-35.641-35.632c-19.676,0-35.627,15.955-35.627,35.632H803.939z"
				/>
			<path fill="#F5ECD9" d="M830.496,380.535c0-14.669-11.889-26.558-26.557-26.558c-14.678,0-26.562,11.889-26.562,26.558H830.496z"
				/>
			<path fill="#F5ECD9" d="M744.854,380.535c0-8.801-7.137-15.936-15.938-15.936c-8.797,0-15.934,7.135-15.934,15.936H744.854z"/>
		</g>
		<g>
			<path fill="#F5ECD9" d="M418.438,513.637c0-18.051-14.633-32.684-32.684-32.684s-32.684,14.633-32.684,32.684H418.438z"/>
			<path fill="#F5ECD9" d="M377.432,513.637c0-13.455-10.896-24.354-24.354-24.354c-13.453,0-24.359,10.896-24.359,24.354H377.432z"
				/>
			<path fill="#F5ECD9" d="M437.926,513.637c0-10.764-8.727-19.479-19.488-19.479c-10.764,0-19.479,8.725-19.479,19.479H437.926z"/>
			<path fill="#F5ECD9" d="M338.455,513.637c0-8.062-6.543-14.617-14.615-14.617s-14.617,6.555-14.617,14.617H338.455z"/>
		</g>
		<g>
			<path fill="#F5ECD9" d="M366.605,442.211"/>
			<path fill="#F5ECD9" d="M346.316,370.211"/>
			<g>
				<path fill="#F5ECD9" d="M667.055,556.801c0-8.953-7.258-16.211-16.211-16.211s-16.211,7.258-16.211,16.211H667.055z"/>
				<path fill="#F5ECD9" d="M717.055,556.801c0-6.896-5.596-12.5-12.5-12.5c-6.896,0-12.5,5.604-12.5,12.5H717.055z"/>
				<path fill="#F5ECD9" d="M704.555,556.801c0-13.807-11.188-25-25-25c-13.807,0-25,11.193-25,25H704.555z"/>
			</g>
			<g>
				<path fill="#F5ECD9" d="M304.781,534.908c0-7.674-6.229-13.896-13.896-13.896s-13.895,6.229-13.895,13.896H304.781z"/>
				<path fill="#F5ECD9" d="M315.139,534.908c0-5.721-4.637-10.357-10.354-10.357s-10.357,4.646-10.357,10.357H315.139z"/>
				<path fill="#F5ECD9" d="M281.736,534.908c0-3.438-2.783-6.215-6.215-6.215s-6.215,2.773-6.215,6.215H281.736z"/>
			</g>
			<g>
				<path fill="#F5ECD9" d="M362.755,376.418c0-8.264-6.697-14.961-14.961-14.961c-8.265,0-14.959,6.697-14.959,14.961H362.755z"/>
				<path fill="#F5ECD9" d="M467.479,376.418c0-12.395-10.047-22.441-22.438-22.441s-22.44,10.047-22.44,22.441H467.479z"/>
				<path fill="#F5ECD9" d="M437.558,376.418c0-24.789-20.094-44.883-44.881-44.883s-44.886,20.094-44.886,44.883H437.558z"/>
			</g>
			<g>
				<path fill="#F5ECD9" d="M511.904,600.949c0-5.273-4.273-9.547-9.547-9.547c-5.271,0-9.557,4.271-9.557,9.547H511.904z"/>
				<path fill="#F5ECD9" d="M497.182,600.949c0-4.064-3.297-7.361-7.354-7.361c-4.064,0-7.361,3.297-7.361,7.361H497.182z"/>
			</g>
			<g>
				<path fill="#F5ECD9" d="M618.623,107.473c0-5.273-4.275-9.547-9.549-9.547c-5.271,0-9.547,4.273-9.547,9.547H618.623z"/>
				<path fill="#F5ECD9" d="M603.898,107.473c0-4.064-3.307-7.361-7.361-7.361c-4.066,0-7.363,3.297-7.363,7.361H603.898z"/>
			</g>
			<g>
				<path fill="#F5ECD9" d="M856.65,47.383c0-4.557-3.693-8.25-8.25-8.25c-4.562,0-8.25,3.693-8.25,8.25H856.65z"/>
				<path fill="#F5ECD9" d="M882.098,47.383c0-3.513-2.848-6.361-6.354-6.361c-3.521,0-6.361,2.849-6.361,6.361H882.098z"/>
				<path fill="#F5ECD9" d="M875.736,47.383c0-7.026-5.697-12.723-12.729-12.723c-7.021,0-12.723,5.696-12.723,12.723H875.736z"/>
			</g>
			<g>
				<path fill="#F5ECD9" d="M66,395.904c0-5.273,4.275-9.547,9.549-9.547c5.271,0,9.547,4.271,9.547,9.547H66z"/>
				<path fill="#F5ECD9" d="M80.725,395.904c0-4.064,3.297-7.361,7.361-7.361c4.066,0,7.363,3.297,7.363,7.361H80.725z"/>
			</g>
		</g>
	</g>
	<g>
		<g>
			<path fill="#F5ECD9" d="M64.212,540.55h-8v-1h8V540.55z M48.212,540.55h-8v-1h8V540.55z M32.212,540.55h-8v-1h8V540.55z
				 M16.212,540.55h-8v-1h8V540.55z M0.212,540.55h-8v-1h8V540.55z M-15.788,540.55h-8v-1h8V540.55z M-31.788,540.55h-8v-1h8V540.55
				z M-47.788,540.55h-8v-1h8V540.55z M-63.788,540.55h-8v-1h8V540.55z M-79.788,540.55h-8v-1h8V540.55z M-95.788,540.55h-8v-1h8
				V540.55z M-111.788,540.55h-5.417v-1h5.417V540.55z"/>
		</g>
		<g>
			<path fill="#F5ECD9" d="M1151.275,93.095h-8v-1h8V93.095z M1135.275,93.095h-8v-1h8V93.095z M1119.275,93.095h-8v-1h8V93.095z
				 M1103.275,93.095h-8v-1h8V93.095z M1087.275,93.095h-8v-1h8V93.095z M1071.275,93.095h-8v-1h8V93.095z M1055.275,93.095h-8v-1h8
				V93.095z"/>
		</g>
		<g>
			<path fill="#F5ECD9" d="M161.096,317.734h-8v-1h8V317.734z M145.096,317.734h-8v-1h8V317.734z M129.096,317.734h-8v-1h8V317.734z
				 M113.096,317.734h-8v-1h8V317.734z M97.096,317.734h-8v-1h8V317.734z M81.096,317.734h-8v-1h8V317.734z M65.096,317.734h-8v-1h8
				V317.734z M49.096,317.734h-8v-1h8V317.734z M33.096,317.734h-8v-1h8V317.734z M17.096,317.734h-8v-1h8V317.734z"/>
		</g>
	</g>
</g>
<g id="Layer_1_1_">
	<g id="plane">
		<g>
			<path fill="#FFFEF0" d="M1113.342,663.949c2.248,0.031,5.4,0.428,5.4,0.428s-3.152,0.396-5.4,0.429
				c-2.246,0.031-4.113-0.429-4.113-0.429S1111.096,663.917,1113.342,663.949z"/>
			<g>
				<g>
					<g>
						<path fill="#C8C6BC" d="M1109.227,664.382l21.562,15.711c0,0,1.24,0.325,3.158,0.729l-22.969-16.438L1109.227,664.382
							L1109.227,664.382z"/>
						<path fill="#FFFEF0" d="M1133.947,680.816c3.021,0.625,7.729,1.432,11.938,1.432c5.487,0,17.938-1.835,17.938-1.835
							l-45.25-16.03h-7.595L1133.947,680.816z"/>
					</g>
				</g>
			</g>
			<path opacity="0.4" fill="#BCBAD0" enable-background="new    " d="M1109.227,664.377c0,0,1.868-0.46,4.114-0.428
				c2.248,0.031,5.4,0.428,5.4,0.428s-0.049,0.006-0.137,0.018l45.217,16.021c0,0-12.441,1.835-17.931,1.835
				c-4.225,0-8.932-0.807-11.944-1.432c-1.918-0.397-3.158-0.729-3.158-0.729l-21.562-15.711h0.021
				C1109.234,664.379,1109.227,664.377,1109.227,664.377z"/>
		</g>
		<g>
			<g>
				<g>
					<path fill="#C8C6BC" d="M1265.205,676.9l35.201,25.646c0,0,2.021,0.53,5.158,1.183l-37.5-26.822L1265.205,676.9L1265.205,676.9
						z"/>
					<path fill="#FFFEF0" d="M1305.564,703.73c4.934,1.021,12.609,2.337,19.502,2.337c8.959,0,29.271-2.995,29.271-2.995
						L1280.46,676.9h-12.396L1305.564,703.73z"/>
				</g>
			</g>
			<polygon opacity="0.4" fill="#BCBAD0" enable-background="new    " points="1318.875,690.482 1277.662,685.979 1283.682,690.482 
							"/>
		</g>
		<g>
			<path id="carlinga" fill="#FFFEF0" d="M1142.924,660.316l13.281,18.166l48,12h176c0,0,39.5-2.166,51.734,6l4.334,4
				c0,0,12.021,4.545,13.649,9.002c0.123,0.334,0.193,0.668,0.189,0.998c-0.062,4.862-12.668,16-69.918,16h-144
				c-10.688,0-25.562-3.02-41.857-7.229c-38.156-9.871-81.893-26.356-81.893-26.356v-8.573l8.647-2.102l-5.729-21.898
				L1142.924,660.316L1142.924,660.316z"/>
			<polygon fill="#FFFEF0" points="1107.561,630.482 1121.111,630.482 1134.395,648.65 1112.318,648.65 			"/>
			<g>
				<polygon fill="#FFFEF0" points="1119.318,660.316 1115.373,660.316 1112.318,648.65 1115.705,648.65 				"/>
				<polygon fill="#8CC152" points="1134.395,648.65 1142.924,660.316 1119.318,660.316 1115.705,648.65 				"/>
			</g>
		</g>
		<g>
			<polygon fill="#C8C6BC" points="1150.311,687.645 1136.586,701.598 1123.834,697.091 			"/>
			<g>
				<path fill="#C8C6BC" d="M1098.982,702.715l20.27-14.771c0,0,1.168-0.312,2.971-0.688l-21.594,15.448L1098.982,702.715
					L1098.982,702.715z"/>
				<path fill="#FFFEF0" d="M1122.223,687.266c2.853-0.589,7.271-1.346,11.23-1.346c5.158,0,16.857,1.725,16.857,1.725
					l-38.533,15.07h-11.148L1122.223,687.266z"/>
			</g>
		</g>
		<g>
			
				<rect x="1117.56" y="629.393" transform="matrix(0.9548 -0.2974 0.2974 0.9548 -144.0602 362.1042)" fill="#8CC152" width="0.998" height="50.253"/>
		</g>
		<g>
			<path fill="none" stroke="#4E4B80" stroke-width="10" stroke-miterlimit="10" d="M1225.705,716.482"/>
		</g>
		<g>
			<g>
				<path fill="#DA4453" d="M1225.205,708.816h161l5,5h-166c-24.695,0-42.611-0.604-55.266-1.331
					c-7.486-2.277-14.781-4.625-21.525-6.87C1156.775,706.678,1179.311,708.816,1225.205,708.816z"/>
			</g>
			<g>
				<path fill="#DA4453" d="M1225.205,715.537h133.168l-2.5,2.5h-130.668c-15.123,0-27.693-0.229-38.064-0.567
					c-3.434-0.938-6.885-1.921-10.312-2.928C1188.842,715.11,1204.693,715.537,1225.205,715.537z"/>
			</g>
		</g>
		<path fill="#E4E2D6" d="M1449.934,709.484c0.123,0.334,0.193,0.668,0.189,0.998c-0.062,4.862-12.668,16-69.918,16h-144
			c-27,0-87.791-20.867-87.791-20.867s28.406,12.142,114.791,12.142C1442.361,717.757,1449.604,709.562,1449.934,709.484z"/>
		<g>
			<g>
				<path fill="#EDEDE6" d="M1344.287,730.434c-23.959,3.375-34.617-0.269-41.162-2v-12c6.545-1.729,17.203-5.375,41.162-2V730.434z
					"/>
				<polygon fill="#C8C6BC" points="1346.859,716.434 1346.859,718.434 1346.859,728.434 1344.287,730.434 1344.287,718.434 
					1344.287,714.434 				"/>
				<g>
					<polygon fill="#EDEDE6" points="1303.125,727.517 1300.551,726.881 1300.551,717.985 1303.125,717.351 					"/>
					<g>
						<polygon fill="#EDEDE6" points="1300.551,725.611 1292.834,723.704 1292.834,721.163 1300.551,719.257 						"/>
					</g>
				</g>
				<g>
					<path fill="#C8C6BC" d="M1302.496,716.434c5.711-1.511,14.555-4.476,32.623-2.967l-17.943,17.944
						c-6.826-0.688-11.305-2.084-14.68-2.979V716.434z"/>
				</g>
			</g>
			<g>
				<path fill="#C8C6BC" d="M1245.986,739.482l35.201-25.648c0,0,2.021-0.531,5.147-1.18l-37.5,26.829L1245.986,739.482
					L1245.986,739.482z"/>
				<path fill="#FFFEF0" d="M1286.346,712.654c4.938-1.021,12.619-2.338,19.5-2.338c8.959,0,29.273,2.986,29.273,2.986
					l-66.914,26.18h-19.359L1286.346,712.654z"/>
			</g>
		</g>
		<g>
			<path fill="#3BAFDA" d="M1431.939,696.482h-11.734c0,0-0.848,4,16.068,4L1431.939,696.482L1431.939,696.482z"/>
			<g>
				<g>
					<path fill="#54A2BD" d="M1202.705,700.482c0,0.551,0.451,1,1,1h1c0.551,0,1-0.449,1-1v-2c0-0.559-0.449-1-1-1h-1
						c-0.549,0-1,0.441-1,1V700.482z"/>
				</g>
				<g>
					<path fill="#54A2BD" d="M1210.705,700.482c0,0.551,0.451,1,1,1h1c0.551,0,1-0.449,1-1v-2c0-0.559-0.449-1-1-1h-1
						c-0.549,0-1,0.441-1,1V700.482z"/>
				</g>
				<g>
					<path fill="#54A2BD" d="M1218.705,700.482c0,0.551,0.451,1,1,1h1c0.551,0,1-0.449,1-1v-2c0-0.559-0.449-1-1-1h-1
						c-0.549,0-1,0.441-1,1V700.482z"/>
				</g>
				<g>
					<path fill="#54A2BD" d="M1226.705,700.482c0,0.551,0.451,1,1,1h1c0.551,0,1-0.449,1-1v-2c0-0.559-0.449-1-1-1h-1
						c-0.549,0-1,0.441-1,1V700.482z"/>
				</g>
				<g>
					<path fill="#54A2BD" d="M1234.705,700.482c0,0.551,0.451,1,1,1h1c0.551,0,1-0.449,1-1v-2c0-0.559-0.449-1-1-1h-1
						c-0.549,0-1,0.441-1,1V700.482z"/>
				</g>
				<g>
					<path fill="#54A2BD" d="M1242.705,700.482c0,0.551,0.451,1,1,1h1c0.551,0,1-0.449,1-1v-2c0-0.559-0.449-1-1-1h-1
						c-0.549,0-1,0.441-1,1V700.482z"/>
				</g>
				<g>
					<path fill="#54A2BD" d="M1250.705,700.482c0,0.551,0.451,1,1,1h1c0.551,0,1-0.449,1-1v-2c0-0.559-0.449-1-1-1h-1
						c-0.549,0-1,0.441-1,1V700.482z"/>
				</g>
				<g>
					<path fill="#54A2BD" d="M1258.705,700.482c0,0.551,0.451,1,1,1h1c0.551,0,1-0.449,1-1v-2c0-0.559-0.449-1-1-1h-1
						c-0.549,0-1,0.441-1,1V700.482z"/>
				</g>
				<g>
					<path fill="#54A2BD" d="M1266.705,700.482c0,0.551,0.451,1,1,1h1c0.551,0,1-0.449,1-1v-2c0-0.559-0.449-1-1-1h-1
						c-0.549,0-1,0.441-1,1V700.482z"/>
				</g>
				<g>
					<path fill="#54A2BD" d="M1274.705,700.482c0,0.551,0.451,1,1,1h1c0.551,0,1-0.449,1-1v-2c0-0.559-0.449-1-1-1h-1
						c-0.549,0-1,0.441-1,1V700.482z"/>
				</g>
				<g>
					<path fill="#54A2BD" d="M1282.705,700.482c0,0.551,0.451,1,1,1h1c0.551,0,1-0.449,1-1v-2c0-0.559-0.449-1-1-1h-1
						c-0.549,0-1,0.441-1,1V700.482z"/>
				</g>
				<g>
					<path fill="#54A2BD" d="M1290.705,700.482c0,0.551,0.451,1,1,1h1c0.551,0,1-0.449,1-1v-2c0-0.559-0.449-1-1-1h-1
						c-0.549,0-1,0.441-1,1V700.482z"/>
				</g>
				<g>
					<path fill="#54A2BD" d="M1298.705,700.482c0,0.551,0.451,1,1,1h1c0.551,0,1-0.449,1-1v-2c0-0.559-0.449-1-1-1h-1
						c-0.549,0-1,0.441-1,1V700.482z"/>
				</g>
				<g>
					<path fill="#54A2BD" d="M1306.705,700.482c0,0.551,0.451,1,1,1h1c0.551,0,1-0.449,1-1v-2c0-0.559-0.449-1-1-1h-1
						c-0.549,0-1,0.441-1,1V700.482z"/>
				</g>
				<g>
					<path fill="#54A2BD" d="M1314.705,700.482c0,0.551,0.451,1,1,1h1c0.551,0,1-0.449,1-1v-2c0-0.559-0.449-1-1-1h-1
						c-0.549,0-1,0.441-1,1V700.482z"/>
				</g>
				<g>
					<path fill="#54A2BD" d="M1322.705,700.482c0,0.551,0.451,1,1,1h1c0.551,0,1-0.449,1-1v-2c0-0.559-0.449-1-1-1h-1
						c-0.549,0-1,0.441-1,1V700.482z"/>
				</g>
				<g>
					<path fill="#54A2BD" d="M1330.705,700.482c0,0.551,0.451,1,1,1h1c0.551,0,1-0.449,1-1v-2c0-0.559-0.449-1-1-1h-1
						c-0.549,0-1,0.441-1,1V700.482z"/>
				</g>
				<g>
					<path fill="#54A2BD" d="M1338.705,700.482c0,0.551,0.451,1,1,1h1c0.551,0,1-0.449,1-1v-2c0-0.559-0.449-1-1-1h-1
						c-0.549,0-1,0.441-1,1V700.482z"/>
				</g>
				<g>
					<path fill="#54A2BD" d="M1346.705,700.482c0,0.551,0.451,1,1,1h1c0.551,0,1-0.449,1-1v-2c0-0.559-0.449-1-1-1h-1
						c-0.549,0-1,0.441-1,1V700.482z"/>
				</g>
				<g>
					<path fill="#54A2BD" d="M1354.705,700.482c0,0.551,0.451,1,1,1h1c0.551,0,1-0.449,1-1v-2c0-0.559-0.449-1-1-1h-1
						c-0.549,0-1,0.441-1,1V700.482z"/>
				</g>
				<g>
					<path fill="#54A2BD" d="M1362.705,700.482c0,0.551,0.451,1,1,1h1c0.551,0,1-0.449,1-1v-2c0-0.559-0.449-1-1-1h-1
						c-0.549,0-1,0.441-1,1V700.482z"/>
				</g>
				<g>
					<path fill="#54A2BD" d="M1370.705,700.482c0,0.551,0.451,1,1,1h1c0.551,0,1-0.449,1-1v-2c0-0.559-0.449-1-1-1h-1
						c-0.549,0-1,0.441-1,1V700.482z"/>
				</g>
				<g>
					<path fill="#54A2BD" d="M1378.705,700.482c0,0.551,0.451,1,1,1h1c0.551,0,1-0.449,1-1v-2c0-0.559-0.449-1-1-1h-1
						c-0.549,0-1,0.441-1,1V700.482z"/>
				</g>
				<g>
					<path fill="#54A2BD" d="M1386.705,700.482c0,0.551,0.451,1,1,1h1c0.551,0,1-0.449,1-1v-2c0-0.559-0.449-1-1-1h-1
						c-0.549,0-1,0.441-1,1V700.482z"/>
				</g>
			</g>
		</g>
		<path fill="#FFFEF0" d="M1255.596,738.482c5.248,0.065,12.609,1,12.609,1s-7.361,0.926-12.609,0.999
			c-5.248,0.066-9.604-0.999-9.604-0.999S1250.348,738.409,1255.596,738.482z"/>
		<path fill="#FFFEF0" d="M1104.537,702.126c3.033,0.044,7.289,0.578,7.289,0.578s-4.256,0.534-7.289,0.577
			s-5.555-0.577-5.555-0.577S1101.504,702.082,1104.537,702.126z"/>
		
			<rect x="1427.372" y="697.964" transform="matrix(-0.4503 -0.8929 0.8929 -0.4503 1450.3268 2289.822)" fill="#EDE3EB" width="5.309" height="1.003"/>
		
			<rect x="1423.168" y="697.492" transform="matrix(-0.1438 -0.9896 0.9896 -0.1438 939.5713 2208.8542)" fill="#EDE3EB" width="4.223" height="1.001"/>
		<circle fill="#E4E2D6" cx="1409.518" cy="704.921" r="0.5"/>
		<circle fill="#E4E2D6" cx="1192.611" cy="704.921" r="0.5"/>
	</g>
	<g id="torre">
		<g>
			<rect x="-589.07" y="481.503" fill="#FFFEF0" width="362.505" height="2900.03"/>
			<rect x="-951.575" y="481.503" fill="#FFFEF0" width="362.504" height="2900.03"/>
			<rect x="-864.493" y="481.503" fill="#E4E2D6" width="543.755" height="2900.03"/>
		</g>
		<g>
			<polygon opacity="0.4" fill="#C8C6BC" enable-background="new    " points="-770.321,662.756 -407.816,662.756 -226.565,617.441 
				-226.565,640.099 -407.816,685.413 -770.321,685.413 -951.575,640.099 -951.575,617.441 			"/>
		</g>
		<polygon opacity="0.4" fill="#C8C6BC" enable-background="new    " points="-223.021,617.441 -952.573,1346.993 -952.573,566.343 
			-226.565,566.343 		"/>
		<g>
			<rect x="-770.321" y="300.254" fill="#FFFEF0" width="362.505" height="362.502"/>
			<g>
				<g>
					<rect x="-600.396" y="-606.009" fill="#DA4453" width="22.655" height="453.127"/>
				</g>
				<g>
					<rect x="-770.321" y="-84.91" fill="#E4E2D6" width="362.505" height="45.314"/>
					<polygon fill="#FFFEF0" points="-1132.825,51.028 -770.321,-39.596 -770.321,-84.91 -1132.825,5.714 -1178.138,17.045 
						-1178.138,62.354 					"/>
					<polygon fill="#FFFEF0" points="-45.312,51.028 0,62.354 0,17.045 -45.312,5.714 -407.816,-84.91 -407.816,-39.596 					"/>
				</g>
				<polygon fill="#E4E2D6" points="-407.816,662.756 -45.312,572.126 -45.312,209.625 -407.816,300.254 				"/>
				<polygon fill="#E4E2D6" points="-1132.825,572.126 -770.321,662.756 -770.321,300.254 -1132.825,209.625 				"/>
				<polygon fill="#E4E2D6" points="-407.816,300.254 -45.312,209.625 -45.312,119 -407.816,209.625 				"/>
				<rect x="-770.321" y="209.625" fill="#FFFEF0" width="362.505" height="90.629"/>
				<polygon fill="#E4E2D6" points="-1132.825,209.625 -770.321,300.254 -770.321,209.625 -1132.825,119 				"/>
				<polygon fill="#FFFEF0" points="-770.321,-39.596 -1132.825,51.028 -1132.825,96.343 -770.321,5.714 				"/>
				<rect x="-770.321" y="-39.596" fill="#FFFEF0" width="362.505" height="45.31"/>
				<polygon fill="#FFFEF0" points="-45.312,51.028 -407.816,-39.596 -407.816,5.714 -45.312,96.343 				"/>
				<g>
					<polygon fill="#FFFEF0" points="-1132.825,96.343 -1178.138,107.669 -1178.138,62.354 -1132.825,51.028 					"/>
				</g>
				<polygon fill="#E4E2D6" points="0,62.354 -1178.138,62.354 -770.321,164.311 -407.816,164.311 				"/>
				<polygon fill="#FFFEF0" points="-1178.138,62.354 0,62.354 -407.816,-39.596 -770.321,-39.596 				"/>
				<g>
					<polygon fill="#E4E2D6" points="-135.939,62.354 -407.816,119 -441.803,-243.504 					"/>
					<polygon fill="#FFFEF0" points="-441.803,-243.504 -407.816,119 -770.321,119 -736.335,-243.504 					"/>
					<polygon fill="#E4E2D6" points="-736.335,-243.504 -770.321,119 -1042.198,62.354 					"/>
				</g>
				<g>
					<g>
						<rect x="-770.321" y="119" fill="#DA4453" width="362.505" height="45.311"/>
						<polygon fill="#BA3548" points="-1132.825,28.376 -770.321,119 -770.321,164.311 -770.321,209.625 -1132.825,119 
							-1178.138,107.669 -1178.138,62.354 -1178.138,17.045 						"/>
						<polygon fill="#ED5565" points="-45.312,28.376 0,17.045 0,62.354 0,107.669 -45.312,119 -407.816,209.625 -407.816,164.311 
							-407.816,119 						"/>
					</g>
				</g>
				<rect x="-770.321" y="164.311" fill="#DA4453" width="362.505" height="45.314"/>
				<polygon opacity="0.4" fill="#C8C6BC" enable-background="new    " points="-407.816,209.625 -45.312,119 -45.312,164.311 
					-407.816,254.939 -770.321,254.939 -1132.825,164.311 -1132.825,119 -770.321,209.625 				"/>
			</g>
		</g>
		<path fill="#FFFEF0" d="M-611.726-606.009c0,12.512,10.146,22.655,22.655,22.655c12.514,0,22.657-10.144,22.657-22.655
			c0-12.514-10.144-22.657-22.657-22.657C-601.579-628.666-611.726-618.522-611.726-606.009z"/>
	</g>
</g>
<g id="contacts">
	<rect x="-2766.482" y="342.5" fill="#E84D5B" width="6910.617" height="445.5"/>
	<path id="office" fill="#F5ECD9" d="M39.378,466.62v1.143c0,0.154-0.057,0.289-0.17,0.402s-0.248,0.17-0.402,0.17h-1.143
		c-0.155,0-0.289-0.057-0.402-0.17c-0.114-0.113-0.17-0.248-0.17-0.402v-1.143c0-0.155,0.057-0.289,0.17-0.402
		c0.113-0.107,0.247-0.17,0.402-0.17h1.143c0.154,0,0.289,0.062,0.402,0.17C39.321,466.331,39.378,466.465,39.378,466.62z
		 M39.378,462.048v1.146c0,0.148-0.057,0.289-0.17,0.396c-0.113,0.113-0.248,0.17-0.402,0.17h-1.143
		c-0.155,0-0.289-0.057-0.402-0.17c-0.114-0.107-0.17-0.248-0.17-0.396v-1.146c0-0.155,0.057-0.289,0.17-0.396
		c0.113-0.113,0.247-0.176,0.402-0.176h1.143c0.154,0,0.289,0.062,0.402,0.176C39.321,461.759,39.378,461.893,39.378,462.048z
		 M43.95,462.048v1.146c0,0.148-0.057,0.289-0.17,0.396c-0.113,0.113-0.247,0.17-0.402,0.17h-1.143c-0.154,0-0.289-0.057-0.402-0.17
		c-0.113-0.107-0.17-0.248-0.17-0.396v-1.146c0-0.155,0.057-0.289,0.17-0.396c0.113-0.113,0.248-0.176,0.402-0.176h1.143
		c0.155,0,0.289,0.062,0.402,0.176C43.894,461.759,43.95,461.893,43.95,462.048z M39.378,457.477v1.146
		c0,0.154-0.057,0.288-0.17,0.398s-0.248,0.172-0.402,0.172h-1.143c-0.155,0-0.289-0.062-0.402-0.172
		c-0.114-0.11-0.17-0.244-0.17-0.398v-1.146c0-0.149,0.057-0.289,0.17-0.396c0.113-0.113,0.247-0.171,0.402-0.171h1.143
		c0.154,0,0.289,0.058,0.402,0.171C39.321,457.188,39.378,457.32,39.378,457.477z M53.091,466.62v1.143
		c0,0.154-0.057,0.289-0.17,0.402c-0.113,0.113-0.246,0.17-0.401,0.17h-1.144c-0.154,0-0.288-0.057-0.401-0.17
		c-0.113-0.113-0.17-0.248-0.17-0.402v-1.143c0-0.155,0.057-0.289,0.17-0.402c0.113-0.107,0.247-0.17,0.401-0.17h1.144
		c0.155,0,0.288,0.062,0.401,0.17C53.034,466.331,53.091,466.465,53.091,466.62z M48.521,462.048v1.146
		c0,0.148-0.057,0.289-0.17,0.396c-0.113,0.113-0.248,0.17-0.402,0.17h-1.143c-0.154,0-0.289-0.057-0.402-0.17
		c-0.113-0.107-0.17-0.248-0.17-0.396v-1.146c0-0.155,0.057-0.289,0.17-0.396c0.113-0.113,0.248-0.176,0.402-0.176h1.143
		c0.154,0,0.289,0.062,0.402,0.176C48.464,461.759,48.521,461.893,48.521,462.048z M43.95,457.477v1.146
		c0,0.154-0.057,0.288-0.17,0.398c-0.113,0.11-0.247,0.172-0.402,0.172h-1.143c-0.154,0-0.289-0.062-0.402-0.172
		s-0.17-0.244-0.17-0.398v-1.146c0-0.149,0.057-0.289,0.17-0.396c0.113-0.113,0.248-0.171,0.402-0.171h1.143
		c0.155,0,0.289,0.058,0.402,0.171C43.894,457.188,43.95,457.32,43.95,457.477z M39.378,452.904v1.144
		c0,0.154-0.057,0.288-0.17,0.401s-0.248,0.171-0.402,0.171h-1.143c-0.155,0-0.289-0.062-0.402-0.171
		c-0.114-0.113-0.17-0.247-0.17-0.401v-1.144c0-0.154,0.057-0.288,0.17-0.401c0.113-0.112,0.247-0.17,0.402-0.17h1.143
		c0.154,0,0.289,0.058,0.402,0.17C39.321,452.616,39.378,452.75,39.378,452.904z M53.091,462.048v1.146
		c0,0.148-0.057,0.289-0.17,0.396c-0.113,0.113-0.246,0.17-0.401,0.17h-1.144c-0.154,0-0.288-0.057-0.401-0.17
		c-0.113-0.107-0.17-0.248-0.17-0.396v-1.146c0-0.155,0.057-0.289,0.17-0.396c0.113-0.113,0.247-0.176,0.401-0.176h1.144
		c0.155,0,0.288,0.062,0.401,0.176C53.034,461.759,53.091,461.893,53.091,462.048z M48.521,457.477v1.146
		c0,0.154-0.057,0.288-0.17,0.398c-0.113,0.11-0.248,0.172-0.402,0.172h-1.143c-0.154,0-0.289-0.062-0.402-0.172
		c-0.113-0.11-0.17-0.244-0.17-0.398v-1.146c0-0.149,0.057-0.289,0.17-0.396c0.113-0.113,0.248-0.171,0.402-0.171h1.143
		c0.154,0,0.289,0.058,0.402,0.171C48.464,457.188,48.521,457.32,48.521,457.477z M43.95,452.904v1.144
		c0,0.154-0.057,0.288-0.17,0.401c-0.113,0.113-0.247,0.171-0.402,0.171h-1.143c-0.154,0-0.289-0.062-0.402-0.171
		c-0.113-0.113-0.17-0.247-0.17-0.401v-1.144c0-0.154,0.057-0.288,0.17-0.401c0.113-0.112,0.248-0.17,0.402-0.17h1.143
		c0.155,0,0.289,0.058,0.402,0.17C43.894,452.616,43.95,452.75,43.95,452.904z M39.378,448.333v1.144
		c0,0.154-0.057,0.289-0.17,0.401c-0.113,0.113-0.248,0.17-0.402,0.17h-1.143c-0.155,0-0.289-0.057-0.402-0.17
		c-0.114-0.112-0.17-0.247-0.17-0.401v-1.144c0-0.153,0.057-0.288,0.17-0.401c0.113-0.108,0.247-0.17,0.402-0.17h1.143
		c0.154,0,0.289,0.062,0.402,0.17C39.321,448.045,39.378,448.18,39.378,448.333z M53.091,457.477v1.146
		c0,0.154-0.057,0.288-0.17,0.398c-0.113,0.11-0.246,0.172-0.401,0.172h-1.144c-0.154,0-0.288-0.062-0.401-0.172
		c-0.113-0.11-0.17-0.244-0.17-0.398v-1.146c0-0.149,0.057-0.289,0.17-0.396c0.113-0.113,0.247-0.171,0.401-0.171h1.144
		c0.155,0,0.288,0.058,0.401,0.171C53.034,457.188,53.091,457.32,53.091,457.477z M48.521,452.904v1.144
		c0,0.154-0.057,0.288-0.17,0.401c-0.113,0.113-0.248,0.171-0.402,0.171h-1.143c-0.154,0-0.289-0.062-0.402-0.171
		c-0.113-0.113-0.17-0.247-0.17-0.401v-1.144c0-0.154,0.057-0.288,0.17-0.401c0.113-0.112,0.248-0.17,0.402-0.17h1.143
		c0.154,0,0.289,0.058,0.402,0.17C48.464,452.616,48.521,452.75,48.521,452.904z M43.95,448.333v1.144
		c0,0.154-0.057,0.289-0.17,0.401c-0.113,0.113-0.247,0.17-0.402,0.17h-1.143c-0.154,0-0.289-0.057-0.402-0.17
		c-0.113-0.112-0.17-0.247-0.17-0.401v-1.144c0-0.153,0.057-0.288,0.17-0.401c0.113-0.108,0.248-0.17,0.402-0.17h1.143
		c0.155,0,0.289,0.062,0.402,0.17C43.894,448.045,43.95,448.18,43.95,448.333z M53.091,452.904v1.144
		c0,0.154-0.057,0.288-0.17,0.401c-0.113,0.113-0.246,0.171-0.401,0.171h-1.144c-0.154,0-0.288-0.062-0.401-0.171
		c-0.113-0.113-0.17-0.247-0.17-0.401v-1.144c0-0.154,0.057-0.288,0.17-0.401c0.113-0.112,0.247-0.17,0.401-0.17h1.144
		c0.155,0,0.288,0.058,0.401,0.17C53.034,452.616,53.091,452.75,53.091,452.904z M48.521,448.333v1.144
		c0,0.154-0.057,0.289-0.17,0.401c-0.113,0.113-0.248,0.17-0.402,0.17h-1.143c-0.154,0-0.289-0.057-0.402-0.17
		c-0.113-0.112-0.17-0.247-0.17-0.401v-1.144c0-0.153,0.057-0.288,0.17-0.401c0.113-0.108,0.248-0.17,0.402-0.17h1.143
		c0.154,0,0.289,0.062,0.402,0.17C48.464,448.045,48.521,448.18,48.521,448.333z M53.091,448.333v1.144
		c0,0.154-0.057,0.289-0.17,0.401c-0.113,0.113-0.246,0.17-0.401,0.17h-1.144c-0.154,0-0.288-0.057-0.401-0.17
		c-0.113-0.112-0.17-0.247-0.17-0.401v-1.144c0-0.153,0.057-0.288,0.17-0.401c0.113-0.108,0.247-0.17,0.401-0.17h1.144
		c0.155,0,0.288,0.062,0.401,0.17C53.034,448.045,53.091,448.18,53.091,448.333z M48.521,472.904h6.857V445.47H34.807v27.435h6.857
		v-4c0-0.154,0.057-0.288,0.17-0.401s0.248-0.17,0.402-0.17h5.715c0.154,0,0.288,0.057,0.401,0.17
		c0.113,0.113,0.17,0.247,0.17,0.401L48.521,472.904L48.521,472.904z M57.664,444.333v29.715c0,0.312-0.113,0.577-0.338,0.804
		c-0.227,0.229-0.494,0.345-0.805,0.345H33.664c-0.31,0-0.578-0.113-0.804-0.345c-0.226-0.226-0.339-0.488-0.339-0.804v-29.715
		c0-0.31,0.113-0.577,0.339-0.804c0.226-0.229,0.494-0.34,0.804-0.34h22.857c0.31,0,0.577,0.108,0.805,0.34
		C57.552,443.755,57.665,444.023,57.664,444.333z"/>
	<g id="email">
		<text transform="matrix(1 0 0 1 575.1455 499.6689)" fill="#F5ECD9" font-family="'Roboto-Light'" font-size="18">albinotonnina@gmail.com</text>
		<path fill="#F5ECD9" d="M560.021,502.468v-11.789c-0.321,0.369-0.681,0.707-1.061,1.015c-2.743,2.107-4.922,3.838-6.538,5.188
			c-0.521,0.438-0.947,0.784-1.271,1.024c-0.327,0.245-0.771,0.491-1.327,0.744c-0.562,0.251-1.081,0.375-1.572,0.375h-0.031
			c-0.491,0-1.017-0.124-1.57-0.375c-0.56-0.253-1-0.499-1.326-0.744c-0.326-0.24-0.75-0.588-1.273-1.024
			c-1.616-1.354-3.795-3.079-6.538-5.188c-0.379-0.308-0.729-0.646-1.059-1.015v11.789c0,0.133,0.048,0.248,0.146,0.345
			c0.101,0.099,0.213,0.146,0.349,0.146h22.599c0.133,0,0.248-0.054,0.346-0.146c0.1-0.097,0.146-0.212,0.146-0.345H560.021z
			 M560.021,486.335v-0.377c0,0-0.004-0.066-0.009-0.199c-0.005-0.134-0.02-0.197-0.047-0.191c-0.021,0.006-0.054-0.04-0.084-0.139
			c-0.03-0.097-0.076-0.136-0.138-0.116c-0.062,0.021-0.135,0.01-0.215-0.037h-22.6c-0.132,0-0.248,0.049-0.345,0.146
			s-0.146,0.213-0.146,0.346c0,1.72,0.753,3.171,2.258,4.358c1.975,1.556,4.021,3.178,6.148,4.862c0.062,0.055,0.24,0.2,0.538,0.452
			c0.297,0.251,0.532,0.442,0.705,0.576c0.174,0.132,0.401,0.293,0.688,0.482c0.277,0.188,0.539,0.328,0.771,0.422
			c0.235,0.093,0.456,0.139,0.662,0.14h0.03c0.204,0,0.425-0.046,0.66-0.14c0.229-0.096,0.489-0.23,0.771-0.422
			c0.28-0.189,0.511-0.354,0.688-0.482c0.175-0.135,0.405-0.325,0.705-0.576c0.297-0.252,0.475-0.396,0.533-0.452
			c2.131-1.688,4.185-3.312,6.154-4.862c0.554-0.44,1.066-1.031,1.543-1.773C559.784,487.609,560.021,486.938,560.021,486.335
			L560.021,486.335z M561.986,485.768v16.7c0,0.676-0.24,1.254-0.727,1.729c-0.479,0.48-1.059,0.727-1.729,0.727H536.93
			c-0.675,0-1.253-0.24-1.729-0.727c-0.481-0.479-0.727-1.06-0.727-1.729v-16.7c0-0.677,0.24-1.254,0.727-1.734
			c0.479-0.479,1.059-0.721,1.729-0.721h22.601c0.677,0,1.254,0.239,1.729,0.721C561.746,484.514,561.986,485.091,561.986,485.768z"
			/>
	</g>
	<g id="linkedin">
		<text transform="matrix(1 0 0 1 575.1455 546.5664)" fill="#F5ECD9" font-family="'Roboto-Light'" font-size="18">LinkedIn profile</text>
		<path fill="#F5ECD9" d="M538.717,548.556h4.125V536.16h-4.125V548.556z M543.109,532.343c-0.013-0.617-0.228-1.133-0.644-1.533
			c-0.416-0.402-0.971-0.605-1.661-0.605c-0.688,0-1.253,0.203-1.688,0.605c-0.438,0.4-0.651,0.916-0.651,1.533
			c0,0.606,0.212,1.115,0.634,1.525c0.424,0.411,0.979,0.617,1.652,0.617h0.018c0.703,0,1.271-0.206,1.696-0.617
			C542.895,533.458,543.108,532.949,543.109,532.343L543.109,532.343z M553.555,548.556h4.125v-7.106
			c0-1.833-0.434-3.221-1.303-4.16c-0.869-0.938-2.021-1.412-3.447-1.412c-1.619,0-2.862,0.697-3.729,2.09h0.03v-1.805h-4.125
			c0.036,0.787,0.036,4.918,0,12.396h4.125v-6.935c0-0.453,0.041-0.785,0.125-1c0.185-0.416,0.446-0.771,0.81-1.062
			c0.354-0.292,0.797-0.438,1.315-0.438c1.386,0,2.069,0.938,2.069,2.81L553.555,548.556L553.555,548.556z M561.914,530.735v17.143
			c0,1.416-0.504,2.629-1.51,3.639c-1.012,1.007-2.223,1.51-3.639,1.51h-17.144c-1.417,0-2.628-0.503-3.635-1.51
			c-1.011-1.01-1.514-2.223-1.514-3.639v-17.143c0-1.418,0.503-2.63,1.514-3.636c1.007-1.01,2.218-1.514,3.635-1.514h17.144
			c1.416,0,2.627,0.504,3.639,1.514C561.41,528.106,561.914,529.317,561.914,530.735z"/>
	</g>
	<g id="l500px">
		<text transform="matrix(1 0 0 1 864.5225 539.834)" fill="#F5ECD9" font-family="'Roboto-Light'" font-size="18">Photography</text>
		<path fill="#F5ECD9" d="M839.908,531.074c0.767,0,1.423,0.271,1.968,0.815s0.816,1.201,0.816,1.968
			c0,0.768-0.271,1.424-0.816,1.969c-0.545,0.544-1.201,0.815-1.968,0.815c-0.768,0-1.422-0.271-1.968-0.815
			c-0.544-0.545-0.816-1.201-0.816-1.969c0-0.767,0.272-1.423,0.816-1.968C838.486,531.346,839.142,531.074,839.908,531.074z
			 M848.454,527.052c0.684,0,1.267,0.242,1.749,0.727c0.482,0.482,0.726,1.065,0.726,1.75v8.661c0,0.684-0.241,1.267-0.726,1.75
			c-0.482,0.482-1.065,0.725-1.749,0.725h-13.611c-0.684,0-1.267-0.241-1.75-0.725c-0.482-0.484-0.725-1.066-0.725-1.75v-8.661
			c0-0.685,0.241-1.268,0.725-1.75c0.484-0.483,1.066-0.727,1.75-0.727h2.165l0.494-1.313c0.121-0.316,0.346-0.588,0.671-0.816
			c0.326-0.229,0.659-0.344,1.001-0.344h4.949c0.342,0,0.676,0.114,1.001,0.344c0.324,0.229,0.549,0.5,0.672,0.816l0.492,1.313
			H848.454z M839.908,538.188c1.191,0,2.212-0.423,3.06-1.271c0.849-0.847,1.271-1.867,1.271-3.061c0-1.191-0.423-2.212-1.271-3.06
			c-0.848-0.848-1.867-1.271-3.06-1.271c-1.193,0-2.213,0.424-3.061,1.271c-0.848,0.848-1.271,1.867-1.271,3.06
			s0.424,2.214,1.271,3.061C837.695,537.766,838.716,538.188,839.908,538.188z"/>
	</g>
	<g id="numidia">
		<rect x="59.167" y="432.834" fill="#E84D5B" width="124.667" height="53"/>
		<path fill="#F5ECD9" d="M116.91,466.954c-0.044,0.036-0.125,0.057-0.24,0.057h-1.004c-0.102,0-0.179-0.021-0.229-0.057
			c-0.051-0.035-0.076-0.113-0.076-0.232v-5.9c0-0.709-0.055-1.327-0.166-1.857c-0.111-0.529-0.306-0.971-0.585-1.313
			c-0.281-0.351-0.668-0.605-1.162-0.783c-0.494-0.183-1.117-0.271-1.87-0.271c-0.177,0-0.486,0.017-0.929,0.033
			c-0.443,0.021-0.922,0.085-1.438,0.188v9.905c0,0.119-0.022,0.197-0.066,0.232c-0.044,0.036-0.125,0.057-0.243,0.057h-0.996
			c-0.103,0-0.18-0.021-0.231-0.057c-0.052-0.035-0.078-0.113-0.078-0.232v-9.889c0-0.841,0.397-1.327,1.191-1.461
			c0.177-0.029,0.394-0.059,0.651-0.089c0.258-0.028,0.523-0.061,0.795-0.076c0.272-0.021,0.537-0.036,0.794-0.044
			c0.257-0.01,0.474-0.014,0.651-0.014c0.941,0,1.747,0.104,2.417,0.312c0.67,0.208,1.218,0.531,1.645,0.979
			c0.426,0.438,0.739,1.02,0.938,1.728c0.199,0.708,0.299,1.562,0.299,2.565v5.989C116.976,466.841,116.953,466.919,116.91,466.954z
			"/>
		<path fill="#F5ECD9" d="M119.055,455.43c0.043-0.037,0.125-0.058,0.243-0.058h0.996c0.119,0,0.199,0.021,0.243,0.058
			c0.044,0.036,0.066,0.113,0.066,0.23v6.018c0,0.729,0.045,1.348,0.133,1.859c0.089,0.517,0.265,0.938,0.531,1.271
			s0.638,0.578,1.118,0.741c0.479,0.162,1.109,0.243,1.891,0.243c0.177,0,0.482-0.012,0.919-0.033
			c0.434-0.021,0.91-0.085,1.426-0.188v-9.911c0-0.117,0.022-0.194,0.065-0.23c0.044-0.037,0.125-0.058,0.241-0.058h1.004
			c0.1,0,0.177,0.021,0.229,0.058c0.05,0.036,0.076,0.113,0.076,0.23v9.911c0,0.825-0.405,1.312-1.213,1.46
			c-0.207,0.023-0.439,0.06-0.695,0.089c-0.257,0.029-0.52,0.052-0.785,0.062c-0.263,0.021-0.519,0.026-0.761,0.033
			c-0.243,0.008-0.452,0.011-0.629,0.011c-0.956,0-1.762-0.096-2.416-0.281c-0.656-0.191-1.186-0.501-1.59-0.936
			c-0.406-0.428-0.699-0.979-0.883-1.67c-0.183-0.688-0.275-1.53-0.275-2.533v-6.146
			C118.987,455.543,119.009,455.466,119.055,455.43z"/>
		<path fill="#F5ECD9" d="M142.121,455.15c0.902,0,1.654,0.131,2.26,0.39s1.093,0.623,1.461,1.095
			c0.371,0.478,0.632,1.036,0.787,1.691c0.156,0.656,0.232,1.392,0.232,2.201v6.218c0,0.118-0.02,0.188-0.055,0.221
			c-0.038,0.031-0.116,0.046-0.236,0.046h-1.01c-0.12,0-0.201-0.015-0.247-0.046c-0.044-0.028-0.065-0.103-0.065-0.221v-5.886
			c0-1.461-0.244-2.535-0.728-3.229c-0.485-0.688-1.353-1.039-2.601-1.039c-0.221,0-0.471,0.021-0.752,0.063
			c-0.277,0.047-0.561,0.104-0.847,0.188c-0.286,0.081-0.565,0.175-0.839,0.276c-0.271,0.104-0.518,0.221-0.738,0.354
			c0.205,0.413,0.344,0.881,0.42,1.405c0.072,0.522,0.109,1.14,0.109,1.847v6.021c0,0.118-0.023,0.188-0.066,0.221
			c-0.047,0.031-0.127,0.046-0.248,0.046h-1.008c-0.105,0-0.18-0.015-0.226-0.046c-0.045-0.028-0.067-0.103-0.067-0.221v-6.062
			c0-0.662-0.055-1.248-0.168-1.758c-0.109-0.509-0.297-0.938-0.562-1.283c-0.265-0.348-0.627-0.604-1.084-0.781
			c-0.456-0.182-1.039-0.27-1.747-0.27c-0.177,0-0.458,0.012-0.84,0.033c-0.384,0.021-0.835,0.085-1.35,0.188v9.91
			c0,0.119-0.022,0.197-0.066,0.232c-0.044,0.036-0.125,0.057-0.242,0.057h-0.997c-0.103,0-0.18-0.021-0.232-0.057
			c-0.053-0.035-0.077-0.113-0.077-0.232v-9.889c0-0.84,0.398-1.327,1.196-1.461c0.178-0.029,0.377-0.062,0.598-0.09
			c0.221-0.027,0.45-0.06,0.687-0.075c0.236-0.022,0.466-0.036,0.686-0.044c0.223-0.01,0.415-0.019,0.576-0.019
			c0.901,0,1.65,0.104,2.25,0.304c0.597,0.194,1.126,0.521,1.583,0.965h0.021c0.562-0.385,1.207-0.689,1.939-0.918
			C140.561,455.268,141.324,455.15,142.121,455.15z"/>
		<path fill="#F5ECD9" d="M150.535,466.722c0,0.119-0.021,0.197-0.065,0.232c-0.046,0.036-0.126,0.057-0.244,0.057h-0.996
			c-0.104,0-0.181-0.021-0.231-0.057c-0.052-0.035-0.078-0.113-0.078-0.232v-11.038c0-0.112,0.026-0.19,0.078-0.229
			c0.051-0.037,0.127-0.062,0.231-0.062h0.996c0.116,0,0.198,0.021,0.244,0.062c0.044,0.036,0.065,0.114,0.065,0.229V466.722z"/>
		<path fill="#F5ECD9" d="M150.535,452.718c0,0.119-0.021,0.196-0.065,0.231c-0.046,0.037-0.126,0.056-0.244,0.056h-0.996
			c-0.104,0-0.181-0.019-0.231-0.056c-0.052-0.035-0.078-0.112-0.078-0.231v-1.564c0-0.116,0.026-0.192,0.078-0.23
			c0.051-0.036,0.127-0.057,0.231-0.057h0.996c0.116,0,0.198,0.021,0.244,0.057c0.044,0.038,0.065,0.114,0.065,0.23V452.718z"/>
		<path fill="#F5ECD9" d="M152.254,461.368c0-0.826,0.103-1.614,0.309-2.367c0.207-0.752,0.527-1.412,0.963-1.979
			c0.436-0.567,0.985-1.021,1.648-1.359c0.664-0.34,1.453-0.51,2.367-0.51c0.383,0,0.822,0.021,1.314,0.078
			c0.495,0.052,1,0.153,1.518,0.314v-4.425c0-0.118,0.021-0.195,0.065-0.232c0.044-0.03,0.123-0.056,0.24-0.056h1.024
			c0.103,0,0.176,0.021,0.219,0.056c0.043,0.037,0.066,0.114,0.066,0.232v14.999c0,0.178-0.074,0.296-0.223,0.354
			c-0.75,0.322-1.52,0.533-2.307,0.634c-0.787,0.098-1.513,0.146-2.174,0.146c-0.898,0-1.668-0.136-2.308-0.408
			c-0.642-0.271-1.163-0.664-1.567-1.174c-0.404-0.508-0.699-1.125-0.883-1.847C152.346,463.102,152.254,462.283,152.254,461.368z
			 M153.935,461.368c0,0.84,0.089,1.549,0.267,2.124c0.176,0.574,0.424,1.039,0.741,1.394c0.315,0.354,0.7,0.606,1.149,0.753
			c0.451,0.147,0.947,0.227,1.492,0.227c0.194,0,0.412-0.017,0.654-0.032c0.243-0.021,0.49-0.054,0.741-0.09
			c0.25-0.035,0.497-0.084,0.742-0.146c0.243-0.059,0.461-0.125,0.653-0.192v-8.392c-0.605-0.205-1.125-0.335-1.562-0.387
			c-0.434-0.053-0.82-0.077-1.161-0.077c-0.545,0-1.042,0.098-1.493,0.287c-0.451,0.19-0.841,0.485-1.171,0.885
			c-0.333,0.398-0.591,0.9-0.776,1.505C154.027,459.827,153.935,460.542,153.935,461.368z"/>
		<path fill="#F5ECD9" d="M176.642,465.992c0,0.265-0.104,0.438-0.31,0.53c-0.664,0.273-1.373,0.474-2.125,0.569
			c-0.752,0.104-1.476,0.154-2.168,0.154c-0.943,0-1.719-0.104-2.324-0.312c-0.604-0.207-1.082-0.479-1.438-0.812
			c-0.354-0.333-0.602-0.718-0.742-1.154c-0.139-0.436-0.209-0.891-0.209-1.358c0-0.552,0.096-1.062,0.287-1.543
			c0.192-0.479,0.482-0.897,0.875-1.259c0.391-0.354,0.881-0.631,1.471-0.825c0.59-0.2,1.291-0.306,2.103-0.306h2.942v-0.59
			c0-0.363-0.037-0.701-0.11-1.014c-0.073-0.312-0.214-0.577-0.421-0.796c-0.207-0.224-0.494-0.395-0.863-0.52
			c-0.367-0.123-0.848-0.186-1.438-0.186c-0.486,0-1.021,0.048-1.604,0.145c-0.582,0.102-1.08,0.211-1.491,0.349
			c-0.104,0.022-0.186,0.036-0.244,0.026c-0.06-0.006-0.104-0.062-0.134-0.164l-0.221-0.805c-0.043-0.164,0.015-0.276,0.177-0.337
			c0.266-0.104,0.553-0.198,0.863-0.28c0.31-0.084,0.63-0.147,0.962-0.213c0.332-0.062,0.668-0.103,1.006-0.125
			c0.339-0.021,0.656-0.033,0.953-0.033c1.429,0,2.487,0.316,3.174,0.951c0.685,0.636,1.028,1.562,1.028,2.787L176.642,465.992
			L176.642,465.992z M174.981,461.125h-2.854c-0.265,0-0.584,0.021-0.949,0.065c-0.37,0.046-0.721,0.146-1.053,0.316
			c-0.332,0.171-0.612,0.422-0.84,0.757c-0.229,0.333-0.344,0.788-0.344,1.366c0,0.444,0.085,0.815,0.254,1.11
			c0.169,0.297,0.398,0.533,0.686,0.712c0.289,0.178,0.617,0.301,0.984,0.366c0.369,0.062,0.754,0.1,1.15,0.1
			c0.133,0,0.314-0.007,0.542-0.021c0.228-0.019,0.483-0.035,0.764-0.064c0.28-0.03,0.563-0.077,0.853-0.146
			c0.287-0.062,0.556-0.146,0.807-0.229V461.125L174.981,461.125z"/>
		<path fill="#F5ECD9" d="M165.662,466.722c0,0.119-0.024,0.197-0.067,0.232c-0.044,0.036-0.125,0.057-0.243,0.057h-0.997
			c-0.103,0-0.181-0.021-0.229-0.057c-0.054-0.035-0.078-0.113-0.078-0.232v-11.038c0-0.112,0.024-0.19,0.078-0.229
			c0.051-0.037,0.127-0.062,0.229-0.062h0.997c0.118,0,0.199,0.021,0.243,0.062c0.043,0.036,0.067,0.114,0.067,0.229V466.722
			L165.662,466.722z"/>
		<path fill="#F5ECD9" d="M165.662,452.718c0,0.119-0.024,0.196-0.067,0.231c-0.044,0.037-0.125,0.056-0.243,0.056h-0.997
			c-0.103,0-0.181-0.019-0.229-0.056c-0.054-0.035-0.078-0.112-0.078-0.231v-1.564c0-0.116,0.024-0.192,0.078-0.23
			c0.051-0.036,0.127-0.057,0.229-0.057h0.997c0.118,0,0.199,0.021,0.243,0.057c0.043,0.038,0.067,0.114,0.067,0.23V452.718
			L165.662,452.718z"/>
		<path fill="#F5ECD9" d="M133.691,471.788c-0.345-0.26-0.86-0.392-1.53-0.392c-0.313,0-0.63,0.021-0.941,0.075
			c-0.312,0.062-0.568,0.122-0.761,0.197c-0.058,0.021-0.084,0.069-0.071,0.136l0.035,0.111c0.024,0.056,0.067,0.062,0.09,0.062
			c0.015,0,0.031-0.006,0.044-0.013c0.292-0.098,0.581-0.167,0.858-0.209c0.271-0.043,0.519-0.062,0.736-0.062
			c0.375,0,0.678,0.036,0.901,0.109c0.223,0.074,0.397,0.187,0.518,0.312c0.122,0.134,0.205,0.294,0.247,0.477
			c0.044,0.19,0.066,0.399,0.066,0.619v0.481h-1.876c-0.279,0-0.555,0.024-0.821,0.09c-0.269,0.062-0.515,0.167-0.73,0.312
			c-0.217,0.146-0.395,0.347-0.528,0.574c-0.133,0.234-0.2,0.528-0.2,0.875c0,0.2,0.034,0.404,0.103,0.604
			c0.071,0.209,0.193,0.39,0.375,0.555c0.178,0.162,0.419,0.297,0.718,0.398c0.298,0.104,0.681,0.153,1.139,0.153
			c0.331,0,0.671-0.021,1.012-0.07c0.338-0.054,0.681-0.142,1.013-0.259c0.086-0.023,0.13-0.087,0.13-0.17v-3.753
			C134.216,472.468,134.042,472.05,133.691,471.788z M133.882,476.681c-0.139,0.057-0.297,0.101-0.469,0.132
			c-0.188,0.038-0.367,0.069-0.545,0.102c-0.195,0.021-0.352,0.041-0.491,0.053c-0.146,0.01-0.262,0.018-0.344,0.018
			c-0.206,0-0.428-0.021-0.66-0.061c-0.229-0.037-0.444-0.107-0.64-0.213c-0.197-0.104-0.355-0.241-0.484-0.421
			c-0.125-0.177-0.188-0.409-0.188-0.698c0-0.351,0.074-0.631,0.222-0.834c0.148-0.205,0.325-0.363,0.527-0.471
			c0.203-0.104,0.413-0.184,0.625-0.213c0.215-0.033,0.386-0.059,0.507-0.059h1.939L133.882,476.681L133.882,476.681z
			 M142.396,472.242c-0.197-0.26-0.458-0.468-0.771-0.618c-0.315-0.149-0.696-0.228-1.136-0.228c-0.153,0-0.317,0.011-0.491,0.026
			c-0.189,0.022-0.363,0.051-0.531,0.086c-0.18,0.036-0.35,0.077-0.506,0.123c-0.133,0.037-0.256,0.078-0.363,0.119v-2.333
			c0-0.06-0.038-0.095-0.102-0.095h-0.133c-0.062,0-0.101,0.035-0.101,0.095v7.396c0,0.103,0.061,0.136,0.095,0.146
			c0.368,0.135,0.736,0.223,1.098,0.261c0.357,0.039,0.69,0.062,0.991,0.062c0.438,0,0.821-0.079,1.14-0.235
			c0.318-0.159,0.584-0.375,0.789-0.646c0.203-0.271,0.356-0.593,0.455-0.953c0.099-0.358,0.146-0.748,0.146-1.154
			c0-0.405-0.047-0.787-0.141-1.136C142.739,472.808,142.592,472.5,142.396,472.242z M142.436,475.496
			c-0.113,0.333-0.268,0.61-0.461,0.83c-0.196,0.221-0.419,0.38-0.682,0.48c-0.262,0.106-0.543,0.161-0.842,0.161
			c-0.236,0-0.533-0.02-0.884-0.058c-0.338-0.037-0.665-0.112-0.972-0.229v-4.598c0.152-0.066,0.314-0.125,0.482-0.172
			c0.182-0.054,0.364-0.096,0.541-0.128c0.188-0.033,0.35-0.059,0.493-0.068c0.151-0.014,0.272-0.021,0.359-0.021
			c0.659,0,1.187,0.222,1.563,0.655c0.379,0.438,0.57,1.094,0.57,1.938C142.606,474.758,142.549,475.161,142.436,475.496z
			 M144.597,471.514h-0.138c-0.062,0-0.099,0.037-0.099,0.102v5.462c0,0.059,0.038,0.096,0.099,0.096h0.138
			c0.062,0,0.099-0.037,0.099-0.096v-5.462C144.695,471.551,144.658,471.514,144.597,471.514z M149.274,476.891
			c-0.011-0.042-0.046-0.062-0.097-0.062c-0.01,0-0.021,0.002-0.035,0.005c-0.186,0.041-0.357,0.066-0.512,0.079
			c-0.17,0.011-0.284,0.015-0.361,0.015c-0.232,0-0.416-0.021-0.547-0.077c-0.129-0.048-0.227-0.111-0.293-0.197
			c-0.067-0.088-0.111-0.189-0.133-0.313c-0.021-0.133-0.031-0.271-0.031-0.424v-4.084h1.52c0.062,0,0.1-0.035,0.1-0.097v-0.114
			c0-0.062-0.038-0.102-0.1-0.102h-1.52v-2.096c0-0.073-0.047-0.088-0.09-0.088c-0.014,0-0.075-0.007-0.096,0h-0.051
			c-0.076,0.021-0.102,0-0.102,0.082l0.004,2.093l-0.895-0.002c-0.063,0-0.103,0.035-0.103,0.095v0.132
			c0,0.061,0.039,0.097,0.103,0.097h0.893v4.138c0,0.44,0.094,0.769,0.279,0.966c0.188,0.206,0.539,0.312,1.071,0.312
			c0.097,0,0.237-0.013,0.418-0.025c0.196-0.021,0.375-0.05,0.544-0.092c0.053-0.014,0.076-0.055,0.063-0.104L149.274,476.891z
			 M160.429,472.095c-0.161-0.224-0.39-0.396-0.679-0.521c-0.291-0.116-0.664-0.185-1.112-0.185c-0.369,0-0.759,0.07-1.156,0.206
			c-0.387,0.138-0.737,0.287-1.043,0.471c-0.216-0.23-0.472-0.402-0.763-0.514c-0.299-0.104-0.682-0.163-1.141-0.163
			c-0.089,0-0.201,0.01-0.336,0.019c-0.136,0.008-0.273,0.019-0.416,0.031c-0.144,0.016-0.283,0.023-0.421,0.048
			c-0.127,0.017-0.254,0.035-0.378,0.06c-0.107,0.023-0.181,0.062-0.221,0.109c-0.04,0.053-0.061,0.127-0.061,0.229v5.188
			c0,0.059,0.039,0.096,0.102,0.096h0.134c0.062,0,0.101-0.037,0.101-0.096v-5.204c0.321-0.066,0.627-0.11,0.908-0.131
			c0.288-0.021,0.495-0.03,0.6-0.03c0.365,0,0.68,0.041,0.936,0.124c0.252,0.082,0.462,0.215,0.623,0.396
			c0.162,0.187,0.283,0.415,0.359,0.698c0.076,0.285,0.115,0.636,0.115,1.04v3.106c0,0.059,0.041,0.096,0.102,0.096h0.134
			c0.062,0,0.101-0.038,0.101-0.096v-3.022c0-0.447-0.028-0.808-0.086-1.063c-0.052-0.243-0.125-0.467-0.215-0.646
			c0.182-0.109,0.368-0.205,0.559-0.283c0.205-0.086,0.398-0.148,0.578-0.205c0.177-0.053,0.346-0.09,0.5-0.104
			c0.151-0.021,0.281-0.03,0.385-0.03c0.371,0,0.681,0.048,0.92,0.146c0.236,0.095,0.427,0.237,0.566,0.438
			c0.143,0.2,0.244,0.457,0.301,0.764c0.06,0.312,0.089,0.688,0.089,1.104v2.917c0,0.059,0.038,0.096,0.1,0.096h0.134
			c0.062,0,0.101-0.037,0.101-0.096v-3.087c0-0.397-0.03-0.759-0.091-1.072C160.696,472.586,160.588,472.318,160.429,472.095z
			 M164.457,471.397c-0.776,0-1.39,0.252-1.821,0.741c-0.429,0.493-0.647,1.234-0.647,2.202c0,0.937,0.215,1.661,0.635,2.171
			c0.424,0.521,1.029,0.775,1.801,0.775c0.777,0,1.395-0.255,1.832-0.76c0.438-0.497,0.658-1.245,0.658-2.227
			c0-0.934-0.215-1.652-0.641-2.152C165.845,471.652,165.234,471.397,164.457,471.397z M166.58,474.347
			c0,0.311-0.035,0.618-0.1,0.934c-0.066,0.311-0.184,0.598-0.348,0.853c-0.163,0.255-0.381,0.465-0.649,0.621
			c-0.267,0.157-0.61,0.237-1.026,0.237c-0.394,0-0.729-0.068-0.996-0.207c-0.268-0.143-0.487-0.327-0.653-0.567
			c-0.168-0.242-0.292-0.527-0.367-0.852c-0.077-0.322-0.117-0.681-0.117-1.046c0-0.344,0.035-0.667,0.105-0.979
			c0.069-0.312,0.188-0.592,0.352-0.834c0.162-0.24,0.378-0.437,0.644-0.58c0.264-0.145,0.597-0.217,0.988-0.217
			c0.416,0,0.768,0.072,1.047,0.218c0.278,0.146,0.502,0.339,0.666,0.579c0.162,0.241,0.28,0.524,0.352,0.844
			C166.545,473.67,166.58,474.006,166.58,474.347z M170.696,471.598c-0.325-0.133-0.714-0.194-1.155-0.194
			c-0.181,0-0.367,0.008-0.553,0.021c-0.178,0.014-0.373,0.041-0.598,0.086c-0.11,0.023-0.184,0.062-0.221,0.109
			c-0.041,0.05-0.061,0.122-0.061,0.229v5.229c0,0.059,0.039,0.096,0.1,0.096h0.135c0.062,0,0.101-0.037,0.101-0.096v-5.271
			c0.263-0.053,0.479-0.082,0.661-0.089c0.193-0.006,0.34-0.01,0.443-0.01c0.408,0,0.761,0.068,1.049,0.207
			c0.289,0.14,0.527,0.297,0.703,0.465c0.025,0.031,0.055,0.039,0.074,0.039c0.025,0,0.049-0.014,0.074-0.036l0.112-0.115
			c0.037-0.038,0.037-0.085-0.003-0.123C171.311,471.913,171.021,471.729,170.696,471.598z M176.554,472.966
			c-0.089-0.308-0.232-0.581-0.425-0.812c-0.193-0.233-0.444-0.42-0.748-0.559c-0.301-0.133-0.676-0.194-1.109-0.194
			c-0.752,0-1.354,0.25-1.79,0.735c-0.433,0.49-0.651,1.232-0.651,2.208c0,0.5,0.06,0.941,0.176,1.312
			c0.117,0.369,0.285,0.678,0.5,0.917c0.216,0.24,0.48,0.423,0.787,0.536c0.306,0.109,0.651,0.173,1.028,0.173
			c0.278,0,0.548-0.022,0.802-0.069c0.258-0.047,0.498-0.132,0.717-0.254l0.016-0.014l0.004-0.003l0.01-0.016
			c0.016-0.014,0.034-0.044,0-0.095l-0.07-0.12c-0.021-0.027-0.047-0.047-0.075-0.047l-0.013,0.001l-0.006,0.002
			c-0.019,0.005-0.033,0.014-0.053,0.021c-0.191,0.093-0.398,0.16-0.615,0.209c-0.218,0.05-0.453,0.068-0.705,0.068
			c-0.314,0-0.604-0.049-0.861-0.143c-0.258-0.093-0.481-0.244-0.668-0.453c-0.189-0.209-0.338-0.48-0.444-0.821
			c-0.104-0.323-0.157-0.729-0.161-1.198h4.102c0.139,0,0.24-0.027,0.303-0.086c0.066-0.062,0.098-0.16,0.098-0.316
			C176.692,473.602,176.643,473.27,176.554,472.966z M172.201,474.048c0.049-0.744,0.245-1.326,0.582-1.729
			c0.342-0.406,0.84-0.613,1.477-0.613c0.397,0,0.736,0.062,1.004,0.191c0.268,0.129,0.484,0.305,0.646,0.521
			c0.166,0.22,0.281,0.476,0.35,0.761c0.068,0.278,0.103,0.57,0.105,0.867L172.201,474.048L172.201,474.048z"/>
		<circle fill="#F5ECD9" cx="144.531" cy="469.761" r="0.284"/>
		<path fill="#F5ECD9" d="M100.001,455.559c0.001-0.004,0.001-0.01,0.001-0.01s-5.998-3.126-12.153-6.332
			c-0.48-0.25-0.833-0.436-8.791-0.932c0.552,0.002,8.047,0.003,8.451,0.004c3.965,0.011,5.653-7.584,5.653-7.584
			s-11.835-0.032-16.115-0.044c-4.281-0.02-5.655,7.583-5.655,7.583s5.362,2.846,11.642,6.173c0.251,0.131,1.577,0.835,9.507,1.099
			c-0.258,0-7.949,0-8.208-0.002c-6.761-0.019-13.575-0.037-15.553-0.044c-3.703-0.012-5.23,5.669-5.575,7.202
			c-0.054,0.221-0.08,0.355-0.08,0.355l0.004,0.002c-0.003,0.017-0.004,0.021-0.004,0.021s0.028,0,0.047,0
			c0.561,0.292,5.863,3.054,11.779,6.136c0.286,0.148,1.168,0.608,9.862,0.905c-0.389-0.002-8.874-0.003-9.188-0.003
			c-4.28-0.013-5.655,7.581-5.655,7.581s12.149,0.035,16.117,0.047c3.523,0.01,5.248-5.979,5.589-7.312
			c0.044-0.159,0.068-0.259,0.068-0.259s-0.004-0.003-0.005-0.004c0.001-0.003,0.002-0.009,0.002-0.009s-0.012,0-0.02,0
			c-0.278-0.146-5.491-2.857-11.616-6.052c-0.226-0.118-1.447-0.754-9.607-0.988c0.267,0,8.244,0.001,8.511,0.001
			c6.763,0.021,13.517,0.038,15.342,0.044c3.964,0.017,5.654-7.583,5.654-7.583L100.001,455.559L100.001,455.559z"/>
	</g>
	<g id="phone">
		<g>
			<path fill="#F5ECD9" d="M548.551,434.562h-11.138c-1.614,0-2.938,1.319-2.938,2.934v22.865c0,1.606,1.32,2.934,2.938,2.934
				h11.138c1.61,0,2.934-1.32,2.934-2.934v-22.865C551.482,435.883,550.164,434.562,548.551,434.562z M542.981,462.121
				c-1.138,0-2.053-0.657-2.053-1.464c0-0.814,0.919-1.468,2.053-1.468c1.132,0,2.047,0.657,2.047,1.468
				C545.032,461.464,544.116,462.121,542.981,462.121z M549.137,457.724h-12.312v-19.352h12.312V457.724z"/>
		</g>
		<text transform="matrix(1 0 0 1 575.1455 457.9785)" fill="#F5ECD9" font-family="'Roboto-Light'" font-size="18">+39 393 4318597</text>
	</g>
	<g id="githubsite">
		<path fill="#F5ECD9" d="M837.225,498.772c-0.064,0.07-0.146,0.062-0.244-0.04c-0.107-0.091-0.125-0.167-0.051-0.232
			c0.065-0.071,0.147-0.062,0.246,0.038C837.274,498.629,837.29,498.707,837.225,498.772z M836.708,498.021
			c0.074,0.099,0.074,0.176,0,0.231c-0.066,0.048-0.137,0.021-0.209-0.086c-0.074-0.105-0.074-0.184,0-0.222
			C836.571,497.89,836.641,497.915,836.708,498.021z M835.956,497.282c-0.041,0.059-0.094,0.064-0.16,0.023
			c-0.082-0.043-0.111-0.093-0.086-0.146c0.025-0.043,0.078-0.049,0.16-0.024C835.952,497.175,835.981,497.225,835.956,497.282z
			 M836.338,497.7c-0.05,0.059-0.115,0.046-0.197-0.037c-0.072-0.09-0.082-0.155-0.023-0.196c0.049-0.049,0.115-0.037,0.197,0.038
			C836.387,497.594,836.395,497.659,836.338,497.7z M837.927,499.08c-0.033,0.102-0.11,0.126-0.233,0.073
			c-0.141-0.032-0.192-0.095-0.16-0.187c0.033-0.093,0.111-0.121,0.233-0.086C837.899,498.924,837.952,498.989,837.927,499.08z
			 M838.702,499.142c0,0.092-0.065,0.134-0.196,0.134c-0.14,0.017-0.21-0.028-0.21-0.134c0-0.092,0.066-0.135,0.197-0.135
			C838.634,498.99,838.702,499.035,838.702,499.142z M839.417,499.019c0.017,0.082-0.041,0.142-0.172,0.174
			c-0.131,0.031-0.205,0-0.221-0.1c-0.019-0.102,0.041-0.16,0.172-0.188C839.325,498.891,839.399,498.929,839.417,499.019z
			 M851.29,487.245v11.823c0,0.978-0.348,1.812-1.041,2.506c-0.694,0.693-1.529,1.041-2.506,1.041h-2.76
			c-0.132,0-0.231-0.004-0.303-0.013c-0.068-0.009-0.148-0.028-0.238-0.062c-0.092-0.031-0.158-0.092-0.197-0.179
			c-0.043-0.086-0.062-0.198-0.062-0.339v-2.945c0-0.794-0.214-1.38-0.641-1.749c0.469-0.047,0.889-0.124,1.262-0.219
			c0.374-0.103,0.761-0.26,1.159-0.479c0.399-0.222,0.731-0.494,0.997-0.817c0.267-0.326,0.484-0.758,0.652-1.294
			c0.168-0.535,0.252-1.156,0.252-1.854c0-0.992-0.326-1.84-0.975-2.536c0.305-0.748,0.271-1.586-0.099-2.516
			c-0.23-0.072-0.562-0.029-0.998,0.135s-0.812,0.346-1.133,0.542l-0.469,0.296c-0.766-0.213-1.554-0.318-2.365-0.318
			c-0.813,0-1.603,0.105-2.365,0.318c-0.133-0.09-0.307-0.199-0.523-0.33c-0.216-0.131-0.56-0.291-1.026-0.476
			c-0.469-0.187-0.822-0.241-1.061-0.167c-0.359,0.932-0.391,1.769-0.086,2.517c-0.648,0.696-0.973,1.541-0.973,2.536
			c0,0.697,0.084,1.313,0.252,1.848c0.168,0.535,0.384,0.967,0.647,1.294c0.262,0.33,0.592,0.604,0.99,0.824
			c0.397,0.223,0.784,0.383,1.158,0.479c0.374,0.098,0.795,0.172,1.264,0.219c-0.328,0.298-0.531,0.72-0.604,1.271
			c-0.173,0.081-0.357,0.146-0.554,0.188c-0.197,0.04-0.433,0.062-0.703,0.062c-0.271,0-0.539-0.089-0.808-0.267
			c-0.268-0.176-0.495-0.434-0.684-0.77c-0.156-0.264-0.354-0.476-0.598-0.642c-0.242-0.164-0.444-0.265-0.608-0.3l-0.247-0.037
			c-0.172,0-0.292,0.021-0.356,0.058c-0.065,0.036-0.086,0.084-0.062,0.142c0.024,0.058,0.062,0.114,0.11,0.172
			c0.051,0.059,0.104,0.107,0.159,0.147l0.087,0.062c0.182,0.083,0.358,0.24,0.536,0.471c0.177,0.229,0.306,0.439,0.388,0.627
			l0.125,0.283c0.104,0.312,0.287,0.563,0.541,0.76c0.256,0.188,0.53,0.315,0.826,0.368c0.295,0.055,0.579,0.082,0.854,0.086
			c0.274,0.006,0.504-0.012,0.685-0.043l0.282-0.05c0,0.312,0.002,0.735,0.007,1.271c0.005,0.53,0.007,0.812,0.007,0.837
			c0,0.182-0.046,0.317-0.137,0.414c-0.09,0.094-0.181,0.146-0.271,0.157c-0.09,0.015-0.228,0.019-0.406,0.019h-2.76
			c-0.978,0-1.812-0.348-2.506-1.041c-0.693-0.693-1.041-1.53-1.041-2.506v-11.825c0-0.978,0.347-1.812,1.041-2.506
			c0.692-0.694,1.528-1.041,2.506-1.041h11.824c0.977,0,1.812,0.347,2.506,1.041c0.692,0.692,1.041,1.528,1.041,2.506
			L851.29,487.245z"/>
		<text transform="matrix(1 0 0 1 864.6504 500.8721)" fill="#F5ECD9" font-family="'Roboto-Light'" font-size="18">Source on gitHub</text>
	</g>
	<g id="skype">
		<g>
			<path fill="#F5ECD9" d="M555.43,587.479c0-0.596-0.114-1.141-0.353-1.635c-0.229-0.494-0.521-0.901-0.86-1.223
				c-0.351-0.322-0.78-0.613-1.31-0.875c-0.521-0.269-1.016-0.465-1.474-0.607c-0.458-0.142-0.979-0.278-1.562-0.41l-1.854-0.43
				c-0.356-0.084-0.619-0.146-0.785-0.188c-0.166-0.043-0.375-0.111-0.625-0.205c-0.25-0.101-0.43-0.191-0.536-0.287
				c-0.104-0.103-0.206-0.228-0.295-0.375c-0.09-0.154-0.135-0.332-0.135-0.535c0-0.916,0.854-1.375,2.569-1.375
				c0.514,0,0.972,0.07,1.375,0.213c0.401,0.146,0.729,0.312,0.965,0.51c0.233,0.197,0.465,0.396,0.68,0.604
				c0.216,0.197,0.453,0.373,0.715,0.518c0.261,0.146,0.547,0.216,0.855,0.214c0.562,0,1.01-0.188,1.35-0.566
				c0.339-0.383,0.509-0.844,0.509-1.375c0-0.652-0.333-1.246-1-1.775c-0.666-0.528-1.513-0.934-2.534-1.205
				c-1.021-0.272-2.104-0.409-3.252-0.412c-0.81,0-1.595,0.095-2.354,0.277c-0.763,0.187-1.478,0.465-2.134,0.84
				c-0.661,0.375-1.19,0.894-1.594,1.556c-0.396,0.659-0.599,1.426-0.599,2.295c0,0.729,0.112,1.358,0.339,1.899
				c0.229,0.543,0.562,0.992,1,1.351c0.439,0.354,0.917,0.646,1.434,0.864c0.513,0.222,1.125,0.414,1.84,0.58l2.604,0.644
				c1.072,0.268,1.737,0.479,2,0.646c0.382,0.234,0.571,0.595,0.571,1.07c0,0.465-0.238,0.848-0.715,1.148
				c-0.479,0.305-1.104,0.455-1.875,0.452c-0.606,0-1.151-0.094-1.634-0.284c-0.481-0.188-0.869-0.42-1.162-0.688
				c-0.291-0.271-0.562-0.537-0.812-0.811c-0.25-0.269-0.521-0.494-0.815-0.688c-0.3-0.188-0.619-0.285-0.968-0.285
				c-0.598,0-1.046,0.179-1.35,0.535c-0.304,0.354-0.455,0.805-0.455,1.34c0,1.097,0.729,2.033,2.183,2.812
				c1.45,0.775,3.187,1.172,5.192,1.172c0.87,0,1.702-0.111,2.5-0.33c0.798-0.227,1.525-0.539,2.188-0.955
				c0.66-0.418,1.188-0.979,1.58-1.67c0.393-0.697,0.588-1.479,0.588-2.354L555.43,587.479z M561.914,591.354
				c0,1.896-0.67,3.513-2.01,4.853s-2.955,2.01-4.849,2.01c-1.547,0-2.939-0.479-4.185-1.43c-0.916,0.188-1.81,0.281-2.679,0.281
				c-1.703,0-3.33-0.326-4.885-0.986c-1.554-0.66-2.896-1.56-4.021-2.685s-2.019-2.465-2.679-4.018
				c-0.661-1.553-0.991-3.182-0.991-4.885c0-0.869,0.101-1.769,0.287-2.685c-0.953-1.231-1.431-2.631-1.431-4.18
				c0-1.893,0.67-3.508,2.009-4.848c1.34-1.341,2.956-2.011,4.85-2.011c1.552,0,2.938,0.478,4.184,1.431
				c0.917-0.189,1.811-0.285,2.68-0.285c1.701,0,3.331,0.33,4.884,0.99c1.559,0.659,2.896,1.555,4.021,2.68s2.02,2.465,2.68,4.021
				c0.659,1.557,0.99,3.186,0.99,4.887c0,0.869-0.096,1.764-0.285,2.68C561.438,588.413,561.914,589.806,561.914,591.354z"/>
		</g>
		<text transform="matrix(1 0 0 1 575.1455 589.2109)" fill="#F5ECD9" font-family="'Roboto-Light'" font-size="18">albino.tonnina</text>
	</g>
	<text transform="matrix(1 0 0 1 32.521 698.7148)" fill="#F5ECD9" font-family="'Roboto-Light'" font-size="14">copyright 2014 Albino Tonnina</text>
	<g id="addressnumidia">
		<text transform="matrix(1 0 0 1 195.7397 457.4443)" fill="#F5ECD9" font-family="'Roboto-Light'" font-size="18">Albino Tonnina c/o Numidia Srl</text>
		<text transform="matrix(1 0 0 1 195.7397 479.0439)" fill="#F5ECD9" font-family="'Roboto-Light'" font-size="18">Via Giovanni Antonelli 3, 00197 Roma</text>
	</g>
	<text transform="matrix(1 0 0 1 26.605 402.7188)" fill="#F5ECD9" font-family="'Roboto-Thin'" font-size="36">To stay connected:</text>
	<g id="contactresume">
		<path fill="#F5ECD9" d="M847.473,456.898v0.943c0,0.139-0.044,0.251-0.133,0.34c-0.089,0.09-0.201,0.133-0.34,0.133h-10.384
			c-0.138,0-0.25-0.043-0.339-0.133c-0.089-0.089-0.135-0.201-0.135-0.34v-0.943c0-0.139,0.046-0.25,0.135-0.34
			c0.089-0.089,0.201-0.134,0.339-0.134H847c0.139,0,0.251,0.045,0.34,0.134C847.429,456.648,847.473,456.761,847.473,456.898z
			 M847.473,453.121v0.945c0,0.138-0.044,0.251-0.133,0.339c-0.089,0.089-0.201,0.134-0.34,0.134h-10.384
			c-0.138,0-0.25-0.045-0.339-0.134c-0.089-0.088-0.135-0.201-0.135-0.339v-0.945c0-0.137,0.046-0.25,0.135-0.339
			c0.089-0.088,0.201-0.133,0.339-0.133H847c0.139,0,0.251,0.045,0.34,0.133C847.429,452.871,847.473,452.984,847.473,453.121z
			 M834.257,462.092h15.104v-11.329h-6.138c-0.393,0-0.728-0.137-1.002-0.413c-0.275-0.274-0.413-0.608-0.413-1.003v-6.136h-7.553
			L834.257,462.092L834.257,462.092z M843.696,448.875h5.546c-0.1-0.285-0.207-0.487-0.324-0.604l-4.617-4.618
			c-0.118-0.117-0.318-0.227-0.604-0.324L843.696,448.875L843.696,448.875z M851.249,449.347v13.216
			c0,0.395-0.138,0.729-0.413,1.004c-0.275,0.274-0.609,0.412-1.003,0.412h-16.049c-0.395,0-0.729-0.138-1.003-0.412
			c-0.276-0.275-0.413-0.609-0.413-1.004v-19.823c0-0.395,0.137-0.729,0.413-1.003c0.274-0.275,0.608-0.413,1.003-0.413h9.439
			c0.395,0,0.826,0.099,1.298,0.294c0.473,0.197,0.847,0.433,1.12,0.709l4.604,4.601c0.272,0.276,0.511,0.649,0.707,1.122
			C851.148,448.522,851.248,448.952,851.249,449.347L851.249,449.347z"/>
		<g>
			<text transform="matrix(1 0 0 1 864.6504 459.9346)" fill="#F5ECD9" font-family="'Roboto-Light'" font-size="18">View resume</text>
		</g>
	</g>
</g>
<g id="ownership">
	<text transform="matrix(1 0 0 1 28.2715 127.541)" fill="#2BACB5" font-family="'Roboto-Thin'" font-size="36">And reliable. And friendly, most of the time.</text>
</g>
<g id="leaving">
	<text transform="matrix(1 0 0 1 26.605 225.7412)" fill="#F5ECD9" font-family="'Roboto-Thin'" font-size="36">I&apos;m leaving Italy and looking for a development position </text>
	<text transform="matrix(1 0 0 1 26.605 268.9414)" fill="#F5ECD9" font-family="'Roboto-Thin'" font-size="36">within the EU with a forward thinking IT company </text>
	<text transform="matrix(1 0 0 1 26.605 312.1416)" fill="#F5ECD9" font-family="'Roboto-Thin'" font-size="36">where I can continue to grow.</text>
</g>
<text transform="matrix(1 0 0 1 28.2715 62.3535)" fill="#E84D5B" font-family="'Roboto-Thin'" font-size="36">Im passionate about my job.</text>
</svg>
