<?xml version="1.0" encoding="utf-8"?>
<!-- Generator: Adobe Illustrator 16.0.0, SVG Export Plug-In . SVG Version: 6.00 Build 0)  -->
<!DOCTYPE svg PUBLIC "-//W3C//DTD SVG 1.1//EN" "http://www.w3.org/Graphics/SVG/1.1/DTD/svg11.dtd">
<svg version="1.1" id="svg5" xmlns="http://www.w3.org/2000/svg" xmlns:xlink="http://www.w3.org/1999/xlink" x="0px" y="0px"
	 width="1024px" height="768px" viewBox="0 0 1024 768" enable-background="new 0 0 1024 768" xml:space="preserve">
<g id="bg5">
	<rect x="-5882.951" y="-5137.504" fill="#F5ECD9" width="12784.607" height="11218.004"/>
</g>
<g id="sky">
	<rect x="-7653.467" y="-7098.016" fill="#2BACB5" stroke="#000000" stroke-miterlimit="10" width="15687.934" height="14889.029"/>
</g>
<g id="mountains">
	<g>
		<path fill="#D4E5F6" d="M-792.243,1119.833"/>
		<polygon fill="#14757B" points="-209.3,510.472 -37.804,689.235 -193.184,705.394 		"/>
		<polygon fill="#ACE8EA" points="-402.598,667.509 -345.107,604.72 -321.267,642.229 -398.216,859.793 		"/>
		<path fill="#A7C6E8" d="M-927.366,1503.302"/>
		<path fill="#A7C6E8" d="M-1577.241,1702.573"/>
		<path fill="#C1DDF3" d="M-1577.241,1702.573"/>
		<path fill="#5984C3" d="M-832.03,1389.982"/>
		<path fill="#A7C6E8" d="M-588.439,1107.608"/>
		<path fill="#0D72B9" d="M-854.126,1095.198"/>
		<polygon fill="#ACE8EA" points="-854.126,1095.198 -735.19,578.242 -588.439,1107.608 		"/>
		<polygon fill="#F5ECD9" points="-735.19,578.242 -649.129,529.291 -588.439,1107.608 		"/>
		<polygon fill="#FFFFFF" points="-646.729,553.362 -649.129,529.291 -566.951,373.859 -471.992,709.22 		"/>
		<polygon fill="#229098" points="-588.439,1107.608 -471.992,709.22 -626.096,552.59 -646.729,553.362 		"/>
		<polygon fill="#F5ECD9" points="-345.107,1147.357 -588.439,1107.608 -471.992,709.22 -402.598,667.509 		"/>
		<polygon fill="#C1E8E7" points="-566.951,373.859 -402.598,667.509 -471.992,709.22 		"/>
		<path fill="#5984C3" d="M-854.126,1095.198"/>
		<polygon fill="#FFFFFF" points="-345.107,604.72 -209.3,510.472 -180.034,864.441 		"/>
		<polygon fill="#14757B" points="-398.216,859.793 -330.423,1226.866 -180.034,864.441 -321.267,642.229 		"/>
		<polygon fill="#ACE8EA" points="-357.747,1078.915 -330.423,1226.866 -398.216,859.793 -588.439,1107.608 		"/>
		<polygon fill="#229098" points="-209.3,510.472 -193.184,705.394 -180.034,864.441 		"/>
		<polygon fill="#14757B" points="-191.831,1193.399 -180.034,864.441 -330.423,1226.866 		"/>
		<polygon fill="#229098" points="71.511,1204.285 -191.831,1193.399 -180.034,864.441 		"/>
		<polygon fill="#ACE8EA" points="71.511,1204.285 -37.804,689.235 -180.034,864.441 		"/>
		<polygon fill="#F5ECD9" points="71.511,1204.285 227.962,1204.132 -37.804,689.235 		"/>
		<polygon fill="#14757B" points="-37.804,689.235 171.052,897.846 227.962,1204.132 		"/>
		<polygon fill="#63D3D6" points="227.962,1204.132 426.55,1189.605 171.052,897.846 		"/>
		<polygon fill="#ACE8EA" points="-37.804,689.235 -116.212,415.166 88.257,723.859 		"/>
		<polygon fill="#63D3D6" points="171.052,897.846 88.257,723.859 -37.804,689.235 		"/>
		<polygon fill="#FFFFFF" points="-37.804,689.235 -116.212,415.166 -209.3,510.472 		"/>
		<polygon fill="#229098" points="-402.598,667.509 -345.107,604.72 -566.951,373.859 		"/>
		<polygon fill="#63D3D6" points="426.55,1189.605 490.661,1138.932 273.831,934.037 		"/>
		<polygon fill="#ACE8EA" points="490.661,1138.932 701.151,1101.004 454.368,929.785 273.831,934.037 		"/>
		<polygon fill="#C1E8E7" points="255.411,944.84 148.075,795.87 148.075,691.64 250.054,605.882 454.368,929.785 		"/>
		<polygon fill="#1C8389" points="701.151,1101.004 250.054,605.882 454.368,929.785 		"/>
		<polygon fill="#FFFFFF" points="168.141,820.025 255.411,944.84 250.054,605.882 88.257,723.859 		"/>
		<polygon fill="#63D3D6" points="488.188,867.465 599.409,883.821 761.608,1042.641 701.151,1101.004 		"/>
		<polygon fill="#C1E8E7" points="454.368,929.785 490.661,1138.932 255.411,944.84 		"/>
		<polygon fill="#C1E8E7" points="599.409,883.821 701.151,1101.004 761.608,1042.641 		"/>
	</g>
</g>
<g id="clouds">
	<path fill="#F5ECD9" d="M188.406,612.645c0-10.18-8.252-18.432-18.432-18.432s-18.432,8.252-18.432,18.432H188.406z"/>
	<path fill="#F5ECD9" d="M273.68,612.645c0-10.18-8.252-18.432-18.432-18.432c-10.182,0-18.434,8.252-18.434,18.432H273.68z"/>
	<path fill="#F5ECD9" d="M231.043,612.645c0-15.688-12.729-28.424-28.426-28.424s-28.426,12.729-28.426,28.424H231.043z"/>
	<g>
		<path fill="#F5ECD9" d="M253.926,342.688c0-4.557-3.693-8.25-8.25-8.25s-8.25,3.693-8.25,8.25H253.926z"/>
		<path fill="#F5ECD9" d="M279.373,342.688c0-3.513-2.85-6.361-6.361-6.361s-6.361,2.849-6.361,6.361H279.373z"/>
		<path fill="#F5ECD9" d="M273.012,342.688c0-7.026-5.697-12.723-12.725-12.723c-7.025,0-12.725,5.696-12.725,12.723H273.012z"/>
	</g>
	<g>
		<path fill="#F5ECD9" d="M460.604,534.379c0-6.624,5.369-11.992,11.993-11.992c6.622,0,11.991,5.368,11.991,11.992H460.604z"/>
		<path fill="#F5ECD9" d="M376.655,534.379c0-9.936,8.056-17.989,17.979-17.989c9.938,0,17.986,8.062,17.986,17.989H376.655z"/>
		<path fill="#F5ECD9" d="M400.641,534.379c0-19.871,16.105-35.979,35.979-35.979s35.979,16.104,35.979,35.979H400.641z"/>
	</g>
	<g>
		<path fill="#F5ECD9" d="M482.551,554.23c0-5.273,4.273-9.559,9.549-9.559c5.271,0,9.557,4.273,9.557,9.559H482.551z"/>
		<path fill="#F5ECD9" d="M497.275,554.23c0-4.064,3.297-7.361,7.354-7.361c4.064,0,7.361,3.297,7.361,7.361H497.275z"/>
	</g>
	<g>
		<g>
			<path fill="#F5ECD9" d="M803.939,380.535c0-19.677-15.953-35.632-35.641-35.632c-19.678,0-35.627,15.955-35.627,35.632H803.939z"
				/>
			<path fill="#F5ECD9" d="M830.494,380.535c0-14.669-11.889-26.558-26.557-26.558c-14.678,0-26.562,11.889-26.562,26.558H830.494z"
				/>
			<path fill="#F5ECD9" d="M744.854,380.535c0-8.801-7.137-15.936-15.938-15.936c-8.799,0-15.936,7.135-15.936,15.936H744.854z"/>
		</g>
		<g>
			<path fill="#F5ECD9" d="M418.438,513.637c0-18.051-14.633-32.684-32.684-32.684c-18.053,0-32.686,14.633-32.686,32.684H418.438z"
				/>
			<path fill="#F5ECD9" d="M377.432,513.637c0-13.455-10.896-24.354-24.354-24.354c-13.451,0-24.357,10.896-24.357,24.354H377.432z"
				/>
			<path fill="#F5ECD9" d="M437.926,513.637c0-10.764-8.729-19.479-19.488-19.479c-10.764,0-19.479,8.725-19.479,19.479H437.926z"/>
			<path fill="#F5ECD9" d="M338.453,513.637c0-8.062-6.543-14.617-14.613-14.617c-8.072,0-14.617,6.557-14.617,14.617H338.453z"/>
		</g>
		<g>
			<path fill="#F5ECD9" d="M366.605,442.211"/>
			<path fill="#F5ECD9" d="M346.316,370.211"/>
			<g>
				<path fill="#F5ECD9" d="M667.055,556.801c0-8.953-7.258-16.211-16.211-16.211s-16.211,7.258-16.211,16.211H667.055z"/>
				<path fill="#F5ECD9" d="M717.055,556.801c0-6.896-5.596-12.5-12.5-12.5c-6.896,0-12.5,5.604-12.5,12.5H717.055z"/>
				<path fill="#F5ECD9" d="M704.555,556.801c0-13.807-11.188-25-25-25c-13.809,0-25,11.193-25,25H704.555z"/>
			</g>
			<g>
				<path fill="#F5ECD9" d="M304.781,534.908c0-7.674-6.229-13.896-13.896-13.896s-13.895,6.229-13.895,13.896H304.781z"/>
				<path fill="#F5ECD9" d="M315.139,534.908c0-5.721-4.637-10.357-10.354-10.357c-5.717,0-10.355,4.646-10.355,10.357H315.139z"/>
				<path fill="#F5ECD9" d="M281.736,534.908c0-3.438-2.781-6.215-6.215-6.215c-3.432,0-6.215,2.771-6.215,6.215H281.736z"/>
			</g>
			<g>
				<path fill="#F5ECD9" d="M362.755,376.418c0-8.264-6.697-14.961-14.961-14.961c-8.267,0-14.959,6.697-14.959,14.961H362.755z"/>
				<path fill="#F5ECD9" d="M467.479,376.418c0-12.395-10.047-22.441-22.438-22.441c-12.393,0-22.44,10.047-22.44,22.441H467.479z"
					/>
				<path fill="#F5ECD9" d="M437.558,376.418c0-24.789-20.094-44.883-44.881-44.883s-44.886,20.094-44.886,44.883H437.558z"/>
			</g>
			<g>
				<path fill="#F5ECD9" d="M511.904,600.949c0-5.273-4.271-9.547-9.547-9.547c-5.271,0-9.557,4.271-9.557,9.547H511.904z"/>
				<path fill="#F5ECD9" d="M497.182,600.949c0-4.064-3.297-7.361-7.354-7.361c-4.062,0-7.359,3.297-7.359,7.361H497.182z"/>
			</g>
			<g>
				<path fill="#F5ECD9" d="M618.621,107.473c0-5.273-4.273-9.547-9.549-9.547c-5.271,0-9.547,4.273-9.547,9.547H618.621z"/>
				<path fill="#F5ECD9" d="M603.898,107.473c0-4.064-3.307-7.361-7.361-7.361c-4.064,0-7.361,3.297-7.361,7.361H603.898z"/>
			</g>
			<g>
				<path fill="#F5ECD9" d="M856.65,47.383c0-4.557-3.692-8.25-8.25-8.25c-4.562,0-8.25,3.693-8.25,8.25H856.65z"/>
				<path fill="#F5ECD9" d="M882.098,47.383c0-3.513-2.848-6.361-6.354-6.361c-3.521,0-6.359,2.849-6.359,6.361H882.098z"/>
				<path fill="#F5ECD9" d="M875.736,47.383c0-7.026-5.697-12.723-12.729-12.723c-7.021,0-12.725,5.696-12.725,12.723H875.736z"/>
			</g>
			<g>
				<path fill="#F5ECD9" d="M66,395.904c0-5.273,4.273-9.547,9.549-9.547c5.271,0,9.547,4.271,9.547,9.547H66z"/>
				<path fill="#F5ECD9" d="M80.725,395.904c0-4.064,3.297-7.361,7.361-7.361s7.363,3.297,7.363,7.361H80.725z"/>
			</g>
		</g>
	</g>
	<g>
		<g>
			<path fill="#F5ECD9" d="M64.212,540.55h-8v-1h8V540.55z M48.212,540.55h-8v-1h8V540.55z M32.212,540.55h-8v-1h8V540.55z
				 M16.212,540.55h-8v-1h8V540.55z M0.212,540.55h-8v-1h8V540.55z M-15.788,540.55h-8v-1h8V540.55z M-31.788,540.55h-8v-1h8V540.55
				z M-47.788,540.55h-8v-1h8V540.55z M-63.788,540.55h-8v-1h8V540.55z M-79.788,540.55h-8v-1h8V540.55z M-95.788,540.55h-8v-1h8
				V540.55z M-111.788,540.55h-5.417v-1h5.417V540.55z"/>
		</g>
		<g>
			<path fill="#F5ECD9" d="M1151.275,93.095h-8v-1h8V93.095z M1135.275,93.095h-8v-1h8V93.095z M1119.275,93.095h-8v-1h8V93.095z
				 M1103.275,93.095h-8v-1h8V93.095z M1087.275,93.095h-8v-1h8V93.095z M1071.275,93.095h-8v-1h8V93.095z M1055.275,93.095h-8v-1h8
				V93.095z"/>
		</g>
		<g>
			<path fill="#F5ECD9" d="M721.096,317.734h-8v-1h8V317.734z M705.096,317.734h-8v-1h8V317.734z M689.096,317.734h-8v-1h8V317.734z
				 M673.096,317.734h-8v-1h8V317.734z M657.096,317.734h-8v-1h8V317.734z M641.096,317.734h-8v-1h8V317.734z M625.096,317.734h-8
				v-1h8V317.734z M609.096,317.734h-8v-1h8V317.734z M593.096,317.734h-8v-1h8V317.734z M577.096,317.734h-8v-1h8V317.734z"/>
		</g>
	</g>
</g>
<g id="Layer_1_1_">
	<g id="plane">
		<g>
			<path fill="#FFFEF0" d="M1113.342,663.949c2.248,0.031,5.398,0.428,5.398,0.428s-3.15,0.396-5.398,0.429
				c-2.246,0.031-4.113-0.429-4.113-0.429S1111.096,663.917,1113.342,663.949z"/>
			<g>
				<g>
					<g>
						<path fill="#C8C6BC" d="M1109.227,664.382l21.562,15.711c0,0,1.238,0.325,3.156,0.729l-22.969-16.438L1109.227,664.382
							L1109.227,664.382z"/>
						<path fill="#FFFEF0" d="M1133.947,680.816c3.021,0.625,7.729,1.432,11.938,1.432c5.485,0,17.938-1.835,17.938-1.835
							l-45.25-16.03h-7.595L1133.947,680.816z"/>
					</g>
				</g>
			</g>
			<path opacity="0.4" fill="#BCBAD0" enable-background="new    " d="M1109.227,664.377c0,0,1.868-0.46,4.114-0.428
				c2.248,0.031,5.398,0.428,5.398,0.428s-0.049,0.006-0.137,0.018l45.217,16.021c0,0-12.439,1.835-17.931,1.835
				c-4.225,0-8.932-0.807-11.944-1.432c-1.918-0.397-3.156-0.729-3.156-0.729l-21.562-15.711h0.021
				C1109.234,664.379,1109.227,664.377,1109.227,664.377z"/>
		</g>
		<g>
			<g>
				<g>
					<path fill="#C8C6BC" d="M1265.203,676.9l35.201,25.646c0,0,2.021,0.53,5.158,1.183l-37.5-26.82L1265.203,676.9L1265.203,676.9z
						"/>
					<path fill="#FFFEF0" d="M1305.564,703.73c4.934,1.021,12.609,2.337,19.502,2.337c8.959,0,29.271-2.995,29.271-2.995
						l-73.877-26.172h-12.396L1305.564,703.73z"/>
				</g>
			</g>
			<polygon opacity="0.4" fill="#BCBAD0" enable-background="new    " points="1318.875,690.482 1277.66,685.979 1283.682,690.482 
							"/>
		</g>
		<g>
			<path id="carlinga" fill="#FFFEF0" d="M1142.924,660.316l13.279,18.166l48,12h176c0,0,39.5-2.166,51.734,6l4.334,4
				c0,0,12.021,4.545,13.649,9.002c0.123,0.334,0.191,0.668,0.188,0.998c-0.062,4.86-12.668,16-69.918,16h-144
				c-10.688,0-25.562-3.021-41.855-7.229c-38.156-9.871-81.895-26.356-81.895-26.356v-8.571l8.647-2.104l-5.729-21.896
				L1142.924,660.316L1142.924,660.316z"/>
			<polygon fill="#FFFEF0" points="1107.561,630.482 1121.111,630.482 1134.395,648.65 1112.318,648.65 			"/>
			<g>
				<polygon fill="#FFFEF0" points="1119.318,660.316 1115.373,660.316 1112.318,648.65 1115.703,648.65 				"/>
				<polygon fill="#8CC152" points="1134.395,648.65 1142.924,660.316 1119.318,660.316 1115.703,648.65 				"/>
			</g>
		</g>
		<g>
			<polygon fill="#C8C6BC" points="1150.311,687.645 1136.586,701.598 1123.834,697.091 			"/>
			<g>
				<path fill="#C8C6BC" d="M1098.982,702.715l20.271-14.771c0,0,1.168-0.312,2.971-0.688l-21.594,15.448L1098.982,702.715
					L1098.982,702.715z"/>
				<path fill="#FFFEF0" d="M1122.223,687.266c2.853-0.589,7.271-1.346,11.229-1.346c5.158,0,16.857,1.725,16.857,1.725
					l-38.533,15.07h-11.146L1122.223,687.266z"/>
			</g>
		</g>
		<g>
			
				<rect x="1117.56" y="629.391" transform="matrix(0.9548 -0.2974 0.2974 0.9548 -144.0604 362.1043)" fill="#8CC152" width="0.998" height="50.257"/>
		</g>
		<g>
			<path fill="none" stroke="#4E4B80" stroke-width="10" stroke-miterlimit="10" d="M1225.703,716.482"/>
		</g>
		<g>
			<g>
				<path fill="#DA4453" d="M1225.203,708.816h161l5,5h-166c-24.693,0-42.609-0.604-55.266-1.331
					c-7.486-2.277-14.781-4.625-21.525-6.87C1156.775,706.678,1179.311,708.816,1225.203,708.816z"/>
			</g>
			<g>
				<path fill="#DA4453" d="M1225.203,715.537h133.168l-2.5,2.5h-130.668c-15.123,0-27.691-0.229-38.062-0.567
					c-3.434-0.938-6.885-1.921-10.312-2.928C1188.842,715.11,1204.693,715.537,1225.203,715.537z"/>
			</g>
		</g>
		<path fill="#E4E2D6" d="M1449.934,709.484c0.123,0.334,0.193,0.668,0.188,0.998c-0.062,4.86-12.668,16-69.918,16h-144
			c-27,0-87.791-20.867-87.791-20.867s28.406,12.142,114.791,12.142C1442.361,717.757,1449.604,709.562,1449.934,709.484z"/>
		<g>
			<g>
				<path fill="#EDEDE6" d="M1344.285,730.434c-23.959,3.375-34.615-0.269-41.16-2v-12c6.545-1.729,17.201-5.375,41.16-2V730.434z"
					/>
				<polygon fill="#C8C6BC" points="1346.859,716.434 1346.859,718.434 1346.859,728.434 1344.285,730.434 1344.285,718.434 
					1344.285,714.434 				"/>
				<g>
					<polygon fill="#EDEDE6" points="1303.125,727.517 1300.551,726.881 1300.551,717.985 1303.125,717.351 					"/>
					<g>
						<polygon fill="#EDEDE6" points="1300.551,725.611 1292.834,723.704 1292.834,721.163 1300.551,719.257 						"/>
					</g>
				</g>
				<g>
					<path fill="#C8C6BC" d="M1302.494,716.434c5.713-1.511,14.557-4.476,32.623-2.967l-17.941,17.944
						c-6.826-0.688-11.307-2.084-14.682-2.979V716.434z"/>
				</g>
			</g>
			<g>
				<path fill="#C8C6BC" d="M1245.986,739.482l35.201-25.648c0,0,2.021-0.531,5.147-1.18l-37.5,26.829L1245.986,739.482
					L1245.986,739.482z"/>
				<path fill="#FFFEF0" d="M1286.346,712.654c4.938-1.021,12.619-2.338,19.5-2.338c8.959,0,29.271,2.984,29.271,2.984
					l-66.914,26.182h-19.357L1286.346,712.654z"/>
			</g>
		</g>
		<g>
			<path fill="#3BAFDA" d="M1431.939,696.482h-11.734c0,0-0.848,4,16.068,4L1431.939,696.482L1431.939,696.482z"/>
			<g>
				<g>
					<path fill="#54A2BD" d="M1202.703,700.482c0,0.551,0.451,1,1,1h1c0.553,0,1-0.449,1-1v-2c0-0.561-0.447-1-1-1h-1
						c-0.549,0-1,0.439-1,1V700.482z"/>
				</g>
				<g>
					<path fill="#54A2BD" d="M1210.703,700.482c0,0.551,0.451,1,1,1h1c0.553,0,1-0.449,1-1v-2c0-0.561-0.447-1-1-1h-1
						c-0.549,0-1,0.439-1,1V700.482z"/>
				</g>
				<g>
					<path fill="#54A2BD" d="M1218.703,700.482c0,0.551,0.451,1,1,1h1c0.553,0,1-0.449,1-1v-2c0-0.561-0.447-1-1-1h-1
						c-0.549,0-1,0.439-1,1V700.482z"/>
				</g>
				<g>
					<path fill="#54A2BD" d="M1226.703,700.482c0,0.551,0.451,1,1,1h1c0.553,0,1-0.449,1-1v-2c0-0.561-0.447-1-1-1h-1
						c-0.549,0-1,0.439-1,1V700.482z"/>
				</g>
				<g>
					<path fill="#54A2BD" d="M1234.703,700.482c0,0.551,0.451,1,1,1h1c0.553,0,1-0.449,1-1v-2c0-0.561-0.447-1-1-1h-1
						c-0.549,0-1,0.439-1,1V700.482z"/>
				</g>
				<g>
					<path fill="#54A2BD" d="M1242.703,700.482c0,0.551,0.451,1,1,1h1c0.553,0,1-0.449,1-1v-2c0-0.561-0.447-1-1-1h-1
						c-0.549,0-1,0.439-1,1V700.482z"/>
				</g>
				<g>
					<path fill="#54A2BD" d="M1250.703,700.482c0,0.551,0.451,1,1,1h1c0.553,0,1-0.449,1-1v-2c0-0.561-0.447-1-1-1h-1
						c-0.549,0-1,0.439-1,1V700.482z"/>
				</g>
				<g>
					<path fill="#54A2BD" d="M1258.703,700.482c0,0.551,0.451,1,1,1h1c0.553,0,1-0.449,1-1v-2c0-0.561-0.447-1-1-1h-1
						c-0.549,0-1,0.439-1,1V700.482z"/>
				</g>
				<g>
					<path fill="#54A2BD" d="M1266.703,700.482c0,0.551,0.451,1,1,1h1c0.553,0,1-0.449,1-1v-2c0-0.561-0.447-1-1-1h-1
						c-0.549,0-1,0.439-1,1V700.482z"/>
				</g>
				<g>
					<path fill="#54A2BD" d="M1274.703,700.482c0,0.551,0.451,1,1,1h1c0.553,0,1-0.449,1-1v-2c0-0.561-0.447-1-1-1h-1
						c-0.549,0-1,0.439-1,1V700.482z"/>
				</g>
				<g>
					<path fill="#54A2BD" d="M1282.703,700.482c0,0.551,0.451,1,1,1h1c0.553,0,1-0.449,1-1v-2c0-0.561-0.447-1-1-1h-1
						c-0.549,0-1,0.439-1,1V700.482z"/>
				</g>
				<g>
					<path fill="#54A2BD" d="M1290.703,700.482c0,0.551,0.451,1,1,1h1c0.553,0,1-0.449,1-1v-2c0-0.561-0.447-1-1-1h-1
						c-0.549,0-1,0.439-1,1V700.482z"/>
				</g>
				<g>
					<path fill="#54A2BD" d="M1298.703,700.482c0,0.551,0.451,1,1,1h1c0.553,0,1-0.449,1-1v-2c0-0.561-0.447-1-1-1h-1
						c-0.549,0-1,0.439-1,1V700.482z"/>
				</g>
				<g>
					<path fill="#54A2BD" d="M1306.703,700.482c0,0.551,0.451,1,1,1h1c0.553,0,1-0.449,1-1v-2c0-0.561-0.447-1-1-1h-1
						c-0.549,0-1,0.439-1,1V700.482z"/>
				</g>
				<g>
					<path fill="#54A2BD" d="M1314.703,700.482c0,0.551,0.451,1,1,1h1c0.553,0,1-0.449,1-1v-2c0-0.561-0.447-1-1-1h-1
						c-0.549,0-1,0.439-1,1V700.482z"/>
				</g>
				<g>
					<path fill="#54A2BD" d="M1322.703,700.482c0,0.551,0.451,1,1,1h1c0.553,0,1-0.449,1-1v-2c0-0.561-0.447-1-1-1h-1
						c-0.549,0-1,0.439-1,1V700.482z"/>
				</g>
				<g>
					<path fill="#54A2BD" d="M1330.703,700.482c0,0.551,0.451,1,1,1h1c0.553,0,1-0.449,1-1v-2c0-0.561-0.447-1-1-1h-1
						c-0.549,0-1,0.439-1,1V700.482z"/>
				</g>
				<g>
					<path fill="#54A2BD" d="M1338.703,700.482c0,0.551,0.451,1,1,1h1c0.553,0,1-0.449,1-1v-2c0-0.561-0.447-1-1-1h-1
						c-0.549,0-1,0.439-1,1V700.482z"/>
				</g>
				<g>
					<path fill="#54A2BD" d="M1346.703,700.482c0,0.551,0.451,1,1,1h1c0.553,0,1-0.449,1-1v-2c0-0.561-0.447-1-1-1h-1
						c-0.549,0-1,0.439-1,1V700.482z"/>
				</g>
				<g>
					<path fill="#54A2BD" d="M1354.703,700.482c0,0.551,0.451,1,1,1h1c0.553,0,1-0.449,1-1v-2c0-0.561-0.447-1-1-1h-1
						c-0.549,0-1,0.439-1,1V700.482z"/>
				</g>
				<g>
					<path fill="#54A2BD" d="M1362.703,700.482c0,0.551,0.451,1,1,1h1c0.553,0,1-0.449,1-1v-2c0-0.561-0.447-1-1-1h-1
						c-0.549,0-1,0.439-1,1V700.482z"/>
				</g>
				<g>
					<path fill="#54A2BD" d="M1370.703,700.482c0,0.551,0.451,1,1,1h1c0.553,0,1-0.449,1-1v-2c0-0.561-0.447-1-1-1h-1
						c-0.549,0-1,0.439-1,1V700.482z"/>
				</g>
				<g>
					<path fill="#54A2BD" d="M1378.703,700.482c0,0.551,0.451,1,1,1h1c0.553,0,1-0.449,1-1v-2c0-0.561-0.447-1-1-1h-1
						c-0.549,0-1,0.439-1,1V700.482z"/>
				</g>
				<g>
					<path fill="#54A2BD" d="M1386.703,700.482c0,0.551,0.451,1,1,1h1c0.553,0,1-0.449,1-1v-2c0-0.561-0.447-1-1-1h-1
						c-0.549,0-1,0.439-1,1V700.482z"/>
				</g>
			</g>
		</g>
		<path fill="#FFFEF0" d="M1255.596,738.482c5.248,0.063,12.607,1,12.607,1s-7.359,0.926-12.607,0.999
			c-5.248,0.064-9.604-0.999-9.604-0.999S1250.348,738.409,1255.596,738.482z"/>
		<path fill="#FFFEF0" d="M1104.535,702.126c3.033,0.044,7.289,0.578,7.289,0.578s-4.256,0.534-7.289,0.577
			c-3.031,0.043-5.555-0.577-5.555-0.577S1101.504,702.082,1104.535,702.126z"/>
		
			<rect x="1427.373" y="697.964" transform="matrix(-0.4503 -0.8929 0.8929 -0.4503 1450.3271 2289.8223)" fill="#EDE3EB" width="5.309" height="1.003"/>
		
			<rect x="1423.167" y="697.492" transform="matrix(-0.1438 -0.9896 0.9896 -0.1438 939.5699 2208.853)" fill="#EDE3EB" width="4.223" height="1.002"/>
		<circle fill="#E4E2D6" cx="1409.518" cy="704.921" r="0.5"/>
		<circle fill="#E4E2D6" cx="1192.611" cy="704.921" r="0.5"/>
	</g>
	<g id="torre">
		<g>
			<rect x="-589.07" y="481.503" fill="#FFFEF0" width="362.505" height="2900.03"/>
			<rect x="-951.575" y="481.503" fill="#FFFEF0" width="362.504" height="2900.03"/>
			<rect x="-864.493" y="481.503" fill="#E4E2D6" width="543.755" height="2900.03"/>
		</g>
		<g>
			<polygon opacity="0.4" fill="#C8C6BC" enable-background="new    " points="-770.321,662.756 -407.816,662.756 -226.565,617.441 
				-226.565,640.099 -407.816,685.413 -770.321,685.413 -951.575,640.099 -951.575,617.441 			"/>
		</g>
		<polygon opacity="0.4" fill="#C8C6BC" enable-background="new    " points="-223.021,617.441 -952.573,1346.993 -952.573,566.343 
			-226.565,566.343 		"/>
		<g>
			<rect x="-770.321" y="300.254" fill="#FFFEF0" width="362.505" height="362.502"/>
			<g>
				<g>
					<rect x="-600.396" y="-606.009" fill="#DA4453" width="22.655" height="453.127"/>
				</g>
				<g>
					<rect x="-770.321" y="-84.91" fill="#E4E2D6" width="362.505" height="45.314"/>
					<polygon fill="#FFFEF0" points="-1132.825,51.028 -770.321,-39.596 -770.321,-84.91 -1132.825,5.714 -1178.138,17.045 
						-1178.138,62.354 					"/>
					<polygon fill="#FFFEF0" points="-45.312,51.028 0,62.354 0,17.045 -45.312,5.714 -407.816,-84.91 -407.816,-39.596 					"/>
				</g>
				<polygon fill="#E4E2D6" points="-407.816,662.756 -45.312,572.126 -45.312,209.625 -407.816,300.254 				"/>
				<polygon fill="#E4E2D6" points="-1132.825,572.126 -770.321,662.756 -770.321,300.254 -1132.825,209.625 				"/>
				<polygon fill="#E4E2D6" points="-407.816,300.254 -45.312,209.625 -45.312,119 -407.816,209.625 				"/>
				<rect x="-770.321" y="209.625" fill="#FFFEF0" width="362.505" height="90.629"/>
				<polygon fill="#E4E2D6" points="-1132.825,209.625 -770.321,300.254 -770.321,209.625 -1132.825,119 				"/>
				<polygon fill="#FFFEF0" points="-770.321,-39.596 -1132.825,51.028 -1132.825,96.343 -770.321,5.714 				"/>
				<rect x="-770.321" y="-39.596" fill="#FFFEF0" width="362.505" height="45.31"/>
				<polygon fill="#FFFEF0" points="-45.312,51.028 -407.816,-39.596 -407.816,5.714 -45.312,96.343 				"/>
				<g>
					<polygon fill="#FFFEF0" points="-1132.825,96.343 -1178.138,107.669 -1178.138,62.354 -1132.825,51.028 					"/>
				</g>
				<polygon fill="#E4E2D6" points="0,62.354 -1178.138,62.354 -770.321,164.311 -407.816,164.311 				"/>
				<polygon fill="#FFFEF0" points="-1178.138,62.354 0,62.354 -407.816,-39.596 -770.321,-39.596 				"/>
				<g>
					<polygon fill="#E4E2D6" points="-135.939,62.354 -407.816,119 -441.803,-243.504 					"/>
					<polygon fill="#FFFEF0" points="-441.803,-243.504 -407.816,119 -770.321,119 -736.335,-243.504 					"/>
					<polygon fill="#E4E2D6" points="-736.335,-243.504 -770.321,119 -1042.198,62.354 					"/>
				</g>
				<g>
					<g>
						<rect x="-770.321" y="119" fill="#DA4453" width="362.505" height="45.311"/>
						<polygon fill="#BA3548" points="-1132.825,28.376 -770.321,119 -770.321,164.311 -770.321,209.625 -1132.825,119 
							-1178.138,107.669 -1178.138,62.354 -1178.138,17.045 						"/>
						<polygon fill="#ED5565" points="-45.312,28.376 0,17.045 0,62.354 0,107.669 -45.312,119 -407.816,209.625 -407.816,164.311 
							-407.816,119 						"/>
					</g>
				</g>
				<rect x="-770.321" y="164.311" fill="#DA4453" width="362.505" height="45.314"/>
				<polygon opacity="0.4" fill="#C8C6BC" enable-background="new    " points="-407.816,209.625 -45.312,119 -45.312,164.311 
					-407.816,254.939 -770.321,254.939 -1132.825,164.311 -1132.825,119 -770.321,209.625 				"/>
			</g>
		</g>
		<path fill="#FFFEF0" d="M-611.726-606.009c0,12.512,10.146,22.655,22.655,22.655c12.514,0,22.657-10.144,22.657-22.655
			c0-12.514-10.146-22.657-22.657-22.657C-601.579-628.666-611.726-618.522-611.726-606.009z"/>
	</g>
</g>
<g id="contacts">
	<rect x="-2766.482" y="342.5" fill="#E84D5B" width="6910.617" height="445.5"/>
	<g id="email">
		<text transform="matrix(1 0 0 1 66.0002 534.2324)" fill="#F5ECD9" font-family="'Roboto-Thin'" font-size="18">albinotonnina@gmail.com</text>
		<path fill="#F5ECD9" d="M47.688,535.041v-7.457c-0.204,0.233-0.431,0.447-0.671,0.643c-1.735,1.332-3.115,2.428-4.136,3.282
			c-0.33,0.277-0.599,0.496-0.804,0.647c-0.207,0.155-0.487,0.31-0.839,0.471c-0.355,0.159-0.684,0.237-0.994,0.237h-0.02
			c-0.311,0-0.645-0.078-0.993-0.237c-0.354-0.161-0.633-0.315-0.839-0.471c-0.206-0.151-0.474-0.372-0.804-0.647
			c-1.022-0.856-2.4-1.948-4.136-3.282c-0.24-0.195-0.461-0.408-0.671-0.643v7.457c0,0.084,0.031,0.157,0.093,0.219
			c0.063,0.063,0.135,0.093,0.22,0.093H47.39c0.084,0,0.157-0.034,0.219-0.093c0.063-0.062,0.093-0.135,0.093-0.219H47.688z
			 M47.688,524.836v-0.238c0,0-0.003-0.042-0.006-0.126c-0.003-0.085-0.014-0.125-0.03-0.12c-0.013,0.004-0.035-0.025-0.053-0.089
			c-0.02-0.061-0.048-0.086-0.088-0.073c-0.039,0.014-0.085,0.008-0.136-0.022H33.079c-0.083,0-0.157,0.031-0.218,0.092
			c-0.062,0.062-0.092,0.135-0.092,0.219c0,1.09,0.476,2.008,1.428,2.757c1.25,0.984,2.544,2.011,3.889,3.076
			c0.039,0.035,0.152,0.126,0.34,0.286c0.188,0.159,0.335,0.278,0.446,0.363c0.11,0.085,0.252,0.186,0.435,0.305
			c0.176,0.119,0.341,0.208,0.488,0.268c0.147,0.059,0.289,0.088,0.419,0.088h0.018c0.129,0,0.27-0.029,0.418-0.088
			c0.145-0.061,0.309-0.146,0.488-0.268c0.176-0.119,0.323-0.224,0.435-0.305c0.11-0.085,0.256-0.204,0.446-0.363
			c0.188-0.16,0.3-0.251,0.337-0.286c1.348-1.068,2.647-2.096,3.893-3.076c0.35-0.278,0.673-0.652,0.976-1.121
			C47.537,525.643,47.688,525.217,47.688,524.836L47.688,524.836z M48.93,524.478v10.563c0,0.428-0.152,0.794-0.459,1.095
			c-0.303,0.303-0.671,0.459-1.094,0.459H33.081c-0.427,0-0.792-0.151-1.094-0.459c-0.303-0.304-0.459-0.672-0.459-1.095v-10.563
			c0-0.429,0.152-0.794,0.459-1.097c0.303-0.303,0.671-0.456,1.094-0.456h14.296c0.429,0,0.793,0.15,1.094,0.456
			C48.778,523.684,48.93,524.049,48.93,524.478z"/>
	</g>
	<g id="linkedin">
		<text transform="matrix(1 0 0 1 64.823 571.1699)" fill="#F5ECD9" font-family="'Roboto-Thin'" font-size="18">LinkedIn profile</text>
		<path fill="#F5ECD9" d="M34.418,571.388h2.808v-8.438h-2.808V571.388z M37.407,560.351c-0.008-0.42-0.155-0.771-0.438-1.043
			s-0.662-0.411-1.131-0.411s-0.853,0.139-1.149,0.411c-0.298,0.272-0.442,0.623-0.442,1.043c0,0.413,0.144,0.76,0.431,1.039
			c0.289,0.279,0.667,0.42,1.124,0.42h0.013c0.479,0,0.865-0.141,1.155-0.42C37.261,561.11,37.406,560.764,37.407,560.351
			L37.407,560.351z M44.518,571.388h2.808v-4.836c0-1.248-0.297-2.193-0.887-2.832c-0.592-0.639-1.376-0.962-2.347-0.962
			c-1.103,0-1.949,0.475-2.539,1.423h0.021v-1.229h-2.808c0.025,0.536,0.025,3.348,0,8.438h2.808v-4.721
			c0-0.309,0.028-0.535,0.085-0.681c0.126-0.283,0.304-0.524,0.552-0.723c0.241-0.199,0.543-0.299,0.895-0.299
			c0.943,0,1.409,0.639,1.409,1.913L44.518,571.388L44.518,571.388z M50.207,559.257v11.67c0,0.964-0.343,1.789-1.027,2.477
			c-0.689,0.687-1.513,1.029-2.477,1.029H35.032c-0.965,0-1.789-0.343-2.475-1.029c-0.688-0.688-1.03-1.513-1.03-2.477v-11.67
			c0-0.966,0.342-1.79,1.03-2.477c0.686-0.688,1.51-1.03,2.475-1.03h11.671c0.964,0,1.788,0.343,2.477,1.03
			C49.865,557.467,50.207,558.291,50.207,559.257z"/>
	</g>
	<g id="l500px">
		<text transform="matrix(1 0 0 1 64.0378 681.9814)" fill="#F5ECD9" font-family="'Roboto-Thin'" font-size="18">Photography</text>
		<path fill="#F5ECD9" d="M39.423,673.222c0.769,0,1.423,0.271,1.969,0.813c0.546,0.544,0.815,1.201,0.815,1.97
			c0,0.768-0.271,1.424-0.815,1.969c-0.546,0.544-1.2,0.813-1.969,0.813c-0.768,0-1.422-0.271-1.968-0.813
			c-0.544-0.545-0.816-1.201-0.816-1.969c0-0.769,0.272-1.425,0.816-1.97C38.002,673.493,38.658,673.222,39.423,673.222z
			 M47.969,669.199c0.686,0,1.269,0.242,1.749,0.729c0.482,0.48,0.728,1.063,0.728,1.75v8.661c0,0.684-0.241,1.267-0.728,1.75
			c-0.48,0.48-1.063,0.725-1.749,0.725H34.359c-0.686,0-1.269-0.241-1.75-0.725c-0.482-0.484-0.727-1.066-0.727-1.75v-8.661
			c0-0.687,0.241-1.27,0.727-1.75c0.482-0.483,1.064-0.729,1.75-0.729h2.165l0.494-1.312c0.119-0.316,0.346-0.588,0.671-0.816
			c0.325-0.228,0.657-0.344,1.001-0.344h4.947c0.344,0,0.678,0.114,1.001,0.344c0.324,0.23,0.551,0.5,0.673,0.816l0.491,1.312
			H47.969z M39.423,680.335c1.191,0,2.212-0.423,3.062-1.271c0.849-0.847,1.271-1.867,1.271-3.061c0-1.191-0.423-2.212-1.271-3.062
			c-0.85-0.848-1.867-1.271-3.062-1.271c-1.191,0-2.213,0.424-3.061,1.271c-0.85,0.85-1.271,1.867-1.271,3.062
			c0,1.191,0.426,2.214,1.271,3.061C37.211,679.913,38.232,680.335,39.423,680.335z"/>
	</g>
	<g id="phone">
		<g>
			<path fill="#F5ECD9" d="M45.604,476.917h-11.14c-1.612,0-2.938,1.317-2.938,2.934v22.865c0,1.604,1.32,2.934,2.938,2.934h11.14
				c1.608,0,2.934-1.32,2.934-2.934v-22.865C48.535,478.237,47.216,476.917,45.604,476.917z M40.034,504.476
				c-1.138,0-2.053-0.657-2.053-1.464c0-0.814,0.919-1.468,2.053-1.468c1.132,0,2.047,0.655,2.047,1.468
				C42.084,503.818,41.168,504.476,40.034,504.476z M46.19,500.078H33.878v-19.352H46.19V500.078z"/>
		</g>
		<text transform="matrix(1 0 0 1 64.4304 497.2949)" fill="#F5ECD9" font-family="'Roboto-Thin'" font-size="18">+39 393 4318597</text>
	</g>
	<g id="skype">
		<g>
			<path fill="#F5ECD9" d="M44.801,603.992c0-0.394-0.076-0.754-0.234-1.08c-0.151-0.327-0.344-0.595-0.568-0.809
				c-0.233-0.213-0.516-0.405-0.867-0.578c-0.344-0.179-0.671-0.308-0.974-0.402c-0.303-0.093-0.647-0.183-1.033-0.271l-1.225-0.284
				c-0.236-0.056-0.409-0.097-0.519-0.124c-0.11-0.028-0.248-0.073-0.413-0.136c-0.166-0.067-0.284-0.126-0.354-0.189
				c-0.068-0.069-0.136-0.152-0.195-0.248c-0.06-0.102-0.089-0.22-0.089-0.354c0-0.605,0.564-0.909,1.697-0.909
				c0.341,0,0.644,0.047,0.909,0.141c0.265,0.097,0.482,0.207,0.639,0.337c0.153,0.131,0.307,0.263,0.449,0.399
				c0.143,0.131,0.299,0.247,0.473,0.343c0.172,0.097,0.361,0.144,0.565,0.141c0.371,0,0.667-0.123,0.892-0.373
				c0.224-0.253,0.336-0.558,0.336-0.908c0-0.432-0.22-0.824-0.661-1.174c-0.44-0.349-1-0.617-1.675-0.797
				c-0.675-0.179-1.391-0.27-2.15-0.271c-0.535,0-1.054,0.062-1.556,0.183c-0.504,0.124-0.978,0.307-1.411,0.555
				c-0.437,0.248-0.787,0.592-1.055,1.03c-0.261,0.436-0.396,0.942-0.396,1.517c0,0.481,0.074,0.896,0.224,1.255
				c0.152,0.358,0.372,0.655,0.661,0.894c0.291,0.234,0.606,0.427,0.949,0.571c0.339,0.146,0.744,0.272,1.216,0.383l1.721,0.427
				c0.709,0.177,1.148,0.316,1.322,0.427c0.253,0.154,0.377,0.395,0.377,0.707c0,0.308-0.157,0.561-0.473,0.76
				c-0.317,0.201-0.73,0.301-1.239,0.297c-0.401,0-0.761-0.062-1.08-0.187c-0.318-0.124-0.575-0.277-0.768-0.455
				c-0.192-0.179-0.372-0.354-0.537-0.535c-0.166-0.18-0.344-0.327-0.538-0.456c-0.199-0.123-0.409-0.188-0.641-0.188
				c-0.395,0-0.691,0.12-0.892,0.354s-0.301,0.533-0.301,0.886c0,0.726,0.482,1.344,1.444,1.859
				c0.957,0.513,2.106,0.774,3.431,0.774c0.575,0,1.125-0.073,1.653-0.219c0.527-0.149,1.008-0.355,1.446-0.631
				c0.436-0.276,0.785-0.646,1.045-1.104c0.259-0.461,0.389-0.977,0.389-1.556H44.801z M49.086,606.554
				c0,1.254-0.443,2.324-1.329,3.21s-1.954,1.328-3.205,1.328c-1.023,0-1.943-0.316-2.768-0.945
				c-0.605,0.124-1.196,0.187-1.771,0.187c-1.126,0-2.202-0.216-3.229-0.652c-1.027-0.437-1.915-1.031-2.658-1.774
				c-0.744-0.744-1.334-1.631-1.771-2.657c-0.437-1.026-0.655-2.104-0.655-3.229c0-0.574,0.068-1.17,0.19-1.776
				c-0.63-0.812-0.946-1.739-0.946-2.763c0-1.251,0.443-2.319,1.328-3.205c0.886-0.886,1.954-1.33,3.206-1.33
				c1.026,0,1.943,0.317,2.767,0.947c0.606-0.125,1.197-0.188,1.771-0.188c1.125,0,2.202,0.218,3.229,0.654
				c1.032,0.436,1.915,1.028,2.659,1.771c0.744,0.744,1.335,1.63,1.771,2.658c0.436,1.029,0.654,2.106,0.654,3.23
				c0,0.575-0.064,1.166-0.188,1.771C48.772,604.61,49.086,605.531,49.086,606.554z"/>
		</g>
		<text transform="matrix(1 0 0 1 65.2151 608.1064)" fill="#F5ECD9" font-family="'Roboto-Thin'" font-size="18">albino.tonnina</text>
	</g>
	<g>
		<text transform="matrix(1 0 0 1 610.2288 682.8135)" fill="#F5ECD9" font-family="'Roboto-Thin'" font-size="18">copyright 2014 Albino Tonnina</text>
	</g>
	<g id="addressnumidia">
		<text transform="matrix(1 0 0 1 33.2708 438.1289)" fill="#F5ECD9" font-family="'Roboto-Thin'" font-size="18">Albino Tonnina c/o Numidia Srl</text>
		<text transform="matrix(1 0 0 1 33.2708 459.7285)" fill="#F5ECD9" font-family="'Roboto-Thin'" font-size="18">Via Giovanni Antonelli 3, 00197 Roma</text>
	</g>
	<text transform="matrix(1 0 0 1 26.6042 402.7188)" fill="#F5ECD9" font-family="'Roboto-Thin'" font-size="36">To stay connected:</text>
	<text transform="matrix(1 0 0 1 606.6038 402.7188)" fill="#F5ECD9" font-family="'Roboto-Thin'" font-size="36">This website:</text>
	<g id="contactresume">
		<path fill="#F5ECD9" d="M45.744,640.588v0.867c0,0.13-0.041,0.231-0.123,0.313c-0.082,0.085-0.185,0.124-0.313,0.124h-9.574
			c-0.127,0-0.23-0.039-0.312-0.124c-0.082-0.082-0.124-0.184-0.124-0.313v-0.867c0-0.13,0.042-0.23,0.124-0.315
			c0.082-0.082,0.186-0.123,0.312-0.123h9.574c0.128,0,0.23,0.041,0.313,0.123C45.703,640.357,45.744,640.461,45.744,640.588z
			 M45.744,637.105v0.871c0,0.127-0.041,0.231-0.123,0.312c-0.082,0.082-0.185,0.123-0.313,0.123h-9.574
			c-0.127,0-0.23-0.041-0.312-0.123c-0.082-0.081-0.124-0.186-0.124-0.312v-0.871c0-0.126,0.042-0.23,0.124-0.312
			c0.082-0.081,0.186-0.122,0.312-0.122h9.574c0.128,0,0.23,0.041,0.313,0.122C45.703,636.875,45.744,636.979,45.744,637.105z
			 M33.561,645.375h13.923v-10.443h-5.658c-0.363,0-0.672-0.126-0.923-0.381c-0.254-0.251-0.381-0.56-0.381-0.925v-5.656h-6.962
			L33.561,645.375L33.561,645.375z M42.262,633.191h5.112c-0.092-0.263-0.191-0.449-0.297-0.557l-4.256-4.257
			c-0.109-0.108-0.293-0.211-0.558-0.299L42.262,633.191L42.262,633.191z M49.223,633.626v12.183c0,0.366-0.127,0.673-0.379,0.928
			c-0.254,0.251-0.562,0.378-0.926,0.378H33.123c-0.363,0-0.671-0.127-0.924-0.378c-0.253-0.254-0.381-0.562-0.381-0.928v-18.272
			c0-0.366,0.128-0.673,0.381-0.925c0.253-0.254,0.561-0.381,0.924-0.381h8.702c0.363,0,0.761,0.091,1.196,0.271
			c0.436,0.183,0.78,0.399,1.033,0.654l4.244,4.241c0.251,0.254,0.473,0.599,0.652,1.034
			C49.132,632.866,49.222,633.263,49.223,633.626L49.223,633.626z"/>
		<g>
			<text transform="matrix(1 0 0 1 65.6077 645.0439)" fill="#F5ECD9" font-family="'Roboto-Thin'" font-size="18">View resume</text>
		</g>
	</g>
	<g id="githubsite">
		<path fill="#F5ECD9" d="M622.635,638.003c-0.132,0.143-0.3,0.129-0.501-0.081c-0.22-0.188-0.256-0.343-0.103-0.475
			c0.128-0.146,0.298-0.129,0.503,0.078C622.736,637.71,622.766,637.869,622.635,638.003z M621.573,636.464
			c0.152,0.202,0.152,0.36,0,0.473c-0.133,0.099-0.281,0.042-0.429-0.176c-0.148-0.216-0.148-0.379,0-0.457
			C621.294,636.193,621.438,636.248,621.573,636.464z M620.031,634.948c-0.084,0.123-0.191,0.131-0.323,0.047
			c-0.169-0.088-0.229-0.19-0.177-0.301c0.048-0.088,0.156-0.1,0.324-0.048C620.023,634.729,620.084,634.831,620.031,634.948z
			 M620.818,635.806c-0.105,0.122-0.237,0.094-0.404-0.073c-0.148-0.187-0.168-0.319-0.048-0.404c0.101-0.1,0.236-0.075,0.404,0.079
			C620.918,635.588,620.933,635.722,620.818,635.806z M624.074,638.634c-0.068,0.211-0.227,0.259-0.479,0.15
			c-0.287-0.066-0.39-0.195-0.329-0.385c0.068-0.191,0.229-0.248,0.479-0.176C624.017,638.313,624.123,638.447,624.074,638.634z
			 M625.659,638.76c0,0.191-0.129,0.276-0.397,0.276c-0.291,0.036-0.432-0.058-0.432-0.276c0-0.188,0.134-0.275,0.401-0.275
			C625.524,638.45,625.659,638.543,625.659,638.76z M627.127,638.508c0.036,0.168-0.083,0.293-0.354,0.358
			c-0.269,0.062-0.422,0-0.453-0.207c-0.038-0.209,0.083-0.328,0.354-0.386C626.937,638.245,627.091,638.324,627.127,638.508z
			 M651.591,614.324v24.235c0,2.005-0.718,3.713-2.134,5.138c-1.421,1.417-3.135,2.133-5.141,2.133h-5.656
			c-0.27,0-0.47-0.008-0.622-0.027c-0.139-0.021-0.304-0.057-0.487-0.129c-0.188-0.063-0.325-0.188-0.401-0.366
			c-0.088-0.176-0.128-0.406-0.128-0.694v-6.038c0-1.627-0.439-2.828-1.317-3.585c0.966-0.096,1.826-0.254,2.591-0.449
			c0.765-0.212,1.558-0.534,2.375-0.981c0.815-0.455,1.497-1.014,2.045-1.673c0.544-0.667,0.989-1.557,1.333-2.655
			c0.345-1.093,0.517-2.367,0.517-3.8c0-2.033-0.668-3.771-1.998-5.198c0.625-1.533,0.552-3.251-0.203-5.156
			c-0.474-0.148-1.154-0.06-2.046,0.276c-0.897,0.336-1.666,0.708-2.326,1.111l-0.961,0.606c-1.57-0.438-3.183-0.65-4.847-0.65
			s-3.287,0.213-4.844,0.65c-0.277-0.185-0.633-0.409-1.072-0.678c-0.441-0.268-1.15-0.596-2.107-0.975
			c-0.962-0.386-1.682-0.494-2.174-0.342c-0.737,1.91-0.801,3.626-0.176,5.158c-1.329,1.428-1.994,3.158-1.994,5.199
			c0,1.429,0.172,2.689,0.517,3.788s0.788,1.985,1.326,2.652c0.535,0.677,1.212,1.238,2.029,1.688
			c0.808,0.461,1.605,0.784,2.374,0.983c0.764,0.199,1.629,0.352,2.589,0.448c-0.671,0.61-1.088,1.474-1.235,2.604
			c-0.361,0.167-0.733,0.301-1.142,0.387c-0.401,0.082-0.886,0.126-1.441,0.126c-0.552,0-1.104-0.182-1.653-0.547
			c-0.553-0.36-1.017-0.889-1.404-1.577c-0.317-0.544-0.726-0.978-1.227-1.319c-0.496-0.336-0.909-0.541-1.245-0.614l-0.504-0.076
			c-0.356,0-0.601,0.044-0.732,0.118c-0.128,0.076-0.177,0.177-0.125,0.295c0.045,0.118,0.125,0.234,0.221,0.353
			c0.104,0.119,0.216,0.22,0.328,0.303l0.176,0.124c0.378,0.171,0.736,0.494,1.101,0.966c0.361,0.47,0.625,0.9,0.793,1.284
			l0.257,0.581c0.216,0.641,0.589,1.155,1.108,1.559c0.525,0.385,1.09,0.646,1.694,0.755c0.604,0.115,1.189,0.167,1.753,0.176
			c0.557,0.017,1.033-0.024,1.401-0.09l0.581-0.102c0,0.642,0.004,1.508,0.011,2.607c0.014,1.082,0.018,1.663,0.018,1.715
			c0,0.372-0.097,0.647-0.28,0.85c-0.185,0.192-0.372,0.298-0.557,0.318c-0.185,0.033-0.47,0.041-0.829,0.041h-5.66
			c-2.007,0-3.716-0.715-5.138-2.133c-1.417-1.422-2.134-3.137-2.134-5.138V614.32c0-2.006,0.713-3.715,2.134-5.137
			c1.417-1.424,3.131-2.134,5.138-2.134h24.235c2.005,0,3.715,0.71,5.136,2.134c1.422,1.415,2.135,3.131,2.135,5.137
			L651.591,614.324z"/>
		<g>
			<text transform="matrix(1 0 0 1 666.0549 633.4824)" fill="#F5ECD9" font-family="'Roboto-Thin'" font-size="18">has a public repository on GitHub.</text>
		</g>
	</g>
	<g>
		<path fill="#F5ECD9" d="M631.97,475.007c0-0.384-0.203-0.735-0.533-0.925l-8.818-5.076c-0.15-0.088-0.316-0.134-0.486-0.14
			c-0.016,0-0.078,0-0.09,0c-0.168,0.006-0.336,0.052-0.488,0.14l-8.817,5.076c-0.33,0.188-0.533,0.541-0.533,0.925l0.02,13.666
			c0,0.19,0.098,0.367,0.266,0.46c0.164,0.099,0.367,0.099,0.529,0l5.24-3c0.332-0.197,0.533-0.545,0.533-0.926v-6.385
			c0-0.381,0.201-0.732,0.531-0.922l2.231-1.285c0.166-0.097,0.348-0.144,0.535-0.144c0.182,0,0.367,0.047,0.529,0.144l2.229,1.285
			c0.332,0.188,0.533,0.541,0.533,0.922v6.385c0,0.381,0.205,0.729,0.535,0.926l5.238,3c0.164,0.099,0.369,0.099,0.531,0
			c0.164-0.093,0.266-0.27,0.266-0.46L631.97,475.007z"/>
		<path fill="#F5ECD9" d="M679.06,456.221c-0.166-0.093-0.367-0.09-0.529,0.006c-0.164,0.096-0.264,0.271-0.264,0.459v13.534
			c0,0.133-0.07,0.256-0.186,0.323c-0.115,0.065-0.26,0.065-0.373,0l-2.209-1.273c-0.33-0.188-0.734-0.188-1.064,0.001l-8.822,5.092
			c-0.33,0.189-0.533,0.542-0.533,0.921v10.188c0,0.38,0.203,0.731,0.533,0.923l8.822,5.096c0.328,0.189,0.734,0.189,1.064,0
			l8.822-5.096c0.33-0.19,0.533-0.543,0.533-0.923v-25.39c0-0.387-0.209-0.741-0.547-0.931L679.06,456.221z M678.241,482.122
			c0,0.096-0.051,0.184-0.135,0.23l-3.027,1.746c-0.082,0.047-0.186,0.047-0.266,0l-3.031-1.746
			c-0.082-0.048-0.133-0.136-0.133-0.23v-3.497c0-0.096,0.051-0.184,0.133-0.23l3.029-1.749c0.082-0.048,0.186-0.048,0.268,0
			l3.027,1.749c0.084,0.048,0.135,0.137,0.135,0.23V482.122z"/>
		<path fill="#F5ECD9" d="M710.622,478.533c0.326-0.19,0.529-0.541,0.529-0.92v-2.47c0-0.38-0.203-0.729-0.529-0.922l-8.768-5.089
			c-0.33-0.192-0.736-0.192-1.066-0.001l-8.818,5.091c-0.33,0.19-0.533,0.542-0.533,0.922v10.184c0,0.384,0.205,0.735,0.539,0.926
			l8.764,4.994c0.324,0.185,0.721,0.187,1.045,0.006l5.303-2.946c0.168-0.094,0.27-0.271,0.271-0.462s-0.1-0.37-0.268-0.466
			l-8.875-5.095c-0.166-0.096-0.268-0.271-0.268-0.461v-3.191c0-0.189,0.102-0.367,0.268-0.462l2.762-1.592
			c0.164-0.095,0.367-0.095,0.533,0l2.762,1.592c0.166,0.095,0.268,0.271,0.268,0.462v2.512c0,0.189,0.102,0.365,0.268,0.461
			c0.164,0.097,0.369,0.096,0.533-0.002L710.622,478.533z"/>
		<path fill="#F5ECD9" d="M648.011,469.078c0.328-0.189,0.736-0.189,1.064,0l8.82,5.091c0.33,0.189,0.533,0.541,0.533,0.923v10.189
			c0,0.38-0.203,0.73-0.533,0.923l-8.82,5.095c-0.328,0.189-0.736,0.189-1.064,0l-8.82-5.095c-0.33-0.191-0.531-0.543-0.531-0.923
			v-10.189c0-0.382,0.201-0.732,0.531-0.923L648.011,469.078z"/>
		<path fill="#F5ECD9" d="M727.751,491.443c-0.307,0-0.607-0.078-0.873-0.232l-2.777-1.644c-0.414-0.231-0.213-0.314-0.076-0.361
			c0.555-0.192,0.666-0.236,1.256-0.571c0.062-0.034,0.145-0.021,0.207,0.016l2.135,1.268c0.076,0.043,0.186,0.043,0.258,0
			l8.316-4.801c0.078-0.045,0.127-0.134,0.127-0.227v-9.599c0-0.094-0.049-0.183-0.129-0.229l-8.312-4.797
			c-0.078-0.045-0.18-0.045-0.258,0l-8.312,4.798c-0.08,0.047-0.131,0.138-0.131,0.229v9.599c0,0.093,0.051,0.181,0.131,0.225
			l2.279,1.314c1.234,0.619,1.992-0.108,1.992-0.841v-9.479c0-0.134,0.107-0.239,0.24-0.239h1.057c0.131,0,0.24,0.105,0.24,0.239
			v9.479c0,1.65-0.898,2.596-2.463,2.596c-0.48,0-0.859,0-1.916-0.521l-2.182-1.256c-0.539-0.312-0.873-0.895-0.873-1.519v-9.599
			c0-0.624,0.334-1.206,0.873-1.518l8.318-4.807c0.525-0.297,1.227-0.297,1.748,0l8.316,4.807c0.537,0.312,0.873,0.894,0.873,1.518
			v9.599c0,0.624-0.336,1.204-0.873,1.519l-8.316,4.803C728.361,491.363,728.058,491.443,727.751,491.443z"/>
		<path fill="#F5ECD9" d="M730.32,484.83c-3.641,0-4.402-1.671-4.402-3.072c0-0.133,0.107-0.239,0.24-0.239h1.074
			c0.121,0,0.223,0.086,0.24,0.203c0.162,1.095,0.645,1.647,2.848,1.647c1.752,0,2.498-0.396,2.498-1.326
			c0-0.536-0.211-0.935-2.936-1.2c-2.275-0.226-3.684-0.729-3.684-2.549c0-1.68,1.414-2.68,3.787-2.68
			c2.664,0,3.982,0.926,4.15,2.908c0.006,0.068-0.02,0.136-0.064,0.187c-0.045,0.048-0.107,0.077-0.176,0.077h-1.08
			c-0.109,0-0.211-0.08-0.232-0.188c-0.26-1.153-0.889-1.521-2.598-1.521c-1.914,0-2.137,0.667-2.137,1.166
			c0,0.604,0.262,0.78,2.846,1.122c2.559,0.34,3.771,0.817,3.771,2.613C734.466,483.792,732.956,484.83,730.32,484.83z"/>
		<g>
			<path fill="#F5ECD9" d="M741.79,468.99v0.246h-0.701v1.823h-0.283v-1.823h-0.695v-0.246H741.79z"/>
			<path fill="#F5ECD9" d="M742.04,468.99h0.4l0.594,1.75l0.594-1.75h0.398v2.069h-0.268v-1.221c0-0.043,0-0.113,0.002-0.21
				c0.002-0.1,0.004-0.204,0.004-0.315l-0.592,1.746h-0.277l-0.598-1.746v0.062c0,0.051,0,0.128,0.004,0.231
				c0.002,0.104,0.004,0.181,0.004,0.23v1.221h-0.268v-2.068H742.04z"/>
		</g>
		<path fill="#F5ECD9" d="M701.193,478.057c0.062-0.036,0.143-0.036,0.205,0l1.691,0.978c0.062,0.036,0.104,0.104,0.104,0.177v1.955
			c0,0.074-0.039,0.142-0.104,0.177l-1.691,0.978c-0.062,0.036-0.143,0.036-0.205,0l-1.691-0.978
			c-0.062-0.035-0.102-0.103-0.102-0.177v-1.955c0-0.072,0.039-0.141,0.102-0.177L701.193,478.057z"/>
	</g>
	<g>
		<path fill="#F5ECD9" d="M659.974,574.822v-11.71c0-0.824-0.604-1.182-1.316-1.182c-1.432,0-3.217,0.356-4.84,1.071v11.819h-3.299
			v-21.742h3.299v7.173c1.568-0.575,3.438-1.07,5.307-1.07c2.996,0,4.123,1.841,4.123,4.37v11.271H659.974L659.974,574.822z
			 M669.402,567.73c0.111,3.931,0.881,4.701,3.299,4.701c1.896,0,4.041-0.633,5.691-1.266l0.549,2.474
			c-1.76,0.798-3.902,1.565-6.459,1.565c-5.498,0-6.352-3.021-6.352-7.833c0-2.639,0.193-5.029,0.826-7.229
			c1.646-0.632,3.848-0.962,6.623-0.962c4.51,0,5.885,2.501,5.885,6.871v1.678H669.402L669.402,567.73z M673.581,561.931
			c-0.988,0-2.559,0.026-3.85,0.272c-0.135,0.66-0.303,1.568-0.355,3.244h6.873C676.249,563.166,675.835,561.931,673.581,561.931
			L673.581,561.931z M685.646,563.002v11.819h-3.299v-13.304c2.777-1.511,5.719-1.979,7.643-2.116v2.749
			C688.642,562.261,686.939,562.425,685.646,563.002L685.646,563.002z M698.704,575.206c-4.922,0-7.148-2.418-7.148-7.941
			c0-5.855,2.941-8.082,7.148-8.082c4.918,0,7.145,2.419,7.145,7.944C705.849,572.981,702.907,575.206,698.704,575.206
			L698.704,575.206z M698.704,561.931c-2.529,0-3.932,1.456-3.932,5.333c0,4.231,1.182,5.168,3.932,5.168
			c2.527,0,3.932-1.43,3.932-5.307C702.636,562.892,701.452,561.931,698.704,561.931L698.704,561.931z M721.763,574.822h-3.875
			c-0.906-2.418-2.172-4.893-4.123-7.036h-1.732v7.036h-3.299V553.08h3.299v12.479h1.539c1.678-1.73,2.969-3.875,3.875-5.991h3.711
			c-1.262,2.558-2.885,4.812-4.699,6.651C718.63,568.967,720.335,571.881,721.763,574.822L721.763,574.822z M727.947,575.206
			c-2.994,0-4.123-1.84-4.123-4.367v-11.271h3.271v11.683c0,0.826,0.604,1.184,1.32,1.184c1.428,0,3.379-0.356,5.002-1.073v-11.792
			h3.299v13.25C732.814,574.959,729.816,575.206,727.947,575.206L727.947,575.206z"/>
		<path fill="#F5ECD9" d="M639.74,582.872h-22.965c-1.965,0-3.557-1.592-3.557-3.557v-30.177c0-1.965,1.592-3.558,3.557-3.558
			h22.965c1.965,0,3.557,1.593,3.557,3.558v30.177C643.296,581.28,641.704,582.872,639.74,582.872L639.74,582.872z M642.077,549.341
			c0-1.403-1.139-2.54-2.541-2.54H616.98c-1.402,0-2.541,1.137-2.541,2.54v29.771c0,1.403,1.139,2.54,2.541,2.54h22.557
			c1.402,0,2.541-1.137,2.541-2.54V549.341L642.077,549.341z"/>
		<path fill="#F5ECD9" d="M632.068,577.741v-14.81c0,0,0.963-3.543-11.865,1.45c-0.021,0.062-0.021-13.694-0.021-13.694l4.191-0.026
			v8.816c0,0,11.734-4.624,11.734,3.504c0,8.13,0,14.76,0,14.76H632.068L632.068,577.741z M634.458,555.997c0,0-4.396,0-4.447,0
			c1.6-1.956,3.049-5.31,3.049-5.31h4.596C637.656,550.688,636.87,552.873,634.458,555.997L634.458,555.997z M620.257,577.716
			v-8.435l4.215,4.217L620.257,577.716L620.257,577.716z"/>
	</g>
	<text transform="matrix(1 0 0 1 611.3596 445.0059)" fill="#F5ECD9" font-family="'Roboto-Thin'" font-size="18">is 100% powered by:</text>
	<text transform="matrix(1 0 0 1 613.219 530.5176)" fill="#F5ECD9" font-family="'Roboto-Thin'" font-size="18">is hosted on:</text>
</g>
<g id="ownership">
	<text transform="matrix(1 0 0 1 26.6042 122.3008)" fill="#2BACB5" font-family="'Roboto-Thin'" font-size="36">And reliable. And friendly, most of the time.</text>
</g>
<g id="leaving">
	<text transform="matrix(1 0 0 1 26.6042 182.2471)" fill="#F5ECD9" font-family="'Roboto-Thin'" font-size="36">I&apos;m leaving Italy and looking for a development position </text>
	<text transform="matrix(1 0 0 1 26.6042 222.1943)" fill="#F5ECD9" font-family="'Roboto-Thin'" font-size="36">within the EU with a forward thinking IT company </text>
	<text transform="matrix(1 0 0 1 26.6042 262.1416)" fill="#F5ECD9" font-family="'Roboto-Thin'" font-size="36">where I can continue to grow.</text>
	<text transform="matrix(1 0 0 1 26.6042 320.1416)" fill="#F5ECD9" font-family="'Roboto-Thin'" font-size="36">Thank you for scrolling this far :)</text>
</g>
<text id="passionate" transform="matrix(1 0 0 1 26.6042 62.3535)" fill="#E84D5B" font-family="'Roboto-Thin'" font-size="36">I’m passionate about my job.</text>
</svg>
