<?xml version="1.0" encoding="utf-8"?>
<!-- Generator: Adobe Illustrator 24.1.0, SVG Export Plug-In . SVG Version: 6.00 Build 0)  -->
<svg version="1.1" id="svg1" xmlns="http://www.w3.org/2000/svg" xmlns:xlink="http://www.w3.org/1999/xlink" x="0px" y="0px"
	 viewBox="496 -368 1024 768" enable-background="new 496 -368 1024 768" xml:space="preserve">
<g id="bg">
	<rect x="-6591.4" y="-7628.7" fill="#3498DB" width="16291.8" height="14784"/>
</g>
<path id="wire1" fill="none" stroke="#DBDBDB" stroke-miterlimit="10" enable-background="new    " d="M514.3-413.1
	c45.9,59.7,97.6,127.8,180.5,125.9c65.6-1.5,127.1-41.7,193.4-31.3c67.3,10.6,116.7,71.3,167.2,111.7c53.2,42.6,112.2,66.4,172,97.3
	c46,23.8,69.2,58.5,77.5,109.3c5.8,35.4-0.1,84.2,22.4,114.6c29.1,39.5,157,60,101,134.8c-53,70.9-150.8,81.9-210.6,115.8
	c-16.1,9.1-52.3,35.4-52.6,35.4"/>
<g id="introduction" inkscape:version="0.48.4 r9939" sodipodi:docname="drawing.svg" xmlns:cc="http://creativecommons.org/ns#" xmlns:dc="http://purl.org/dc/elements/1.1/" xmlns:inkscape="http://www.inkscape.org/namespaces/inkscape" xmlns:rdf="http://www.w3.org/1999/02/22-rdf-syntax-ns#" xmlns:sodipodi="http://sodipodi.sourceforge.net/DTD/sodipodi-0.dtd" xmlns:svg="http://www.w3.org/2000/svg">
	<g id="macbook">
		<path fill="#586273" d="M1434.6-61.8L1434.6-61.8C1434.6-61.7,1434.6-61.8,1434.6-61.8z"/>
		<path opacity="0.8" fill="#2980B9" enable-background="new    " d="M1465.5-89.2l-342.2-155.9c0,0-8.2-3.7-11.9,4.5
			c-3.7,8.2,4.5,11.9,4.5,11.9l24.6,11.2c0,0-8.2-3.7-11.9,4.5c-4.7,10.3-4.7,10.2-77.5,170.2c-3.9,8.5,0.8,19,9.3,22.9L1338,106.5
			c8.5,3.9,18.6,0.1,22.5-8.4c0,0,59.1-129.8,74.2-162.9l0,0c0.1-0.2,0.6-1.3,3.3-7.3c3.7-8.2-4.5-11.9-4.5-11.9l24.6,11.2
			c0,0,8.2,3.7,11.9-4.5S1465.5-89.2,1465.5-89.2z"/>
		<g>
			<path fill="#E6E9ED" d="M1367.4,96.1c-3.9,8.5-14,12.3-22.5,8.4L1067.3-21.9c-8.5-3.9-13.2-14.4-9.3-22.9
				c0,0,73.8-162,77.5-170.2s11.9-4.5,11.9-4.5l293,133.5c0,0,8.2,3.7,4.5,11.9S1367.4,96.1,1367.4,96.1z"/>
			<path opacity="0.3" fill="#B7BFC7" enable-background="new    " d="M1440.6-66.8l-364.2-20.6c0,0,54.4-119.4,58.1-127.6
				s11.9-4.5,11.9-4.5l293,133.5c0,0,8.2,3.7,4.5,11.9S1440.6-66.8,1440.6-66.8z"/>
			
				<rect x="1286.4" y="-229.4" transform="matrix(0.4145 -0.91 0.91 0.4145 890.9432 1087.8864)" fill="#DCE4E8" width="9" height="161.9"/>
			
				<radialGradient id="mbplight_1_" cx="1913.2986" cy="13499.2021" r="163.2177" gradientTransform="matrix(0.9118 0.4011 -9.550000e-02 0.1842 827.556 -3404.3704)" gradientUnits="userSpaceOnUse">
				<stop  offset="0.103" style="stop-color:#3498DB;stop-opacity:0.4"/>
				<stop  offset="0.7955" style="stop-color:#3498DB;stop-opacity:5.650000e-02"/>
				<stop  offset="0.9095" style="stop-color:#3498DB;stop-opacity:0"/>
			</radialGradient>
			<polygon id="mbplight" fill="url(#mbplight_1_)" points="1456.4,-40 1121.7,-190.5 1165.8,-230.3 1464.9,-93.9 			"/>
			<path fill="#CCD1D9" d="M1464-74.8l-342.2-155.9c0,0-8.2-3.7-4.5-11.9s11.9-4.5,11.9-4.5l342.3,155.9c0,0,8.2,3.7,4.5,11.9
				C1472.2-71.1,1464-74.8,1464-74.8z"/>
			
				<rect x="1196.9" y="-40" transform="matrix(0.4145 -0.91 0.91 0.4145 708.3809 1113.8846)" fill="#F5F7FA" stroke="#CCD1D9" stroke-miterlimit="10" width="46" height="92.9"/>
			<g>
				
					<rect x="1170.6" y="-171.9" transform="matrix(0.4145 -0.9101 0.9101 0.4145 837.156 975.4417)" fill="#3B3B3B" stroke="#C1C1C1" stroke-miterlimit="10" width="12" height="18"/>
				
					<rect x="1159.1" y="-152.2" transform="matrix(0.4145 -0.91 0.91 0.4145 813.9133 978.7507)" fill="#3B3B3B" stroke="#C1C1C1" stroke-miterlimit="10" width="17" height="18"/>
				
					<rect x="1153.2" y="-132.9" transform="matrix(0.4145 -0.91 0.91 0.4145 788.0489 989.0978)" fill="#3B3B3B" stroke="#C1C1C1" stroke-miterlimit="10" width="19" height="30"/>
				
					<rect x="1150.3" y="-115" transform="matrix(0.4145 -0.9101 0.9101 0.4145 763.5708 999.8846)" fill="#3B3B3B" stroke="#C1C1C1" stroke-miterlimit="10" width="17" height="43"/>
				
					<rect x="1181.5" y="-142.6" transform="matrix(0.4145 -0.91 0.91 0.4145 817.8553 1005.0504)" fill="#3B3B3B" stroke="#C1C1C1" stroke-miterlimit="10" width="17" height="19"/>
				
					<rect x="1181" y="-114.9" transform="matrix(0.4145 -0.91 0.91 0.4145 792.9597 1021.7256)" fill="#3B3B3B" stroke="#C1C1C1" stroke-miterlimit="10" width="19" height="19"/>
				
					<rect x="1183.8" y="-87.6" transform="matrix(0.4145 -0.91 0.91 0.4145 769.1418 1039.3326)" fill="#3B3B3B" stroke="#C1C1C1" stroke-miterlimit="10" width="17" height="19"/>
				
					<rect x="1205.3" y="-77.4" transform="matrix(0.4145 -0.91 0.91 0.4145 772.9146 1064.6031)" fill="#3B3B3B" stroke="#C1C1C1" stroke-miterlimit="10" width="17" height="18"/>
				
					<rect x="1228.1" y="-67.1" transform="matrix(0.4145 -0.9101 0.9101 0.4145 776.9224 1091.4164)" fill="#3B3B3B" stroke="#C1C1C1" stroke-miterlimit="10" width="17" height="18"/>
				
					<rect x="1249.9" y="-57" transform="matrix(0.4145 -0.91 0.91 0.4145 780.4587 1117.0999)" fill="#3B3B3B" stroke="#C1C1C1" stroke-miterlimit="10" width="17" height="18"/>
				
					<rect x="1272.7" y="-46.8" transform="matrix(0.4145 -0.9101 0.9101 0.4145 784.5579 1143.8862)" fill="#3B3B3B" stroke="#C1C1C1" stroke-miterlimit="10" width="17" height="18"/>
				
					<rect x="1294.1" y="-37.5" transform="matrix(0.4145 -0.9101 0.9101 0.4145 788.2276 1169.0433)" fill="#3B3B3B" stroke="#C1C1C1" stroke-miterlimit="10" width="17" height="19"/>
				
					<rect x="1327.7" y="-34.2" transform="matrix(0.4145 -0.91 0.91 0.4145 793.9074 1208.5861)" fill="#3B3B3B" stroke="#C1C1C1" stroke-miterlimit="10" width="17" height="43"/>
				
					<rect x="1203.3" y="-104.1" transform="matrix(0.4145 -0.91 0.91 0.4145 796.5944 1048.0377)" fill="#3B3B3B" stroke="#C1C1C1" stroke-miterlimit="10" width="19" height="18"/>
				
					<rect x="1225.6" y="-94.4" transform="matrix(0.4145 -0.91 0.91 0.4145 800.3825 1074.2966)" fill="#3B3B3B" stroke="#C1C1C1" stroke-miterlimit="10" width="19" height="19"/>
				
					<rect x="1248" y="-84" transform="matrix(0.4144 -0.9101 0.9101 0.4144 804.6185 1100.5208)" fill="#3B3B3B" stroke="#C1C1C1" stroke-miterlimit="10" width="19" height="18"/>
				
					<rect x="1270.2" y="-74.3" transform="matrix(0.4145 -0.91 0.91 0.4145 808.2401 1126.6672)" fill="#3B3B3B" stroke="#C1C1C1" stroke-miterlimit="10" width="19" height="19"/>
				
					<rect x="1292.5" y="-63.5" transform="matrix(0.4145 -0.91 0.91 0.4145 811.8965 1152.9583)" fill="#3B3B3B" stroke="#C1C1C1" stroke-miterlimit="10" width="19" height="18"/>
				
					<rect x="1314.8" y="-53.9" transform="matrix(0.4145 -0.91 0.91 0.4145 815.7487 1179.1732)" fill="#3B3B3B" stroke="#C1C1C1" stroke-miterlimit="10" width="19" height="19"/>
				
					<rect x="1342.6" y="-46.8" transform="matrix(0.4145 -0.9101 0.9101 0.4145 820.5953 1211.9275)" fill="#3B3B3B" stroke="#C1C1C1" stroke-miterlimit="10" width="19" height="30"/>
				
					<rect x="1204.1" y="-132.1" transform="matrix(0.4145 -0.91 0.91 0.4145 821.5495 1031.7529)" fill="#3B3B3B" stroke="#C1C1C1" stroke-miterlimit="10" width="17" height="19"/>
				
					<rect x="1225.7" y="-121.8" transform="matrix(0.4145 -0.91 0.91 0.4145 825.2365 1057.1548)" fill="#3B3B3B" stroke="#C1C1C1" stroke-miterlimit="10" width="17" height="18"/>
				
					<rect x="1248.4" y="-111.7" transform="matrix(0.4145 -0.9101 0.9101 0.4145 829.397 1083.7668)" fill="#3B3B3B" stroke="#C1C1C1" stroke-miterlimit="10" width="17" height="18"/>
				
					<rect x="1270.4" y="-101.6" transform="matrix(0.4145 -0.9101 0.9101 0.4145 833.1399 1109.6656)" fill="#3B3B3B" stroke="#C1C1C1" stroke-miterlimit="10" width="17" height="18"/>
				
					<rect x="1292.9" y="-91.2" transform="matrix(0.4144 -0.9101 0.9101 0.4144 836.8796 1136.2296)" fill="#3B3B3B" stroke="#C1C1C1" stroke-miterlimit="10" width="17" height="18"/>
				
					<rect x="1314.4" y="-82.1" transform="matrix(0.4145 -0.9101 0.9101 0.4145 840.7036 1161.4142)" fill="#3B3B3B" stroke="#C1C1C1" stroke-miterlimit="10" width="17" height="19"/>
				
					<rect x="1348.1" y="-78.7" transform="matrix(0.4145 -0.9101 0.9101 0.4145 846.3491 1201.1272)" fill="#3B3B3B" stroke="#C1C1C1" stroke-miterlimit="10" width="17" height="43"/>
				
					<rect x="1128" y="-85.7" transform="matrix(0.4145 -0.9101 0.9101 0.4145 735.8852 990.287)" fill="#3B3B3B" stroke="#C1C1C1" stroke-miterlimit="10" width="19" height="18"/>
				
					<rect x="1150.2" y="-76" transform="matrix(0.4145 -0.91 0.91 0.4145 739.4926 1016.463)" fill="#3B3B3B" stroke="#C1C1C1" stroke-miterlimit="10" width="19" height="19"/>
				
					<rect id="spacebar" x="1217.1" y="-94" transform="matrix(0.4145 -0.91 0.91 0.4145 750.969 1095.0886)" fill="#3B3B3B" stroke="#C1C1C1" stroke-miterlimit="10" width="19" height="115.9"/>
				
					<rect x="1283.1" y="-15.6" transform="matrix(0.4145 -0.9101 0.9101 0.4145 762.4484 1172.7734)" fill="#3B3B3B" stroke="#C1C1C1" stroke-miterlimit="10" width="19" height="19"/>
				
					<rect x="1305.9" y="-5.3" transform="matrix(0.4145 -0.9101 0.9101 0.4145 766.3319 1199.5817)" fill="#3B3B3B" stroke="#C1C1C1" stroke-miterlimit="10" width="19" height="19"/>
				
					<rect x="1328.1" y="5.4" transform="matrix(0.4145 -0.9101 0.9101 0.4145 770.0591 1225.7726)" fill="#3B3B3B" stroke="#C1C1C1" stroke-miterlimit="10" width="19" height="18"/>
				
					<rect x="1192.9" y="-162.1" transform="matrix(0.4145 -0.91 0.91 0.4145 840.8012 1001.7083)" fill="#3B3B3B" stroke="#C1C1C1" stroke-miterlimit="10" width="12" height="19"/>
				
					<rect x="1215.7" y="-151.8" transform="matrix(0.4145 -0.9101 0.9101 0.4145 844.7997 1028.5247)" fill="#3B3B3B" stroke="#C1C1C1" stroke-miterlimit="10" width="12" height="19"/>
				
					<rect x="1237" y="-141.5" transform="matrix(0.4145 -0.91 0.91 0.4145 848.3292 1053.6278)" fill="#3B3B3B" stroke="#C1C1C1" stroke-miterlimit="10" width="12" height="18"/>
				
					<rect x="1259.7" y="-131.1" transform="matrix(0.4145 -0.91 0.91 0.4145 852.1584 1080.3657)" fill="#3B3B3B" stroke="#C1C1C1" stroke-miterlimit="10" width="12" height="18"/>
				
					<rect x="1281.7" y="-121.3" transform="matrix(0.4145 -0.9101 0.9101 0.4145 856.1637 1106.1963)" fill="#3B3B3B" stroke="#C1C1C1" stroke-miterlimit="10" width="12" height="18"/>
				
					<rect x="1304.4" y="-110.9" transform="matrix(0.4145 -0.9101 0.9101 0.4145 859.9904 1132.938)" fill="#3B3B3B" stroke="#C1C1C1" stroke-miterlimit="10" width="12" height="18"/>
				
					<rect x="1325.9" y="-101.6" transform="matrix(0.4145 -0.9101 0.9101 0.4145 863.6282 1158.2155)" fill="#3B3B3B" stroke="#C1C1C1" stroke-miterlimit="10" width="12" height="19"/>
				
					<rect x="1348.5" y="-91.2" transform="matrix(0.4145 -0.91 0.91 0.4145 867.3755 1184.8414)" fill="#3B3B3B" stroke="#C1C1C1" stroke-miterlimit="10" width="12" height="19"/>
				
					<rect x="1370.7" y="-80.5" transform="matrix(0.4146 -0.91 0.91 0.4146 870.9622 1210.9397)" fill="#3B3B3B" stroke="#C1C1C1" stroke-miterlimit="10" width="12" height="18"/>
			</g>
		</g>
	</g>
	<g id="bevanda">
		<circle opacity="0.8" fill="#2980B9" enable-background="new    " cx="915.6" cy="-231.3" r="50.6"/>
		<circle fill="#E6E9ED" cx="920.6" cy="-233.3" r="50.6"/>
		<path fill="#E74C3C" d="M920.6-275c23,0,41.7,18.7,41.7,41.7s-18.7,41.7-41.7,41.7c-10.4,0-19.9-3.8-27.2-10.1
			c-8.9-7.6-14.5-19-14.5-31.6C878.9-256.3,897.6-275,920.6-275z"/>
		<path id="linecover1" fill="#E6E9ED" d="M920.6-276c23.6,0,42.7,19.1,42.7,42.7s-19.1,42.7-42.7,42.7c-10.6,0-20.3-3.9-27.8-10.3
			c-9.1-7.8-14.9-19.4-14.9-32.4C877.9-256.9,897-276,920.6-276z"/>
		
			<ellipse transform="matrix(0.1184 -0.993 0.993 0.1184 999.1154 722.98)" fill="#D8D8DA" cx="906.7" cy="-201.2" rx="7.7" ry="11.6"/>
		<polygon fill="#CCD1D9" points="857.4,-211.1 898.3,-204.1 897.8,-200.6 856.5,-203.4 		"/>
		
			<ellipse transform="matrix(0.1184 -0.993 0.993 0.1184 999.1143 722.9828)" fill="#AAB2BD" cx="906.7" cy="-201.2" rx="6.4" ry="9.6"/>
		<path fill="#FFFFFF" d="M893.3-276.2l9.7,12.5c1.6,2.1,1.2,5-0.8,6.7c-2.1,1.6-5,1.2-6.6-0.8l-9.7-12.5c-1.6-2.1-1.2-5,0.8-6.7
			C888.7-278.6,891.7-278.2,893.3-276.2z"/>
		<circle fill="#FFFFFF" cx="920.6" cy="-233.3" r="34.8"/>
		<circle fill="#E6E7E8" cx="920.6" cy="-233.3" r="31.3"/>
		<circle fill="#49433C" cx="920.6" cy="-233.3" r="29.6"/>
		<path fill="#363532" d="M899.4-216.8c9.1,11.7,26,13.8,37.7,4.7c0.7-0.5,0.8-1.5,0.3-2.2s-1.5-0.8-2.2-0.3
			c-0.3,0.2-0.6,0.4-0.9,0.6c-0.1,0.1-0.1,0.1-0.2,0.2c-0.3,0.2-0.6,0.4-0.8,0.5c-0.1,0.1-0.2,0.1-0.3,0.2c-0.2,0.1-0.4,0.2-0.6,0.3
			c-0.1,0.1-0.3,0.1-0.4,0.2c-0.2,0.1-0.5,0.2-0.7,0.4c-0.2,0.1-0.4,0.2-0.5,0.3s-0.3,0.1-0.4,0.2c-0.2,0.1-0.3,0.2-0.5,0.2
			c-0.2,0.1-0.5,0.2-0.7,0.3s-0.3,0.1-0.5,0.2c-0.2,0.1-0.3,0.1-0.5,0.2c-0.1,0.1-0.3,0.1-0.4,0.1c-0.3,0.1-0.6,0.2-0.9,0.2
			c-0.1,0-0.2,0.1-0.3,0.1c-0.2,0.1-0.5,0.1-0.8,0.2c-0.1,0-0.2,0-0.2,0.1c-0.3,0.1-0.7,0.1-1,0.2c0,0,0,0-0.1,0
			c-0.2,0-0.4,0.1-0.6,0.1c-0.1,0-0.3,0-0.4,0.1h-0.1c-0.7,0.1-1.5,0.1-2.2,0.1l0,0c-0.7,0-1.5,0-2.2-0.1h-0.1c-0.3,0-0.7-0.1-1-0.1
			c0,0,0,0-0.1,0c-0.3,0-0.6-0.1-0.9-0.1c-0.1,0-0.3,0-0.4-0.1c-0.2,0-0.4-0.1-0.5-0.1c-0.6-0.1-1.3-0.3-1.9-0.5l0,0
			c-3.4-1-6.6-2.8-9.2-5.2c0,0,0,0-0.1,0c-0.1-0.1-0.3-0.3-0.4-0.4c-0.1-0.1-0.2-0.2-0.4-0.4c-0.1-0.1-0.2-0.2-0.4-0.4
			s-0.4-0.4-0.6-0.7c-0.1-0.1-0.1-0.2-0.2-0.2c-0.2-0.3-0.5-0.5-0.7-0.8s-0.4-0.6-0.6-0.9c-0.1-0.1-0.1-0.2-0.2-0.3
			c-0.2-0.2-0.3-0.5-0.5-0.7c-0.1-0.1-0.2-0.3-0.3-0.4c-0.1-0.1-0.2-0.3-0.3-0.4c-0.1-0.2-0.2-0.4-0.3-0.5c0,0,0,0,0-0.1
			c-1.7-3.2-2.6-6.7-2.8-10.3l0,0c0-0.7,0-1.3,0-2c0-0.2,0-0.4,0-0.5s0-0.3,0-0.4c0-0.3,0.1-0.6,0.1-1c0,0,0,0,0-0.1
			c0-0.3,0.1-0.7,0.1-1v-0.1c0.1-0.7,0.3-1.4,0.5-2.2l0,0c0.2-0.7,0.4-1.4,0.7-2.1c0,0,0,0,0-0.1c0.1-0.1,0.1-0.3,0.2-0.4
			c0.1-0.2,0.2-0.4,0.2-0.6c0,0,0,0,0-0.1c0.1-0.3,0.3-0.6,0.4-0.9c0-0.1,0.1-0.1,0.1-0.2c0.1-0.2,0.2-0.5,0.4-0.7
			c0.1-0.1,0.1-0.2,0.2-0.3c0.1-0.3,0.3-0.5,0.4-0.8c0.1-0.1,0.2-0.3,0.3-0.4c0.1-0.1,0.2-0.3,0.3-0.4c0.1-0.1,0.2-0.3,0.3-0.4
			c0.2-0.2,0.3-0.4,0.5-0.6c0.1-0.1,0.2-0.3,0.3-0.4c0.1-0.1,0.2-0.2,0.3-0.3c0.1-0.2,0.3-0.3,0.4-0.5c0.2-0.2,0.3-0.4,0.5-0.6
			c0.1-0.1,0.2-0.2,0.3-0.3c0.2-0.2,0.3-0.3,0.5-0.5c0.1-0.1,0.1-0.2,0.2-0.2c0.2-0.2,0.5-0.4,0.7-0.7c0.1-0.1,0.1-0.1,0.2-0.2
			c0.3-0.2,0.5-0.5,0.8-0.7c0.7-0.5,0.8-1.5,0.3-2.2c-0.5-0.7-1.5-0.8-2.2-0.3C892.4-245.4,890.3-228.5,899.4-216.8z"/>
		<path fill="#363532" d="M909.3-256c0.3,0.8,1.3,1.2,2.1,0.8c0.2-0.1,0.4-0.2,0.6-0.3h0.1l0,0c0.2-0.1,0.4-0.1,0.6-0.2l0,0
			c0.1,0,0.1,0,0.2-0.1l0,0c0.2-0.1,0.4-0.1,0.6-0.2l0,0l0,0l0,0c0.4-0.1,0.9-0.3,1.4-0.4c0.1,0,0.1,0,0.2,0
			c0.4-0.1,0.9-0.2,1.3-0.3c0.1,0,0.2,0,0.3-0.1c-0.1,0-0.1,0-0.2,0c0.1,0,0.1,0,0.2,0l0,0c0.1,0,0.3,0,0.4-0.1l0,0
			c0.1,0,0.1,0,0.1,0l0,0c-0.1,0-0.1,0-0.1,0c0.1,0,0.1,0,0.2,0c0.6-0.1,1.1,0.2,1.4,0.6c0.2,0.2,0.3,0.5,0.3,0.8
			c0.1,0.9-0.5,1.7-1.3,1.8l0,0l0,0c-1.3,0.2-2.6,0.5-3.9,0.9l0,0c0,0,0,0-0.1,0l0,0c-0.4,0.1-0.8,0.3-1.2,0.5
			c-0.8,0.3-1.1,1.3-0.8,2.1s1.3,1.2,2.1,0.8c2.2-0.9,4.5-1.4,6.9-1.4c0.1,0,0.1,0,0.2,0c0.2,0,0.3,0,0.5,0c0.1,0,0.2,0,0.3,0
			s0.3,0,0.5,0c0.1,0,0.2,0,0.3,0s0.2,0,0.3,0l0,0c0,0,0,0,0.1,0c0.4,0.1,0.7,0.3,0.9,0.6s0.4,0.7,0.3,1.2c-0.1,0.9-0.9,1.5-1.8,1.4
			c-2.5-0.3-5,0-7.2,1H915c-0.8,0.3-1.2,1.3-0.8,2.1c0.3,0.8,1.3,1.2,2.1,0.8c4.6-1.9,10-0.5,13,3.4c3.1,4,3.1,9.5,0.1,13.5
			c-0.5,0.7-0.4,1.7,0.3,2.2s1.7,0.4,2.2-0.3l0.2-0.2c1.4-1.9,2.3-4.2,2.6-6.6c0.1-0.9,0.9-1.5,1.8-1.4c0.4,0.1,0.8,0.3,1.1,0.6
			c0.2,0.3,0.4,0.7,0.3,1.1c0,0,0,0,0,0.1l0,0c0,0.1,0,0.2-0.1,0.3c0,0.1,0,0.2,0,0.3s-0.1,0.3-0.1,0.4c0,0.1,0,0.2-0.1,0.3
			c0,0.2-0.1,0.3-0.1,0.5c0,0.1,0,0.1,0,0.2c-0.6,2.3-1.6,4.4-3,6.3c-0.5,0.7-0.4,1.7,0.3,2.2s1.7,0.4,2.2-0.3
			c0.3-0.4,0.5-0.7,0.8-1.1l0,0c0,0,0,0,0-0.1l0,0c0.7-1.1,1.4-2.3,1.9-3.5l0,0l0,0c0.3-0.8,1.2-1.2,2.1-0.9
			c0.3,0.1,0.5,0.3,0.6,0.5c0.3,0.4,0.4,1,0.2,1.5c0,0.1,0,0.1-0.1,0.2c-0.1,0.2-0.2,0.4-0.2,0.6c0,0.1-0.1,0.2-0.1,0.3
			c-0.1,0.2-0.2,0.4-0.3,0.6c0,0.1-0.1,0.2-0.1,0.2c-0.1,0.2-0.2,0.4-0.3,0.6c0,0.1-0.1,0.1-0.1,0.2c-0.1,0.3-0.3,0.5-0.5,0.8
			c0,0,0,0,0,0.1l0,0c-0.1,0.2-0.2,0.4-0.4,0.6l-0.1,0.1l0,0c-0.1,0.1-0.1,0.2-0.2,0.3s-0.1,0.1-0.1,0.2c0,0,0,0-0.1,0.1
			c-0.1,0.2-0.3,0.4-0.4,0.6c-0.5,0.7-0.4,1.7,0.3,2.2s1.7,0.4,2.2-0.3c7.3-9.7,7.3-23.1-0.2-32.7c-7.4-9.6-20.5-13-31.6-8.3
			C909.4-257.7,909-256.8,909.3-256z M942.3-223.6c0,0.1-0.1,0.2-0.1,0.2C942.2-223.5,942.2-223.6,942.3-223.6z M941.9-222.8
			c0,0.1-0.1,0.1-0.1,0.2C941.8-222.6,941.8-222.7,941.9-222.8z M941.4-221.9l-0.1,0.1C941.3-221.8,941.4-221.8,941.4-221.9z
			 M942.5-224.3c0,0,0-0.1,0.1-0.1C942.6-224.4,942.6-224.4,942.5-224.3C942.6-224.3,942.5-224.3,942.5-224.3z"/>
		<path fill="#363532" d="M939.5-218.9C939.5-219,939.5-219,939.5-218.9c0.2-0.2,0.3-0.4,0.4-0.6
			C939.8-219.3,939.6-219.1,939.5-218.9z"/>
	</g>
	<g id="mouse">
		<path opacity="0.8" fill="#2980B9" enable-background="new    " d="M1471.8,116.1C1471.8,116.1,1471.8,116,1471.8,116.1
			c-9.8-7.2-23.6-5.2-30.9,4.6l-0.1,0.1l-0.1,0.2l-24.6,33.3c-0.1,0.1-0.2,0.3-0.2,0.4l-1.3,1.8l0,0c-7.2,9.9-5,23.5,4.7,30.7
			c9.8,7.3,23.7,5.1,30.9-4.6l26.2-35.5C1483.7,137.2,1481.6,123.3,1471.8,116.1z"/>
		<g>
			<g>
				<path fill="#CCD1D9" d="M1446.7,119.9L1446.7,119.9l-0.2,0.3l-24.6,33.3c-0.1,0.1-0.1,0.2-0.2,0.3l-1.2,1.6l0,0
					c-7.3,10.1-5.1,23.6,4.7,30.9l52.4-70.9C1467.8,108.1,1454,110.2,1446.7,119.9z"/>
				<path fill="#E6E9ED" d="M1477.6,115.4L1477.6,115.4l-52.5,70.9c9.8,7.3,23.7,5.2,30.9-4.6l-0.1-0.1l0,0l0,0l0.1,0.1l26.2-35.4
					C1489.5,136.5,1487.4,122.6,1477.6,115.4z"/>
			</g>
		</g>
	</g>
	<g id="iphone">
		<path opacity="0.8" fill="#2980B9" enable-background="new    " d="M1456.8-184.7l38.5-44.1c3-3.5,2.7-8.8-0.8-11.8l-88.1-77
			c-3.5-3-8.8-2.7-11.8,0.8l-38.5,44.1c-3,3.5-2.7,8.8,0.8,11.8l88.1,77C1448.4-180.9,1453.7-181.3,1456.8-184.7z"/>
		<path fill="#434A54" d="M1400.1-317.9l-38.5,44.1c-3,3.5-2.7,8.8,0.8,11.8l88.1,77c3.5,3,8.8,2.7,11.8-0.8l38.5-44.1
			c3-3.5,2.7-8.8-0.8-11.8l-88.1-77C1408.4-321.7,1403.1-321.4,1400.1-317.9z"/>
		<path fill="#586273" d="M1488.2-240.9l-38.5,44.1l-81.8-71.5l0,0l38.5-44l0,0L1488.2-240.9z"/>
		
			<rect x="1469.1" y="-215.2" transform="matrix(0.658 -0.753 0.753 0.658 665.0506 1038.0907)" fill="#434A54" width="12.5" height="4.2"/>
		<path fill="#F7F9F8" d="M1367.9-268.3L1367.9-268.3l81.8,71.5l38.5-44.1l-81.8-71.5l0,0L1367.9-268.3z"/>
		<path fill="#44C650" d="M1431.8-273.9l-5.5-2.6c-0.6-0.3-1.5-0.3-2.1,0l-9.2,4.3l0,0l-1.3-1.1c-0.4-2.2-1.7-4.6-3.9-6.4l-1.7-1.5
			c-3-2.6-7.5-2.5-10,0.4l0,0l0,0l0,0c-2.5,2.9-2.1,7.3,0.9,10l1.7,1.5c2.1,1.9,4.6,2.9,6.9,3l1.3,1.1l0,0l-3.1,9.7
			c-0.2,0.6,0,1.5,0.3,2.1l3.3,5.1c0.3,0.5,1,0.6,1.4,0.1l10.6-12.1l0,0l10.6-12.1C1432.5-273,1432.3-273.6,1431.8-273.9z"/>
		
			<rect x="1415" y="-254.7" transform="matrix(0.6579 -0.7531 0.7531 0.6579 678.6077 993.5785)" fill="#DCE4E8" width="35.9" height="9"/>
		
			<rect x="1425.3" y="-245.8" transform="matrix(0.658 -0.753 0.753 0.658 675.2461 1004.2424)" fill="#DCE4E8" width="35.9" height="9"/>
		
			<rect x="1444" y="-236.9" transform="matrix(0.658 -0.753 0.753 0.658 671.886 1014.6416)" fill="#DCE4E8" width="17.9" height="9"/>
		<circle fill="#586273" cx="1434.1" cy="-231.2" r="1.7"/>
		<circle fill="#586273" cx="1440" cy="-237.9" r="1.7"/>
		<circle fill="#586273" cx="1437.1" cy="-234.5" r="1.7"/>
		<path fill="#586273" d="M1444.1-242.6c0.7,0.6,0.8,1.7,0.1,2.4c-0.6,0.7-1.7,0.8-2.4,0.2c-0.7-0.6-0.8-1.7-0.1-2.4
			C1442.3-243.1,1443.4-243.2,1444.1-242.6z"/>
		<circle fill="#586273" cx="1424" cy="-240" r="1.7"/>
		<circle fill="#586273" cx="1435.8" cy="-253.5" r="1.7"/>
		<circle fill="#586273" cx="1429.9" cy="-246.8" r="1.7"/>
		<circle fill="#586273" cx="1427" cy="-243.4" r="1.7"/>
		<circle fill="#586273" cx="1432.9" cy="-250.1" r="1.7"/>
		
			<rect x="1448.7" y="-233.5" transform="matrix(0.6578 -0.7532 0.7532 0.6578 672.1519 1015.0558)" fill="#E74C3C" width="9" height="2.7"/>
		<path fill="none" d="M1400.1-317.9l-29.9,34.2l113.6,73.3l17.1-19.5c3-3.5,2.7-8.8-0.8-11.8l-88.1-77
			C1408.4-321.7,1403.1-321.4,1400.1-317.9z"/>
	</g>
	<g id="matita1">
		<polygon opacity="0.8" fill="#2980B9" enable-background="new    " points="1614,-48.9 1552,-176.9 1546.7,-174.3 1541.3,-171.8 
			1603.4,-43.7 1608.7,-46.3 		"/>
		<polygon fill="#2980B9" points="1617.8,-30.9 1614,-48.9 1603.4,-43.7 1615.1,-29.6 1619.1,-25 		"/>
		<g>
			<g>
				<polygon fill="#58585C" points="1612.8,-47.4 1553.4,-170.1 1550.8,-175.4 1545.4,-172.9 1607.5,-44.8 				"/>
				<polygon fill="#58585C" points="1612.8,-47.4 1618.1,-50 1556.1,-178 1550.8,-175.4 1553.4,-170.1 				"/>
			</g>
			<g>
				<polygon fill="#464E5C" points="1623.1,-26 1621.9,-32 1619.2,-30.7 				"/>
				<polygon fill="#F7D39A" points="1621.9,-32 1618.1,-50 1607.5,-44.8 1619.2,-30.7 				"/>
			</g>
			<g>
				
					<rect x="1552.5" y="-161.6" transform="matrix(0.8998 -0.4362 0.4362 0.8998 225.6327 663.8549)" fill="#DA4453" width="11.9" height="4.4"/>
			</g>
		</g>
	</g>
	<g id="foglio2">
		<g>
			<g opacity="0.8">
				<g>
					<polygon fill="#2980B9" points="661.6,-360.2 637.5,-171.7 788.3,-152.4 812.4,-341 814,-353.5 663.3,-372.8 					"/>
				</g>
			</g>
			<g>
				<g>
					
						<rect x="633.3" y="-334.9" transform="matrix(0.1268 -0.9919 0.9919 0.1268 892.828 496.2833)" fill="#EBF4FF" width="190" height="151.9"/>
				</g>
			</g>
			<g>
				<g>
					
						<rect x="734.8" y="-435.6" transform="matrix(0.1268 -0.9919 0.9919 0.1268 1003.9296 421.1947)" fill="#44C650" width="12.7" height="151.9"/>
				</g>
			</g>
			<g>
				<g>
					
						<rect x="699.4" y="-287.6" transform="matrix(0.1268 -0.9919 0.9919 0.1268 895.1782 454.4482)" fill="none" width="12.7" height="12.7"/>
				</g>
			</g>
			<g>
				<g>
					
						<rect x="721.8" y="-285.2" transform="matrix(0.1267 -0.9919 0.9919 0.1267 912.8769 472.8611)" fill="none" width="6.3" height="6.3"/>
				</g>
			</g>
			<g>
				<g>
					
						<rect x="706.6" y="-331.7" transform="matrix(0.1268 -0.9919 0.9919 0.1268 916.0027 440.4152)" fill="#434A54" width="3.2" height="63.2"/>
				</g>
			</g>
			<g>
				<g>
					
						<rect x="764.6" y="-313.1" transform="matrix(0.1268 -0.9919 0.9919 0.1268 959.248 504.5403)" fill="#3498DB" width="3.2" height="41.1"/>
				</g>
			</g>
			<g>
				<g>
					
						<rect x="729.4" y="-352.5" transform="matrix(0.1268 -0.9919 0.9919 0.1268 926.686 471.1505)" fill="#3498DB" width="3.2" height="123.4"/>
				</g>
			</g>
			<g>
				<g>
					
						<rect x="689.1" y="-305.4" transform="matrix(0.1268 -0.9919 0.9919 0.1268 890.3942 432.3192)" fill="#3498DB" width="3.2" height="31.6"/>
				</g>
			</g>
			<g>
				<g>
					
						<rect x="717.4" y="-292.1" transform="matrix(0.1269 -0.9919 0.9919 0.1269 911.2255 463.6862)" fill="#434A54" width="3.2" height="12.7"/>
				</g>
			</g>
			<g>
				<g>
					
						<rect x="756.6" y="-307.9" transform="matrix(0.1268 -0.9919 0.9919 0.1268 940.8036 506.7807)" fill="#3498DB" width="3.2" height="53.8"/>
				</g>
			</g>
			<g>
				<g>
					
						<rect x="673.3" y="-256.2" transform="matrix(0.1268 -0.9919 0.9919 0.1268 827.7925 459.6095)" fill="#434A54" width="3.2" height="31.6"/>
				</g>
			</g>
			<g>
				<g>
					
						<rect x="665.5" y="-238.3" transform="matrix(0.1269 -0.9919 0.9919 0.1269 809.3356 461.9215)" fill="#434A54" width="3.2" height="19"/>
				</g>
			</g>
			<g>
				<g>
					
						<rect x="687.4" y="-232.2" transform="matrix(0.1269 -0.9919 0.9919 0.1269 825.6208 486.2254)" fill="#434A54" width="3.2" height="12.7"/>
				</g>
			</g>
			<g>
				<g>
					
						<rect x="669.4" y="-247.3" transform="matrix(0.1268 -0.9919 0.9919 0.1268 818.695 460.6673)" fill="#434A54" width="3.2" height="25.3"/>
				</g>
			</g>
			<g>
				<g>
					
						<rect x="670.9" y="-237.4" transform="matrix(0.1268 -0.9919 0.9919 0.1268 807.051 473.644)" fill="#434A54" width="3.2" height="31.6"/>
				</g>
			</g>
			<g>
				<g>
					
						<rect x="665.1" y="-281.1" transform="matrix(0.1269 -0.9919 0.9919 0.1269 854.5381 446.6002)" fill="#CCD1D9" width="31.7" height="38"/>
				</g>
			</g>
			<g>
				<g>
					
						<rect x="721.9" y="-240.6" transform="matrix(0.1268 -0.9919 0.9919 0.1268 851.5861 524.229)" fill="#434A54" width="3.2" height="38"/>
				</g>
			</g>
			<g>
				<g>
					
						<rect x="708.6" y="-223.2" transform="matrix(0.1268 -0.9919 0.9919 0.1268 835.2667 515.0921)" fill="#434A54" width="3.2" height="12.7"/>
				</g>
			</g>
			<g>
				<g>
					
						<rect x="724.4" y="-218" transform="matrix(0.127 -0.9919 0.9919 0.127 846.9403 532.559)" fill="#434A54" width="3.2" height="6.3"/>
				</g>
			</g>
			<g>
				<g>
					
						<rect x="713.3" y="-238.6" transform="matrix(0.1268 -0.9919 0.9919 0.1268 851.5161 509.15)" fill="#434A54" width="3.2" height="19"/>
				</g>
			</g>
			<g>
				<g>
					
						<rect x="735.4" y="-232.4" transform="matrix(0.1268 -0.9919 0.9919 0.1268 867.7905 533.6449)" fill="#434A54" width="3.2" height="12.7"/>
				</g>
			</g>
			<g>
				<g>
					
						<rect x="720.4" y="-250.2" transform="matrix(0.1268 -0.9919 0.9919 0.1268 862.9684 511.5665)" fill="#434A54" width="3.2" height="31.6"/>
				</g>
			</g>
			<g>
				<g>
					
						<rect x="712.1" y="-275.1" transform="matrix(0.1268 -0.9919 0.9919 0.1268 889.6977 498.4245)" fill="#CCD1D9" width="31.7" height="38"/>
				</g>
			</g>
			<g>
				<g>
					
						<rect x="770.7" y="-247.1" transform="matrix(0.1268 -0.9919 0.9919 0.1268 900.6439 566.9605)" fill="#434A54" width="3.2" height="38"/>
				</g>
			</g>
			<g>
				<g>
					
						<rect x="762.8" y="-228.9" transform="matrix(0.1269 -0.9919 0.9919 0.1269 881.9306 569.398)" fill="#434A54" width="3.2" height="25.3"/>
				</g>
			</g>
			<g>
				<g>
					
						<rect x="758.4" y="-229.7" transform="matrix(0.1268 -0.9919 0.9919 0.1268 885.1975 558.8154)" fill="#434A54" width="3.2" height="12.7"/>
				</g>
			</g>
			<g>
				<g>
					
						<rect x="758.8" y="-220" transform="matrix(0.1268 -0.9919 0.9919 0.1268 872.7972 570.5232)" fill="#434A54" width="3.2" height="19"/>
				</g>
			</g>
			<g>
				<g>
					
						<rect x="780.9" y="-213.9" transform="matrix(0.1268 -0.9919 0.9919 0.1268 889.1711 594.9294)" fill="#434A54" width="3.2" height="12.7"/>
				</g>
			</g>
			<g>
				<g>
					
						<rect x="779.3" y="-230" transform="matrix(0.1269 -0.9919 0.9919 0.1269 900.4569 582.0464)" fill="#434A54" width="3.2" height="19"/>
				</g>
			</g>
			<g>
				<g>
					
						<rect x="759.3" y="-269.1" transform="matrix(0.1268 -0.9919 0.9919 0.1268 924.9109 550.5272)" fill="#CCD1D9" width="31.6" height="38"/>
				</g>
			</g>
			<g>
				<g>
					
						<rect x="729.2" y="-382.1" transform="matrix(0.1268 -0.9919 0.9919 0.1268 955.3953 454.0611)" fill="#CCD1D9" width="12.7" height="132.9"/>
				</g>
			</g>
			<g>
				<g>
					<g>
						
							<rect x="681.2" y="-329" transform="matrix(0.1268 -0.9919 0.9919 0.1268 915.9871 395.7938)" fill="#E5E5E5" width="3.2" height="13.3"/>
					</g>
				</g>
			</g>
			<g>
				<g>
					<g>
						
							<rect x="702.8" y="-332.3" transform="matrix(0.1268 -0.9919 0.9919 0.1268 935.6725 424.8538)" fill="#434A54" width="12.7" height="26.6"/>
					</g>
				</g>
				<g>
					<g>
						
							<rect x="707.7" y="-325.6" transform="matrix(0.1268 -0.9919 0.9919 0.1268 935.7538 425.0511)" fill="#E5E5E5" width="3.2" height="13.3"/>
					</g>
				</g>
			</g>
			<g>
				<g>
					<g>
						
							<rect x="734" y="-322.2" transform="matrix(0.1269 -0.9919 0.9919 0.1269 955.2822 454.1336)" fill="#E5E5E5" width="3.2" height="13.3"/>
					</g>
				</g>
			</g>
			<g>
				<g>
					<g>
						
							<rect x="760.4" y="-318.9" transform="matrix(0.1268 -0.9919 0.9919 0.1268 975.1262 483.1729)" fill="#E5E5E5" width="3.2" height="13.3"/>
					</g>
				</g>
			</g>
			<g>
				<g>
					<g>
						
							<rect x="786.8" y="-315.5" transform="matrix(0.1268 -0.9919 0.9919 0.1268 994.8036 512.3273)" fill="#E5E5E5" width="3.2" height="13.3"/>
					</g>
				</g>
			</g>
			<g>
				<g>
					<g>
						
							<rect x="711.3" y="-375.7" transform="matrix(0.1268 -0.9919 0.9919 0.1268 957.4894 412.3416)" fill="#CCD1D9" width="3.2" height="76"/>
					</g>
				</g>
				<g>
					<g>
						
							<rect x="683.9" y="-357.1" transform="matrix(0.1268 -0.9919 0.9919 0.1268 943.2977 376.4201)" fill="#CCD1D9" width="3.2" height="19"/>
					</g>
				</g>
			</g>
			<g>
				<g>
					
						<rect x="706.8" y="-256.4" transform="matrix(0.1268 -0.9919 0.9919 0.1268 816.6559 547.8475)" fill="#CCD1D9" width="25.3" height="132.9"/>
				</g>
			</g>
		</g>
	</g>
	<g id="foglio1">
		
			<rect x="489.5" y="-374" transform="matrix(0.9495 -0.3137 0.3137 0.9495 111.1606 165.0442)" fill="#2980B9" width="157.9" height="222.2"/>
		<g>
			<g>
				<g>
					<g>
						
							<rect x="491.5" y="-373.4" transform="matrix(0.9495 -0.3137 0.3137 0.9495 111.0733 165.7065)" fill="#F7F9F8" width="157.9" height="222.2"/>
					</g>
				</g>
			</g>
			<g>
				
					<rect x="565" y="-319.4" transform="matrix(0.9495 -0.3137 0.3137 0.9495 129.2034 170.2037)" fill="#B7BFC7" width="57" height="6"/>
				
					<rect x="567.9" y="-309.9" transform="matrix(0.9495 -0.3137 0.3137 0.9495 126.3713 171.6198)" fill="#DCE4E8" width="57" height="6"/>
				
					<rect x="571.2" y="-300.3" transform="matrix(0.9495 -0.3137 0.3137 0.9495 123.5207 173.113)" fill="#DCE4E8" width="57" height="6"/>
				
					<rect x="574.3" y="-290.9" transform="matrix(0.9495 -0.3137 0.3137 0.9495 120.7297 174.5571)" fill="#DCE4E8" width="57" height="6"/>
			</g>
			
				<rect x="484" y="-325.3" transform="matrix(0.9495 -0.3137 0.3137 0.9495 128.91 156.5527)" fill="#DCE4E8" width="133.9" height="6"/>
			
				<rect x="477.6" y="-354.3" transform="matrix(0.9495 -0.3137 0.3137 0.9495 134.5518 153.6154)" fill="#B7BFC7" width="133.9" height="26"/>
			<g>
				
					<rect x="505.2" y="-260.7" transform="matrix(0.9495 -0.3137 0.3137 0.9495 109.711 166.4726)" fill="#DCE4E8" width="133.9" height="6"/>
				
					<rect x="508.5" y="-251.3" transform="matrix(0.9495 -0.3137 0.3137 0.9495 106.9292 167.9789)" fill="#DCE4E8" width="133.9" height="6"/>
				
					<rect x="511.4" y="-241.8" transform="matrix(0.9495 -0.3137 0.3137 0.9495 104.0973 169.3949)" fill="#DCE4E8" width="133.9" height="6"/>
			</g>
			<g>
				
					<rect x="529.7" y="-186.7" transform="matrix(0.9495 -0.3137 0.3137 0.9495 87.7301 177.8871)" fill="#DCE4E8" width="133.9" height="6"/>
				
					<rect x="533.7" y="-172.4" transform="matrix(0.9495 -0.3137 0.3137 0.9495 82.7 175.1751)" fill="#DCE4E8" width="104" height="6"/>
			</g>
			<g>
				
					<rect x="518.6" y="-216.6" transform="matrix(0.9495 -0.3137 0.3137 0.9495 95.4166 165.8564)" fill="#B7BFC7" width="89" height="6"/>
				
					<rect x="521.7" y="-207.2" transform="matrix(0.9495 -0.3137 0.3137 0.9495 92.6256 167.3001)" fill="#DCE4E8" width="89" height="6"/>
				
					<rect x="524.9" y="-197.6" transform="matrix(0.9495 -0.3137 0.3137 0.9495 89.7745 168.7928)" fill="#DCE4E8" width="89" height="6"/>
				
					<rect x="617" y="-239.8" transform="matrix(0.9496 -0.3136 0.3136 0.9496 103.1186 187.5273)" fill="#44C650" width="35" height="26"/>
			</g>
			<g>
				
					<rect x="497.7" y="-288" transform="matrix(0.9495 -0.3137 0.3137 0.9495 110.0141 143.5826)" fill="#DCE4E8" width="7" height="36"/>
				
					<rect x="507.2" y="-291.3" transform="matrix(0.9495 -0.3138 0.3138 0.9495 111.5446 146.4428)" fill="#DCE4E8" width="7" height="36"/>
				
					<rect x="516.7" y="-294.4" transform="matrix(0.9495 -0.3138 0.3138 0.9495 112.995 149.2693)" fill="#DCE4E8" width="7" height="36"/>
				
					<rect x="526.3" y="-297.5" transform="matrix(0.9495 -0.3138 0.3138 0.9495 114.4604 152.1232)" fill="#DCE4E8" width="7" height="36"/>
				
					<rect x="535.7" y="-300.7" transform="matrix(0.9495 -0.3137 0.3137 0.9495 115.8884 154.8674)" fill="#DCE4E8" width="7" height="36"/>
				
					<rect x="545.2" y="-303.8" transform="matrix(0.9496 -0.3134 0.3134 0.9496 117.1989 157.5567)" fill="#DCE4E8" width="7" height="36"/>
				
					<rect x="554.8" y="-306.8" transform="matrix(0.9495 -0.3138 0.3138 0.9495 118.8154 160.5993)" fill="#DCE4E8" width="7" height="36"/>
				
					<rect x="500.9" y="-268.6" transform="matrix(0.9496 -0.3134 0.3134 0.9496 107.0686 144.943)" fill="#E74C3C" width="7" height="16"/>
				
					<rect x="509.9" y="-274.7" transform="matrix(0.9495 -0.3137 0.3137 0.9495 109.0943 147.6585)" fill="#E74C3C" width="7" height="19"/>
				
					<rect x="520.6" y="-270.9" transform="matrix(0.9495 -0.3138 0.3138 0.9495 109.5928 151.0744)" fill="#E74C3C" width="7" height="12"/>
				
					<rect x="528.4" y="-283.9" transform="matrix(0.9495 -0.3137 0.3137 0.9495 112.4439 153.0721)" fill="#E74C3C" width="7" height="22"/>
				
					<rect x="537.3" y="-290.9" transform="matrix(0.9495 -0.3137 0.3137 0.9495 114.4614 155.6147)" fill="#E74C3C" width="7" height="26"/>
				
					<rect x="550" y="-274.5" transform="matrix(0.9495 -0.3138 0.3138 0.9495 113.1485 159.9641)" fill="#E74C3C" width="7" height="6"/>
				
					<rect x="557.9" y="-287.4" transform="matrix(0.9496 -0.3134 0.3134 0.9496 115.8399 161.8557)" fill="#E74C3C" width="7" height="16"/>
			</g>
		</g>
	</g>
	<g id="occhiali">
		<g>
			<g>
				<path fill="#586273" d="M631.1-243.7c-1.3-0.2-2.2-1.5-2-2.8c1.6-9.2-4.6-18.1-13.8-19.7L529-281.4c-1.3-0.2-2.2-1.5-2-2.8
					s1.5-2.2,2.8-2l86.3,15.2c11.9,2.1,19.9,13.5,17.8,25.4C633.7-244.4,632.4-243.5,631.1-243.7z"/>
			</g>
		</g>
		<g>
			<g>
				<g>
					<path fill="#586273" d="M631.1-243.7c-1.3-0.2-2.2-1.5-2-2.8c1.6-9.2-4.6-18.1-13.8-19.7L529-281.4c-1.3-0.2-2.2-1.5-2-2.8
						s1.5-2.2,2.8-2l86.3,15.2c11.9,2.1,19.9,13.5,17.8,25.4C633.7-244.4,632.4-243.5,631.1-243.7z"/>
				</g>
			</g>
			<g>
				<g>
					<path fill="#586273" d="M535.3-260.6c-1.3-0.2-2.2-1.5-2-2.8c2.1-11.9,13.5-19.9,25.4-17.8L645-266c1.3,0.2,2.2,1.5,2,2.8
						s-1.5,2.2-2.8,2l-86.3-15.2c-9.2-1.6-18.1,4.6-19.7,13.8C537.8-261.2,536.6-260.4,535.3-260.6z"/>
				</g>
			</g>
		</g>
		<g opacity="0.3">
			<g>
				<g>
					<path fill="#EFEEEE" d="M574-256.2c-0.9,5.3-6,8.8-11.3,7.9l-28.8-5.1c-5.3-0.9-8.8-6-7.9-11.3l3.4-19.2
						c0.9-5.3,6-8.8,11.3-7.9l28.8,5.1c5.3,0.9,8.8,6,7.9,11.3L574-256.2z"/>
				</g>
			</g>
		</g>
		<g opacity="0.3">
			<g>
				<g>
					<path fill="#EFEEEE" d="M641.1-244.4c-0.9,5.3-6,8.8-11.3,7.9l-28.8-5.1c-5.3-0.9-8.8-6-7.9-11.3l3.4-19.2
						c0.9-5.3,6-8.8,11.3-7.9l28.8,5.1c5.3,0.9,8.8,6,7.9,11.3L641.1-244.4z"/>
				</g>
			</g>
		</g>
		<g>
			<g>
				<path fill="#586273" d="M593.6-255.3c-1.3-0.2-2.2-1.5-2-2.8c0.7-4-2-7.8-5.9-8.5c-4-0.7-7.8,2-8.5,5.9c-0.2,1.3-1.5,2.2-2.8,2
					s-2.2-1.5-2-2.8c1.2-6.6,7.5-11,14.1-9.9c6.6,1.2,11,7.5,9.9,14.1C596.2-255.9,594.9-255,593.6-255.3z"/>
			</g>
		</g>
		<g opacity="0.3">
			<path fill="#EFEEEE" d="M540.7-291.4c-5.3-0.9-10.2,2.3-11.1,7.6l-3.4,19.2c-0.9,5.3,2.5,10.8,7.8,11.7l14.1,2.5l6.8-38.4
				L540.7-291.4z"/>
		</g>
		<g opacity="0.3">
			<path fill="#EFEEEE" d="M607.8-279.6c-5.3-0.9-9.4,2.4-10.3,7.7l-3.4,19.2c-0.9,5.3,1.6,10.6,6.9,11.5l14,2.5l6.8-38.4
				L607.8-279.6z"/>
		</g>
		<g>
			<g>
				<path fill="none" d="M636.2-272.5l-28.8-5.1c-4-0.7-7.8,2-8.5,5.9l-3.4,19.2c-0.7,4,2,7.8,5.9,8.5l28.8,5.1c4,0.7,7.8-2,8.5-5.9
					l3.4-19.2C642.8-268,640.1-271.8,636.2-272.5z"/>
			</g>
			<g>
				<path fill="none" d="M569.1-284.3l-28.8-5.1c-4-0.7-7.8,2-8.5,5.9l-3.4,19.2c-0.7,4,2,7.8,5.9,8.5l28.8,5.1c4,0.7,7.8-2,8.5-5.9
					l3.4-19.2C575.7-279.8,573-283.6,569.1-284.3z"/>
			</g>
			<g>
				<path fill="#586273" d="M569.9-289.1l-28.8-5.1c-6.6-1.2-12.9,3.3-14.1,9.9l-3.4,19.2c-1.2,6.6,3.3,12.9,9.9,14.1l28.8,5.1
					c6.6,1.2,12.9-3.3,14.1-9.9l3.4-19.2C580.9-281.6,576.5-287.9,569.9-289.1z M571.6-256.7c-0.7,4-4.5,6.6-8.5,5.9l-28.8-5.1
					c-4-0.7-6.6-4.5-5.9-8.5l3.4-19.2c0.7-4,4.5-6.6,8.5-5.9l28.8,5.1c4,0.7,6.6,4.5,5.9,8.5L571.6-256.7z"/>
			</g>
			<g>
				<path fill="#586273" d="M637-277.3l-28.8-5.1c-6.6-1.2-12.9,3.3-14.1,9.9l-3.4,19.2c-1.2,6.6,3.3,12.9,9.9,14.1l28.8,5.1
					c6.6,1.2,12.9-3.3,14.1-9.9l3.4-19.2C648-269.8,643.6-276.1,637-277.3z M638.7-244.8c-0.7,4-4.5,6.6-8.5,5.9l-28.8-5.1
					c-4-0.7-6.6-4.5-5.9-8.5l3.4-19.2c0.7-4,4.5-6.6,8.5-5.9l28.8,5.1c4,0.7,6.6,4.5,5.9,8.5L638.7-244.8z"/>
			</g>
		</g>
	</g>
	<g id="calcolatrice">
		<path opacity="0.8" fill="#2980B9" enable-background="new    " d="M1682.1-330.8l-33.9-36.1c-2.6-2.8-7.1-2.9-9.9-0.3l-53.9,50.6
			c-2.8,2.6-2.9,7.1-0.3,9.9l33.9,36.1c2.6,2.8,7.1,2.9,9.9,0.3l53.9-50.6C1684.6-323.5,1684.8-328,1682.1-330.8z"/>
		<g>
			<path fill="#F7F9F8" d="M1588.4-316.6c-2.8,2.6-2.9,7.1-0.3,9.9l33.9,36.1c2.6,2.8,7.1,2.9,9.9,0.3l53.9-50.6
				c2.8-2.6,2.9-7.1,0.3-9.9l-33.9-36.1c-2.6-2.8-7.1-2.9-9.9-0.3L1588.4-316.6z"/>
			<g>
				
					<rect x="1624.9" y="-345.1" transform="matrix(0.7291 -0.6844 0.6844 0.7291 674.4299 1023.0116)" fill="#E74C3C" width="9.3" height="9.3"/>
				
					<rect x="1634.4" y="-334.9" transform="matrix(0.7291 -0.6844 0.6844 0.7291 670.0209 1032.3025)" fill="#E74C3C" width="9.3" height="9.3"/>
				
					<rect x="1644" y="-324.6" transform="matrix(0.7291 -0.6844 0.6844 0.7291 665.5759 1041.6903)" fill="#E74C3C" width="9.3" height="9.3"/>
				
					<rect x="1653.5" y="-314.4" transform="matrix(0.7291 -0.6844 0.6844 0.7291 661.1806 1050.9712)" fill="#E74C3C" width="9.3" height="9.3"/>
				
					<rect x="1614.6" y="-335.6" transform="matrix(0.729 -0.6845 0.6845 0.729 665.321 1018.704)" fill="#E74C3C" width="9.3" height="9.3"/>
				
					<rect x="1624.3" y="-325.4" transform="matrix(0.7291 -0.6844 0.6844 0.7291 660.7912 1027.9594)" fill="#E74C3C" width="9.3" height="9.3"/>
				
					<rect x="1633.7" y="-315" transform="matrix(0.7292 -0.6843 0.6843 0.7292 656.0146 1037.1125)" fill="#E74C3C" width="9.3" height="9.3"/>
				
					<rect x="1643.5" y="-304.8" transform="matrix(0.7291 -0.6844 0.6844 0.7291 651.8734 1046.6646)" fill="#E74C3C" width="9.3" height="9.3"/>
				
					<rect x="1604.3" y="-325.9" transform="matrix(0.7292 -0.6843 0.6843 0.7292 655.5107 1014.0179)" fill="#E74C3C" width="9.3" height="9.3"/>
				
					<rect x="1614" y="-315.6" transform="matrix(0.7291 -0.6844 0.6844 0.7291 651.2869 1023.5999)" fill="#E74C3C" width="9.3" height="9.3"/>
				
					<rect x="1623.6" y="-305.5" transform="matrix(0.7291 -0.6844 0.6844 0.7291 646.9628 1032.8754)" fill="#E74C3C" width="9.3" height="9.3"/>
				
					<rect x="1633.2" y="-295.1" transform="matrix(0.7291 -0.6844 0.6844 0.7291 642.4881 1042.2327)" fill="#E74C3C" width="9.3" height="9.3"/>
				
					<rect x="1594.2" y="-316.3" transform="matrix(0.729 -0.6845 0.6845 0.729 646.5981 1009.9332)" fill="#E74C3C" width="9.3" height="9.3"/>
				
					<rect x="1603.8" y="-306" transform="matrix(0.729 -0.6846 0.6846 0.729 642.2633 1019.418)" fill="#E74C3C" width="9.3" height="9.3"/>
				
					<rect x="1618.1" y="-297.6" transform="matrix(0.7291 -0.6844 0.6844 0.7291 635.2694 1033.1743)" fill="#656D78" width="9.3" height="23.4"/>
			</g>
			
				<rect x="1648.2" y="-363.5" transform="matrix(0.7291 -0.6844 0.6844 0.7291 680.2374 1042.9021)" fill="#2C3E50" width="18.7" height="51.4"/>
			
				<rect x="1659.4" y="-333.4" transform="matrix(0.7292 -0.6843 0.6843 0.7292 677.1884 1049.0382)" fill="#ECF0F1" width="9.3" height="4.7"/>
			
				<rect x="1665.6" y="-326.6" transform="matrix(0.7288 -0.6848 0.6848 0.7288 675.0726 1055.8381)" fill="#ECF0F1" width="9.4" height="4.7"/>
			
				<rect x="1646.6" y="-346.9" transform="matrix(0.7293 -0.6842 0.6842 0.7293 682.7585 1036.4653)" fill="#ECF0F1" width="9.3" height="4.7"/>
			
				<rect x="1652.9" y="-340.1" transform="matrix(0.7292 -0.6843 0.6843 0.7292 680.0049 1042.7866)" fill="#ECF0F1" width="9.3" height="4.7"/>
		</g>
	</g>
	<g id="hellocontainer">
		<text id="hello" transform="matrix(1 0 0 1 526.8582 21.0823)" fill="#ECF0F1" font-family="'Roboto-Black'" font-size="120px">hello</text>
	</g>
	<g id="subtitle">
		
			<text id="scrolldown" transform="matrix(1 0 0 1 905.7269 21.0823)" fill="#F5ECD9" font-family="'Roboto-Regular'" font-size="14px">scroll down</text>
		
			<text id="viewresume" transform="matrix(1 0 0 1 980.327 21.0823)" fill="#DED6C7" font-family="'Roboto-Regular'" font-size="14px">or just view my resume.</text>
	</g>
</g>
<g id="intro1">
	<text transform="matrix(1 0 0 1 527.3451 60.4757)" fill="#ECF0F1" font-family="'Roboto-Thin'" font-size="30px">I’m Albino Tonnina,</text>
	<text transform="matrix(1 0 0 1 527.3451 96.4757)" fill="#ECF0F1" font-family="'Roboto-Thin'" font-size="30px">I’m a self-taught developer.</text>
</g>
</svg>
